G04 #@! TF.GenerationSoftware,KiCad,Pcbnew,5.1.5*
G04 #@! TF.CreationDate,2020-01-08T22:08:46+02:00*
G04 #@! TF.ProjectId,proto_II_assembly,70726f74-6f5f-4494-995f-617373656d62,rev?*
G04 #@! TF.SameCoordinates,Original*
G04 #@! TF.FileFunction,Profile,NP*
%FSLAX46Y46*%
G04 Gerber Fmt 4.6, Leading zero omitted, Abs format (unit mm)*
G04 Created by KiCad (PCBNEW 5.1.5) date 2020-01-08 22:08:46*
%MOMM*%
%LPD*%
G04 APERTURE LIST*
G04 #@! TA.AperFunction,Profile*
%ADD10C,0.100000*%
G04 #@! TD*
G04 APERTURE END LIST*
D10*
X122999999Y-40050000D02*
X53000000Y-40050000D01*
X137999998Y-128000001D02*
G75*
G02X136000001Y-130000000I-1999998J-1D01*
G01*
X37999999Y-35050001D02*
G75*
G02X40000000Y-33050000I2000001J0D01*
G01*
X137999999Y-35050001D02*
X137999999Y-128000002D01*
X50999999Y-125000001D02*
G75*
G02X53000000Y-123000000I2000001J0D01*
G01*
X50999998Y-128000001D02*
G75*
G02X49000001Y-130000000I-1999998J-1D01*
G01*
X124999999Y-35050000D02*
G75*
G02X126999999Y-33050000I2000000J0D01*
G01*
X135999998Y-33050000D02*
X126999999Y-33050000D01*
X49000000Y-33050001D02*
X40000000Y-33050000D01*
X40000000Y-130000001D02*
G75*
G02X38000000Y-127999999I1J2000001D01*
G01*
X51000000Y-35050001D02*
X51000000Y-38050000D01*
X135999999Y-33050001D02*
G75*
G02X137999999Y-35050001I0J-2000000D01*
G01*
X53000000Y-40050000D02*
G75*
G02X51000000Y-38050000I0J2000000D01*
G01*
X122999999Y-123000001D02*
G75*
G02X125000000Y-125000000I1J-2000000D01*
G01*
X49000000Y-33050001D02*
G75*
G02X51000000Y-35050001I0J-2000000D01*
G01*
X125000000Y-127999999D02*
X125000000Y-125000000D01*
X124999999Y-38050000D02*
G75*
G02X122999999Y-40050000I-2000000J0D01*
G01*
X49000001Y-130000000D02*
X40000001Y-130000000D01*
X124999999Y-35050000D02*
X124999999Y-38050000D01*
X123000000Y-123000000D02*
X53000000Y-123000000D01*
X38000000Y-127999999D02*
X38000000Y-35050001D01*
X136000001Y-130000000D02*
X127000001Y-130000000D01*
X51000000Y-125000001D02*
X51000000Y-128000001D01*
X126999999Y-130000000D02*
G75*
G02X125000000Y-127999999I1J2000000D01*
G01*
M02*
