%FSLAX45Y45*%
G04 Gerber Fmt 4.5, Leading zero omitted, Abs format (unit mm)*
G04 Created by KiCad (PCBNEW 5.1.5) date 2020-01-08 22:08:45*
%MOMM*%
%LPD*%
G04 APERTURE LIST*
%TA.AperFunction,Profile*%
%ADD10C,0.100000*%
%TD*%
%ADD11C,0.200000*%
%ADD12C,0.300000*%
G04 APERTURE END LIST*
D10*
X12300000Y-4005000D02*
X5300000Y-4005000D01*
X13800000Y-12800000D02*
G75*
G02X13600000Y-13000000I-200000J0D01*
G01*
X3800000Y-3505000D02*
G75*
G02X4000000Y-3305000I200000J0D01*
G01*
X13800000Y-3505000D02*
X13800000Y-12800000D01*
X5100000Y-12500000D02*
G75*
G02X5300000Y-12300000I200000J0D01*
G01*
X5100000Y-12800000D02*
G75*
G02X4900000Y-13000000I-200000J0D01*
G01*
X12500000Y-3505000D02*
G75*
G02X12700000Y-3305000I200000J0D01*
G01*
X13600000Y-3305000D02*
X12700000Y-3305000D01*
X4900000Y-3305000D02*
X4000000Y-3305000D01*
X4000000Y-13000000D02*
G75*
G02X3800000Y-12800000I0J200000D01*
G01*
X5100000Y-3505000D02*
X5100000Y-3805000D01*
X13600000Y-3305000D02*
G75*
G02X13800000Y-3505000I0J-200000D01*
G01*
X5300000Y-4005000D02*
G75*
G02X5100000Y-3805000I0J200000D01*
G01*
X12300000Y-12300000D02*
G75*
G02X12500000Y-12500000I0J-200000D01*
G01*
X4900000Y-3305000D02*
G75*
G02X5100000Y-3505000I0J-200000D01*
G01*
X12500000Y-12800000D02*
X12500000Y-12500000D01*
X12500000Y-3805000D02*
G75*
G02X12300000Y-4005000I-200000J0D01*
G01*
X4900000Y-13000000D02*
X4000000Y-13000000D01*
X12500000Y-3505000D02*
X12500000Y-3805000D01*
X12300000Y-12300000D02*
X5300000Y-12300000D01*
X3800000Y-12800000D02*
X3800000Y-3505000D01*
X13600000Y-13000000D02*
X12700000Y-13000000D01*
X5100000Y-12500000D02*
X5100000Y-12800000D01*
X12700000Y-13000000D02*
G75*
G02X12500000Y-12800000I0J200000D01*
G01*
D11*
X10787500Y-9287500D02*
X10812500Y-9312500D01*
X10812500Y-9287500D02*
X10787500Y-9312500D01*
X10787500Y-9487500D02*
X10812500Y-9512500D01*
X10812500Y-9487500D02*
X10787500Y-9512500D01*
X10787500Y-9687500D02*
X10812500Y-9712500D01*
X10812500Y-9687500D02*
X10787500Y-9712500D01*
X10787500Y-9887500D02*
X10812500Y-9912500D01*
X10812500Y-9887500D02*
X10787500Y-9912500D01*
X10987500Y-9287500D02*
X11012500Y-9312500D01*
X11012500Y-9287500D02*
X10987500Y-9312500D01*
X10987500Y-9887500D02*
X11012500Y-9912500D01*
X11012500Y-9887500D02*
X10987500Y-9912500D01*
X11062500Y-9987500D02*
X11087500Y-10012500D01*
X11087500Y-9987500D02*
X11062500Y-10012500D01*
X11062500Y-10137500D02*
X11087500Y-10162500D01*
X11087500Y-10137500D02*
X11062500Y-10162500D01*
X11062500Y-10312500D02*
X11087500Y-10337500D01*
X11087500Y-10312500D02*
X11062500Y-10337500D01*
X11062500Y-10487500D02*
X11087500Y-10512500D01*
X11087500Y-10487500D02*
X11062500Y-10512500D01*
X11062500Y-10612500D02*
X11087500Y-10637500D01*
X11087500Y-10612500D02*
X11062500Y-10637500D01*
X11177500Y-9627500D02*
X11202500Y-9652500D01*
X11202500Y-9627500D02*
X11177500Y-9652500D01*
X11187500Y-9287500D02*
X11212500Y-9312500D01*
X11212500Y-9287500D02*
X11187500Y-9312500D01*
X11187500Y-9887500D02*
X11212500Y-9912500D01*
X11212500Y-9887500D02*
X11187500Y-9912500D01*
X11187500Y-9987500D02*
X11212500Y-10012500D01*
X11212500Y-9987500D02*
X11187500Y-10012500D01*
X11262500Y-10612500D02*
X11287500Y-10637500D01*
X11287500Y-10612500D02*
X11262500Y-10637500D01*
X11387500Y-9887500D02*
X11412500Y-9912500D01*
X11412500Y-9887500D02*
X11387500Y-9912500D01*
X11387500Y-9987500D02*
X11412500Y-10012500D01*
X11412500Y-9987500D02*
X11387500Y-10012500D01*
X11487500Y-10612500D02*
X11512500Y-10637500D01*
X11512500Y-10612500D02*
X11487500Y-10637500D01*
X11557500Y-10497500D02*
X11582500Y-10522500D01*
X11582500Y-10497500D02*
X11557500Y-10522500D01*
X11587500Y-9287500D02*
X11612500Y-9312500D01*
X11612500Y-9287500D02*
X11587500Y-9312500D01*
X11587500Y-9487500D02*
X11612500Y-9512500D01*
X11612500Y-9487500D02*
X11587500Y-9512500D01*
X11587500Y-9687500D02*
X11612500Y-9712500D01*
X11612500Y-9687500D02*
X11587500Y-9712500D01*
X11587500Y-9887500D02*
X11612500Y-9912500D01*
X11612500Y-9887500D02*
X11587500Y-9912500D01*
X11587500Y-9987500D02*
X11612500Y-10012500D01*
X11612500Y-9987500D02*
X11587500Y-10012500D01*
X11687500Y-9487500D02*
X11712500Y-9512500D01*
X11712500Y-9487500D02*
X11687500Y-9512500D01*
X11687500Y-9687500D02*
X11712500Y-9712500D01*
X11712500Y-9687500D02*
X11687500Y-9712500D01*
X11687500Y-9887500D02*
X11712500Y-9912500D01*
X11712500Y-9887500D02*
X11687500Y-9912500D01*
X11687500Y-10612500D02*
X11712500Y-10637500D01*
X11712500Y-10612500D02*
X11687500Y-10637500D01*
X11862500Y-10612500D02*
X11887500Y-10637500D01*
X11887500Y-10612500D02*
X11862500Y-10637500D01*
X11937500Y-9487500D02*
X11962500Y-9512500D01*
X11962500Y-9487500D02*
X11937500Y-9512500D01*
X12062500Y-9487500D02*
X12087500Y-9512500D01*
X12087500Y-9487500D02*
X12062500Y-9512500D01*
X12062500Y-9687500D02*
X12087500Y-9712500D01*
X12087500Y-9687500D02*
X12062500Y-9712500D01*
X12062500Y-9887500D02*
X12087500Y-9912500D01*
X12087500Y-9887500D02*
X12062500Y-9912500D01*
X12062500Y-10087500D02*
X12087500Y-10112500D01*
X12087500Y-10087500D02*
X12062500Y-10112500D01*
X12062500Y-10262500D02*
X12087500Y-10287500D01*
X12087500Y-10262500D02*
X12062500Y-10287500D01*
X12062500Y-10437500D02*
X12087500Y-10462500D01*
X12087500Y-10437500D02*
X12062500Y-10462500D01*
X12062500Y-10612500D02*
X12087500Y-10637500D01*
X12087500Y-10612500D02*
X12062500Y-10637500D01*
X4084000Y-4318000D02*
G75*
G03X4084000Y-4318000I-20000J0D01*
G01*
X4592000Y-4318000D02*
G75*
G03X4592000Y-4318000I-20000J0D01*
G01*
X5100000Y-4318000D02*
G75*
G03X5100000Y-4318000I-20000J0D01*
G01*
X5608000Y-4318000D02*
G75*
G03X5608000Y-4318000I-20000J0D01*
G01*
X5811200Y-6540500D02*
G75*
G03X5811200Y-6540500I-20000J0D01*
G01*
X6116000Y-9652000D02*
G75*
G03X6116000Y-9652000I-20000J0D01*
G01*
X6662100Y-6515100D02*
G75*
G03X6662100Y-6515100I-20000J0D01*
G01*
X6878000Y-9652000D02*
G75*
G03X6878000Y-9652000I-20000J0D01*
G01*
X7640000Y-9652000D02*
G75*
G03X7640000Y-9652000I-20000J0D01*
G01*
X8402000Y-9652000D02*
G75*
G03X8402000Y-9652000I-20000J0D01*
G01*
X8656000Y-5588000D02*
G75*
G03X8656000Y-5588000I-20000J0D01*
G01*
X8910000Y-5334000D02*
G75*
G03X8910000Y-5334000I-20000J0D01*
G01*
X9672000Y-5080000D02*
G75*
G03X9672000Y-5080000I-20000J0D01*
G01*
X9799000Y-7620000D02*
G75*
G03X9799000Y-7620000I-20000J0D01*
G01*
X9799000Y-8128000D02*
G75*
G03X9799000Y-8128000I-20000J0D01*
G01*
X10942000Y-5334000D02*
G75*
G03X10942000Y-5334000I-20000J0D01*
G01*
X11450000Y-5334000D02*
G75*
G03X11450000Y-5334000I-20000J0D01*
G01*
X11505459Y-5130800D02*
G75*
G03X11505459Y-5130800I-20000J0D01*
G01*
X11758210Y-8239361D02*
G75*
G03X11758210Y-8239361I-20000J0D01*
G01*
X11831000Y-4953000D02*
G75*
G03X11831000Y-4953000I-20000J0D01*
G01*
X12056771Y-7846185D02*
G75*
G03X12056771Y-7846185I-20000J0D01*
G01*
X13482000Y-10668000D02*
G75*
G03X13482000Y-10668000I-20000J0D01*
G01*
X3937000Y-5309000D02*
X3937000Y-5359000D01*
X3912000Y-5334000D02*
X3962000Y-5334000D01*
X3937000Y-5817000D02*
X3937000Y-5867000D01*
X3912000Y-5842000D02*
X3962000Y-5842000D01*
X3937000Y-6452000D02*
X3937000Y-6502000D01*
X3912000Y-6477000D02*
X3962000Y-6477000D01*
X3937000Y-6960000D02*
X3937000Y-7010000D01*
X3912000Y-6985000D02*
X3962000Y-6985000D01*
X3937000Y-7595000D02*
X3937000Y-7645000D01*
X3912000Y-7620000D02*
X3962000Y-7620000D01*
X3937000Y-8103000D02*
X3937000Y-8153000D01*
X3912000Y-8128000D02*
X3962000Y-8128000D01*
X3937000Y-8611000D02*
X3937000Y-8661000D01*
X3912000Y-8636000D02*
X3962000Y-8636000D01*
X3937000Y-9119000D02*
X3937000Y-9169000D01*
X3912000Y-9144000D02*
X3962000Y-9144000D01*
X3937000Y-9881000D02*
X3937000Y-9931000D01*
X3912000Y-9906000D02*
X3962000Y-9906000D01*
X3937000Y-10262000D02*
X3937000Y-10312000D01*
X3912000Y-10287000D02*
X3962000Y-10287000D01*
X3937000Y-10770000D02*
X3937000Y-10820000D01*
X3912000Y-10795000D02*
X3962000Y-10795000D01*
X3937000Y-11278000D02*
X3937000Y-11328000D01*
X3912000Y-11303000D02*
X3962000Y-11303000D01*
X3937000Y-11786000D02*
X3937000Y-11836000D01*
X3912000Y-11811000D02*
X3962000Y-11811000D01*
X3937000Y-12167000D02*
X3937000Y-12217000D01*
X3912000Y-12192000D02*
X3962000Y-12192000D01*
X4064000Y-4801000D02*
X4064000Y-4851000D01*
X4039000Y-4826000D02*
X4089000Y-4826000D01*
X4572000Y-4801000D02*
X4572000Y-4851000D01*
X4547000Y-4826000D02*
X4597000Y-4826000D01*
X4572000Y-7595000D02*
X4572000Y-7645000D01*
X4547000Y-7620000D02*
X4597000Y-7620000D01*
X4572000Y-8103000D02*
X4572000Y-8153000D01*
X4547000Y-8128000D02*
X4597000Y-8128000D01*
X4572000Y-8611000D02*
X4572000Y-8661000D01*
X4547000Y-8636000D02*
X4597000Y-8636000D01*
X4572000Y-9119000D02*
X4572000Y-9169000D01*
X4547000Y-9144000D02*
X4597000Y-9144000D01*
X5080000Y-4801000D02*
X5080000Y-4851000D01*
X5055000Y-4826000D02*
X5105000Y-4826000D01*
X5080000Y-5309000D02*
X5080000Y-5359000D01*
X5055000Y-5334000D02*
X5105000Y-5334000D01*
X5080000Y-5817000D02*
X5080000Y-5867000D01*
X5055000Y-5842000D02*
X5105000Y-5842000D01*
X5334000Y-7569600D02*
X5334000Y-7619600D01*
X5309000Y-7594600D02*
X5359000Y-7594600D01*
X5334000Y-8103000D02*
X5334000Y-8153000D01*
X5309000Y-8128000D02*
X5359000Y-8128000D01*
X5334000Y-8611000D02*
X5334000Y-8661000D01*
X5309000Y-8636000D02*
X5359000Y-8636000D01*
X5334000Y-9119000D02*
X5334000Y-9169000D01*
X5309000Y-9144000D02*
X5359000Y-9144000D01*
X5549900Y-7569600D02*
X5549900Y-7619600D01*
X5524900Y-7594600D02*
X5574900Y-7594600D01*
X6096000Y-4293000D02*
X6096000Y-4343000D01*
X6071000Y-4318000D02*
X6121000Y-4318000D01*
X6096000Y-7595000D02*
X6096000Y-7645000D01*
X6071000Y-7620000D02*
X6121000Y-7620000D01*
X6096000Y-8103000D02*
X6096000Y-8153000D01*
X6071000Y-8128000D02*
X6121000Y-8128000D01*
X6096000Y-8611000D02*
X6096000Y-8661000D01*
X6071000Y-8636000D02*
X6121000Y-8636000D01*
X6096000Y-9119000D02*
X6096000Y-9169000D01*
X6071000Y-9144000D02*
X6121000Y-9144000D01*
X6096000Y-10706500D02*
X6096000Y-10756500D01*
X6071000Y-10731500D02*
X6121000Y-10731500D01*
X6096000Y-10897000D02*
X6096000Y-10947000D01*
X6071000Y-10922000D02*
X6121000Y-10922000D01*
X6096000Y-11087500D02*
X6096000Y-11137500D01*
X6071000Y-11112500D02*
X6121000Y-11112500D01*
X6096000Y-11278000D02*
X6096000Y-11328000D01*
X6071000Y-11303000D02*
X6121000Y-11303000D01*
X6096000Y-11468500D02*
X6096000Y-11518500D01*
X6071000Y-11493500D02*
X6121000Y-11493500D01*
X6096000Y-11659000D02*
X6096000Y-11709000D01*
X6071000Y-11684000D02*
X6121000Y-11684000D01*
X6286500Y-11659000D02*
X6286500Y-11709000D01*
X6261500Y-11684000D02*
X6311500Y-11684000D01*
X6286500Y-11849500D02*
X6286500Y-11899500D01*
X6261500Y-11874500D02*
X6311500Y-11874500D01*
X6477000Y-11278000D02*
X6477000Y-11328000D01*
X6452000Y-11303000D02*
X6502000Y-11303000D01*
X6477000Y-11659000D02*
X6477000Y-11709000D01*
X6452000Y-11684000D02*
X6502000Y-11684000D01*
X6477000Y-11849500D02*
X6477000Y-11899500D01*
X6452000Y-11874500D02*
X6502000Y-11874500D01*
X6604000Y-4293000D02*
X6604000Y-4343000D01*
X6579000Y-4318000D02*
X6629000Y-4318000D01*
X6667500Y-11278000D02*
X6667500Y-11328000D01*
X6642500Y-11303000D02*
X6692500Y-11303000D01*
X6667500Y-11468500D02*
X6667500Y-11518500D01*
X6642500Y-11493500D02*
X6692500Y-11493500D01*
X6731000Y-10389000D02*
X6731000Y-10439000D01*
X6706000Y-10414000D02*
X6756000Y-10414000D01*
X6858000Y-7595000D02*
X6858000Y-7645000D01*
X6833000Y-7620000D02*
X6883000Y-7620000D01*
X6858000Y-8103000D02*
X6858000Y-8153000D01*
X6833000Y-8128000D02*
X6883000Y-8128000D01*
X6858000Y-9119000D02*
X6858000Y-9169000D01*
X6833000Y-9144000D02*
X6883000Y-9144000D01*
X6921500Y-10389000D02*
X6921500Y-10439000D01*
X6896500Y-10414000D02*
X6946500Y-10414000D01*
X7112000Y-4293000D02*
X7112000Y-4343000D01*
X7087000Y-4318000D02*
X7137000Y-4318000D01*
X7112000Y-4801000D02*
X7112000Y-4851000D01*
X7087000Y-4826000D02*
X7137000Y-4826000D01*
X7112000Y-10389000D02*
X7112000Y-10439000D01*
X7087000Y-10414000D02*
X7137000Y-10414000D01*
X7500620Y-10079120D02*
X7500620Y-10129120D01*
X7475620Y-10104120D02*
X7525620Y-10104120D01*
X7500620Y-10185800D02*
X7500620Y-10235800D01*
X7475620Y-10210800D02*
X7525620Y-10210800D01*
X7500620Y-10292480D02*
X7500620Y-10342480D01*
X7475620Y-10317480D02*
X7525620Y-10317480D01*
X7518400Y-10643000D02*
X7518400Y-10693000D01*
X7493400Y-10668000D02*
X7543400Y-10668000D01*
X7518400Y-10744600D02*
X7518400Y-10794600D01*
X7493400Y-10769600D02*
X7543400Y-10769600D01*
X7518400Y-10846200D02*
X7518400Y-10896200D01*
X7493400Y-10871200D02*
X7543400Y-10871200D01*
X7518400Y-10947800D02*
X7518400Y-10997800D01*
X7493400Y-10972800D02*
X7543400Y-10972800D01*
X7518400Y-11049400D02*
X7518400Y-11099400D01*
X7493400Y-11074400D02*
X7543400Y-11074400D01*
X7518400Y-11151000D02*
X7518400Y-11201000D01*
X7493400Y-11176000D02*
X7543400Y-11176000D01*
X7518400Y-11252600D02*
X7518400Y-11302600D01*
X7493400Y-11277600D02*
X7543400Y-11277600D01*
X7518400Y-11354200D02*
X7518400Y-11404200D01*
X7493400Y-11379200D02*
X7543400Y-11379200D01*
X7518400Y-11455800D02*
X7518400Y-11505800D01*
X7493400Y-11480800D02*
X7543400Y-11480800D01*
X7518400Y-11557400D02*
X7518400Y-11607400D01*
X7493400Y-11582400D02*
X7543400Y-11582400D01*
X7518400Y-11659000D02*
X7518400Y-11709000D01*
X7493400Y-11684000D02*
X7543400Y-11684000D01*
X7518400Y-11760600D02*
X7518400Y-11810600D01*
X7493400Y-11785600D02*
X7543400Y-11785600D01*
X7518400Y-11862200D02*
X7518400Y-11912200D01*
X7493400Y-11887200D02*
X7543400Y-11887200D01*
X7518400Y-11963800D02*
X7518400Y-12013800D01*
X7493400Y-11988800D02*
X7543400Y-11988800D01*
X7518400Y-12065400D02*
X7518400Y-12115400D01*
X7493400Y-12090400D02*
X7543400Y-12090400D01*
X7620000Y-4293000D02*
X7620000Y-4343000D01*
X7595000Y-4318000D02*
X7645000Y-4318000D01*
X7620000Y-4801000D02*
X7620000Y-4851000D01*
X7595000Y-4826000D02*
X7645000Y-4826000D01*
X7620000Y-7595000D02*
X7620000Y-7645000D01*
X7595000Y-7620000D02*
X7645000Y-7620000D01*
X7620000Y-8103000D02*
X7620000Y-8153000D01*
X7595000Y-8128000D02*
X7645000Y-8128000D01*
X7620000Y-8611000D02*
X7620000Y-8661000D01*
X7595000Y-8636000D02*
X7645000Y-8636000D01*
X7620000Y-9119000D02*
X7620000Y-9169000D01*
X7595000Y-9144000D02*
X7645000Y-9144000D01*
X7627620Y-10076580D02*
X7627620Y-10126580D01*
X7602620Y-10101580D02*
X7652620Y-10101580D01*
X7627620Y-10292480D02*
X7627620Y-10342480D01*
X7602620Y-10317480D02*
X7652620Y-10317480D01*
X7630160Y-10185800D02*
X7630160Y-10235800D01*
X7605160Y-10210800D02*
X7655160Y-10210800D01*
X7645400Y-10643000D02*
X7645400Y-10693000D01*
X7620400Y-10668000D02*
X7670400Y-10668000D01*
X7645400Y-10744600D02*
X7645400Y-10794600D01*
X7620400Y-10769600D02*
X7670400Y-10769600D01*
X7645400Y-10846200D02*
X7645400Y-10896200D01*
X7620400Y-10871200D02*
X7670400Y-10871200D01*
X7645400Y-10947800D02*
X7645400Y-10997800D01*
X7620400Y-10972800D02*
X7670400Y-10972800D01*
X7645400Y-11049400D02*
X7645400Y-11099400D01*
X7620400Y-11074400D02*
X7670400Y-11074400D01*
X7645400Y-11151000D02*
X7645400Y-11201000D01*
X7620400Y-11176000D02*
X7670400Y-11176000D01*
X7645400Y-11252600D02*
X7645400Y-11302600D01*
X7620400Y-11277600D02*
X7670400Y-11277600D01*
X7645400Y-11354200D02*
X7645400Y-11404200D01*
X7620400Y-11379200D02*
X7670400Y-11379200D01*
X7645400Y-11455800D02*
X7645400Y-11505800D01*
X7620400Y-11480800D02*
X7670400Y-11480800D01*
X7645400Y-11557400D02*
X7645400Y-11607400D01*
X7620400Y-11582400D02*
X7670400Y-11582400D01*
X7645400Y-11659000D02*
X7645400Y-11709000D01*
X7620400Y-11684000D02*
X7670400Y-11684000D01*
X7645400Y-11766950D02*
X7645400Y-11816950D01*
X7620400Y-11791950D02*
X7670400Y-11791950D01*
X7645400Y-11862200D02*
X7645400Y-11912200D01*
X7620400Y-11887200D02*
X7670400Y-11887200D01*
X7645400Y-11963800D02*
X7645400Y-12013800D01*
X7620400Y-11988800D02*
X7670400Y-11988800D01*
X7645400Y-12065400D02*
X7645400Y-12115400D01*
X7620400Y-12090400D02*
X7670400Y-12090400D01*
X7823200Y-6284360D02*
X7823200Y-6334360D01*
X7798200Y-6309360D02*
X7848200Y-6309360D01*
X8076691Y-12004695D02*
X8076691Y-12054695D01*
X8051691Y-12029695D02*
X8101691Y-12029695D01*
X8128000Y-4293000D02*
X8128000Y-4343000D01*
X8103000Y-4318000D02*
X8153000Y-4318000D01*
X8128000Y-4801000D02*
X8128000Y-4851000D01*
X8103000Y-4826000D02*
X8153000Y-4826000D01*
X8128000Y-5309000D02*
X8128000Y-5359000D01*
X8103000Y-5334000D02*
X8153000Y-5334000D01*
X8366760Y-6086240D02*
X8366760Y-6136240D01*
X8341760Y-6111240D02*
X8391760Y-6111240D01*
X8382000Y-6579000D02*
X8382000Y-6629000D01*
X8357000Y-6604000D02*
X8407000Y-6604000D01*
X8382000Y-7087000D02*
X8382000Y-7137000D01*
X8357000Y-7112000D02*
X8407000Y-7112000D01*
X8382000Y-7595000D02*
X8382000Y-7645000D01*
X8357000Y-7620000D02*
X8407000Y-7620000D01*
X8382000Y-8103000D02*
X8382000Y-8153000D01*
X8357000Y-8128000D02*
X8407000Y-8128000D01*
X8382000Y-8611000D02*
X8382000Y-8661000D01*
X8357000Y-8636000D02*
X8407000Y-8636000D01*
X8382000Y-9119000D02*
X8382000Y-9169000D01*
X8357000Y-9144000D02*
X8407000Y-9144000D01*
X8636000Y-4293000D02*
X8636000Y-4343000D01*
X8611000Y-4318000D02*
X8661000Y-4318000D01*
X8636000Y-4801000D02*
X8636000Y-4851000D01*
X8611000Y-4826000D02*
X8661000Y-4826000D01*
X8636000Y-11405000D02*
X8636000Y-11455000D01*
X8611000Y-11430000D02*
X8661000Y-11430000D01*
X8636000Y-11786000D02*
X8636000Y-11836000D01*
X8611000Y-11811000D02*
X8661000Y-11811000D01*
X8810244Y-10683132D02*
X8810244Y-10733132D01*
X8785244Y-10708132D02*
X8835244Y-10708132D01*
X8890000Y-6579000D02*
X8890000Y-6629000D01*
X8865000Y-6604000D02*
X8915000Y-6604000D01*
X8890000Y-7087000D02*
X8890000Y-7137000D01*
X8865000Y-7112000D02*
X8915000Y-7112000D01*
X8890000Y-7595000D02*
X8890000Y-7645000D01*
X8865000Y-7620000D02*
X8915000Y-7620000D01*
X8890000Y-8103000D02*
X8890000Y-8153000D01*
X8865000Y-8128000D02*
X8915000Y-8128000D01*
X8890000Y-8611000D02*
X8890000Y-8661000D01*
X8865000Y-8636000D02*
X8915000Y-8636000D01*
X8890000Y-9119000D02*
X8890000Y-9169000D01*
X8865000Y-9144000D02*
X8915000Y-9144000D01*
X8890000Y-9627000D02*
X8890000Y-9677000D01*
X8865000Y-9652000D02*
X8915000Y-9652000D01*
X9144000Y-10389000D02*
X9144000Y-10439000D01*
X9119000Y-10414000D02*
X9169000Y-10414000D01*
X9144000Y-10897000D02*
X9144000Y-10947000D01*
X9119000Y-10922000D02*
X9169000Y-10922000D01*
X9144000Y-11405000D02*
X9144000Y-11455000D01*
X9119000Y-11430000D02*
X9169000Y-11430000D01*
X9144000Y-11786000D02*
X9144000Y-11836000D01*
X9119000Y-11811000D02*
X9169000Y-11811000D01*
X9277350Y-10973200D02*
X9277350Y-11023200D01*
X9252350Y-10998200D02*
X9302350Y-10998200D01*
X9277350Y-11176400D02*
X9277350Y-11226400D01*
X9252350Y-11201400D02*
X9302350Y-11201400D01*
X9398000Y-6579000D02*
X9398000Y-6629000D01*
X9373000Y-6604000D02*
X9423000Y-6604000D01*
X9398000Y-7087000D02*
X9398000Y-7137000D01*
X9373000Y-7112000D02*
X9423000Y-7112000D01*
X9931400Y-5893200D02*
X9931400Y-5943200D01*
X9906400Y-5918200D02*
X9956400Y-5918200D01*
X10083800Y-7468000D02*
X10083800Y-7518000D01*
X10058800Y-7493000D02*
X10108800Y-7493000D01*
X10236200Y-7468000D02*
X10236200Y-7518000D01*
X10211200Y-7493000D02*
X10261200Y-7493000D01*
X10378440Y-8810421D02*
X10378440Y-8860421D01*
X10353440Y-8835421D02*
X10403440Y-8835421D01*
X10445094Y-8953347D02*
X10445094Y-9003347D01*
X10420094Y-8978347D02*
X10470094Y-8978347D01*
X10464800Y-7468000D02*
X10464800Y-7518000D01*
X10439800Y-7493000D02*
X10489800Y-7493000D01*
X10668000Y-9373000D02*
X10668000Y-9423000D01*
X10643000Y-9398000D02*
X10693000Y-9398000D01*
X10668000Y-9627000D02*
X10668000Y-9677000D01*
X10643000Y-9652000D02*
X10693000Y-9652000D01*
X10718800Y-7468000D02*
X10718800Y-7518000D01*
X10693800Y-7493000D02*
X10743800Y-7493000D01*
X10922000Y-11278000D02*
X10922000Y-11328000D01*
X10897000Y-11303000D02*
X10947000Y-11303000D01*
X10998200Y-8788800D02*
X10998200Y-8838800D01*
X10973200Y-8813800D02*
X11023200Y-8813800D01*
X11049000Y-11278000D02*
X11049000Y-11328000D01*
X11024000Y-11303000D02*
X11074000Y-11303000D01*
X11277600Y-7493400D02*
X11277600Y-7543400D01*
X11252600Y-7518400D02*
X11302600Y-7518400D01*
X11328400Y-8661800D02*
X11328400Y-8711800D01*
X11303400Y-8686800D02*
X11353400Y-8686800D01*
X11427405Y-8336379D02*
X11427405Y-8386379D01*
X11402405Y-8361379D02*
X11452405Y-8361379D01*
X11430000Y-11659000D02*
X11430000Y-11709000D01*
X11405000Y-11684000D02*
X11455000Y-11684000D01*
X11455400Y-8230000D02*
X11455400Y-8280000D01*
X11430400Y-8255000D02*
X11480400Y-8255000D01*
X11567160Y-7457840D02*
X11567160Y-7507840D01*
X11542160Y-7482840D02*
X11592160Y-7482840D01*
X11684000Y-4293000D02*
X11684000Y-4343000D01*
X11659000Y-4318000D02*
X11709000Y-4318000D01*
X11684000Y-4801000D02*
X11684000Y-4851000D01*
X11659000Y-4826000D02*
X11709000Y-4826000D01*
X11709064Y-7421944D02*
X11709064Y-7471944D01*
X11684064Y-7446944D02*
X11734064Y-7446944D01*
X11795760Y-7813440D02*
X11795760Y-7863440D01*
X11770760Y-7838440D02*
X11820760Y-7838440D01*
X11938000Y-11151000D02*
X11938000Y-11201000D01*
X11913000Y-11176000D02*
X11963000Y-11176000D01*
X11938000Y-11659000D02*
X11938000Y-11709000D01*
X11913000Y-11684000D02*
X11963000Y-11684000D01*
X11938000Y-12167000D02*
X11938000Y-12217000D01*
X11913000Y-12192000D02*
X11963000Y-12192000D01*
X12115800Y-7468000D02*
X12115800Y-7518000D01*
X12090800Y-7493000D02*
X12140800Y-7493000D01*
X12192000Y-4293000D02*
X12192000Y-4343000D01*
X12167000Y-4318000D02*
X12217000Y-4318000D01*
X12192000Y-4801000D02*
X12192000Y-4851000D01*
X12167000Y-4826000D02*
X12217000Y-4826000D01*
X12192000Y-5309000D02*
X12192000Y-5359000D01*
X12167000Y-5334000D02*
X12217000Y-5334000D01*
X12217400Y-9754000D02*
X12217400Y-9804000D01*
X12192400Y-9779000D02*
X12242400Y-9779000D01*
X12369800Y-7493400D02*
X12369800Y-7543400D01*
X12344800Y-7518400D02*
X12394800Y-7518400D01*
X12446000Y-11151000D02*
X12446000Y-11201000D01*
X12421000Y-11176000D02*
X12471000Y-11176000D01*
X12446000Y-11659000D02*
X12446000Y-11709000D01*
X12421000Y-11684000D02*
X12471000Y-11684000D01*
X12446000Y-12167000D02*
X12446000Y-12217000D01*
X12421000Y-12192000D02*
X12471000Y-12192000D01*
X12501503Y-8014094D02*
X12501503Y-8064094D01*
X12476503Y-8039094D02*
X12526503Y-8039094D01*
X12655212Y-7860385D02*
X12655212Y-7910385D01*
X12630212Y-7885385D02*
X12680212Y-7885385D01*
X12700000Y-4293000D02*
X12700000Y-4343000D01*
X12675000Y-4318000D02*
X12725000Y-4318000D01*
X12700000Y-4801000D02*
X12700000Y-4851000D01*
X12675000Y-4826000D02*
X12725000Y-4826000D01*
X12700000Y-5309000D02*
X12700000Y-5359000D01*
X12675000Y-5334000D02*
X12725000Y-5334000D01*
X12760280Y-9356560D02*
X12760280Y-9406560D01*
X12735280Y-9381560D02*
X12785280Y-9381560D01*
X12825699Y-7912500D02*
X12825699Y-7962500D01*
X12800699Y-7937500D02*
X12850699Y-7937500D01*
X12827000Y-7468000D02*
X12827000Y-7518000D01*
X12802000Y-7493000D02*
X12852000Y-7493000D01*
X12827000Y-8166500D02*
X12827000Y-8216500D01*
X12802000Y-8191500D02*
X12852000Y-8191500D01*
X12890500Y-8357000D02*
X12890500Y-8407000D01*
X12865500Y-8382000D02*
X12915500Y-8382000D01*
X12954000Y-11151000D02*
X12954000Y-11201000D01*
X12929000Y-11176000D02*
X12979000Y-11176000D01*
X12954000Y-11659000D02*
X12954000Y-11709000D01*
X12929000Y-11684000D02*
X12979000Y-11684000D01*
X12954000Y-12167000D02*
X12954000Y-12217000D01*
X12929000Y-12192000D02*
X12979000Y-12192000D01*
X13061950Y-8052200D02*
X13061950Y-8102200D01*
X13036950Y-8077200D02*
X13086950Y-8077200D01*
X13081000Y-6198000D02*
X13081000Y-6248000D01*
X13056000Y-6223000D02*
X13106000Y-6223000D01*
X13108252Y-7772800D02*
X13108252Y-7822800D01*
X13083252Y-7797800D02*
X13133252Y-7797800D01*
X13169900Y-9449200D02*
X13169900Y-9499200D01*
X13144900Y-9474200D02*
X13194900Y-9474200D01*
X13208000Y-4293000D02*
X13208000Y-4343000D01*
X13183000Y-4318000D02*
X13233000Y-4318000D01*
X13208000Y-4801000D02*
X13208000Y-4851000D01*
X13183000Y-4826000D02*
X13233000Y-4826000D01*
X13208000Y-5309000D02*
X13208000Y-5359000D01*
X13183000Y-5334000D02*
X13233000Y-5334000D01*
X13208000Y-5817000D02*
X13208000Y-5867000D01*
X13183000Y-5842000D02*
X13233000Y-5842000D01*
X13208000Y-7214000D02*
X13208000Y-7264000D01*
X13183000Y-7239000D02*
X13233000Y-7239000D01*
X13462000Y-11151000D02*
X13462000Y-11201000D01*
X13437000Y-11176000D02*
X13487000Y-11176000D01*
X13462000Y-11659000D02*
X13462000Y-11709000D01*
X13437000Y-11684000D02*
X13487000Y-11684000D01*
X13462000Y-12167000D02*
X13462000Y-12217000D01*
X13437000Y-12192000D02*
X13487000Y-12192000D01*
X13589000Y-4293000D02*
X13589000Y-4343000D01*
X13564000Y-4318000D02*
X13614000Y-4318000D01*
X13589000Y-4801000D02*
X13589000Y-4851000D01*
X13564000Y-4826000D02*
X13614000Y-4826000D01*
X13589000Y-5309000D02*
X13589000Y-5359000D01*
X13564000Y-5334000D02*
X13614000Y-5334000D01*
X13589000Y-5817000D02*
X13589000Y-5867000D01*
X13564000Y-5842000D02*
X13614000Y-5842000D01*
X13589000Y-6325000D02*
X13589000Y-6375000D01*
X13564000Y-6350000D02*
X13614000Y-6350000D01*
X13589000Y-6833000D02*
X13589000Y-6883000D01*
X13564000Y-6858000D02*
X13614000Y-6858000D01*
X13589000Y-7341000D02*
X13589000Y-7391000D01*
X13564000Y-7366000D02*
X13614000Y-7366000D01*
X13589000Y-7849000D02*
X13589000Y-7899000D01*
X13564000Y-7874000D02*
X13614000Y-7874000D01*
X13589000Y-8357000D02*
X13589000Y-8407000D01*
X13564000Y-8382000D02*
X13614000Y-8382000D01*
X13589000Y-8865000D02*
X13589000Y-8915000D01*
X13564000Y-8890000D02*
X13614000Y-8890000D01*
X13589000Y-9373000D02*
X13589000Y-9423000D01*
X13564000Y-9398000D02*
X13614000Y-9398000D01*
X13589000Y-9881000D02*
X13589000Y-9931000D01*
X13564000Y-9906000D02*
X13614000Y-9906000D01*
X13589000Y-10389000D02*
X13589000Y-10439000D01*
X13564000Y-10414000D02*
X13614000Y-10414000D01*
X4445962Y-10595962D02*
X4445962Y-10504038D01*
X4354038Y-10504038D01*
X4354038Y-10595962D01*
X4445962Y-10595962D01*
X4445962Y-11095962D02*
X4445962Y-11004038D01*
X4354038Y-11004038D01*
X4354038Y-11095962D01*
X4445962Y-11095962D01*
X9495962Y-4596742D02*
X9495962Y-4504818D01*
X9404038Y-4504818D01*
X9404038Y-4596742D01*
X9495962Y-4596742D01*
X9995962Y-4596742D02*
X9995962Y-4504818D01*
X9904038Y-4504818D01*
X9904038Y-4596742D01*
X9995962Y-4596742D01*
X4445962Y-5195962D02*
X4445962Y-5104038D01*
X4354038Y-5104038D01*
X4354038Y-5195962D01*
X4445962Y-5195962D01*
X4445962Y-5695962D02*
X4445962Y-5604038D01*
X4354038Y-5604038D01*
X4354038Y-5695962D01*
X4445962Y-5695962D01*
X4445962Y-9595962D02*
X4445962Y-9504038D01*
X4354038Y-9504038D01*
X4354038Y-9595962D01*
X4445962Y-9595962D01*
X4445962Y-10095962D02*
X4445962Y-10004038D01*
X4354038Y-10004038D01*
X4354038Y-10095962D01*
X4445962Y-10095962D01*
X10495962Y-4595472D02*
X10495962Y-4503548D01*
X10404038Y-4503548D01*
X10404038Y-4595472D01*
X10495962Y-4595472D01*
X10995962Y-4595472D02*
X10995962Y-4503548D01*
X10904038Y-4503548D01*
X10904038Y-4595472D01*
X10995962Y-4595472D01*
X4445962Y-11595962D02*
X4445962Y-11504038D01*
X4354038Y-11504038D01*
X4354038Y-11595962D01*
X4445962Y-11595962D01*
X4445962Y-12095962D02*
X4445962Y-12004038D01*
X4354038Y-12004038D01*
X4354038Y-12095962D01*
X4445962Y-12095962D01*
D12*
X4081428Y-13470714D02*
X4081428Y-13170714D01*
X4152857Y-13170714D01*
X4195714Y-13185000D01*
X4224286Y-13213572D01*
X4238571Y-13242143D01*
X4252857Y-13299286D01*
X4252857Y-13342143D01*
X4238571Y-13399286D01*
X4224286Y-13427857D01*
X4195714Y-13456429D01*
X4152857Y-13470714D01*
X4081428Y-13470714D01*
X4381428Y-13470714D02*
X4381428Y-13270714D01*
X4381428Y-13327857D02*
X4395714Y-13299286D01*
X4410000Y-13285000D01*
X4438571Y-13270714D01*
X4467143Y-13270714D01*
X4567143Y-13470714D02*
X4567143Y-13270714D01*
X4567143Y-13170714D02*
X4552857Y-13185000D01*
X4567143Y-13199286D01*
X4581428Y-13185000D01*
X4567143Y-13170714D01*
X4567143Y-13199286D01*
X4752857Y-13470714D02*
X4724286Y-13456429D01*
X4710000Y-13427857D01*
X4710000Y-13170714D01*
X4910000Y-13470714D02*
X4881428Y-13456429D01*
X4867143Y-13427857D01*
X4867143Y-13170714D01*
X5252857Y-13470714D02*
X5252857Y-13170714D01*
X5352857Y-13385000D01*
X5452857Y-13170714D01*
X5452857Y-13470714D01*
X5724285Y-13470714D02*
X5724285Y-13313572D01*
X5710000Y-13285000D01*
X5681428Y-13270714D01*
X5624285Y-13270714D01*
X5595714Y-13285000D01*
X5724285Y-13456429D02*
X5695714Y-13470714D01*
X5624285Y-13470714D01*
X5595714Y-13456429D01*
X5581428Y-13427857D01*
X5581428Y-13399286D01*
X5595714Y-13370714D01*
X5624285Y-13356429D01*
X5695714Y-13356429D01*
X5724285Y-13342143D01*
X5867143Y-13270714D02*
X5867143Y-13570714D01*
X5867143Y-13285000D02*
X5895714Y-13270714D01*
X5952857Y-13270714D01*
X5981428Y-13285000D01*
X5995714Y-13299286D01*
X6010000Y-13327857D01*
X6010000Y-13413572D01*
X5995714Y-13442143D01*
X5981428Y-13456429D01*
X5952857Y-13470714D01*
X5895714Y-13470714D01*
X5867143Y-13456429D01*
X6138571Y-13442143D02*
X6152857Y-13456429D01*
X6138571Y-13470714D01*
X6124285Y-13456429D01*
X6138571Y-13442143D01*
X6138571Y-13470714D01*
X6138571Y-13285000D02*
X6152857Y-13299286D01*
X6138571Y-13313572D01*
X6124285Y-13299286D01*
X6138571Y-13285000D01*
X6138571Y-13313572D01*
X3770000Y-13952500D02*
X3795000Y-13977500D01*
X3795000Y-13952500D02*
X3770000Y-13977500D01*
X4138571Y-13800714D02*
X4167143Y-13800714D01*
X4195714Y-13815000D01*
X4210000Y-13829286D01*
X4224286Y-13857857D01*
X4238571Y-13915000D01*
X4238571Y-13986429D01*
X4224286Y-14043572D01*
X4210000Y-14072143D01*
X4195714Y-14086429D01*
X4167143Y-14100714D01*
X4138571Y-14100714D01*
X4110000Y-14086429D01*
X4095714Y-14072143D01*
X4081428Y-14043572D01*
X4067143Y-13986429D01*
X4067143Y-13915000D01*
X4081428Y-13857857D01*
X4095714Y-13829286D01*
X4110000Y-13815000D01*
X4138571Y-13800714D01*
X4367143Y-14072143D02*
X4381428Y-14086429D01*
X4367143Y-14100714D01*
X4352857Y-14086429D01*
X4367143Y-14072143D01*
X4367143Y-14100714D01*
X4495714Y-13829286D02*
X4510000Y-13815000D01*
X4538571Y-13800714D01*
X4610000Y-13800714D01*
X4638571Y-13815000D01*
X4652857Y-13829286D01*
X4667143Y-13857857D01*
X4667143Y-13886429D01*
X4652857Y-13929286D01*
X4481428Y-14100714D01*
X4667143Y-14100714D01*
X4938571Y-13800714D02*
X4795714Y-13800714D01*
X4781428Y-13943572D01*
X4795714Y-13929286D01*
X4824286Y-13915000D01*
X4895714Y-13915000D01*
X4924286Y-13929286D01*
X4938571Y-13943572D01*
X4952857Y-13972143D01*
X4952857Y-14043572D01*
X4938571Y-14072143D01*
X4924286Y-14086429D01*
X4895714Y-14100714D01*
X4824286Y-14100714D01*
X4795714Y-14086429D01*
X4781428Y-14072143D01*
X5081428Y-14100714D02*
X5081428Y-13900714D01*
X5081428Y-13929286D02*
X5095714Y-13915000D01*
X5124286Y-13900714D01*
X5167143Y-13900714D01*
X5195714Y-13915000D01*
X5210000Y-13943572D01*
X5210000Y-14100714D01*
X5210000Y-13943572D02*
X5224286Y-13915000D01*
X5252857Y-13900714D01*
X5295714Y-13900714D01*
X5324286Y-13915000D01*
X5338571Y-13943572D01*
X5338571Y-14100714D01*
X5481428Y-14100714D02*
X5481428Y-13900714D01*
X5481428Y-13929286D02*
X5495714Y-13915000D01*
X5524286Y-13900714D01*
X5567143Y-13900714D01*
X5595714Y-13915000D01*
X5610000Y-13943572D01*
X5610000Y-14100714D01*
X5610000Y-13943572D02*
X5624285Y-13915000D01*
X5652857Y-13900714D01*
X5695714Y-13900714D01*
X5724285Y-13915000D01*
X5738571Y-13943572D01*
X5738571Y-14100714D01*
X6324285Y-13786429D02*
X6067143Y-14172143D01*
X6710000Y-13800714D02*
X6738571Y-13800714D01*
X6767143Y-13815000D01*
X6781428Y-13829286D01*
X6795714Y-13857857D01*
X6810000Y-13915000D01*
X6810000Y-13986429D01*
X6795714Y-14043572D01*
X6781428Y-14072143D01*
X6767143Y-14086429D01*
X6738571Y-14100714D01*
X6710000Y-14100714D01*
X6681428Y-14086429D01*
X6667143Y-14072143D01*
X6652857Y-14043572D01*
X6638571Y-13986429D01*
X6638571Y-13915000D01*
X6652857Y-13857857D01*
X6667143Y-13829286D01*
X6681428Y-13815000D01*
X6710000Y-13800714D01*
X6938571Y-14072143D02*
X6952857Y-14086429D01*
X6938571Y-14100714D01*
X6924285Y-14086429D01*
X6938571Y-14072143D01*
X6938571Y-14100714D01*
X7138571Y-13800714D02*
X7167143Y-13800714D01*
X7195714Y-13815000D01*
X7210000Y-13829286D01*
X7224285Y-13857857D01*
X7238571Y-13915000D01*
X7238571Y-13986429D01*
X7224285Y-14043572D01*
X7210000Y-14072143D01*
X7195714Y-14086429D01*
X7167143Y-14100714D01*
X7138571Y-14100714D01*
X7110000Y-14086429D01*
X7095714Y-14072143D01*
X7081428Y-14043572D01*
X7067143Y-13986429D01*
X7067143Y-13915000D01*
X7081428Y-13857857D01*
X7095714Y-13829286D01*
X7110000Y-13815000D01*
X7138571Y-13800714D01*
X7524285Y-14100714D02*
X7352857Y-14100714D01*
X7438571Y-14100714D02*
X7438571Y-13800714D01*
X7410000Y-13843572D01*
X7381428Y-13872143D01*
X7352857Y-13886429D01*
X7710000Y-13800714D02*
X7738571Y-13800714D01*
X7767143Y-13815000D01*
X7781428Y-13829286D01*
X7795714Y-13857857D01*
X7810000Y-13915000D01*
X7810000Y-13986429D01*
X7795714Y-14043572D01*
X7781428Y-14072143D01*
X7767143Y-14086429D01*
X7738571Y-14100714D01*
X7710000Y-14100714D01*
X7681428Y-14086429D01*
X7667143Y-14072143D01*
X7652857Y-14043572D01*
X7638571Y-13986429D01*
X7638571Y-13915000D01*
X7652857Y-13857857D01*
X7667143Y-13829286D01*
X7681428Y-13815000D01*
X7710000Y-13800714D01*
X7924285Y-13800714D02*
X7924285Y-13857857D01*
X8038571Y-13800714D02*
X8038571Y-13857857D01*
X8481428Y-14215000D02*
X8467143Y-14200714D01*
X8438571Y-14157857D01*
X8424286Y-14129286D01*
X8410000Y-14086429D01*
X8395714Y-14015000D01*
X8395714Y-13957857D01*
X8410000Y-13886429D01*
X8424286Y-13843572D01*
X8438571Y-13815000D01*
X8467143Y-13772143D01*
X8481428Y-13757857D01*
X8567143Y-13800714D02*
X8752857Y-13800714D01*
X8652857Y-13915000D01*
X8695714Y-13915000D01*
X8724286Y-13929286D01*
X8738571Y-13943572D01*
X8752857Y-13972143D01*
X8752857Y-14043572D01*
X8738571Y-14072143D01*
X8724286Y-14086429D01*
X8695714Y-14100714D01*
X8610000Y-14100714D01*
X8581428Y-14086429D01*
X8567143Y-14072143D01*
X8924286Y-13929286D02*
X8895714Y-13915000D01*
X8881428Y-13900714D01*
X8867143Y-13872143D01*
X8867143Y-13857857D01*
X8881428Y-13829286D01*
X8895714Y-13815000D01*
X8924286Y-13800714D01*
X8981428Y-13800714D01*
X9010000Y-13815000D01*
X9024286Y-13829286D01*
X9038571Y-13857857D01*
X9038571Y-13872143D01*
X9024286Y-13900714D01*
X9010000Y-13915000D01*
X8981428Y-13929286D01*
X8924286Y-13929286D01*
X8895714Y-13943572D01*
X8881428Y-13957857D01*
X8867143Y-13986429D01*
X8867143Y-14043572D01*
X8881428Y-14072143D01*
X8895714Y-14086429D01*
X8924286Y-14100714D01*
X8981428Y-14100714D01*
X9010000Y-14086429D01*
X9024286Y-14072143D01*
X9038571Y-14043572D01*
X9038571Y-13986429D01*
X9024286Y-13957857D01*
X9010000Y-13943572D01*
X8981428Y-13929286D01*
X9395714Y-14100714D02*
X9395714Y-13800714D01*
X9524286Y-14100714D02*
X9524286Y-13943572D01*
X9510000Y-13915000D01*
X9481428Y-13900714D01*
X9438571Y-13900714D01*
X9410000Y-13915000D01*
X9395714Y-13929286D01*
X9710000Y-14100714D02*
X9681428Y-14086429D01*
X9667143Y-14072143D01*
X9652857Y-14043572D01*
X9652857Y-13957857D01*
X9667143Y-13929286D01*
X9681428Y-13915000D01*
X9710000Y-13900714D01*
X9752857Y-13900714D01*
X9781428Y-13915000D01*
X9795714Y-13929286D01*
X9810000Y-13957857D01*
X9810000Y-14043572D01*
X9795714Y-14072143D01*
X9781428Y-14086429D01*
X9752857Y-14100714D01*
X9710000Y-14100714D01*
X9981428Y-14100714D02*
X9952857Y-14086429D01*
X9938571Y-14057857D01*
X9938571Y-13800714D01*
X10210000Y-14086429D02*
X10181428Y-14100714D01*
X10124286Y-14100714D01*
X10095714Y-14086429D01*
X10081428Y-14057857D01*
X10081428Y-13943572D01*
X10095714Y-13915000D01*
X10124286Y-13900714D01*
X10181428Y-13900714D01*
X10210000Y-13915000D01*
X10224286Y-13943572D01*
X10224286Y-13972143D01*
X10081428Y-14000714D01*
X10338571Y-14086429D02*
X10367143Y-14100714D01*
X10424286Y-14100714D01*
X10452857Y-14086429D01*
X10467143Y-14057857D01*
X10467143Y-14043572D01*
X10452857Y-14015000D01*
X10424286Y-14000714D01*
X10381428Y-14000714D01*
X10352857Y-13986429D01*
X10338571Y-13957857D01*
X10338571Y-13943572D01*
X10352857Y-13915000D01*
X10381428Y-13900714D01*
X10424286Y-13900714D01*
X10452857Y-13915000D01*
X10567143Y-14215000D02*
X10581428Y-14200714D01*
X10610000Y-14157857D01*
X10624286Y-14129286D01*
X10638571Y-14086429D01*
X10652857Y-14015000D01*
X10652857Y-13957857D01*
X10638571Y-13886429D01*
X10624286Y-13843572D01*
X10610000Y-13815000D01*
X10581428Y-13772143D01*
X10567143Y-13757857D01*
X3795000Y-14361000D02*
G75*
G03X3795000Y-14361000I-20000J0D01*
G01*
X4138571Y-14196714D02*
X4167143Y-14196714D01*
X4195714Y-14211000D01*
X4210000Y-14225286D01*
X4224286Y-14253857D01*
X4238571Y-14311000D01*
X4238571Y-14382429D01*
X4224286Y-14439572D01*
X4210000Y-14468143D01*
X4195714Y-14482429D01*
X4167143Y-14496714D01*
X4138571Y-14496714D01*
X4110000Y-14482429D01*
X4095714Y-14468143D01*
X4081428Y-14439572D01*
X4067143Y-14382429D01*
X4067143Y-14311000D01*
X4081428Y-14253857D01*
X4095714Y-14225286D01*
X4110000Y-14211000D01*
X4138571Y-14196714D01*
X4367143Y-14468143D02*
X4381428Y-14482429D01*
X4367143Y-14496714D01*
X4352857Y-14482429D01*
X4367143Y-14468143D01*
X4367143Y-14496714D01*
X4638571Y-14296714D02*
X4638571Y-14496714D01*
X4567143Y-14182429D02*
X4495714Y-14396714D01*
X4681428Y-14396714D01*
X4852857Y-14196714D02*
X4881428Y-14196714D01*
X4910000Y-14211000D01*
X4924286Y-14225286D01*
X4938571Y-14253857D01*
X4952857Y-14311000D01*
X4952857Y-14382429D01*
X4938571Y-14439572D01*
X4924286Y-14468143D01*
X4910000Y-14482429D01*
X4881428Y-14496714D01*
X4852857Y-14496714D01*
X4824286Y-14482429D01*
X4810000Y-14468143D01*
X4795714Y-14439572D01*
X4781428Y-14382429D01*
X4781428Y-14311000D01*
X4795714Y-14253857D01*
X4810000Y-14225286D01*
X4824286Y-14211000D01*
X4852857Y-14196714D01*
X5081428Y-14496714D02*
X5081428Y-14296714D01*
X5081428Y-14325286D02*
X5095714Y-14311000D01*
X5124286Y-14296714D01*
X5167143Y-14296714D01*
X5195714Y-14311000D01*
X5210000Y-14339572D01*
X5210000Y-14496714D01*
X5210000Y-14339572D02*
X5224286Y-14311000D01*
X5252857Y-14296714D01*
X5295714Y-14296714D01*
X5324286Y-14311000D01*
X5338571Y-14339572D01*
X5338571Y-14496714D01*
X5481428Y-14496714D02*
X5481428Y-14296714D01*
X5481428Y-14325286D02*
X5495714Y-14311000D01*
X5524286Y-14296714D01*
X5567143Y-14296714D01*
X5595714Y-14311000D01*
X5610000Y-14339572D01*
X5610000Y-14496714D01*
X5610000Y-14339572D02*
X5624285Y-14311000D01*
X5652857Y-14296714D01*
X5695714Y-14296714D01*
X5724285Y-14311000D01*
X5738571Y-14339572D01*
X5738571Y-14496714D01*
X6324285Y-14182429D02*
X6067143Y-14568143D01*
X6710000Y-14196714D02*
X6738571Y-14196714D01*
X6767143Y-14211000D01*
X6781428Y-14225286D01*
X6795714Y-14253857D01*
X6810000Y-14311000D01*
X6810000Y-14382429D01*
X6795714Y-14439572D01*
X6781428Y-14468143D01*
X6767143Y-14482429D01*
X6738571Y-14496714D01*
X6710000Y-14496714D01*
X6681428Y-14482429D01*
X6667143Y-14468143D01*
X6652857Y-14439572D01*
X6638571Y-14382429D01*
X6638571Y-14311000D01*
X6652857Y-14253857D01*
X6667143Y-14225286D01*
X6681428Y-14211000D01*
X6710000Y-14196714D01*
X6938571Y-14468143D02*
X6952857Y-14482429D01*
X6938571Y-14496714D01*
X6924285Y-14482429D01*
X6938571Y-14468143D01*
X6938571Y-14496714D01*
X7138571Y-14196714D02*
X7167143Y-14196714D01*
X7195714Y-14211000D01*
X7210000Y-14225286D01*
X7224285Y-14253857D01*
X7238571Y-14311000D01*
X7238571Y-14382429D01*
X7224285Y-14439572D01*
X7210000Y-14468143D01*
X7195714Y-14482429D01*
X7167143Y-14496714D01*
X7138571Y-14496714D01*
X7110000Y-14482429D01*
X7095714Y-14468143D01*
X7081428Y-14439572D01*
X7067143Y-14382429D01*
X7067143Y-14311000D01*
X7081428Y-14253857D01*
X7095714Y-14225286D01*
X7110000Y-14211000D01*
X7138571Y-14196714D01*
X7524285Y-14496714D02*
X7352857Y-14496714D01*
X7438571Y-14496714D02*
X7438571Y-14196714D01*
X7410000Y-14239572D01*
X7381428Y-14268143D01*
X7352857Y-14282429D01*
X7781428Y-14196714D02*
X7724285Y-14196714D01*
X7695714Y-14211000D01*
X7681428Y-14225286D01*
X7652857Y-14268143D01*
X7638571Y-14325286D01*
X7638571Y-14439572D01*
X7652857Y-14468143D01*
X7667143Y-14482429D01*
X7695714Y-14496714D01*
X7752857Y-14496714D01*
X7781428Y-14482429D01*
X7795714Y-14468143D01*
X7810000Y-14439572D01*
X7810000Y-14368143D01*
X7795714Y-14339572D01*
X7781428Y-14325286D01*
X7752857Y-14311000D01*
X7695714Y-14311000D01*
X7667143Y-14325286D01*
X7652857Y-14339572D01*
X7638571Y-14368143D01*
X7924285Y-14196714D02*
X7924285Y-14253857D01*
X8038571Y-14196714D02*
X8038571Y-14253857D01*
X8481428Y-14611000D02*
X8467143Y-14596714D01*
X8438571Y-14553857D01*
X8424286Y-14525286D01*
X8410000Y-14482429D01*
X8395714Y-14411000D01*
X8395714Y-14353857D01*
X8410000Y-14282429D01*
X8424286Y-14239572D01*
X8438571Y-14211000D01*
X8467143Y-14168143D01*
X8481428Y-14153857D01*
X8581428Y-14225286D02*
X8595714Y-14211000D01*
X8624286Y-14196714D01*
X8695714Y-14196714D01*
X8724286Y-14211000D01*
X8738571Y-14225286D01*
X8752857Y-14253857D01*
X8752857Y-14282429D01*
X8738571Y-14325286D01*
X8567143Y-14496714D01*
X8752857Y-14496714D01*
X8867143Y-14225286D02*
X8881428Y-14211000D01*
X8910000Y-14196714D01*
X8981428Y-14196714D01*
X9010000Y-14211000D01*
X9024286Y-14225286D01*
X9038571Y-14253857D01*
X9038571Y-14282429D01*
X9024286Y-14325286D01*
X8852857Y-14496714D01*
X9038571Y-14496714D01*
X9395714Y-14496714D02*
X9395714Y-14196714D01*
X9524286Y-14496714D02*
X9524286Y-14339572D01*
X9510000Y-14311000D01*
X9481428Y-14296714D01*
X9438571Y-14296714D01*
X9410000Y-14311000D01*
X9395714Y-14325286D01*
X9710000Y-14496714D02*
X9681428Y-14482429D01*
X9667143Y-14468143D01*
X9652857Y-14439572D01*
X9652857Y-14353857D01*
X9667143Y-14325286D01*
X9681428Y-14311000D01*
X9710000Y-14296714D01*
X9752857Y-14296714D01*
X9781428Y-14311000D01*
X9795714Y-14325286D01*
X9810000Y-14353857D01*
X9810000Y-14439572D01*
X9795714Y-14468143D01*
X9781428Y-14482429D01*
X9752857Y-14496714D01*
X9710000Y-14496714D01*
X9981428Y-14496714D02*
X9952857Y-14482429D01*
X9938571Y-14453857D01*
X9938571Y-14196714D01*
X10210000Y-14482429D02*
X10181428Y-14496714D01*
X10124286Y-14496714D01*
X10095714Y-14482429D01*
X10081428Y-14453857D01*
X10081428Y-14339572D01*
X10095714Y-14311000D01*
X10124286Y-14296714D01*
X10181428Y-14296714D01*
X10210000Y-14311000D01*
X10224286Y-14339572D01*
X10224286Y-14368143D01*
X10081428Y-14396714D01*
X10338571Y-14482429D02*
X10367143Y-14496714D01*
X10424286Y-14496714D01*
X10452857Y-14482429D01*
X10467143Y-14453857D01*
X10467143Y-14439572D01*
X10452857Y-14411000D01*
X10424286Y-14396714D01*
X10381428Y-14396714D01*
X10352857Y-14382429D01*
X10338571Y-14353857D01*
X10338571Y-14339572D01*
X10352857Y-14311000D01*
X10381428Y-14296714D01*
X10424286Y-14296714D01*
X10452857Y-14311000D01*
X10567143Y-14611000D02*
X10581428Y-14596714D01*
X10610000Y-14553857D01*
X10624286Y-14525286D01*
X10638571Y-14482429D01*
X10652857Y-14411000D01*
X10652857Y-14353857D01*
X10638571Y-14282429D01*
X10624286Y-14239572D01*
X10610000Y-14211000D01*
X10581428Y-14168143D01*
X10567143Y-14153857D01*
X3770000Y-14732000D02*
X3770000Y-14782000D01*
X3745000Y-14757000D02*
X3795000Y-14757000D01*
X4138571Y-14592714D02*
X4167143Y-14592714D01*
X4195714Y-14607000D01*
X4210000Y-14621286D01*
X4224286Y-14649857D01*
X4238571Y-14707000D01*
X4238571Y-14778429D01*
X4224286Y-14835572D01*
X4210000Y-14864143D01*
X4195714Y-14878429D01*
X4167143Y-14892714D01*
X4138571Y-14892714D01*
X4110000Y-14878429D01*
X4095714Y-14864143D01*
X4081428Y-14835572D01*
X4067143Y-14778429D01*
X4067143Y-14707000D01*
X4081428Y-14649857D01*
X4095714Y-14621286D01*
X4110000Y-14607000D01*
X4138571Y-14592714D01*
X4367143Y-14864143D02*
X4381428Y-14878429D01*
X4367143Y-14892714D01*
X4352857Y-14878429D01*
X4367143Y-14864143D01*
X4367143Y-14892714D01*
X4652857Y-14592714D02*
X4510000Y-14592714D01*
X4495714Y-14735572D01*
X4510000Y-14721286D01*
X4538571Y-14707000D01*
X4610000Y-14707000D01*
X4638571Y-14721286D01*
X4652857Y-14735572D01*
X4667143Y-14764143D01*
X4667143Y-14835572D01*
X4652857Y-14864143D01*
X4638571Y-14878429D01*
X4610000Y-14892714D01*
X4538571Y-14892714D01*
X4510000Y-14878429D01*
X4495714Y-14864143D01*
X4852857Y-14592714D02*
X4881428Y-14592714D01*
X4910000Y-14607000D01*
X4924286Y-14621286D01*
X4938571Y-14649857D01*
X4952857Y-14707000D01*
X4952857Y-14778429D01*
X4938571Y-14835572D01*
X4924286Y-14864143D01*
X4910000Y-14878429D01*
X4881428Y-14892714D01*
X4852857Y-14892714D01*
X4824286Y-14878429D01*
X4810000Y-14864143D01*
X4795714Y-14835572D01*
X4781428Y-14778429D01*
X4781428Y-14707000D01*
X4795714Y-14649857D01*
X4810000Y-14621286D01*
X4824286Y-14607000D01*
X4852857Y-14592714D01*
X5081428Y-14892714D02*
X5081428Y-14692714D01*
X5081428Y-14721286D02*
X5095714Y-14707000D01*
X5124286Y-14692714D01*
X5167143Y-14692714D01*
X5195714Y-14707000D01*
X5210000Y-14735572D01*
X5210000Y-14892714D01*
X5210000Y-14735572D02*
X5224286Y-14707000D01*
X5252857Y-14692714D01*
X5295714Y-14692714D01*
X5324286Y-14707000D01*
X5338571Y-14735572D01*
X5338571Y-14892714D01*
X5481428Y-14892714D02*
X5481428Y-14692714D01*
X5481428Y-14721286D02*
X5495714Y-14707000D01*
X5524286Y-14692714D01*
X5567143Y-14692714D01*
X5595714Y-14707000D01*
X5610000Y-14735572D01*
X5610000Y-14892714D01*
X5610000Y-14735572D02*
X5624285Y-14707000D01*
X5652857Y-14692714D01*
X5695714Y-14692714D01*
X5724285Y-14707000D01*
X5738571Y-14735572D01*
X5738571Y-14892714D01*
X6324285Y-14578429D02*
X6067143Y-14964143D01*
X6710000Y-14592714D02*
X6738571Y-14592714D01*
X6767143Y-14607000D01*
X6781428Y-14621286D01*
X6795714Y-14649857D01*
X6810000Y-14707000D01*
X6810000Y-14778429D01*
X6795714Y-14835572D01*
X6781428Y-14864143D01*
X6767143Y-14878429D01*
X6738571Y-14892714D01*
X6710000Y-14892714D01*
X6681428Y-14878429D01*
X6667143Y-14864143D01*
X6652857Y-14835572D01*
X6638571Y-14778429D01*
X6638571Y-14707000D01*
X6652857Y-14649857D01*
X6667143Y-14621286D01*
X6681428Y-14607000D01*
X6710000Y-14592714D01*
X6938571Y-14864143D02*
X6952857Y-14878429D01*
X6938571Y-14892714D01*
X6924285Y-14878429D01*
X6938571Y-14864143D01*
X6938571Y-14892714D01*
X7138571Y-14592714D02*
X7167143Y-14592714D01*
X7195714Y-14607000D01*
X7210000Y-14621286D01*
X7224285Y-14649857D01*
X7238571Y-14707000D01*
X7238571Y-14778429D01*
X7224285Y-14835572D01*
X7210000Y-14864143D01*
X7195714Y-14878429D01*
X7167143Y-14892714D01*
X7138571Y-14892714D01*
X7110000Y-14878429D01*
X7095714Y-14864143D01*
X7081428Y-14835572D01*
X7067143Y-14778429D01*
X7067143Y-14707000D01*
X7081428Y-14649857D01*
X7095714Y-14621286D01*
X7110000Y-14607000D01*
X7138571Y-14592714D01*
X7352857Y-14621286D02*
X7367143Y-14607000D01*
X7395714Y-14592714D01*
X7467143Y-14592714D01*
X7495714Y-14607000D01*
X7510000Y-14621286D01*
X7524285Y-14649857D01*
X7524285Y-14678429D01*
X7510000Y-14721286D01*
X7338571Y-14892714D01*
X7524285Y-14892714D01*
X7710000Y-14592714D02*
X7738571Y-14592714D01*
X7767143Y-14607000D01*
X7781428Y-14621286D01*
X7795714Y-14649857D01*
X7810000Y-14707000D01*
X7810000Y-14778429D01*
X7795714Y-14835572D01*
X7781428Y-14864143D01*
X7767143Y-14878429D01*
X7738571Y-14892714D01*
X7710000Y-14892714D01*
X7681428Y-14878429D01*
X7667143Y-14864143D01*
X7652857Y-14835572D01*
X7638571Y-14778429D01*
X7638571Y-14707000D01*
X7652857Y-14649857D01*
X7667143Y-14621286D01*
X7681428Y-14607000D01*
X7710000Y-14592714D01*
X7924285Y-14592714D02*
X7924285Y-14649857D01*
X8038571Y-14592714D02*
X8038571Y-14649857D01*
X8481428Y-15007000D02*
X8467143Y-14992714D01*
X8438571Y-14949857D01*
X8424286Y-14921286D01*
X8410000Y-14878429D01*
X8395714Y-14807000D01*
X8395714Y-14749857D01*
X8410000Y-14678429D01*
X8424286Y-14635572D01*
X8438571Y-14607000D01*
X8467143Y-14564143D01*
X8481428Y-14549857D01*
X8581428Y-14621286D02*
X8595714Y-14607000D01*
X8624286Y-14592714D01*
X8695714Y-14592714D01*
X8724286Y-14607000D01*
X8738571Y-14621286D01*
X8752857Y-14649857D01*
X8752857Y-14678429D01*
X8738571Y-14721286D01*
X8567143Y-14892714D01*
X8752857Y-14892714D01*
X8938571Y-14592714D02*
X8967143Y-14592714D01*
X8995714Y-14607000D01*
X9010000Y-14621286D01*
X9024286Y-14649857D01*
X9038571Y-14707000D01*
X9038571Y-14778429D01*
X9024286Y-14835572D01*
X9010000Y-14864143D01*
X8995714Y-14878429D01*
X8967143Y-14892714D01*
X8938571Y-14892714D01*
X8910000Y-14878429D01*
X8895714Y-14864143D01*
X8881428Y-14835572D01*
X8867143Y-14778429D01*
X8867143Y-14707000D01*
X8881428Y-14649857D01*
X8895714Y-14621286D01*
X8910000Y-14607000D01*
X8938571Y-14592714D01*
X9324286Y-14892714D02*
X9152857Y-14892714D01*
X9238571Y-14892714D02*
X9238571Y-14592714D01*
X9210000Y-14635572D01*
X9181428Y-14664143D01*
X9152857Y-14678429D01*
X9681428Y-14892714D02*
X9681428Y-14592714D01*
X9810000Y-14892714D02*
X9810000Y-14735572D01*
X9795714Y-14707000D01*
X9767143Y-14692714D01*
X9724286Y-14692714D01*
X9695714Y-14707000D01*
X9681428Y-14721286D01*
X9995714Y-14892714D02*
X9967143Y-14878429D01*
X9952857Y-14864143D01*
X9938571Y-14835572D01*
X9938571Y-14749857D01*
X9952857Y-14721286D01*
X9967143Y-14707000D01*
X9995714Y-14692714D01*
X10038571Y-14692714D01*
X10067143Y-14707000D01*
X10081428Y-14721286D01*
X10095714Y-14749857D01*
X10095714Y-14835572D01*
X10081428Y-14864143D01*
X10067143Y-14878429D01*
X10038571Y-14892714D01*
X9995714Y-14892714D01*
X10267143Y-14892714D02*
X10238571Y-14878429D01*
X10224286Y-14849857D01*
X10224286Y-14592714D01*
X10495714Y-14878429D02*
X10467143Y-14892714D01*
X10410000Y-14892714D01*
X10381428Y-14878429D01*
X10367143Y-14849857D01*
X10367143Y-14735572D01*
X10381428Y-14707000D01*
X10410000Y-14692714D01*
X10467143Y-14692714D01*
X10495714Y-14707000D01*
X10510000Y-14735572D01*
X10510000Y-14764143D01*
X10367143Y-14792714D01*
X10624286Y-14878429D02*
X10652857Y-14892714D01*
X10710000Y-14892714D01*
X10738571Y-14878429D01*
X10752857Y-14849857D01*
X10752857Y-14835572D01*
X10738571Y-14807000D01*
X10710000Y-14792714D01*
X10667143Y-14792714D01*
X10638571Y-14778429D01*
X10624286Y-14749857D01*
X10624286Y-14735572D01*
X10638571Y-14707000D01*
X10667143Y-14692714D01*
X10710000Y-14692714D01*
X10738571Y-14707000D01*
X10852857Y-15007000D02*
X10867143Y-14992714D01*
X10895714Y-14949857D01*
X10910000Y-14921286D01*
X10924286Y-14878429D01*
X10938571Y-14807000D01*
X10938571Y-14749857D01*
X10924286Y-14678429D01*
X10910000Y-14635572D01*
X10895714Y-14607000D01*
X10867143Y-14564143D01*
X10852857Y-14549857D01*
X3775962Y-15198963D02*
X3775962Y-15107038D01*
X3684037Y-15107038D01*
X3684037Y-15198963D01*
X3775962Y-15198963D01*
X4238571Y-15288714D02*
X4067143Y-15288714D01*
X4152857Y-15288714D02*
X4152857Y-14988714D01*
X4124285Y-15031572D01*
X4095714Y-15060143D01*
X4067143Y-15074429D01*
X4367143Y-15260143D02*
X4381428Y-15274429D01*
X4367143Y-15288714D01*
X4352857Y-15274429D01*
X4367143Y-15260143D01*
X4367143Y-15288714D01*
X4481428Y-14988714D02*
X4667143Y-14988714D01*
X4567143Y-15103000D01*
X4610000Y-15103000D01*
X4638571Y-15117286D01*
X4652857Y-15131572D01*
X4667143Y-15160143D01*
X4667143Y-15231572D01*
X4652857Y-15260143D01*
X4638571Y-15274429D01*
X4610000Y-15288714D01*
X4524286Y-15288714D01*
X4495714Y-15274429D01*
X4481428Y-15260143D01*
X4852857Y-14988714D02*
X4881428Y-14988714D01*
X4910000Y-15003000D01*
X4924286Y-15017286D01*
X4938571Y-15045857D01*
X4952857Y-15103000D01*
X4952857Y-15174429D01*
X4938571Y-15231572D01*
X4924286Y-15260143D01*
X4910000Y-15274429D01*
X4881428Y-15288714D01*
X4852857Y-15288714D01*
X4824286Y-15274429D01*
X4810000Y-15260143D01*
X4795714Y-15231572D01*
X4781428Y-15174429D01*
X4781428Y-15103000D01*
X4795714Y-15045857D01*
X4810000Y-15017286D01*
X4824286Y-15003000D01*
X4852857Y-14988714D01*
X5081428Y-15288714D02*
X5081428Y-15088714D01*
X5081428Y-15117286D02*
X5095714Y-15103000D01*
X5124286Y-15088714D01*
X5167143Y-15088714D01*
X5195714Y-15103000D01*
X5210000Y-15131572D01*
X5210000Y-15288714D01*
X5210000Y-15131572D02*
X5224286Y-15103000D01*
X5252857Y-15088714D01*
X5295714Y-15088714D01*
X5324286Y-15103000D01*
X5338571Y-15131572D01*
X5338571Y-15288714D01*
X5481428Y-15288714D02*
X5481428Y-15088714D01*
X5481428Y-15117286D02*
X5495714Y-15103000D01*
X5524286Y-15088714D01*
X5567143Y-15088714D01*
X5595714Y-15103000D01*
X5610000Y-15131572D01*
X5610000Y-15288714D01*
X5610000Y-15131572D02*
X5624285Y-15103000D01*
X5652857Y-15088714D01*
X5695714Y-15088714D01*
X5724285Y-15103000D01*
X5738571Y-15131572D01*
X5738571Y-15288714D01*
X6324285Y-14974429D02*
X6067143Y-15360143D01*
X6710000Y-14988714D02*
X6738571Y-14988714D01*
X6767143Y-15003000D01*
X6781428Y-15017286D01*
X6795714Y-15045857D01*
X6810000Y-15103000D01*
X6810000Y-15174429D01*
X6795714Y-15231572D01*
X6781428Y-15260143D01*
X6767143Y-15274429D01*
X6738571Y-15288714D01*
X6710000Y-15288714D01*
X6681428Y-15274429D01*
X6667143Y-15260143D01*
X6652857Y-15231572D01*
X6638571Y-15174429D01*
X6638571Y-15103000D01*
X6652857Y-15045857D01*
X6667143Y-15017286D01*
X6681428Y-15003000D01*
X6710000Y-14988714D01*
X6938571Y-15260143D02*
X6952857Y-15274429D01*
X6938571Y-15288714D01*
X6924285Y-15274429D01*
X6938571Y-15260143D01*
X6938571Y-15288714D01*
X7138571Y-14988714D02*
X7167143Y-14988714D01*
X7195714Y-15003000D01*
X7210000Y-15017286D01*
X7224285Y-15045857D01*
X7238571Y-15103000D01*
X7238571Y-15174429D01*
X7224285Y-15231572D01*
X7210000Y-15260143D01*
X7195714Y-15274429D01*
X7167143Y-15288714D01*
X7138571Y-15288714D01*
X7110000Y-15274429D01*
X7095714Y-15260143D01*
X7081428Y-15231572D01*
X7067143Y-15174429D01*
X7067143Y-15103000D01*
X7081428Y-15045857D01*
X7095714Y-15017286D01*
X7110000Y-15003000D01*
X7138571Y-14988714D01*
X7510000Y-14988714D02*
X7367143Y-14988714D01*
X7352857Y-15131572D01*
X7367143Y-15117286D01*
X7395714Y-15103000D01*
X7467143Y-15103000D01*
X7495714Y-15117286D01*
X7510000Y-15131572D01*
X7524285Y-15160143D01*
X7524285Y-15231572D01*
X7510000Y-15260143D01*
X7495714Y-15274429D01*
X7467143Y-15288714D01*
X7395714Y-15288714D01*
X7367143Y-15274429D01*
X7352857Y-15260143D01*
X7810000Y-15288714D02*
X7638571Y-15288714D01*
X7724285Y-15288714D02*
X7724285Y-14988714D01*
X7695714Y-15031572D01*
X7667143Y-15060143D01*
X7638571Y-15074429D01*
X7924285Y-14988714D02*
X7924285Y-15045857D01*
X8038571Y-14988714D02*
X8038571Y-15045857D01*
X8481428Y-15403000D02*
X8467143Y-15388714D01*
X8438571Y-15345857D01*
X8424286Y-15317286D01*
X8410000Y-15274429D01*
X8395714Y-15203000D01*
X8395714Y-15145857D01*
X8410000Y-15074429D01*
X8424286Y-15031572D01*
X8438571Y-15003000D01*
X8467143Y-14960143D01*
X8481428Y-14945857D01*
X8752857Y-15288714D02*
X8581428Y-15288714D01*
X8667143Y-15288714D02*
X8667143Y-14988714D01*
X8638571Y-15031572D01*
X8610000Y-15060143D01*
X8581428Y-15074429D01*
X8867143Y-15017286D02*
X8881428Y-15003000D01*
X8910000Y-14988714D01*
X8981428Y-14988714D01*
X9010000Y-15003000D01*
X9024286Y-15017286D01*
X9038571Y-15045857D01*
X9038571Y-15074429D01*
X9024286Y-15117286D01*
X8852857Y-15288714D01*
X9038571Y-15288714D01*
X9395714Y-15288714D02*
X9395714Y-14988714D01*
X9524286Y-15288714D02*
X9524286Y-15131572D01*
X9510000Y-15103000D01*
X9481428Y-15088714D01*
X9438571Y-15088714D01*
X9410000Y-15103000D01*
X9395714Y-15117286D01*
X9710000Y-15288714D02*
X9681428Y-15274429D01*
X9667143Y-15260143D01*
X9652857Y-15231572D01*
X9652857Y-15145857D01*
X9667143Y-15117286D01*
X9681428Y-15103000D01*
X9710000Y-15088714D01*
X9752857Y-15088714D01*
X9781428Y-15103000D01*
X9795714Y-15117286D01*
X9810000Y-15145857D01*
X9810000Y-15231572D01*
X9795714Y-15260143D01*
X9781428Y-15274429D01*
X9752857Y-15288714D01*
X9710000Y-15288714D01*
X9981428Y-15288714D02*
X9952857Y-15274429D01*
X9938571Y-15245857D01*
X9938571Y-14988714D01*
X10210000Y-15274429D02*
X10181428Y-15288714D01*
X10124286Y-15288714D01*
X10095714Y-15274429D01*
X10081428Y-15245857D01*
X10081428Y-15131572D01*
X10095714Y-15103000D01*
X10124286Y-15088714D01*
X10181428Y-15088714D01*
X10210000Y-15103000D01*
X10224286Y-15131572D01*
X10224286Y-15160143D01*
X10081428Y-15188714D01*
X10338571Y-15274429D02*
X10367143Y-15288714D01*
X10424286Y-15288714D01*
X10452857Y-15274429D01*
X10467143Y-15245857D01*
X10467143Y-15231572D01*
X10452857Y-15203000D01*
X10424286Y-15188714D01*
X10381428Y-15188714D01*
X10352857Y-15174429D01*
X10338571Y-15145857D01*
X10338571Y-15131572D01*
X10352857Y-15103000D01*
X10381428Y-15088714D01*
X10424286Y-15088714D01*
X10452857Y-15103000D01*
X10567143Y-15403000D02*
X10581428Y-15388714D01*
X10610000Y-15345857D01*
X10624286Y-15317286D01*
X10638571Y-15274429D01*
X10652857Y-15203000D01*
X10652857Y-15145857D01*
X10638571Y-15074429D01*
X10624286Y-15031572D01*
X10610000Y-15003000D01*
X10581428Y-14960143D01*
X10567143Y-14945857D01*
M02*
