G04 #@! TF.GenerationSoftware,KiCad,Pcbnew,(5.1.0-1220-ga833aeeac)*
G04 #@! TF.CreationDate,2019-07-09T23:07:38+03:00*
G04 #@! TF.ProjectId,proto_II_buck_kicad,70726f74-6f5f-4494-995f-6275636b5f6b,rev?*
G04 #@! TF.SameCoordinates,Original*
G04 #@! TF.FileFunction,Copper,L2,Bot*
G04 #@! TF.FilePolarity,Positive*
%FSLAX46Y46*%
G04 Gerber Fmt 4.6, Leading zero omitted, Abs format (unit mm)*
G04 Created by KiCad (PCBNEW (5.1.0-1220-ga833aeeac)) date 2019-07-09 23:07:38*
%MOMM*%
%LPD*%
G04 APERTURE LIST*
%ADD10C,1.524000*%
%ADD11C,1.600000*%
%ADD12C,0.800000*%
%ADD13C,0.400000*%
%ADD14C,0.254000*%
G04 APERTURE END LIST*
D10*
X144000000Y-122500000D03*
X144000000Y-117500000D03*
X193000000Y-117500000D03*
X193000000Y-122500000D03*
D11*
X160100000Y-118575000D03*
X160100000Y-121075000D03*
X153000000Y-118550000D03*
X153000000Y-121050000D03*
X156525000Y-112475000D03*
X156525000Y-114975000D03*
X185450000Y-118625000D03*
X183450000Y-118625000D03*
X185500000Y-112875000D03*
X183500000Y-112875000D03*
D12*
X164300000Y-119900000D03*
X172100000Y-119900000D03*
X167000000Y-126000000D03*
X168000000Y-126000000D03*
X169000000Y-126000000D03*
X167000000Y-127000000D03*
X168000000Y-127000000D03*
X169000000Y-127000000D03*
X167000000Y-128000000D03*
X168000000Y-128000000D03*
X169000000Y-128000000D03*
X166000000Y-119000000D03*
X167000000Y-119000000D03*
X168000000Y-119000000D03*
X142500000Y-112500000D03*
X145000000Y-112500000D03*
X147500000Y-112500000D03*
X150000000Y-112500000D03*
X152500000Y-112500000D03*
X160000000Y-112500000D03*
X162500000Y-112500000D03*
X165000000Y-112500000D03*
X167500000Y-112500000D03*
X170000000Y-112500000D03*
X172500000Y-112500000D03*
X167500000Y-115000000D03*
X182500000Y-127500000D03*
X187500000Y-127500000D03*
X185000000Y-127500000D03*
X192500000Y-127500000D03*
X190000000Y-127500000D03*
X142500000Y-127500000D03*
X145000000Y-127500000D03*
X147500000Y-127500000D03*
X150000000Y-127500000D03*
X172264290Y-122735710D03*
X175250000Y-122500000D03*
X177000000Y-122500000D03*
X173500000Y-122500000D03*
X152500000Y-127500000D03*
X155000000Y-127500000D03*
X161500000Y-126000000D03*
X166500000Y-115000000D03*
X163250000Y-115750000D03*
X163250000Y-117250000D03*
X168000000Y-124750000D03*
X168000000Y-123750000D03*
X168000000Y-122750000D03*
X168000000Y-121750000D03*
X168000000Y-120750000D03*
X165500000Y-115000000D03*
X176000000Y-114000000D03*
X178000000Y-114000000D03*
X180000000Y-114000000D03*
X156250000Y-129000000D03*
X161500000Y-129000000D03*
X180000000Y-127500000D03*
X191250000Y-128500000D03*
X188750000Y-128500000D03*
X186250000Y-128500000D03*
X183750000Y-128500000D03*
X181250000Y-128500000D03*
X181250000Y-126250000D03*
X183750000Y-126250000D03*
X186250000Y-126250000D03*
X188750000Y-126250000D03*
X191250000Y-126250000D03*
X143750000Y-128500000D03*
X146250000Y-128500000D03*
X148750000Y-128500000D03*
X151250000Y-128500000D03*
X143750000Y-111250000D03*
X146500000Y-111250000D03*
X148750000Y-111250000D03*
X151250000Y-111250000D03*
X154000000Y-111250000D03*
X161250000Y-111250000D03*
X163750000Y-111250000D03*
X166250000Y-111250000D03*
X168750000Y-111250000D03*
X171250000Y-111250000D03*
X174250000Y-114000000D03*
X171250000Y-113750000D03*
X168750000Y-113750000D03*
X166250000Y-113750000D03*
X163750000Y-113750000D03*
D13*
X164300000Y-119900000D02*
X172100000Y-119900000D01*
D14*
G36*
X194434140Y-110635793D02*
G01*
X194452790Y-110638480D01*
X194459045Y-110638911D01*
X194459800Y-110638960D01*
X194732935Y-110656144D01*
X194962185Y-110699876D01*
X195184166Y-110772002D01*
X195395349Y-110871378D01*
X195592403Y-110996433D01*
X195772241Y-111145207D01*
X195932006Y-111315339D01*
X196069191Y-111504159D01*
X196181633Y-111708690D01*
X196267548Y-111925691D01*
X196325590Y-112151748D01*
X196356107Y-112393317D01*
X196360092Y-112520109D01*
X196361939Y-112538064D01*
X196365000Y-112555513D01*
X196365001Y-127430540D01*
X196364206Y-127434141D01*
X196361520Y-127452790D01*
X196361089Y-127459045D01*
X196361040Y-127459800D01*
X196343856Y-127732935D01*
X196300124Y-127962186D01*
X196227999Y-128184164D01*
X196128625Y-128395344D01*
X196003567Y-128592403D01*
X195854797Y-128772236D01*
X195684660Y-128932006D01*
X195495841Y-129069191D01*
X195291312Y-129181632D01*
X195074309Y-129267549D01*
X194848252Y-129325590D01*
X194606683Y-129356107D01*
X194479891Y-129360092D01*
X194461936Y-129361939D01*
X194444487Y-129365000D01*
X142569452Y-129365000D01*
X142565860Y-129364207D01*
X142547210Y-129361520D01*
X142540955Y-129361089D01*
X142540200Y-129361040D01*
X142267065Y-129343856D01*
X142037814Y-129300124D01*
X141815836Y-129227999D01*
X141604656Y-129128625D01*
X141407597Y-129003567D01*
X141227764Y-128854797D01*
X141067994Y-128684660D01*
X140930809Y-128495841D01*
X140818368Y-128291312D01*
X140732451Y-128074309D01*
X140674410Y-127848252D01*
X140643893Y-127606683D01*
X140639908Y-127479891D01*
X140638061Y-127461936D01*
X140635000Y-127444487D01*
X140635000Y-122474595D01*
X142598555Y-122474595D01*
X142612790Y-122700852D01*
X142616205Y-122723171D01*
X142670281Y-122943331D01*
X142677595Y-122964694D01*
X142769804Y-123171798D01*
X142780785Y-123191527D01*
X142908212Y-123379030D01*
X142922513Y-123396502D01*
X143081129Y-123558476D01*
X143098298Y-123573140D01*
X143283091Y-123704465D01*
X143302586Y-123715857D01*
X143507714Y-123812383D01*
X143528918Y-123820143D01*
X143747898Y-123878818D01*
X143770140Y-123882700D01*
X143996049Y-123901671D01*
X144018629Y-123901552D01*
X144244327Y-123880217D01*
X144266528Y-123876103D01*
X144484880Y-123815138D01*
X144506001Y-123807156D01*
X144710107Y-123708487D01*
X144729481Y-123696892D01*
X144912889Y-123563639D01*
X144929904Y-123548796D01*
X145086816Y-123385170D01*
X145100934Y-123367549D01*
X145226390Y-123178722D01*
X145237164Y-123158879D01*
X145327199Y-122950820D01*
X145334289Y-122929383D01*
X145386057Y-122708669D01*
X145389368Y-122682992D01*
X145397041Y-122389972D01*
X145395078Y-122364158D01*
X145354932Y-122141037D01*
X145348974Y-122119258D01*
X145269951Y-121906772D01*
X145260230Y-121886393D01*
X145144829Y-121691259D01*
X145131653Y-121672922D01*
X144983519Y-121501308D01*
X144967305Y-121485595D01*
X144791123Y-121342926D01*
X144772382Y-121330333D01*
X144573720Y-121221117D01*
X144553045Y-121212041D01*
X144338182Y-121139732D01*
X144316227Y-121134461D01*
X144091955Y-121101343D01*
X144069413Y-121100044D01*
X143842821Y-121107165D01*
X143820405Y-121109877D01*
X143598654Y-121157012D01*
X143577073Y-121163651D01*
X143367175Y-121249309D01*
X143347111Y-121259665D01*
X143155698Y-121381139D01*
X143137785Y-121394885D01*
X142970909Y-121548336D01*
X142955713Y-121565036D01*
X142818648Y-121745612D01*
X142806649Y-121764739D01*
X142703727Y-121966734D01*
X142695305Y-121987684D01*
X142629781Y-122204712D01*
X142625203Y-122226822D01*
X142599146Y-122452024D01*
X142598555Y-122474595D01*
X140635000Y-122474595D01*
X140635000Y-120935565D01*
X151565000Y-120935565D01*
X151565000Y-121164435D01*
X151566929Y-121186488D01*
X151606672Y-121411881D01*
X151612402Y-121433265D01*
X151690681Y-121648333D01*
X151700037Y-121668396D01*
X151814472Y-121866604D01*
X151827170Y-121884738D01*
X151974285Y-122060062D01*
X151989938Y-122075715D01*
X152165262Y-122222830D01*
X152183396Y-122235528D01*
X152381604Y-122349963D01*
X152401667Y-122359319D01*
X152616735Y-122437598D01*
X152638119Y-122443328D01*
X152863512Y-122483071D01*
X152885565Y-122485000D01*
X153114435Y-122485000D01*
X153136488Y-122483071D01*
X153361881Y-122443328D01*
X153383265Y-122437598D01*
X153598333Y-122359319D01*
X153618396Y-122349963D01*
X153816604Y-122235528D01*
X153834738Y-122222830D01*
X154010062Y-122075715D01*
X154025715Y-122060062D01*
X154172830Y-121884738D01*
X154185528Y-121866604D01*
X154299963Y-121668396D01*
X154309319Y-121648333D01*
X154387598Y-121433265D01*
X154393328Y-121411881D01*
X154433071Y-121186488D01*
X154435000Y-121164435D01*
X154435000Y-120960565D01*
X158665000Y-120960565D01*
X158665000Y-121189435D01*
X158666929Y-121211488D01*
X158706672Y-121436881D01*
X158712402Y-121458265D01*
X158790681Y-121673333D01*
X158800037Y-121693396D01*
X158914472Y-121891604D01*
X158927170Y-121909738D01*
X159074285Y-122085062D01*
X159089938Y-122100715D01*
X159265262Y-122247830D01*
X159283396Y-122260528D01*
X159481604Y-122374963D01*
X159501667Y-122384319D01*
X159716735Y-122462598D01*
X159738119Y-122468328D01*
X159963512Y-122508071D01*
X159985565Y-122510000D01*
X160214435Y-122510000D01*
X160236488Y-122508071D01*
X160426339Y-122474595D01*
X191598555Y-122474595D01*
X191612790Y-122700852D01*
X191616205Y-122723171D01*
X191670281Y-122943331D01*
X191677595Y-122964694D01*
X191769804Y-123171798D01*
X191780785Y-123191527D01*
X191908212Y-123379030D01*
X191922513Y-123396502D01*
X192081129Y-123558476D01*
X192098298Y-123573140D01*
X192283091Y-123704465D01*
X192302586Y-123715857D01*
X192507714Y-123812383D01*
X192528918Y-123820143D01*
X192747898Y-123878818D01*
X192770140Y-123882700D01*
X192996049Y-123901671D01*
X193018629Y-123901552D01*
X193244327Y-123880217D01*
X193266528Y-123876103D01*
X193484880Y-123815138D01*
X193506001Y-123807156D01*
X193710107Y-123708487D01*
X193729481Y-123696892D01*
X193912889Y-123563639D01*
X193929904Y-123548796D01*
X194086816Y-123385170D01*
X194100934Y-123367549D01*
X194226390Y-123178722D01*
X194237164Y-123158879D01*
X194327199Y-122950820D01*
X194334289Y-122929383D01*
X194386057Y-122708669D01*
X194389368Y-122682992D01*
X194397041Y-122389972D01*
X194395078Y-122364158D01*
X194354932Y-122141037D01*
X194348974Y-122119258D01*
X194269951Y-121906772D01*
X194260230Y-121886393D01*
X194144829Y-121691259D01*
X194131653Y-121672922D01*
X193983519Y-121501308D01*
X193967305Y-121485595D01*
X193791123Y-121342926D01*
X193772382Y-121330333D01*
X193573720Y-121221117D01*
X193553045Y-121212041D01*
X193338182Y-121139732D01*
X193316227Y-121134461D01*
X193091955Y-121101343D01*
X193069413Y-121100044D01*
X192842821Y-121107165D01*
X192820405Y-121109877D01*
X192598654Y-121157012D01*
X192577073Y-121163651D01*
X192367175Y-121249309D01*
X192347111Y-121259665D01*
X192155698Y-121381139D01*
X192137785Y-121394885D01*
X191970909Y-121548336D01*
X191955713Y-121565036D01*
X191818648Y-121745612D01*
X191806649Y-121764739D01*
X191703727Y-121966734D01*
X191695305Y-121987684D01*
X191629781Y-122204712D01*
X191625203Y-122226822D01*
X191599146Y-122452024D01*
X191598555Y-122474595D01*
X160426339Y-122474595D01*
X160461881Y-122468328D01*
X160483265Y-122462598D01*
X160698333Y-122384319D01*
X160718396Y-122374963D01*
X160916604Y-122260528D01*
X160934738Y-122247830D01*
X161110062Y-122100715D01*
X161125715Y-122085062D01*
X161272830Y-121909738D01*
X161285528Y-121891604D01*
X161399963Y-121693396D01*
X161409319Y-121673333D01*
X161487598Y-121458265D01*
X161493328Y-121436881D01*
X161533071Y-121211488D01*
X161535000Y-121189435D01*
X161535000Y-120960565D01*
X161533071Y-120938512D01*
X161493328Y-120713119D01*
X161487598Y-120691735D01*
X161409319Y-120476667D01*
X161399963Y-120456604D01*
X161285528Y-120258396D01*
X161272830Y-120240262D01*
X161125715Y-120064938D01*
X161110062Y-120049285D01*
X160934738Y-119902170D01*
X160916604Y-119889472D01*
X160804935Y-119825000D01*
X160882080Y-119780460D01*
X163265000Y-119780460D01*
X163265000Y-120019540D01*
X163269327Y-120052410D01*
X163331206Y-120283345D01*
X163343894Y-120313975D01*
X163463434Y-120521025D01*
X163483616Y-120547328D01*
X163652672Y-120716384D01*
X163678975Y-120736566D01*
X163886025Y-120856106D01*
X163916655Y-120868794D01*
X164147590Y-120930673D01*
X164180460Y-120935000D01*
X164419540Y-120935000D01*
X164452410Y-120930673D01*
X164683345Y-120868794D01*
X164713975Y-120856106D01*
X164921025Y-120736566D01*
X164923066Y-120735000D01*
X171476934Y-120735000D01*
X171478975Y-120736566D01*
X171686025Y-120856106D01*
X171716655Y-120868794D01*
X171947590Y-120930673D01*
X171980460Y-120935000D01*
X172219540Y-120935000D01*
X172252410Y-120930673D01*
X172483345Y-120868794D01*
X172513975Y-120856106D01*
X172721025Y-120736566D01*
X172747328Y-120716384D01*
X172916384Y-120547328D01*
X172936566Y-120521025D01*
X173056106Y-120313975D01*
X173068794Y-120283345D01*
X173130673Y-120052410D01*
X173135000Y-120019540D01*
X173135000Y-119780460D01*
X173130673Y-119747590D01*
X173068794Y-119516655D01*
X173056106Y-119486025D01*
X172936566Y-119278975D01*
X172916384Y-119252672D01*
X172747328Y-119083616D01*
X172721025Y-119063434D01*
X172513975Y-118943894D01*
X172483345Y-118931206D01*
X172252410Y-118869327D01*
X172219540Y-118865000D01*
X171980460Y-118865000D01*
X171947590Y-118869327D01*
X171716655Y-118931206D01*
X171686025Y-118943894D01*
X171478975Y-119063434D01*
X171476934Y-119065000D01*
X164923066Y-119065000D01*
X164921025Y-119063434D01*
X164713975Y-118943894D01*
X164683345Y-118931206D01*
X164452410Y-118869327D01*
X164419540Y-118865000D01*
X164180460Y-118865000D01*
X164147590Y-118869327D01*
X163916655Y-118931206D01*
X163886025Y-118943894D01*
X163678975Y-119063434D01*
X163652672Y-119083616D01*
X163483616Y-119252672D01*
X163463434Y-119278975D01*
X163343894Y-119486025D01*
X163331206Y-119516655D01*
X163269327Y-119747590D01*
X163265000Y-119780460D01*
X160882080Y-119780460D01*
X160893292Y-119773987D01*
X160942674Y-119722197D01*
X160956217Y-119651930D01*
X160919595Y-119574199D01*
X160189803Y-118844407D01*
X160126996Y-118810112D01*
X160055618Y-118815217D01*
X160010197Y-118844407D01*
X159280405Y-119574199D01*
X159246110Y-119637006D01*
X159251215Y-119708384D01*
X159306708Y-119773987D01*
X159395065Y-119825000D01*
X159283396Y-119889472D01*
X159265262Y-119902170D01*
X159089938Y-120049285D01*
X159074285Y-120064938D01*
X158927170Y-120240262D01*
X158914472Y-120258396D01*
X158800037Y-120456604D01*
X158790681Y-120476667D01*
X158712402Y-120691735D01*
X158706672Y-120713119D01*
X158666929Y-120938512D01*
X158665000Y-120960565D01*
X154435000Y-120960565D01*
X154435000Y-120935565D01*
X154433071Y-120913512D01*
X154393328Y-120688119D01*
X154387598Y-120666735D01*
X154309319Y-120451667D01*
X154299963Y-120431604D01*
X154185528Y-120233396D01*
X154172830Y-120215262D01*
X154025715Y-120039938D01*
X154010062Y-120024285D01*
X153834738Y-119877170D01*
X153816604Y-119864472D01*
X153704935Y-119800000D01*
X153793292Y-119748987D01*
X153842674Y-119697197D01*
X153856217Y-119626930D01*
X153819595Y-119549199D01*
X153089803Y-118819407D01*
X153026996Y-118785112D01*
X152955618Y-118790217D01*
X152910197Y-118819407D01*
X152180405Y-119549199D01*
X152146110Y-119612006D01*
X152151215Y-119683384D01*
X152206708Y-119748987D01*
X152295065Y-119800000D01*
X152183396Y-119864472D01*
X152165262Y-119877170D01*
X151989938Y-120024285D01*
X151974285Y-120039938D01*
X151827170Y-120215262D01*
X151814472Y-120233396D01*
X151700037Y-120431604D01*
X151690681Y-120451667D01*
X151612402Y-120666735D01*
X151606672Y-120688119D01*
X151566929Y-120913512D01*
X151565000Y-120935565D01*
X140635000Y-120935565D01*
X140635000Y-118533072D01*
X143175044Y-118533072D01*
X143180149Y-118604450D01*
X143225573Y-118663589D01*
X143283091Y-118704465D01*
X143302586Y-118715857D01*
X143507714Y-118812383D01*
X143528918Y-118820143D01*
X143747898Y-118878818D01*
X143770140Y-118882700D01*
X143996049Y-118901671D01*
X144018629Y-118901552D01*
X144244327Y-118880217D01*
X144266528Y-118876103D01*
X144484880Y-118815138D01*
X144506001Y-118807156D01*
X144710107Y-118708487D01*
X144729481Y-118696893D01*
X144775877Y-118663185D01*
X144819575Y-118606517D01*
X144825700Y-118535219D01*
X144791032Y-118470636D01*
X144755961Y-118435565D01*
X151565000Y-118435565D01*
X151565000Y-118664435D01*
X151566929Y-118686488D01*
X151606672Y-118911881D01*
X151612402Y-118933265D01*
X151690681Y-119148333D01*
X151700037Y-119168396D01*
X151801013Y-119343292D01*
X151852803Y-119392674D01*
X151923070Y-119406217D01*
X152000801Y-119369595D01*
X152730593Y-118639803D01*
X152764888Y-118576996D01*
X152761027Y-118523004D01*
X153235112Y-118523004D01*
X153240217Y-118594382D01*
X153269407Y-118639803D01*
X153999199Y-119369595D01*
X154062006Y-119403890D01*
X154133384Y-119398785D01*
X154198987Y-119343292D01*
X154299963Y-119168396D01*
X154309319Y-119148333D01*
X154387598Y-118933265D01*
X154393328Y-118911881D01*
X154433071Y-118686488D01*
X154435000Y-118664435D01*
X154435000Y-118460565D01*
X158665000Y-118460565D01*
X158665000Y-118689435D01*
X158666929Y-118711488D01*
X158706672Y-118936881D01*
X158712402Y-118958265D01*
X158790681Y-119173333D01*
X158800037Y-119193396D01*
X158901013Y-119368292D01*
X158952803Y-119417674D01*
X159023070Y-119431217D01*
X159100801Y-119394595D01*
X159830593Y-118664803D01*
X159864888Y-118601996D01*
X159861027Y-118548004D01*
X160335112Y-118548004D01*
X160340217Y-118619382D01*
X160369407Y-118664803D01*
X161099199Y-119394595D01*
X161162006Y-119428890D01*
X161233384Y-119423785D01*
X161298987Y-119368292D01*
X161399963Y-119193396D01*
X161409319Y-119173333D01*
X161487598Y-118958265D01*
X161493328Y-118936881D01*
X161533071Y-118711488D01*
X161535000Y-118689435D01*
X161535000Y-118510565D01*
X182015000Y-118510565D01*
X182015000Y-118739435D01*
X182016929Y-118761488D01*
X182056672Y-118986881D01*
X182062402Y-119008265D01*
X182140681Y-119223333D01*
X182150037Y-119243396D01*
X182264472Y-119441604D01*
X182277170Y-119459738D01*
X182424285Y-119635062D01*
X182439938Y-119650715D01*
X182615262Y-119797830D01*
X182633396Y-119810528D01*
X182831604Y-119924963D01*
X182851667Y-119934319D01*
X183066735Y-120012598D01*
X183088119Y-120018328D01*
X183313512Y-120058071D01*
X183335565Y-120060000D01*
X183564435Y-120060000D01*
X183586488Y-120058071D01*
X183811881Y-120018328D01*
X183833265Y-120012598D01*
X184048333Y-119934319D01*
X184068396Y-119924963D01*
X184266604Y-119810528D01*
X184284738Y-119797830D01*
X184416812Y-119687006D01*
X184596110Y-119687006D01*
X184601215Y-119758384D01*
X184656708Y-119823987D01*
X184831604Y-119924963D01*
X184851667Y-119934319D01*
X185066735Y-120012598D01*
X185088119Y-120018328D01*
X185313512Y-120058071D01*
X185335565Y-120060000D01*
X185564435Y-120060000D01*
X185586488Y-120058071D01*
X185811881Y-120018328D01*
X185833265Y-120012598D01*
X186048333Y-119934319D01*
X186068396Y-119924963D01*
X186243292Y-119823987D01*
X186292674Y-119772197D01*
X186306217Y-119701930D01*
X186269595Y-119624199D01*
X185539803Y-118894407D01*
X185476996Y-118860112D01*
X185405618Y-118865217D01*
X185360197Y-118894407D01*
X184630405Y-119624199D01*
X184596110Y-119687006D01*
X184416812Y-119687006D01*
X184460062Y-119650715D01*
X184475715Y-119635062D01*
X184622830Y-119459738D01*
X184635528Y-119441604D01*
X184749963Y-119243396D01*
X184759319Y-119223333D01*
X184809252Y-119086144D01*
X185180593Y-118714803D01*
X185214888Y-118651996D01*
X185211027Y-118598004D01*
X185685112Y-118598004D01*
X185690217Y-118669382D01*
X185719407Y-118714803D01*
X186449199Y-119444595D01*
X186512006Y-119478890D01*
X186583384Y-119473785D01*
X186648987Y-119418292D01*
X186749963Y-119243396D01*
X186759319Y-119223333D01*
X186837598Y-119008265D01*
X186843328Y-118986881D01*
X186883071Y-118761488D01*
X186885000Y-118739435D01*
X186885000Y-118533072D01*
X192175044Y-118533072D01*
X192180149Y-118604450D01*
X192225573Y-118663589D01*
X192283091Y-118704465D01*
X192302586Y-118715857D01*
X192507714Y-118812383D01*
X192528918Y-118820143D01*
X192747898Y-118878818D01*
X192770140Y-118882700D01*
X192996049Y-118901671D01*
X193018629Y-118901552D01*
X193244327Y-118880217D01*
X193266528Y-118876103D01*
X193484880Y-118815138D01*
X193506001Y-118807156D01*
X193710107Y-118708487D01*
X193729481Y-118696893D01*
X193775877Y-118663185D01*
X193819575Y-118606517D01*
X193825700Y-118535219D01*
X193791032Y-118470636D01*
X193089803Y-117769407D01*
X193026996Y-117735112D01*
X192955618Y-117740217D01*
X192910197Y-117769407D01*
X192209339Y-118470265D01*
X192175044Y-118533072D01*
X186885000Y-118533072D01*
X186885000Y-118510565D01*
X186883071Y-118488512D01*
X186843328Y-118263119D01*
X186837598Y-118241735D01*
X186759319Y-118026667D01*
X186749963Y-118006604D01*
X186648987Y-117831708D01*
X186597197Y-117782326D01*
X186526930Y-117768783D01*
X186449199Y-117805405D01*
X185719407Y-118535197D01*
X185685112Y-118598004D01*
X185211027Y-118598004D01*
X185209783Y-118580618D01*
X185180593Y-118535197D01*
X184809252Y-118163856D01*
X184759319Y-118026667D01*
X184749963Y-118006604D01*
X184635528Y-117808396D01*
X184622830Y-117790262D01*
X184475715Y-117614938D01*
X184460062Y-117599285D01*
X184399027Y-117548070D01*
X184593783Y-117548070D01*
X184630405Y-117625801D01*
X185360197Y-118355593D01*
X185423004Y-118389888D01*
X185494382Y-118384783D01*
X185539803Y-118355593D01*
X186269595Y-117625801D01*
X186303890Y-117562994D01*
X186298785Y-117491616D01*
X186284388Y-117474595D01*
X191598555Y-117474595D01*
X191612790Y-117700852D01*
X191616205Y-117723171D01*
X191670281Y-117943331D01*
X191677595Y-117964694D01*
X191769804Y-118171798D01*
X191780784Y-118191526D01*
X191835336Y-118271798D01*
X191890604Y-118317255D01*
X191961674Y-118325615D01*
X192030179Y-118290217D01*
X192730593Y-117589803D01*
X192764888Y-117526996D01*
X192761027Y-117473004D01*
X193235112Y-117473004D01*
X193240217Y-117544382D01*
X193269407Y-117589803D01*
X193969748Y-118290144D01*
X194032555Y-118324439D01*
X194103933Y-118319334D01*
X194165332Y-118270622D01*
X194226390Y-118178722D01*
X194237164Y-118158879D01*
X194327199Y-117950820D01*
X194334289Y-117929383D01*
X194386057Y-117708669D01*
X194389368Y-117682992D01*
X194397041Y-117389972D01*
X194395078Y-117364158D01*
X194354932Y-117141037D01*
X194348974Y-117119258D01*
X194269951Y-116906772D01*
X194260230Y-116886393D01*
X194170020Y-116733856D01*
X194117716Y-116685019D01*
X194047311Y-116672212D01*
X193970903Y-116708701D01*
X193269407Y-117410197D01*
X193235112Y-117473004D01*
X192761027Y-117473004D01*
X192759783Y-117455618D01*
X192730593Y-117410197D01*
X192028328Y-116707932D01*
X191965521Y-116673637D01*
X191894143Y-116678742D01*
X191837364Y-116720953D01*
X191818646Y-116745614D01*
X191806649Y-116764739D01*
X191703727Y-116966734D01*
X191695305Y-116987684D01*
X191629781Y-117204712D01*
X191625203Y-117226822D01*
X191599146Y-117452024D01*
X191598555Y-117474595D01*
X186284388Y-117474595D01*
X186243292Y-117426013D01*
X186068396Y-117325037D01*
X186048333Y-117315681D01*
X185833265Y-117237402D01*
X185811881Y-117231672D01*
X185586488Y-117191929D01*
X185564435Y-117190000D01*
X185335565Y-117190000D01*
X185313512Y-117191929D01*
X185088119Y-117231672D01*
X185066735Y-117237402D01*
X184851667Y-117315681D01*
X184831604Y-117325037D01*
X184656708Y-117426013D01*
X184607326Y-117477803D01*
X184593783Y-117548070D01*
X184399027Y-117548070D01*
X184284738Y-117452170D01*
X184266604Y-117439472D01*
X184068396Y-117325037D01*
X184048333Y-117315681D01*
X183833265Y-117237402D01*
X183811881Y-117231672D01*
X183586488Y-117191929D01*
X183564435Y-117190000D01*
X183335565Y-117190000D01*
X183313512Y-117191929D01*
X183088119Y-117231672D01*
X183066735Y-117237402D01*
X182851667Y-117315681D01*
X182831604Y-117325037D01*
X182633396Y-117439472D01*
X182615262Y-117452170D01*
X182439938Y-117599285D01*
X182424285Y-117614938D01*
X182277170Y-117790262D01*
X182264472Y-117808396D01*
X182150037Y-118006604D01*
X182140681Y-118026667D01*
X182062402Y-118241735D01*
X182056672Y-118263119D01*
X182016929Y-118488512D01*
X182015000Y-118510565D01*
X161535000Y-118510565D01*
X161535000Y-118460565D01*
X161533071Y-118438512D01*
X161493328Y-118213119D01*
X161487598Y-118191735D01*
X161409319Y-117976667D01*
X161399963Y-117956604D01*
X161298987Y-117781708D01*
X161247197Y-117732326D01*
X161176930Y-117718783D01*
X161099199Y-117755405D01*
X160369407Y-118485197D01*
X160335112Y-118548004D01*
X159861027Y-118548004D01*
X159859783Y-118530618D01*
X159830593Y-118485197D01*
X159100801Y-117755405D01*
X159037994Y-117721110D01*
X158966616Y-117726215D01*
X158901013Y-117781708D01*
X158800037Y-117956604D01*
X158790681Y-117976667D01*
X158712402Y-118191735D01*
X158706672Y-118213119D01*
X158666929Y-118438512D01*
X158665000Y-118460565D01*
X154435000Y-118460565D01*
X154435000Y-118435565D01*
X154433071Y-118413512D01*
X154393328Y-118188119D01*
X154387598Y-118166735D01*
X154309319Y-117951667D01*
X154299963Y-117931604D01*
X154198987Y-117756708D01*
X154147197Y-117707326D01*
X154076930Y-117693783D01*
X153999199Y-117730405D01*
X153269407Y-118460197D01*
X153235112Y-118523004D01*
X152761027Y-118523004D01*
X152759783Y-118505618D01*
X152730593Y-118460197D01*
X152000801Y-117730405D01*
X151937994Y-117696110D01*
X151866616Y-117701215D01*
X151801013Y-117756708D01*
X151700037Y-117931604D01*
X151690681Y-117951667D01*
X151612402Y-118166735D01*
X151606672Y-118188119D01*
X151566929Y-118413512D01*
X151565000Y-118435565D01*
X144755961Y-118435565D01*
X144089803Y-117769407D01*
X144026996Y-117735112D01*
X143955618Y-117740217D01*
X143910197Y-117769407D01*
X143209339Y-118470265D01*
X143175044Y-118533072D01*
X140635000Y-118533072D01*
X140635000Y-117474595D01*
X142598555Y-117474595D01*
X142612790Y-117700852D01*
X142616205Y-117723171D01*
X142670281Y-117943331D01*
X142677595Y-117964694D01*
X142769804Y-118171798D01*
X142780784Y-118191526D01*
X142835336Y-118271798D01*
X142890604Y-118317255D01*
X142961674Y-118325615D01*
X143030179Y-118290217D01*
X143730593Y-117589803D01*
X143764888Y-117526996D01*
X143761027Y-117473004D01*
X144235112Y-117473004D01*
X144240217Y-117544382D01*
X144269407Y-117589803D01*
X144969748Y-118290144D01*
X145032555Y-118324439D01*
X145103933Y-118319334D01*
X145165332Y-118270622D01*
X145226390Y-118178722D01*
X145237164Y-118158879D01*
X145327199Y-117950820D01*
X145334289Y-117929383D01*
X145386057Y-117708669D01*
X145389368Y-117682992D01*
X145394865Y-117473070D01*
X152143783Y-117473070D01*
X152180405Y-117550801D01*
X152910197Y-118280593D01*
X152973004Y-118314888D01*
X153044382Y-118309783D01*
X153089803Y-118280593D01*
X153819595Y-117550801D01*
X153848388Y-117498070D01*
X159243783Y-117498070D01*
X159280405Y-117575801D01*
X160010197Y-118305593D01*
X160073004Y-118339888D01*
X160144382Y-118334783D01*
X160189803Y-118305593D01*
X160919595Y-117575801D01*
X160953890Y-117512994D01*
X160948785Y-117441616D01*
X160893292Y-117376013D01*
X160718396Y-117275037D01*
X160698333Y-117265681D01*
X160483265Y-117187402D01*
X160461881Y-117181672D01*
X160236488Y-117141929D01*
X160214435Y-117140000D01*
X159985565Y-117140000D01*
X159963512Y-117141929D01*
X159738119Y-117181672D01*
X159716735Y-117187402D01*
X159501667Y-117265681D01*
X159481604Y-117275037D01*
X159306708Y-117376013D01*
X159257326Y-117427803D01*
X159243783Y-117498070D01*
X153848388Y-117498070D01*
X153853890Y-117487994D01*
X153848785Y-117416616D01*
X153793292Y-117351013D01*
X153618396Y-117250037D01*
X153598333Y-117240681D01*
X153383265Y-117162402D01*
X153361881Y-117156672D01*
X153136488Y-117116929D01*
X153114435Y-117115000D01*
X152885565Y-117115000D01*
X152863512Y-117116929D01*
X152638119Y-117156672D01*
X152616735Y-117162402D01*
X152401667Y-117240681D01*
X152381604Y-117250037D01*
X152206708Y-117351013D01*
X152157326Y-117402803D01*
X152143783Y-117473070D01*
X145394865Y-117473070D01*
X145397041Y-117389972D01*
X145395078Y-117364158D01*
X145354932Y-117141037D01*
X145348974Y-117119258D01*
X145269951Y-116906772D01*
X145260230Y-116886393D01*
X145170020Y-116733856D01*
X145117716Y-116685019D01*
X145047311Y-116672212D01*
X144970903Y-116708701D01*
X144269407Y-117410197D01*
X144235112Y-117473004D01*
X143761027Y-117473004D01*
X143759783Y-117455618D01*
X143730593Y-117410197D01*
X143028328Y-116707932D01*
X142965521Y-116673637D01*
X142894143Y-116678742D01*
X142837364Y-116720953D01*
X142818646Y-116745614D01*
X142806649Y-116764739D01*
X142703727Y-116966734D01*
X142695305Y-116987684D01*
X142629781Y-117204712D01*
X142625203Y-117226822D01*
X142599146Y-117452024D01*
X142598555Y-117474595D01*
X140635000Y-117474595D01*
X140635000Y-116457648D01*
X143173694Y-116457648D01*
X143209700Y-116530096D01*
X143910197Y-117230593D01*
X143973004Y-117264888D01*
X144044382Y-117259783D01*
X144089803Y-117230593D01*
X144793238Y-116527158D01*
X144827533Y-116464351D01*
X144827054Y-116457648D01*
X192173694Y-116457648D01*
X192209700Y-116530096D01*
X192910197Y-117230593D01*
X192973004Y-117264888D01*
X193044382Y-117259783D01*
X193089803Y-117230593D01*
X193793238Y-116527158D01*
X193827533Y-116464351D01*
X193822428Y-116392973D01*
X193764618Y-116326064D01*
X193573720Y-116221117D01*
X193553045Y-116212041D01*
X193338182Y-116139732D01*
X193316227Y-116134461D01*
X193091955Y-116101343D01*
X193069413Y-116100044D01*
X192842821Y-116107165D01*
X192820405Y-116109877D01*
X192598654Y-116157012D01*
X192577073Y-116163651D01*
X192367175Y-116249309D01*
X192347112Y-116259665D01*
X192231454Y-116333063D01*
X192184283Y-116386876D01*
X192173694Y-116457648D01*
X144827054Y-116457648D01*
X144822428Y-116392973D01*
X144764618Y-116326064D01*
X144573720Y-116221117D01*
X144553045Y-116212041D01*
X144338182Y-116139732D01*
X144316227Y-116134461D01*
X144091955Y-116101343D01*
X144069413Y-116100044D01*
X143842821Y-116107165D01*
X143820405Y-116109877D01*
X143598654Y-116157012D01*
X143577073Y-116163651D01*
X143367175Y-116249309D01*
X143347112Y-116259665D01*
X143231454Y-116333063D01*
X143184283Y-116386876D01*
X143173694Y-116457648D01*
X140635000Y-116457648D01*
X140635000Y-114860565D01*
X155090000Y-114860565D01*
X155090000Y-115089435D01*
X155091929Y-115111488D01*
X155131672Y-115336881D01*
X155137402Y-115358265D01*
X155215681Y-115573333D01*
X155225037Y-115593396D01*
X155339472Y-115791604D01*
X155352170Y-115809738D01*
X155499285Y-115985062D01*
X155514938Y-116000715D01*
X155690262Y-116147830D01*
X155708396Y-116160528D01*
X155906604Y-116274963D01*
X155926667Y-116284319D01*
X156141735Y-116362598D01*
X156163119Y-116368328D01*
X156388512Y-116408071D01*
X156410565Y-116410000D01*
X156639435Y-116410000D01*
X156661488Y-116408071D01*
X156886881Y-116368328D01*
X156908265Y-116362598D01*
X157123333Y-116284319D01*
X157143396Y-116274963D01*
X157341604Y-116160528D01*
X157359738Y-116147830D01*
X157535062Y-116000715D01*
X157550715Y-115985062D01*
X157697830Y-115809738D01*
X157710528Y-115791604D01*
X157824963Y-115593396D01*
X157834319Y-115573333D01*
X157912598Y-115358265D01*
X157918328Y-115336881D01*
X157958071Y-115111488D01*
X157960000Y-115089435D01*
X157960000Y-114860565D01*
X157958071Y-114838512D01*
X157918328Y-114613119D01*
X157912598Y-114591735D01*
X157834319Y-114376667D01*
X157824963Y-114356604D01*
X157710528Y-114158396D01*
X157697830Y-114140262D01*
X157550715Y-113964938D01*
X157535062Y-113949285D01*
X157359738Y-113802170D01*
X157341604Y-113789472D01*
X157229935Y-113725000D01*
X157318292Y-113673987D01*
X157367674Y-113622197D01*
X157381217Y-113551930D01*
X157344595Y-113474199D01*
X156614803Y-112744407D01*
X156551996Y-112710112D01*
X156480618Y-112715217D01*
X156435197Y-112744407D01*
X155705405Y-113474199D01*
X155671110Y-113537006D01*
X155676215Y-113608384D01*
X155731708Y-113673987D01*
X155820065Y-113725000D01*
X155708396Y-113789472D01*
X155690262Y-113802170D01*
X155514938Y-113949285D01*
X155499285Y-113964938D01*
X155352170Y-114140262D01*
X155339472Y-114158396D01*
X155225037Y-114356604D01*
X155215681Y-114376667D01*
X155137402Y-114591735D01*
X155131672Y-114613119D01*
X155091929Y-114838512D01*
X155090000Y-114860565D01*
X140635000Y-114860565D01*
X140635000Y-112569452D01*
X140635793Y-112565860D01*
X140638480Y-112547210D01*
X140638911Y-112540955D01*
X140638960Y-112540200D01*
X140650261Y-112360565D01*
X155090000Y-112360565D01*
X155090000Y-112589435D01*
X155091929Y-112611488D01*
X155131672Y-112836881D01*
X155137402Y-112858265D01*
X155215681Y-113073333D01*
X155225037Y-113093396D01*
X155326013Y-113268292D01*
X155377803Y-113317674D01*
X155448070Y-113331217D01*
X155525801Y-113294595D01*
X156255593Y-112564803D01*
X156289888Y-112501996D01*
X156286027Y-112448004D01*
X156760112Y-112448004D01*
X156765217Y-112519382D01*
X156794407Y-112564803D01*
X157524199Y-113294595D01*
X157587006Y-113328890D01*
X157658384Y-113323785D01*
X157723987Y-113268292D01*
X157824963Y-113093396D01*
X157834319Y-113073333D01*
X157912598Y-112858265D01*
X157918328Y-112836881D01*
X157931784Y-112760565D01*
X182065000Y-112760565D01*
X182065000Y-112989435D01*
X182066929Y-113011488D01*
X182106672Y-113236881D01*
X182112402Y-113258265D01*
X182190681Y-113473333D01*
X182200037Y-113493396D01*
X182314472Y-113691604D01*
X182327170Y-113709738D01*
X182474285Y-113885062D01*
X182489938Y-113900715D01*
X182665262Y-114047830D01*
X182683396Y-114060528D01*
X182881604Y-114174963D01*
X182901667Y-114184319D01*
X183116735Y-114262598D01*
X183138119Y-114268328D01*
X183363512Y-114308071D01*
X183385565Y-114310000D01*
X183614435Y-114310000D01*
X183636488Y-114308071D01*
X183861881Y-114268328D01*
X183883265Y-114262598D01*
X184098333Y-114184319D01*
X184118396Y-114174963D01*
X184316604Y-114060528D01*
X184334738Y-114047830D01*
X184466812Y-113937006D01*
X184646110Y-113937006D01*
X184651215Y-114008384D01*
X184706708Y-114073987D01*
X184881604Y-114174963D01*
X184901667Y-114184319D01*
X185116735Y-114262598D01*
X185138119Y-114268328D01*
X185363512Y-114308071D01*
X185385565Y-114310000D01*
X185614435Y-114310000D01*
X185636488Y-114308071D01*
X185861881Y-114268328D01*
X185883265Y-114262598D01*
X186098333Y-114184319D01*
X186118396Y-114174963D01*
X186293292Y-114073987D01*
X186342674Y-114022197D01*
X186356217Y-113951930D01*
X186319595Y-113874199D01*
X185589803Y-113144407D01*
X185526996Y-113110112D01*
X185455618Y-113115217D01*
X185410197Y-113144407D01*
X184680405Y-113874199D01*
X184646110Y-113937006D01*
X184466812Y-113937006D01*
X184510062Y-113900715D01*
X184525715Y-113885062D01*
X184672830Y-113709738D01*
X184685528Y-113691604D01*
X184799963Y-113493396D01*
X184809319Y-113473333D01*
X184859252Y-113336144D01*
X185230593Y-112964803D01*
X185264888Y-112901996D01*
X185261027Y-112848004D01*
X185735112Y-112848004D01*
X185740217Y-112919382D01*
X185769407Y-112964803D01*
X186499199Y-113694595D01*
X186562006Y-113728890D01*
X186633384Y-113723785D01*
X186698987Y-113668292D01*
X186799963Y-113493396D01*
X186809319Y-113473333D01*
X186887598Y-113258265D01*
X186893328Y-113236881D01*
X186933071Y-113011488D01*
X186935000Y-112989435D01*
X186935000Y-112760565D01*
X186933071Y-112738512D01*
X186893328Y-112513119D01*
X186887598Y-112491735D01*
X186809319Y-112276667D01*
X186799963Y-112256604D01*
X186698987Y-112081708D01*
X186647197Y-112032326D01*
X186576930Y-112018783D01*
X186499199Y-112055405D01*
X185769407Y-112785197D01*
X185735112Y-112848004D01*
X185261027Y-112848004D01*
X185259783Y-112830618D01*
X185230593Y-112785197D01*
X184859252Y-112413856D01*
X184809319Y-112276667D01*
X184799963Y-112256604D01*
X184685528Y-112058396D01*
X184672830Y-112040262D01*
X184525715Y-111864938D01*
X184510062Y-111849285D01*
X184449027Y-111798070D01*
X184643783Y-111798070D01*
X184680405Y-111875801D01*
X185410197Y-112605593D01*
X185473004Y-112639888D01*
X185544382Y-112634783D01*
X185589803Y-112605593D01*
X186319595Y-111875801D01*
X186353890Y-111812994D01*
X186348785Y-111741616D01*
X186293292Y-111676013D01*
X186118396Y-111575037D01*
X186098333Y-111565681D01*
X185883265Y-111487402D01*
X185861881Y-111481672D01*
X185636488Y-111441929D01*
X185614435Y-111440000D01*
X185385565Y-111440000D01*
X185363512Y-111441929D01*
X185138119Y-111481672D01*
X185116735Y-111487402D01*
X184901667Y-111565681D01*
X184881604Y-111575037D01*
X184706708Y-111676013D01*
X184657326Y-111727803D01*
X184643783Y-111798070D01*
X184449027Y-111798070D01*
X184334738Y-111702170D01*
X184316604Y-111689472D01*
X184118396Y-111575037D01*
X184098333Y-111565681D01*
X183883265Y-111487402D01*
X183861881Y-111481672D01*
X183636488Y-111441929D01*
X183614435Y-111440000D01*
X183385565Y-111440000D01*
X183363512Y-111441929D01*
X183138119Y-111481672D01*
X183116735Y-111487402D01*
X182901667Y-111565681D01*
X182881604Y-111575037D01*
X182683396Y-111689472D01*
X182665262Y-111702170D01*
X182489938Y-111849285D01*
X182474285Y-111864938D01*
X182327170Y-112040262D01*
X182314472Y-112058396D01*
X182200037Y-112256604D01*
X182190681Y-112276667D01*
X182112402Y-112491735D01*
X182106672Y-112513119D01*
X182066929Y-112738512D01*
X182065000Y-112760565D01*
X157931784Y-112760565D01*
X157958071Y-112611488D01*
X157960000Y-112589435D01*
X157960000Y-112360565D01*
X157958071Y-112338512D01*
X157918328Y-112113119D01*
X157912598Y-112091735D01*
X157834319Y-111876667D01*
X157824963Y-111856604D01*
X157723987Y-111681708D01*
X157672197Y-111632326D01*
X157601930Y-111618783D01*
X157524199Y-111655405D01*
X156794407Y-112385197D01*
X156760112Y-112448004D01*
X156286027Y-112448004D01*
X156284783Y-112430618D01*
X156255593Y-112385197D01*
X155525801Y-111655405D01*
X155462994Y-111621110D01*
X155391616Y-111626215D01*
X155326013Y-111681708D01*
X155225037Y-111856604D01*
X155215681Y-111876667D01*
X155137402Y-112091735D01*
X155131672Y-112113119D01*
X155091929Y-112338512D01*
X155090000Y-112360565D01*
X140650261Y-112360565D01*
X140656144Y-112267065D01*
X140699876Y-112037815D01*
X140772002Y-111815834D01*
X140871378Y-111604651D01*
X140996433Y-111407597D01*
X141004314Y-111398070D01*
X155668783Y-111398070D01*
X155705405Y-111475801D01*
X156435197Y-112205593D01*
X156498004Y-112239888D01*
X156569382Y-112234783D01*
X156614803Y-112205593D01*
X157344595Y-111475801D01*
X157378890Y-111412994D01*
X157373785Y-111341616D01*
X157318292Y-111276013D01*
X157143396Y-111175037D01*
X157123333Y-111165681D01*
X156908265Y-111087402D01*
X156886881Y-111081672D01*
X156661488Y-111041929D01*
X156639435Y-111040000D01*
X156410565Y-111040000D01*
X156388512Y-111041929D01*
X156163119Y-111081672D01*
X156141735Y-111087402D01*
X155926667Y-111165681D01*
X155906604Y-111175037D01*
X155731708Y-111276013D01*
X155682326Y-111327803D01*
X155668783Y-111398070D01*
X141004314Y-111398070D01*
X141145207Y-111227759D01*
X141315339Y-111067994D01*
X141504159Y-110930809D01*
X141708690Y-110818367D01*
X141925691Y-110732452D01*
X142151748Y-110674410D01*
X142393317Y-110643893D01*
X142520109Y-110639908D01*
X142538064Y-110638061D01*
X142555513Y-110635000D01*
X194430548Y-110635000D01*
X194434140Y-110635793D01*
X194434140Y-110635793D01*
G37*
X194434140Y-110635793D02*
X194452790Y-110638480D01*
X194459045Y-110638911D01*
X194459800Y-110638960D01*
X194732935Y-110656144D01*
X194962185Y-110699876D01*
X195184166Y-110772002D01*
X195395349Y-110871378D01*
X195592403Y-110996433D01*
X195772241Y-111145207D01*
X195932006Y-111315339D01*
X196069191Y-111504159D01*
X196181633Y-111708690D01*
X196267548Y-111925691D01*
X196325590Y-112151748D01*
X196356107Y-112393317D01*
X196360092Y-112520109D01*
X196361939Y-112538064D01*
X196365000Y-112555513D01*
X196365001Y-127430540D01*
X196364206Y-127434141D01*
X196361520Y-127452790D01*
X196361089Y-127459045D01*
X196361040Y-127459800D01*
X196343856Y-127732935D01*
X196300124Y-127962186D01*
X196227999Y-128184164D01*
X196128625Y-128395344D01*
X196003567Y-128592403D01*
X195854797Y-128772236D01*
X195684660Y-128932006D01*
X195495841Y-129069191D01*
X195291312Y-129181632D01*
X195074309Y-129267549D01*
X194848252Y-129325590D01*
X194606683Y-129356107D01*
X194479891Y-129360092D01*
X194461936Y-129361939D01*
X194444487Y-129365000D01*
X142569452Y-129365000D01*
X142565860Y-129364207D01*
X142547210Y-129361520D01*
X142540955Y-129361089D01*
X142540200Y-129361040D01*
X142267065Y-129343856D01*
X142037814Y-129300124D01*
X141815836Y-129227999D01*
X141604656Y-129128625D01*
X141407597Y-129003567D01*
X141227764Y-128854797D01*
X141067994Y-128684660D01*
X140930809Y-128495841D01*
X140818368Y-128291312D01*
X140732451Y-128074309D01*
X140674410Y-127848252D01*
X140643893Y-127606683D01*
X140639908Y-127479891D01*
X140638061Y-127461936D01*
X140635000Y-127444487D01*
X140635000Y-122474595D01*
X142598555Y-122474595D01*
X142612790Y-122700852D01*
X142616205Y-122723171D01*
X142670281Y-122943331D01*
X142677595Y-122964694D01*
X142769804Y-123171798D01*
X142780785Y-123191527D01*
X142908212Y-123379030D01*
X142922513Y-123396502D01*
X143081129Y-123558476D01*
X143098298Y-123573140D01*
X143283091Y-123704465D01*
X143302586Y-123715857D01*
X143507714Y-123812383D01*
X143528918Y-123820143D01*
X143747898Y-123878818D01*
X143770140Y-123882700D01*
X143996049Y-123901671D01*
X144018629Y-123901552D01*
X144244327Y-123880217D01*
X144266528Y-123876103D01*
X144484880Y-123815138D01*
X144506001Y-123807156D01*
X144710107Y-123708487D01*
X144729481Y-123696892D01*
X144912889Y-123563639D01*
X144929904Y-123548796D01*
X145086816Y-123385170D01*
X145100934Y-123367549D01*
X145226390Y-123178722D01*
X145237164Y-123158879D01*
X145327199Y-122950820D01*
X145334289Y-122929383D01*
X145386057Y-122708669D01*
X145389368Y-122682992D01*
X145397041Y-122389972D01*
X145395078Y-122364158D01*
X145354932Y-122141037D01*
X145348974Y-122119258D01*
X145269951Y-121906772D01*
X145260230Y-121886393D01*
X145144829Y-121691259D01*
X145131653Y-121672922D01*
X144983519Y-121501308D01*
X144967305Y-121485595D01*
X144791123Y-121342926D01*
X144772382Y-121330333D01*
X144573720Y-121221117D01*
X144553045Y-121212041D01*
X144338182Y-121139732D01*
X144316227Y-121134461D01*
X144091955Y-121101343D01*
X144069413Y-121100044D01*
X143842821Y-121107165D01*
X143820405Y-121109877D01*
X143598654Y-121157012D01*
X143577073Y-121163651D01*
X143367175Y-121249309D01*
X143347111Y-121259665D01*
X143155698Y-121381139D01*
X143137785Y-121394885D01*
X142970909Y-121548336D01*
X142955713Y-121565036D01*
X142818648Y-121745612D01*
X142806649Y-121764739D01*
X142703727Y-121966734D01*
X142695305Y-121987684D01*
X142629781Y-122204712D01*
X142625203Y-122226822D01*
X142599146Y-122452024D01*
X142598555Y-122474595D01*
X140635000Y-122474595D01*
X140635000Y-120935565D01*
X151565000Y-120935565D01*
X151565000Y-121164435D01*
X151566929Y-121186488D01*
X151606672Y-121411881D01*
X151612402Y-121433265D01*
X151690681Y-121648333D01*
X151700037Y-121668396D01*
X151814472Y-121866604D01*
X151827170Y-121884738D01*
X151974285Y-122060062D01*
X151989938Y-122075715D01*
X152165262Y-122222830D01*
X152183396Y-122235528D01*
X152381604Y-122349963D01*
X152401667Y-122359319D01*
X152616735Y-122437598D01*
X152638119Y-122443328D01*
X152863512Y-122483071D01*
X152885565Y-122485000D01*
X153114435Y-122485000D01*
X153136488Y-122483071D01*
X153361881Y-122443328D01*
X153383265Y-122437598D01*
X153598333Y-122359319D01*
X153618396Y-122349963D01*
X153816604Y-122235528D01*
X153834738Y-122222830D01*
X154010062Y-122075715D01*
X154025715Y-122060062D01*
X154172830Y-121884738D01*
X154185528Y-121866604D01*
X154299963Y-121668396D01*
X154309319Y-121648333D01*
X154387598Y-121433265D01*
X154393328Y-121411881D01*
X154433071Y-121186488D01*
X154435000Y-121164435D01*
X154435000Y-120960565D01*
X158665000Y-120960565D01*
X158665000Y-121189435D01*
X158666929Y-121211488D01*
X158706672Y-121436881D01*
X158712402Y-121458265D01*
X158790681Y-121673333D01*
X158800037Y-121693396D01*
X158914472Y-121891604D01*
X158927170Y-121909738D01*
X159074285Y-122085062D01*
X159089938Y-122100715D01*
X159265262Y-122247830D01*
X159283396Y-122260528D01*
X159481604Y-122374963D01*
X159501667Y-122384319D01*
X159716735Y-122462598D01*
X159738119Y-122468328D01*
X159963512Y-122508071D01*
X159985565Y-122510000D01*
X160214435Y-122510000D01*
X160236488Y-122508071D01*
X160426339Y-122474595D01*
X191598555Y-122474595D01*
X191612790Y-122700852D01*
X191616205Y-122723171D01*
X191670281Y-122943331D01*
X191677595Y-122964694D01*
X191769804Y-123171798D01*
X191780785Y-123191527D01*
X191908212Y-123379030D01*
X191922513Y-123396502D01*
X192081129Y-123558476D01*
X192098298Y-123573140D01*
X192283091Y-123704465D01*
X192302586Y-123715857D01*
X192507714Y-123812383D01*
X192528918Y-123820143D01*
X192747898Y-123878818D01*
X192770140Y-123882700D01*
X192996049Y-123901671D01*
X193018629Y-123901552D01*
X193244327Y-123880217D01*
X193266528Y-123876103D01*
X193484880Y-123815138D01*
X193506001Y-123807156D01*
X193710107Y-123708487D01*
X193729481Y-123696892D01*
X193912889Y-123563639D01*
X193929904Y-123548796D01*
X194086816Y-123385170D01*
X194100934Y-123367549D01*
X194226390Y-123178722D01*
X194237164Y-123158879D01*
X194327199Y-122950820D01*
X194334289Y-122929383D01*
X194386057Y-122708669D01*
X194389368Y-122682992D01*
X194397041Y-122389972D01*
X194395078Y-122364158D01*
X194354932Y-122141037D01*
X194348974Y-122119258D01*
X194269951Y-121906772D01*
X194260230Y-121886393D01*
X194144829Y-121691259D01*
X194131653Y-121672922D01*
X193983519Y-121501308D01*
X193967305Y-121485595D01*
X193791123Y-121342926D01*
X193772382Y-121330333D01*
X193573720Y-121221117D01*
X193553045Y-121212041D01*
X193338182Y-121139732D01*
X193316227Y-121134461D01*
X193091955Y-121101343D01*
X193069413Y-121100044D01*
X192842821Y-121107165D01*
X192820405Y-121109877D01*
X192598654Y-121157012D01*
X192577073Y-121163651D01*
X192367175Y-121249309D01*
X192347111Y-121259665D01*
X192155698Y-121381139D01*
X192137785Y-121394885D01*
X191970909Y-121548336D01*
X191955713Y-121565036D01*
X191818648Y-121745612D01*
X191806649Y-121764739D01*
X191703727Y-121966734D01*
X191695305Y-121987684D01*
X191629781Y-122204712D01*
X191625203Y-122226822D01*
X191599146Y-122452024D01*
X191598555Y-122474595D01*
X160426339Y-122474595D01*
X160461881Y-122468328D01*
X160483265Y-122462598D01*
X160698333Y-122384319D01*
X160718396Y-122374963D01*
X160916604Y-122260528D01*
X160934738Y-122247830D01*
X161110062Y-122100715D01*
X161125715Y-122085062D01*
X161272830Y-121909738D01*
X161285528Y-121891604D01*
X161399963Y-121693396D01*
X161409319Y-121673333D01*
X161487598Y-121458265D01*
X161493328Y-121436881D01*
X161533071Y-121211488D01*
X161535000Y-121189435D01*
X161535000Y-120960565D01*
X161533071Y-120938512D01*
X161493328Y-120713119D01*
X161487598Y-120691735D01*
X161409319Y-120476667D01*
X161399963Y-120456604D01*
X161285528Y-120258396D01*
X161272830Y-120240262D01*
X161125715Y-120064938D01*
X161110062Y-120049285D01*
X160934738Y-119902170D01*
X160916604Y-119889472D01*
X160804935Y-119825000D01*
X160882080Y-119780460D01*
X163265000Y-119780460D01*
X163265000Y-120019540D01*
X163269327Y-120052410D01*
X163331206Y-120283345D01*
X163343894Y-120313975D01*
X163463434Y-120521025D01*
X163483616Y-120547328D01*
X163652672Y-120716384D01*
X163678975Y-120736566D01*
X163886025Y-120856106D01*
X163916655Y-120868794D01*
X164147590Y-120930673D01*
X164180460Y-120935000D01*
X164419540Y-120935000D01*
X164452410Y-120930673D01*
X164683345Y-120868794D01*
X164713975Y-120856106D01*
X164921025Y-120736566D01*
X164923066Y-120735000D01*
X171476934Y-120735000D01*
X171478975Y-120736566D01*
X171686025Y-120856106D01*
X171716655Y-120868794D01*
X171947590Y-120930673D01*
X171980460Y-120935000D01*
X172219540Y-120935000D01*
X172252410Y-120930673D01*
X172483345Y-120868794D01*
X172513975Y-120856106D01*
X172721025Y-120736566D01*
X172747328Y-120716384D01*
X172916384Y-120547328D01*
X172936566Y-120521025D01*
X173056106Y-120313975D01*
X173068794Y-120283345D01*
X173130673Y-120052410D01*
X173135000Y-120019540D01*
X173135000Y-119780460D01*
X173130673Y-119747590D01*
X173068794Y-119516655D01*
X173056106Y-119486025D01*
X172936566Y-119278975D01*
X172916384Y-119252672D01*
X172747328Y-119083616D01*
X172721025Y-119063434D01*
X172513975Y-118943894D01*
X172483345Y-118931206D01*
X172252410Y-118869327D01*
X172219540Y-118865000D01*
X171980460Y-118865000D01*
X171947590Y-118869327D01*
X171716655Y-118931206D01*
X171686025Y-118943894D01*
X171478975Y-119063434D01*
X171476934Y-119065000D01*
X164923066Y-119065000D01*
X164921025Y-119063434D01*
X164713975Y-118943894D01*
X164683345Y-118931206D01*
X164452410Y-118869327D01*
X164419540Y-118865000D01*
X164180460Y-118865000D01*
X164147590Y-118869327D01*
X163916655Y-118931206D01*
X163886025Y-118943894D01*
X163678975Y-119063434D01*
X163652672Y-119083616D01*
X163483616Y-119252672D01*
X163463434Y-119278975D01*
X163343894Y-119486025D01*
X163331206Y-119516655D01*
X163269327Y-119747590D01*
X163265000Y-119780460D01*
X160882080Y-119780460D01*
X160893292Y-119773987D01*
X160942674Y-119722197D01*
X160956217Y-119651930D01*
X160919595Y-119574199D01*
X160189803Y-118844407D01*
X160126996Y-118810112D01*
X160055618Y-118815217D01*
X160010197Y-118844407D01*
X159280405Y-119574199D01*
X159246110Y-119637006D01*
X159251215Y-119708384D01*
X159306708Y-119773987D01*
X159395065Y-119825000D01*
X159283396Y-119889472D01*
X159265262Y-119902170D01*
X159089938Y-120049285D01*
X159074285Y-120064938D01*
X158927170Y-120240262D01*
X158914472Y-120258396D01*
X158800037Y-120456604D01*
X158790681Y-120476667D01*
X158712402Y-120691735D01*
X158706672Y-120713119D01*
X158666929Y-120938512D01*
X158665000Y-120960565D01*
X154435000Y-120960565D01*
X154435000Y-120935565D01*
X154433071Y-120913512D01*
X154393328Y-120688119D01*
X154387598Y-120666735D01*
X154309319Y-120451667D01*
X154299963Y-120431604D01*
X154185528Y-120233396D01*
X154172830Y-120215262D01*
X154025715Y-120039938D01*
X154010062Y-120024285D01*
X153834738Y-119877170D01*
X153816604Y-119864472D01*
X153704935Y-119800000D01*
X153793292Y-119748987D01*
X153842674Y-119697197D01*
X153856217Y-119626930D01*
X153819595Y-119549199D01*
X153089803Y-118819407D01*
X153026996Y-118785112D01*
X152955618Y-118790217D01*
X152910197Y-118819407D01*
X152180405Y-119549199D01*
X152146110Y-119612006D01*
X152151215Y-119683384D01*
X152206708Y-119748987D01*
X152295065Y-119800000D01*
X152183396Y-119864472D01*
X152165262Y-119877170D01*
X151989938Y-120024285D01*
X151974285Y-120039938D01*
X151827170Y-120215262D01*
X151814472Y-120233396D01*
X151700037Y-120431604D01*
X151690681Y-120451667D01*
X151612402Y-120666735D01*
X151606672Y-120688119D01*
X151566929Y-120913512D01*
X151565000Y-120935565D01*
X140635000Y-120935565D01*
X140635000Y-118533072D01*
X143175044Y-118533072D01*
X143180149Y-118604450D01*
X143225573Y-118663589D01*
X143283091Y-118704465D01*
X143302586Y-118715857D01*
X143507714Y-118812383D01*
X143528918Y-118820143D01*
X143747898Y-118878818D01*
X143770140Y-118882700D01*
X143996049Y-118901671D01*
X144018629Y-118901552D01*
X144244327Y-118880217D01*
X144266528Y-118876103D01*
X144484880Y-118815138D01*
X144506001Y-118807156D01*
X144710107Y-118708487D01*
X144729481Y-118696893D01*
X144775877Y-118663185D01*
X144819575Y-118606517D01*
X144825700Y-118535219D01*
X144791032Y-118470636D01*
X144755961Y-118435565D01*
X151565000Y-118435565D01*
X151565000Y-118664435D01*
X151566929Y-118686488D01*
X151606672Y-118911881D01*
X151612402Y-118933265D01*
X151690681Y-119148333D01*
X151700037Y-119168396D01*
X151801013Y-119343292D01*
X151852803Y-119392674D01*
X151923070Y-119406217D01*
X152000801Y-119369595D01*
X152730593Y-118639803D01*
X152764888Y-118576996D01*
X152761027Y-118523004D01*
X153235112Y-118523004D01*
X153240217Y-118594382D01*
X153269407Y-118639803D01*
X153999199Y-119369595D01*
X154062006Y-119403890D01*
X154133384Y-119398785D01*
X154198987Y-119343292D01*
X154299963Y-119168396D01*
X154309319Y-119148333D01*
X154387598Y-118933265D01*
X154393328Y-118911881D01*
X154433071Y-118686488D01*
X154435000Y-118664435D01*
X154435000Y-118460565D01*
X158665000Y-118460565D01*
X158665000Y-118689435D01*
X158666929Y-118711488D01*
X158706672Y-118936881D01*
X158712402Y-118958265D01*
X158790681Y-119173333D01*
X158800037Y-119193396D01*
X158901013Y-119368292D01*
X158952803Y-119417674D01*
X159023070Y-119431217D01*
X159100801Y-119394595D01*
X159830593Y-118664803D01*
X159864888Y-118601996D01*
X159861027Y-118548004D01*
X160335112Y-118548004D01*
X160340217Y-118619382D01*
X160369407Y-118664803D01*
X161099199Y-119394595D01*
X161162006Y-119428890D01*
X161233384Y-119423785D01*
X161298987Y-119368292D01*
X161399963Y-119193396D01*
X161409319Y-119173333D01*
X161487598Y-118958265D01*
X161493328Y-118936881D01*
X161533071Y-118711488D01*
X161535000Y-118689435D01*
X161535000Y-118510565D01*
X182015000Y-118510565D01*
X182015000Y-118739435D01*
X182016929Y-118761488D01*
X182056672Y-118986881D01*
X182062402Y-119008265D01*
X182140681Y-119223333D01*
X182150037Y-119243396D01*
X182264472Y-119441604D01*
X182277170Y-119459738D01*
X182424285Y-119635062D01*
X182439938Y-119650715D01*
X182615262Y-119797830D01*
X182633396Y-119810528D01*
X182831604Y-119924963D01*
X182851667Y-119934319D01*
X183066735Y-120012598D01*
X183088119Y-120018328D01*
X183313512Y-120058071D01*
X183335565Y-120060000D01*
X183564435Y-120060000D01*
X183586488Y-120058071D01*
X183811881Y-120018328D01*
X183833265Y-120012598D01*
X184048333Y-119934319D01*
X184068396Y-119924963D01*
X184266604Y-119810528D01*
X184284738Y-119797830D01*
X184416812Y-119687006D01*
X184596110Y-119687006D01*
X184601215Y-119758384D01*
X184656708Y-119823987D01*
X184831604Y-119924963D01*
X184851667Y-119934319D01*
X185066735Y-120012598D01*
X185088119Y-120018328D01*
X185313512Y-120058071D01*
X185335565Y-120060000D01*
X185564435Y-120060000D01*
X185586488Y-120058071D01*
X185811881Y-120018328D01*
X185833265Y-120012598D01*
X186048333Y-119934319D01*
X186068396Y-119924963D01*
X186243292Y-119823987D01*
X186292674Y-119772197D01*
X186306217Y-119701930D01*
X186269595Y-119624199D01*
X185539803Y-118894407D01*
X185476996Y-118860112D01*
X185405618Y-118865217D01*
X185360197Y-118894407D01*
X184630405Y-119624199D01*
X184596110Y-119687006D01*
X184416812Y-119687006D01*
X184460062Y-119650715D01*
X184475715Y-119635062D01*
X184622830Y-119459738D01*
X184635528Y-119441604D01*
X184749963Y-119243396D01*
X184759319Y-119223333D01*
X184809252Y-119086144D01*
X185180593Y-118714803D01*
X185214888Y-118651996D01*
X185211027Y-118598004D01*
X185685112Y-118598004D01*
X185690217Y-118669382D01*
X185719407Y-118714803D01*
X186449199Y-119444595D01*
X186512006Y-119478890D01*
X186583384Y-119473785D01*
X186648987Y-119418292D01*
X186749963Y-119243396D01*
X186759319Y-119223333D01*
X186837598Y-119008265D01*
X186843328Y-118986881D01*
X186883071Y-118761488D01*
X186885000Y-118739435D01*
X186885000Y-118533072D01*
X192175044Y-118533072D01*
X192180149Y-118604450D01*
X192225573Y-118663589D01*
X192283091Y-118704465D01*
X192302586Y-118715857D01*
X192507714Y-118812383D01*
X192528918Y-118820143D01*
X192747898Y-118878818D01*
X192770140Y-118882700D01*
X192996049Y-118901671D01*
X193018629Y-118901552D01*
X193244327Y-118880217D01*
X193266528Y-118876103D01*
X193484880Y-118815138D01*
X193506001Y-118807156D01*
X193710107Y-118708487D01*
X193729481Y-118696893D01*
X193775877Y-118663185D01*
X193819575Y-118606517D01*
X193825700Y-118535219D01*
X193791032Y-118470636D01*
X193089803Y-117769407D01*
X193026996Y-117735112D01*
X192955618Y-117740217D01*
X192910197Y-117769407D01*
X192209339Y-118470265D01*
X192175044Y-118533072D01*
X186885000Y-118533072D01*
X186885000Y-118510565D01*
X186883071Y-118488512D01*
X186843328Y-118263119D01*
X186837598Y-118241735D01*
X186759319Y-118026667D01*
X186749963Y-118006604D01*
X186648987Y-117831708D01*
X186597197Y-117782326D01*
X186526930Y-117768783D01*
X186449199Y-117805405D01*
X185719407Y-118535197D01*
X185685112Y-118598004D01*
X185211027Y-118598004D01*
X185209783Y-118580618D01*
X185180593Y-118535197D01*
X184809252Y-118163856D01*
X184759319Y-118026667D01*
X184749963Y-118006604D01*
X184635528Y-117808396D01*
X184622830Y-117790262D01*
X184475715Y-117614938D01*
X184460062Y-117599285D01*
X184399027Y-117548070D01*
X184593783Y-117548070D01*
X184630405Y-117625801D01*
X185360197Y-118355593D01*
X185423004Y-118389888D01*
X185494382Y-118384783D01*
X185539803Y-118355593D01*
X186269595Y-117625801D01*
X186303890Y-117562994D01*
X186298785Y-117491616D01*
X186284388Y-117474595D01*
X191598555Y-117474595D01*
X191612790Y-117700852D01*
X191616205Y-117723171D01*
X191670281Y-117943331D01*
X191677595Y-117964694D01*
X191769804Y-118171798D01*
X191780784Y-118191526D01*
X191835336Y-118271798D01*
X191890604Y-118317255D01*
X191961674Y-118325615D01*
X192030179Y-118290217D01*
X192730593Y-117589803D01*
X192764888Y-117526996D01*
X192761027Y-117473004D01*
X193235112Y-117473004D01*
X193240217Y-117544382D01*
X193269407Y-117589803D01*
X193969748Y-118290144D01*
X194032555Y-118324439D01*
X194103933Y-118319334D01*
X194165332Y-118270622D01*
X194226390Y-118178722D01*
X194237164Y-118158879D01*
X194327199Y-117950820D01*
X194334289Y-117929383D01*
X194386057Y-117708669D01*
X194389368Y-117682992D01*
X194397041Y-117389972D01*
X194395078Y-117364158D01*
X194354932Y-117141037D01*
X194348974Y-117119258D01*
X194269951Y-116906772D01*
X194260230Y-116886393D01*
X194170020Y-116733856D01*
X194117716Y-116685019D01*
X194047311Y-116672212D01*
X193970903Y-116708701D01*
X193269407Y-117410197D01*
X193235112Y-117473004D01*
X192761027Y-117473004D01*
X192759783Y-117455618D01*
X192730593Y-117410197D01*
X192028328Y-116707932D01*
X191965521Y-116673637D01*
X191894143Y-116678742D01*
X191837364Y-116720953D01*
X191818646Y-116745614D01*
X191806649Y-116764739D01*
X191703727Y-116966734D01*
X191695305Y-116987684D01*
X191629781Y-117204712D01*
X191625203Y-117226822D01*
X191599146Y-117452024D01*
X191598555Y-117474595D01*
X186284388Y-117474595D01*
X186243292Y-117426013D01*
X186068396Y-117325037D01*
X186048333Y-117315681D01*
X185833265Y-117237402D01*
X185811881Y-117231672D01*
X185586488Y-117191929D01*
X185564435Y-117190000D01*
X185335565Y-117190000D01*
X185313512Y-117191929D01*
X185088119Y-117231672D01*
X185066735Y-117237402D01*
X184851667Y-117315681D01*
X184831604Y-117325037D01*
X184656708Y-117426013D01*
X184607326Y-117477803D01*
X184593783Y-117548070D01*
X184399027Y-117548070D01*
X184284738Y-117452170D01*
X184266604Y-117439472D01*
X184068396Y-117325037D01*
X184048333Y-117315681D01*
X183833265Y-117237402D01*
X183811881Y-117231672D01*
X183586488Y-117191929D01*
X183564435Y-117190000D01*
X183335565Y-117190000D01*
X183313512Y-117191929D01*
X183088119Y-117231672D01*
X183066735Y-117237402D01*
X182851667Y-117315681D01*
X182831604Y-117325037D01*
X182633396Y-117439472D01*
X182615262Y-117452170D01*
X182439938Y-117599285D01*
X182424285Y-117614938D01*
X182277170Y-117790262D01*
X182264472Y-117808396D01*
X182150037Y-118006604D01*
X182140681Y-118026667D01*
X182062402Y-118241735D01*
X182056672Y-118263119D01*
X182016929Y-118488512D01*
X182015000Y-118510565D01*
X161535000Y-118510565D01*
X161535000Y-118460565D01*
X161533071Y-118438512D01*
X161493328Y-118213119D01*
X161487598Y-118191735D01*
X161409319Y-117976667D01*
X161399963Y-117956604D01*
X161298987Y-117781708D01*
X161247197Y-117732326D01*
X161176930Y-117718783D01*
X161099199Y-117755405D01*
X160369407Y-118485197D01*
X160335112Y-118548004D01*
X159861027Y-118548004D01*
X159859783Y-118530618D01*
X159830593Y-118485197D01*
X159100801Y-117755405D01*
X159037994Y-117721110D01*
X158966616Y-117726215D01*
X158901013Y-117781708D01*
X158800037Y-117956604D01*
X158790681Y-117976667D01*
X158712402Y-118191735D01*
X158706672Y-118213119D01*
X158666929Y-118438512D01*
X158665000Y-118460565D01*
X154435000Y-118460565D01*
X154435000Y-118435565D01*
X154433071Y-118413512D01*
X154393328Y-118188119D01*
X154387598Y-118166735D01*
X154309319Y-117951667D01*
X154299963Y-117931604D01*
X154198987Y-117756708D01*
X154147197Y-117707326D01*
X154076930Y-117693783D01*
X153999199Y-117730405D01*
X153269407Y-118460197D01*
X153235112Y-118523004D01*
X152761027Y-118523004D01*
X152759783Y-118505618D01*
X152730593Y-118460197D01*
X152000801Y-117730405D01*
X151937994Y-117696110D01*
X151866616Y-117701215D01*
X151801013Y-117756708D01*
X151700037Y-117931604D01*
X151690681Y-117951667D01*
X151612402Y-118166735D01*
X151606672Y-118188119D01*
X151566929Y-118413512D01*
X151565000Y-118435565D01*
X144755961Y-118435565D01*
X144089803Y-117769407D01*
X144026996Y-117735112D01*
X143955618Y-117740217D01*
X143910197Y-117769407D01*
X143209339Y-118470265D01*
X143175044Y-118533072D01*
X140635000Y-118533072D01*
X140635000Y-117474595D01*
X142598555Y-117474595D01*
X142612790Y-117700852D01*
X142616205Y-117723171D01*
X142670281Y-117943331D01*
X142677595Y-117964694D01*
X142769804Y-118171798D01*
X142780784Y-118191526D01*
X142835336Y-118271798D01*
X142890604Y-118317255D01*
X142961674Y-118325615D01*
X143030179Y-118290217D01*
X143730593Y-117589803D01*
X143764888Y-117526996D01*
X143761027Y-117473004D01*
X144235112Y-117473004D01*
X144240217Y-117544382D01*
X144269407Y-117589803D01*
X144969748Y-118290144D01*
X145032555Y-118324439D01*
X145103933Y-118319334D01*
X145165332Y-118270622D01*
X145226390Y-118178722D01*
X145237164Y-118158879D01*
X145327199Y-117950820D01*
X145334289Y-117929383D01*
X145386057Y-117708669D01*
X145389368Y-117682992D01*
X145394865Y-117473070D01*
X152143783Y-117473070D01*
X152180405Y-117550801D01*
X152910197Y-118280593D01*
X152973004Y-118314888D01*
X153044382Y-118309783D01*
X153089803Y-118280593D01*
X153819595Y-117550801D01*
X153848388Y-117498070D01*
X159243783Y-117498070D01*
X159280405Y-117575801D01*
X160010197Y-118305593D01*
X160073004Y-118339888D01*
X160144382Y-118334783D01*
X160189803Y-118305593D01*
X160919595Y-117575801D01*
X160953890Y-117512994D01*
X160948785Y-117441616D01*
X160893292Y-117376013D01*
X160718396Y-117275037D01*
X160698333Y-117265681D01*
X160483265Y-117187402D01*
X160461881Y-117181672D01*
X160236488Y-117141929D01*
X160214435Y-117140000D01*
X159985565Y-117140000D01*
X159963512Y-117141929D01*
X159738119Y-117181672D01*
X159716735Y-117187402D01*
X159501667Y-117265681D01*
X159481604Y-117275037D01*
X159306708Y-117376013D01*
X159257326Y-117427803D01*
X159243783Y-117498070D01*
X153848388Y-117498070D01*
X153853890Y-117487994D01*
X153848785Y-117416616D01*
X153793292Y-117351013D01*
X153618396Y-117250037D01*
X153598333Y-117240681D01*
X153383265Y-117162402D01*
X153361881Y-117156672D01*
X153136488Y-117116929D01*
X153114435Y-117115000D01*
X152885565Y-117115000D01*
X152863512Y-117116929D01*
X152638119Y-117156672D01*
X152616735Y-117162402D01*
X152401667Y-117240681D01*
X152381604Y-117250037D01*
X152206708Y-117351013D01*
X152157326Y-117402803D01*
X152143783Y-117473070D01*
X145394865Y-117473070D01*
X145397041Y-117389972D01*
X145395078Y-117364158D01*
X145354932Y-117141037D01*
X145348974Y-117119258D01*
X145269951Y-116906772D01*
X145260230Y-116886393D01*
X145170020Y-116733856D01*
X145117716Y-116685019D01*
X145047311Y-116672212D01*
X144970903Y-116708701D01*
X144269407Y-117410197D01*
X144235112Y-117473004D01*
X143761027Y-117473004D01*
X143759783Y-117455618D01*
X143730593Y-117410197D01*
X143028328Y-116707932D01*
X142965521Y-116673637D01*
X142894143Y-116678742D01*
X142837364Y-116720953D01*
X142818646Y-116745614D01*
X142806649Y-116764739D01*
X142703727Y-116966734D01*
X142695305Y-116987684D01*
X142629781Y-117204712D01*
X142625203Y-117226822D01*
X142599146Y-117452024D01*
X142598555Y-117474595D01*
X140635000Y-117474595D01*
X140635000Y-116457648D01*
X143173694Y-116457648D01*
X143209700Y-116530096D01*
X143910197Y-117230593D01*
X143973004Y-117264888D01*
X144044382Y-117259783D01*
X144089803Y-117230593D01*
X144793238Y-116527158D01*
X144827533Y-116464351D01*
X144827054Y-116457648D01*
X192173694Y-116457648D01*
X192209700Y-116530096D01*
X192910197Y-117230593D01*
X192973004Y-117264888D01*
X193044382Y-117259783D01*
X193089803Y-117230593D01*
X193793238Y-116527158D01*
X193827533Y-116464351D01*
X193822428Y-116392973D01*
X193764618Y-116326064D01*
X193573720Y-116221117D01*
X193553045Y-116212041D01*
X193338182Y-116139732D01*
X193316227Y-116134461D01*
X193091955Y-116101343D01*
X193069413Y-116100044D01*
X192842821Y-116107165D01*
X192820405Y-116109877D01*
X192598654Y-116157012D01*
X192577073Y-116163651D01*
X192367175Y-116249309D01*
X192347112Y-116259665D01*
X192231454Y-116333063D01*
X192184283Y-116386876D01*
X192173694Y-116457648D01*
X144827054Y-116457648D01*
X144822428Y-116392973D01*
X144764618Y-116326064D01*
X144573720Y-116221117D01*
X144553045Y-116212041D01*
X144338182Y-116139732D01*
X144316227Y-116134461D01*
X144091955Y-116101343D01*
X144069413Y-116100044D01*
X143842821Y-116107165D01*
X143820405Y-116109877D01*
X143598654Y-116157012D01*
X143577073Y-116163651D01*
X143367175Y-116249309D01*
X143347112Y-116259665D01*
X143231454Y-116333063D01*
X143184283Y-116386876D01*
X143173694Y-116457648D01*
X140635000Y-116457648D01*
X140635000Y-114860565D01*
X155090000Y-114860565D01*
X155090000Y-115089435D01*
X155091929Y-115111488D01*
X155131672Y-115336881D01*
X155137402Y-115358265D01*
X155215681Y-115573333D01*
X155225037Y-115593396D01*
X155339472Y-115791604D01*
X155352170Y-115809738D01*
X155499285Y-115985062D01*
X155514938Y-116000715D01*
X155690262Y-116147830D01*
X155708396Y-116160528D01*
X155906604Y-116274963D01*
X155926667Y-116284319D01*
X156141735Y-116362598D01*
X156163119Y-116368328D01*
X156388512Y-116408071D01*
X156410565Y-116410000D01*
X156639435Y-116410000D01*
X156661488Y-116408071D01*
X156886881Y-116368328D01*
X156908265Y-116362598D01*
X157123333Y-116284319D01*
X157143396Y-116274963D01*
X157341604Y-116160528D01*
X157359738Y-116147830D01*
X157535062Y-116000715D01*
X157550715Y-115985062D01*
X157697830Y-115809738D01*
X157710528Y-115791604D01*
X157824963Y-115593396D01*
X157834319Y-115573333D01*
X157912598Y-115358265D01*
X157918328Y-115336881D01*
X157958071Y-115111488D01*
X157960000Y-115089435D01*
X157960000Y-114860565D01*
X157958071Y-114838512D01*
X157918328Y-114613119D01*
X157912598Y-114591735D01*
X157834319Y-114376667D01*
X157824963Y-114356604D01*
X157710528Y-114158396D01*
X157697830Y-114140262D01*
X157550715Y-113964938D01*
X157535062Y-113949285D01*
X157359738Y-113802170D01*
X157341604Y-113789472D01*
X157229935Y-113725000D01*
X157318292Y-113673987D01*
X157367674Y-113622197D01*
X157381217Y-113551930D01*
X157344595Y-113474199D01*
X156614803Y-112744407D01*
X156551996Y-112710112D01*
X156480618Y-112715217D01*
X156435197Y-112744407D01*
X155705405Y-113474199D01*
X155671110Y-113537006D01*
X155676215Y-113608384D01*
X155731708Y-113673987D01*
X155820065Y-113725000D01*
X155708396Y-113789472D01*
X155690262Y-113802170D01*
X155514938Y-113949285D01*
X155499285Y-113964938D01*
X155352170Y-114140262D01*
X155339472Y-114158396D01*
X155225037Y-114356604D01*
X155215681Y-114376667D01*
X155137402Y-114591735D01*
X155131672Y-114613119D01*
X155091929Y-114838512D01*
X155090000Y-114860565D01*
X140635000Y-114860565D01*
X140635000Y-112569452D01*
X140635793Y-112565860D01*
X140638480Y-112547210D01*
X140638911Y-112540955D01*
X140638960Y-112540200D01*
X140650261Y-112360565D01*
X155090000Y-112360565D01*
X155090000Y-112589435D01*
X155091929Y-112611488D01*
X155131672Y-112836881D01*
X155137402Y-112858265D01*
X155215681Y-113073333D01*
X155225037Y-113093396D01*
X155326013Y-113268292D01*
X155377803Y-113317674D01*
X155448070Y-113331217D01*
X155525801Y-113294595D01*
X156255593Y-112564803D01*
X156289888Y-112501996D01*
X156286027Y-112448004D01*
X156760112Y-112448004D01*
X156765217Y-112519382D01*
X156794407Y-112564803D01*
X157524199Y-113294595D01*
X157587006Y-113328890D01*
X157658384Y-113323785D01*
X157723987Y-113268292D01*
X157824963Y-113093396D01*
X157834319Y-113073333D01*
X157912598Y-112858265D01*
X157918328Y-112836881D01*
X157931784Y-112760565D01*
X182065000Y-112760565D01*
X182065000Y-112989435D01*
X182066929Y-113011488D01*
X182106672Y-113236881D01*
X182112402Y-113258265D01*
X182190681Y-113473333D01*
X182200037Y-113493396D01*
X182314472Y-113691604D01*
X182327170Y-113709738D01*
X182474285Y-113885062D01*
X182489938Y-113900715D01*
X182665262Y-114047830D01*
X182683396Y-114060528D01*
X182881604Y-114174963D01*
X182901667Y-114184319D01*
X183116735Y-114262598D01*
X183138119Y-114268328D01*
X183363512Y-114308071D01*
X183385565Y-114310000D01*
X183614435Y-114310000D01*
X183636488Y-114308071D01*
X183861881Y-114268328D01*
X183883265Y-114262598D01*
X184098333Y-114184319D01*
X184118396Y-114174963D01*
X184316604Y-114060528D01*
X184334738Y-114047830D01*
X184466812Y-113937006D01*
X184646110Y-113937006D01*
X184651215Y-114008384D01*
X184706708Y-114073987D01*
X184881604Y-114174963D01*
X184901667Y-114184319D01*
X185116735Y-114262598D01*
X185138119Y-114268328D01*
X185363512Y-114308071D01*
X185385565Y-114310000D01*
X185614435Y-114310000D01*
X185636488Y-114308071D01*
X185861881Y-114268328D01*
X185883265Y-114262598D01*
X186098333Y-114184319D01*
X186118396Y-114174963D01*
X186293292Y-114073987D01*
X186342674Y-114022197D01*
X186356217Y-113951930D01*
X186319595Y-113874199D01*
X185589803Y-113144407D01*
X185526996Y-113110112D01*
X185455618Y-113115217D01*
X185410197Y-113144407D01*
X184680405Y-113874199D01*
X184646110Y-113937006D01*
X184466812Y-113937006D01*
X184510062Y-113900715D01*
X184525715Y-113885062D01*
X184672830Y-113709738D01*
X184685528Y-113691604D01*
X184799963Y-113493396D01*
X184809319Y-113473333D01*
X184859252Y-113336144D01*
X185230593Y-112964803D01*
X185264888Y-112901996D01*
X185261027Y-112848004D01*
X185735112Y-112848004D01*
X185740217Y-112919382D01*
X185769407Y-112964803D01*
X186499199Y-113694595D01*
X186562006Y-113728890D01*
X186633384Y-113723785D01*
X186698987Y-113668292D01*
X186799963Y-113493396D01*
X186809319Y-113473333D01*
X186887598Y-113258265D01*
X186893328Y-113236881D01*
X186933071Y-113011488D01*
X186935000Y-112989435D01*
X186935000Y-112760565D01*
X186933071Y-112738512D01*
X186893328Y-112513119D01*
X186887598Y-112491735D01*
X186809319Y-112276667D01*
X186799963Y-112256604D01*
X186698987Y-112081708D01*
X186647197Y-112032326D01*
X186576930Y-112018783D01*
X186499199Y-112055405D01*
X185769407Y-112785197D01*
X185735112Y-112848004D01*
X185261027Y-112848004D01*
X185259783Y-112830618D01*
X185230593Y-112785197D01*
X184859252Y-112413856D01*
X184809319Y-112276667D01*
X184799963Y-112256604D01*
X184685528Y-112058396D01*
X184672830Y-112040262D01*
X184525715Y-111864938D01*
X184510062Y-111849285D01*
X184449027Y-111798070D01*
X184643783Y-111798070D01*
X184680405Y-111875801D01*
X185410197Y-112605593D01*
X185473004Y-112639888D01*
X185544382Y-112634783D01*
X185589803Y-112605593D01*
X186319595Y-111875801D01*
X186353890Y-111812994D01*
X186348785Y-111741616D01*
X186293292Y-111676013D01*
X186118396Y-111575037D01*
X186098333Y-111565681D01*
X185883265Y-111487402D01*
X185861881Y-111481672D01*
X185636488Y-111441929D01*
X185614435Y-111440000D01*
X185385565Y-111440000D01*
X185363512Y-111441929D01*
X185138119Y-111481672D01*
X185116735Y-111487402D01*
X184901667Y-111565681D01*
X184881604Y-111575037D01*
X184706708Y-111676013D01*
X184657326Y-111727803D01*
X184643783Y-111798070D01*
X184449027Y-111798070D01*
X184334738Y-111702170D01*
X184316604Y-111689472D01*
X184118396Y-111575037D01*
X184098333Y-111565681D01*
X183883265Y-111487402D01*
X183861881Y-111481672D01*
X183636488Y-111441929D01*
X183614435Y-111440000D01*
X183385565Y-111440000D01*
X183363512Y-111441929D01*
X183138119Y-111481672D01*
X183116735Y-111487402D01*
X182901667Y-111565681D01*
X182881604Y-111575037D01*
X182683396Y-111689472D01*
X182665262Y-111702170D01*
X182489938Y-111849285D01*
X182474285Y-111864938D01*
X182327170Y-112040262D01*
X182314472Y-112058396D01*
X182200037Y-112256604D01*
X182190681Y-112276667D01*
X182112402Y-112491735D01*
X182106672Y-112513119D01*
X182066929Y-112738512D01*
X182065000Y-112760565D01*
X157931784Y-112760565D01*
X157958071Y-112611488D01*
X157960000Y-112589435D01*
X157960000Y-112360565D01*
X157958071Y-112338512D01*
X157918328Y-112113119D01*
X157912598Y-112091735D01*
X157834319Y-111876667D01*
X157824963Y-111856604D01*
X157723987Y-111681708D01*
X157672197Y-111632326D01*
X157601930Y-111618783D01*
X157524199Y-111655405D01*
X156794407Y-112385197D01*
X156760112Y-112448004D01*
X156286027Y-112448004D01*
X156284783Y-112430618D01*
X156255593Y-112385197D01*
X155525801Y-111655405D01*
X155462994Y-111621110D01*
X155391616Y-111626215D01*
X155326013Y-111681708D01*
X155225037Y-111856604D01*
X155215681Y-111876667D01*
X155137402Y-112091735D01*
X155131672Y-112113119D01*
X155091929Y-112338512D01*
X155090000Y-112360565D01*
X140650261Y-112360565D01*
X140656144Y-112267065D01*
X140699876Y-112037815D01*
X140772002Y-111815834D01*
X140871378Y-111604651D01*
X140996433Y-111407597D01*
X141004314Y-111398070D01*
X155668783Y-111398070D01*
X155705405Y-111475801D01*
X156435197Y-112205593D01*
X156498004Y-112239888D01*
X156569382Y-112234783D01*
X156614803Y-112205593D01*
X157344595Y-111475801D01*
X157378890Y-111412994D01*
X157373785Y-111341616D01*
X157318292Y-111276013D01*
X157143396Y-111175037D01*
X157123333Y-111165681D01*
X156908265Y-111087402D01*
X156886881Y-111081672D01*
X156661488Y-111041929D01*
X156639435Y-111040000D01*
X156410565Y-111040000D01*
X156388512Y-111041929D01*
X156163119Y-111081672D01*
X156141735Y-111087402D01*
X155926667Y-111165681D01*
X155906604Y-111175037D01*
X155731708Y-111276013D01*
X155682326Y-111327803D01*
X155668783Y-111398070D01*
X141004314Y-111398070D01*
X141145207Y-111227759D01*
X141315339Y-111067994D01*
X141504159Y-110930809D01*
X141708690Y-110818367D01*
X141925691Y-110732452D01*
X142151748Y-110674410D01*
X142393317Y-110643893D01*
X142520109Y-110639908D01*
X142538064Y-110638061D01*
X142555513Y-110635000D01*
X194430548Y-110635000D01*
X194434140Y-110635793D01*
M02*
