M48
INCH
T1C0.0157
T2C0.0315
T3C0.0512
%
G90
G05
T1
X5.6102Y-4.4291
X5.6102Y-5.0197
X5.6594Y-4.3799
X5.6594Y-5.0591
X5.7087Y-4.4291
X5.7087Y-5.0197
X5.7579Y-5.0591
X5.7677Y-4.3799
X5.8071Y-4.4291
X5.8071Y-5.0197
X5.8563Y-4.3799
X5.8563Y-5.0591
X5.9055Y-4.4291
X5.9055Y-5.0197
X5.9547Y-4.3799
X5.9547Y-5.0591
X6.0039Y-4.4291
X6.0039Y-5.0197
X6.063Y-4.3799
X6.1024Y-5.0197
X6.1516Y-5.0787
X6.2992Y-4.4291
X6.3484Y-4.3799
X6.3583Y-4.9606
X6.3583Y-5.0787
X6.3976Y-4.4291
X6.4272Y-4.5571
X6.4272Y-4.6161
X6.4469Y-4.3799
X6.4469Y-4.4783
X6.4685Y-4.7205
X6.4961Y-4.4291
X6.5157Y-4.5276
X6.5354Y-4.685
X6.5453Y-4.3799
X6.5453Y-4.4783
X6.5551Y-4.5276
X6.5748Y-4.685
X6.5748Y-4.9606
X6.5748Y-5.0
X6.5748Y-5.0394
X6.5945Y-4.4291
X6.5945Y-4.5276
X6.6142Y-4.685
X6.6142Y-4.7539
X6.6142Y-4.7933
X6.6142Y-4.8327
X6.6142Y-4.872
X6.6142Y-4.9114
X6.6142Y-4.9606
X6.6142Y-5.0
X6.6142Y-5.0394
X6.6437Y-4.3799
X6.6437Y-4.4783
X6.6535Y-4.9606
X6.6535Y-5.0
X6.6535Y-5.0394
X6.6929Y-4.4291
X6.7421Y-4.3799
X6.7421Y-4.4783
X6.7756Y-4.7205
X6.7821Y-4.8321
X6.7913Y-4.4291
X6.8307Y-4.8228
X6.8602Y-4.4882
X6.8996Y-4.8228
X6.9291Y-4.4882
X6.9685Y-4.8228
X7.0079Y-4.4882
X7.0866Y-4.4882
X7.0866Y-5.0197
X7.1358Y-4.9705
X7.1358Y-5.0591
X7.185Y-5.0197
X7.2343Y-4.9705
X7.2343Y-5.0591
X7.2835Y-5.0197
X7.3327Y-4.9705
X7.3327Y-5.0591
X7.3819Y-5.0197
X7.4311Y-4.9705
X7.4311Y-5.0591
X7.4803Y-5.0197
X7.5295Y-4.9705
X7.5295Y-5.0591
X7.5787Y-5.0197
T2
X6.1624Y-4.4281
X6.1624Y-4.5266
X6.0236Y-4.6673
X6.0236Y-4.7657
X6.3031Y-4.6683
X6.3031Y-4.7667
X7.2224Y-4.6703
X7.3012Y-4.6703
X7.2244Y-4.4439
X7.3031Y-4.4439
T3
X7.5984Y-4.626
X7.5984Y-4.8228
X5.6693Y-4.626
X5.6693Y-4.8228
T0
M30
