G04 #@! TF.GenerationSoftware,KiCad,Pcbnew,(5.1.0-1220-ga833aeeac)*
G04 #@! TF.CreationDate,2019-07-09T23:07:38+03:00*
G04 #@! TF.ProjectId,proto_II_buck_kicad,70726f74-6f5f-4494-995f-6275636b5f6b,rev?*
G04 #@! TF.SameCoordinates,Original*
G04 #@! TF.FileFunction,Soldermask,Top*
G04 #@! TF.FilePolarity,Negative*
%FSLAX46Y46*%
G04 Gerber Fmt 4.6, Leading zero omitted, Abs format (unit mm)*
G04 Created by KiCad (PCBNEW (5.1.0-1220-ga833aeeac)) date 2019-07-09 23:07:38*
%MOMM*%
%LPD*%
G04 APERTURE LIST*
%ADD10C,0.160000*%
%ADD11C,0.600000*%
%ADD12C,0.950000*%
%ADD13C,1.425000*%
%ADD14R,2.200000X1.600000*%
%ADD15C,1.524000*%
%ADD16C,1.676868*%
%ADD17C,1.600000*%
G04 APERTURE END LIST*
D10*
G36*
X171357403Y-120806418D02*
G01*
X171406066Y-120838934D01*
X171438582Y-120887597D01*
X171450000Y-120945000D01*
X171450000Y-121245000D01*
X171438582Y-121302403D01*
X171406066Y-121351066D01*
X171357403Y-121383582D01*
X171300000Y-121395000D01*
X169650000Y-121395000D01*
X169592597Y-121383582D01*
X169543934Y-121351066D01*
X169511418Y-121302403D01*
X169500000Y-121245000D01*
X169500000Y-120945000D01*
X169511418Y-120887597D01*
X169543934Y-120838934D01*
X169592597Y-120806418D01*
X169650000Y-120795000D01*
X171300000Y-120795000D01*
X171357403Y-120806418D01*
X171357403Y-120806418D01*
G37*
D11*
X170475000Y-121095000D03*
D10*
G36*
X171357403Y-122076418D02*
G01*
X171406066Y-122108934D01*
X171438582Y-122157597D01*
X171450000Y-122215000D01*
X171450000Y-122515000D01*
X171438582Y-122572403D01*
X171406066Y-122621066D01*
X171357403Y-122653582D01*
X171300000Y-122665000D01*
X169650000Y-122665000D01*
X169592597Y-122653582D01*
X169543934Y-122621066D01*
X169511418Y-122572403D01*
X169500000Y-122515000D01*
X169500000Y-122215000D01*
X169511418Y-122157597D01*
X169543934Y-122108934D01*
X169592597Y-122076418D01*
X169650000Y-122065000D01*
X171300000Y-122065000D01*
X171357403Y-122076418D01*
X171357403Y-122076418D01*
G37*
D11*
X170475000Y-122365000D03*
D10*
G36*
X171357403Y-123346418D02*
G01*
X171406066Y-123378934D01*
X171438582Y-123427597D01*
X171450000Y-123485000D01*
X171450000Y-123785000D01*
X171438582Y-123842403D01*
X171406066Y-123891066D01*
X171357403Y-123923582D01*
X171300000Y-123935000D01*
X169650000Y-123935000D01*
X169592597Y-123923582D01*
X169543934Y-123891066D01*
X169511418Y-123842403D01*
X169500000Y-123785000D01*
X169500000Y-123485000D01*
X169511418Y-123427597D01*
X169543934Y-123378934D01*
X169592597Y-123346418D01*
X169650000Y-123335000D01*
X171300000Y-123335000D01*
X171357403Y-123346418D01*
X171357403Y-123346418D01*
G37*
D11*
X170475000Y-123635000D03*
D10*
G36*
X171357403Y-124616418D02*
G01*
X171406066Y-124648934D01*
X171438582Y-124697597D01*
X171450000Y-124755000D01*
X171450000Y-125055000D01*
X171438582Y-125112403D01*
X171406066Y-125161066D01*
X171357403Y-125193582D01*
X171300000Y-125205000D01*
X169650000Y-125205000D01*
X169592597Y-125193582D01*
X169543934Y-125161066D01*
X169511418Y-125112403D01*
X169500000Y-125055000D01*
X169500000Y-124755000D01*
X169511418Y-124697597D01*
X169543934Y-124648934D01*
X169592597Y-124616418D01*
X169650000Y-124605000D01*
X171300000Y-124605000D01*
X171357403Y-124616418D01*
X171357403Y-124616418D01*
G37*
D11*
X170475000Y-124905000D03*
D10*
G36*
X166407403Y-124616418D02*
G01*
X166456066Y-124648934D01*
X166488582Y-124697597D01*
X166500000Y-124755000D01*
X166500000Y-125055000D01*
X166488582Y-125112403D01*
X166456066Y-125161066D01*
X166407403Y-125193582D01*
X166350000Y-125205000D01*
X164700000Y-125205000D01*
X164642597Y-125193582D01*
X164593934Y-125161066D01*
X164561418Y-125112403D01*
X164550000Y-125055000D01*
X164550000Y-124755000D01*
X164561418Y-124697597D01*
X164593934Y-124648934D01*
X164642597Y-124616418D01*
X164700000Y-124605000D01*
X166350000Y-124605000D01*
X166407403Y-124616418D01*
X166407403Y-124616418D01*
G37*
D11*
X165525000Y-124905000D03*
D10*
G36*
X166407403Y-123346418D02*
G01*
X166456066Y-123378934D01*
X166488582Y-123427597D01*
X166500000Y-123485000D01*
X166500000Y-123785000D01*
X166488582Y-123842403D01*
X166456066Y-123891066D01*
X166407403Y-123923582D01*
X166350000Y-123935000D01*
X164700000Y-123935000D01*
X164642597Y-123923582D01*
X164593934Y-123891066D01*
X164561418Y-123842403D01*
X164550000Y-123785000D01*
X164550000Y-123485000D01*
X164561418Y-123427597D01*
X164593934Y-123378934D01*
X164642597Y-123346418D01*
X164700000Y-123335000D01*
X166350000Y-123335000D01*
X166407403Y-123346418D01*
X166407403Y-123346418D01*
G37*
D11*
X165525000Y-123635000D03*
D10*
G36*
X166407403Y-122076418D02*
G01*
X166456066Y-122108934D01*
X166488582Y-122157597D01*
X166500000Y-122215000D01*
X166500000Y-122515000D01*
X166488582Y-122572403D01*
X166456066Y-122621066D01*
X166407403Y-122653582D01*
X166350000Y-122665000D01*
X164700000Y-122665000D01*
X164642597Y-122653582D01*
X164593934Y-122621066D01*
X164561418Y-122572403D01*
X164550000Y-122515000D01*
X164550000Y-122215000D01*
X164561418Y-122157597D01*
X164593934Y-122108934D01*
X164642597Y-122076418D01*
X164700000Y-122065000D01*
X166350000Y-122065000D01*
X166407403Y-122076418D01*
X166407403Y-122076418D01*
G37*
D11*
X165525000Y-122365000D03*
D10*
G36*
X166407403Y-120806418D02*
G01*
X166456066Y-120838934D01*
X166488582Y-120887597D01*
X166500000Y-120945000D01*
X166500000Y-121245000D01*
X166488582Y-121302403D01*
X166456066Y-121351066D01*
X166407403Y-121383582D01*
X166350000Y-121395000D01*
X164700000Y-121395000D01*
X164642597Y-121383582D01*
X164593934Y-121351066D01*
X164561418Y-121302403D01*
X164550000Y-121245000D01*
X164550000Y-120945000D01*
X164561418Y-120887597D01*
X164593934Y-120838934D01*
X164642597Y-120806418D01*
X164700000Y-120795000D01*
X166350000Y-120795000D01*
X166407403Y-120806418D01*
X166407403Y-120806418D01*
G37*
D11*
X165525000Y-121095000D03*
D10*
G36*
X175578387Y-123143079D02*
G01*
X175655438Y-123194562D01*
X175706921Y-123271613D01*
X175725000Y-123362500D01*
X175725000Y-123937500D01*
X175706921Y-124028387D01*
X175655438Y-124105438D01*
X175578387Y-124156921D01*
X175487500Y-124175000D01*
X175012500Y-124175000D01*
X174921613Y-124156921D01*
X174844562Y-124105438D01*
X174793079Y-124028387D01*
X174775000Y-123937500D01*
X174775000Y-123362500D01*
X174793079Y-123271613D01*
X174844562Y-123194562D01*
X174921613Y-123143079D01*
X175012500Y-123125000D01*
X175487500Y-123125000D01*
X175578387Y-123143079D01*
X175578387Y-123143079D01*
G37*
D12*
X175250000Y-123650000D03*
D10*
G36*
X175578387Y-124893079D02*
G01*
X175655438Y-124944562D01*
X175706921Y-125021613D01*
X175725000Y-125112500D01*
X175725000Y-125687500D01*
X175706921Y-125778387D01*
X175655438Y-125855438D01*
X175578387Y-125906921D01*
X175487500Y-125925000D01*
X175012500Y-125925000D01*
X174921613Y-125906921D01*
X174844562Y-125855438D01*
X174793079Y-125778387D01*
X174775000Y-125687500D01*
X174775000Y-125112500D01*
X174793079Y-125021613D01*
X174844562Y-124944562D01*
X174921613Y-124893079D01*
X175012500Y-124875000D01*
X175487500Y-124875000D01*
X175578387Y-124893079D01*
X175578387Y-124893079D01*
G37*
D12*
X175250000Y-125400000D03*
D10*
G36*
X156820671Y-126869030D02*
G01*
X156901777Y-126923223D01*
X156955970Y-127004329D01*
X156975000Y-127100000D01*
X156975000Y-128350000D01*
X156955970Y-128445671D01*
X156901777Y-128526777D01*
X156820671Y-128580970D01*
X156725000Y-128600000D01*
X155800000Y-128600000D01*
X155704329Y-128580970D01*
X155623223Y-128526777D01*
X155569030Y-128445671D01*
X155550000Y-128350000D01*
X155550000Y-127100000D01*
X155569030Y-127004329D01*
X155623223Y-126923223D01*
X155704329Y-126869030D01*
X155800000Y-126850000D01*
X156725000Y-126850000D01*
X156820671Y-126869030D01*
X156820671Y-126869030D01*
G37*
D13*
X156262500Y-127725000D03*
D10*
G36*
X159795671Y-126869030D02*
G01*
X159876777Y-126923223D01*
X159930970Y-127004329D01*
X159950000Y-127100000D01*
X159950000Y-128350000D01*
X159930970Y-128445671D01*
X159876777Y-128526777D01*
X159795671Y-128580970D01*
X159700000Y-128600000D01*
X158775000Y-128600000D01*
X158679329Y-128580970D01*
X158598223Y-128526777D01*
X158544030Y-128445671D01*
X158525000Y-128350000D01*
X158525000Y-127100000D01*
X158544030Y-127004329D01*
X158598223Y-126923223D01*
X158679329Y-126869030D01*
X158775000Y-126850000D01*
X159700000Y-126850000D01*
X159795671Y-126869030D01*
X159795671Y-126869030D01*
G37*
D13*
X159237500Y-127725000D03*
D10*
G36*
X177278387Y-123143079D02*
G01*
X177355438Y-123194562D01*
X177406921Y-123271613D01*
X177425000Y-123362500D01*
X177425000Y-123937500D01*
X177406921Y-124028387D01*
X177355438Y-124105438D01*
X177278387Y-124156921D01*
X177187500Y-124175000D01*
X176712500Y-124175000D01*
X176621613Y-124156921D01*
X176544562Y-124105438D01*
X176493079Y-124028387D01*
X176475000Y-123937500D01*
X176475000Y-123362500D01*
X176493079Y-123271613D01*
X176544562Y-123194562D01*
X176621613Y-123143079D01*
X176712500Y-123125000D01*
X177187500Y-123125000D01*
X177278387Y-123143079D01*
X177278387Y-123143079D01*
G37*
D12*
X176950000Y-123650000D03*
D10*
G36*
X177278387Y-124893079D02*
G01*
X177355438Y-124944562D01*
X177406921Y-125021613D01*
X177425000Y-125112500D01*
X177425000Y-125687500D01*
X177406921Y-125778387D01*
X177355438Y-125855438D01*
X177278387Y-125906921D01*
X177187500Y-125925000D01*
X176712500Y-125925000D01*
X176621613Y-125906921D01*
X176544562Y-125855438D01*
X176493079Y-125778387D01*
X176475000Y-125687500D01*
X176475000Y-125112500D01*
X176493079Y-125021613D01*
X176544562Y-124944562D01*
X176621613Y-124893079D01*
X176712500Y-124875000D01*
X177187500Y-124875000D01*
X177278387Y-124893079D01*
X177278387Y-124893079D01*
G37*
D12*
X176950000Y-125400000D03*
D10*
G36*
X159795671Y-124269030D02*
G01*
X159876777Y-124323223D01*
X159930970Y-124404329D01*
X159950000Y-124500000D01*
X159950000Y-125750000D01*
X159930970Y-125845671D01*
X159876777Y-125926777D01*
X159795671Y-125980970D01*
X159700000Y-126000000D01*
X158775000Y-126000000D01*
X158679329Y-125980970D01*
X158598223Y-125926777D01*
X158544030Y-125845671D01*
X158525000Y-125750000D01*
X158525000Y-124500000D01*
X158544030Y-124404329D01*
X158598223Y-124323223D01*
X158679329Y-124269030D01*
X158775000Y-124250000D01*
X159700000Y-124250000D01*
X159795671Y-124269030D01*
X159795671Y-124269030D01*
G37*
D13*
X159237500Y-125125000D03*
D10*
G36*
X156820671Y-124269030D02*
G01*
X156901777Y-124323223D01*
X156955970Y-124404329D01*
X156975000Y-124500000D01*
X156975000Y-125750000D01*
X156955970Y-125845671D01*
X156901777Y-125926777D01*
X156820671Y-125980970D01*
X156725000Y-126000000D01*
X155800000Y-126000000D01*
X155704329Y-125980970D01*
X155623223Y-125926777D01*
X155569030Y-125845671D01*
X155550000Y-125750000D01*
X155550000Y-124500000D01*
X155569030Y-124404329D01*
X155623223Y-124323223D01*
X155704329Y-124269030D01*
X155800000Y-124250000D01*
X156725000Y-124250000D01*
X156820671Y-124269030D01*
X156820671Y-124269030D01*
G37*
D13*
X156262500Y-125125000D03*
D10*
G36*
X179028387Y-124893079D02*
G01*
X179105438Y-124944562D01*
X179156921Y-125021613D01*
X179175000Y-125112500D01*
X179175000Y-125687500D01*
X179156921Y-125778387D01*
X179105438Y-125855438D01*
X179028387Y-125906921D01*
X178937500Y-125925000D01*
X178462500Y-125925000D01*
X178371613Y-125906921D01*
X178294562Y-125855438D01*
X178243079Y-125778387D01*
X178225000Y-125687500D01*
X178225000Y-125112500D01*
X178243079Y-125021613D01*
X178294562Y-124944562D01*
X178371613Y-124893079D01*
X178462500Y-124875000D01*
X178937500Y-124875000D01*
X179028387Y-124893079D01*
X179028387Y-124893079D01*
G37*
D12*
X178700000Y-125400000D03*
D10*
G36*
X179028387Y-123143079D02*
G01*
X179105438Y-123194562D01*
X179156921Y-123271613D01*
X179175000Y-123362500D01*
X179175000Y-123937500D01*
X179156921Y-124028387D01*
X179105438Y-124105438D01*
X179028387Y-124156921D01*
X178937500Y-124175000D01*
X178462500Y-124175000D01*
X178371613Y-124156921D01*
X178294562Y-124105438D01*
X178243079Y-124028387D01*
X178225000Y-123937500D01*
X178225000Y-123362500D01*
X178243079Y-123271613D01*
X178294562Y-123194562D01*
X178371613Y-123143079D01*
X178462500Y-123125000D01*
X178937500Y-123125000D01*
X179028387Y-123143079D01*
X179028387Y-123143079D01*
G37*
D12*
X178700000Y-123650000D03*
D14*
X177550000Y-118150000D03*
X177550000Y-111750000D03*
D15*
X144000000Y-122500000D03*
X144000000Y-117500000D03*
X193000000Y-117500000D03*
X193000000Y-122500000D03*
D16*
X165825000Y-116900000D03*
D10*
G36*
X164025000Y-118050000D02*
G01*
X164025000Y-115750000D01*
X167625000Y-116350000D01*
X167625000Y-117450000D01*
X164025000Y-118050000D01*
X164025000Y-118050000D01*
G37*
D16*
X171625000Y-116900000D03*
D10*
G36*
X173425000Y-115750000D02*
G01*
X173425000Y-118050000D01*
X169825000Y-117450000D01*
X169825000Y-116350000D01*
X173425000Y-115750000D01*
X173425000Y-115750000D01*
G37*
G36*
X173753387Y-123143079D02*
G01*
X173830438Y-123194562D01*
X173881921Y-123271613D01*
X173900000Y-123362500D01*
X173900000Y-123937500D01*
X173881921Y-124028387D01*
X173830438Y-124105438D01*
X173753387Y-124156921D01*
X173662500Y-124175000D01*
X173187500Y-124175000D01*
X173096613Y-124156921D01*
X173019562Y-124105438D01*
X172968079Y-124028387D01*
X172950000Y-123937500D01*
X172950000Y-123362500D01*
X172968079Y-123271613D01*
X173019562Y-123194562D01*
X173096613Y-123143079D01*
X173187500Y-123125000D01*
X173662500Y-123125000D01*
X173753387Y-123143079D01*
X173753387Y-123143079D01*
G37*
D12*
X173425000Y-123650000D03*
D10*
G36*
X173753387Y-124893079D02*
G01*
X173830438Y-124944562D01*
X173881921Y-125021613D01*
X173900000Y-125112500D01*
X173900000Y-125687500D01*
X173881921Y-125778387D01*
X173830438Y-125855438D01*
X173753387Y-125906921D01*
X173662500Y-125925000D01*
X173187500Y-125925000D01*
X173096613Y-125906921D01*
X173019562Y-125855438D01*
X172968079Y-125778387D01*
X172950000Y-125687500D01*
X172950000Y-125112500D01*
X172968079Y-125021613D01*
X173019562Y-124944562D01*
X173096613Y-124893079D01*
X173187500Y-124875000D01*
X173662500Y-124875000D01*
X173753387Y-124893079D01*
X173753387Y-124893079D01*
G37*
D12*
X173425000Y-125400000D03*
D10*
G36*
X162145671Y-126869030D02*
G01*
X162226777Y-126923223D01*
X162280970Y-127004329D01*
X162300000Y-127100000D01*
X162300000Y-128350000D01*
X162280970Y-128445671D01*
X162226777Y-128526777D01*
X162145671Y-128580970D01*
X162050000Y-128600000D01*
X161125000Y-128600000D01*
X161029329Y-128580970D01*
X160948223Y-128526777D01*
X160894030Y-128445671D01*
X160875000Y-128350000D01*
X160875000Y-127100000D01*
X160894030Y-127004329D01*
X160948223Y-126923223D01*
X161029329Y-126869030D01*
X161125000Y-126850000D01*
X162050000Y-126850000D01*
X162145671Y-126869030D01*
X162145671Y-126869030D01*
G37*
D13*
X161587500Y-127725000D03*
D10*
G36*
X165120671Y-126869030D02*
G01*
X165201777Y-126923223D01*
X165255970Y-127004329D01*
X165275000Y-127100000D01*
X165275000Y-128350000D01*
X165255970Y-128445671D01*
X165201777Y-128526777D01*
X165120671Y-128580970D01*
X165025000Y-128600000D01*
X164100000Y-128600000D01*
X164004329Y-128580970D01*
X163923223Y-128526777D01*
X163869030Y-128445671D01*
X163850000Y-128350000D01*
X163850000Y-127100000D01*
X163869030Y-127004329D01*
X163923223Y-126923223D01*
X164004329Y-126869030D01*
X164100000Y-126850000D01*
X165025000Y-126850000D01*
X165120671Y-126869030D01*
X165120671Y-126869030D01*
G37*
D13*
X164562500Y-127725000D03*
D10*
G36*
X175603387Y-126593079D02*
G01*
X175680438Y-126644562D01*
X175731921Y-126721613D01*
X175750000Y-126812500D01*
X175750000Y-127287500D01*
X175731921Y-127378387D01*
X175680438Y-127455438D01*
X175603387Y-127506921D01*
X175512500Y-127525000D01*
X174937500Y-127525000D01*
X174846613Y-127506921D01*
X174769562Y-127455438D01*
X174718079Y-127378387D01*
X174700000Y-127287500D01*
X174700000Y-126812500D01*
X174718079Y-126721613D01*
X174769562Y-126644562D01*
X174846613Y-126593079D01*
X174937500Y-126575000D01*
X175512500Y-126575000D01*
X175603387Y-126593079D01*
X175603387Y-126593079D01*
G37*
D12*
X175225000Y-127050000D03*
D10*
G36*
X173853387Y-126593079D02*
G01*
X173930438Y-126644562D01*
X173981921Y-126721613D01*
X174000000Y-126812500D01*
X174000000Y-127287500D01*
X173981921Y-127378387D01*
X173930438Y-127455438D01*
X173853387Y-127506921D01*
X173762500Y-127525000D01*
X173187500Y-127525000D01*
X173096613Y-127506921D01*
X173019562Y-127455438D01*
X172968079Y-127378387D01*
X172950000Y-127287500D01*
X172950000Y-126812500D01*
X172968079Y-126721613D01*
X173019562Y-126644562D01*
X173096613Y-126593079D01*
X173187500Y-126575000D01*
X173762500Y-126575000D01*
X173853387Y-126593079D01*
X173853387Y-126593079D01*
G37*
D12*
X173475000Y-127050000D03*
D17*
X160100000Y-118575000D03*
X160100000Y-121075000D03*
X153000000Y-118550000D03*
X153000000Y-121050000D03*
X156525000Y-112475000D03*
X156525000Y-114975000D03*
X185450000Y-118625000D03*
X183450000Y-118625000D03*
X185500000Y-112875000D03*
X183500000Y-112875000D03*
D10*
G36*
X173778387Y-119543079D02*
G01*
X173855438Y-119594562D01*
X173906921Y-119671613D01*
X173925000Y-119762500D01*
X173925000Y-120237500D01*
X173906921Y-120328387D01*
X173855438Y-120405438D01*
X173778387Y-120456921D01*
X173687500Y-120475000D01*
X173112500Y-120475000D01*
X173021613Y-120456921D01*
X172944562Y-120405438D01*
X172893079Y-120328387D01*
X172875000Y-120237500D01*
X172875000Y-119762500D01*
X172893079Y-119671613D01*
X172944562Y-119594562D01*
X173021613Y-119543079D01*
X173112500Y-119525000D01*
X173687500Y-119525000D01*
X173778387Y-119543079D01*
X173778387Y-119543079D01*
G37*
D12*
X173400000Y-120000000D03*
D10*
G36*
X175528387Y-119543079D02*
G01*
X175605438Y-119594562D01*
X175656921Y-119671613D01*
X175675000Y-119762500D01*
X175675000Y-120237500D01*
X175656921Y-120328387D01*
X175605438Y-120405438D01*
X175528387Y-120456921D01*
X175437500Y-120475000D01*
X174862500Y-120475000D01*
X174771613Y-120456921D01*
X174694562Y-120405438D01*
X174643079Y-120328387D01*
X174625000Y-120237500D01*
X174625000Y-119762500D01*
X174643079Y-119671613D01*
X174694562Y-119594562D01*
X174771613Y-119543079D01*
X174862500Y-119525000D01*
X175437500Y-119525000D01*
X175528387Y-119543079D01*
X175528387Y-119543079D01*
G37*
D12*
X175150000Y-120000000D03*
M02*
