M48
; DRILL file {KiCad 5.1.5} date Wed 08 Jan 2020 10:08:42 PM EET
; FORMAT={-:-/ absolute / metric / decimal}
; #@! TF.CreationDate,2020-01-08T22:08:42+02:00
; #@! TF.GenerationSoftware,Kicad,Pcbnew,5.1.5
; #@! TF.FileFunction,Plated,1,2,PTH
FMAT,2
METRIC
T1C0.250
T2C0.400
T3C0.500
T4C1.300
%
G90
G05
T1
X108.0Y-93.0
X108.0Y-95.0
X108.0Y-97.0
X108.0Y-99.0
X110.0Y-93.0
X110.0Y-99.0
X110.75Y-100.0
X110.75Y-101.5
X110.75Y-103.25
X110.75Y-105.0
X110.75Y-106.25
X111.9Y-96.4
X112.0Y-93.0
X112.0Y-99.0
X112.0Y-100.0
X112.75Y-106.25
X114.0Y-99.0
X114.0Y-100.0
X115.0Y-106.25
X115.7Y-105.1
X116.0Y-93.0
X116.0Y-95.0
X116.0Y-97.0
X116.0Y-99.0
X116.0Y-100.0
X117.0Y-95.0
X117.0Y-97.0
X117.0Y-99.0
X117.0Y-106.25
X118.75Y-106.25
X119.5Y-95.0
X120.75Y-95.0
X120.75Y-97.0
X120.75Y-99.0
X120.75Y-101.0
X120.75Y-102.75
X120.75Y-104.5
X120.75Y-106.25
T2
X40.64Y-43.18
X45.72Y-43.18
X50.8Y-43.18
X55.88Y-43.18
X57.912Y-65.405
X60.96Y-96.52
X66.421Y-65.151
X68.58Y-96.52
X76.2Y-96.52
X83.82Y-96.52
X86.36Y-55.88
X88.9Y-53.34
X96.52Y-50.8
X97.79Y-76.2
X97.79Y-81.28
X109.22Y-53.34
X114.3Y-53.34
X114.855Y-51.308
X117.382Y-82.394
X118.11Y-49.53
X120.368Y-78.462
X134.62Y-106.68
T3
X39.37Y-53.34
X39.37Y-58.42
X39.37Y-64.77
X39.37Y-69.85
X39.37Y-76.2
X39.37Y-81.28
X39.37Y-86.36
X39.37Y-91.44
X39.37Y-99.06
X39.37Y-102.87
X39.37Y-107.95
X39.37Y-113.03
X39.37Y-118.11
X39.37Y-121.92
X40.64Y-48.26
X45.72Y-48.26
X45.72Y-76.2
X45.72Y-81.28
X45.72Y-86.36
X45.72Y-91.44
X50.8Y-48.26
X50.8Y-53.34
X50.8Y-58.42
X53.34Y-75.946
X53.34Y-81.28
X53.34Y-86.36
X53.34Y-91.44
X55.499Y-75.946
X60.96Y-43.18
X60.96Y-76.2
X60.96Y-81.28
X60.96Y-86.36
X60.96Y-91.44
X60.96Y-107.315
X60.96Y-109.22
X60.96Y-111.125
X60.96Y-113.03
X60.96Y-114.935
X60.96Y-116.84
X62.865Y-116.84
X62.865Y-118.745
X64.77Y-113.03
X64.77Y-116.84
X64.77Y-118.745
X66.04Y-43.18
X66.675Y-113.03
X66.675Y-114.935
X67.31Y-104.14
X68.58Y-76.2
X68.58Y-81.28
X68.58Y-91.44
X69.215Y-104.14
X71.12Y-43.18
X71.12Y-48.26
X71.12Y-104.14
X75.006Y-101.041
X75.006Y-102.108
X75.006Y-103.175
X75.184Y-106.68
X75.184Y-107.696
X75.184Y-108.712
X75.184Y-109.728
X75.184Y-110.744
X75.184Y-111.76
X75.184Y-112.776
X75.184Y-113.792
X75.184Y-114.808
X75.184Y-115.824
X75.184Y-116.84
X75.184Y-117.856
X75.184Y-118.872
X75.184Y-119.888
X75.184Y-120.904
X76.2Y-43.18
X76.2Y-48.26
X76.2Y-76.2
X76.2Y-81.28
X76.2Y-86.36
X76.2Y-91.44
X76.276Y-101.016
X76.276Y-103.175
X76.302Y-102.108
X76.454Y-106.68
X76.454Y-107.696
X76.454Y-108.712
X76.454Y-109.728
X76.454Y-110.744
X76.454Y-111.76
X76.454Y-112.776
X76.454Y-113.792
X76.454Y-114.808
X76.454Y-115.824
X76.454Y-116.84
X76.454Y-117.919
X76.454Y-118.872
X76.454Y-119.888
X76.454Y-120.904
X78.232Y-63.094
X80.767Y-120.297
X81.28Y-43.18
X81.28Y-48.26
X81.28Y-53.34
X83.668Y-61.112
X83.82Y-66.04
X83.82Y-71.12
X83.82Y-76.2
X83.82Y-81.28
X83.82Y-86.36
X83.82Y-91.44
X86.36Y-43.18
X86.36Y-48.26
X86.36Y-114.3
X86.36Y-118.11
X88.102Y-107.081
X88.9Y-66.04
X88.9Y-71.12
X88.9Y-76.2
X88.9Y-81.28
X88.9Y-86.36
X88.9Y-91.44
X88.9Y-96.52
X91.44Y-104.14
X91.44Y-109.22
X91.44Y-114.3
X91.44Y-118.11
X92.773Y-109.982
X92.773Y-112.014
X93.98Y-66.04
X93.98Y-71.12
X99.314Y-59.182
X100.838Y-74.93
X102.362Y-74.93
X103.784Y-88.354
X104.451Y-89.783
X104.648Y-74.93
X106.68Y-93.98
X106.68Y-96.52
X107.188Y-74.93
X109.22Y-113.03
X109.982Y-88.138
X110.49Y-113.03
X112.776Y-75.184
X113.284Y-86.868
X114.274Y-83.614
X114.3Y-116.84
X114.554Y-82.55
X115.672Y-74.828
X116.84Y-43.18
X116.84Y-48.26
X117.091Y-74.469
X117.958Y-78.384
X119.38Y-111.76
X119.38Y-116.84
X119.38Y-121.92
X121.158Y-74.93
X121.92Y-43.18
X121.92Y-48.26
X121.92Y-53.34
X122.174Y-97.79
X123.698Y-75.184
X124.46Y-111.76
X124.46Y-116.84
X124.46Y-121.92
X125.015Y-80.391
X126.552Y-78.854
X127.0Y-43.18
X127.0Y-48.26
X127.0Y-53.34
X127.603Y-93.816
X128.257Y-79.375
X128.27Y-74.93
X128.27Y-81.915
X128.905Y-83.82
X129.54Y-111.76
X129.54Y-116.84
X129.54Y-121.92
X130.619Y-80.772
X130.81Y-62.23
X131.083Y-77.978
X131.699Y-94.742
X132.08Y-43.18
X132.08Y-48.26
X132.08Y-53.34
X132.08Y-58.42
X132.08Y-72.39
X134.62Y-111.76
X134.62Y-116.84
X134.62Y-121.92
X135.89Y-43.18
X135.89Y-48.26
X135.89Y-53.34
X135.89Y-58.42
X135.89Y-63.5
X135.89Y-68.58
X135.89Y-73.66
X135.89Y-78.74
X135.89Y-83.82
X135.89Y-88.9
X135.89Y-93.98
X135.89Y-99.06
X135.89Y-104.14
T4
X44.0Y-105.5
X44.0Y-110.5
X94.5Y-45.508
X99.5Y-45.508
X44.0Y-51.5
X44.0Y-56.5
X44.0Y-95.5
X44.0Y-100.5
X104.5Y-45.495
X109.5Y-45.495
X44.0Y-115.5
X44.0Y-120.5
T0
M30
