%FSLAX45Y45*%
G04 Gerber Fmt 4.5, Leading zero omitted, Abs format (unit mm)*
G04 Created by KiCad (PCBNEW 5.1.5) date 2020-01-08 22:08:45*
%MOMM*%
%LPD*%
G04 APERTURE LIST*
%TA.AperFunction,Profile*%
%ADD10C,0.100000*%
%TD*%
%ADD11C,0.200000*%
%ADD12C,0.300000*%
G04 APERTURE END LIST*
D10*
X12300000Y-4005000D02*
X5300000Y-4005000D01*
X13800000Y-12800000D02*
G75*
G02X13600000Y-13000000I-200000J0D01*
G01*
X3800000Y-3505000D02*
G75*
G02X4000000Y-3305000I200000J0D01*
G01*
X13800000Y-3505000D02*
X13800000Y-12800000D01*
X5100000Y-12500000D02*
G75*
G02X5300000Y-12300000I200000J0D01*
G01*
X5100000Y-12800000D02*
G75*
G02X4900000Y-13000000I-200000J0D01*
G01*
X12500000Y-3505000D02*
G75*
G02X12700000Y-3305000I200000J0D01*
G01*
X13600000Y-3305000D02*
X12700000Y-3305000D01*
X4900000Y-3305000D02*
X4000000Y-3305000D01*
X4000000Y-13000000D02*
G75*
G02X3800000Y-12800000I0J200000D01*
G01*
X5100000Y-3505000D02*
X5100000Y-3805000D01*
X13600000Y-3305000D02*
G75*
G02X13800000Y-3505000I0J-200000D01*
G01*
X5300000Y-4005000D02*
G75*
G02X5100000Y-3805000I0J200000D01*
G01*
X12300000Y-12300000D02*
G75*
G02X12500000Y-12500000I0J-200000D01*
G01*
X4900000Y-3305000D02*
G75*
G02X5100000Y-3505000I0J-200000D01*
G01*
X12500000Y-12800000D02*
X12500000Y-12500000D01*
X12500000Y-3805000D02*
G75*
G02X12300000Y-4005000I-200000J0D01*
G01*
X4900000Y-13000000D02*
X4000000Y-13000000D01*
X12500000Y-3505000D02*
X12500000Y-3805000D01*
X12300000Y-12300000D02*
X5300000Y-12300000D01*
X3800000Y-12800000D02*
X3800000Y-3505000D01*
X13600000Y-13000000D02*
X12700000Y-13000000D01*
X5100000Y-12500000D02*
X5100000Y-12800000D01*
X12700000Y-13000000D02*
G75*
G02X12500000Y-12800000I0J200000D01*
G01*
D11*
X13090000Y-12825000D02*
X13440000Y-13175000D01*
X13440000Y-12825000D02*
X13090000Y-13175000D01*
X4185000Y-12825000D02*
X4535000Y-13175000D01*
X4535000Y-12825000D02*
X4185000Y-13175000D01*
X4190000Y-3130000D02*
X4540000Y-3480000D01*
X4540000Y-3130000D02*
X4190000Y-3480000D01*
X13080000Y-3130000D02*
X13430000Y-3480000D01*
X13430000Y-3130000D02*
X13080000Y-3480000D01*
D12*
X4081428Y-13470714D02*
X4081428Y-13170714D01*
X4152857Y-13170714D01*
X4195714Y-13185000D01*
X4224286Y-13213572D01*
X4238571Y-13242143D01*
X4252857Y-13299286D01*
X4252857Y-13342143D01*
X4238571Y-13399286D01*
X4224286Y-13427857D01*
X4195714Y-13456429D01*
X4152857Y-13470714D01*
X4081428Y-13470714D01*
X4381428Y-13470714D02*
X4381428Y-13270714D01*
X4381428Y-13327857D02*
X4395714Y-13299286D01*
X4410000Y-13285000D01*
X4438571Y-13270714D01*
X4467143Y-13270714D01*
X4567143Y-13470714D02*
X4567143Y-13270714D01*
X4567143Y-13170714D02*
X4552857Y-13185000D01*
X4567143Y-13199286D01*
X4581428Y-13185000D01*
X4567143Y-13170714D01*
X4567143Y-13199286D01*
X4752857Y-13470714D02*
X4724286Y-13456429D01*
X4710000Y-13427857D01*
X4710000Y-13170714D01*
X4910000Y-13470714D02*
X4881428Y-13456429D01*
X4867143Y-13427857D01*
X4867143Y-13170714D01*
X5252857Y-13470714D02*
X5252857Y-13170714D01*
X5352857Y-13385000D01*
X5452857Y-13170714D01*
X5452857Y-13470714D01*
X5724285Y-13470714D02*
X5724285Y-13313572D01*
X5710000Y-13285000D01*
X5681428Y-13270714D01*
X5624285Y-13270714D01*
X5595714Y-13285000D01*
X5724285Y-13456429D02*
X5695714Y-13470714D01*
X5624285Y-13470714D01*
X5595714Y-13456429D01*
X5581428Y-13427857D01*
X5581428Y-13399286D01*
X5595714Y-13370714D01*
X5624285Y-13356429D01*
X5695714Y-13356429D01*
X5724285Y-13342143D01*
X5867143Y-13270714D02*
X5867143Y-13570714D01*
X5867143Y-13285000D02*
X5895714Y-13270714D01*
X5952857Y-13270714D01*
X5981428Y-13285000D01*
X5995714Y-13299286D01*
X6010000Y-13327857D01*
X6010000Y-13413572D01*
X5995714Y-13442143D01*
X5981428Y-13456429D01*
X5952857Y-13470714D01*
X5895714Y-13470714D01*
X5867143Y-13456429D01*
X6138571Y-13442143D02*
X6152857Y-13456429D01*
X6138571Y-13470714D01*
X6124285Y-13456429D01*
X6138571Y-13442143D01*
X6138571Y-13470714D01*
X6138571Y-13285000D02*
X6152857Y-13299286D01*
X6138571Y-13313572D01*
X6124285Y-13299286D01*
X6138571Y-13285000D01*
X6138571Y-13313572D01*
X3445000Y-13790000D02*
X3795000Y-14140000D01*
X3795000Y-13790000D02*
X3445000Y-14140000D01*
X4052857Y-13800714D02*
X4238571Y-13800714D01*
X4138571Y-13915000D01*
X4181428Y-13915000D01*
X4210000Y-13929286D01*
X4224286Y-13943572D01*
X4238571Y-13972143D01*
X4238571Y-14043572D01*
X4224286Y-14072143D01*
X4210000Y-14086429D01*
X4181428Y-14100714D01*
X4095714Y-14100714D01*
X4067143Y-14086429D01*
X4052857Y-14072143D01*
X4367143Y-14072143D02*
X4381428Y-14086429D01*
X4367143Y-14100714D01*
X4352857Y-14086429D01*
X4367143Y-14072143D01*
X4367143Y-14100714D01*
X4652857Y-13800714D02*
X4510000Y-13800714D01*
X4495714Y-13943572D01*
X4510000Y-13929286D01*
X4538571Y-13915000D01*
X4610000Y-13915000D01*
X4638571Y-13929286D01*
X4652857Y-13943572D01*
X4667143Y-13972143D01*
X4667143Y-14043572D01*
X4652857Y-14072143D01*
X4638571Y-14086429D01*
X4610000Y-14100714D01*
X4538571Y-14100714D01*
X4510000Y-14086429D01*
X4495714Y-14072143D01*
X4852857Y-13800714D02*
X4881428Y-13800714D01*
X4910000Y-13815000D01*
X4924286Y-13829286D01*
X4938571Y-13857857D01*
X4952857Y-13915000D01*
X4952857Y-13986429D01*
X4938571Y-14043572D01*
X4924286Y-14072143D01*
X4910000Y-14086429D01*
X4881428Y-14100714D01*
X4852857Y-14100714D01*
X4824286Y-14086429D01*
X4810000Y-14072143D01*
X4795714Y-14043572D01*
X4781428Y-13986429D01*
X4781428Y-13915000D01*
X4795714Y-13857857D01*
X4810000Y-13829286D01*
X4824286Y-13815000D01*
X4852857Y-13800714D01*
X5081428Y-14100714D02*
X5081428Y-13900714D01*
X5081428Y-13929286D02*
X5095714Y-13915000D01*
X5124286Y-13900714D01*
X5167143Y-13900714D01*
X5195714Y-13915000D01*
X5210000Y-13943572D01*
X5210000Y-14100714D01*
X5210000Y-13943572D02*
X5224286Y-13915000D01*
X5252857Y-13900714D01*
X5295714Y-13900714D01*
X5324286Y-13915000D01*
X5338571Y-13943572D01*
X5338571Y-14100714D01*
X5481428Y-14100714D02*
X5481428Y-13900714D01*
X5481428Y-13929286D02*
X5495714Y-13915000D01*
X5524286Y-13900714D01*
X5567143Y-13900714D01*
X5595714Y-13915000D01*
X5610000Y-13943572D01*
X5610000Y-14100714D01*
X5610000Y-13943572D02*
X5624285Y-13915000D01*
X5652857Y-13900714D01*
X5695714Y-13900714D01*
X5724285Y-13915000D01*
X5738571Y-13943572D01*
X5738571Y-14100714D01*
X6324285Y-13786429D02*
X6067143Y-14172143D01*
X6710000Y-13800714D02*
X6738571Y-13800714D01*
X6767143Y-13815000D01*
X6781428Y-13829286D01*
X6795714Y-13857857D01*
X6810000Y-13915000D01*
X6810000Y-13986429D01*
X6795714Y-14043572D01*
X6781428Y-14072143D01*
X6767143Y-14086429D01*
X6738571Y-14100714D01*
X6710000Y-14100714D01*
X6681428Y-14086429D01*
X6667143Y-14072143D01*
X6652857Y-14043572D01*
X6638571Y-13986429D01*
X6638571Y-13915000D01*
X6652857Y-13857857D01*
X6667143Y-13829286D01*
X6681428Y-13815000D01*
X6710000Y-13800714D01*
X6938571Y-14072143D02*
X6952857Y-14086429D01*
X6938571Y-14100714D01*
X6924285Y-14086429D01*
X6938571Y-14072143D01*
X6938571Y-14100714D01*
X7238571Y-14100714D02*
X7067143Y-14100714D01*
X7152857Y-14100714D02*
X7152857Y-13800714D01*
X7124285Y-13843572D01*
X7095714Y-13872143D01*
X7067143Y-13886429D01*
X7338571Y-13800714D02*
X7524285Y-13800714D01*
X7424285Y-13915000D01*
X7467143Y-13915000D01*
X7495714Y-13929286D01*
X7510000Y-13943572D01*
X7524285Y-13972143D01*
X7524285Y-14043572D01*
X7510000Y-14072143D01*
X7495714Y-14086429D01*
X7467143Y-14100714D01*
X7381428Y-14100714D01*
X7352857Y-14086429D01*
X7338571Y-14072143D01*
X7695714Y-13929286D02*
X7667143Y-13915000D01*
X7652857Y-13900714D01*
X7638571Y-13872143D01*
X7638571Y-13857857D01*
X7652857Y-13829286D01*
X7667143Y-13815000D01*
X7695714Y-13800714D01*
X7752857Y-13800714D01*
X7781428Y-13815000D01*
X7795714Y-13829286D01*
X7810000Y-13857857D01*
X7810000Y-13872143D01*
X7795714Y-13900714D01*
X7781428Y-13915000D01*
X7752857Y-13929286D01*
X7695714Y-13929286D01*
X7667143Y-13943572D01*
X7652857Y-13957857D01*
X7638571Y-13986429D01*
X7638571Y-14043572D01*
X7652857Y-14072143D01*
X7667143Y-14086429D01*
X7695714Y-14100714D01*
X7752857Y-14100714D01*
X7781428Y-14086429D01*
X7795714Y-14072143D01*
X7810000Y-14043572D01*
X7810000Y-13986429D01*
X7795714Y-13957857D01*
X7781428Y-13943572D01*
X7752857Y-13929286D01*
X7924285Y-13800714D02*
X7924285Y-13857857D01*
X8038571Y-13800714D02*
X8038571Y-13857857D01*
X8481428Y-14215000D02*
X8467143Y-14200714D01*
X8438571Y-14157857D01*
X8424286Y-14129286D01*
X8410000Y-14086429D01*
X8395714Y-14015000D01*
X8395714Y-13957857D01*
X8410000Y-13886429D01*
X8424286Y-13843572D01*
X8438571Y-13815000D01*
X8467143Y-13772143D01*
X8481428Y-13757857D01*
X8724286Y-13900714D02*
X8724286Y-14100714D01*
X8652857Y-13786429D02*
X8581428Y-14000714D01*
X8767143Y-14000714D01*
X9110000Y-14100714D02*
X9110000Y-13800714D01*
X9238571Y-14100714D02*
X9238571Y-13943572D01*
X9224286Y-13915000D01*
X9195714Y-13900714D01*
X9152857Y-13900714D01*
X9124286Y-13915000D01*
X9110000Y-13929286D01*
X9424286Y-14100714D02*
X9395714Y-14086429D01*
X9381428Y-14072143D01*
X9367143Y-14043572D01*
X9367143Y-13957857D01*
X9381428Y-13929286D01*
X9395714Y-13915000D01*
X9424286Y-13900714D01*
X9467143Y-13900714D01*
X9495714Y-13915000D01*
X9510000Y-13929286D01*
X9524286Y-13957857D01*
X9524286Y-14043572D01*
X9510000Y-14072143D01*
X9495714Y-14086429D01*
X9467143Y-14100714D01*
X9424286Y-14100714D01*
X9695714Y-14100714D02*
X9667143Y-14086429D01*
X9652857Y-14057857D01*
X9652857Y-13800714D01*
X9924286Y-14086429D02*
X9895714Y-14100714D01*
X9838571Y-14100714D01*
X9810000Y-14086429D01*
X9795714Y-14057857D01*
X9795714Y-13943572D01*
X9810000Y-13915000D01*
X9838571Y-13900714D01*
X9895714Y-13900714D01*
X9924286Y-13915000D01*
X9938571Y-13943572D01*
X9938571Y-13972143D01*
X9795714Y-14000714D01*
X10052857Y-14086429D02*
X10081428Y-14100714D01*
X10138571Y-14100714D01*
X10167143Y-14086429D01*
X10181428Y-14057857D01*
X10181428Y-14043572D01*
X10167143Y-14015000D01*
X10138571Y-14000714D01*
X10095714Y-14000714D01*
X10067143Y-13986429D01*
X10052857Y-13957857D01*
X10052857Y-13943572D01*
X10067143Y-13915000D01*
X10095714Y-13900714D01*
X10138571Y-13900714D01*
X10167143Y-13915000D01*
X10281428Y-14215000D02*
X10295714Y-14200714D01*
X10324286Y-14157857D01*
X10338571Y-14129286D01*
X10352857Y-14086429D01*
X10367143Y-14015000D01*
X10367143Y-13957857D01*
X10352857Y-13886429D01*
X10338571Y-13843572D01*
X10324286Y-13815000D01*
X10295714Y-13772143D01*
X10281428Y-13757857D01*
X10824286Y-14215000D02*
X10810000Y-14200714D01*
X10781428Y-14157857D01*
X10767143Y-14129286D01*
X10752857Y-14086429D01*
X10738571Y-14015000D01*
X10738571Y-13957857D01*
X10752857Y-13886429D01*
X10767143Y-13843572D01*
X10781428Y-13815000D01*
X10810000Y-13772143D01*
X10824286Y-13757857D01*
X10938571Y-13900714D02*
X10938571Y-14100714D01*
X10938571Y-13929286D02*
X10952857Y-13915000D01*
X10981428Y-13900714D01*
X11024286Y-13900714D01*
X11052857Y-13915000D01*
X11067143Y-13943572D01*
X11067143Y-14100714D01*
X11252857Y-14100714D02*
X11224285Y-14086429D01*
X11210000Y-14072143D01*
X11195714Y-14043572D01*
X11195714Y-13957857D01*
X11210000Y-13929286D01*
X11224285Y-13915000D01*
X11252857Y-13900714D01*
X11295714Y-13900714D01*
X11324285Y-13915000D01*
X11338571Y-13929286D01*
X11352857Y-13957857D01*
X11352857Y-14043572D01*
X11338571Y-14072143D01*
X11324285Y-14086429D01*
X11295714Y-14100714D01*
X11252857Y-14100714D01*
X11438571Y-13900714D02*
X11552857Y-13900714D01*
X11481428Y-13800714D02*
X11481428Y-14057857D01*
X11495714Y-14086429D01*
X11524285Y-14100714D01*
X11552857Y-14100714D01*
X11881428Y-13900714D02*
X11881428Y-14200714D01*
X11881428Y-13915000D02*
X11910000Y-13900714D01*
X11967143Y-13900714D01*
X11995714Y-13915000D01*
X12010000Y-13929286D01*
X12024285Y-13957857D01*
X12024285Y-14043572D01*
X12010000Y-14072143D01*
X11995714Y-14086429D01*
X11967143Y-14100714D01*
X11910000Y-14100714D01*
X11881428Y-14086429D01*
X12195714Y-14100714D02*
X12167143Y-14086429D01*
X12152857Y-14057857D01*
X12152857Y-13800714D01*
X12438571Y-14100714D02*
X12438571Y-13943572D01*
X12424285Y-13915000D01*
X12395714Y-13900714D01*
X12338571Y-13900714D01*
X12310000Y-13915000D01*
X12438571Y-14086429D02*
X12410000Y-14100714D01*
X12338571Y-14100714D01*
X12310000Y-14086429D01*
X12295714Y-14057857D01*
X12295714Y-14029286D01*
X12310000Y-14000714D01*
X12338571Y-13986429D01*
X12410000Y-13986429D01*
X12438571Y-13972143D01*
X12538571Y-13900714D02*
X12652857Y-13900714D01*
X12581428Y-13800714D02*
X12581428Y-14057857D01*
X12595714Y-14086429D01*
X12624285Y-14100714D01*
X12652857Y-14100714D01*
X12867143Y-14086429D02*
X12838571Y-14100714D01*
X12781428Y-14100714D01*
X12752857Y-14086429D01*
X12738571Y-14057857D01*
X12738571Y-13943572D01*
X12752857Y-13915000D01*
X12781428Y-13900714D01*
X12838571Y-13900714D01*
X12867143Y-13915000D01*
X12881428Y-13943572D01*
X12881428Y-13972143D01*
X12738571Y-14000714D01*
X13138571Y-14100714D02*
X13138571Y-13800714D01*
X13138571Y-14086429D02*
X13110000Y-14100714D01*
X13052857Y-14100714D01*
X13024285Y-14086429D01*
X13010000Y-14072143D01*
X12995714Y-14043572D01*
X12995714Y-13957857D01*
X13010000Y-13929286D01*
X13024285Y-13915000D01*
X13052857Y-13900714D01*
X13110000Y-13900714D01*
X13138571Y-13915000D01*
X13252857Y-14215000D02*
X13267143Y-14200714D01*
X13295714Y-14157857D01*
X13310000Y-14129286D01*
X13324285Y-14086429D01*
X13338571Y-14015000D01*
X13338571Y-13957857D01*
X13324285Y-13886429D01*
X13310000Y-13843572D01*
X13295714Y-13815000D01*
X13267143Y-13772143D01*
X13252857Y-13757857D01*
M02*
