%TF.GenerationSoftware,KiCad,Pcbnew,(5.1.0-1220-ga833aeeac)*%
%TF.CreationDate,2019-07-10T01:08:44+03:00*%
%TF.ProjectId,proto_II_panel,70726f74-6f5f-4494-995f-70616e656c2e,rev?*%
%TF.SameCoordinates,Original*%
%TF.FileFunction,Paste,Top*%
%TF.FilePolarity,Positive*%
%FSLAX46Y46*%
G04 Gerber Fmt 4.6, Leading zero omitted, Abs format (unit mm)*
G04 Created by KiCad (PCBNEW (5.1.0-1220-ga833aeeac)) date 2019-07-10 01:08:44*
%MOMM*%
%LPD*%
G04 APERTURE LIST*
%ADD10C,0.160000*%
%ADD11C,0.950000*%
%ADD12C,0.875000*%
%ADD13R,0.800000X0.900000*%
%ADD14C,1.425000*%
%ADD15R,4.000000X1.000000*%
%ADD16C,0.600000*%
%ADD17R,2.200000X1.600000*%
%ADD18C,1.676868*%
G04 APERTURE END LIST*
D10*
G36*
X82328387Y-63718079D02*
G01*
X82405438Y-63769562D01*
X82456921Y-63846613D01*
X82475000Y-63937500D01*
X82475000Y-64412500D01*
X82456921Y-64503387D01*
X82405438Y-64580438D01*
X82328387Y-64631921D01*
X82237500Y-64650000D01*
X81662500Y-64650000D01*
X81571613Y-64631921D01*
X81494562Y-64580438D01*
X81443079Y-64503387D01*
X81425000Y-64412500D01*
X81425000Y-63937500D01*
X81443079Y-63846613D01*
X81494562Y-63769562D01*
X81571613Y-63718079D01*
X81662500Y-63700000D01*
X82237500Y-63700000D01*
X82328387Y-63718079D01*
X82328387Y-63718079D01*
G37*
D11*
X81950000Y-64175000D03*
D10*
G36*
X84078387Y-63718079D02*
G01*
X84155438Y-63769562D01*
X84206921Y-63846613D01*
X84225000Y-63937500D01*
X84225000Y-64412500D01*
X84206921Y-64503387D01*
X84155438Y-64580438D01*
X84078387Y-64631921D01*
X83987500Y-64650000D01*
X83412500Y-64650000D01*
X83321613Y-64631921D01*
X83244562Y-64580438D01*
X83193079Y-64503387D01*
X83175000Y-64412500D01*
X83175000Y-63937500D01*
X83193079Y-63846613D01*
X83244562Y-63769562D01*
X83321613Y-63718079D01*
X83412500Y-63700000D01*
X83987500Y-63700000D01*
X84078387Y-63718079D01*
X84078387Y-63718079D01*
G37*
D11*
X83700000Y-64175000D03*
D10*
G36*
X82328387Y-62193079D02*
G01*
X82405438Y-62244562D01*
X82456921Y-62321613D01*
X82475000Y-62412500D01*
X82475000Y-62887500D01*
X82456921Y-62978387D01*
X82405438Y-63055438D01*
X82328387Y-63106921D01*
X82237500Y-63125000D01*
X81662500Y-63125000D01*
X81571613Y-63106921D01*
X81494562Y-63055438D01*
X81443079Y-62978387D01*
X81425000Y-62887500D01*
X81425000Y-62412500D01*
X81443079Y-62321613D01*
X81494562Y-62244562D01*
X81571613Y-62193079D01*
X81662500Y-62175000D01*
X82237500Y-62175000D01*
X82328387Y-62193079D01*
X82328387Y-62193079D01*
G37*
D11*
X81950000Y-62650000D03*
D10*
G36*
X84078387Y-62193079D02*
G01*
X84155438Y-62244562D01*
X84206921Y-62321613D01*
X84225000Y-62412500D01*
X84225000Y-62887500D01*
X84206921Y-62978387D01*
X84155438Y-63055438D01*
X84078387Y-63106921D01*
X83987500Y-63125000D01*
X83412500Y-63125000D01*
X83321613Y-63106921D01*
X83244562Y-63055438D01*
X83193079Y-62978387D01*
X83175000Y-62887500D01*
X83175000Y-62412500D01*
X83193079Y-62321613D01*
X83244562Y-62244562D01*
X83321613Y-62193079D01*
X83412500Y-62175000D01*
X83987500Y-62175000D01*
X84078387Y-62193079D01*
X84078387Y-62193079D01*
G37*
D11*
X83700000Y-62650000D03*
D10*
G36*
X87727463Y-59516651D02*
G01*
X87798431Y-59564070D01*
X87845850Y-59635038D01*
X87862501Y-59718750D01*
X87862501Y-60231250D01*
X87845850Y-60314962D01*
X87798431Y-60385930D01*
X87727463Y-60433349D01*
X87643751Y-60450000D01*
X87206251Y-60450000D01*
X87122539Y-60433349D01*
X87051571Y-60385930D01*
X87004152Y-60314962D01*
X86987501Y-60231250D01*
X86987501Y-59718750D01*
X87004152Y-59635038D01*
X87051571Y-59564070D01*
X87122539Y-59516651D01*
X87206251Y-59500000D01*
X87643751Y-59500000D01*
X87727463Y-59516651D01*
X87727463Y-59516651D01*
G37*
D12*
X87425001Y-59975000D03*
D10*
G36*
X89302463Y-59516651D02*
G01*
X89373431Y-59564070D01*
X89420850Y-59635038D01*
X89437501Y-59718750D01*
X89437501Y-60231250D01*
X89420850Y-60314962D01*
X89373431Y-60385930D01*
X89302463Y-60433349D01*
X89218751Y-60450000D01*
X88781251Y-60450000D01*
X88697539Y-60433349D01*
X88626571Y-60385930D01*
X88579152Y-60314962D01*
X88562501Y-60231250D01*
X88562501Y-59718750D01*
X88579152Y-59635038D01*
X88626571Y-59564070D01*
X88697539Y-59516651D01*
X88781251Y-59500000D01*
X89218751Y-59500000D01*
X89302463Y-59516651D01*
X89302463Y-59516651D01*
G37*
D12*
X89000001Y-59975000D03*
D10*
G36*
X89514962Y-64591651D02*
G01*
X89585930Y-64639070D01*
X89633349Y-64710038D01*
X89650000Y-64793750D01*
X89650000Y-65306250D01*
X89633349Y-65389962D01*
X89585930Y-65460930D01*
X89514962Y-65508349D01*
X89431250Y-65525000D01*
X88993750Y-65525000D01*
X88910038Y-65508349D01*
X88839070Y-65460930D01*
X88791651Y-65389962D01*
X88775000Y-65306250D01*
X88775000Y-64793750D01*
X88791651Y-64710038D01*
X88839070Y-64639070D01*
X88910038Y-64591651D01*
X88993750Y-64575000D01*
X89431250Y-64575000D01*
X89514962Y-64591651D01*
X89514962Y-64591651D01*
G37*
D12*
X89212500Y-65050000D03*
D10*
G36*
X87939962Y-64591651D02*
G01*
X88010930Y-64639070D01*
X88058349Y-64710038D01*
X88075000Y-64793750D01*
X88075000Y-65306250D01*
X88058349Y-65389962D01*
X88010930Y-65460930D01*
X87939962Y-65508349D01*
X87856250Y-65525000D01*
X87418750Y-65525000D01*
X87335038Y-65508349D01*
X87264070Y-65460930D01*
X87216651Y-65389962D01*
X87200000Y-65306250D01*
X87200000Y-64793750D01*
X87216651Y-64710038D01*
X87264070Y-64639070D01*
X87335038Y-64591651D01*
X87418750Y-64575000D01*
X87856250Y-64575000D01*
X87939962Y-64591651D01*
X87939962Y-64591651D01*
G37*
D12*
X87637500Y-65050000D03*
D13*
X87385356Y-63550000D03*
X89285356Y-63550000D03*
X88335356Y-61550000D03*
D10*
G36*
X86070671Y-60231530D02*
G01*
X86151777Y-60285723D01*
X86205970Y-60366829D01*
X86225000Y-60462500D01*
X86225000Y-61387500D01*
X86205970Y-61483171D01*
X86151777Y-61564277D01*
X86070671Y-61618470D01*
X85975000Y-61637500D01*
X84725000Y-61637500D01*
X84629329Y-61618470D01*
X84548223Y-61564277D01*
X84494030Y-61483171D01*
X84475000Y-61387500D01*
X84475000Y-60462500D01*
X84494030Y-60366829D01*
X84548223Y-60285723D01*
X84629329Y-60231530D01*
X84725000Y-60212500D01*
X85975000Y-60212500D01*
X86070671Y-60231530D01*
X86070671Y-60231530D01*
G37*
D14*
X85350000Y-60925000D03*
D10*
G36*
X86070671Y-57256530D02*
G01*
X86151777Y-57310723D01*
X86205970Y-57391829D01*
X86225000Y-57487500D01*
X86225000Y-58412500D01*
X86205970Y-58508171D01*
X86151777Y-58589277D01*
X86070671Y-58643470D01*
X85975000Y-58662500D01*
X84725000Y-58662500D01*
X84629329Y-58643470D01*
X84548223Y-58589277D01*
X84494030Y-58508171D01*
X84475000Y-58412500D01*
X84475000Y-57487500D01*
X84494030Y-57391829D01*
X84548223Y-57310723D01*
X84629329Y-57256530D01*
X84725000Y-57237500D01*
X85975000Y-57237500D01*
X86070671Y-57256530D01*
X86070671Y-57256530D01*
G37*
D14*
X85350000Y-57950000D03*
D15*
X78975000Y-62650000D03*
X78975000Y-64050000D03*
X85825000Y-68825000D03*
X85825000Y-67425000D03*
X61075000Y-67425000D03*
X61075000Y-68825000D03*
X54225000Y-64050000D03*
X54225000Y-62650000D03*
D10*
G36*
X61320671Y-57256530D02*
G01*
X61401777Y-57310723D01*
X61455970Y-57391829D01*
X61475000Y-57487500D01*
X61475000Y-58412500D01*
X61455970Y-58508171D01*
X61401777Y-58589277D01*
X61320671Y-58643470D01*
X61225000Y-58662500D01*
X59975000Y-58662500D01*
X59879329Y-58643470D01*
X59798223Y-58589277D01*
X59744030Y-58508171D01*
X59725000Y-58412500D01*
X59725000Y-57487500D01*
X59744030Y-57391829D01*
X59798223Y-57310723D01*
X59879329Y-57256530D01*
X59975000Y-57237500D01*
X61225000Y-57237500D01*
X61320671Y-57256530D01*
X61320671Y-57256530D01*
G37*
D14*
X60600000Y-57950000D03*
D10*
G36*
X61320671Y-60231530D02*
G01*
X61401777Y-60285723D01*
X61455970Y-60366829D01*
X61475000Y-60462500D01*
X61475000Y-61387500D01*
X61455970Y-61483171D01*
X61401777Y-61564277D01*
X61320671Y-61618470D01*
X61225000Y-61637500D01*
X59975000Y-61637500D01*
X59879329Y-61618470D01*
X59798223Y-61564277D01*
X59744030Y-61483171D01*
X59725000Y-61387500D01*
X59725000Y-60462500D01*
X59744030Y-60366829D01*
X59798223Y-60285723D01*
X59879329Y-60231530D01*
X59975000Y-60212500D01*
X61225000Y-60212500D01*
X61320671Y-60231530D01*
X61320671Y-60231530D01*
G37*
D14*
X60600000Y-60925000D03*
D13*
X63585356Y-61550000D03*
X64535356Y-63550000D03*
X62635356Y-63550000D03*
D10*
G36*
X63189962Y-64591651D02*
G01*
X63260930Y-64639070D01*
X63308349Y-64710038D01*
X63325000Y-64793750D01*
X63325000Y-65306250D01*
X63308349Y-65389962D01*
X63260930Y-65460930D01*
X63189962Y-65508349D01*
X63106250Y-65525000D01*
X62668750Y-65525000D01*
X62585038Y-65508349D01*
X62514070Y-65460930D01*
X62466651Y-65389962D01*
X62450000Y-65306250D01*
X62450000Y-64793750D01*
X62466651Y-64710038D01*
X62514070Y-64639070D01*
X62585038Y-64591651D01*
X62668750Y-64575000D01*
X63106250Y-64575000D01*
X63189962Y-64591651D01*
X63189962Y-64591651D01*
G37*
D12*
X62887500Y-65050000D03*
D10*
G36*
X64764962Y-64591651D02*
G01*
X64835930Y-64639070D01*
X64883349Y-64710038D01*
X64900000Y-64793750D01*
X64900000Y-65306250D01*
X64883349Y-65389962D01*
X64835930Y-65460930D01*
X64764962Y-65508349D01*
X64681250Y-65525000D01*
X64243750Y-65525000D01*
X64160038Y-65508349D01*
X64089070Y-65460930D01*
X64041651Y-65389962D01*
X64025000Y-65306250D01*
X64025000Y-64793750D01*
X64041651Y-64710038D01*
X64089070Y-64639070D01*
X64160038Y-64591651D01*
X64243750Y-64575000D01*
X64681250Y-64575000D01*
X64764962Y-64591651D01*
X64764962Y-64591651D01*
G37*
D12*
X64462500Y-65050000D03*
D10*
G36*
X64552463Y-59516651D02*
G01*
X64623431Y-59564070D01*
X64670850Y-59635038D01*
X64687501Y-59718750D01*
X64687501Y-60231250D01*
X64670850Y-60314962D01*
X64623431Y-60385930D01*
X64552463Y-60433349D01*
X64468751Y-60450000D01*
X64031251Y-60450000D01*
X63947539Y-60433349D01*
X63876571Y-60385930D01*
X63829152Y-60314962D01*
X63812501Y-60231250D01*
X63812501Y-59718750D01*
X63829152Y-59635038D01*
X63876571Y-59564070D01*
X63947539Y-59516651D01*
X64031251Y-59500000D01*
X64468751Y-59500000D01*
X64552463Y-59516651D01*
X64552463Y-59516651D01*
G37*
D12*
X64250001Y-59975000D03*
D10*
G36*
X62977463Y-59516651D02*
G01*
X63048431Y-59564070D01*
X63095850Y-59635038D01*
X63112501Y-59718750D01*
X63112501Y-60231250D01*
X63095850Y-60314962D01*
X63048431Y-60385930D01*
X62977463Y-60433349D01*
X62893751Y-60450000D01*
X62456251Y-60450000D01*
X62372539Y-60433349D01*
X62301571Y-60385930D01*
X62254152Y-60314962D01*
X62237501Y-60231250D01*
X62237501Y-59718750D01*
X62254152Y-59635038D01*
X62301571Y-59564070D01*
X62372539Y-59516651D01*
X62456251Y-59500000D01*
X62893751Y-59500000D01*
X62977463Y-59516651D01*
X62977463Y-59516651D01*
G37*
D12*
X62675001Y-59975000D03*
D10*
G36*
X59328387Y-62193079D02*
G01*
X59405438Y-62244562D01*
X59456921Y-62321613D01*
X59475000Y-62412500D01*
X59475000Y-62887500D01*
X59456921Y-62978387D01*
X59405438Y-63055438D01*
X59328387Y-63106921D01*
X59237500Y-63125000D01*
X58662500Y-63125000D01*
X58571613Y-63106921D01*
X58494562Y-63055438D01*
X58443079Y-62978387D01*
X58425000Y-62887500D01*
X58425000Y-62412500D01*
X58443079Y-62321613D01*
X58494562Y-62244562D01*
X58571613Y-62193079D01*
X58662500Y-62175000D01*
X59237500Y-62175000D01*
X59328387Y-62193079D01*
X59328387Y-62193079D01*
G37*
D11*
X58950000Y-62650000D03*
D10*
G36*
X57578387Y-62193079D02*
G01*
X57655438Y-62244562D01*
X57706921Y-62321613D01*
X57725000Y-62412500D01*
X57725000Y-62887500D01*
X57706921Y-62978387D01*
X57655438Y-63055438D01*
X57578387Y-63106921D01*
X57487500Y-63125000D01*
X56912500Y-63125000D01*
X56821613Y-63106921D01*
X56744562Y-63055438D01*
X56693079Y-62978387D01*
X56675000Y-62887500D01*
X56675000Y-62412500D01*
X56693079Y-62321613D01*
X56744562Y-62244562D01*
X56821613Y-62193079D01*
X56912500Y-62175000D01*
X57487500Y-62175000D01*
X57578387Y-62193079D01*
X57578387Y-62193079D01*
G37*
D11*
X57200000Y-62650000D03*
D10*
G36*
X59328387Y-63718079D02*
G01*
X59405438Y-63769562D01*
X59456921Y-63846613D01*
X59475000Y-63937500D01*
X59475000Y-64412500D01*
X59456921Y-64503387D01*
X59405438Y-64580438D01*
X59328387Y-64631921D01*
X59237500Y-64650000D01*
X58662500Y-64650000D01*
X58571613Y-64631921D01*
X58494562Y-64580438D01*
X58443079Y-64503387D01*
X58425000Y-64412500D01*
X58425000Y-63937500D01*
X58443079Y-63846613D01*
X58494562Y-63769562D01*
X58571613Y-63718079D01*
X58662500Y-63700000D01*
X59237500Y-63700000D01*
X59328387Y-63718079D01*
X59328387Y-63718079D01*
G37*
D11*
X58950000Y-64175000D03*
D10*
G36*
X57578387Y-63718079D02*
G01*
X57655438Y-63769562D01*
X57706921Y-63846613D01*
X57725000Y-63937500D01*
X57725000Y-64412500D01*
X57706921Y-64503387D01*
X57655438Y-64580438D01*
X57578387Y-64631921D01*
X57487500Y-64650000D01*
X56912500Y-64650000D01*
X56821613Y-64631921D01*
X56744562Y-64580438D01*
X56693079Y-64503387D01*
X56675000Y-64412500D01*
X56675000Y-63937500D01*
X56693079Y-63846613D01*
X56744562Y-63769562D01*
X56821613Y-63718079D01*
X56912500Y-63700000D01*
X57487500Y-63700000D01*
X57578387Y-63718079D01*
X57578387Y-63718079D01*
G37*
D11*
X57200000Y-64175000D03*
D10*
G36*
X83357403Y-91306418D02*
G01*
X83406066Y-91338934D01*
X83438582Y-91387597D01*
X83450000Y-91445000D01*
X83450000Y-91745000D01*
X83438582Y-91802403D01*
X83406066Y-91851066D01*
X83357403Y-91883582D01*
X83300000Y-91895000D01*
X81650000Y-91895000D01*
X81592597Y-91883582D01*
X81543934Y-91851066D01*
X81511418Y-91802403D01*
X81500000Y-91745000D01*
X81500000Y-91445000D01*
X81511418Y-91387597D01*
X81543934Y-91338934D01*
X81592597Y-91306418D01*
X81650000Y-91295000D01*
X83300000Y-91295000D01*
X83357403Y-91306418D01*
X83357403Y-91306418D01*
G37*
D16*
X82475000Y-91595000D03*
D10*
G36*
X83357403Y-92576418D02*
G01*
X83406066Y-92608934D01*
X83438582Y-92657597D01*
X83450000Y-92715000D01*
X83450000Y-93015000D01*
X83438582Y-93072403D01*
X83406066Y-93121066D01*
X83357403Y-93153582D01*
X83300000Y-93165000D01*
X81650000Y-93165000D01*
X81592597Y-93153582D01*
X81543934Y-93121066D01*
X81511418Y-93072403D01*
X81500000Y-93015000D01*
X81500000Y-92715000D01*
X81511418Y-92657597D01*
X81543934Y-92608934D01*
X81592597Y-92576418D01*
X81650000Y-92565000D01*
X83300000Y-92565000D01*
X83357403Y-92576418D01*
X83357403Y-92576418D01*
G37*
D16*
X82475000Y-92865000D03*
D10*
G36*
X83357403Y-93846418D02*
G01*
X83406066Y-93878934D01*
X83438582Y-93927597D01*
X83450000Y-93985000D01*
X83450000Y-94285000D01*
X83438582Y-94342403D01*
X83406066Y-94391066D01*
X83357403Y-94423582D01*
X83300000Y-94435000D01*
X81650000Y-94435000D01*
X81592597Y-94423582D01*
X81543934Y-94391066D01*
X81511418Y-94342403D01*
X81500000Y-94285000D01*
X81500000Y-93985000D01*
X81511418Y-93927597D01*
X81543934Y-93878934D01*
X81592597Y-93846418D01*
X81650000Y-93835000D01*
X83300000Y-93835000D01*
X83357403Y-93846418D01*
X83357403Y-93846418D01*
G37*
D16*
X82475000Y-94135000D03*
D10*
G36*
X83357403Y-95116418D02*
G01*
X83406066Y-95148934D01*
X83438582Y-95197597D01*
X83450000Y-95255000D01*
X83450000Y-95555000D01*
X83438582Y-95612403D01*
X83406066Y-95661066D01*
X83357403Y-95693582D01*
X83300000Y-95705000D01*
X81650000Y-95705000D01*
X81592597Y-95693582D01*
X81543934Y-95661066D01*
X81511418Y-95612403D01*
X81500000Y-95555000D01*
X81500000Y-95255000D01*
X81511418Y-95197597D01*
X81543934Y-95148934D01*
X81592597Y-95116418D01*
X81650000Y-95105000D01*
X83300000Y-95105000D01*
X83357403Y-95116418D01*
X83357403Y-95116418D01*
G37*
D16*
X82475000Y-95405000D03*
D10*
G36*
X78407403Y-95116418D02*
G01*
X78456066Y-95148934D01*
X78488582Y-95197597D01*
X78500000Y-95255000D01*
X78500000Y-95555000D01*
X78488582Y-95612403D01*
X78456066Y-95661066D01*
X78407403Y-95693582D01*
X78350000Y-95705000D01*
X76700000Y-95705000D01*
X76642597Y-95693582D01*
X76593934Y-95661066D01*
X76561418Y-95612403D01*
X76550000Y-95555000D01*
X76550000Y-95255000D01*
X76561418Y-95197597D01*
X76593934Y-95148934D01*
X76642597Y-95116418D01*
X76700000Y-95105000D01*
X78350000Y-95105000D01*
X78407403Y-95116418D01*
X78407403Y-95116418D01*
G37*
D16*
X77525000Y-95405000D03*
D10*
G36*
X78407403Y-93846418D02*
G01*
X78456066Y-93878934D01*
X78488582Y-93927597D01*
X78500000Y-93985000D01*
X78500000Y-94285000D01*
X78488582Y-94342403D01*
X78456066Y-94391066D01*
X78407403Y-94423582D01*
X78350000Y-94435000D01*
X76700000Y-94435000D01*
X76642597Y-94423582D01*
X76593934Y-94391066D01*
X76561418Y-94342403D01*
X76550000Y-94285000D01*
X76550000Y-93985000D01*
X76561418Y-93927597D01*
X76593934Y-93878934D01*
X76642597Y-93846418D01*
X76700000Y-93835000D01*
X78350000Y-93835000D01*
X78407403Y-93846418D01*
X78407403Y-93846418D01*
G37*
D16*
X77525000Y-94135000D03*
D10*
G36*
X78407403Y-92576418D02*
G01*
X78456066Y-92608934D01*
X78488582Y-92657597D01*
X78500000Y-92715000D01*
X78500000Y-93015000D01*
X78488582Y-93072403D01*
X78456066Y-93121066D01*
X78407403Y-93153582D01*
X78350000Y-93165000D01*
X76700000Y-93165000D01*
X76642597Y-93153582D01*
X76593934Y-93121066D01*
X76561418Y-93072403D01*
X76550000Y-93015000D01*
X76550000Y-92715000D01*
X76561418Y-92657597D01*
X76593934Y-92608934D01*
X76642597Y-92576418D01*
X76700000Y-92565000D01*
X78350000Y-92565000D01*
X78407403Y-92576418D01*
X78407403Y-92576418D01*
G37*
D16*
X77525000Y-92865000D03*
D10*
G36*
X78407403Y-91306418D02*
G01*
X78456066Y-91338934D01*
X78488582Y-91387597D01*
X78500000Y-91445000D01*
X78500000Y-91745000D01*
X78488582Y-91802403D01*
X78456066Y-91851066D01*
X78407403Y-91883582D01*
X78350000Y-91895000D01*
X76700000Y-91895000D01*
X76642597Y-91883582D01*
X76593934Y-91851066D01*
X76561418Y-91802403D01*
X76550000Y-91745000D01*
X76550000Y-91445000D01*
X76561418Y-91387597D01*
X76593934Y-91338934D01*
X76642597Y-91306418D01*
X76700000Y-91295000D01*
X78350000Y-91295000D01*
X78407403Y-91306418D01*
X78407403Y-91306418D01*
G37*
D16*
X77525000Y-91595000D03*
D10*
G36*
X87578387Y-93643079D02*
G01*
X87655438Y-93694562D01*
X87706921Y-93771613D01*
X87725000Y-93862500D01*
X87725000Y-94437500D01*
X87706921Y-94528387D01*
X87655438Y-94605438D01*
X87578387Y-94656921D01*
X87487500Y-94675000D01*
X87012500Y-94675000D01*
X86921613Y-94656921D01*
X86844562Y-94605438D01*
X86793079Y-94528387D01*
X86775000Y-94437500D01*
X86775000Y-93862500D01*
X86793079Y-93771613D01*
X86844562Y-93694562D01*
X86921613Y-93643079D01*
X87012500Y-93625000D01*
X87487500Y-93625000D01*
X87578387Y-93643079D01*
X87578387Y-93643079D01*
G37*
D11*
X87250000Y-94150000D03*
D10*
G36*
X87578387Y-95393079D02*
G01*
X87655438Y-95444562D01*
X87706921Y-95521613D01*
X87725000Y-95612500D01*
X87725000Y-96187500D01*
X87706921Y-96278387D01*
X87655438Y-96355438D01*
X87578387Y-96406921D01*
X87487500Y-96425000D01*
X87012500Y-96425000D01*
X86921613Y-96406921D01*
X86844562Y-96355438D01*
X86793079Y-96278387D01*
X86775000Y-96187500D01*
X86775000Y-95612500D01*
X86793079Y-95521613D01*
X86844562Y-95444562D01*
X86921613Y-95393079D01*
X87012500Y-95375000D01*
X87487500Y-95375000D01*
X87578387Y-95393079D01*
X87578387Y-95393079D01*
G37*
D11*
X87250000Y-95900000D03*
D10*
G36*
X67583171Y-96394030D02*
G01*
X67664277Y-96448223D01*
X67718470Y-96529329D01*
X67737500Y-96625000D01*
X67737500Y-97875000D01*
X67718470Y-97970671D01*
X67664277Y-98051777D01*
X67583171Y-98105970D01*
X67487500Y-98125000D01*
X66562500Y-98125000D01*
X66466829Y-98105970D01*
X66385723Y-98051777D01*
X66331530Y-97970671D01*
X66312500Y-97875000D01*
X66312500Y-96625000D01*
X66331530Y-96529329D01*
X66385723Y-96448223D01*
X66466829Y-96394030D01*
X66562500Y-96375000D01*
X67487500Y-96375000D01*
X67583171Y-96394030D01*
X67583171Y-96394030D01*
G37*
D14*
X67025000Y-97250000D03*
D10*
G36*
X70558171Y-96394030D02*
G01*
X70639277Y-96448223D01*
X70693470Y-96529329D01*
X70712500Y-96625000D01*
X70712500Y-97875000D01*
X70693470Y-97970671D01*
X70639277Y-98051777D01*
X70558171Y-98105970D01*
X70462500Y-98125000D01*
X69537500Y-98125000D01*
X69441829Y-98105970D01*
X69360723Y-98051777D01*
X69306530Y-97970671D01*
X69287500Y-97875000D01*
X69287500Y-96625000D01*
X69306530Y-96529329D01*
X69360723Y-96448223D01*
X69441829Y-96394030D01*
X69537500Y-96375000D01*
X70462500Y-96375000D01*
X70558171Y-96394030D01*
X70558171Y-96394030D01*
G37*
D14*
X70000000Y-97250000D03*
D10*
G36*
X89278387Y-93643079D02*
G01*
X89355438Y-93694562D01*
X89406921Y-93771613D01*
X89425000Y-93862500D01*
X89425000Y-94437500D01*
X89406921Y-94528387D01*
X89355438Y-94605438D01*
X89278387Y-94656921D01*
X89187500Y-94675000D01*
X88712500Y-94675000D01*
X88621613Y-94656921D01*
X88544562Y-94605438D01*
X88493079Y-94528387D01*
X88475000Y-94437500D01*
X88475000Y-93862500D01*
X88493079Y-93771613D01*
X88544562Y-93694562D01*
X88621613Y-93643079D01*
X88712500Y-93625000D01*
X89187500Y-93625000D01*
X89278387Y-93643079D01*
X89278387Y-93643079D01*
G37*
D11*
X88950000Y-94150000D03*
D10*
G36*
X89278387Y-95393079D02*
G01*
X89355438Y-95444562D01*
X89406921Y-95521613D01*
X89425000Y-95612500D01*
X89425000Y-96187500D01*
X89406921Y-96278387D01*
X89355438Y-96355438D01*
X89278387Y-96406921D01*
X89187500Y-96425000D01*
X88712500Y-96425000D01*
X88621613Y-96406921D01*
X88544562Y-96355438D01*
X88493079Y-96278387D01*
X88475000Y-96187500D01*
X88475000Y-95612500D01*
X88493079Y-95521613D01*
X88544562Y-95444562D01*
X88621613Y-95393079D01*
X88712500Y-95375000D01*
X89187500Y-95375000D01*
X89278387Y-95393079D01*
X89278387Y-95393079D01*
G37*
D11*
X88950000Y-95900000D03*
D10*
G36*
X70558171Y-93894030D02*
G01*
X70639277Y-93948223D01*
X70693470Y-94029329D01*
X70712500Y-94125000D01*
X70712500Y-95375000D01*
X70693470Y-95470671D01*
X70639277Y-95551777D01*
X70558171Y-95605970D01*
X70462500Y-95625000D01*
X69537500Y-95625000D01*
X69441829Y-95605970D01*
X69360723Y-95551777D01*
X69306530Y-95470671D01*
X69287500Y-95375000D01*
X69287500Y-94125000D01*
X69306530Y-94029329D01*
X69360723Y-93948223D01*
X69441829Y-93894030D01*
X69537500Y-93875000D01*
X70462500Y-93875000D01*
X70558171Y-93894030D01*
X70558171Y-93894030D01*
G37*
D14*
X70000000Y-94750000D03*
D10*
G36*
X67583171Y-93894030D02*
G01*
X67664277Y-93948223D01*
X67718470Y-94029329D01*
X67737500Y-94125000D01*
X67737500Y-95375000D01*
X67718470Y-95470671D01*
X67664277Y-95551777D01*
X67583171Y-95605970D01*
X67487500Y-95625000D01*
X66562500Y-95625000D01*
X66466829Y-95605970D01*
X66385723Y-95551777D01*
X66331530Y-95470671D01*
X66312500Y-95375000D01*
X66312500Y-94125000D01*
X66331530Y-94029329D01*
X66385723Y-93948223D01*
X66466829Y-93894030D01*
X66562500Y-93875000D01*
X67487500Y-93875000D01*
X67583171Y-93894030D01*
X67583171Y-93894030D01*
G37*
D14*
X67025000Y-94750000D03*
D10*
G36*
X91028387Y-95393079D02*
G01*
X91105438Y-95444562D01*
X91156921Y-95521613D01*
X91175000Y-95612500D01*
X91175000Y-96187500D01*
X91156921Y-96278387D01*
X91105438Y-96355438D01*
X91028387Y-96406921D01*
X90937500Y-96425000D01*
X90462500Y-96425000D01*
X90371613Y-96406921D01*
X90294562Y-96355438D01*
X90243079Y-96278387D01*
X90225000Y-96187500D01*
X90225000Y-95612500D01*
X90243079Y-95521613D01*
X90294562Y-95444562D01*
X90371613Y-95393079D01*
X90462500Y-95375000D01*
X90937500Y-95375000D01*
X91028387Y-95393079D01*
X91028387Y-95393079D01*
G37*
D11*
X90700000Y-95900000D03*
D10*
G36*
X91028387Y-93643079D02*
G01*
X91105438Y-93694562D01*
X91156921Y-93771613D01*
X91175000Y-93862500D01*
X91175000Y-94437500D01*
X91156921Y-94528387D01*
X91105438Y-94605438D01*
X91028387Y-94656921D01*
X90937500Y-94675000D01*
X90462500Y-94675000D01*
X90371613Y-94656921D01*
X90294562Y-94605438D01*
X90243079Y-94528387D01*
X90225000Y-94437500D01*
X90225000Y-93862500D01*
X90243079Y-93771613D01*
X90294562Y-93694562D01*
X90371613Y-93643079D01*
X90462500Y-93625000D01*
X90937500Y-93625000D01*
X91028387Y-93643079D01*
X91028387Y-93643079D01*
G37*
D11*
X90700000Y-94150000D03*
D17*
X89550000Y-88650000D03*
X89550000Y-82250000D03*
D18*
X77825000Y-87400000D03*
D10*
G36*
X76025000Y-88550000D02*
G01*
X76025000Y-86250000D01*
X79625000Y-86850000D01*
X79625000Y-87950000D01*
X76025000Y-88550000D01*
X76025000Y-88550000D01*
G37*
D18*
X83625000Y-87400000D03*
D10*
G36*
X85425000Y-86250000D02*
G01*
X85425000Y-88550000D01*
X81825000Y-87950000D01*
X81825000Y-86850000D01*
X85425000Y-86250000D01*
X85425000Y-86250000D01*
G37*
G36*
X85753387Y-93643079D02*
G01*
X85830438Y-93694562D01*
X85881921Y-93771613D01*
X85900000Y-93862500D01*
X85900000Y-94437500D01*
X85881921Y-94528387D01*
X85830438Y-94605438D01*
X85753387Y-94656921D01*
X85662500Y-94675000D01*
X85187500Y-94675000D01*
X85096613Y-94656921D01*
X85019562Y-94605438D01*
X84968079Y-94528387D01*
X84950000Y-94437500D01*
X84950000Y-93862500D01*
X84968079Y-93771613D01*
X85019562Y-93694562D01*
X85096613Y-93643079D01*
X85187500Y-93625000D01*
X85662500Y-93625000D01*
X85753387Y-93643079D01*
X85753387Y-93643079D01*
G37*
D11*
X85425000Y-94150000D03*
D10*
G36*
X85753387Y-95393079D02*
G01*
X85830438Y-95444562D01*
X85881921Y-95521613D01*
X85900000Y-95612500D01*
X85900000Y-96187500D01*
X85881921Y-96278387D01*
X85830438Y-96355438D01*
X85753387Y-96406921D01*
X85662500Y-96425000D01*
X85187500Y-96425000D01*
X85096613Y-96406921D01*
X85019562Y-96355438D01*
X84968079Y-96278387D01*
X84950000Y-96187500D01*
X84950000Y-95612500D01*
X84968079Y-95521613D01*
X85019562Y-95444562D01*
X85096613Y-95393079D01*
X85187500Y-95375000D01*
X85662500Y-95375000D01*
X85753387Y-95393079D01*
X85753387Y-95393079D01*
G37*
D11*
X85425000Y-95900000D03*
D10*
G36*
X73583171Y-96644030D02*
G01*
X73664277Y-96698223D01*
X73718470Y-96779329D01*
X73737500Y-96875000D01*
X73737500Y-98125000D01*
X73718470Y-98220671D01*
X73664277Y-98301777D01*
X73583171Y-98355970D01*
X73487500Y-98375000D01*
X72562500Y-98375000D01*
X72466829Y-98355970D01*
X72385723Y-98301777D01*
X72331530Y-98220671D01*
X72312500Y-98125000D01*
X72312500Y-96875000D01*
X72331530Y-96779329D01*
X72385723Y-96698223D01*
X72466829Y-96644030D01*
X72562500Y-96625000D01*
X73487500Y-96625000D01*
X73583171Y-96644030D01*
X73583171Y-96644030D01*
G37*
D14*
X73025000Y-97500000D03*
D10*
G36*
X76558171Y-96644030D02*
G01*
X76639277Y-96698223D01*
X76693470Y-96779329D01*
X76712500Y-96875000D01*
X76712500Y-98125000D01*
X76693470Y-98220671D01*
X76639277Y-98301777D01*
X76558171Y-98355970D01*
X76462500Y-98375000D01*
X75537500Y-98375000D01*
X75441829Y-98355970D01*
X75360723Y-98301777D01*
X75306530Y-98220671D01*
X75287500Y-98125000D01*
X75287500Y-96875000D01*
X75306530Y-96779329D01*
X75360723Y-96698223D01*
X75441829Y-96644030D01*
X75537500Y-96625000D01*
X76462500Y-96625000D01*
X76558171Y-96644030D01*
X76558171Y-96644030D01*
G37*
D14*
X76000000Y-97500000D03*
D10*
G36*
X87603387Y-97093079D02*
G01*
X87680438Y-97144562D01*
X87731921Y-97221613D01*
X87750000Y-97312500D01*
X87750000Y-97787500D01*
X87731921Y-97878387D01*
X87680438Y-97955438D01*
X87603387Y-98006921D01*
X87512500Y-98025000D01*
X86937500Y-98025000D01*
X86846613Y-98006921D01*
X86769562Y-97955438D01*
X86718079Y-97878387D01*
X86700000Y-97787500D01*
X86700000Y-97312500D01*
X86718079Y-97221613D01*
X86769562Y-97144562D01*
X86846613Y-97093079D01*
X86937500Y-97075000D01*
X87512500Y-97075000D01*
X87603387Y-97093079D01*
X87603387Y-97093079D01*
G37*
D11*
X87225000Y-97550000D03*
D10*
G36*
X85853387Y-97093079D02*
G01*
X85930438Y-97144562D01*
X85981921Y-97221613D01*
X86000000Y-97312500D01*
X86000000Y-97787500D01*
X85981921Y-97878387D01*
X85930438Y-97955438D01*
X85853387Y-98006921D01*
X85762500Y-98025000D01*
X85187500Y-98025000D01*
X85096613Y-98006921D01*
X85019562Y-97955438D01*
X84968079Y-97878387D01*
X84950000Y-97787500D01*
X84950000Y-97312500D01*
X84968079Y-97221613D01*
X85019562Y-97144562D01*
X85096613Y-97093079D01*
X85187500Y-97075000D01*
X85762500Y-97075000D01*
X85853387Y-97093079D01*
X85853387Y-97093079D01*
G37*
D11*
X85475000Y-97550000D03*
D10*
G36*
X85778387Y-90043079D02*
G01*
X85855438Y-90094562D01*
X85906921Y-90171613D01*
X85925000Y-90262500D01*
X85925000Y-90737500D01*
X85906921Y-90828387D01*
X85855438Y-90905438D01*
X85778387Y-90956921D01*
X85687500Y-90975000D01*
X85112500Y-90975000D01*
X85021613Y-90956921D01*
X84944562Y-90905438D01*
X84893079Y-90828387D01*
X84875000Y-90737500D01*
X84875000Y-90262500D01*
X84893079Y-90171613D01*
X84944562Y-90094562D01*
X85021613Y-90043079D01*
X85112500Y-90025000D01*
X85687500Y-90025000D01*
X85778387Y-90043079D01*
X85778387Y-90043079D01*
G37*
D11*
X85400000Y-90500000D03*
D10*
G36*
X87528387Y-90043079D02*
G01*
X87605438Y-90094562D01*
X87656921Y-90171613D01*
X87675000Y-90262500D01*
X87675000Y-90737500D01*
X87656921Y-90828387D01*
X87605438Y-90905438D01*
X87528387Y-90956921D01*
X87437500Y-90975000D01*
X86862500Y-90975000D01*
X86771613Y-90956921D01*
X86694562Y-90905438D01*
X86643079Y-90828387D01*
X86625000Y-90737500D01*
X86625000Y-90262500D01*
X86643079Y-90171613D01*
X86694562Y-90094562D01*
X86771613Y-90043079D01*
X86862500Y-90025000D01*
X87437500Y-90025000D01*
X87528387Y-90043079D01*
X87528387Y-90043079D01*
G37*
D11*
X87150000Y-90500000D03*
M02*
