%TF.GenerationSoftware,KiCad,Pcbnew,(5.1.0-1220-ga833aeeac)*%
%TF.CreationDate,2019-07-10T01:08:44+03:00*%
%TF.ProjectId,proto_II_panel,70726f74-6f5f-4494-995f-70616e656c2e,rev?*%
%TF.SameCoordinates,Original*%
%TF.FileFunction,Legend,Top*%
%TF.FilePolarity,Positive*%
%FSLAX46Y46*%
G04 Gerber Fmt 4.6, Leading zero omitted, Abs format (unit mm)*
G04 Created by KiCad (PCBNEW (5.1.0-1220-ga833aeeac)) date 2019-07-10 01:08:44*
%MOMM*%
%LPD*%
G04 APERTURE LIST*
%ADD10C,0.150000*%
%ADD11C,0.120000*%
%ADD12C,0.400000*%
%ADD13C,0.500000*%
%ADD14C,0.160000*%
%ADD15C,0.950000*%
%ADD16C,0.875000*%
%ADD17R,0.800000X0.900000*%
%ADD18C,1.000000*%
%ADD19C,1.425000*%
%ADD20R,4.000000X1.000000*%
%ADD21C,0.650000*%
%ADD22C,0.600000*%
%ADD23R,2.200000X1.600000*%
%ADD24C,1.524000*%
%ADD25C,1.676868*%
%ADD26C,1.600000*%
G04 APERTURE END LIST*
D10*
X80900000Y-54550000D02*
G75*
G03X80900000Y-54550000I-100000J0D01*
G01*
X86700000Y-54550000D02*
G75*
G03X86700000Y-54550000I-100000J0D01*
G01*
X86600000Y-56050000D02*
G75*
G02X86600000Y-53050000I0J1500000D01*
G01*
X80800000Y-53050000D02*
G75*
G02X80800000Y-56050000I0J-1500000D01*
G01*
X86650000Y-72350000D02*
G75*
G03X86650000Y-72350000I-100000J0D01*
G01*
X80850000Y-72350000D02*
G75*
G03X80850000Y-72350000I-100000J0D01*
G01*
X80750000Y-70850000D02*
G75*
G02X80750000Y-73850000I0J-1500000D01*
G01*
X86550000Y-73850000D02*
G75*
G02X86550000Y-70850000I0J1500000D01*
G01*
D11*
X82653733Y-64685000D02*
X82996267Y-64685000D01*
X82653733Y-63665000D02*
X82996267Y-63665000D01*
X82653733Y-63160000D02*
X82996267Y-63160000D01*
X82653733Y-62140000D02*
X82996267Y-62140000D01*
X88049722Y-60485000D02*
X88375280Y-60485000D01*
X88049722Y-59465000D02*
X88375280Y-59465000D01*
X88587779Y-64540000D02*
X88262221Y-64540000D01*
X88587779Y-65560000D02*
X88262221Y-65560000D01*
X89915356Y-61790000D02*
X89915356Y-63250000D01*
X86755356Y-61790000D02*
X86755356Y-63950000D01*
X86755356Y-61790000D02*
X87685356Y-61790000D01*
X89915356Y-61790000D02*
X88985356Y-61790000D01*
X86260000Y-60039564D02*
X86260000Y-58835436D01*
X84440000Y-60039564D02*
X84440000Y-58835436D01*
D10*
X56050000Y-53050000D02*
G75*
G02X56050000Y-56050000I0J-1500000D01*
G01*
X61850000Y-56050000D02*
G75*
G02X61850000Y-53050000I0J1500000D01*
G01*
X61950000Y-54550000D02*
G75*
G03X61950000Y-54550000I-100000J0D01*
G01*
X56150000Y-54550000D02*
G75*
G03X56150000Y-54550000I-100000J0D01*
G01*
X61800000Y-73850000D02*
G75*
G02X61800000Y-70850000I0J1500000D01*
G01*
X56000000Y-70850000D02*
G75*
G02X56000000Y-73850000I0J-1500000D01*
G01*
X56100000Y-72350000D02*
G75*
G03X56100000Y-72350000I-100000J0D01*
G01*
X61900000Y-72350000D02*
G75*
G03X61900000Y-72350000I-100000J0D01*
G01*
D11*
X59690000Y-60039564D02*
X59690000Y-58835436D01*
X61510000Y-60039564D02*
X61510000Y-58835436D01*
X65165356Y-61790000D02*
X64235356Y-61790000D01*
X62005356Y-61790000D02*
X62935356Y-61790000D01*
X62005356Y-61790000D02*
X62005356Y-63950000D01*
X65165356Y-61790000D02*
X65165356Y-63250000D01*
X63837779Y-65560000D02*
X63512221Y-65560000D01*
X63837779Y-64540000D02*
X63512221Y-64540000D01*
X63299722Y-59465000D02*
X63625280Y-59465000D01*
X63299722Y-60485000D02*
X63625280Y-60485000D01*
X57903733Y-62140000D02*
X58246267Y-62140000D01*
X57903733Y-63160000D02*
X58246267Y-63160000D01*
X57903733Y-63665000D02*
X58246267Y-63665000D01*
X57903733Y-64685000D02*
X58246267Y-64685000D01*
D10*
X74000000Y-100500000D02*
G75*
G02X74000000Y-104500000I0J-2000000D01*
G01*
X82000000Y-104500000D02*
G75*
G02X82000000Y-100500000I0J2000000D01*
G01*
X82000000Y-80500000D02*
G75*
G02X82000000Y-76500000I0J2000000D01*
G01*
X74000000Y-76500000D02*
G75*
G02X74000000Y-80500000I0J-2000000D01*
G01*
X109000000Y-94500000D02*
G75*
G02X113000000Y-94500000I2000000J0D01*
G01*
X113000000Y-86500000D02*
G75*
G02X109000000Y-86500000I-2000000J0D01*
G01*
X52000000Y-86500000D02*
G75*
G02X48000000Y-86500000I-2000000J0D01*
G01*
X48000000Y-94500000D02*
G75*
G02X52000000Y-94500000I2000000J0D01*
G01*
D11*
X80000000Y-90940000D02*
X76550000Y-90940000D01*
X80000000Y-90940000D02*
X81950000Y-90940000D01*
X80000000Y-96060000D02*
X78050000Y-96060000D01*
X80000000Y-96060000D02*
X81950000Y-96060000D01*
X87760000Y-95196267D02*
X87760000Y-94853733D01*
X86740000Y-95196267D02*
X86740000Y-94853733D01*
X69114564Y-96340000D02*
X67910436Y-96340000D01*
X69114564Y-98160000D02*
X67910436Y-98160000D01*
X89460000Y-95196267D02*
X89460000Y-94853733D01*
X88440000Y-95196267D02*
X88440000Y-94853733D01*
X67910436Y-95660000D02*
X69114564Y-95660000D01*
X67910436Y-93840000D02*
X69114564Y-93840000D01*
X90190000Y-94853733D02*
X90190000Y-95196267D01*
X91210000Y-94853733D02*
X91210000Y-95196267D01*
D10*
X85850000Y-81250000D02*
X93250000Y-81250000D01*
X93250000Y-89650000D02*
X85850000Y-89650000D01*
X93250000Y-81250000D02*
X93250000Y-89650000D01*
X85850000Y-89650000D02*
X85850000Y-81250000D01*
X58000000Y-84500000D02*
X58000000Y-85500000D01*
X60000000Y-84500000D02*
X58000000Y-84500000D01*
X60000000Y-85500000D02*
X60000000Y-84500000D01*
X61000000Y-85500000D02*
X52000000Y-85500000D01*
X52000000Y-85500000D02*
X52000000Y-93000000D01*
X61000000Y-85500000D02*
X61000000Y-93000000D01*
D12*
X58200000Y-88000000D02*
G75*
G03X58200000Y-88000000I-200000J0D01*
G01*
D10*
X57000000Y-90500000D02*
X53500000Y-90500000D01*
X53500000Y-90500000D02*
X54000000Y-90000000D01*
X54000000Y-90000000D02*
X53500000Y-90500000D01*
X53500000Y-90500000D02*
X54000000Y-91000000D01*
X103000000Y-96500000D02*
X103000000Y-95500000D01*
X101000000Y-96500000D02*
X103000000Y-96500000D01*
X101000000Y-95500000D02*
X101000000Y-96500000D01*
X100000000Y-95500000D02*
X109000000Y-95500000D01*
X109000000Y-95500000D02*
X109000000Y-88000000D01*
X100000000Y-95500000D02*
X100000000Y-88000000D01*
D12*
X103200000Y-93000000D02*
G75*
G03X103200000Y-93000000I-200000J0D01*
G01*
D10*
X104000000Y-90500000D02*
X107500000Y-90500000D01*
X107500000Y-90500000D02*
X107000000Y-91000000D01*
X107000000Y-91000000D02*
X107500000Y-90500000D01*
X107500000Y-90500000D02*
X107000000Y-90000000D01*
D11*
X85575000Y-89550000D02*
X78025000Y-89550000D01*
X85575000Y-85250000D02*
X78025000Y-85250000D01*
X85575000Y-89550000D02*
X85575000Y-85250000D01*
X85935000Y-95196267D02*
X85935000Y-94853733D01*
X84915000Y-95196267D02*
X84915000Y-94853733D01*
X75114564Y-96590000D02*
X73910436Y-96590000D01*
X75114564Y-98410000D02*
X73910436Y-98410000D01*
X86178733Y-98060000D02*
X86521267Y-98060000D01*
X86178733Y-97040000D02*
X86521267Y-97040000D01*
X75370000Y-90325000D02*
G75*
G03X75370000Y-90325000I-3270000J0D01*
G01*
X68270000Y-90300000D02*
G75*
G03X68270000Y-90300000I-3270000J0D01*
G01*
X71795000Y-84225000D02*
G75*
G03X71795000Y-84225000I-3270000J0D01*
G01*
X99070000Y-89125000D02*
G75*
G03X99070000Y-89125000I-2620000J0D01*
G01*
X99120000Y-83375000D02*
G75*
G03X99120000Y-83375000I-2620000J0D01*
G01*
X86446267Y-89990000D02*
X86103733Y-89990000D01*
X86446267Y-91010000D02*
X86103733Y-91010000D01*
D10*
X81458333Y-66102380D02*
X81125000Y-65626190D01*
X80886904Y-66102380D02*
X80886904Y-65102380D01*
X81267857Y-65102380D01*
X81363095Y-65150000D01*
X81410714Y-65197619D01*
X81458333Y-65292857D01*
X81458333Y-65435714D01*
X81410714Y-65530952D01*
X81363095Y-65578571D01*
X81267857Y-65626190D01*
X80886904Y-65626190D01*
X82315476Y-65435714D02*
X82315476Y-66102380D01*
X82077380Y-65054761D02*
X81839285Y-65769047D01*
X82458333Y-65769047D01*
X81333333Y-61752380D02*
X81000000Y-61276190D01*
X80761904Y-61752380D02*
X80761904Y-60752380D01*
X81142857Y-60752380D01*
X81238095Y-60800000D01*
X81285714Y-60847619D01*
X81333333Y-60942857D01*
X81333333Y-61085714D01*
X81285714Y-61180952D01*
X81238095Y-61228571D01*
X81142857Y-61276190D01*
X80761904Y-61276190D01*
X81666666Y-60752380D02*
X82285714Y-60752380D01*
X81952380Y-61133333D01*
X82095238Y-61133333D01*
X82190476Y-61180952D01*
X82238095Y-61228571D01*
X82285714Y-61323809D01*
X82285714Y-61561904D01*
X82238095Y-61657142D01*
X82190476Y-61704761D01*
X82095238Y-61752380D01*
X81809523Y-61752380D01*
X81714285Y-61704761D01*
X81666666Y-61657142D01*
X87783333Y-58932142D02*
X87735714Y-58979761D01*
X87592857Y-59027380D01*
X87497619Y-59027380D01*
X87354761Y-58979761D01*
X87259523Y-58884523D01*
X87211904Y-58789285D01*
X87164285Y-58598809D01*
X87164285Y-58455952D01*
X87211904Y-58265476D01*
X87259523Y-58170238D01*
X87354761Y-58075000D01*
X87497619Y-58027380D01*
X87592857Y-58027380D01*
X87735714Y-58075000D01*
X87783333Y-58122619D01*
X88354761Y-58455952D02*
X88259523Y-58408333D01*
X88211904Y-58360714D01*
X88164285Y-58265476D01*
X88164285Y-58217857D01*
X88211904Y-58122619D01*
X88259523Y-58075000D01*
X88354761Y-58027380D01*
X88545238Y-58027380D01*
X88640476Y-58075000D01*
X88688095Y-58122619D01*
X88735714Y-58217857D01*
X88735714Y-58265476D01*
X88688095Y-58360714D01*
X88640476Y-58408333D01*
X88545238Y-58455952D01*
X88354761Y-58455952D01*
X88259523Y-58503571D01*
X88211904Y-58551190D01*
X88164285Y-58646428D01*
X88164285Y-58836904D01*
X88211904Y-58932142D01*
X88259523Y-58979761D01*
X88354761Y-59027380D01*
X88545238Y-59027380D01*
X88640476Y-58979761D01*
X88688095Y-58932142D01*
X88735714Y-58836904D01*
X88735714Y-58646428D01*
X88688095Y-58551190D01*
X88640476Y-58503571D01*
X88545238Y-58455952D01*
X88833333Y-66882142D02*
X88785714Y-66929761D01*
X88642857Y-66977380D01*
X88547619Y-66977380D01*
X88404761Y-66929761D01*
X88309523Y-66834523D01*
X88261904Y-66739285D01*
X88214285Y-66548809D01*
X88214285Y-66405952D01*
X88261904Y-66215476D01*
X88309523Y-66120238D01*
X88404761Y-66025000D01*
X88547619Y-65977380D01*
X88642857Y-65977380D01*
X88785714Y-66025000D01*
X88833333Y-66072619D01*
X89309523Y-66977380D02*
X89500000Y-66977380D01*
X89595238Y-66929761D01*
X89642857Y-66882142D01*
X89738095Y-66739285D01*
X89785714Y-66548809D01*
X89785714Y-66167857D01*
X89738095Y-66072619D01*
X89690476Y-66025000D01*
X89595238Y-65977380D01*
X89404761Y-65977380D01*
X89309523Y-66025000D01*
X89261904Y-66072619D01*
X89214285Y-66167857D01*
X89214285Y-66405952D01*
X89261904Y-66501190D01*
X89309523Y-66548809D01*
X89404761Y-66596428D01*
X89595238Y-66596428D01*
X89690476Y-66548809D01*
X89738095Y-66501190D01*
X89785714Y-66405952D01*
X85502380Y-63961904D02*
X86311904Y-63961904D01*
X86407142Y-63914285D01*
X86454761Y-63866666D01*
X86502380Y-63771428D01*
X86502380Y-63580952D01*
X86454761Y-63485714D01*
X86407142Y-63438095D01*
X86311904Y-63390476D01*
X85502380Y-63390476D01*
X86502380Y-62390476D02*
X86502380Y-62961904D01*
X86502380Y-62676190D02*
X85502380Y-62676190D01*
X85645238Y-62771428D01*
X85740476Y-62866666D01*
X85788095Y-62961904D01*
X83887142Y-59604166D02*
X83934761Y-59651785D01*
X83982380Y-59794642D01*
X83982380Y-59889880D01*
X83934761Y-60032738D01*
X83839523Y-60127976D01*
X83744285Y-60175595D01*
X83553809Y-60223214D01*
X83410952Y-60223214D01*
X83220476Y-60175595D01*
X83125238Y-60127976D01*
X83030000Y-60032738D01*
X82982380Y-59889880D01*
X82982380Y-59794642D01*
X83030000Y-59651785D01*
X83077619Y-59604166D01*
X82982380Y-59270833D02*
X82982380Y-58604166D01*
X83982380Y-59032738D01*
X78841666Y-60777380D02*
X78841666Y-61491666D01*
X78794047Y-61634523D01*
X78698809Y-61729761D01*
X78555952Y-61777380D01*
X78460714Y-61777380D01*
X79270238Y-60872619D02*
X79317857Y-60825000D01*
X79413095Y-60777380D01*
X79651190Y-60777380D01*
X79746428Y-60825000D01*
X79794047Y-60872619D01*
X79841666Y-60967857D01*
X79841666Y-61063095D01*
X79794047Y-61205952D01*
X79222619Y-61777380D01*
X79841666Y-61777380D01*
X85116666Y-65427380D02*
X85116666Y-66141666D01*
X85069047Y-66284523D01*
X84973809Y-66379761D01*
X84830952Y-66427380D01*
X84735714Y-66427380D01*
X86116666Y-66427380D02*
X85545238Y-66427380D01*
X85830952Y-66427380D02*
X85830952Y-65427380D01*
X85735714Y-65570238D01*
X85640476Y-65665476D01*
X85545238Y-65713095D01*
X60366666Y-65427380D02*
X60366666Y-66141666D01*
X60319047Y-66284523D01*
X60223809Y-66379761D01*
X60080952Y-66427380D01*
X59985714Y-66427380D01*
X61366666Y-66427380D02*
X60795238Y-66427380D01*
X61080952Y-66427380D02*
X61080952Y-65427380D01*
X60985714Y-65570238D01*
X60890476Y-65665476D01*
X60795238Y-65713095D01*
X54091666Y-60777380D02*
X54091666Y-61491666D01*
X54044047Y-61634523D01*
X53948809Y-61729761D01*
X53805952Y-61777380D01*
X53710714Y-61777380D01*
X54520238Y-60872619D02*
X54567857Y-60825000D01*
X54663095Y-60777380D01*
X54901190Y-60777380D01*
X54996428Y-60825000D01*
X55044047Y-60872619D01*
X55091666Y-60967857D01*
X55091666Y-61063095D01*
X55044047Y-61205952D01*
X54472619Y-61777380D01*
X55091666Y-61777380D01*
X59137142Y-59604166D02*
X59184761Y-59651785D01*
X59232380Y-59794642D01*
X59232380Y-59889880D01*
X59184761Y-60032738D01*
X59089523Y-60127976D01*
X58994285Y-60175595D01*
X58803809Y-60223214D01*
X58660952Y-60223214D01*
X58470476Y-60175595D01*
X58375238Y-60127976D01*
X58280000Y-60032738D01*
X58232380Y-59889880D01*
X58232380Y-59794642D01*
X58280000Y-59651785D01*
X58327619Y-59604166D01*
X58232380Y-59270833D02*
X58232380Y-58604166D01*
X59232380Y-59032738D01*
X60752380Y-63961904D02*
X61561904Y-63961904D01*
X61657142Y-63914285D01*
X61704761Y-63866666D01*
X61752380Y-63771428D01*
X61752380Y-63580952D01*
X61704761Y-63485714D01*
X61657142Y-63438095D01*
X61561904Y-63390476D01*
X60752380Y-63390476D01*
X61752380Y-62390476D02*
X61752380Y-62961904D01*
X61752380Y-62676190D02*
X60752380Y-62676190D01*
X60895238Y-62771428D01*
X60990476Y-62866666D01*
X61038095Y-62961904D01*
X64083333Y-66882142D02*
X64035714Y-66929761D01*
X63892857Y-66977380D01*
X63797619Y-66977380D01*
X63654761Y-66929761D01*
X63559523Y-66834523D01*
X63511904Y-66739285D01*
X63464285Y-66548809D01*
X63464285Y-66405952D01*
X63511904Y-66215476D01*
X63559523Y-66120238D01*
X63654761Y-66025000D01*
X63797619Y-65977380D01*
X63892857Y-65977380D01*
X64035714Y-66025000D01*
X64083333Y-66072619D01*
X64559523Y-66977380D02*
X64750000Y-66977380D01*
X64845238Y-66929761D01*
X64892857Y-66882142D01*
X64988095Y-66739285D01*
X65035714Y-66548809D01*
X65035714Y-66167857D01*
X64988095Y-66072619D01*
X64940476Y-66025000D01*
X64845238Y-65977380D01*
X64654761Y-65977380D01*
X64559523Y-66025000D01*
X64511904Y-66072619D01*
X64464285Y-66167857D01*
X64464285Y-66405952D01*
X64511904Y-66501190D01*
X64559523Y-66548809D01*
X64654761Y-66596428D01*
X64845238Y-66596428D01*
X64940476Y-66548809D01*
X64988095Y-66501190D01*
X65035714Y-66405952D01*
X63033333Y-58932142D02*
X62985714Y-58979761D01*
X62842857Y-59027380D01*
X62747619Y-59027380D01*
X62604761Y-58979761D01*
X62509523Y-58884523D01*
X62461904Y-58789285D01*
X62414285Y-58598809D01*
X62414285Y-58455952D01*
X62461904Y-58265476D01*
X62509523Y-58170238D01*
X62604761Y-58075000D01*
X62747619Y-58027380D01*
X62842857Y-58027380D01*
X62985714Y-58075000D01*
X63033333Y-58122619D01*
X63604761Y-58455952D02*
X63509523Y-58408333D01*
X63461904Y-58360714D01*
X63414285Y-58265476D01*
X63414285Y-58217857D01*
X63461904Y-58122619D01*
X63509523Y-58075000D01*
X63604761Y-58027380D01*
X63795238Y-58027380D01*
X63890476Y-58075000D01*
X63938095Y-58122619D01*
X63985714Y-58217857D01*
X63985714Y-58265476D01*
X63938095Y-58360714D01*
X63890476Y-58408333D01*
X63795238Y-58455952D01*
X63604761Y-58455952D01*
X63509523Y-58503571D01*
X63461904Y-58551190D01*
X63414285Y-58646428D01*
X63414285Y-58836904D01*
X63461904Y-58932142D01*
X63509523Y-58979761D01*
X63604761Y-59027380D01*
X63795238Y-59027380D01*
X63890476Y-58979761D01*
X63938095Y-58932142D01*
X63985714Y-58836904D01*
X63985714Y-58646428D01*
X63938095Y-58551190D01*
X63890476Y-58503571D01*
X63795238Y-58455952D01*
X56583333Y-61752380D02*
X56250000Y-61276190D01*
X56011904Y-61752380D02*
X56011904Y-60752380D01*
X56392857Y-60752380D01*
X56488095Y-60800000D01*
X56535714Y-60847619D01*
X56583333Y-60942857D01*
X56583333Y-61085714D01*
X56535714Y-61180952D01*
X56488095Y-61228571D01*
X56392857Y-61276190D01*
X56011904Y-61276190D01*
X56916666Y-60752380D02*
X57535714Y-60752380D01*
X57202380Y-61133333D01*
X57345238Y-61133333D01*
X57440476Y-61180952D01*
X57488095Y-61228571D01*
X57535714Y-61323809D01*
X57535714Y-61561904D01*
X57488095Y-61657142D01*
X57440476Y-61704761D01*
X57345238Y-61752380D01*
X57059523Y-61752380D01*
X56964285Y-61704761D01*
X56916666Y-61657142D01*
X56708333Y-66102380D02*
X56375000Y-65626190D01*
X56136904Y-66102380D02*
X56136904Y-65102380D01*
X56517857Y-65102380D01*
X56613095Y-65150000D01*
X56660714Y-65197619D01*
X56708333Y-65292857D01*
X56708333Y-65435714D01*
X56660714Y-65530952D01*
X56613095Y-65578571D01*
X56517857Y-65626190D01*
X56136904Y-65626190D01*
X57565476Y-65435714D02*
X57565476Y-66102380D01*
X57327380Y-65054761D02*
X57089285Y-65769047D01*
X57708333Y-65769047D01*
X79238095Y-89752380D02*
X79238095Y-90561904D01*
X79285714Y-90657142D01*
X79333333Y-90704761D01*
X79428571Y-90752380D01*
X79619047Y-90752380D01*
X79714285Y-90704761D01*
X79761904Y-90657142D01*
X79809523Y-90561904D01*
X79809523Y-89752380D01*
X80809523Y-90752380D02*
X80238095Y-90752380D01*
X80523809Y-90752380D02*
X80523809Y-89752380D01*
X80428571Y-89895238D01*
X80333333Y-89990476D01*
X80238095Y-90038095D01*
X87827380Y-92566666D02*
X87351190Y-92900000D01*
X87827380Y-93138095D02*
X86827380Y-93138095D01*
X86827380Y-92757142D01*
X86875000Y-92661904D01*
X86922619Y-92614285D01*
X87017857Y-92566666D01*
X87160714Y-92566666D01*
X87255952Y-92614285D01*
X87303571Y-92661904D01*
X87351190Y-92757142D01*
X87351190Y-93138095D01*
X86827380Y-91661904D02*
X86827380Y-92138095D01*
X87303571Y-92185714D01*
X87255952Y-92138095D01*
X87208333Y-92042857D01*
X87208333Y-91804761D01*
X87255952Y-91709523D01*
X87303571Y-91661904D01*
X87398809Y-91614285D01*
X87636904Y-91614285D01*
X87732142Y-91661904D01*
X87779761Y-91709523D01*
X87827380Y-91804761D01*
X87827380Y-92042857D01*
X87779761Y-92138095D01*
X87732142Y-92185714D01*
X64570833Y-97802380D02*
X64237500Y-97326190D01*
X63999404Y-97802380D02*
X63999404Y-96802380D01*
X64380357Y-96802380D01*
X64475595Y-96850000D01*
X64523214Y-96897619D01*
X64570833Y-96992857D01*
X64570833Y-97135714D01*
X64523214Y-97230952D01*
X64475595Y-97278571D01*
X64380357Y-97326190D01*
X63999404Y-97326190D01*
X65427976Y-97135714D02*
X65427976Y-97802380D01*
X65189880Y-96754761D02*
X64951785Y-97469047D01*
X65570833Y-97469047D01*
X89377380Y-92591666D02*
X88901190Y-92925000D01*
X89377380Y-93163095D02*
X88377380Y-93163095D01*
X88377380Y-92782142D01*
X88425000Y-92686904D01*
X88472619Y-92639285D01*
X88567857Y-92591666D01*
X88710714Y-92591666D01*
X88805952Y-92639285D01*
X88853571Y-92686904D01*
X88901190Y-92782142D01*
X88901190Y-93163095D01*
X88377380Y-92258333D02*
X88377380Y-91639285D01*
X88758333Y-91972619D01*
X88758333Y-91829761D01*
X88805952Y-91734523D01*
X88853571Y-91686904D01*
X88948809Y-91639285D01*
X89186904Y-91639285D01*
X89282142Y-91686904D01*
X89329761Y-91734523D01*
X89377380Y-91829761D01*
X89377380Y-92115476D01*
X89329761Y-92210714D01*
X89282142Y-92258333D01*
X64645833Y-95352380D02*
X64312500Y-94876190D01*
X64074404Y-95352380D02*
X64074404Y-94352380D01*
X64455357Y-94352380D01*
X64550595Y-94400000D01*
X64598214Y-94447619D01*
X64645833Y-94542857D01*
X64645833Y-94685714D01*
X64598214Y-94780952D01*
X64550595Y-94828571D01*
X64455357Y-94876190D01*
X64074404Y-94876190D01*
X65026785Y-94447619D02*
X65074404Y-94400000D01*
X65169642Y-94352380D01*
X65407738Y-94352380D01*
X65502976Y-94400000D01*
X65550595Y-94447619D01*
X65598214Y-94542857D01*
X65598214Y-94638095D01*
X65550595Y-94780952D01*
X64979166Y-95352380D01*
X65598214Y-95352380D01*
X91052380Y-92541666D02*
X90576190Y-92875000D01*
X91052380Y-93113095D02*
X90052380Y-93113095D01*
X90052380Y-92732142D01*
X90100000Y-92636904D01*
X90147619Y-92589285D01*
X90242857Y-92541666D01*
X90385714Y-92541666D01*
X90480952Y-92589285D01*
X90528571Y-92636904D01*
X90576190Y-92732142D01*
X90576190Y-93113095D01*
X91052380Y-91589285D02*
X91052380Y-92160714D01*
X91052380Y-91875000D02*
X90052380Y-91875000D01*
X90195238Y-91970238D01*
X90290476Y-92065476D01*
X90338095Y-92160714D01*
X84783333Y-82552380D02*
X84307142Y-82552380D01*
X84307142Y-81552380D01*
X85640476Y-82552380D02*
X85069047Y-82552380D01*
X85354761Y-82552380D02*
X85354761Y-81552380D01*
X85259523Y-81695238D01*
X85164285Y-81790476D01*
X85069047Y-81838095D01*
X56041666Y-83952380D02*
X56041666Y-84666666D01*
X55994047Y-84809523D01*
X55898809Y-84904761D01*
X55755952Y-84952380D01*
X55660714Y-84952380D01*
X56470238Y-84047619D02*
X56517857Y-84000000D01*
X56613095Y-83952380D01*
X56851190Y-83952380D01*
X56946428Y-84000000D01*
X56994047Y-84047619D01*
X57041666Y-84142857D01*
X57041666Y-84238095D01*
X56994047Y-84380952D01*
X56422619Y-84952380D01*
X57041666Y-84952380D01*
X104666666Y-83952380D02*
X104666666Y-84666666D01*
X104619047Y-84809523D01*
X104523809Y-84904761D01*
X104380952Y-84952380D01*
X104285714Y-84952380D01*
X105666666Y-84952380D02*
X105095238Y-84952380D01*
X105380952Y-84952380D02*
X105380952Y-83952380D01*
X105285714Y-84095238D01*
X105190476Y-84190476D01*
X105095238Y-84238095D01*
X79786904Y-84777380D02*
X79786904Y-83777380D01*
X80025000Y-83777380D01*
X80167857Y-83825000D01*
X80263095Y-83920238D01*
X80310714Y-84015476D01*
X80358333Y-84205952D01*
X80358333Y-84348809D01*
X80310714Y-84539285D01*
X80263095Y-84634523D01*
X80167857Y-84729761D01*
X80025000Y-84777380D01*
X79786904Y-84777380D01*
X81310714Y-84777380D02*
X80739285Y-84777380D01*
X81025000Y-84777380D02*
X81025000Y-83777380D01*
X80929761Y-83920238D01*
X80834523Y-84015476D01*
X80739285Y-84063095D01*
X85882142Y-92641666D02*
X85929761Y-92689285D01*
X85977380Y-92832142D01*
X85977380Y-92927380D01*
X85929761Y-93070238D01*
X85834523Y-93165476D01*
X85739285Y-93213095D01*
X85548809Y-93260714D01*
X85405952Y-93260714D01*
X85215476Y-93213095D01*
X85120238Y-93165476D01*
X85025000Y-93070238D01*
X84977380Y-92927380D01*
X84977380Y-92832142D01*
X85025000Y-92689285D01*
X85072619Y-92641666D01*
X85977380Y-92165476D02*
X85977380Y-91975000D01*
X85929761Y-91879761D01*
X85882142Y-91832142D01*
X85739285Y-91736904D01*
X85548809Y-91689285D01*
X85167857Y-91689285D01*
X85072619Y-91736904D01*
X85025000Y-91784523D01*
X84977380Y-91879761D01*
X84977380Y-92070238D01*
X85025000Y-92165476D01*
X85072619Y-92213095D01*
X85167857Y-92260714D01*
X85405952Y-92260714D01*
X85501190Y-92213095D01*
X85548809Y-92165476D01*
X85596428Y-92070238D01*
X85596428Y-91879761D01*
X85548809Y-91784523D01*
X85501190Y-91736904D01*
X85405952Y-91689285D01*
X74370833Y-96057142D02*
X74323214Y-96104761D01*
X74180357Y-96152380D01*
X74085119Y-96152380D01*
X73942261Y-96104761D01*
X73847023Y-96009523D01*
X73799404Y-95914285D01*
X73751785Y-95723809D01*
X73751785Y-95580952D01*
X73799404Y-95390476D01*
X73847023Y-95295238D01*
X73942261Y-95200000D01*
X74085119Y-95152380D01*
X74180357Y-95152380D01*
X74323214Y-95200000D01*
X74370833Y-95247619D01*
X74942261Y-95580952D02*
X74847023Y-95533333D01*
X74799404Y-95485714D01*
X74751785Y-95390476D01*
X74751785Y-95342857D01*
X74799404Y-95247619D01*
X74847023Y-95200000D01*
X74942261Y-95152380D01*
X75132738Y-95152380D01*
X75227976Y-95200000D01*
X75275595Y-95247619D01*
X75323214Y-95342857D01*
X75323214Y-95390476D01*
X75275595Y-95485714D01*
X75227976Y-95533333D01*
X75132738Y-95580952D01*
X74942261Y-95580952D01*
X74847023Y-95628571D01*
X74799404Y-95676190D01*
X74751785Y-95771428D01*
X74751785Y-95961904D01*
X74799404Y-96057142D01*
X74847023Y-96104761D01*
X74942261Y-96152380D01*
X75132738Y-96152380D01*
X75227976Y-96104761D01*
X75275595Y-96057142D01*
X75323214Y-95961904D01*
X75323214Y-95771428D01*
X75275595Y-95676190D01*
X75227976Y-95628571D01*
X75132738Y-95580952D01*
X86183333Y-99432142D02*
X86135714Y-99479761D01*
X85992857Y-99527380D01*
X85897619Y-99527380D01*
X85754761Y-99479761D01*
X85659523Y-99384523D01*
X85611904Y-99289285D01*
X85564285Y-99098809D01*
X85564285Y-98955952D01*
X85611904Y-98765476D01*
X85659523Y-98670238D01*
X85754761Y-98575000D01*
X85897619Y-98527380D01*
X85992857Y-98527380D01*
X86135714Y-98575000D01*
X86183333Y-98622619D01*
X86516666Y-98527380D02*
X87183333Y-98527380D01*
X86754761Y-99527380D01*
X73173333Y-86347142D02*
X73125714Y-86394761D01*
X72982857Y-86442380D01*
X72887619Y-86442380D01*
X72744761Y-86394761D01*
X72649523Y-86299523D01*
X72601904Y-86204285D01*
X72554285Y-86013809D01*
X72554285Y-85870952D01*
X72601904Y-85680476D01*
X72649523Y-85585238D01*
X72744761Y-85490000D01*
X72887619Y-85442380D01*
X72982857Y-85442380D01*
X73125714Y-85490000D01*
X73173333Y-85537619D01*
X74030476Y-85442380D02*
X73840000Y-85442380D01*
X73744761Y-85490000D01*
X73697142Y-85537619D01*
X73601904Y-85680476D01*
X73554285Y-85870952D01*
X73554285Y-86251904D01*
X73601904Y-86347142D01*
X73649523Y-86394761D01*
X73744761Y-86442380D01*
X73935238Y-86442380D01*
X74030476Y-86394761D01*
X74078095Y-86347142D01*
X74125714Y-86251904D01*
X74125714Y-86013809D01*
X74078095Y-85918571D01*
X74030476Y-85870952D01*
X73935238Y-85823333D01*
X73744761Y-85823333D01*
X73649523Y-85870952D01*
X73601904Y-85918571D01*
X73554285Y-86013809D01*
X62433333Y-86857142D02*
X62385714Y-86904761D01*
X62242857Y-86952380D01*
X62147619Y-86952380D01*
X62004761Y-86904761D01*
X61909523Y-86809523D01*
X61861904Y-86714285D01*
X61814285Y-86523809D01*
X61814285Y-86380952D01*
X61861904Y-86190476D01*
X61909523Y-86095238D01*
X62004761Y-86000000D01*
X62147619Y-85952380D01*
X62242857Y-85952380D01*
X62385714Y-86000000D01*
X62433333Y-86047619D01*
X63338095Y-85952380D02*
X62861904Y-85952380D01*
X62814285Y-86428571D01*
X62861904Y-86380952D01*
X62957142Y-86333333D01*
X63195238Y-86333333D01*
X63290476Y-86380952D01*
X63338095Y-86428571D01*
X63385714Y-86523809D01*
X63385714Y-86761904D01*
X63338095Y-86857142D01*
X63290476Y-86904761D01*
X63195238Y-86952380D01*
X62957142Y-86952380D01*
X62861904Y-86904761D01*
X62814285Y-86857142D01*
X64058333Y-82457142D02*
X64010714Y-82504761D01*
X63867857Y-82552380D01*
X63772619Y-82552380D01*
X63629761Y-82504761D01*
X63534523Y-82409523D01*
X63486904Y-82314285D01*
X63439285Y-82123809D01*
X63439285Y-81980952D01*
X63486904Y-81790476D01*
X63534523Y-81695238D01*
X63629761Y-81600000D01*
X63772619Y-81552380D01*
X63867857Y-81552380D01*
X64010714Y-81600000D01*
X64058333Y-81647619D01*
X64915476Y-81885714D02*
X64915476Y-82552380D01*
X64677380Y-81504761D02*
X64439285Y-82219047D01*
X65058333Y-82219047D01*
X96308333Y-93107142D02*
X96260714Y-93154761D01*
X96117857Y-93202380D01*
X96022619Y-93202380D01*
X95879761Y-93154761D01*
X95784523Y-93059523D01*
X95736904Y-92964285D01*
X95689285Y-92773809D01*
X95689285Y-92630952D01*
X95736904Y-92440476D01*
X95784523Y-92345238D01*
X95879761Y-92250000D01*
X96022619Y-92202380D01*
X96117857Y-92202380D01*
X96260714Y-92250000D01*
X96308333Y-92297619D01*
X96641666Y-92202380D02*
X97260714Y-92202380D01*
X96927380Y-92583333D01*
X97070238Y-92583333D01*
X97165476Y-92630952D01*
X97213095Y-92678571D01*
X97260714Y-92773809D01*
X97260714Y-93011904D01*
X97213095Y-93107142D01*
X97165476Y-93154761D01*
X97070238Y-93202380D01*
X96784523Y-93202380D01*
X96689285Y-93154761D01*
X96641666Y-93107142D01*
X100258333Y-83657142D02*
X100210714Y-83704761D01*
X100067857Y-83752380D01*
X99972619Y-83752380D01*
X99829761Y-83704761D01*
X99734523Y-83609523D01*
X99686904Y-83514285D01*
X99639285Y-83323809D01*
X99639285Y-83180952D01*
X99686904Y-82990476D01*
X99734523Y-82895238D01*
X99829761Y-82800000D01*
X99972619Y-82752380D01*
X100067857Y-82752380D01*
X100210714Y-82800000D01*
X100258333Y-82847619D01*
X100639285Y-82847619D02*
X100686904Y-82800000D01*
X100782142Y-82752380D01*
X101020238Y-82752380D01*
X101115476Y-82800000D01*
X101163095Y-82847619D01*
X101210714Y-82942857D01*
X101210714Y-83038095D01*
X101163095Y-83180952D01*
X100591666Y-83752380D01*
X101210714Y-83752380D01*
X88833333Y-90707142D02*
X88785714Y-90754761D01*
X88642857Y-90802380D01*
X88547619Y-90802380D01*
X88404761Y-90754761D01*
X88309523Y-90659523D01*
X88261904Y-90564285D01*
X88214285Y-90373809D01*
X88214285Y-90230952D01*
X88261904Y-90040476D01*
X88309523Y-89945238D01*
X88404761Y-89850000D01*
X88547619Y-89802380D01*
X88642857Y-89802380D01*
X88785714Y-89850000D01*
X88833333Y-89897619D01*
X89785714Y-90802380D02*
X89214285Y-90802380D01*
X89500000Y-90802380D02*
X89500000Y-89802380D01*
X89404761Y-89945238D01*
X89309523Y-90040476D01*
X89214285Y-90088095D01*
%LPC*%
D13*
X83700000Y-56050000D03*
X84400000Y-56050000D03*
X85100000Y-56050000D03*
X83000000Y-56050000D03*
X82300000Y-56050000D03*
X85050000Y-70850000D03*
X84350000Y-70850000D03*
X82250000Y-70850000D03*
X82950000Y-70850000D03*
X83650000Y-70850000D03*
D14*
G36*
X82328387Y-63718079D02*
G01*
X82405438Y-63769562D01*
X82456921Y-63846613D01*
X82475000Y-63937500D01*
X82475000Y-64412500D01*
X82456921Y-64503387D01*
X82405438Y-64580438D01*
X82328387Y-64631921D01*
X82237500Y-64650000D01*
X81662500Y-64650000D01*
X81571613Y-64631921D01*
X81494562Y-64580438D01*
X81443079Y-64503387D01*
X81425000Y-64412500D01*
X81425000Y-63937500D01*
X81443079Y-63846613D01*
X81494562Y-63769562D01*
X81571613Y-63718079D01*
X81662500Y-63700000D01*
X82237500Y-63700000D01*
X82328387Y-63718079D01*
X82328387Y-63718079D01*
G37*
D15*
X81950000Y-64175000D03*
D14*
G36*
X84078387Y-63718079D02*
G01*
X84155438Y-63769562D01*
X84206921Y-63846613D01*
X84225000Y-63937500D01*
X84225000Y-64412500D01*
X84206921Y-64503387D01*
X84155438Y-64580438D01*
X84078387Y-64631921D01*
X83987500Y-64650000D01*
X83412500Y-64650000D01*
X83321613Y-64631921D01*
X83244562Y-64580438D01*
X83193079Y-64503387D01*
X83175000Y-64412500D01*
X83175000Y-63937500D01*
X83193079Y-63846613D01*
X83244562Y-63769562D01*
X83321613Y-63718079D01*
X83412500Y-63700000D01*
X83987500Y-63700000D01*
X84078387Y-63718079D01*
X84078387Y-63718079D01*
G37*
D15*
X83700000Y-64175000D03*
D14*
G36*
X82328387Y-62193079D02*
G01*
X82405438Y-62244562D01*
X82456921Y-62321613D01*
X82475000Y-62412500D01*
X82475000Y-62887500D01*
X82456921Y-62978387D01*
X82405438Y-63055438D01*
X82328387Y-63106921D01*
X82237500Y-63125000D01*
X81662500Y-63125000D01*
X81571613Y-63106921D01*
X81494562Y-63055438D01*
X81443079Y-62978387D01*
X81425000Y-62887500D01*
X81425000Y-62412500D01*
X81443079Y-62321613D01*
X81494562Y-62244562D01*
X81571613Y-62193079D01*
X81662500Y-62175000D01*
X82237500Y-62175000D01*
X82328387Y-62193079D01*
X82328387Y-62193079D01*
G37*
D15*
X81950000Y-62650000D03*
D14*
G36*
X84078387Y-62193079D02*
G01*
X84155438Y-62244562D01*
X84206921Y-62321613D01*
X84225000Y-62412500D01*
X84225000Y-62887500D01*
X84206921Y-62978387D01*
X84155438Y-63055438D01*
X84078387Y-63106921D01*
X83987500Y-63125000D01*
X83412500Y-63125000D01*
X83321613Y-63106921D01*
X83244562Y-63055438D01*
X83193079Y-62978387D01*
X83175000Y-62887500D01*
X83175000Y-62412500D01*
X83193079Y-62321613D01*
X83244562Y-62244562D01*
X83321613Y-62193079D01*
X83412500Y-62175000D01*
X83987500Y-62175000D01*
X84078387Y-62193079D01*
X84078387Y-62193079D01*
G37*
D15*
X83700000Y-62650000D03*
D14*
G36*
X87727463Y-59516651D02*
G01*
X87798431Y-59564070D01*
X87845850Y-59635038D01*
X87862501Y-59718750D01*
X87862501Y-60231250D01*
X87845850Y-60314962D01*
X87798431Y-60385930D01*
X87727463Y-60433349D01*
X87643751Y-60450000D01*
X87206251Y-60450000D01*
X87122539Y-60433349D01*
X87051571Y-60385930D01*
X87004152Y-60314962D01*
X86987501Y-60231250D01*
X86987501Y-59718750D01*
X87004152Y-59635038D01*
X87051571Y-59564070D01*
X87122539Y-59516651D01*
X87206251Y-59500000D01*
X87643751Y-59500000D01*
X87727463Y-59516651D01*
X87727463Y-59516651D01*
G37*
D16*
X87425001Y-59975000D03*
D14*
G36*
X89302463Y-59516651D02*
G01*
X89373431Y-59564070D01*
X89420850Y-59635038D01*
X89437501Y-59718750D01*
X89437501Y-60231250D01*
X89420850Y-60314962D01*
X89373431Y-60385930D01*
X89302463Y-60433349D01*
X89218751Y-60450000D01*
X88781251Y-60450000D01*
X88697539Y-60433349D01*
X88626571Y-60385930D01*
X88579152Y-60314962D01*
X88562501Y-60231250D01*
X88562501Y-59718750D01*
X88579152Y-59635038D01*
X88626571Y-59564070D01*
X88697539Y-59516651D01*
X88781251Y-59500000D01*
X89218751Y-59500000D01*
X89302463Y-59516651D01*
X89302463Y-59516651D01*
G37*
D16*
X89000001Y-59975000D03*
D14*
G36*
X89514962Y-64591651D02*
G01*
X89585930Y-64639070D01*
X89633349Y-64710038D01*
X89650000Y-64793750D01*
X89650000Y-65306250D01*
X89633349Y-65389962D01*
X89585930Y-65460930D01*
X89514962Y-65508349D01*
X89431250Y-65525000D01*
X88993750Y-65525000D01*
X88910038Y-65508349D01*
X88839070Y-65460930D01*
X88791651Y-65389962D01*
X88775000Y-65306250D01*
X88775000Y-64793750D01*
X88791651Y-64710038D01*
X88839070Y-64639070D01*
X88910038Y-64591651D01*
X88993750Y-64575000D01*
X89431250Y-64575000D01*
X89514962Y-64591651D01*
X89514962Y-64591651D01*
G37*
D16*
X89212500Y-65050000D03*
D14*
G36*
X87939962Y-64591651D02*
G01*
X88010930Y-64639070D01*
X88058349Y-64710038D01*
X88075000Y-64793750D01*
X88075000Y-65306250D01*
X88058349Y-65389962D01*
X88010930Y-65460930D01*
X87939962Y-65508349D01*
X87856250Y-65525000D01*
X87418750Y-65525000D01*
X87335038Y-65508349D01*
X87264070Y-65460930D01*
X87216651Y-65389962D01*
X87200000Y-65306250D01*
X87200000Y-64793750D01*
X87216651Y-64710038D01*
X87264070Y-64639070D01*
X87335038Y-64591651D01*
X87418750Y-64575000D01*
X87856250Y-64575000D01*
X87939962Y-64591651D01*
X87939962Y-64591651D01*
G37*
D16*
X87637500Y-65050000D03*
D17*
X87385356Y-63550000D03*
X89285356Y-63550000D03*
X88335356Y-61550000D03*
D18*
X82975000Y-60750000D03*
X77775000Y-60750000D03*
X82975000Y-65950000D03*
X77775000Y-65950000D03*
D14*
G36*
X86070671Y-60231530D02*
G01*
X86151777Y-60285723D01*
X86205970Y-60366829D01*
X86225000Y-60462500D01*
X86225000Y-61387500D01*
X86205970Y-61483171D01*
X86151777Y-61564277D01*
X86070671Y-61618470D01*
X85975000Y-61637500D01*
X84725000Y-61637500D01*
X84629329Y-61618470D01*
X84548223Y-61564277D01*
X84494030Y-61483171D01*
X84475000Y-61387500D01*
X84475000Y-60462500D01*
X84494030Y-60366829D01*
X84548223Y-60285723D01*
X84629329Y-60231530D01*
X84725000Y-60212500D01*
X85975000Y-60212500D01*
X86070671Y-60231530D01*
X86070671Y-60231530D01*
G37*
D19*
X85350000Y-60925000D03*
D14*
G36*
X86070671Y-57256530D02*
G01*
X86151777Y-57310723D01*
X86205970Y-57391829D01*
X86225000Y-57487500D01*
X86225000Y-58412500D01*
X86205970Y-58508171D01*
X86151777Y-58589277D01*
X86070671Y-58643470D01*
X85975000Y-58662500D01*
X84725000Y-58662500D01*
X84629329Y-58643470D01*
X84548223Y-58589277D01*
X84494030Y-58508171D01*
X84475000Y-58412500D01*
X84475000Y-57487500D01*
X84494030Y-57391829D01*
X84548223Y-57310723D01*
X84629329Y-57256530D01*
X84725000Y-57237500D01*
X85975000Y-57237500D01*
X86070671Y-57256530D01*
X86070671Y-57256530D01*
G37*
D19*
X85350000Y-57950000D03*
D20*
X78975000Y-62650000D03*
X78975000Y-64050000D03*
X85825000Y-68825000D03*
X85825000Y-67425000D03*
D13*
X57550000Y-56050000D03*
X58250000Y-56050000D03*
X60350000Y-56050000D03*
X59650000Y-56050000D03*
X58950000Y-56050000D03*
X58900000Y-70850000D03*
X58200000Y-70850000D03*
X57500000Y-70850000D03*
X59600000Y-70850000D03*
X60300000Y-70850000D03*
D20*
X61075000Y-67425000D03*
X61075000Y-68825000D03*
X54225000Y-64050000D03*
X54225000Y-62650000D03*
D14*
G36*
X61320671Y-57256530D02*
G01*
X61401777Y-57310723D01*
X61455970Y-57391829D01*
X61475000Y-57487500D01*
X61475000Y-58412500D01*
X61455970Y-58508171D01*
X61401777Y-58589277D01*
X61320671Y-58643470D01*
X61225000Y-58662500D01*
X59975000Y-58662500D01*
X59879329Y-58643470D01*
X59798223Y-58589277D01*
X59744030Y-58508171D01*
X59725000Y-58412500D01*
X59725000Y-57487500D01*
X59744030Y-57391829D01*
X59798223Y-57310723D01*
X59879329Y-57256530D01*
X59975000Y-57237500D01*
X61225000Y-57237500D01*
X61320671Y-57256530D01*
X61320671Y-57256530D01*
G37*
D19*
X60600000Y-57950000D03*
D14*
G36*
X61320671Y-60231530D02*
G01*
X61401777Y-60285723D01*
X61455970Y-60366829D01*
X61475000Y-60462500D01*
X61475000Y-61387500D01*
X61455970Y-61483171D01*
X61401777Y-61564277D01*
X61320671Y-61618470D01*
X61225000Y-61637500D01*
X59975000Y-61637500D01*
X59879329Y-61618470D01*
X59798223Y-61564277D01*
X59744030Y-61483171D01*
X59725000Y-61387500D01*
X59725000Y-60462500D01*
X59744030Y-60366829D01*
X59798223Y-60285723D01*
X59879329Y-60231530D01*
X59975000Y-60212500D01*
X61225000Y-60212500D01*
X61320671Y-60231530D01*
X61320671Y-60231530D01*
G37*
D19*
X60600000Y-60925000D03*
D18*
X53025000Y-65950000D03*
X58225000Y-65950000D03*
X53025000Y-60750000D03*
X58225000Y-60750000D03*
D17*
X63585356Y-61550000D03*
X64535356Y-63550000D03*
X62635356Y-63550000D03*
D14*
G36*
X63189962Y-64591651D02*
G01*
X63260930Y-64639070D01*
X63308349Y-64710038D01*
X63325000Y-64793750D01*
X63325000Y-65306250D01*
X63308349Y-65389962D01*
X63260930Y-65460930D01*
X63189962Y-65508349D01*
X63106250Y-65525000D01*
X62668750Y-65525000D01*
X62585038Y-65508349D01*
X62514070Y-65460930D01*
X62466651Y-65389962D01*
X62450000Y-65306250D01*
X62450000Y-64793750D01*
X62466651Y-64710038D01*
X62514070Y-64639070D01*
X62585038Y-64591651D01*
X62668750Y-64575000D01*
X63106250Y-64575000D01*
X63189962Y-64591651D01*
X63189962Y-64591651D01*
G37*
D16*
X62887500Y-65050000D03*
D14*
G36*
X64764962Y-64591651D02*
G01*
X64835930Y-64639070D01*
X64883349Y-64710038D01*
X64900000Y-64793750D01*
X64900000Y-65306250D01*
X64883349Y-65389962D01*
X64835930Y-65460930D01*
X64764962Y-65508349D01*
X64681250Y-65525000D01*
X64243750Y-65525000D01*
X64160038Y-65508349D01*
X64089070Y-65460930D01*
X64041651Y-65389962D01*
X64025000Y-65306250D01*
X64025000Y-64793750D01*
X64041651Y-64710038D01*
X64089070Y-64639070D01*
X64160038Y-64591651D01*
X64243750Y-64575000D01*
X64681250Y-64575000D01*
X64764962Y-64591651D01*
X64764962Y-64591651D01*
G37*
D16*
X64462500Y-65050000D03*
D14*
G36*
X64552463Y-59516651D02*
G01*
X64623431Y-59564070D01*
X64670850Y-59635038D01*
X64687501Y-59718750D01*
X64687501Y-60231250D01*
X64670850Y-60314962D01*
X64623431Y-60385930D01*
X64552463Y-60433349D01*
X64468751Y-60450000D01*
X64031251Y-60450000D01*
X63947539Y-60433349D01*
X63876571Y-60385930D01*
X63829152Y-60314962D01*
X63812501Y-60231250D01*
X63812501Y-59718750D01*
X63829152Y-59635038D01*
X63876571Y-59564070D01*
X63947539Y-59516651D01*
X64031251Y-59500000D01*
X64468751Y-59500000D01*
X64552463Y-59516651D01*
X64552463Y-59516651D01*
G37*
D16*
X64250001Y-59975000D03*
D14*
G36*
X62977463Y-59516651D02*
G01*
X63048431Y-59564070D01*
X63095850Y-59635038D01*
X63112501Y-59718750D01*
X63112501Y-60231250D01*
X63095850Y-60314962D01*
X63048431Y-60385930D01*
X62977463Y-60433349D01*
X62893751Y-60450000D01*
X62456251Y-60450000D01*
X62372539Y-60433349D01*
X62301571Y-60385930D01*
X62254152Y-60314962D01*
X62237501Y-60231250D01*
X62237501Y-59718750D01*
X62254152Y-59635038D01*
X62301571Y-59564070D01*
X62372539Y-59516651D01*
X62456251Y-59500000D01*
X62893751Y-59500000D01*
X62977463Y-59516651D01*
X62977463Y-59516651D01*
G37*
D16*
X62675001Y-59975000D03*
D14*
G36*
X59328387Y-62193079D02*
G01*
X59405438Y-62244562D01*
X59456921Y-62321613D01*
X59475000Y-62412500D01*
X59475000Y-62887500D01*
X59456921Y-62978387D01*
X59405438Y-63055438D01*
X59328387Y-63106921D01*
X59237500Y-63125000D01*
X58662500Y-63125000D01*
X58571613Y-63106921D01*
X58494562Y-63055438D01*
X58443079Y-62978387D01*
X58425000Y-62887500D01*
X58425000Y-62412500D01*
X58443079Y-62321613D01*
X58494562Y-62244562D01*
X58571613Y-62193079D01*
X58662500Y-62175000D01*
X59237500Y-62175000D01*
X59328387Y-62193079D01*
X59328387Y-62193079D01*
G37*
D15*
X58950000Y-62650000D03*
D14*
G36*
X57578387Y-62193079D02*
G01*
X57655438Y-62244562D01*
X57706921Y-62321613D01*
X57725000Y-62412500D01*
X57725000Y-62887500D01*
X57706921Y-62978387D01*
X57655438Y-63055438D01*
X57578387Y-63106921D01*
X57487500Y-63125000D01*
X56912500Y-63125000D01*
X56821613Y-63106921D01*
X56744562Y-63055438D01*
X56693079Y-62978387D01*
X56675000Y-62887500D01*
X56675000Y-62412500D01*
X56693079Y-62321613D01*
X56744562Y-62244562D01*
X56821613Y-62193079D01*
X56912500Y-62175000D01*
X57487500Y-62175000D01*
X57578387Y-62193079D01*
X57578387Y-62193079D01*
G37*
D15*
X57200000Y-62650000D03*
D14*
G36*
X59328387Y-63718079D02*
G01*
X59405438Y-63769562D01*
X59456921Y-63846613D01*
X59475000Y-63937500D01*
X59475000Y-64412500D01*
X59456921Y-64503387D01*
X59405438Y-64580438D01*
X59328387Y-64631921D01*
X59237500Y-64650000D01*
X58662500Y-64650000D01*
X58571613Y-64631921D01*
X58494562Y-64580438D01*
X58443079Y-64503387D01*
X58425000Y-64412500D01*
X58425000Y-63937500D01*
X58443079Y-63846613D01*
X58494562Y-63769562D01*
X58571613Y-63718079D01*
X58662500Y-63700000D01*
X59237500Y-63700000D01*
X59328387Y-63718079D01*
X59328387Y-63718079D01*
G37*
D15*
X58950000Y-64175000D03*
D14*
G36*
X57578387Y-63718079D02*
G01*
X57655438Y-63769562D01*
X57706921Y-63846613D01*
X57725000Y-63937500D01*
X57725000Y-64412500D01*
X57706921Y-64503387D01*
X57655438Y-64580438D01*
X57578387Y-64631921D01*
X57487500Y-64650000D01*
X56912500Y-64650000D01*
X56821613Y-64631921D01*
X56744562Y-64580438D01*
X56693079Y-64503387D01*
X56675000Y-64412500D01*
X56675000Y-63937500D01*
X56693079Y-63846613D01*
X56744562Y-63769562D01*
X56821613Y-63718079D01*
X56912500Y-63700000D01*
X57487500Y-63700000D01*
X57578387Y-63718079D01*
X57578387Y-63718079D01*
G37*
D15*
X57200000Y-64175000D03*
D21*
X76000000Y-100250000D03*
X77000000Y-100250000D03*
X78000000Y-100250000D03*
X79000000Y-100250000D03*
X80000000Y-100250000D03*
X80000000Y-80750000D03*
X79000000Y-80750000D03*
X78000000Y-80750000D03*
X77000000Y-80750000D03*
X76000000Y-80750000D03*
X108750000Y-92500000D03*
X108750000Y-91500000D03*
X108750000Y-90500000D03*
X108750000Y-89500000D03*
X108750000Y-88500000D03*
X52250000Y-88500000D03*
X52250000Y-89500000D03*
X52250000Y-90500000D03*
X52250000Y-91500000D03*
X52250000Y-92500000D03*
D14*
G36*
X83357403Y-91306418D02*
G01*
X83406066Y-91338934D01*
X83438582Y-91387597D01*
X83450000Y-91445000D01*
X83450000Y-91745000D01*
X83438582Y-91802403D01*
X83406066Y-91851066D01*
X83357403Y-91883582D01*
X83300000Y-91895000D01*
X81650000Y-91895000D01*
X81592597Y-91883582D01*
X81543934Y-91851066D01*
X81511418Y-91802403D01*
X81500000Y-91745000D01*
X81500000Y-91445000D01*
X81511418Y-91387597D01*
X81543934Y-91338934D01*
X81592597Y-91306418D01*
X81650000Y-91295000D01*
X83300000Y-91295000D01*
X83357403Y-91306418D01*
X83357403Y-91306418D01*
G37*
D22*
X82475000Y-91595000D03*
D14*
G36*
X83357403Y-92576418D02*
G01*
X83406066Y-92608934D01*
X83438582Y-92657597D01*
X83450000Y-92715000D01*
X83450000Y-93015000D01*
X83438582Y-93072403D01*
X83406066Y-93121066D01*
X83357403Y-93153582D01*
X83300000Y-93165000D01*
X81650000Y-93165000D01*
X81592597Y-93153582D01*
X81543934Y-93121066D01*
X81511418Y-93072403D01*
X81500000Y-93015000D01*
X81500000Y-92715000D01*
X81511418Y-92657597D01*
X81543934Y-92608934D01*
X81592597Y-92576418D01*
X81650000Y-92565000D01*
X83300000Y-92565000D01*
X83357403Y-92576418D01*
X83357403Y-92576418D01*
G37*
D22*
X82475000Y-92865000D03*
D14*
G36*
X83357403Y-93846418D02*
G01*
X83406066Y-93878934D01*
X83438582Y-93927597D01*
X83450000Y-93985000D01*
X83450000Y-94285000D01*
X83438582Y-94342403D01*
X83406066Y-94391066D01*
X83357403Y-94423582D01*
X83300000Y-94435000D01*
X81650000Y-94435000D01*
X81592597Y-94423582D01*
X81543934Y-94391066D01*
X81511418Y-94342403D01*
X81500000Y-94285000D01*
X81500000Y-93985000D01*
X81511418Y-93927597D01*
X81543934Y-93878934D01*
X81592597Y-93846418D01*
X81650000Y-93835000D01*
X83300000Y-93835000D01*
X83357403Y-93846418D01*
X83357403Y-93846418D01*
G37*
D22*
X82475000Y-94135000D03*
D14*
G36*
X83357403Y-95116418D02*
G01*
X83406066Y-95148934D01*
X83438582Y-95197597D01*
X83450000Y-95255000D01*
X83450000Y-95555000D01*
X83438582Y-95612403D01*
X83406066Y-95661066D01*
X83357403Y-95693582D01*
X83300000Y-95705000D01*
X81650000Y-95705000D01*
X81592597Y-95693582D01*
X81543934Y-95661066D01*
X81511418Y-95612403D01*
X81500000Y-95555000D01*
X81500000Y-95255000D01*
X81511418Y-95197597D01*
X81543934Y-95148934D01*
X81592597Y-95116418D01*
X81650000Y-95105000D01*
X83300000Y-95105000D01*
X83357403Y-95116418D01*
X83357403Y-95116418D01*
G37*
D22*
X82475000Y-95405000D03*
D14*
G36*
X78407403Y-95116418D02*
G01*
X78456066Y-95148934D01*
X78488582Y-95197597D01*
X78500000Y-95255000D01*
X78500000Y-95555000D01*
X78488582Y-95612403D01*
X78456066Y-95661066D01*
X78407403Y-95693582D01*
X78350000Y-95705000D01*
X76700000Y-95705000D01*
X76642597Y-95693582D01*
X76593934Y-95661066D01*
X76561418Y-95612403D01*
X76550000Y-95555000D01*
X76550000Y-95255000D01*
X76561418Y-95197597D01*
X76593934Y-95148934D01*
X76642597Y-95116418D01*
X76700000Y-95105000D01*
X78350000Y-95105000D01*
X78407403Y-95116418D01*
X78407403Y-95116418D01*
G37*
D22*
X77525000Y-95405000D03*
D14*
G36*
X78407403Y-93846418D02*
G01*
X78456066Y-93878934D01*
X78488582Y-93927597D01*
X78500000Y-93985000D01*
X78500000Y-94285000D01*
X78488582Y-94342403D01*
X78456066Y-94391066D01*
X78407403Y-94423582D01*
X78350000Y-94435000D01*
X76700000Y-94435000D01*
X76642597Y-94423582D01*
X76593934Y-94391066D01*
X76561418Y-94342403D01*
X76550000Y-94285000D01*
X76550000Y-93985000D01*
X76561418Y-93927597D01*
X76593934Y-93878934D01*
X76642597Y-93846418D01*
X76700000Y-93835000D01*
X78350000Y-93835000D01*
X78407403Y-93846418D01*
X78407403Y-93846418D01*
G37*
D22*
X77525000Y-94135000D03*
D14*
G36*
X78407403Y-92576418D02*
G01*
X78456066Y-92608934D01*
X78488582Y-92657597D01*
X78500000Y-92715000D01*
X78500000Y-93015000D01*
X78488582Y-93072403D01*
X78456066Y-93121066D01*
X78407403Y-93153582D01*
X78350000Y-93165000D01*
X76700000Y-93165000D01*
X76642597Y-93153582D01*
X76593934Y-93121066D01*
X76561418Y-93072403D01*
X76550000Y-93015000D01*
X76550000Y-92715000D01*
X76561418Y-92657597D01*
X76593934Y-92608934D01*
X76642597Y-92576418D01*
X76700000Y-92565000D01*
X78350000Y-92565000D01*
X78407403Y-92576418D01*
X78407403Y-92576418D01*
G37*
D22*
X77525000Y-92865000D03*
D14*
G36*
X78407403Y-91306418D02*
G01*
X78456066Y-91338934D01*
X78488582Y-91387597D01*
X78500000Y-91445000D01*
X78500000Y-91745000D01*
X78488582Y-91802403D01*
X78456066Y-91851066D01*
X78407403Y-91883582D01*
X78350000Y-91895000D01*
X76700000Y-91895000D01*
X76642597Y-91883582D01*
X76593934Y-91851066D01*
X76561418Y-91802403D01*
X76550000Y-91745000D01*
X76550000Y-91445000D01*
X76561418Y-91387597D01*
X76593934Y-91338934D01*
X76642597Y-91306418D01*
X76700000Y-91295000D01*
X78350000Y-91295000D01*
X78407403Y-91306418D01*
X78407403Y-91306418D01*
G37*
D22*
X77525000Y-91595000D03*
D14*
G36*
X87578387Y-93643079D02*
G01*
X87655438Y-93694562D01*
X87706921Y-93771613D01*
X87725000Y-93862500D01*
X87725000Y-94437500D01*
X87706921Y-94528387D01*
X87655438Y-94605438D01*
X87578387Y-94656921D01*
X87487500Y-94675000D01*
X87012500Y-94675000D01*
X86921613Y-94656921D01*
X86844562Y-94605438D01*
X86793079Y-94528387D01*
X86775000Y-94437500D01*
X86775000Y-93862500D01*
X86793079Y-93771613D01*
X86844562Y-93694562D01*
X86921613Y-93643079D01*
X87012500Y-93625000D01*
X87487500Y-93625000D01*
X87578387Y-93643079D01*
X87578387Y-93643079D01*
G37*
D15*
X87250000Y-94150000D03*
D14*
G36*
X87578387Y-95393079D02*
G01*
X87655438Y-95444562D01*
X87706921Y-95521613D01*
X87725000Y-95612500D01*
X87725000Y-96187500D01*
X87706921Y-96278387D01*
X87655438Y-96355438D01*
X87578387Y-96406921D01*
X87487500Y-96425000D01*
X87012500Y-96425000D01*
X86921613Y-96406921D01*
X86844562Y-96355438D01*
X86793079Y-96278387D01*
X86775000Y-96187500D01*
X86775000Y-95612500D01*
X86793079Y-95521613D01*
X86844562Y-95444562D01*
X86921613Y-95393079D01*
X87012500Y-95375000D01*
X87487500Y-95375000D01*
X87578387Y-95393079D01*
X87578387Y-95393079D01*
G37*
D15*
X87250000Y-95900000D03*
D14*
G36*
X67583171Y-96394030D02*
G01*
X67664277Y-96448223D01*
X67718470Y-96529329D01*
X67737500Y-96625000D01*
X67737500Y-97875000D01*
X67718470Y-97970671D01*
X67664277Y-98051777D01*
X67583171Y-98105970D01*
X67487500Y-98125000D01*
X66562500Y-98125000D01*
X66466829Y-98105970D01*
X66385723Y-98051777D01*
X66331530Y-97970671D01*
X66312500Y-97875000D01*
X66312500Y-96625000D01*
X66331530Y-96529329D01*
X66385723Y-96448223D01*
X66466829Y-96394030D01*
X66562500Y-96375000D01*
X67487500Y-96375000D01*
X67583171Y-96394030D01*
X67583171Y-96394030D01*
G37*
D19*
X67025000Y-97250000D03*
D14*
G36*
X70558171Y-96394030D02*
G01*
X70639277Y-96448223D01*
X70693470Y-96529329D01*
X70712500Y-96625000D01*
X70712500Y-97875000D01*
X70693470Y-97970671D01*
X70639277Y-98051777D01*
X70558171Y-98105970D01*
X70462500Y-98125000D01*
X69537500Y-98125000D01*
X69441829Y-98105970D01*
X69360723Y-98051777D01*
X69306530Y-97970671D01*
X69287500Y-97875000D01*
X69287500Y-96625000D01*
X69306530Y-96529329D01*
X69360723Y-96448223D01*
X69441829Y-96394030D01*
X69537500Y-96375000D01*
X70462500Y-96375000D01*
X70558171Y-96394030D01*
X70558171Y-96394030D01*
G37*
D19*
X70000000Y-97250000D03*
D14*
G36*
X89278387Y-93643079D02*
G01*
X89355438Y-93694562D01*
X89406921Y-93771613D01*
X89425000Y-93862500D01*
X89425000Y-94437500D01*
X89406921Y-94528387D01*
X89355438Y-94605438D01*
X89278387Y-94656921D01*
X89187500Y-94675000D01*
X88712500Y-94675000D01*
X88621613Y-94656921D01*
X88544562Y-94605438D01*
X88493079Y-94528387D01*
X88475000Y-94437500D01*
X88475000Y-93862500D01*
X88493079Y-93771613D01*
X88544562Y-93694562D01*
X88621613Y-93643079D01*
X88712500Y-93625000D01*
X89187500Y-93625000D01*
X89278387Y-93643079D01*
X89278387Y-93643079D01*
G37*
D15*
X88950000Y-94150000D03*
D14*
G36*
X89278387Y-95393079D02*
G01*
X89355438Y-95444562D01*
X89406921Y-95521613D01*
X89425000Y-95612500D01*
X89425000Y-96187500D01*
X89406921Y-96278387D01*
X89355438Y-96355438D01*
X89278387Y-96406921D01*
X89187500Y-96425000D01*
X88712500Y-96425000D01*
X88621613Y-96406921D01*
X88544562Y-96355438D01*
X88493079Y-96278387D01*
X88475000Y-96187500D01*
X88475000Y-95612500D01*
X88493079Y-95521613D01*
X88544562Y-95444562D01*
X88621613Y-95393079D01*
X88712500Y-95375000D01*
X89187500Y-95375000D01*
X89278387Y-95393079D01*
X89278387Y-95393079D01*
G37*
D15*
X88950000Y-95900000D03*
D14*
G36*
X70558171Y-93894030D02*
G01*
X70639277Y-93948223D01*
X70693470Y-94029329D01*
X70712500Y-94125000D01*
X70712500Y-95375000D01*
X70693470Y-95470671D01*
X70639277Y-95551777D01*
X70558171Y-95605970D01*
X70462500Y-95625000D01*
X69537500Y-95625000D01*
X69441829Y-95605970D01*
X69360723Y-95551777D01*
X69306530Y-95470671D01*
X69287500Y-95375000D01*
X69287500Y-94125000D01*
X69306530Y-94029329D01*
X69360723Y-93948223D01*
X69441829Y-93894030D01*
X69537500Y-93875000D01*
X70462500Y-93875000D01*
X70558171Y-93894030D01*
X70558171Y-93894030D01*
G37*
D19*
X70000000Y-94750000D03*
D14*
G36*
X67583171Y-93894030D02*
G01*
X67664277Y-93948223D01*
X67718470Y-94029329D01*
X67737500Y-94125000D01*
X67737500Y-95375000D01*
X67718470Y-95470671D01*
X67664277Y-95551777D01*
X67583171Y-95605970D01*
X67487500Y-95625000D01*
X66562500Y-95625000D01*
X66466829Y-95605970D01*
X66385723Y-95551777D01*
X66331530Y-95470671D01*
X66312500Y-95375000D01*
X66312500Y-94125000D01*
X66331530Y-94029329D01*
X66385723Y-93948223D01*
X66466829Y-93894030D01*
X66562500Y-93875000D01*
X67487500Y-93875000D01*
X67583171Y-93894030D01*
X67583171Y-93894030D01*
G37*
D19*
X67025000Y-94750000D03*
D14*
G36*
X91028387Y-95393079D02*
G01*
X91105438Y-95444562D01*
X91156921Y-95521613D01*
X91175000Y-95612500D01*
X91175000Y-96187500D01*
X91156921Y-96278387D01*
X91105438Y-96355438D01*
X91028387Y-96406921D01*
X90937500Y-96425000D01*
X90462500Y-96425000D01*
X90371613Y-96406921D01*
X90294562Y-96355438D01*
X90243079Y-96278387D01*
X90225000Y-96187500D01*
X90225000Y-95612500D01*
X90243079Y-95521613D01*
X90294562Y-95444562D01*
X90371613Y-95393079D01*
X90462500Y-95375000D01*
X90937500Y-95375000D01*
X91028387Y-95393079D01*
X91028387Y-95393079D01*
G37*
D15*
X90700000Y-95900000D03*
D14*
G36*
X91028387Y-93643079D02*
G01*
X91105438Y-93694562D01*
X91156921Y-93771613D01*
X91175000Y-93862500D01*
X91175000Y-94437500D01*
X91156921Y-94528387D01*
X91105438Y-94605438D01*
X91028387Y-94656921D01*
X90937500Y-94675000D01*
X90462500Y-94675000D01*
X90371613Y-94656921D01*
X90294562Y-94605438D01*
X90243079Y-94528387D01*
X90225000Y-94437500D01*
X90225000Y-93862500D01*
X90243079Y-93771613D01*
X90294562Y-93694562D01*
X90371613Y-93643079D01*
X90462500Y-93625000D01*
X90937500Y-93625000D01*
X91028387Y-93643079D01*
X91028387Y-93643079D01*
G37*
D15*
X90700000Y-94150000D03*
D23*
X89550000Y-88650000D03*
X89550000Y-82250000D03*
D24*
X56000000Y-93000000D03*
X56000000Y-88000000D03*
X105000000Y-88000000D03*
X105000000Y-93000000D03*
D25*
X77825000Y-87400000D03*
D14*
G36*
X76025000Y-88550000D02*
G01*
X76025000Y-86250000D01*
X79625000Y-86850000D01*
X79625000Y-87950000D01*
X76025000Y-88550000D01*
X76025000Y-88550000D01*
G37*
D25*
X83625000Y-87400000D03*
D14*
G36*
X85425000Y-86250000D02*
G01*
X85425000Y-88550000D01*
X81825000Y-87950000D01*
X81825000Y-86850000D01*
X85425000Y-86250000D01*
X85425000Y-86250000D01*
G37*
G36*
X85753387Y-93643079D02*
G01*
X85830438Y-93694562D01*
X85881921Y-93771613D01*
X85900000Y-93862500D01*
X85900000Y-94437500D01*
X85881921Y-94528387D01*
X85830438Y-94605438D01*
X85753387Y-94656921D01*
X85662500Y-94675000D01*
X85187500Y-94675000D01*
X85096613Y-94656921D01*
X85019562Y-94605438D01*
X84968079Y-94528387D01*
X84950000Y-94437500D01*
X84950000Y-93862500D01*
X84968079Y-93771613D01*
X85019562Y-93694562D01*
X85096613Y-93643079D01*
X85187500Y-93625000D01*
X85662500Y-93625000D01*
X85753387Y-93643079D01*
X85753387Y-93643079D01*
G37*
D15*
X85425000Y-94150000D03*
D14*
G36*
X85753387Y-95393079D02*
G01*
X85830438Y-95444562D01*
X85881921Y-95521613D01*
X85900000Y-95612500D01*
X85900000Y-96187500D01*
X85881921Y-96278387D01*
X85830438Y-96355438D01*
X85753387Y-96406921D01*
X85662500Y-96425000D01*
X85187500Y-96425000D01*
X85096613Y-96406921D01*
X85019562Y-96355438D01*
X84968079Y-96278387D01*
X84950000Y-96187500D01*
X84950000Y-95612500D01*
X84968079Y-95521613D01*
X85019562Y-95444562D01*
X85096613Y-95393079D01*
X85187500Y-95375000D01*
X85662500Y-95375000D01*
X85753387Y-95393079D01*
X85753387Y-95393079D01*
G37*
D15*
X85425000Y-95900000D03*
D14*
G36*
X73583171Y-96644030D02*
G01*
X73664277Y-96698223D01*
X73718470Y-96779329D01*
X73737500Y-96875000D01*
X73737500Y-98125000D01*
X73718470Y-98220671D01*
X73664277Y-98301777D01*
X73583171Y-98355970D01*
X73487500Y-98375000D01*
X72562500Y-98375000D01*
X72466829Y-98355970D01*
X72385723Y-98301777D01*
X72331530Y-98220671D01*
X72312500Y-98125000D01*
X72312500Y-96875000D01*
X72331530Y-96779329D01*
X72385723Y-96698223D01*
X72466829Y-96644030D01*
X72562500Y-96625000D01*
X73487500Y-96625000D01*
X73583171Y-96644030D01*
X73583171Y-96644030D01*
G37*
D19*
X73025000Y-97500000D03*
D14*
G36*
X76558171Y-96644030D02*
G01*
X76639277Y-96698223D01*
X76693470Y-96779329D01*
X76712500Y-96875000D01*
X76712500Y-98125000D01*
X76693470Y-98220671D01*
X76639277Y-98301777D01*
X76558171Y-98355970D01*
X76462500Y-98375000D01*
X75537500Y-98375000D01*
X75441829Y-98355970D01*
X75360723Y-98301777D01*
X75306530Y-98220671D01*
X75287500Y-98125000D01*
X75287500Y-96875000D01*
X75306530Y-96779329D01*
X75360723Y-96698223D01*
X75441829Y-96644030D01*
X75537500Y-96625000D01*
X76462500Y-96625000D01*
X76558171Y-96644030D01*
X76558171Y-96644030D01*
G37*
D19*
X76000000Y-97500000D03*
D14*
G36*
X87603387Y-97093079D02*
G01*
X87680438Y-97144562D01*
X87731921Y-97221613D01*
X87750000Y-97312500D01*
X87750000Y-97787500D01*
X87731921Y-97878387D01*
X87680438Y-97955438D01*
X87603387Y-98006921D01*
X87512500Y-98025000D01*
X86937500Y-98025000D01*
X86846613Y-98006921D01*
X86769562Y-97955438D01*
X86718079Y-97878387D01*
X86700000Y-97787500D01*
X86700000Y-97312500D01*
X86718079Y-97221613D01*
X86769562Y-97144562D01*
X86846613Y-97093079D01*
X86937500Y-97075000D01*
X87512500Y-97075000D01*
X87603387Y-97093079D01*
X87603387Y-97093079D01*
G37*
D15*
X87225000Y-97550000D03*
D14*
G36*
X85853387Y-97093079D02*
G01*
X85930438Y-97144562D01*
X85981921Y-97221613D01*
X86000000Y-97312500D01*
X86000000Y-97787500D01*
X85981921Y-97878387D01*
X85930438Y-97955438D01*
X85853387Y-98006921D01*
X85762500Y-98025000D01*
X85187500Y-98025000D01*
X85096613Y-98006921D01*
X85019562Y-97955438D01*
X84968079Y-97878387D01*
X84950000Y-97787500D01*
X84950000Y-97312500D01*
X84968079Y-97221613D01*
X85019562Y-97144562D01*
X85096613Y-97093079D01*
X85187500Y-97075000D01*
X85762500Y-97075000D01*
X85853387Y-97093079D01*
X85853387Y-97093079D01*
G37*
D15*
X85475000Y-97550000D03*
D26*
X72100000Y-89075000D03*
X72100000Y-91575000D03*
X65000000Y-89050000D03*
X65000000Y-91550000D03*
X68525000Y-82975000D03*
X68525000Y-85475000D03*
X97450000Y-89125000D03*
X95450000Y-89125000D03*
X97500000Y-83375000D03*
X95500000Y-83375000D03*
D14*
G36*
X85778387Y-90043079D02*
G01*
X85855438Y-90094562D01*
X85906921Y-90171613D01*
X85925000Y-90262500D01*
X85925000Y-90737500D01*
X85906921Y-90828387D01*
X85855438Y-90905438D01*
X85778387Y-90956921D01*
X85687500Y-90975000D01*
X85112500Y-90975000D01*
X85021613Y-90956921D01*
X84944562Y-90905438D01*
X84893079Y-90828387D01*
X84875000Y-90737500D01*
X84875000Y-90262500D01*
X84893079Y-90171613D01*
X84944562Y-90094562D01*
X85021613Y-90043079D01*
X85112500Y-90025000D01*
X85687500Y-90025000D01*
X85778387Y-90043079D01*
X85778387Y-90043079D01*
G37*
D15*
X85400000Y-90500000D03*
D14*
G36*
X87528387Y-90043079D02*
G01*
X87605438Y-90094562D01*
X87656921Y-90171613D01*
X87675000Y-90262500D01*
X87675000Y-90737500D01*
X87656921Y-90828387D01*
X87605438Y-90905438D01*
X87528387Y-90956921D01*
X87437500Y-90975000D01*
X86862500Y-90975000D01*
X86771613Y-90956921D01*
X86694562Y-90905438D01*
X86643079Y-90828387D01*
X86625000Y-90737500D01*
X86625000Y-90262500D01*
X86643079Y-90171613D01*
X86694562Y-90094562D01*
X86771613Y-90043079D01*
X86862500Y-90025000D01*
X87437500Y-90025000D01*
X87528387Y-90043079D01*
X87528387Y-90043079D01*
G37*
D15*
X87150000Y-90500000D03*
M02*
