M48
METRIC
T1C0.400
T2C0.800
T3C1.300
T4C0.500
T5C0.650
T6C1.000
%
G90
G05
T1
X53.68Y-67.234
X54.425Y-60.2
X54.5Y-83.0
X54.5Y-98.0
X54.6Y-59.1
X54.85Y-68.275
X54.95Y-65.71
X55.2Y-58.075
X55.75Y-81.75
X55.75Y-99.0
X57.0Y-83.0
X57.0Y-98.0
X57.025Y-60.7
X58.25Y-99.0
X58.5Y-81.75
X59.5Y-83.0
X59.5Y-98.0
X60.125Y-64.375
X60.3Y-62.45
X60.75Y-81.75
X60.75Y-99.0
X62.0Y-83.0
X62.0Y-98.0
X62.85Y-58.325
X63.15Y-66.175
X63.25Y-81.75
X63.25Y-99.0
X64.5Y-83.0
X64.5Y-98.0
X64.9Y-61.2
X66.0Y-81.75
X66.0Y-99.0
X68.0Y-99.0
X69.75Y-99.0
X71.5Y-98.25
X72.0Y-83.0
X74.5Y-83.0
X75.25Y-86.25
X75.25Y-87.75
X75.75Y-84.25
X76.3Y-90.4
X77.0Y-83.0
X77.5Y-85.5
X78.0Y-89.5
X78.25Y-84.25
X78.43Y-67.234
X78.5Y-85.5
X79.0Y-89.5
X79.0Y-96.5
X79.0Y-97.5
X79.0Y-98.5
X79.175Y-60.2
X79.35Y-59.1
X79.5Y-83.0
X79.5Y-85.5
X79.6Y-68.275
X79.7Y-65.71
X79.95Y-58.075
X80.0Y-89.5
X80.0Y-91.25
X80.0Y-92.25
X80.0Y-93.25
X80.0Y-94.25
X80.0Y-95.25
X80.0Y-96.5
X80.0Y-97.5
X80.0Y-98.5
X80.75Y-84.25
X81.0Y-96.5
X81.0Y-97.5
X81.0Y-98.5
X81.775Y-60.7
X82.0Y-83.0
X83.25Y-84.25
X84.1Y-90.4
X84.264Y-93.236
X84.5Y-83.0
X84.875Y-64.375
X85.05Y-62.45
X85.5Y-93.0
X86.25Y-84.5
X87.25Y-93.0
X87.6Y-58.325
X87.9Y-66.175
X88.0Y-84.5
X89.0Y-93.0
X89.65Y-61.2
X90.0Y-84.5
X92.0Y-84.5
X92.0Y-98.0
X93.25Y-96.75
X93.25Y-99.0
X94.5Y-98.0
X95.75Y-96.75
X95.75Y-99.0
X97.0Y-98.0
X98.25Y-96.75
X98.25Y-99.0
X99.5Y-98.0
X100.75Y-96.75
X100.75Y-99.0
X102.0Y-98.0
X103.25Y-96.75
X103.25Y-99.0
X104.5Y-98.0
T2
X95.45Y-89.125
X97.45Y-89.125
X95.5Y-83.375
X97.5Y-83.375
X72.1Y-89.075
X72.1Y-91.575
X68.525Y-82.975
X68.525Y-85.475
X65.0Y-89.05
X65.0Y-91.55
T3
X105.0Y-88.0
X105.0Y-93.0
X56.0Y-88.0
X56.0Y-93.0
T4
X57.5Y-70.85
X58.2Y-70.85
X58.9Y-70.85
X59.6Y-70.85
X60.3Y-70.85
X82.3Y-56.05
X83.0Y-56.05
X83.7Y-56.05
X84.35Y-70.85
X59.65Y-56.05
X84.4Y-56.05
X85.1Y-56.05
X57.55Y-56.05
X58.25Y-56.05
X58.95Y-56.05
X60.35Y-56.05
X82.25Y-70.85
X82.95Y-70.85
X83.65Y-70.85
X85.05Y-70.85
T5
X108.75Y-88.5
X78.0Y-100.25
X108.75Y-89.5
X108.75Y-90.5
X108.75Y-91.5
X108.75Y-92.5
X52.25Y-88.5
X52.25Y-89.5
X52.25Y-90.5
X52.25Y-91.5
X52.25Y-92.5
X76.0Y-80.75
X77.0Y-80.75
X78.0Y-80.75
X79.0Y-80.75
X80.0Y-80.75
X76.0Y-100.25
X77.0Y-100.25
X79.0Y-100.25
X80.0Y-100.25
T6
X53.025Y-60.75
X53.025Y-65.95
X58.225Y-60.75
X58.225Y-65.95
X77.775Y-60.75
X77.775Y-65.95
X82.975Y-60.75
X82.975Y-65.95
T0
M30
