M48
METRIC
T1C0.400
T2C1.000
T3C1.300
%
G90
G05
T1
X33.59Y-49.782
X36.13Y-49.719
X40.702Y-53.402
X40.702Y-57.974
X41.02Y-45.02
X41.02Y-45.909
X41.02Y-46.798
X41.02Y-47.687
X41.02Y-48.576
X41.02Y-49.465
X42.67Y-45.02
X42.67Y-45.909
X42.67Y-46.798
X42.67Y-47.687
X42.67Y-48.576
X42.67Y-49.465
X47.56Y-49.783
X48.195Y-52.322
X49.401Y-57.974
X50.1Y-49.782
X51.751Y-51.37
X56.386Y-48.83
X61.784Y-52.513
X61.784Y-53.402
X61.784Y-54.291
X62.8Y-52.132
X62.8Y-54.545
T2
X29.78Y-47.052
X29.78Y-49.592
X29.78Y-52.132
X29.78Y-54.672
X29.78Y-57.212
X29.78Y-59.752
X58.99Y-53.91
X58.99Y-56.45
T3
X70.905Y-55.74
X70.905Y-60.74
X70.905Y-45.74
X70.905Y-50.74
T0
M30
