G04 #@! TF.GenerationSoftware,KiCad,Pcbnew,(5.1.0-1220-ga833aeeac)*
G04 #@! TF.CreationDate,2019-07-18T01:02:23+03:00*
G04 #@! TF.ProjectId,proto_II_rs485,70726f74-6f5f-4494-995f-72733438352e,rev?*
G04 #@! TF.SameCoordinates,Original*
G04 #@! TF.FileFunction,Copper,L1,Top*
G04 #@! TF.FilePolarity,Positive*
%FSLAX46Y46*%
G04 Gerber Fmt 4.6, Leading zero omitted, Abs format (unit mm)*
G04 Created by KiCad (PCBNEW (5.1.0-1220-ga833aeeac)) date 2019-07-18 01:02:23*
%MOMM*%
%LPD*%
G04 APERTURE LIST*
%ADD10C,0.160000*%
%ADD11C,1.425000*%
%ADD12C,0.550000*%
%ADD13C,0.600000*%
%ADD14C,0.950000*%
%ADD15O,1.700000X1.700000*%
%ADD16R,1.700000X1.700000*%
%ADD17C,1.524000*%
%ADD18R,0.900000X0.800000*%
%ADD19C,0.800000*%
%ADD20C,0.250000*%
%ADD21C,0.400000*%
%ADD22C,0.254000*%
G04 APERTURE END LIST*
D10*
G36*
X34310671Y-47719030D02*
G01*
X34391777Y-47773223D01*
X34445970Y-47854329D01*
X34465000Y-47950000D01*
X34465000Y-48875000D01*
X34445970Y-48970671D01*
X34391777Y-49051777D01*
X34310671Y-49105970D01*
X34215000Y-49125000D01*
X32965000Y-49125000D01*
X32869329Y-49105970D01*
X32788223Y-49051777D01*
X32734030Y-48970671D01*
X32715000Y-48875000D01*
X32715000Y-47950000D01*
X32734030Y-47854329D01*
X32788223Y-47773223D01*
X32869329Y-47719030D01*
X32965000Y-47700000D01*
X34215000Y-47700000D01*
X34310671Y-47719030D01*
X34310671Y-47719030D01*
G37*
D11*
X33590000Y-48412500D03*
D10*
G36*
X34310671Y-44744030D02*
G01*
X34391777Y-44798223D01*
X34445970Y-44879329D01*
X34465000Y-44975000D01*
X34465000Y-45900000D01*
X34445970Y-45995671D01*
X34391777Y-46076777D01*
X34310671Y-46130970D01*
X34215000Y-46150000D01*
X32965000Y-46150000D01*
X32869329Y-46130970D01*
X32788223Y-46076777D01*
X32734030Y-45995671D01*
X32715000Y-45900000D01*
X32715000Y-44975000D01*
X32734030Y-44879329D01*
X32788223Y-44798223D01*
X32869329Y-44744030D01*
X32965000Y-44725000D01*
X34215000Y-44725000D01*
X34310671Y-44744030D01*
X34310671Y-44744030D01*
G37*
D11*
X33590000Y-45437500D03*
D10*
G36*
X36850671Y-47719030D02*
G01*
X36931777Y-47773223D01*
X36985970Y-47854329D01*
X37005000Y-47950000D01*
X37005000Y-48875000D01*
X36985970Y-48970671D01*
X36931777Y-49051777D01*
X36850671Y-49105970D01*
X36755000Y-49125000D01*
X35505000Y-49125000D01*
X35409329Y-49105970D01*
X35328223Y-49051777D01*
X35274030Y-48970671D01*
X35255000Y-48875000D01*
X35255000Y-47950000D01*
X35274030Y-47854329D01*
X35328223Y-47773223D01*
X35409329Y-47719030D01*
X35505000Y-47700000D01*
X36755000Y-47700000D01*
X36850671Y-47719030D01*
X36850671Y-47719030D01*
G37*
D11*
X36130000Y-48412500D03*
D10*
G36*
X36850671Y-44744030D02*
G01*
X36931777Y-44798223D01*
X36985970Y-44879329D01*
X37005000Y-44975000D01*
X37005000Y-45900000D01*
X36985970Y-45995671D01*
X36931777Y-46076777D01*
X36850671Y-46130970D01*
X36755000Y-46150000D01*
X35505000Y-46150000D01*
X35409329Y-46130970D01*
X35328223Y-46076777D01*
X35274030Y-45995671D01*
X35255000Y-45900000D01*
X35255000Y-44975000D01*
X35274030Y-44879329D01*
X35328223Y-44798223D01*
X35409329Y-44744030D01*
X35505000Y-44725000D01*
X36755000Y-44725000D01*
X36850671Y-44744030D01*
X36850671Y-44744030D01*
G37*
D11*
X36130000Y-45437500D03*
D10*
G36*
X50820671Y-47719030D02*
G01*
X50901777Y-47773223D01*
X50955970Y-47854329D01*
X50975000Y-47950000D01*
X50975000Y-48875000D01*
X50955970Y-48970671D01*
X50901777Y-49051777D01*
X50820671Y-49105970D01*
X50725000Y-49125000D01*
X49475000Y-49125000D01*
X49379329Y-49105970D01*
X49298223Y-49051777D01*
X49244030Y-48970671D01*
X49225000Y-48875000D01*
X49225000Y-47950000D01*
X49244030Y-47854329D01*
X49298223Y-47773223D01*
X49379329Y-47719030D01*
X49475000Y-47700000D01*
X50725000Y-47700000D01*
X50820671Y-47719030D01*
X50820671Y-47719030D01*
G37*
D11*
X50100000Y-48412500D03*
D10*
G36*
X50820671Y-44744030D02*
G01*
X50901777Y-44798223D01*
X50955970Y-44879329D01*
X50975000Y-44975000D01*
X50975000Y-45900000D01*
X50955970Y-45995671D01*
X50901777Y-46076777D01*
X50820671Y-46130970D01*
X50725000Y-46150000D01*
X49475000Y-46150000D01*
X49379329Y-46130970D01*
X49298223Y-46076777D01*
X49244030Y-45995671D01*
X49225000Y-45900000D01*
X49225000Y-44975000D01*
X49244030Y-44879329D01*
X49298223Y-44798223D01*
X49379329Y-44744030D01*
X49475000Y-44725000D01*
X50725000Y-44725000D01*
X50820671Y-44744030D01*
X50820671Y-44744030D01*
G37*
D11*
X50100000Y-45437500D03*
D10*
G36*
X48280671Y-47719030D02*
G01*
X48361777Y-47773223D01*
X48415970Y-47854329D01*
X48435000Y-47950000D01*
X48435000Y-48875000D01*
X48415970Y-48970671D01*
X48361777Y-49051777D01*
X48280671Y-49105970D01*
X48185000Y-49125000D01*
X46935000Y-49125000D01*
X46839329Y-49105970D01*
X46758223Y-49051777D01*
X46704030Y-48970671D01*
X46685000Y-48875000D01*
X46685000Y-47950000D01*
X46704030Y-47854329D01*
X46758223Y-47773223D01*
X46839329Y-47719030D01*
X46935000Y-47700000D01*
X48185000Y-47700000D01*
X48280671Y-47719030D01*
X48280671Y-47719030D01*
G37*
D11*
X47560000Y-48412500D03*
D10*
G36*
X48280671Y-44744030D02*
G01*
X48361777Y-44798223D01*
X48415970Y-44879329D01*
X48435000Y-44975000D01*
X48435000Y-45900000D01*
X48415970Y-45995671D01*
X48361777Y-46076777D01*
X48280671Y-46130970D01*
X48185000Y-46150000D01*
X46935000Y-46150000D01*
X46839329Y-46130970D01*
X46758223Y-46076777D01*
X46704030Y-45995671D01*
X46685000Y-45900000D01*
X46685000Y-44975000D01*
X46704030Y-44879329D01*
X46758223Y-44798223D01*
X46839329Y-44744030D01*
X46935000Y-44725000D01*
X48185000Y-44725000D01*
X48280671Y-44744030D01*
X48280671Y-44744030D01*
G37*
D11*
X47560000Y-45437500D03*
D10*
G36*
X45235119Y-55296467D02*
G01*
X45279727Y-55326273D01*
X45309533Y-55370881D01*
X45320000Y-55423500D01*
X45320000Y-55698500D01*
X45309533Y-55751119D01*
X45279727Y-55795727D01*
X45235119Y-55825533D01*
X45182500Y-55836000D01*
X44007500Y-55836000D01*
X43954881Y-55825533D01*
X43910273Y-55795727D01*
X43880467Y-55751119D01*
X43870000Y-55698500D01*
X43870000Y-55423500D01*
X43880467Y-55370881D01*
X43910273Y-55326273D01*
X43954881Y-55296467D01*
X44007500Y-55286000D01*
X45182500Y-55286000D01*
X45235119Y-55296467D01*
X45235119Y-55296467D01*
G37*
D12*
X44595000Y-55561000D03*
D10*
G36*
X45235119Y-57836467D02*
G01*
X45279727Y-57866273D01*
X45309533Y-57910881D01*
X45320000Y-57963500D01*
X45320000Y-58238500D01*
X45309533Y-58291119D01*
X45279727Y-58335727D01*
X45235119Y-58365533D01*
X45182500Y-58376000D01*
X44007500Y-58376000D01*
X43954881Y-58365533D01*
X43910273Y-58335727D01*
X43880467Y-58291119D01*
X43870000Y-58238500D01*
X43870000Y-57963500D01*
X43880467Y-57910881D01*
X43910273Y-57866273D01*
X43954881Y-57836467D01*
X44007500Y-57826000D01*
X45182500Y-57826000D01*
X45235119Y-57836467D01*
X45235119Y-57836467D01*
G37*
D12*
X44595000Y-58101000D03*
D10*
G36*
X39735119Y-57836467D02*
G01*
X39779727Y-57866273D01*
X39809533Y-57910881D01*
X39820000Y-57963500D01*
X39820000Y-58238500D01*
X39809533Y-58291119D01*
X39779727Y-58335727D01*
X39735119Y-58365533D01*
X39682500Y-58376000D01*
X38507500Y-58376000D01*
X38454881Y-58365533D01*
X38410273Y-58335727D01*
X38380467Y-58291119D01*
X38370000Y-58238500D01*
X38370000Y-57963500D01*
X38380467Y-57910881D01*
X38410273Y-57866273D01*
X38454881Y-57836467D01*
X38507500Y-57826000D01*
X39682500Y-57826000D01*
X39735119Y-57836467D01*
X39735119Y-57836467D01*
G37*
D12*
X39095000Y-58101000D03*
D10*
G36*
X39735119Y-55296467D02*
G01*
X39779727Y-55326273D01*
X39809533Y-55370881D01*
X39820000Y-55423500D01*
X39820000Y-55698500D01*
X39809533Y-55751119D01*
X39779727Y-55795727D01*
X39735119Y-55825533D01*
X39682500Y-55836000D01*
X38507500Y-55836000D01*
X38454881Y-55825533D01*
X38410273Y-55795727D01*
X38380467Y-55751119D01*
X38370000Y-55698500D01*
X38370000Y-55423500D01*
X38380467Y-55370881D01*
X38410273Y-55326273D01*
X38454881Y-55296467D01*
X38507500Y-55286000D01*
X39682500Y-55286000D01*
X39735119Y-55296467D01*
X39735119Y-55296467D01*
G37*
D12*
X39095000Y-55561000D03*
D10*
G36*
X45235119Y-50597467D02*
G01*
X45279727Y-50627273D01*
X45309533Y-50671881D01*
X45320000Y-50724500D01*
X45320000Y-50999500D01*
X45309533Y-51052119D01*
X45279727Y-51096727D01*
X45235119Y-51126533D01*
X45182500Y-51137000D01*
X44007500Y-51137000D01*
X43954881Y-51126533D01*
X43910273Y-51096727D01*
X43880467Y-51052119D01*
X43870000Y-50999500D01*
X43870000Y-50724500D01*
X43880467Y-50671881D01*
X43910273Y-50627273D01*
X43954881Y-50597467D01*
X44007500Y-50587000D01*
X45182500Y-50587000D01*
X45235119Y-50597467D01*
X45235119Y-50597467D01*
G37*
D12*
X44595000Y-50862000D03*
D10*
G36*
X45235119Y-53137467D02*
G01*
X45279727Y-53167273D01*
X45309533Y-53211881D01*
X45320000Y-53264500D01*
X45320000Y-53539500D01*
X45309533Y-53592119D01*
X45279727Y-53636727D01*
X45235119Y-53666533D01*
X45182500Y-53677000D01*
X44007500Y-53677000D01*
X43954881Y-53666533D01*
X43910273Y-53636727D01*
X43880467Y-53592119D01*
X43870000Y-53539500D01*
X43870000Y-53264500D01*
X43880467Y-53211881D01*
X43910273Y-53167273D01*
X43954881Y-53137467D01*
X44007500Y-53127000D01*
X45182500Y-53127000D01*
X45235119Y-53137467D01*
X45235119Y-53137467D01*
G37*
D12*
X44595000Y-53402000D03*
D10*
G36*
X39735119Y-53137467D02*
G01*
X39779727Y-53167273D01*
X39809533Y-53211881D01*
X39820000Y-53264500D01*
X39820000Y-53539500D01*
X39809533Y-53592119D01*
X39779727Y-53636727D01*
X39735119Y-53666533D01*
X39682500Y-53677000D01*
X38507500Y-53677000D01*
X38454881Y-53666533D01*
X38410273Y-53636727D01*
X38380467Y-53592119D01*
X38370000Y-53539500D01*
X38370000Y-53264500D01*
X38380467Y-53211881D01*
X38410273Y-53167273D01*
X38454881Y-53137467D01*
X38507500Y-53127000D01*
X39682500Y-53127000D01*
X39735119Y-53137467D01*
X39735119Y-53137467D01*
G37*
D12*
X39095000Y-53402000D03*
D10*
G36*
X39735119Y-50597467D02*
G01*
X39779727Y-50627273D01*
X39809533Y-50671881D01*
X39820000Y-50724500D01*
X39820000Y-50999500D01*
X39809533Y-51052119D01*
X39779727Y-51096727D01*
X39735119Y-51126533D01*
X39682500Y-51137000D01*
X38507500Y-51137000D01*
X38454881Y-51126533D01*
X38410273Y-51096727D01*
X38380467Y-51052119D01*
X38370000Y-50999500D01*
X38370000Y-50724500D01*
X38380467Y-50671881D01*
X38410273Y-50627273D01*
X38454881Y-50597467D01*
X38507500Y-50587000D01*
X39682500Y-50587000D01*
X39735119Y-50597467D01*
X39735119Y-50597467D01*
G37*
D12*
X39095000Y-50862000D03*
D10*
G36*
X58791403Y-44731418D02*
G01*
X58840066Y-44763934D01*
X58872582Y-44812597D01*
X58884000Y-44870000D01*
X58884000Y-45170000D01*
X58872582Y-45227403D01*
X58840066Y-45276066D01*
X58791403Y-45308582D01*
X58734000Y-45320000D01*
X57084000Y-45320000D01*
X57026597Y-45308582D01*
X56977934Y-45276066D01*
X56945418Y-45227403D01*
X56934000Y-45170000D01*
X56934000Y-44870000D01*
X56945418Y-44812597D01*
X56977934Y-44763934D01*
X57026597Y-44731418D01*
X57084000Y-44720000D01*
X58734000Y-44720000D01*
X58791403Y-44731418D01*
X58791403Y-44731418D01*
G37*
D13*
X57909000Y-45020000D03*
D10*
G36*
X58791403Y-46001418D02*
G01*
X58840066Y-46033934D01*
X58872582Y-46082597D01*
X58884000Y-46140000D01*
X58884000Y-46440000D01*
X58872582Y-46497403D01*
X58840066Y-46546066D01*
X58791403Y-46578582D01*
X58734000Y-46590000D01*
X57084000Y-46590000D01*
X57026597Y-46578582D01*
X56977934Y-46546066D01*
X56945418Y-46497403D01*
X56934000Y-46440000D01*
X56934000Y-46140000D01*
X56945418Y-46082597D01*
X56977934Y-46033934D01*
X57026597Y-46001418D01*
X57084000Y-45990000D01*
X58734000Y-45990000D01*
X58791403Y-46001418D01*
X58791403Y-46001418D01*
G37*
D13*
X57909000Y-46290000D03*
D10*
G36*
X58791403Y-47271418D02*
G01*
X58840066Y-47303934D01*
X58872582Y-47352597D01*
X58884000Y-47410000D01*
X58884000Y-47710000D01*
X58872582Y-47767403D01*
X58840066Y-47816066D01*
X58791403Y-47848582D01*
X58734000Y-47860000D01*
X57084000Y-47860000D01*
X57026597Y-47848582D01*
X56977934Y-47816066D01*
X56945418Y-47767403D01*
X56934000Y-47710000D01*
X56934000Y-47410000D01*
X56945418Y-47352597D01*
X56977934Y-47303934D01*
X57026597Y-47271418D01*
X57084000Y-47260000D01*
X58734000Y-47260000D01*
X58791403Y-47271418D01*
X58791403Y-47271418D01*
G37*
D13*
X57909000Y-47560000D03*
D10*
G36*
X58791403Y-48541418D02*
G01*
X58840066Y-48573934D01*
X58872582Y-48622597D01*
X58884000Y-48680000D01*
X58884000Y-48980000D01*
X58872582Y-49037403D01*
X58840066Y-49086066D01*
X58791403Y-49118582D01*
X58734000Y-49130000D01*
X57084000Y-49130000D01*
X57026597Y-49118582D01*
X56977934Y-49086066D01*
X56945418Y-49037403D01*
X56934000Y-48980000D01*
X56934000Y-48680000D01*
X56945418Y-48622597D01*
X56977934Y-48573934D01*
X57026597Y-48541418D01*
X57084000Y-48530000D01*
X58734000Y-48530000D01*
X58791403Y-48541418D01*
X58791403Y-48541418D01*
G37*
D13*
X57909000Y-48830000D03*
D10*
G36*
X53841403Y-48541418D02*
G01*
X53890066Y-48573934D01*
X53922582Y-48622597D01*
X53934000Y-48680000D01*
X53934000Y-48980000D01*
X53922582Y-49037403D01*
X53890066Y-49086066D01*
X53841403Y-49118582D01*
X53784000Y-49130000D01*
X52134000Y-49130000D01*
X52076597Y-49118582D01*
X52027934Y-49086066D01*
X51995418Y-49037403D01*
X51984000Y-48980000D01*
X51984000Y-48680000D01*
X51995418Y-48622597D01*
X52027934Y-48573934D01*
X52076597Y-48541418D01*
X52134000Y-48530000D01*
X53784000Y-48530000D01*
X53841403Y-48541418D01*
X53841403Y-48541418D01*
G37*
D13*
X52959000Y-48830000D03*
D10*
G36*
X53841403Y-47271418D02*
G01*
X53890066Y-47303934D01*
X53922582Y-47352597D01*
X53934000Y-47410000D01*
X53934000Y-47710000D01*
X53922582Y-47767403D01*
X53890066Y-47816066D01*
X53841403Y-47848582D01*
X53784000Y-47860000D01*
X52134000Y-47860000D01*
X52076597Y-47848582D01*
X52027934Y-47816066D01*
X51995418Y-47767403D01*
X51984000Y-47710000D01*
X51984000Y-47410000D01*
X51995418Y-47352597D01*
X52027934Y-47303934D01*
X52076597Y-47271418D01*
X52134000Y-47260000D01*
X53784000Y-47260000D01*
X53841403Y-47271418D01*
X53841403Y-47271418D01*
G37*
D13*
X52959000Y-47560000D03*
D10*
G36*
X53841403Y-46001418D02*
G01*
X53890066Y-46033934D01*
X53922582Y-46082597D01*
X53934000Y-46140000D01*
X53934000Y-46440000D01*
X53922582Y-46497403D01*
X53890066Y-46546066D01*
X53841403Y-46578582D01*
X53784000Y-46590000D01*
X52134000Y-46590000D01*
X52076597Y-46578582D01*
X52027934Y-46546066D01*
X51995418Y-46497403D01*
X51984000Y-46440000D01*
X51984000Y-46140000D01*
X51995418Y-46082597D01*
X52027934Y-46033934D01*
X52076597Y-46001418D01*
X52134000Y-45990000D01*
X53784000Y-45990000D01*
X53841403Y-46001418D01*
X53841403Y-46001418D01*
G37*
D13*
X52959000Y-46290000D03*
D10*
G36*
X53841403Y-44731418D02*
G01*
X53890066Y-44763934D01*
X53922582Y-44812597D01*
X53934000Y-44870000D01*
X53934000Y-45170000D01*
X53922582Y-45227403D01*
X53890066Y-45276066D01*
X53841403Y-45308582D01*
X53784000Y-45320000D01*
X52134000Y-45320000D01*
X52076597Y-45308582D01*
X52027934Y-45276066D01*
X51995418Y-45227403D01*
X51984000Y-45170000D01*
X51984000Y-44870000D01*
X51995418Y-44812597D01*
X52027934Y-44763934D01*
X52076597Y-44731418D01*
X52134000Y-44720000D01*
X53784000Y-44720000D01*
X53841403Y-44731418D01*
X53841403Y-44731418D01*
G37*
D13*
X52959000Y-45020000D03*
D10*
G36*
X45202403Y-44731418D02*
G01*
X45251066Y-44763934D01*
X45283582Y-44812597D01*
X45295000Y-44870000D01*
X45295000Y-45170000D01*
X45283582Y-45227403D01*
X45251066Y-45276066D01*
X45202403Y-45308582D01*
X45145000Y-45320000D01*
X43495000Y-45320000D01*
X43437597Y-45308582D01*
X43388934Y-45276066D01*
X43356418Y-45227403D01*
X43345000Y-45170000D01*
X43345000Y-44870000D01*
X43356418Y-44812597D01*
X43388934Y-44763934D01*
X43437597Y-44731418D01*
X43495000Y-44720000D01*
X45145000Y-44720000D01*
X45202403Y-44731418D01*
X45202403Y-44731418D01*
G37*
D13*
X44320000Y-45020000D03*
D10*
G36*
X45202403Y-46001418D02*
G01*
X45251066Y-46033934D01*
X45283582Y-46082597D01*
X45295000Y-46140000D01*
X45295000Y-46440000D01*
X45283582Y-46497403D01*
X45251066Y-46546066D01*
X45202403Y-46578582D01*
X45145000Y-46590000D01*
X43495000Y-46590000D01*
X43437597Y-46578582D01*
X43388934Y-46546066D01*
X43356418Y-46497403D01*
X43345000Y-46440000D01*
X43345000Y-46140000D01*
X43356418Y-46082597D01*
X43388934Y-46033934D01*
X43437597Y-46001418D01*
X43495000Y-45990000D01*
X45145000Y-45990000D01*
X45202403Y-46001418D01*
X45202403Y-46001418D01*
G37*
D13*
X44320000Y-46290000D03*
D10*
G36*
X45202403Y-47271418D02*
G01*
X45251066Y-47303934D01*
X45283582Y-47352597D01*
X45295000Y-47410000D01*
X45295000Y-47710000D01*
X45283582Y-47767403D01*
X45251066Y-47816066D01*
X45202403Y-47848582D01*
X45145000Y-47860000D01*
X43495000Y-47860000D01*
X43437597Y-47848582D01*
X43388934Y-47816066D01*
X43356418Y-47767403D01*
X43345000Y-47710000D01*
X43345000Y-47410000D01*
X43356418Y-47352597D01*
X43388934Y-47303934D01*
X43437597Y-47271418D01*
X43495000Y-47260000D01*
X45145000Y-47260000D01*
X45202403Y-47271418D01*
X45202403Y-47271418D01*
G37*
D13*
X44320000Y-47560000D03*
D10*
G36*
X45202403Y-48541418D02*
G01*
X45251066Y-48573934D01*
X45283582Y-48622597D01*
X45295000Y-48680000D01*
X45295000Y-48980000D01*
X45283582Y-49037403D01*
X45251066Y-49086066D01*
X45202403Y-49118582D01*
X45145000Y-49130000D01*
X43495000Y-49130000D01*
X43437597Y-49118582D01*
X43388934Y-49086066D01*
X43356418Y-49037403D01*
X43345000Y-48980000D01*
X43345000Y-48680000D01*
X43356418Y-48622597D01*
X43388934Y-48573934D01*
X43437597Y-48541418D01*
X43495000Y-48530000D01*
X45145000Y-48530000D01*
X45202403Y-48541418D01*
X45202403Y-48541418D01*
G37*
D13*
X44320000Y-48830000D03*
D10*
G36*
X40252403Y-48541418D02*
G01*
X40301066Y-48573934D01*
X40333582Y-48622597D01*
X40345000Y-48680000D01*
X40345000Y-48980000D01*
X40333582Y-49037403D01*
X40301066Y-49086066D01*
X40252403Y-49118582D01*
X40195000Y-49130000D01*
X38545000Y-49130000D01*
X38487597Y-49118582D01*
X38438934Y-49086066D01*
X38406418Y-49037403D01*
X38395000Y-48980000D01*
X38395000Y-48680000D01*
X38406418Y-48622597D01*
X38438934Y-48573934D01*
X38487597Y-48541418D01*
X38545000Y-48530000D01*
X40195000Y-48530000D01*
X40252403Y-48541418D01*
X40252403Y-48541418D01*
G37*
D13*
X39370000Y-48830000D03*
D10*
G36*
X40252403Y-47271418D02*
G01*
X40301066Y-47303934D01*
X40333582Y-47352597D01*
X40345000Y-47410000D01*
X40345000Y-47710000D01*
X40333582Y-47767403D01*
X40301066Y-47816066D01*
X40252403Y-47848582D01*
X40195000Y-47860000D01*
X38545000Y-47860000D01*
X38487597Y-47848582D01*
X38438934Y-47816066D01*
X38406418Y-47767403D01*
X38395000Y-47710000D01*
X38395000Y-47410000D01*
X38406418Y-47352597D01*
X38438934Y-47303934D01*
X38487597Y-47271418D01*
X38545000Y-47260000D01*
X40195000Y-47260000D01*
X40252403Y-47271418D01*
X40252403Y-47271418D01*
G37*
D13*
X39370000Y-47560000D03*
D10*
G36*
X40252403Y-46001418D02*
G01*
X40301066Y-46033934D01*
X40333582Y-46082597D01*
X40345000Y-46140000D01*
X40345000Y-46440000D01*
X40333582Y-46497403D01*
X40301066Y-46546066D01*
X40252403Y-46578582D01*
X40195000Y-46590000D01*
X38545000Y-46590000D01*
X38487597Y-46578582D01*
X38438934Y-46546066D01*
X38406418Y-46497403D01*
X38395000Y-46440000D01*
X38395000Y-46140000D01*
X38406418Y-46082597D01*
X38438934Y-46033934D01*
X38487597Y-46001418D01*
X38545000Y-45990000D01*
X40195000Y-45990000D01*
X40252403Y-46001418D01*
X40252403Y-46001418D01*
G37*
D13*
X39370000Y-46290000D03*
D10*
G36*
X40252403Y-44731418D02*
G01*
X40301066Y-44763934D01*
X40333582Y-44812597D01*
X40345000Y-44870000D01*
X40345000Y-45170000D01*
X40333582Y-45227403D01*
X40301066Y-45276066D01*
X40252403Y-45308582D01*
X40195000Y-45320000D01*
X38545000Y-45320000D01*
X38487597Y-45308582D01*
X38438934Y-45276066D01*
X38406418Y-45227403D01*
X38395000Y-45170000D01*
X38395000Y-44870000D01*
X38406418Y-44812597D01*
X38438934Y-44763934D01*
X38487597Y-44731418D01*
X38545000Y-44720000D01*
X40195000Y-44720000D01*
X40252403Y-44731418D01*
X40252403Y-44731418D01*
G37*
D13*
X39370000Y-45020000D03*
D10*
G36*
X46809387Y-57517079D02*
G01*
X46886438Y-57568562D01*
X46937921Y-57645613D01*
X46956000Y-57736500D01*
X46956000Y-58211500D01*
X46937921Y-58302387D01*
X46886438Y-58379438D01*
X46809387Y-58430921D01*
X46718500Y-58449000D01*
X46143500Y-58449000D01*
X46052613Y-58430921D01*
X45975562Y-58379438D01*
X45924079Y-58302387D01*
X45906000Y-58211500D01*
X45906000Y-57736500D01*
X45924079Y-57645613D01*
X45975562Y-57568562D01*
X46052613Y-57517079D01*
X46143500Y-57499000D01*
X46718500Y-57499000D01*
X46809387Y-57517079D01*
X46809387Y-57517079D01*
G37*
D14*
X46431000Y-57974000D03*
D10*
G36*
X48559387Y-57517079D02*
G01*
X48636438Y-57568562D01*
X48687921Y-57645613D01*
X48706000Y-57736500D01*
X48706000Y-58211500D01*
X48687921Y-58302387D01*
X48636438Y-58379438D01*
X48559387Y-58430921D01*
X48468500Y-58449000D01*
X47893500Y-58449000D01*
X47802613Y-58430921D01*
X47725562Y-58379438D01*
X47674079Y-58302387D01*
X47656000Y-58211500D01*
X47656000Y-57736500D01*
X47674079Y-57645613D01*
X47725562Y-57568562D01*
X47802613Y-57517079D01*
X47893500Y-57499000D01*
X48468500Y-57499000D01*
X48559387Y-57517079D01*
X48559387Y-57517079D01*
G37*
D14*
X48181000Y-57974000D03*
D10*
G36*
X35774387Y-54977079D02*
G01*
X35851438Y-55028562D01*
X35902921Y-55105613D01*
X35921000Y-55196500D01*
X35921000Y-55671500D01*
X35902921Y-55762387D01*
X35851438Y-55839438D01*
X35774387Y-55890921D01*
X35683500Y-55909000D01*
X35108500Y-55909000D01*
X35017613Y-55890921D01*
X34940562Y-55839438D01*
X34889079Y-55762387D01*
X34871000Y-55671500D01*
X34871000Y-55196500D01*
X34889079Y-55105613D01*
X34940562Y-55028562D01*
X35017613Y-54977079D01*
X35108500Y-54959000D01*
X35683500Y-54959000D01*
X35774387Y-54977079D01*
X35774387Y-54977079D01*
G37*
D14*
X35396000Y-55434000D03*
D10*
G36*
X37524387Y-54977079D02*
G01*
X37601438Y-55028562D01*
X37652921Y-55105613D01*
X37671000Y-55196500D01*
X37671000Y-55671500D01*
X37652921Y-55762387D01*
X37601438Y-55839438D01*
X37524387Y-55890921D01*
X37433500Y-55909000D01*
X36858500Y-55909000D01*
X36767613Y-55890921D01*
X36690562Y-55839438D01*
X36639079Y-55762387D01*
X36621000Y-55671500D01*
X36621000Y-55196500D01*
X36639079Y-55105613D01*
X36690562Y-55028562D01*
X36767613Y-54977079D01*
X36858500Y-54959000D01*
X37433500Y-54959000D01*
X37524387Y-54977079D01*
X37524387Y-54977079D01*
G37*
D14*
X37146000Y-55434000D03*
D10*
G36*
X46809387Y-52945079D02*
G01*
X46886438Y-52996562D01*
X46937921Y-53073613D01*
X46956000Y-53164500D01*
X46956000Y-53639500D01*
X46937921Y-53730387D01*
X46886438Y-53807438D01*
X46809387Y-53858921D01*
X46718500Y-53877000D01*
X46143500Y-53877000D01*
X46052613Y-53858921D01*
X45975562Y-53807438D01*
X45924079Y-53730387D01*
X45906000Y-53639500D01*
X45906000Y-53164500D01*
X45924079Y-53073613D01*
X45975562Y-52996562D01*
X46052613Y-52945079D01*
X46143500Y-52927000D01*
X46718500Y-52927000D01*
X46809387Y-52945079D01*
X46809387Y-52945079D01*
G37*
D14*
X46431000Y-53402000D03*
D10*
G36*
X48559387Y-52945079D02*
G01*
X48636438Y-52996562D01*
X48687921Y-53073613D01*
X48706000Y-53164500D01*
X48706000Y-53639500D01*
X48687921Y-53730387D01*
X48636438Y-53807438D01*
X48559387Y-53858921D01*
X48468500Y-53877000D01*
X47893500Y-53877000D01*
X47802613Y-53858921D01*
X47725562Y-53807438D01*
X47674079Y-53730387D01*
X47656000Y-53639500D01*
X47656000Y-53164500D01*
X47674079Y-53073613D01*
X47725562Y-52996562D01*
X47802613Y-52945079D01*
X47893500Y-52927000D01*
X48468500Y-52927000D01*
X48559387Y-52945079D01*
X48559387Y-52945079D01*
G37*
D14*
X48181000Y-53402000D03*
D10*
G36*
X35774387Y-50405079D02*
G01*
X35851438Y-50456562D01*
X35902921Y-50533613D01*
X35921000Y-50624500D01*
X35921000Y-51099500D01*
X35902921Y-51190387D01*
X35851438Y-51267438D01*
X35774387Y-51318921D01*
X35683500Y-51337000D01*
X35108500Y-51337000D01*
X35017613Y-51318921D01*
X34940562Y-51267438D01*
X34889079Y-51190387D01*
X34871000Y-51099500D01*
X34871000Y-50624500D01*
X34889079Y-50533613D01*
X34940562Y-50456562D01*
X35017613Y-50405079D01*
X35108500Y-50387000D01*
X35683500Y-50387000D01*
X35774387Y-50405079D01*
X35774387Y-50405079D01*
G37*
D14*
X35396000Y-50862000D03*
D10*
G36*
X37524387Y-50405079D02*
G01*
X37601438Y-50456562D01*
X37652921Y-50533613D01*
X37671000Y-50624500D01*
X37671000Y-51099500D01*
X37652921Y-51190387D01*
X37601438Y-51267438D01*
X37524387Y-51318921D01*
X37433500Y-51337000D01*
X36858500Y-51337000D01*
X36767613Y-51318921D01*
X36690562Y-51267438D01*
X36639079Y-51190387D01*
X36621000Y-51099500D01*
X36621000Y-50624500D01*
X36639079Y-50533613D01*
X36690562Y-50456562D01*
X36767613Y-50405079D01*
X36858500Y-50387000D01*
X37433500Y-50387000D01*
X37524387Y-50405079D01*
X37524387Y-50405079D01*
G37*
D14*
X37146000Y-50862000D03*
D10*
G36*
X55163387Y-50913079D02*
G01*
X55240438Y-50964562D01*
X55291921Y-51041613D01*
X55310000Y-51132500D01*
X55310000Y-51607500D01*
X55291921Y-51698387D01*
X55240438Y-51775438D01*
X55163387Y-51826921D01*
X55072500Y-51845000D01*
X54497500Y-51845000D01*
X54406613Y-51826921D01*
X54329562Y-51775438D01*
X54278079Y-51698387D01*
X54260000Y-51607500D01*
X54260000Y-51132500D01*
X54278079Y-51041613D01*
X54329562Y-50964562D01*
X54406613Y-50913079D01*
X54497500Y-50895000D01*
X55072500Y-50895000D01*
X55163387Y-50913079D01*
X55163387Y-50913079D01*
G37*
D14*
X54785000Y-51370000D03*
D10*
G36*
X53413387Y-50913079D02*
G01*
X53490438Y-50964562D01*
X53541921Y-51041613D01*
X53560000Y-51132500D01*
X53560000Y-51607500D01*
X53541921Y-51698387D01*
X53490438Y-51775438D01*
X53413387Y-51826921D01*
X53322500Y-51845000D01*
X52747500Y-51845000D01*
X52656613Y-51826921D01*
X52579562Y-51775438D01*
X52528079Y-51698387D01*
X52510000Y-51607500D01*
X52510000Y-51132500D01*
X52528079Y-51041613D01*
X52579562Y-50964562D01*
X52656613Y-50913079D01*
X52747500Y-50895000D01*
X53322500Y-50895000D01*
X53413387Y-50913079D01*
X53413387Y-50913079D01*
G37*
D14*
X53035000Y-51370000D03*
D10*
G36*
X55163387Y-52818079D02*
G01*
X55240438Y-52869562D01*
X55291921Y-52946613D01*
X55310000Y-53037500D01*
X55310000Y-53512500D01*
X55291921Y-53603387D01*
X55240438Y-53680438D01*
X55163387Y-53731921D01*
X55072500Y-53750000D01*
X54497500Y-53750000D01*
X54406613Y-53731921D01*
X54329562Y-53680438D01*
X54278079Y-53603387D01*
X54260000Y-53512500D01*
X54260000Y-53037500D01*
X54278079Y-52946613D01*
X54329562Y-52869562D01*
X54406613Y-52818079D01*
X54497500Y-52800000D01*
X55072500Y-52800000D01*
X55163387Y-52818079D01*
X55163387Y-52818079D01*
G37*
D14*
X54785000Y-53275000D03*
D10*
G36*
X53413387Y-52818079D02*
G01*
X53490438Y-52869562D01*
X53541921Y-52946613D01*
X53560000Y-53037500D01*
X53560000Y-53512500D01*
X53541921Y-53603387D01*
X53490438Y-53680438D01*
X53413387Y-53731921D01*
X53322500Y-53750000D01*
X52747500Y-53750000D01*
X52656613Y-53731921D01*
X52579562Y-53680438D01*
X52528079Y-53603387D01*
X52510000Y-53512500D01*
X52510000Y-53037500D01*
X52528079Y-52946613D01*
X52579562Y-52869562D01*
X52656613Y-52818079D01*
X52747500Y-52800000D01*
X53322500Y-52800000D01*
X53413387Y-52818079D01*
X53413387Y-52818079D01*
G37*
D14*
X53035000Y-53275000D03*
D10*
G36*
X58578387Y-50913079D02*
G01*
X58655438Y-50964562D01*
X58706921Y-51041613D01*
X58725000Y-51132500D01*
X58725000Y-51607500D01*
X58706921Y-51698387D01*
X58655438Y-51775438D01*
X58578387Y-51826921D01*
X58487500Y-51845000D01*
X57912500Y-51845000D01*
X57821613Y-51826921D01*
X57744562Y-51775438D01*
X57693079Y-51698387D01*
X57675000Y-51607500D01*
X57675000Y-51132500D01*
X57693079Y-51041613D01*
X57744562Y-50964562D01*
X57821613Y-50913079D01*
X57912500Y-50895000D01*
X58487500Y-50895000D01*
X58578387Y-50913079D01*
X58578387Y-50913079D01*
G37*
D14*
X58200000Y-51370000D03*
D10*
G36*
X56828387Y-50913079D02*
G01*
X56905438Y-50964562D01*
X56956921Y-51041613D01*
X56975000Y-51132500D01*
X56975000Y-51607500D01*
X56956921Y-51698387D01*
X56905438Y-51775438D01*
X56828387Y-51826921D01*
X56737500Y-51845000D01*
X56162500Y-51845000D01*
X56071613Y-51826921D01*
X55994562Y-51775438D01*
X55943079Y-51698387D01*
X55925000Y-51607500D01*
X55925000Y-51132500D01*
X55943079Y-51041613D01*
X55994562Y-50964562D01*
X56071613Y-50913079D01*
X56162500Y-50895000D01*
X56737500Y-50895000D01*
X56828387Y-50913079D01*
X56828387Y-50913079D01*
G37*
D14*
X56450000Y-51370000D03*
D15*
X58990000Y-56450000D03*
D16*
X58990000Y-53910000D03*
D17*
X70904998Y-45739999D03*
X70904998Y-50739999D03*
D15*
X29780000Y-59752000D03*
X29780000Y-57212000D03*
X29780000Y-54672000D03*
X29780000Y-52132000D03*
X29780000Y-49592000D03*
D16*
X29780000Y-47052000D03*
D17*
X70904998Y-55740000D03*
X70904998Y-60740000D03*
D18*
X63070000Y-53402000D03*
X65070000Y-52452000D03*
X65070000Y-54352000D03*
D10*
G36*
X56590671Y-54959030D02*
G01*
X56671777Y-55013223D01*
X56725970Y-55094329D01*
X56745000Y-55190000D01*
X56745000Y-56440000D01*
X56725970Y-56535671D01*
X56671777Y-56616777D01*
X56590671Y-56670970D01*
X56495000Y-56690000D01*
X55570000Y-56690000D01*
X55474329Y-56670970D01*
X55393223Y-56616777D01*
X55339030Y-56535671D01*
X55320000Y-56440000D01*
X55320000Y-55190000D01*
X55339030Y-55094329D01*
X55393223Y-55013223D01*
X55474329Y-54959030D01*
X55570000Y-54940000D01*
X56495000Y-54940000D01*
X56590671Y-54959030D01*
X56590671Y-54959030D01*
G37*
D11*
X56032500Y-55815000D03*
D10*
G36*
X53615671Y-54959030D02*
G01*
X53696777Y-55013223D01*
X53750970Y-55094329D01*
X53770000Y-55190000D01*
X53770000Y-56440000D01*
X53750970Y-56535671D01*
X53696777Y-56616777D01*
X53615671Y-56670970D01*
X53520000Y-56690000D01*
X52595000Y-56690000D01*
X52499329Y-56670970D01*
X52418223Y-56616777D01*
X52364030Y-56535671D01*
X52345000Y-56440000D01*
X52345000Y-55190000D01*
X52364030Y-55094329D01*
X52418223Y-55013223D01*
X52499329Y-54959030D01*
X52595000Y-54940000D01*
X53520000Y-54940000D01*
X53615671Y-54959030D01*
X53615671Y-54959030D01*
G37*
D11*
X53057500Y-55815000D03*
D19*
X50100000Y-49782498D03*
X51751000Y-51370004D03*
X49401492Y-57974000D03*
X48195000Y-52322500D03*
X56386500Y-48830006D03*
X33590000Y-49782500D03*
X47560000Y-49782504D03*
X36130000Y-49719000D03*
X62800000Y-52132000D03*
X62800000Y-54545000D03*
X61784000Y-54291000D03*
X61784000Y-53402000D03*
X61784000Y-52513000D03*
X40702000Y-57974000D03*
X40702000Y-53402000D03*
X41019500Y-49465000D03*
X41019500Y-48576000D03*
X41019500Y-47687000D03*
X41019500Y-46798000D03*
X41019500Y-45909000D03*
X41019500Y-45020000D03*
X42670500Y-49465000D03*
X42670500Y-48576000D03*
X42670500Y-47687000D03*
X42670500Y-46798000D03*
X42670500Y-45909000D03*
X42670500Y-45020000D03*
D20*
X50773010Y-53617990D02*
X46417000Y-57974000D01*
X50962525Y-50119979D02*
X50257502Y-50825002D01*
X50257502Y-50825002D02*
X47171998Y-50825002D01*
X47171998Y-50825002D02*
X44940710Y-53056290D01*
X54034000Y-47560000D02*
X54311465Y-47837465D01*
X54311465Y-47837465D02*
X54311465Y-49444535D01*
X50773010Y-50945905D02*
X50773010Y-53617990D01*
X50100000Y-48412500D02*
X50100000Y-49782498D01*
X54761476Y-47017476D02*
X54761476Y-49630935D01*
X52959000Y-46290000D02*
X54034000Y-46290000D01*
X53822421Y-50569990D02*
X51148925Y-50569990D01*
X53636021Y-50119979D02*
X50962525Y-50119979D01*
X54034000Y-46290000D02*
X54761476Y-47017476D01*
X44940710Y-53056290D02*
X44595000Y-53402000D01*
X54761476Y-49630935D02*
X53822421Y-50569990D01*
X51148925Y-50569990D02*
X50773010Y-50945905D01*
X54311465Y-49444535D02*
X53636021Y-50119979D01*
X52959000Y-47560000D02*
X54034000Y-47560000D01*
X53035000Y-51370000D02*
X51751004Y-51370000D01*
X51751004Y-51370000D02*
X51751000Y-51370004D01*
X48181000Y-57974000D02*
X49401492Y-57974000D01*
X48181000Y-52336500D02*
X48195000Y-52322500D01*
X48181000Y-53402000D02*
X48181000Y-52336500D01*
X57026573Y-46417000D02*
X57974000Y-46417000D01*
X56583496Y-47560000D02*
X55661498Y-48481998D01*
X57847000Y-47560000D02*
X56583496Y-47560000D01*
X55661498Y-51216498D02*
X56450000Y-52005000D01*
X55211487Y-48232086D02*
X57026573Y-46417000D01*
X55661498Y-48481998D02*
X55661498Y-51216498D01*
X54785000Y-51765000D02*
X55211487Y-51338513D01*
X56386506Y-48830000D02*
X56386500Y-48830006D01*
X57909000Y-48830000D02*
X56386506Y-48830000D01*
X55211487Y-51338513D02*
X55211487Y-48232086D01*
X33590000Y-48412500D02*
X33590000Y-49782500D01*
X47560000Y-48412500D02*
X47560000Y-49782504D01*
X64070000Y-50925500D02*
X64451000Y-51306500D01*
X63493500Y-50925500D02*
X64070000Y-50925500D01*
X60895000Y-50925500D02*
X60768000Y-51052500D01*
X63493500Y-50925500D02*
X60895000Y-50925500D01*
X60768000Y-51052500D02*
X60747500Y-51052500D01*
X65070000Y-52452000D02*
X65020000Y-52452000D01*
X60747500Y-51052500D02*
X58990000Y-52810000D01*
X58990000Y-52810000D02*
X58990000Y-53910000D01*
X30629999Y-56362001D02*
X30629999Y-55727001D01*
X29780000Y-57212000D02*
X30629999Y-56362001D01*
X30629999Y-55727001D02*
X35368000Y-50989000D01*
X36130000Y-48412500D02*
X36130000Y-49719000D01*
X61243999Y-57625001D02*
X63181000Y-55688000D01*
X63181000Y-55688000D02*
X64451000Y-55688000D01*
X54785000Y-53275000D02*
X54785000Y-56817000D01*
X55593001Y-57625001D02*
X61243999Y-57625001D01*
X54785000Y-56817000D02*
X55593001Y-57625001D01*
X64451000Y-55688000D02*
X64578000Y-55561000D01*
X46431000Y-53402000D02*
X44766000Y-53402000D01*
X47422710Y-45390710D02*
X47433000Y-45401000D01*
X44320000Y-45020000D02*
X44690710Y-45390710D01*
X44690710Y-45390710D02*
X47422710Y-45390710D01*
X51370000Y-47814000D02*
X52386000Y-48830000D01*
X44320000Y-47560000D02*
X44690710Y-47189290D01*
X51370000Y-47433000D02*
X51370000Y-47814000D01*
X52386000Y-48830000D02*
X53021000Y-48830000D01*
X51126290Y-47189290D02*
X51370000Y-47433000D01*
X44690710Y-47189290D02*
X51126290Y-47189290D01*
X52005000Y-45274000D02*
X52259000Y-45020000D01*
X52259000Y-45020000D02*
X52894000Y-45020000D01*
X52005000Y-45528000D02*
X52005000Y-45274000D01*
X50872290Y-46660710D02*
X52005000Y-45528000D01*
X44320000Y-46290000D02*
X44690710Y-46660710D01*
X44690710Y-46660710D02*
X50872290Y-46660710D01*
X37983011Y-46601989D02*
X32641600Y-46601989D01*
X32641600Y-46601989D02*
X29780000Y-49463589D01*
X39370000Y-46290000D02*
X38295000Y-46290000D01*
X29780000Y-49463589D02*
X29780000Y-49719000D01*
X38295000Y-46290000D02*
X37983011Y-46601989D01*
X29780000Y-52132000D02*
X30955001Y-50956999D01*
X30955001Y-50956999D02*
X30955001Y-48924999D01*
X30955001Y-48924999D02*
X32828000Y-47052000D01*
X32828000Y-47052000D02*
X38797000Y-47052000D01*
X38797000Y-47052000D02*
X39305000Y-47560000D01*
X40575000Y-58101000D02*
X40702000Y-57974000D01*
X39095000Y-58101000D02*
X40575000Y-58101000D01*
X39095000Y-53402000D02*
X40702000Y-53402000D01*
D21*
X37522500Y-45020000D02*
X39178000Y-45020000D01*
X36130000Y-45437500D02*
X37105000Y-45437500D01*
X37105000Y-45437500D02*
X37522500Y-45020000D01*
X33717000Y-45528000D02*
X36257000Y-45528000D01*
X32554000Y-45528000D02*
X33717000Y-45528000D01*
X29780000Y-47052000D02*
X31030000Y-47052000D01*
X31030000Y-47052000D02*
X32554000Y-45528000D01*
D20*
X54785000Y-51765000D02*
X54785000Y-53261000D01*
X54785000Y-51370000D02*
X54785000Y-51765000D01*
X56450000Y-51370000D02*
X56450000Y-52005000D01*
X56450000Y-52005000D02*
X56450000Y-52470000D01*
X56410999Y-55600001D02*
X56196000Y-55815000D01*
X58990000Y-56450000D02*
X58140001Y-55600001D01*
X58140001Y-55600001D02*
X56410999Y-55600001D01*
X57890000Y-53910000D02*
X58990000Y-53910000D01*
X56450000Y-52470000D02*
X57890000Y-53910000D01*
X54785000Y-53261000D02*
X54799000Y-53275000D01*
X53275000Y-55688000D02*
X53402000Y-55688000D01*
X53275000Y-55815000D02*
X53275000Y-55688000D01*
X53275000Y-54840000D02*
X53275000Y-55815000D01*
X53035000Y-53850000D02*
X53275000Y-54090000D01*
X53035000Y-53275000D02*
X53035000Y-53850000D01*
X53275000Y-54090000D02*
X53275000Y-54840000D01*
X46163000Y-58101000D02*
X46290000Y-57974000D01*
X44595000Y-58101000D02*
X46163000Y-58101000D01*
X37146000Y-50862000D02*
X39178000Y-50862000D01*
X38924000Y-55434000D02*
X39051000Y-55561000D01*
X37146000Y-55434000D02*
X38924000Y-55434000D01*
X31050000Y-59752000D02*
X35368000Y-55434000D01*
X29780000Y-59752000D02*
X31050000Y-59752000D01*
D22*
G36*
X63689000Y-52387003D02*
G01*
X63542053Y-52361092D01*
X63520000Y-52359163D01*
X63324000Y-52359163D01*
X63255339Y-52379324D01*
X63208477Y-52433405D01*
X63197000Y-52486163D01*
X63197000Y-54317837D01*
X63217161Y-54386498D01*
X63271242Y-54433360D01*
X63324000Y-54444837D01*
X63520000Y-54444837D01*
X63552870Y-54440510D01*
X63689000Y-54404034D01*
X63689000Y-54862500D01*
X61403000Y-54862500D01*
X61403000Y-53656000D01*
X61977163Y-53656000D01*
X61977163Y-53802000D01*
X61981490Y-53834870D01*
X62050599Y-54092789D01*
X62075984Y-54141553D01*
X62191138Y-54278788D01*
X62224926Y-54307139D01*
X62380073Y-54396713D01*
X62421520Y-54411799D01*
X62597947Y-54442908D01*
X62620000Y-54444837D01*
X62816000Y-54444837D01*
X62884661Y-54424676D01*
X62931523Y-54370595D01*
X62943000Y-54317837D01*
X62943000Y-53656000D01*
X62922839Y-53587339D01*
X62868758Y-53540477D01*
X62816000Y-53529000D01*
X62104163Y-53529000D01*
X62035502Y-53549161D01*
X61988640Y-53603242D01*
X61977163Y-53656000D01*
X61403000Y-53656000D01*
X61403000Y-53002000D01*
X61977163Y-53002000D01*
X61977163Y-53148000D01*
X61997324Y-53216661D01*
X62051405Y-53263523D01*
X62104163Y-53275000D01*
X62816000Y-53275000D01*
X62884661Y-53254839D01*
X62931523Y-53200758D01*
X62943000Y-53148000D01*
X62943000Y-52486163D01*
X62922839Y-52417502D01*
X62868758Y-52370640D01*
X62816000Y-52359163D01*
X62620000Y-52359163D01*
X62587130Y-52363490D01*
X62329212Y-52432599D01*
X62280448Y-52457984D01*
X62143212Y-52573138D01*
X62114861Y-52606926D01*
X62025287Y-52762073D01*
X62010201Y-52803520D01*
X61979092Y-52979947D01*
X61977163Y-53002000D01*
X61403000Y-53002000D01*
X61403000Y-51814500D01*
X63689000Y-51814500D01*
X63689000Y-52387003D01*
X63689000Y-52387003D01*
G37*
X63689000Y-52387003D02*
X63542053Y-52361092D01*
X63520000Y-52359163D01*
X63324000Y-52359163D01*
X63255339Y-52379324D01*
X63208477Y-52433405D01*
X63197000Y-52486163D01*
X63197000Y-54317837D01*
X63217161Y-54386498D01*
X63271242Y-54433360D01*
X63324000Y-54444837D01*
X63520000Y-54444837D01*
X63552870Y-54440510D01*
X63689000Y-54404034D01*
X63689000Y-54862500D01*
X61403000Y-54862500D01*
X61403000Y-53656000D01*
X61977163Y-53656000D01*
X61977163Y-53802000D01*
X61981490Y-53834870D01*
X62050599Y-54092789D01*
X62075984Y-54141553D01*
X62191138Y-54278788D01*
X62224926Y-54307139D01*
X62380073Y-54396713D01*
X62421520Y-54411799D01*
X62597947Y-54442908D01*
X62620000Y-54444837D01*
X62816000Y-54444837D01*
X62884661Y-54424676D01*
X62931523Y-54370595D01*
X62943000Y-54317837D01*
X62943000Y-53656000D01*
X62922839Y-53587339D01*
X62868758Y-53540477D01*
X62816000Y-53529000D01*
X62104163Y-53529000D01*
X62035502Y-53549161D01*
X61988640Y-53603242D01*
X61977163Y-53656000D01*
X61403000Y-53656000D01*
X61403000Y-53002000D01*
X61977163Y-53002000D01*
X61977163Y-53148000D01*
X61997324Y-53216661D01*
X62051405Y-53263523D01*
X62104163Y-53275000D01*
X62816000Y-53275000D01*
X62884661Y-53254839D01*
X62931523Y-53200758D01*
X62943000Y-53148000D01*
X62943000Y-52486163D01*
X62922839Y-52417502D01*
X62868758Y-52370640D01*
X62816000Y-52359163D01*
X62620000Y-52359163D01*
X62587130Y-52363490D01*
X62329212Y-52432599D01*
X62280448Y-52457984D01*
X62143212Y-52573138D01*
X62114861Y-52606926D01*
X62025287Y-52762073D01*
X62010201Y-52803520D01*
X61979092Y-52979947D01*
X61977163Y-53002000D01*
X61403000Y-53002000D01*
X61403000Y-51814500D01*
X63689000Y-51814500D01*
X63689000Y-52387003D01*
G36*
X72325000Y-46925000D02*
G01*
X71650847Y-46925000D01*
X71680875Y-46903184D01*
X71724573Y-46846516D01*
X71730698Y-46775218D01*
X71696030Y-46710635D01*
X70994801Y-46009406D01*
X70931994Y-45975111D01*
X70860616Y-45980216D01*
X70815195Y-46009406D01*
X70114337Y-46710264D01*
X70080042Y-46773071D01*
X70085147Y-46844449D01*
X70130571Y-46903588D01*
X70188089Y-46944464D01*
X70207584Y-46955856D01*
X70412712Y-47052382D01*
X70433916Y-47060142D01*
X70652896Y-47118817D01*
X70675138Y-47122699D01*
X70677497Y-47122897D01*
X69314197Y-48486197D01*
X69277000Y-48576000D01*
X69277000Y-53021000D01*
X66134997Y-53021000D01*
X66160908Y-52874053D01*
X66162837Y-52852000D01*
X66162837Y-52706000D01*
X66142676Y-52637339D01*
X66088595Y-52590477D01*
X66035837Y-52579000D01*
X64943000Y-52579000D01*
X64943000Y-51536163D01*
X65197000Y-51536163D01*
X65197000Y-52198000D01*
X65217161Y-52266661D01*
X65271242Y-52313523D01*
X65324000Y-52325000D01*
X66035837Y-52325000D01*
X66104498Y-52304839D01*
X66151360Y-52250758D01*
X66162837Y-52198000D01*
X66162837Y-52052000D01*
X66158510Y-52019130D01*
X66089401Y-51761212D01*
X66064016Y-51712448D01*
X65948862Y-51575212D01*
X65915074Y-51546861D01*
X65759927Y-51457287D01*
X65718480Y-51442201D01*
X65542053Y-51411092D01*
X65520000Y-51409163D01*
X65324000Y-51409163D01*
X65255339Y-51429324D01*
X65208477Y-51483405D01*
X65197000Y-51536163D01*
X64943000Y-51536163D01*
X64922839Y-51467502D01*
X64868758Y-51420640D01*
X64816000Y-51409163D01*
X64620000Y-51409163D01*
X64587130Y-51413490D01*
X64451000Y-51449966D01*
X64451000Y-50145980D01*
X68143821Y-45714594D01*
X69503553Y-45714594D01*
X69517788Y-45940851D01*
X69521203Y-45963170D01*
X69575279Y-46183330D01*
X69582593Y-46204693D01*
X69674802Y-46411797D01*
X69685782Y-46431525D01*
X69740334Y-46511797D01*
X69795602Y-46557254D01*
X69866672Y-46565614D01*
X69935177Y-46530216D01*
X70635591Y-45829802D01*
X70669886Y-45766995D01*
X70666025Y-45713003D01*
X71140110Y-45713003D01*
X71145215Y-45784381D01*
X71174405Y-45829802D01*
X71874746Y-46530143D01*
X71937553Y-46564438D01*
X72008931Y-46559333D01*
X72070330Y-46510621D01*
X72131388Y-46418721D01*
X72142162Y-46398878D01*
X72232197Y-46190819D01*
X72239287Y-46169382D01*
X72291055Y-45948668D01*
X72294366Y-45922991D01*
X72302039Y-45629971D01*
X72300076Y-45604157D01*
X72259930Y-45381036D01*
X72253972Y-45359257D01*
X72174949Y-45146771D01*
X72165228Y-45126392D01*
X72075018Y-44973855D01*
X72022714Y-44925018D01*
X71952309Y-44912211D01*
X71875901Y-44948700D01*
X71174405Y-45650196D01*
X71140110Y-45713003D01*
X70666025Y-45713003D01*
X70664781Y-45695617D01*
X70635591Y-45650196D01*
X69933326Y-44947931D01*
X69870519Y-44913636D01*
X69799141Y-44918741D01*
X69742362Y-44960952D01*
X69723644Y-44985613D01*
X69711647Y-45004738D01*
X69608725Y-45206733D01*
X69600303Y-45227683D01*
X69534779Y-45444711D01*
X69530201Y-45466821D01*
X69504144Y-45692023D01*
X69503553Y-45714594D01*
X68143821Y-45714594D01*
X68991277Y-44697647D01*
X70078692Y-44697647D01*
X70114698Y-44770095D01*
X70815195Y-45470592D01*
X70878002Y-45504887D01*
X70949380Y-45499782D01*
X70994801Y-45470592D01*
X71698236Y-44767157D01*
X71732531Y-44704350D01*
X71727426Y-44632972D01*
X71669616Y-44566063D01*
X71478718Y-44461116D01*
X71458043Y-44452040D01*
X71243180Y-44379731D01*
X71221225Y-44374460D01*
X70996953Y-44341342D01*
X70974411Y-44340043D01*
X70747819Y-44347164D01*
X70725403Y-44349876D01*
X70503652Y-44397011D01*
X70482071Y-44403650D01*
X70272173Y-44489308D01*
X70252110Y-44499664D01*
X70136452Y-44573062D01*
X70089281Y-44626875D01*
X70078692Y-44697647D01*
X68991277Y-44697647D01*
X69463483Y-44131000D01*
X72325000Y-44131000D01*
X72325000Y-46925000D01*
X72325000Y-46925000D01*
G37*
X72325000Y-46925000D02*
X71650847Y-46925000D01*
X71680875Y-46903184D01*
X71724573Y-46846516D01*
X71730698Y-46775218D01*
X71696030Y-46710635D01*
X70994801Y-46009406D01*
X70931994Y-45975111D01*
X70860616Y-45980216D01*
X70815195Y-46009406D01*
X70114337Y-46710264D01*
X70080042Y-46773071D01*
X70085147Y-46844449D01*
X70130571Y-46903588D01*
X70188089Y-46944464D01*
X70207584Y-46955856D01*
X70412712Y-47052382D01*
X70433916Y-47060142D01*
X70652896Y-47118817D01*
X70675138Y-47122699D01*
X70677497Y-47122897D01*
X69314197Y-48486197D01*
X69277000Y-48576000D01*
X69277000Y-53021000D01*
X66134997Y-53021000D01*
X66160908Y-52874053D01*
X66162837Y-52852000D01*
X66162837Y-52706000D01*
X66142676Y-52637339D01*
X66088595Y-52590477D01*
X66035837Y-52579000D01*
X64943000Y-52579000D01*
X64943000Y-51536163D01*
X65197000Y-51536163D01*
X65197000Y-52198000D01*
X65217161Y-52266661D01*
X65271242Y-52313523D01*
X65324000Y-52325000D01*
X66035837Y-52325000D01*
X66104498Y-52304839D01*
X66151360Y-52250758D01*
X66162837Y-52198000D01*
X66162837Y-52052000D01*
X66158510Y-52019130D01*
X66089401Y-51761212D01*
X66064016Y-51712448D01*
X65948862Y-51575212D01*
X65915074Y-51546861D01*
X65759927Y-51457287D01*
X65718480Y-51442201D01*
X65542053Y-51411092D01*
X65520000Y-51409163D01*
X65324000Y-51409163D01*
X65255339Y-51429324D01*
X65208477Y-51483405D01*
X65197000Y-51536163D01*
X64943000Y-51536163D01*
X64922839Y-51467502D01*
X64868758Y-51420640D01*
X64816000Y-51409163D01*
X64620000Y-51409163D01*
X64587130Y-51413490D01*
X64451000Y-51449966D01*
X64451000Y-50145980D01*
X68143821Y-45714594D01*
X69503553Y-45714594D01*
X69517788Y-45940851D01*
X69521203Y-45963170D01*
X69575279Y-46183330D01*
X69582593Y-46204693D01*
X69674802Y-46411797D01*
X69685782Y-46431525D01*
X69740334Y-46511797D01*
X69795602Y-46557254D01*
X69866672Y-46565614D01*
X69935177Y-46530216D01*
X70635591Y-45829802D01*
X70669886Y-45766995D01*
X70666025Y-45713003D01*
X71140110Y-45713003D01*
X71145215Y-45784381D01*
X71174405Y-45829802D01*
X71874746Y-46530143D01*
X71937553Y-46564438D01*
X72008931Y-46559333D01*
X72070330Y-46510621D01*
X72131388Y-46418721D01*
X72142162Y-46398878D01*
X72232197Y-46190819D01*
X72239287Y-46169382D01*
X72291055Y-45948668D01*
X72294366Y-45922991D01*
X72302039Y-45629971D01*
X72300076Y-45604157D01*
X72259930Y-45381036D01*
X72253972Y-45359257D01*
X72174949Y-45146771D01*
X72165228Y-45126392D01*
X72075018Y-44973855D01*
X72022714Y-44925018D01*
X71952309Y-44912211D01*
X71875901Y-44948700D01*
X71174405Y-45650196D01*
X71140110Y-45713003D01*
X70666025Y-45713003D01*
X70664781Y-45695617D01*
X70635591Y-45650196D01*
X69933326Y-44947931D01*
X69870519Y-44913636D01*
X69799141Y-44918741D01*
X69742362Y-44960952D01*
X69723644Y-44985613D01*
X69711647Y-45004738D01*
X69608725Y-45206733D01*
X69600303Y-45227683D01*
X69534779Y-45444711D01*
X69530201Y-45466821D01*
X69504144Y-45692023D01*
X69503553Y-45714594D01*
X68143821Y-45714594D01*
X68991277Y-44697647D01*
X70078692Y-44697647D01*
X70114698Y-44770095D01*
X70815195Y-45470592D01*
X70878002Y-45504887D01*
X70949380Y-45499782D01*
X70994801Y-45470592D01*
X71698236Y-44767157D01*
X71732531Y-44704350D01*
X71727426Y-44632972D01*
X71669616Y-44566063D01*
X71478718Y-44461116D01*
X71458043Y-44452040D01*
X71243180Y-44379731D01*
X71221225Y-44374460D01*
X70996953Y-44341342D01*
X70974411Y-44340043D01*
X70747819Y-44347164D01*
X70725403Y-44349876D01*
X70503652Y-44397011D01*
X70482071Y-44403650D01*
X70272173Y-44489308D01*
X70252110Y-44499664D01*
X70136452Y-44573062D01*
X70089281Y-44626875D01*
X70078692Y-44697647D01*
X68991277Y-44697647D01*
X69463483Y-44131000D01*
X72325000Y-44131000D01*
X72325000Y-46925000D01*
G36*
X69277000Y-58228000D02*
G01*
X69314197Y-58317803D01*
X70423818Y-59427424D01*
X70272173Y-59489309D01*
X70252110Y-59499665D01*
X70136452Y-59573063D01*
X70089281Y-59626876D01*
X70078692Y-59697648D01*
X70114698Y-59770096D01*
X70815195Y-60470593D01*
X70878002Y-60504888D01*
X70949380Y-60499783D01*
X70994801Y-60470593D01*
X71651703Y-59813691D01*
X71679815Y-59841803D01*
X71769618Y-59879000D01*
X72325000Y-59879000D01*
X72325000Y-62165000D01*
X69460180Y-62165000D01*
X69103882Y-61773072D01*
X70080042Y-61773072D01*
X70085147Y-61844450D01*
X70130571Y-61903589D01*
X70188089Y-61944465D01*
X70207584Y-61955857D01*
X70412712Y-62052383D01*
X70433916Y-62060143D01*
X70652896Y-62118818D01*
X70675138Y-62122700D01*
X70901047Y-62141671D01*
X70923627Y-62141552D01*
X71149325Y-62120217D01*
X71171526Y-62116103D01*
X71389878Y-62055138D01*
X71410999Y-62047156D01*
X71615105Y-61948487D01*
X71634479Y-61936893D01*
X71680875Y-61903185D01*
X71724573Y-61846517D01*
X71730698Y-61775219D01*
X71696030Y-61710636D01*
X70994801Y-61009407D01*
X70931994Y-60975112D01*
X70860616Y-60980217D01*
X70815195Y-61009407D01*
X70114337Y-61710265D01*
X70080042Y-61773072D01*
X69103882Y-61773072D01*
X68141630Y-60714595D01*
X69503553Y-60714595D01*
X69517788Y-60940852D01*
X69521203Y-60963171D01*
X69575279Y-61183331D01*
X69582593Y-61204694D01*
X69674802Y-61411798D01*
X69685782Y-61431526D01*
X69740334Y-61511798D01*
X69795602Y-61557255D01*
X69866672Y-61565615D01*
X69935177Y-61530217D01*
X70635591Y-60829803D01*
X70669886Y-60766996D01*
X70666025Y-60713004D01*
X71140110Y-60713004D01*
X71145215Y-60784382D01*
X71174405Y-60829803D01*
X71874746Y-61530144D01*
X71937553Y-61564439D01*
X72008931Y-61559334D01*
X72070330Y-61510622D01*
X72131388Y-61418722D01*
X72142162Y-61398879D01*
X72232197Y-61190820D01*
X72239287Y-61169383D01*
X72291055Y-60948669D01*
X72294366Y-60922992D01*
X72302039Y-60629972D01*
X72300076Y-60604158D01*
X72259930Y-60381037D01*
X72253972Y-60359258D01*
X72174949Y-60146772D01*
X72165228Y-60126393D01*
X72075018Y-59973856D01*
X72022714Y-59925019D01*
X71952309Y-59912212D01*
X71875901Y-59948701D01*
X71174405Y-60650197D01*
X71140110Y-60713004D01*
X70666025Y-60713004D01*
X70664781Y-60695618D01*
X70635591Y-60650197D01*
X69933326Y-59947932D01*
X69870519Y-59913637D01*
X69799141Y-59918742D01*
X69742362Y-59960953D01*
X69723644Y-59985614D01*
X69711647Y-60004739D01*
X69608725Y-60206734D01*
X69600303Y-60227684D01*
X69534779Y-60444712D01*
X69530201Y-60466822D01*
X69504144Y-60692024D01*
X69503553Y-60714595D01*
X68141630Y-60714595D01*
X64451000Y-56654902D01*
X64451000Y-55366997D01*
X64597947Y-55392908D01*
X64620000Y-55394837D01*
X64816000Y-55394837D01*
X64884661Y-55374676D01*
X64931523Y-55320595D01*
X64943000Y-55267837D01*
X64943000Y-54606000D01*
X65197000Y-54606000D01*
X65197000Y-55267837D01*
X65217161Y-55336498D01*
X65271242Y-55383360D01*
X65324000Y-55394837D01*
X65520000Y-55394837D01*
X65552870Y-55390510D01*
X65810789Y-55321401D01*
X65859553Y-55296016D01*
X65996788Y-55180862D01*
X66025139Y-55147074D01*
X66114713Y-54991927D01*
X66129799Y-54950480D01*
X66160908Y-54774053D01*
X66162837Y-54752000D01*
X66162837Y-54606000D01*
X66142676Y-54537339D01*
X66088595Y-54490477D01*
X66035837Y-54479000D01*
X65324000Y-54479000D01*
X65255339Y-54499161D01*
X65208477Y-54553242D01*
X65197000Y-54606000D01*
X64943000Y-54606000D01*
X64943000Y-54225000D01*
X66035837Y-54225000D01*
X66104498Y-54204839D01*
X66151360Y-54150758D01*
X66162837Y-54098000D01*
X66162837Y-53952000D01*
X66158510Y-53919130D01*
X66122034Y-53783000D01*
X69277000Y-53783000D01*
X69277000Y-58228000D01*
X69277000Y-58228000D01*
G37*
X69277000Y-58228000D02*
X69314197Y-58317803D01*
X70423818Y-59427424D01*
X70272173Y-59489309D01*
X70252110Y-59499665D01*
X70136452Y-59573063D01*
X70089281Y-59626876D01*
X70078692Y-59697648D01*
X70114698Y-59770096D01*
X70815195Y-60470593D01*
X70878002Y-60504888D01*
X70949380Y-60499783D01*
X70994801Y-60470593D01*
X71651703Y-59813691D01*
X71679815Y-59841803D01*
X71769618Y-59879000D01*
X72325000Y-59879000D01*
X72325000Y-62165000D01*
X69460180Y-62165000D01*
X69103882Y-61773072D01*
X70080042Y-61773072D01*
X70085147Y-61844450D01*
X70130571Y-61903589D01*
X70188089Y-61944465D01*
X70207584Y-61955857D01*
X70412712Y-62052383D01*
X70433916Y-62060143D01*
X70652896Y-62118818D01*
X70675138Y-62122700D01*
X70901047Y-62141671D01*
X70923627Y-62141552D01*
X71149325Y-62120217D01*
X71171526Y-62116103D01*
X71389878Y-62055138D01*
X71410999Y-62047156D01*
X71615105Y-61948487D01*
X71634479Y-61936893D01*
X71680875Y-61903185D01*
X71724573Y-61846517D01*
X71730698Y-61775219D01*
X71696030Y-61710636D01*
X70994801Y-61009407D01*
X70931994Y-60975112D01*
X70860616Y-60980217D01*
X70815195Y-61009407D01*
X70114337Y-61710265D01*
X70080042Y-61773072D01*
X69103882Y-61773072D01*
X68141630Y-60714595D01*
X69503553Y-60714595D01*
X69517788Y-60940852D01*
X69521203Y-60963171D01*
X69575279Y-61183331D01*
X69582593Y-61204694D01*
X69674802Y-61411798D01*
X69685782Y-61431526D01*
X69740334Y-61511798D01*
X69795602Y-61557255D01*
X69866672Y-61565615D01*
X69935177Y-61530217D01*
X70635591Y-60829803D01*
X70669886Y-60766996D01*
X70666025Y-60713004D01*
X71140110Y-60713004D01*
X71145215Y-60784382D01*
X71174405Y-60829803D01*
X71874746Y-61530144D01*
X71937553Y-61564439D01*
X72008931Y-61559334D01*
X72070330Y-61510622D01*
X72131388Y-61418722D01*
X72142162Y-61398879D01*
X72232197Y-61190820D01*
X72239287Y-61169383D01*
X72291055Y-60948669D01*
X72294366Y-60922992D01*
X72302039Y-60629972D01*
X72300076Y-60604158D01*
X72259930Y-60381037D01*
X72253972Y-60359258D01*
X72174949Y-60146772D01*
X72165228Y-60126393D01*
X72075018Y-59973856D01*
X72022714Y-59925019D01*
X71952309Y-59912212D01*
X71875901Y-59948701D01*
X71174405Y-60650197D01*
X71140110Y-60713004D01*
X70666025Y-60713004D01*
X70664781Y-60695618D01*
X70635591Y-60650197D01*
X69933326Y-59947932D01*
X69870519Y-59913637D01*
X69799141Y-59918742D01*
X69742362Y-59960953D01*
X69723644Y-59985614D01*
X69711647Y-60004739D01*
X69608725Y-60206734D01*
X69600303Y-60227684D01*
X69534779Y-60444712D01*
X69530201Y-60466822D01*
X69504144Y-60692024D01*
X69503553Y-60714595D01*
X68141630Y-60714595D01*
X64451000Y-56654902D01*
X64451000Y-55366997D01*
X64597947Y-55392908D01*
X64620000Y-55394837D01*
X64816000Y-55394837D01*
X64884661Y-55374676D01*
X64931523Y-55320595D01*
X64943000Y-55267837D01*
X64943000Y-54606000D01*
X65197000Y-54606000D01*
X65197000Y-55267837D01*
X65217161Y-55336498D01*
X65271242Y-55383360D01*
X65324000Y-55394837D01*
X65520000Y-55394837D01*
X65552870Y-55390510D01*
X65810789Y-55321401D01*
X65859553Y-55296016D01*
X65996788Y-55180862D01*
X66025139Y-55147074D01*
X66114713Y-54991927D01*
X66129799Y-54950480D01*
X66160908Y-54774053D01*
X66162837Y-54752000D01*
X66162837Y-54606000D01*
X66142676Y-54537339D01*
X66088595Y-54490477D01*
X66035837Y-54479000D01*
X65324000Y-54479000D01*
X65255339Y-54499161D01*
X65208477Y-54553242D01*
X65197000Y-54606000D01*
X64943000Y-54606000D01*
X64943000Y-54225000D01*
X66035837Y-54225000D01*
X66104498Y-54204839D01*
X66151360Y-54150758D01*
X66162837Y-54098000D01*
X66162837Y-53952000D01*
X66158510Y-53919130D01*
X66122034Y-53783000D01*
X69277000Y-53783000D01*
X69277000Y-58228000D01*
G36*
X43263076Y-51063242D02*
G01*
X43253813Y-51139611D01*
X43276601Y-51260049D01*
X43291402Y-51299938D01*
X43388695Y-51468456D01*
X43412299Y-51498054D01*
X43554942Y-51630406D01*
X43586220Y-51651731D01*
X43761536Y-51736159D01*
X43797710Y-51747317D01*
X43990124Y-51776319D01*
X44009053Y-51777738D01*
X44341000Y-51777738D01*
X44409661Y-51757577D01*
X44456523Y-51703496D01*
X44468000Y-51650738D01*
X44468000Y-51116000D01*
X44447839Y-51047339D01*
X44393758Y-51000477D01*
X44341000Y-50989000D01*
X44512000Y-50989000D01*
X44538996Y-50986098D01*
X44750027Y-50940191D01*
X44791692Y-50922932D01*
X44913330Y-50844760D01*
X44940649Y-50821089D01*
X45015246Y-50735000D01*
X45811401Y-50735000D01*
X45880062Y-50714839D01*
X45926924Y-50660758D01*
X45936187Y-50584389D01*
X45913399Y-50463951D01*
X45898598Y-50424062D01*
X45801305Y-50255544D01*
X45777701Y-50225946D01*
X45635058Y-50093594D01*
X45603780Y-50072269D01*
X45428464Y-49987841D01*
X45392290Y-49976683D01*
X45199876Y-49947681D01*
X45180947Y-49946262D01*
X45147000Y-49946262D01*
X45147000Y-49770392D01*
X45166917Y-49768524D01*
X45410027Y-49722525D01*
X45449916Y-49707724D01*
X45621696Y-49608547D01*
X45651294Y-49584944D01*
X45786210Y-49439539D01*
X45807535Y-49408260D01*
X45893598Y-49229549D01*
X45904757Y-49193374D01*
X45934320Y-48997234D01*
X45935738Y-48978306D01*
X45935738Y-48681694D01*
X45933524Y-48658083D01*
X45887525Y-48414973D01*
X45872724Y-48375084D01*
X45773547Y-48203304D01*
X45764919Y-48192484D01*
X45786209Y-48169539D01*
X45807535Y-48138260D01*
X45893598Y-47959549D01*
X45896763Y-47949290D01*
X46045011Y-47949290D01*
X46044776Y-47952571D01*
X46044776Y-48872429D01*
X46047678Y-48899425D01*
X46116881Y-49217548D01*
X46134140Y-49259214D01*
X46251983Y-49442580D01*
X46275655Y-49469898D01*
X46440384Y-49612637D01*
X46470794Y-49632180D01*
X46525749Y-49657277D01*
X46525000Y-49662964D01*
X46525000Y-49902044D01*
X46529327Y-49934914D01*
X46591206Y-50165849D01*
X46603894Y-50196479D01*
X46648485Y-50273712D01*
X45897881Y-51024316D01*
X45885330Y-51009630D01*
X45815944Y-50989000D01*
X44849000Y-50989000D01*
X44780339Y-51009161D01*
X44733477Y-51063242D01*
X44722000Y-51116000D01*
X44722000Y-51650738D01*
X44742161Y-51719399D01*
X44796242Y-51766261D01*
X44849000Y-51777738D01*
X45144460Y-51777738D01*
X44435936Y-52486262D01*
X44009053Y-52486262D01*
X43985442Y-52488476D01*
X43746951Y-52533601D01*
X43707062Y-52548402D01*
X43538544Y-52645695D01*
X43508946Y-52669299D01*
X43376594Y-52811942D01*
X43355269Y-52843220D01*
X43270841Y-53018536D01*
X43259683Y-53054710D01*
X43230681Y-53247124D01*
X43229262Y-53266053D01*
X43229262Y-53537947D01*
X43231476Y-53561558D01*
X43276601Y-53800049D01*
X43291402Y-53839938D01*
X43388695Y-54008456D01*
X43412299Y-54038054D01*
X43554942Y-54170406D01*
X43586220Y-54191731D01*
X43761536Y-54276159D01*
X43797710Y-54287317D01*
X43990124Y-54316319D01*
X44009053Y-54317738D01*
X45180947Y-54317738D01*
X45204558Y-54315524D01*
X45443049Y-54270399D01*
X45482937Y-54255599D01*
X45509640Y-54240182D01*
X45655583Y-54366642D01*
X45685993Y-54386185D01*
X45880994Y-54475238D01*
X45915677Y-54485422D01*
X46127868Y-54515931D01*
X46145942Y-54517224D01*
X46716058Y-54517224D01*
X46743054Y-54514322D01*
X47055930Y-54446260D01*
X47097595Y-54429001D01*
X47277938Y-54313102D01*
X47305257Y-54289430D01*
X47310068Y-54283878D01*
X47405583Y-54366642D01*
X47435993Y-54386185D01*
X47630994Y-54475238D01*
X47665677Y-54485422D01*
X47877868Y-54515931D01*
X47895942Y-54517224D01*
X48466058Y-54517224D01*
X48493054Y-54514322D01*
X48805930Y-54446260D01*
X48847595Y-54429001D01*
X48958417Y-54357780D01*
X46457422Y-56858776D01*
X46145942Y-56858776D01*
X46118946Y-56861678D01*
X45806070Y-56929740D01*
X45764405Y-56946999D01*
X45584062Y-57062898D01*
X45556743Y-57086570D01*
X45433215Y-57229129D01*
X45428464Y-57226841D01*
X45392290Y-57215683D01*
X45199876Y-57186681D01*
X45180947Y-57185262D01*
X44009053Y-57185262D01*
X43985442Y-57187476D01*
X43746951Y-57232601D01*
X43707062Y-57247402D01*
X43538544Y-57344695D01*
X43508946Y-57368299D01*
X43376594Y-57510942D01*
X43355269Y-57542220D01*
X43270841Y-57717536D01*
X43259683Y-57753710D01*
X43230681Y-57946124D01*
X43229262Y-57965053D01*
X43229262Y-58236947D01*
X43231476Y-58260558D01*
X43276601Y-58499049D01*
X43291402Y-58538938D01*
X43388695Y-58707456D01*
X43412299Y-58737054D01*
X43554942Y-58869406D01*
X43586220Y-58890731D01*
X43761536Y-58975159D01*
X43797710Y-58986317D01*
X43990124Y-59015319D01*
X44009053Y-59016738D01*
X45180947Y-59016738D01*
X45204558Y-59014524D01*
X45443049Y-58969399D01*
X45482938Y-58954598D01*
X45597599Y-58888399D01*
X45655583Y-58938642D01*
X45685993Y-58958185D01*
X45880994Y-59047238D01*
X45915677Y-59057422D01*
X46127868Y-59087931D01*
X46145942Y-59089224D01*
X46716058Y-59089224D01*
X46743054Y-59086322D01*
X47055930Y-59018260D01*
X47097595Y-59001001D01*
X47277938Y-58885102D01*
X47305257Y-58861430D01*
X47310068Y-58855878D01*
X47405583Y-58938642D01*
X47435993Y-58958185D01*
X47630994Y-59047238D01*
X47665677Y-59057422D01*
X47877868Y-59087931D01*
X47895942Y-59089224D01*
X48466058Y-59089224D01*
X48493054Y-59086322D01*
X48805930Y-59018260D01*
X48847595Y-59001001D01*
X48971921Y-58921102D01*
X48987517Y-58930106D01*
X49018147Y-58942794D01*
X49249082Y-59004673D01*
X49281952Y-59009000D01*
X49521032Y-59009000D01*
X49553902Y-59004673D01*
X49784837Y-58942794D01*
X49815467Y-58930106D01*
X50022517Y-58810566D01*
X50048820Y-58790384D01*
X50217876Y-58621328D01*
X50238058Y-58595025D01*
X50357598Y-58387975D01*
X50370286Y-58357345D01*
X50432165Y-58126410D01*
X50436492Y-58093540D01*
X50436492Y-57854460D01*
X50432165Y-57821590D01*
X50370286Y-57590655D01*
X50357598Y-57560025D01*
X50238058Y-57352975D01*
X50217876Y-57326672D01*
X50048820Y-57157616D01*
X50022517Y-57137434D01*
X49815467Y-57017894D01*
X49784837Y-57005206D01*
X49553902Y-56943327D01*
X49521032Y-56939000D01*
X49281952Y-56939000D01*
X49249082Y-56943327D01*
X49018147Y-57005206D01*
X48987517Y-57017894D01*
X48974766Y-57025256D01*
X48956417Y-57009357D01*
X48926007Y-56989815D01*
X48731006Y-56900762D01*
X48696323Y-56890578D01*
X48590447Y-56875355D01*
X51345636Y-54120167D01*
X51381304Y-54084499D01*
X51404659Y-54052353D01*
X51423021Y-54016316D01*
X51446792Y-53983598D01*
X51464831Y-53948193D01*
X51477327Y-53909732D01*
X51495690Y-53873694D01*
X51507969Y-53835903D01*
X51514297Y-53795953D01*
X51526793Y-53757492D01*
X51533009Y-53718248D01*
X51533009Y-53667818D01*
X51533010Y-53667806D01*
X51533010Y-52383105D01*
X51598590Y-52400677D01*
X51631460Y-52405004D01*
X51870540Y-52405004D01*
X51903410Y-52400677D01*
X52134345Y-52338798D01*
X52164975Y-52326110D01*
X52215843Y-52296741D01*
X52248512Y-52325049D01*
X52188062Y-52363898D01*
X52160743Y-52387570D01*
X52020358Y-52549583D01*
X52000815Y-52579993D01*
X51911762Y-52774994D01*
X51901578Y-52809677D01*
X51871069Y-53021868D01*
X51869776Y-53039942D01*
X51869776Y-53510058D01*
X51872678Y-53537054D01*
X51940740Y-53849930D01*
X51957999Y-53891595D01*
X52073898Y-54071938D01*
X52097570Y-54099257D01*
X52259583Y-54239642D01*
X52289993Y-54259186D01*
X52436114Y-54325916D01*
X52441052Y-54330854D01*
X52252452Y-54371881D01*
X52210786Y-54389140D01*
X52027420Y-54506983D01*
X52000102Y-54530655D01*
X51857363Y-54695384D01*
X51837820Y-54725793D01*
X51747273Y-54924064D01*
X51737089Y-54958748D01*
X51706069Y-55174497D01*
X51704776Y-55192571D01*
X51704776Y-56437429D01*
X51707678Y-56464425D01*
X51776881Y-56782548D01*
X51794140Y-56824214D01*
X51911983Y-57007580D01*
X51935655Y-57034898D01*
X52100384Y-57177637D01*
X52130793Y-57197180D01*
X52329064Y-57287727D01*
X52363748Y-57297911D01*
X52579497Y-57328931D01*
X52597571Y-57330224D01*
X53517429Y-57330224D01*
X53544425Y-57327322D01*
X53862548Y-57258119D01*
X53904214Y-57240860D01*
X54085711Y-57124218D01*
X54093179Y-57147203D01*
X54111219Y-57182608D01*
X54134992Y-57215328D01*
X54153352Y-57251362D01*
X54176707Y-57283509D01*
X54212374Y-57319176D01*
X54984707Y-58091510D01*
X55126492Y-58233295D01*
X55158638Y-58256650D01*
X55194675Y-58275012D01*
X55227393Y-58298783D01*
X55262798Y-58316822D01*
X55301259Y-58329318D01*
X55337297Y-58347681D01*
X55375088Y-58359960D01*
X55415038Y-58366288D01*
X55453499Y-58378784D01*
X55492743Y-58385000D01*
X55543173Y-58385000D01*
X55543185Y-58385001D01*
X61293815Y-58385001D01*
X61293827Y-58385000D01*
X61344256Y-58385000D01*
X61383501Y-58378784D01*
X61421962Y-58366287D01*
X61461912Y-58359960D01*
X61499703Y-58347681D01*
X61535743Y-58329317D01*
X61574201Y-58316822D01*
X61609606Y-58298783D01*
X61642324Y-58275012D01*
X61678363Y-58256649D01*
X61710508Y-58233295D01*
X61852293Y-58091510D01*
X61852294Y-58091508D01*
X63495803Y-56448000D01*
X63689000Y-56448000D01*
X63689000Y-56704000D01*
X63689440Y-56714568D01*
X63696475Y-56798818D01*
X63702066Y-56826922D01*
X63746095Y-56964647D01*
X63761890Y-56997160D01*
X63842936Y-57116903D01*
X63854138Y-57131147D01*
X68934138Y-62719147D01*
X68946092Y-62730682D01*
X69047336Y-62816321D01*
X69076597Y-62834881D01*
X69208123Y-62894946D01*
X69242806Y-62905129D01*
X69385926Y-62925707D01*
X69404000Y-62927000D01*
X72452000Y-62927000D01*
X72478996Y-62924098D01*
X72690027Y-62878191D01*
X72731692Y-62860932D01*
X72853330Y-62782760D01*
X72880649Y-62759089D01*
X72975337Y-62649814D01*
X72994881Y-62619403D01*
X73054946Y-62487877D01*
X73065129Y-62453194D01*
X73085707Y-62310074D01*
X73087000Y-62292000D01*
X73087000Y-59752000D01*
X73084098Y-59725004D01*
X73038191Y-59513973D01*
X73020932Y-59472308D01*
X72942760Y-59350670D01*
X72919089Y-59323351D01*
X72809814Y-59228663D01*
X72779403Y-59209119D01*
X72647877Y-59149054D01*
X72613194Y-59138871D01*
X72470074Y-59118293D01*
X72452000Y-59117000D01*
X71191026Y-59117000D01*
X70039000Y-57964974D01*
X70039000Y-56838513D01*
X70188089Y-56944465D01*
X70207584Y-56955857D01*
X70412712Y-57052383D01*
X70433916Y-57060143D01*
X70652896Y-57118818D01*
X70675138Y-57122700D01*
X70901047Y-57141671D01*
X70923627Y-57141552D01*
X71149325Y-57120217D01*
X71171526Y-57116103D01*
X71389878Y-57055138D01*
X71410999Y-57047156D01*
X71615105Y-56948487D01*
X71634479Y-56936892D01*
X71817887Y-56803639D01*
X71834902Y-56788796D01*
X71991814Y-56625170D01*
X72005932Y-56607549D01*
X72131388Y-56418722D01*
X72142162Y-56398879D01*
X72232197Y-56190820D01*
X72239287Y-56169383D01*
X72291055Y-55948669D01*
X72294366Y-55922992D01*
X72302039Y-55629972D01*
X72300076Y-55604158D01*
X72259930Y-55381037D01*
X72253972Y-55359258D01*
X72174949Y-55146772D01*
X72165228Y-55126393D01*
X72049827Y-54931259D01*
X72036651Y-54912922D01*
X71888517Y-54741308D01*
X71872303Y-54725595D01*
X71696121Y-54582926D01*
X71677380Y-54570333D01*
X71478718Y-54461117D01*
X71458043Y-54452041D01*
X71243180Y-54379732D01*
X71221225Y-54374461D01*
X70996953Y-54341343D01*
X70974411Y-54340044D01*
X70747819Y-54347165D01*
X70725403Y-54349877D01*
X70503652Y-54397012D01*
X70482071Y-54403651D01*
X70272173Y-54489309D01*
X70252109Y-54499665D01*
X70060696Y-54621139D01*
X70042783Y-54634885D01*
X70039000Y-54638364D01*
X70039000Y-53656000D01*
X70036098Y-53629004D01*
X69990191Y-53417973D01*
X69982066Y-53398358D01*
X70006946Y-53343877D01*
X70017129Y-53309194D01*
X70037707Y-53166074D01*
X70039000Y-53148000D01*
X70039000Y-51838512D01*
X70188089Y-51944464D01*
X70207584Y-51955856D01*
X70412712Y-52052382D01*
X70433916Y-52060142D01*
X70652896Y-52118817D01*
X70675138Y-52122699D01*
X70901047Y-52141670D01*
X70923627Y-52141551D01*
X71149325Y-52120216D01*
X71171526Y-52116102D01*
X71389878Y-52055137D01*
X71410999Y-52047155D01*
X71615105Y-51948486D01*
X71634479Y-51936891D01*
X71817887Y-51803638D01*
X71834902Y-51788795D01*
X71991814Y-51625169D01*
X72005932Y-51607548D01*
X72131388Y-51418721D01*
X72142162Y-51398878D01*
X72232197Y-51190819D01*
X72239287Y-51169382D01*
X72291055Y-50948668D01*
X72294366Y-50922991D01*
X72302039Y-50629971D01*
X72300076Y-50604157D01*
X72259930Y-50381036D01*
X72253972Y-50359257D01*
X72174949Y-50146771D01*
X72165228Y-50126392D01*
X72049827Y-49931258D01*
X72036651Y-49912921D01*
X71888517Y-49741307D01*
X71872303Y-49725594D01*
X71696121Y-49582925D01*
X71677380Y-49570332D01*
X71478718Y-49461116D01*
X71458043Y-49452040D01*
X71243180Y-49379731D01*
X71221225Y-49374460D01*
X70996953Y-49341342D01*
X70974411Y-49340043D01*
X70747819Y-49347164D01*
X70725403Y-49349876D01*
X70503652Y-49397011D01*
X70482071Y-49403650D01*
X70272173Y-49489308D01*
X70252109Y-49499664D01*
X70060696Y-49621138D01*
X70042783Y-49634884D01*
X70039000Y-49638363D01*
X70039000Y-48839026D01*
X71191026Y-47687000D01*
X72452000Y-47687000D01*
X72478996Y-47684098D01*
X72690027Y-47638191D01*
X72731692Y-47620932D01*
X72853330Y-47542760D01*
X72880649Y-47519089D01*
X72975337Y-47409814D01*
X72994881Y-47379403D01*
X73054946Y-47247877D01*
X73065129Y-47213194D01*
X73085707Y-47070074D01*
X73087000Y-47052000D01*
X73087000Y-44004000D01*
X73084098Y-43977004D01*
X73038191Y-43765973D01*
X73020932Y-43724308D01*
X72942760Y-43602670D01*
X72919089Y-43575351D01*
X72809814Y-43480663D01*
X72779403Y-43461119D01*
X72647877Y-43401054D01*
X72613194Y-43390871D01*
X72470074Y-43370293D01*
X72452000Y-43369000D01*
X69404000Y-43369000D01*
X69384717Y-43370473D01*
X69232236Y-43393897D01*
X69196546Y-43404938D01*
X69066202Y-43467526D01*
X69036175Y-43487651D01*
X68928744Y-43584425D01*
X68916180Y-43597483D01*
X63836180Y-49693483D01*
X63821698Y-49714998D01*
X63724532Y-49897092D01*
X63710871Y-49938806D01*
X63690293Y-50081926D01*
X63689000Y-50100000D01*
X63689000Y-50165500D01*
X60845184Y-50165500D01*
X60845172Y-50165501D01*
X60794742Y-50165501D01*
X60755497Y-50171717D01*
X60717036Y-50184214D01*
X60677087Y-50190541D01*
X60639296Y-50202820D01*
X60603256Y-50221184D01*
X60564798Y-50233679D01*
X60529393Y-50251718D01*
X60496675Y-50275489D01*
X60460636Y-50293852D01*
X60428491Y-50317206D01*
X60337010Y-50408687D01*
X60313137Y-50420851D01*
X60280991Y-50444206D01*
X59228197Y-51497000D01*
X58073000Y-51497000D01*
X58073000Y-50381776D01*
X58327000Y-50381776D01*
X58327000Y-51116000D01*
X58347161Y-51184661D01*
X58401242Y-51231523D01*
X58454000Y-51243000D01*
X59234103Y-51243000D01*
X59302764Y-51222839D01*
X59349626Y-51168758D01*
X59358201Y-51089004D01*
X59294260Y-50795070D01*
X59277001Y-50753405D01*
X59161102Y-50573062D01*
X59137430Y-50545743D01*
X58975417Y-50405358D01*
X58945007Y-50385815D01*
X58750006Y-50296762D01*
X58715323Y-50286578D01*
X58503132Y-50256069D01*
X58485058Y-50254776D01*
X58454000Y-50254776D01*
X58385339Y-50274937D01*
X58338477Y-50329018D01*
X58327000Y-50381776D01*
X58073000Y-50381776D01*
X58052839Y-50313115D01*
X57998758Y-50266253D01*
X57946000Y-50254776D01*
X57914942Y-50254776D01*
X57887946Y-50257678D01*
X57575070Y-50325740D01*
X57533405Y-50342999D01*
X57353062Y-50458898D01*
X57325743Y-50482570D01*
X57320932Y-50488122D01*
X57225417Y-50405358D01*
X57195007Y-50385815D01*
X57000006Y-50296762D01*
X56965323Y-50286578D01*
X56753132Y-50256069D01*
X56735058Y-50254776D01*
X56421498Y-50254776D01*
X56421498Y-49865006D01*
X56506040Y-49865006D01*
X56538910Y-49860679D01*
X56769845Y-49798800D01*
X56800475Y-49786112D01*
X56878665Y-49740969D01*
X57066766Y-49769320D01*
X57085694Y-49770738D01*
X58732306Y-49770738D01*
X58755917Y-49768524D01*
X58999027Y-49722525D01*
X59038916Y-49707724D01*
X59210696Y-49608547D01*
X59240294Y-49584944D01*
X59375210Y-49439539D01*
X59396535Y-49408260D01*
X59482598Y-49229549D01*
X59493757Y-49193374D01*
X59523320Y-48997234D01*
X59524738Y-48978306D01*
X59524738Y-48681694D01*
X59522524Y-48658083D01*
X59476525Y-48414973D01*
X59461724Y-48375084D01*
X59362547Y-48203304D01*
X59353919Y-48192484D01*
X59375209Y-48169539D01*
X59396535Y-48138260D01*
X59482598Y-47959549D01*
X59493757Y-47923374D01*
X59523320Y-47727234D01*
X59524738Y-47708306D01*
X59524738Y-47411694D01*
X59522524Y-47388083D01*
X59476525Y-47144973D01*
X59461724Y-47105084D01*
X59362547Y-46933304D01*
X59353919Y-46922484D01*
X59375209Y-46899539D01*
X59396535Y-46868260D01*
X59482598Y-46689549D01*
X59493757Y-46653374D01*
X59523320Y-46457234D01*
X59524738Y-46438306D01*
X59524738Y-46141694D01*
X59522524Y-46118083D01*
X59476525Y-45874973D01*
X59461724Y-45835084D01*
X59362547Y-45663304D01*
X59353919Y-45652484D01*
X59375209Y-45629539D01*
X59396535Y-45598260D01*
X59482598Y-45419549D01*
X59493757Y-45383374D01*
X59507389Y-45292928D01*
X59497686Y-45222028D01*
X59451193Y-45167630D01*
X59381807Y-45147000D01*
X56440260Y-45147000D01*
X56371599Y-45167161D01*
X56324737Y-45221242D01*
X56315474Y-45297611D01*
X56341475Y-45435027D01*
X56356276Y-45474916D01*
X56455453Y-45646696D01*
X56464081Y-45657516D01*
X56442791Y-45680461D01*
X56421465Y-45711740D01*
X56335402Y-45890451D01*
X56324243Y-45926626D01*
X56303319Y-46065451D01*
X55509260Y-46859511D01*
X55502763Y-46839513D01*
X55496435Y-46799563D01*
X55484156Y-46761772D01*
X55465793Y-46725734D01*
X55453297Y-46687273D01*
X55435258Y-46651868D01*
X55411487Y-46619150D01*
X55393125Y-46583113D01*
X55369770Y-46550967D01*
X55308767Y-46489964D01*
X54642295Y-45823493D01*
X54642294Y-45823491D01*
X54500509Y-45681706D01*
X54468364Y-45658352D01*
X54432325Y-45639989D01*
X54422283Y-45632693D01*
X54425209Y-45629539D01*
X54446535Y-45598260D01*
X54532598Y-45419549D01*
X54543757Y-45383374D01*
X54573320Y-45187234D01*
X54574738Y-45168306D01*
X54574738Y-44871694D01*
X54572524Y-44848083D01*
X54553412Y-44747072D01*
X56310611Y-44747072D01*
X56320314Y-44817972D01*
X56366807Y-44872370D01*
X56436193Y-44893000D01*
X57655000Y-44893000D01*
X57723661Y-44872839D01*
X57770523Y-44818758D01*
X57782000Y-44766000D01*
X57782000Y-44206262D01*
X58036000Y-44206262D01*
X58036000Y-44766000D01*
X58056161Y-44834661D01*
X58110242Y-44881523D01*
X58163000Y-44893000D01*
X59377740Y-44893000D01*
X59446401Y-44872839D01*
X59493263Y-44818758D01*
X59502526Y-44742389D01*
X59476525Y-44604973D01*
X59461724Y-44565084D01*
X59362547Y-44393304D01*
X59338944Y-44363706D01*
X59193539Y-44228790D01*
X59162260Y-44207465D01*
X58983549Y-44121402D01*
X58947374Y-44110243D01*
X58751234Y-44080680D01*
X58732306Y-44079262D01*
X58163000Y-44079262D01*
X58094339Y-44099423D01*
X58047477Y-44153504D01*
X58036000Y-44206262D01*
X57782000Y-44206262D01*
X57761839Y-44137601D01*
X57707758Y-44090739D01*
X57655000Y-44079262D01*
X57085694Y-44079262D01*
X57062083Y-44081476D01*
X56818973Y-44127475D01*
X56779084Y-44142276D01*
X56607304Y-44241453D01*
X56577706Y-44265056D01*
X56442790Y-44410461D01*
X56421465Y-44441740D01*
X56335402Y-44620451D01*
X56324243Y-44656626D01*
X56310611Y-44747072D01*
X54553412Y-44747072D01*
X54526525Y-44604973D01*
X54511724Y-44565084D01*
X54412547Y-44393304D01*
X54388944Y-44363706D01*
X54243539Y-44228790D01*
X54212260Y-44207465D01*
X54033549Y-44121402D01*
X53997374Y-44110243D01*
X53801234Y-44080680D01*
X53782306Y-44079262D01*
X52135694Y-44079262D01*
X52112083Y-44081476D01*
X51868973Y-44127475D01*
X51829084Y-44142276D01*
X51657304Y-44241453D01*
X51627706Y-44265056D01*
X51492790Y-44410461D01*
X51471465Y-44441740D01*
X51453735Y-44478557D01*
X51408017Y-44407420D01*
X51384345Y-44380102D01*
X51219616Y-44237363D01*
X51189207Y-44217820D01*
X50990936Y-44127273D01*
X50956252Y-44117089D01*
X50740503Y-44086069D01*
X50722429Y-44084776D01*
X50354000Y-44084776D01*
X50285339Y-44104937D01*
X50238477Y-44159018D01*
X50227000Y-44211776D01*
X50227000Y-45564500D01*
X49973000Y-45564500D01*
X49973000Y-44211776D01*
X49952839Y-44143115D01*
X49898758Y-44096253D01*
X49846000Y-44084776D01*
X49477571Y-44084776D01*
X49450575Y-44087678D01*
X49132452Y-44156881D01*
X49090786Y-44174140D01*
X48907420Y-44291983D01*
X48880102Y-44315655D01*
X48832872Y-44370161D01*
X48679616Y-44237363D01*
X48649207Y-44217820D01*
X48450936Y-44127273D01*
X48416252Y-44117089D01*
X48200503Y-44086069D01*
X48182429Y-44084776D01*
X47814000Y-44084776D01*
X47745339Y-44104937D01*
X47698477Y-44159018D01*
X47687000Y-44211776D01*
X47687000Y-45564500D01*
X46171776Y-45564500D01*
X46103115Y-45584661D01*
X46056253Y-45638742D01*
X46044776Y-45691500D01*
X46044776Y-45897429D01*
X46045129Y-45900710D01*
X45892395Y-45900710D01*
X45887525Y-45874973D01*
X45872724Y-45835084D01*
X45773547Y-45663304D01*
X45764919Y-45652484D01*
X45786209Y-45629539D01*
X45807535Y-45598260D01*
X45893598Y-45419549D01*
X45904757Y-45383374D01*
X45918389Y-45292928D01*
X45908686Y-45222028D01*
X45862193Y-45167630D01*
X45792807Y-45147000D01*
X45147000Y-45147000D01*
X45147000Y-44977571D01*
X46044776Y-44977571D01*
X46044776Y-45183500D01*
X46064937Y-45252161D01*
X46119018Y-45299023D01*
X46171776Y-45310500D01*
X47306000Y-45310500D01*
X47374661Y-45290339D01*
X47421523Y-45236258D01*
X47433000Y-45183500D01*
X47433000Y-44211776D01*
X47412839Y-44143115D01*
X47358758Y-44096253D01*
X47306000Y-44084776D01*
X46937571Y-44084776D01*
X46910575Y-44087678D01*
X46592452Y-44156881D01*
X46550786Y-44174140D01*
X46367420Y-44291983D01*
X46340102Y-44315655D01*
X46197363Y-44480384D01*
X46177820Y-44510793D01*
X46087273Y-44709064D01*
X46077089Y-44743748D01*
X46046069Y-44959497D01*
X46044776Y-44977571D01*
X45147000Y-44977571D01*
X45147000Y-44893000D01*
X45788740Y-44893000D01*
X45857401Y-44872839D01*
X45904263Y-44818758D01*
X45913526Y-44742389D01*
X45887525Y-44604973D01*
X45872724Y-44565084D01*
X45773547Y-44393304D01*
X45749944Y-44363706D01*
X45604539Y-44228790D01*
X45573260Y-44207465D01*
X45394549Y-44121402D01*
X45358374Y-44110243D01*
X45162234Y-44080680D01*
X45147000Y-44079539D01*
X45147000Y-43115000D01*
X75430547Y-43115000D01*
X75434139Y-43115793D01*
X75452789Y-43118480D01*
X75459044Y-43118911D01*
X75459799Y-43118960D01*
X75737950Y-43136460D01*
X75972134Y-43181133D01*
X76198887Y-43254809D01*
X76414606Y-43356319D01*
X76615916Y-43484073D01*
X76799622Y-43636048D01*
X76962833Y-43809850D01*
X77102958Y-44002718D01*
X77217825Y-44211656D01*
X77305591Y-44433329D01*
X77364882Y-44664252D01*
X77396028Y-44910802D01*
X77400092Y-45040110D01*
X77401939Y-45058066D01*
X77405001Y-45075520D01*
X77405000Y-61460547D01*
X77404207Y-61464139D01*
X77401520Y-61482789D01*
X77401089Y-61489044D01*
X77401040Y-61489799D01*
X77383540Y-61767950D01*
X77338867Y-62002134D01*
X77265191Y-62228886D01*
X77163677Y-62444614D01*
X77035926Y-62645918D01*
X76883952Y-62829621D01*
X76710153Y-62992830D01*
X76517274Y-63132965D01*
X76308338Y-63247827D01*
X76086675Y-63335591D01*
X75855750Y-63394882D01*
X75609197Y-63426028D01*
X75479891Y-63430092D01*
X75461935Y-63431939D01*
X75444486Y-63435000D01*
X42353000Y-63435000D01*
X42353000Y-55838611D01*
X43253813Y-55838611D01*
X43276601Y-55959049D01*
X43291402Y-55998938D01*
X43388695Y-56167456D01*
X43412299Y-56197054D01*
X43554942Y-56329406D01*
X43586220Y-56350731D01*
X43761536Y-56435159D01*
X43797710Y-56446317D01*
X43990124Y-56475319D01*
X44009053Y-56476738D01*
X44341000Y-56476738D01*
X44409661Y-56456577D01*
X44456523Y-56402496D01*
X44468000Y-56349738D01*
X44468000Y-55815000D01*
X44722000Y-55815000D01*
X44722000Y-56349738D01*
X44742161Y-56418399D01*
X44796242Y-56465261D01*
X44849000Y-56476738D01*
X45180947Y-56476738D01*
X45204558Y-56474524D01*
X45443049Y-56429399D01*
X45482938Y-56414598D01*
X45651456Y-56317305D01*
X45681054Y-56293701D01*
X45813406Y-56151058D01*
X45834731Y-56119780D01*
X45919159Y-55944464D01*
X45930318Y-55908289D01*
X45941526Y-55833928D01*
X45931823Y-55763029D01*
X45885330Y-55708630D01*
X45815944Y-55688000D01*
X44849000Y-55688000D01*
X44780339Y-55708161D01*
X44733477Y-55762242D01*
X44722000Y-55815000D01*
X44468000Y-55815000D01*
X44447839Y-55746339D01*
X44393758Y-55699477D01*
X44341000Y-55688000D01*
X43378599Y-55688000D01*
X43309938Y-55708161D01*
X43263076Y-55762242D01*
X43253813Y-55838611D01*
X42353000Y-55838611D01*
X42353000Y-55288072D01*
X43248474Y-55288072D01*
X43258177Y-55358971D01*
X43304670Y-55413370D01*
X43374056Y-55434000D01*
X44341000Y-55434000D01*
X44409661Y-55413839D01*
X44456523Y-55359758D01*
X44468000Y-55307000D01*
X44468000Y-54772262D01*
X44722000Y-54772262D01*
X44722000Y-55307000D01*
X44742161Y-55375661D01*
X44796242Y-55422523D01*
X44849000Y-55434000D01*
X45811401Y-55434000D01*
X45880062Y-55413839D01*
X45926924Y-55359758D01*
X45936187Y-55283389D01*
X45913399Y-55162951D01*
X45898598Y-55123062D01*
X45801305Y-54954544D01*
X45777701Y-54924946D01*
X45635058Y-54792594D01*
X45603780Y-54771269D01*
X45428464Y-54686841D01*
X45392290Y-54675683D01*
X45199876Y-54646681D01*
X45180947Y-54645262D01*
X44849000Y-54645262D01*
X44780339Y-54665423D01*
X44733477Y-54719504D01*
X44722000Y-54772262D01*
X44468000Y-54772262D01*
X44447839Y-54703601D01*
X44393758Y-54656739D01*
X44341000Y-54645262D01*
X44009053Y-54645262D01*
X43985442Y-54647476D01*
X43746951Y-54692601D01*
X43707062Y-54707402D01*
X43538544Y-54804695D01*
X43508946Y-54828299D01*
X43376594Y-54970942D01*
X43355269Y-55002220D01*
X43270841Y-55177536D01*
X43259682Y-55213711D01*
X43248474Y-55288072D01*
X42353000Y-55288072D01*
X42353000Y-50989000D01*
X43378599Y-50989000D01*
X43309938Y-51009161D01*
X43263076Y-51063242D01*
X43263076Y-51063242D01*
G37*
X43263076Y-51063242D02*
X43253813Y-51139611D01*
X43276601Y-51260049D01*
X43291402Y-51299938D01*
X43388695Y-51468456D01*
X43412299Y-51498054D01*
X43554942Y-51630406D01*
X43586220Y-51651731D01*
X43761536Y-51736159D01*
X43797710Y-51747317D01*
X43990124Y-51776319D01*
X44009053Y-51777738D01*
X44341000Y-51777738D01*
X44409661Y-51757577D01*
X44456523Y-51703496D01*
X44468000Y-51650738D01*
X44468000Y-51116000D01*
X44447839Y-51047339D01*
X44393758Y-51000477D01*
X44341000Y-50989000D01*
X44512000Y-50989000D01*
X44538996Y-50986098D01*
X44750027Y-50940191D01*
X44791692Y-50922932D01*
X44913330Y-50844760D01*
X44940649Y-50821089D01*
X45015246Y-50735000D01*
X45811401Y-50735000D01*
X45880062Y-50714839D01*
X45926924Y-50660758D01*
X45936187Y-50584389D01*
X45913399Y-50463951D01*
X45898598Y-50424062D01*
X45801305Y-50255544D01*
X45777701Y-50225946D01*
X45635058Y-50093594D01*
X45603780Y-50072269D01*
X45428464Y-49987841D01*
X45392290Y-49976683D01*
X45199876Y-49947681D01*
X45180947Y-49946262D01*
X45147000Y-49946262D01*
X45147000Y-49770392D01*
X45166917Y-49768524D01*
X45410027Y-49722525D01*
X45449916Y-49707724D01*
X45621696Y-49608547D01*
X45651294Y-49584944D01*
X45786210Y-49439539D01*
X45807535Y-49408260D01*
X45893598Y-49229549D01*
X45904757Y-49193374D01*
X45934320Y-48997234D01*
X45935738Y-48978306D01*
X45935738Y-48681694D01*
X45933524Y-48658083D01*
X45887525Y-48414973D01*
X45872724Y-48375084D01*
X45773547Y-48203304D01*
X45764919Y-48192484D01*
X45786209Y-48169539D01*
X45807535Y-48138260D01*
X45893598Y-47959549D01*
X45896763Y-47949290D01*
X46045011Y-47949290D01*
X46044776Y-47952571D01*
X46044776Y-48872429D01*
X46047678Y-48899425D01*
X46116881Y-49217548D01*
X46134140Y-49259214D01*
X46251983Y-49442580D01*
X46275655Y-49469898D01*
X46440384Y-49612637D01*
X46470794Y-49632180D01*
X46525749Y-49657277D01*
X46525000Y-49662964D01*
X46525000Y-49902044D01*
X46529327Y-49934914D01*
X46591206Y-50165849D01*
X46603894Y-50196479D01*
X46648485Y-50273712D01*
X45897881Y-51024316D01*
X45885330Y-51009630D01*
X45815944Y-50989000D01*
X44849000Y-50989000D01*
X44780339Y-51009161D01*
X44733477Y-51063242D01*
X44722000Y-51116000D01*
X44722000Y-51650738D01*
X44742161Y-51719399D01*
X44796242Y-51766261D01*
X44849000Y-51777738D01*
X45144460Y-51777738D01*
X44435936Y-52486262D01*
X44009053Y-52486262D01*
X43985442Y-52488476D01*
X43746951Y-52533601D01*
X43707062Y-52548402D01*
X43538544Y-52645695D01*
X43508946Y-52669299D01*
X43376594Y-52811942D01*
X43355269Y-52843220D01*
X43270841Y-53018536D01*
X43259683Y-53054710D01*
X43230681Y-53247124D01*
X43229262Y-53266053D01*
X43229262Y-53537947D01*
X43231476Y-53561558D01*
X43276601Y-53800049D01*
X43291402Y-53839938D01*
X43388695Y-54008456D01*
X43412299Y-54038054D01*
X43554942Y-54170406D01*
X43586220Y-54191731D01*
X43761536Y-54276159D01*
X43797710Y-54287317D01*
X43990124Y-54316319D01*
X44009053Y-54317738D01*
X45180947Y-54317738D01*
X45204558Y-54315524D01*
X45443049Y-54270399D01*
X45482937Y-54255599D01*
X45509640Y-54240182D01*
X45655583Y-54366642D01*
X45685993Y-54386185D01*
X45880994Y-54475238D01*
X45915677Y-54485422D01*
X46127868Y-54515931D01*
X46145942Y-54517224D01*
X46716058Y-54517224D01*
X46743054Y-54514322D01*
X47055930Y-54446260D01*
X47097595Y-54429001D01*
X47277938Y-54313102D01*
X47305257Y-54289430D01*
X47310068Y-54283878D01*
X47405583Y-54366642D01*
X47435993Y-54386185D01*
X47630994Y-54475238D01*
X47665677Y-54485422D01*
X47877868Y-54515931D01*
X47895942Y-54517224D01*
X48466058Y-54517224D01*
X48493054Y-54514322D01*
X48805930Y-54446260D01*
X48847595Y-54429001D01*
X48958417Y-54357780D01*
X46457422Y-56858776D01*
X46145942Y-56858776D01*
X46118946Y-56861678D01*
X45806070Y-56929740D01*
X45764405Y-56946999D01*
X45584062Y-57062898D01*
X45556743Y-57086570D01*
X45433215Y-57229129D01*
X45428464Y-57226841D01*
X45392290Y-57215683D01*
X45199876Y-57186681D01*
X45180947Y-57185262D01*
X44009053Y-57185262D01*
X43985442Y-57187476D01*
X43746951Y-57232601D01*
X43707062Y-57247402D01*
X43538544Y-57344695D01*
X43508946Y-57368299D01*
X43376594Y-57510942D01*
X43355269Y-57542220D01*
X43270841Y-57717536D01*
X43259683Y-57753710D01*
X43230681Y-57946124D01*
X43229262Y-57965053D01*
X43229262Y-58236947D01*
X43231476Y-58260558D01*
X43276601Y-58499049D01*
X43291402Y-58538938D01*
X43388695Y-58707456D01*
X43412299Y-58737054D01*
X43554942Y-58869406D01*
X43586220Y-58890731D01*
X43761536Y-58975159D01*
X43797710Y-58986317D01*
X43990124Y-59015319D01*
X44009053Y-59016738D01*
X45180947Y-59016738D01*
X45204558Y-59014524D01*
X45443049Y-58969399D01*
X45482938Y-58954598D01*
X45597599Y-58888399D01*
X45655583Y-58938642D01*
X45685993Y-58958185D01*
X45880994Y-59047238D01*
X45915677Y-59057422D01*
X46127868Y-59087931D01*
X46145942Y-59089224D01*
X46716058Y-59089224D01*
X46743054Y-59086322D01*
X47055930Y-59018260D01*
X47097595Y-59001001D01*
X47277938Y-58885102D01*
X47305257Y-58861430D01*
X47310068Y-58855878D01*
X47405583Y-58938642D01*
X47435993Y-58958185D01*
X47630994Y-59047238D01*
X47665677Y-59057422D01*
X47877868Y-59087931D01*
X47895942Y-59089224D01*
X48466058Y-59089224D01*
X48493054Y-59086322D01*
X48805930Y-59018260D01*
X48847595Y-59001001D01*
X48971921Y-58921102D01*
X48987517Y-58930106D01*
X49018147Y-58942794D01*
X49249082Y-59004673D01*
X49281952Y-59009000D01*
X49521032Y-59009000D01*
X49553902Y-59004673D01*
X49784837Y-58942794D01*
X49815467Y-58930106D01*
X50022517Y-58810566D01*
X50048820Y-58790384D01*
X50217876Y-58621328D01*
X50238058Y-58595025D01*
X50357598Y-58387975D01*
X50370286Y-58357345D01*
X50432165Y-58126410D01*
X50436492Y-58093540D01*
X50436492Y-57854460D01*
X50432165Y-57821590D01*
X50370286Y-57590655D01*
X50357598Y-57560025D01*
X50238058Y-57352975D01*
X50217876Y-57326672D01*
X50048820Y-57157616D01*
X50022517Y-57137434D01*
X49815467Y-57017894D01*
X49784837Y-57005206D01*
X49553902Y-56943327D01*
X49521032Y-56939000D01*
X49281952Y-56939000D01*
X49249082Y-56943327D01*
X49018147Y-57005206D01*
X48987517Y-57017894D01*
X48974766Y-57025256D01*
X48956417Y-57009357D01*
X48926007Y-56989815D01*
X48731006Y-56900762D01*
X48696323Y-56890578D01*
X48590447Y-56875355D01*
X51345636Y-54120167D01*
X51381304Y-54084499D01*
X51404659Y-54052353D01*
X51423021Y-54016316D01*
X51446792Y-53983598D01*
X51464831Y-53948193D01*
X51477327Y-53909732D01*
X51495690Y-53873694D01*
X51507969Y-53835903D01*
X51514297Y-53795953D01*
X51526793Y-53757492D01*
X51533009Y-53718248D01*
X51533009Y-53667818D01*
X51533010Y-53667806D01*
X51533010Y-52383105D01*
X51598590Y-52400677D01*
X51631460Y-52405004D01*
X51870540Y-52405004D01*
X51903410Y-52400677D01*
X52134345Y-52338798D01*
X52164975Y-52326110D01*
X52215843Y-52296741D01*
X52248512Y-52325049D01*
X52188062Y-52363898D01*
X52160743Y-52387570D01*
X52020358Y-52549583D01*
X52000815Y-52579993D01*
X51911762Y-52774994D01*
X51901578Y-52809677D01*
X51871069Y-53021868D01*
X51869776Y-53039942D01*
X51869776Y-53510058D01*
X51872678Y-53537054D01*
X51940740Y-53849930D01*
X51957999Y-53891595D01*
X52073898Y-54071938D01*
X52097570Y-54099257D01*
X52259583Y-54239642D01*
X52289993Y-54259186D01*
X52436114Y-54325916D01*
X52441052Y-54330854D01*
X52252452Y-54371881D01*
X52210786Y-54389140D01*
X52027420Y-54506983D01*
X52000102Y-54530655D01*
X51857363Y-54695384D01*
X51837820Y-54725793D01*
X51747273Y-54924064D01*
X51737089Y-54958748D01*
X51706069Y-55174497D01*
X51704776Y-55192571D01*
X51704776Y-56437429D01*
X51707678Y-56464425D01*
X51776881Y-56782548D01*
X51794140Y-56824214D01*
X51911983Y-57007580D01*
X51935655Y-57034898D01*
X52100384Y-57177637D01*
X52130793Y-57197180D01*
X52329064Y-57287727D01*
X52363748Y-57297911D01*
X52579497Y-57328931D01*
X52597571Y-57330224D01*
X53517429Y-57330224D01*
X53544425Y-57327322D01*
X53862548Y-57258119D01*
X53904214Y-57240860D01*
X54085711Y-57124218D01*
X54093179Y-57147203D01*
X54111219Y-57182608D01*
X54134992Y-57215328D01*
X54153352Y-57251362D01*
X54176707Y-57283509D01*
X54212374Y-57319176D01*
X54984707Y-58091510D01*
X55126492Y-58233295D01*
X55158638Y-58256650D01*
X55194675Y-58275012D01*
X55227393Y-58298783D01*
X55262798Y-58316822D01*
X55301259Y-58329318D01*
X55337297Y-58347681D01*
X55375088Y-58359960D01*
X55415038Y-58366288D01*
X55453499Y-58378784D01*
X55492743Y-58385000D01*
X55543173Y-58385000D01*
X55543185Y-58385001D01*
X61293815Y-58385001D01*
X61293827Y-58385000D01*
X61344256Y-58385000D01*
X61383501Y-58378784D01*
X61421962Y-58366287D01*
X61461912Y-58359960D01*
X61499703Y-58347681D01*
X61535743Y-58329317D01*
X61574201Y-58316822D01*
X61609606Y-58298783D01*
X61642324Y-58275012D01*
X61678363Y-58256649D01*
X61710508Y-58233295D01*
X61852293Y-58091510D01*
X61852294Y-58091508D01*
X63495803Y-56448000D01*
X63689000Y-56448000D01*
X63689000Y-56704000D01*
X63689440Y-56714568D01*
X63696475Y-56798818D01*
X63702066Y-56826922D01*
X63746095Y-56964647D01*
X63761890Y-56997160D01*
X63842936Y-57116903D01*
X63854138Y-57131147D01*
X68934138Y-62719147D01*
X68946092Y-62730682D01*
X69047336Y-62816321D01*
X69076597Y-62834881D01*
X69208123Y-62894946D01*
X69242806Y-62905129D01*
X69385926Y-62925707D01*
X69404000Y-62927000D01*
X72452000Y-62927000D01*
X72478996Y-62924098D01*
X72690027Y-62878191D01*
X72731692Y-62860932D01*
X72853330Y-62782760D01*
X72880649Y-62759089D01*
X72975337Y-62649814D01*
X72994881Y-62619403D01*
X73054946Y-62487877D01*
X73065129Y-62453194D01*
X73085707Y-62310074D01*
X73087000Y-62292000D01*
X73087000Y-59752000D01*
X73084098Y-59725004D01*
X73038191Y-59513973D01*
X73020932Y-59472308D01*
X72942760Y-59350670D01*
X72919089Y-59323351D01*
X72809814Y-59228663D01*
X72779403Y-59209119D01*
X72647877Y-59149054D01*
X72613194Y-59138871D01*
X72470074Y-59118293D01*
X72452000Y-59117000D01*
X71191026Y-59117000D01*
X70039000Y-57964974D01*
X70039000Y-56838513D01*
X70188089Y-56944465D01*
X70207584Y-56955857D01*
X70412712Y-57052383D01*
X70433916Y-57060143D01*
X70652896Y-57118818D01*
X70675138Y-57122700D01*
X70901047Y-57141671D01*
X70923627Y-57141552D01*
X71149325Y-57120217D01*
X71171526Y-57116103D01*
X71389878Y-57055138D01*
X71410999Y-57047156D01*
X71615105Y-56948487D01*
X71634479Y-56936892D01*
X71817887Y-56803639D01*
X71834902Y-56788796D01*
X71991814Y-56625170D01*
X72005932Y-56607549D01*
X72131388Y-56418722D01*
X72142162Y-56398879D01*
X72232197Y-56190820D01*
X72239287Y-56169383D01*
X72291055Y-55948669D01*
X72294366Y-55922992D01*
X72302039Y-55629972D01*
X72300076Y-55604158D01*
X72259930Y-55381037D01*
X72253972Y-55359258D01*
X72174949Y-55146772D01*
X72165228Y-55126393D01*
X72049827Y-54931259D01*
X72036651Y-54912922D01*
X71888517Y-54741308D01*
X71872303Y-54725595D01*
X71696121Y-54582926D01*
X71677380Y-54570333D01*
X71478718Y-54461117D01*
X71458043Y-54452041D01*
X71243180Y-54379732D01*
X71221225Y-54374461D01*
X70996953Y-54341343D01*
X70974411Y-54340044D01*
X70747819Y-54347165D01*
X70725403Y-54349877D01*
X70503652Y-54397012D01*
X70482071Y-54403651D01*
X70272173Y-54489309D01*
X70252109Y-54499665D01*
X70060696Y-54621139D01*
X70042783Y-54634885D01*
X70039000Y-54638364D01*
X70039000Y-53656000D01*
X70036098Y-53629004D01*
X69990191Y-53417973D01*
X69982066Y-53398358D01*
X70006946Y-53343877D01*
X70017129Y-53309194D01*
X70037707Y-53166074D01*
X70039000Y-53148000D01*
X70039000Y-51838512D01*
X70188089Y-51944464D01*
X70207584Y-51955856D01*
X70412712Y-52052382D01*
X70433916Y-52060142D01*
X70652896Y-52118817D01*
X70675138Y-52122699D01*
X70901047Y-52141670D01*
X70923627Y-52141551D01*
X71149325Y-52120216D01*
X71171526Y-52116102D01*
X71389878Y-52055137D01*
X71410999Y-52047155D01*
X71615105Y-51948486D01*
X71634479Y-51936891D01*
X71817887Y-51803638D01*
X71834902Y-51788795D01*
X71991814Y-51625169D01*
X72005932Y-51607548D01*
X72131388Y-51418721D01*
X72142162Y-51398878D01*
X72232197Y-51190819D01*
X72239287Y-51169382D01*
X72291055Y-50948668D01*
X72294366Y-50922991D01*
X72302039Y-50629971D01*
X72300076Y-50604157D01*
X72259930Y-50381036D01*
X72253972Y-50359257D01*
X72174949Y-50146771D01*
X72165228Y-50126392D01*
X72049827Y-49931258D01*
X72036651Y-49912921D01*
X71888517Y-49741307D01*
X71872303Y-49725594D01*
X71696121Y-49582925D01*
X71677380Y-49570332D01*
X71478718Y-49461116D01*
X71458043Y-49452040D01*
X71243180Y-49379731D01*
X71221225Y-49374460D01*
X70996953Y-49341342D01*
X70974411Y-49340043D01*
X70747819Y-49347164D01*
X70725403Y-49349876D01*
X70503652Y-49397011D01*
X70482071Y-49403650D01*
X70272173Y-49489308D01*
X70252109Y-49499664D01*
X70060696Y-49621138D01*
X70042783Y-49634884D01*
X70039000Y-49638363D01*
X70039000Y-48839026D01*
X71191026Y-47687000D01*
X72452000Y-47687000D01*
X72478996Y-47684098D01*
X72690027Y-47638191D01*
X72731692Y-47620932D01*
X72853330Y-47542760D01*
X72880649Y-47519089D01*
X72975337Y-47409814D01*
X72994881Y-47379403D01*
X73054946Y-47247877D01*
X73065129Y-47213194D01*
X73085707Y-47070074D01*
X73087000Y-47052000D01*
X73087000Y-44004000D01*
X73084098Y-43977004D01*
X73038191Y-43765973D01*
X73020932Y-43724308D01*
X72942760Y-43602670D01*
X72919089Y-43575351D01*
X72809814Y-43480663D01*
X72779403Y-43461119D01*
X72647877Y-43401054D01*
X72613194Y-43390871D01*
X72470074Y-43370293D01*
X72452000Y-43369000D01*
X69404000Y-43369000D01*
X69384717Y-43370473D01*
X69232236Y-43393897D01*
X69196546Y-43404938D01*
X69066202Y-43467526D01*
X69036175Y-43487651D01*
X68928744Y-43584425D01*
X68916180Y-43597483D01*
X63836180Y-49693483D01*
X63821698Y-49714998D01*
X63724532Y-49897092D01*
X63710871Y-49938806D01*
X63690293Y-50081926D01*
X63689000Y-50100000D01*
X63689000Y-50165500D01*
X60845184Y-50165500D01*
X60845172Y-50165501D01*
X60794742Y-50165501D01*
X60755497Y-50171717D01*
X60717036Y-50184214D01*
X60677087Y-50190541D01*
X60639296Y-50202820D01*
X60603256Y-50221184D01*
X60564798Y-50233679D01*
X60529393Y-50251718D01*
X60496675Y-50275489D01*
X60460636Y-50293852D01*
X60428491Y-50317206D01*
X60337010Y-50408687D01*
X60313137Y-50420851D01*
X60280991Y-50444206D01*
X59228197Y-51497000D01*
X58073000Y-51497000D01*
X58073000Y-50381776D01*
X58327000Y-50381776D01*
X58327000Y-51116000D01*
X58347161Y-51184661D01*
X58401242Y-51231523D01*
X58454000Y-51243000D01*
X59234103Y-51243000D01*
X59302764Y-51222839D01*
X59349626Y-51168758D01*
X59358201Y-51089004D01*
X59294260Y-50795070D01*
X59277001Y-50753405D01*
X59161102Y-50573062D01*
X59137430Y-50545743D01*
X58975417Y-50405358D01*
X58945007Y-50385815D01*
X58750006Y-50296762D01*
X58715323Y-50286578D01*
X58503132Y-50256069D01*
X58485058Y-50254776D01*
X58454000Y-50254776D01*
X58385339Y-50274937D01*
X58338477Y-50329018D01*
X58327000Y-50381776D01*
X58073000Y-50381776D01*
X58052839Y-50313115D01*
X57998758Y-50266253D01*
X57946000Y-50254776D01*
X57914942Y-50254776D01*
X57887946Y-50257678D01*
X57575070Y-50325740D01*
X57533405Y-50342999D01*
X57353062Y-50458898D01*
X57325743Y-50482570D01*
X57320932Y-50488122D01*
X57225417Y-50405358D01*
X57195007Y-50385815D01*
X57000006Y-50296762D01*
X56965323Y-50286578D01*
X56753132Y-50256069D01*
X56735058Y-50254776D01*
X56421498Y-50254776D01*
X56421498Y-49865006D01*
X56506040Y-49865006D01*
X56538910Y-49860679D01*
X56769845Y-49798800D01*
X56800475Y-49786112D01*
X56878665Y-49740969D01*
X57066766Y-49769320D01*
X57085694Y-49770738D01*
X58732306Y-49770738D01*
X58755917Y-49768524D01*
X58999027Y-49722525D01*
X59038916Y-49707724D01*
X59210696Y-49608547D01*
X59240294Y-49584944D01*
X59375210Y-49439539D01*
X59396535Y-49408260D01*
X59482598Y-49229549D01*
X59493757Y-49193374D01*
X59523320Y-48997234D01*
X59524738Y-48978306D01*
X59524738Y-48681694D01*
X59522524Y-48658083D01*
X59476525Y-48414973D01*
X59461724Y-48375084D01*
X59362547Y-48203304D01*
X59353919Y-48192484D01*
X59375209Y-48169539D01*
X59396535Y-48138260D01*
X59482598Y-47959549D01*
X59493757Y-47923374D01*
X59523320Y-47727234D01*
X59524738Y-47708306D01*
X59524738Y-47411694D01*
X59522524Y-47388083D01*
X59476525Y-47144973D01*
X59461724Y-47105084D01*
X59362547Y-46933304D01*
X59353919Y-46922484D01*
X59375209Y-46899539D01*
X59396535Y-46868260D01*
X59482598Y-46689549D01*
X59493757Y-46653374D01*
X59523320Y-46457234D01*
X59524738Y-46438306D01*
X59524738Y-46141694D01*
X59522524Y-46118083D01*
X59476525Y-45874973D01*
X59461724Y-45835084D01*
X59362547Y-45663304D01*
X59353919Y-45652484D01*
X59375209Y-45629539D01*
X59396535Y-45598260D01*
X59482598Y-45419549D01*
X59493757Y-45383374D01*
X59507389Y-45292928D01*
X59497686Y-45222028D01*
X59451193Y-45167630D01*
X59381807Y-45147000D01*
X56440260Y-45147000D01*
X56371599Y-45167161D01*
X56324737Y-45221242D01*
X56315474Y-45297611D01*
X56341475Y-45435027D01*
X56356276Y-45474916D01*
X56455453Y-45646696D01*
X56464081Y-45657516D01*
X56442791Y-45680461D01*
X56421465Y-45711740D01*
X56335402Y-45890451D01*
X56324243Y-45926626D01*
X56303319Y-46065451D01*
X55509260Y-46859511D01*
X55502763Y-46839513D01*
X55496435Y-46799563D01*
X55484156Y-46761772D01*
X55465793Y-46725734D01*
X55453297Y-46687273D01*
X55435258Y-46651868D01*
X55411487Y-46619150D01*
X55393125Y-46583113D01*
X55369770Y-46550967D01*
X55308767Y-46489964D01*
X54642295Y-45823493D01*
X54642294Y-45823491D01*
X54500509Y-45681706D01*
X54468364Y-45658352D01*
X54432325Y-45639989D01*
X54422283Y-45632693D01*
X54425209Y-45629539D01*
X54446535Y-45598260D01*
X54532598Y-45419549D01*
X54543757Y-45383374D01*
X54573320Y-45187234D01*
X54574738Y-45168306D01*
X54574738Y-44871694D01*
X54572524Y-44848083D01*
X54553412Y-44747072D01*
X56310611Y-44747072D01*
X56320314Y-44817972D01*
X56366807Y-44872370D01*
X56436193Y-44893000D01*
X57655000Y-44893000D01*
X57723661Y-44872839D01*
X57770523Y-44818758D01*
X57782000Y-44766000D01*
X57782000Y-44206262D01*
X58036000Y-44206262D01*
X58036000Y-44766000D01*
X58056161Y-44834661D01*
X58110242Y-44881523D01*
X58163000Y-44893000D01*
X59377740Y-44893000D01*
X59446401Y-44872839D01*
X59493263Y-44818758D01*
X59502526Y-44742389D01*
X59476525Y-44604973D01*
X59461724Y-44565084D01*
X59362547Y-44393304D01*
X59338944Y-44363706D01*
X59193539Y-44228790D01*
X59162260Y-44207465D01*
X58983549Y-44121402D01*
X58947374Y-44110243D01*
X58751234Y-44080680D01*
X58732306Y-44079262D01*
X58163000Y-44079262D01*
X58094339Y-44099423D01*
X58047477Y-44153504D01*
X58036000Y-44206262D01*
X57782000Y-44206262D01*
X57761839Y-44137601D01*
X57707758Y-44090739D01*
X57655000Y-44079262D01*
X57085694Y-44079262D01*
X57062083Y-44081476D01*
X56818973Y-44127475D01*
X56779084Y-44142276D01*
X56607304Y-44241453D01*
X56577706Y-44265056D01*
X56442790Y-44410461D01*
X56421465Y-44441740D01*
X56335402Y-44620451D01*
X56324243Y-44656626D01*
X56310611Y-44747072D01*
X54553412Y-44747072D01*
X54526525Y-44604973D01*
X54511724Y-44565084D01*
X54412547Y-44393304D01*
X54388944Y-44363706D01*
X54243539Y-44228790D01*
X54212260Y-44207465D01*
X54033549Y-44121402D01*
X53997374Y-44110243D01*
X53801234Y-44080680D01*
X53782306Y-44079262D01*
X52135694Y-44079262D01*
X52112083Y-44081476D01*
X51868973Y-44127475D01*
X51829084Y-44142276D01*
X51657304Y-44241453D01*
X51627706Y-44265056D01*
X51492790Y-44410461D01*
X51471465Y-44441740D01*
X51453735Y-44478557D01*
X51408017Y-44407420D01*
X51384345Y-44380102D01*
X51219616Y-44237363D01*
X51189207Y-44217820D01*
X50990936Y-44127273D01*
X50956252Y-44117089D01*
X50740503Y-44086069D01*
X50722429Y-44084776D01*
X50354000Y-44084776D01*
X50285339Y-44104937D01*
X50238477Y-44159018D01*
X50227000Y-44211776D01*
X50227000Y-45564500D01*
X49973000Y-45564500D01*
X49973000Y-44211776D01*
X49952839Y-44143115D01*
X49898758Y-44096253D01*
X49846000Y-44084776D01*
X49477571Y-44084776D01*
X49450575Y-44087678D01*
X49132452Y-44156881D01*
X49090786Y-44174140D01*
X48907420Y-44291983D01*
X48880102Y-44315655D01*
X48832872Y-44370161D01*
X48679616Y-44237363D01*
X48649207Y-44217820D01*
X48450936Y-44127273D01*
X48416252Y-44117089D01*
X48200503Y-44086069D01*
X48182429Y-44084776D01*
X47814000Y-44084776D01*
X47745339Y-44104937D01*
X47698477Y-44159018D01*
X47687000Y-44211776D01*
X47687000Y-45564500D01*
X46171776Y-45564500D01*
X46103115Y-45584661D01*
X46056253Y-45638742D01*
X46044776Y-45691500D01*
X46044776Y-45897429D01*
X46045129Y-45900710D01*
X45892395Y-45900710D01*
X45887525Y-45874973D01*
X45872724Y-45835084D01*
X45773547Y-45663304D01*
X45764919Y-45652484D01*
X45786209Y-45629539D01*
X45807535Y-45598260D01*
X45893598Y-45419549D01*
X45904757Y-45383374D01*
X45918389Y-45292928D01*
X45908686Y-45222028D01*
X45862193Y-45167630D01*
X45792807Y-45147000D01*
X45147000Y-45147000D01*
X45147000Y-44977571D01*
X46044776Y-44977571D01*
X46044776Y-45183500D01*
X46064937Y-45252161D01*
X46119018Y-45299023D01*
X46171776Y-45310500D01*
X47306000Y-45310500D01*
X47374661Y-45290339D01*
X47421523Y-45236258D01*
X47433000Y-45183500D01*
X47433000Y-44211776D01*
X47412839Y-44143115D01*
X47358758Y-44096253D01*
X47306000Y-44084776D01*
X46937571Y-44084776D01*
X46910575Y-44087678D01*
X46592452Y-44156881D01*
X46550786Y-44174140D01*
X46367420Y-44291983D01*
X46340102Y-44315655D01*
X46197363Y-44480384D01*
X46177820Y-44510793D01*
X46087273Y-44709064D01*
X46077089Y-44743748D01*
X46046069Y-44959497D01*
X46044776Y-44977571D01*
X45147000Y-44977571D01*
X45147000Y-44893000D01*
X45788740Y-44893000D01*
X45857401Y-44872839D01*
X45904263Y-44818758D01*
X45913526Y-44742389D01*
X45887525Y-44604973D01*
X45872724Y-44565084D01*
X45773547Y-44393304D01*
X45749944Y-44363706D01*
X45604539Y-44228790D01*
X45573260Y-44207465D01*
X45394549Y-44121402D01*
X45358374Y-44110243D01*
X45162234Y-44080680D01*
X45147000Y-44079539D01*
X45147000Y-43115000D01*
X75430547Y-43115000D01*
X75434139Y-43115793D01*
X75452789Y-43118480D01*
X75459044Y-43118911D01*
X75459799Y-43118960D01*
X75737950Y-43136460D01*
X75972134Y-43181133D01*
X76198887Y-43254809D01*
X76414606Y-43356319D01*
X76615916Y-43484073D01*
X76799622Y-43636048D01*
X76962833Y-43809850D01*
X77102958Y-44002718D01*
X77217825Y-44211656D01*
X77305591Y-44433329D01*
X77364882Y-44664252D01*
X77396028Y-44910802D01*
X77400092Y-45040110D01*
X77401939Y-45058066D01*
X77405001Y-45075520D01*
X77405000Y-61460547D01*
X77404207Y-61464139D01*
X77401520Y-61482789D01*
X77401089Y-61489044D01*
X77401040Y-61489799D01*
X77383540Y-61767950D01*
X77338867Y-62002134D01*
X77265191Y-62228886D01*
X77163677Y-62444614D01*
X77035926Y-62645918D01*
X76883952Y-62829621D01*
X76710153Y-62992830D01*
X76517274Y-63132965D01*
X76308338Y-63247827D01*
X76086675Y-63335591D01*
X75855750Y-63394882D01*
X75609197Y-63426028D01*
X75479891Y-63430092D01*
X75461935Y-63431939D01*
X75444486Y-63435000D01*
X42353000Y-63435000D01*
X42353000Y-55838611D01*
X43253813Y-55838611D01*
X43276601Y-55959049D01*
X43291402Y-55998938D01*
X43388695Y-56167456D01*
X43412299Y-56197054D01*
X43554942Y-56329406D01*
X43586220Y-56350731D01*
X43761536Y-56435159D01*
X43797710Y-56446317D01*
X43990124Y-56475319D01*
X44009053Y-56476738D01*
X44341000Y-56476738D01*
X44409661Y-56456577D01*
X44456523Y-56402496D01*
X44468000Y-56349738D01*
X44468000Y-55815000D01*
X44722000Y-55815000D01*
X44722000Y-56349738D01*
X44742161Y-56418399D01*
X44796242Y-56465261D01*
X44849000Y-56476738D01*
X45180947Y-56476738D01*
X45204558Y-56474524D01*
X45443049Y-56429399D01*
X45482938Y-56414598D01*
X45651456Y-56317305D01*
X45681054Y-56293701D01*
X45813406Y-56151058D01*
X45834731Y-56119780D01*
X45919159Y-55944464D01*
X45930318Y-55908289D01*
X45941526Y-55833928D01*
X45931823Y-55763029D01*
X45885330Y-55708630D01*
X45815944Y-55688000D01*
X44849000Y-55688000D01*
X44780339Y-55708161D01*
X44733477Y-55762242D01*
X44722000Y-55815000D01*
X44468000Y-55815000D01*
X44447839Y-55746339D01*
X44393758Y-55699477D01*
X44341000Y-55688000D01*
X43378599Y-55688000D01*
X43309938Y-55708161D01*
X43263076Y-55762242D01*
X43253813Y-55838611D01*
X42353000Y-55838611D01*
X42353000Y-55288072D01*
X43248474Y-55288072D01*
X43258177Y-55358971D01*
X43304670Y-55413370D01*
X43374056Y-55434000D01*
X44341000Y-55434000D01*
X44409661Y-55413839D01*
X44456523Y-55359758D01*
X44468000Y-55307000D01*
X44468000Y-54772262D01*
X44722000Y-54772262D01*
X44722000Y-55307000D01*
X44742161Y-55375661D01*
X44796242Y-55422523D01*
X44849000Y-55434000D01*
X45811401Y-55434000D01*
X45880062Y-55413839D01*
X45926924Y-55359758D01*
X45936187Y-55283389D01*
X45913399Y-55162951D01*
X45898598Y-55123062D01*
X45801305Y-54954544D01*
X45777701Y-54924946D01*
X45635058Y-54792594D01*
X45603780Y-54771269D01*
X45428464Y-54686841D01*
X45392290Y-54675683D01*
X45199876Y-54646681D01*
X45180947Y-54645262D01*
X44849000Y-54645262D01*
X44780339Y-54665423D01*
X44733477Y-54719504D01*
X44722000Y-54772262D01*
X44468000Y-54772262D01*
X44447839Y-54703601D01*
X44393758Y-54656739D01*
X44341000Y-54645262D01*
X44009053Y-54645262D01*
X43985442Y-54647476D01*
X43746951Y-54692601D01*
X43707062Y-54707402D01*
X43538544Y-54804695D01*
X43508946Y-54828299D01*
X43376594Y-54970942D01*
X43355269Y-55002220D01*
X43270841Y-55177536D01*
X43259682Y-55213711D01*
X43248474Y-55288072D01*
X42353000Y-55288072D01*
X42353000Y-50989000D01*
X43378599Y-50989000D01*
X43309938Y-51009161D01*
X43263076Y-51063242D01*
G36*
X41591000Y-50227000D02*
G01*
X40278542Y-50227000D01*
X40277701Y-50225946D01*
X40135058Y-50093594D01*
X40103780Y-50072269D01*
X39928464Y-49987841D01*
X39892290Y-49976683D01*
X39699876Y-49947681D01*
X39680947Y-49946262D01*
X38509053Y-49946262D01*
X38485442Y-49948476D01*
X38289000Y-49985645D01*
X38289000Y-49725491D01*
X38295451Y-49728598D01*
X38331626Y-49739757D01*
X38527766Y-49769320D01*
X38546694Y-49770738D01*
X39116000Y-49770738D01*
X39184661Y-49750577D01*
X39231523Y-49696496D01*
X39243000Y-49643738D01*
X39243000Y-49084000D01*
X39497000Y-49084000D01*
X39497000Y-49643738D01*
X39517161Y-49712399D01*
X39571242Y-49759261D01*
X39624000Y-49770738D01*
X40193306Y-49770738D01*
X40216917Y-49768524D01*
X40460027Y-49722525D01*
X40499916Y-49707724D01*
X40671696Y-49608547D01*
X40701294Y-49584944D01*
X40836210Y-49439539D01*
X40857535Y-49408260D01*
X40943598Y-49229549D01*
X40954757Y-49193374D01*
X40968389Y-49102928D01*
X40958686Y-49032028D01*
X40912193Y-48977630D01*
X40842807Y-48957000D01*
X39624000Y-48957000D01*
X39555339Y-48977161D01*
X39508477Y-49031242D01*
X39497000Y-49084000D01*
X39243000Y-49084000D01*
X39243000Y-48703000D01*
X40838740Y-48703000D01*
X40907401Y-48682839D01*
X40954263Y-48628758D01*
X40963526Y-48552389D01*
X40937525Y-48414973D01*
X40922724Y-48375084D01*
X40823547Y-48203304D01*
X40814919Y-48192484D01*
X40836209Y-48169539D01*
X40857535Y-48138260D01*
X40943598Y-47959549D01*
X40954757Y-47923374D01*
X40984320Y-47727234D01*
X40985738Y-47708306D01*
X40985738Y-47411694D01*
X40983524Y-47388083D01*
X40937525Y-47144973D01*
X40922724Y-47105084D01*
X40823547Y-46933304D01*
X40814919Y-46922484D01*
X40836209Y-46899539D01*
X40857535Y-46868260D01*
X40943598Y-46689549D01*
X40954757Y-46653374D01*
X40984320Y-46457234D01*
X40985738Y-46438306D01*
X40985738Y-46141694D01*
X40983524Y-46118083D01*
X40937525Y-45874973D01*
X40922724Y-45835084D01*
X40823547Y-45663304D01*
X40814919Y-45652484D01*
X40836209Y-45629539D01*
X40857535Y-45598260D01*
X40943598Y-45419549D01*
X40954757Y-45383374D01*
X40984320Y-45187234D01*
X40985738Y-45168306D01*
X40985738Y-44871694D01*
X40983524Y-44848083D01*
X40937525Y-44604973D01*
X40922724Y-44565084D01*
X40823547Y-44393304D01*
X40799944Y-44363706D01*
X40654539Y-44228790D01*
X40623260Y-44207465D01*
X40444549Y-44121402D01*
X40408374Y-44110243D01*
X40212234Y-44080680D01*
X40193306Y-44079262D01*
X38546694Y-44079262D01*
X38523083Y-44081476D01*
X38289000Y-44125767D01*
X38289000Y-43115000D01*
X41591000Y-43115000D01*
X41591000Y-50227000D01*
X41591000Y-50227000D01*
G37*
X41591000Y-50227000D02*
X40278542Y-50227000D01*
X40277701Y-50225946D01*
X40135058Y-50093594D01*
X40103780Y-50072269D01*
X39928464Y-49987841D01*
X39892290Y-49976683D01*
X39699876Y-49947681D01*
X39680947Y-49946262D01*
X38509053Y-49946262D01*
X38485442Y-49948476D01*
X38289000Y-49985645D01*
X38289000Y-49725491D01*
X38295451Y-49728598D01*
X38331626Y-49739757D01*
X38527766Y-49769320D01*
X38546694Y-49770738D01*
X39116000Y-49770738D01*
X39184661Y-49750577D01*
X39231523Y-49696496D01*
X39243000Y-49643738D01*
X39243000Y-49084000D01*
X39497000Y-49084000D01*
X39497000Y-49643738D01*
X39517161Y-49712399D01*
X39571242Y-49759261D01*
X39624000Y-49770738D01*
X40193306Y-49770738D01*
X40216917Y-49768524D01*
X40460027Y-49722525D01*
X40499916Y-49707724D01*
X40671696Y-49608547D01*
X40701294Y-49584944D01*
X40836210Y-49439539D01*
X40857535Y-49408260D01*
X40943598Y-49229549D01*
X40954757Y-49193374D01*
X40968389Y-49102928D01*
X40958686Y-49032028D01*
X40912193Y-48977630D01*
X40842807Y-48957000D01*
X39624000Y-48957000D01*
X39555339Y-48977161D01*
X39508477Y-49031242D01*
X39497000Y-49084000D01*
X39243000Y-49084000D01*
X39243000Y-48703000D01*
X40838740Y-48703000D01*
X40907401Y-48682839D01*
X40954263Y-48628758D01*
X40963526Y-48552389D01*
X40937525Y-48414973D01*
X40922724Y-48375084D01*
X40823547Y-48203304D01*
X40814919Y-48192484D01*
X40836209Y-48169539D01*
X40857535Y-48138260D01*
X40943598Y-47959549D01*
X40954757Y-47923374D01*
X40984320Y-47727234D01*
X40985738Y-47708306D01*
X40985738Y-47411694D01*
X40983524Y-47388083D01*
X40937525Y-47144973D01*
X40922724Y-47105084D01*
X40823547Y-46933304D01*
X40814919Y-46922484D01*
X40836209Y-46899539D01*
X40857535Y-46868260D01*
X40943598Y-46689549D01*
X40954757Y-46653374D01*
X40984320Y-46457234D01*
X40985738Y-46438306D01*
X40985738Y-46141694D01*
X40983524Y-46118083D01*
X40937525Y-45874973D01*
X40922724Y-45835084D01*
X40823547Y-45663304D01*
X40814919Y-45652484D01*
X40836209Y-45629539D01*
X40857535Y-45598260D01*
X40943598Y-45419549D01*
X40954757Y-45383374D01*
X40984320Y-45187234D01*
X40985738Y-45168306D01*
X40985738Y-44871694D01*
X40983524Y-44848083D01*
X40937525Y-44604973D01*
X40922724Y-44565084D01*
X40823547Y-44393304D01*
X40799944Y-44363706D01*
X40654539Y-44228790D01*
X40623260Y-44207465D01*
X40444549Y-44121402D01*
X40408374Y-44110243D01*
X40212234Y-44080680D01*
X40193306Y-44079262D01*
X38546694Y-44079262D01*
X38523083Y-44081476D01*
X38289000Y-44125767D01*
X38289000Y-43115000D01*
X41591000Y-43115000D01*
X41591000Y-50227000D01*
G36*
X44385000Y-44079262D02*
G01*
X43496694Y-44079262D01*
X43473083Y-44081476D01*
X43229973Y-44127475D01*
X43190084Y-44142276D01*
X43018304Y-44241453D01*
X42988706Y-44265056D01*
X42853790Y-44410461D01*
X42832465Y-44441740D01*
X42746402Y-44620451D01*
X42735243Y-44656626D01*
X42705680Y-44852766D01*
X42704262Y-44871694D01*
X42704262Y-45168306D01*
X42706476Y-45191917D01*
X42752475Y-45435027D01*
X42767276Y-45474916D01*
X42866453Y-45646696D01*
X42875081Y-45657516D01*
X42853791Y-45680461D01*
X42832465Y-45711740D01*
X42746402Y-45890451D01*
X42735243Y-45926626D01*
X42705680Y-46122766D01*
X42704262Y-46141694D01*
X42704262Y-46438306D01*
X42706476Y-46461917D01*
X42752475Y-46705027D01*
X42767276Y-46744916D01*
X42866453Y-46916696D01*
X42875081Y-46927516D01*
X42853791Y-46950461D01*
X42832465Y-46981740D01*
X42746402Y-47160451D01*
X42735243Y-47196626D01*
X42705680Y-47392766D01*
X42704262Y-47411694D01*
X42704262Y-47708306D01*
X42706476Y-47731917D01*
X42752475Y-47975027D01*
X42767276Y-48014916D01*
X42866453Y-48186696D01*
X42875081Y-48197516D01*
X42853791Y-48220461D01*
X42832465Y-48251740D01*
X42746402Y-48430451D01*
X42735243Y-48466626D01*
X42721611Y-48557072D01*
X42731314Y-48627972D01*
X42777807Y-48682370D01*
X42847193Y-48703000D01*
X44447000Y-48703000D01*
X44447000Y-49570086D01*
X44443339Y-49571161D01*
X44396477Y-49625242D01*
X44385000Y-49678000D01*
X44385000Y-49946262D01*
X44009053Y-49946262D01*
X43985442Y-49948476D01*
X43746951Y-49993601D01*
X43707062Y-50008402D01*
X43538544Y-50105695D01*
X43508946Y-50129298D01*
X43418293Y-50227000D01*
X42353000Y-50227000D01*
X42353000Y-49107611D01*
X42726474Y-49107611D01*
X42752475Y-49245027D01*
X42767276Y-49284916D01*
X42866453Y-49456696D01*
X42890056Y-49486294D01*
X43035461Y-49621210D01*
X43066740Y-49642535D01*
X43245451Y-49728598D01*
X43281626Y-49739757D01*
X43477766Y-49769320D01*
X43496694Y-49770738D01*
X44066000Y-49770738D01*
X44134661Y-49750577D01*
X44181523Y-49696496D01*
X44193000Y-49643738D01*
X44193000Y-49084000D01*
X44172839Y-49015339D01*
X44118758Y-48968477D01*
X44066000Y-48957000D01*
X42851260Y-48957000D01*
X42782599Y-48977161D01*
X42735737Y-49031242D01*
X42726474Y-49107611D01*
X42353000Y-49107611D01*
X42353000Y-43115000D01*
X44385000Y-43115000D01*
X44385000Y-44079262D01*
X44385000Y-44079262D01*
G37*
X44385000Y-44079262D02*
X43496694Y-44079262D01*
X43473083Y-44081476D01*
X43229973Y-44127475D01*
X43190084Y-44142276D01*
X43018304Y-44241453D01*
X42988706Y-44265056D01*
X42853790Y-44410461D01*
X42832465Y-44441740D01*
X42746402Y-44620451D01*
X42735243Y-44656626D01*
X42705680Y-44852766D01*
X42704262Y-44871694D01*
X42704262Y-45168306D01*
X42706476Y-45191917D01*
X42752475Y-45435027D01*
X42767276Y-45474916D01*
X42866453Y-45646696D01*
X42875081Y-45657516D01*
X42853791Y-45680461D01*
X42832465Y-45711740D01*
X42746402Y-45890451D01*
X42735243Y-45926626D01*
X42705680Y-46122766D01*
X42704262Y-46141694D01*
X42704262Y-46438306D01*
X42706476Y-46461917D01*
X42752475Y-46705027D01*
X42767276Y-46744916D01*
X42866453Y-46916696D01*
X42875081Y-46927516D01*
X42853791Y-46950461D01*
X42832465Y-46981740D01*
X42746402Y-47160451D01*
X42735243Y-47196626D01*
X42705680Y-47392766D01*
X42704262Y-47411694D01*
X42704262Y-47708306D01*
X42706476Y-47731917D01*
X42752475Y-47975027D01*
X42767276Y-48014916D01*
X42866453Y-48186696D01*
X42875081Y-48197516D01*
X42853791Y-48220461D01*
X42832465Y-48251740D01*
X42746402Y-48430451D01*
X42735243Y-48466626D01*
X42721611Y-48557072D01*
X42731314Y-48627972D01*
X42777807Y-48682370D01*
X42847193Y-48703000D01*
X44447000Y-48703000D01*
X44447000Y-49570086D01*
X44443339Y-49571161D01*
X44396477Y-49625242D01*
X44385000Y-49678000D01*
X44385000Y-49946262D01*
X44009053Y-49946262D01*
X43985442Y-49948476D01*
X43746951Y-49993601D01*
X43707062Y-50008402D01*
X43538544Y-50105695D01*
X43508946Y-50129298D01*
X43418293Y-50227000D01*
X42353000Y-50227000D01*
X42353000Y-49107611D01*
X42726474Y-49107611D01*
X42752475Y-49245027D01*
X42767276Y-49284916D01*
X42866453Y-49456696D01*
X42890056Y-49486294D01*
X43035461Y-49621210D01*
X43066740Y-49642535D01*
X43245451Y-49728598D01*
X43281626Y-49739757D01*
X43477766Y-49769320D01*
X43496694Y-49770738D01*
X44066000Y-49770738D01*
X44134661Y-49750577D01*
X44181523Y-49696496D01*
X44193000Y-49643738D01*
X44193000Y-49084000D01*
X44172839Y-49015339D01*
X44118758Y-48968477D01*
X44066000Y-48957000D01*
X42851260Y-48957000D01*
X42782599Y-48977161D01*
X42735737Y-49031242D01*
X42726474Y-49107611D01*
X42353000Y-49107611D01*
X42353000Y-43115000D01*
X44385000Y-43115000D01*
X44385000Y-44079262D01*
G36*
X37527000Y-44545879D02*
G01*
X37438017Y-44407420D01*
X37414345Y-44380102D01*
X37249616Y-44237363D01*
X37219207Y-44217820D01*
X37020936Y-44127273D01*
X36986252Y-44117089D01*
X36770503Y-44086069D01*
X36752429Y-44084776D01*
X36384000Y-44084776D01*
X36315339Y-44104937D01*
X36268477Y-44159018D01*
X36257000Y-44211776D01*
X36257000Y-45564500D01*
X36003000Y-45564500D01*
X36003000Y-44211776D01*
X35982839Y-44143115D01*
X35928758Y-44096253D01*
X35876000Y-44084776D01*
X35507571Y-44084776D01*
X35480575Y-44087678D01*
X35162452Y-44156881D01*
X35120786Y-44174140D01*
X34937420Y-44291983D01*
X34910102Y-44315655D01*
X34862872Y-44370161D01*
X34709616Y-44237363D01*
X34679207Y-44217820D01*
X34480936Y-44127273D01*
X34446252Y-44117089D01*
X34230503Y-44086069D01*
X34212429Y-44084776D01*
X33844000Y-44084776D01*
X33775339Y-44104937D01*
X33728477Y-44159018D01*
X33717000Y-44211776D01*
X33717000Y-45564500D01*
X32201776Y-45564500D01*
X32133115Y-45584661D01*
X32086253Y-45638742D01*
X32074776Y-45691500D01*
X32074776Y-45897429D01*
X32077678Y-45924425D01*
X32107459Y-46061326D01*
X30989786Y-47179000D01*
X28414163Y-47179000D01*
X28345502Y-47199161D01*
X28298640Y-47253242D01*
X28287163Y-47306000D01*
X28287163Y-47902000D01*
X28291490Y-47934870D01*
X28360599Y-48192789D01*
X28385984Y-48241553D01*
X28501138Y-48378788D01*
X28534926Y-48407139D01*
X28690073Y-48496713D01*
X28731520Y-48511799D01*
X28756325Y-48516173D01*
X28671580Y-48597016D01*
X28657350Y-48613099D01*
X28519782Y-48797997D01*
X28508466Y-48816249D01*
X28404018Y-49021683D01*
X28395938Y-49041580D01*
X28327597Y-49261674D01*
X28322986Y-49282648D01*
X28292705Y-49511111D01*
X28291693Y-49532563D01*
X28300339Y-49762862D01*
X28302957Y-49784176D01*
X28350282Y-50009725D01*
X28356453Y-50030295D01*
X28441104Y-50244646D01*
X28450652Y-50263881D01*
X28570209Y-50460905D01*
X28582862Y-50478257D01*
X28733906Y-50652320D01*
X28749302Y-50667292D01*
X28927515Y-50813417D01*
X28945213Y-50825580D01*
X29008164Y-50861414D01*
X28855070Y-50964483D01*
X28838334Y-50977940D01*
X28671580Y-51137016D01*
X28657350Y-51153099D01*
X28519782Y-51337997D01*
X28508466Y-51356249D01*
X28404018Y-51561683D01*
X28395938Y-51581580D01*
X28327597Y-51801674D01*
X28322986Y-51822648D01*
X28292705Y-52051111D01*
X28291693Y-52072563D01*
X28300339Y-52302862D01*
X28302957Y-52324176D01*
X28350282Y-52549725D01*
X28356453Y-52570295D01*
X28441104Y-52784646D01*
X28450652Y-52803881D01*
X28570209Y-53000905D01*
X28582862Y-53018257D01*
X28733906Y-53192320D01*
X28749302Y-53207292D01*
X28927515Y-53353417D01*
X28945213Y-53365580D01*
X29008164Y-53401414D01*
X28855070Y-53504483D01*
X28838334Y-53517940D01*
X28671580Y-53677016D01*
X28657350Y-53693099D01*
X28519782Y-53877997D01*
X28508466Y-53896249D01*
X28404018Y-54101683D01*
X28395938Y-54121580D01*
X28327597Y-54341674D01*
X28322986Y-54362648D01*
X28292705Y-54591111D01*
X28291693Y-54612563D01*
X28300339Y-54842862D01*
X28302957Y-54864176D01*
X28350282Y-55089725D01*
X28356453Y-55110295D01*
X28441104Y-55324646D01*
X28450652Y-55343881D01*
X28570209Y-55540905D01*
X28582862Y-55558257D01*
X28733906Y-55732320D01*
X28749302Y-55747292D01*
X28927515Y-55893417D01*
X28945213Y-55905580D01*
X29008164Y-55941414D01*
X28855070Y-56044483D01*
X28838334Y-56057940D01*
X28671580Y-56217016D01*
X28657350Y-56233099D01*
X28519782Y-56417997D01*
X28508466Y-56436249D01*
X28404018Y-56641683D01*
X28395938Y-56661580D01*
X28327597Y-56881674D01*
X28322986Y-56902648D01*
X28292705Y-57131111D01*
X28291693Y-57152563D01*
X28300339Y-57382862D01*
X28302957Y-57404176D01*
X28350282Y-57629725D01*
X28356453Y-57650295D01*
X28441104Y-57864646D01*
X28450652Y-57883881D01*
X28570209Y-58080905D01*
X28582862Y-58098257D01*
X28733906Y-58272320D01*
X28749302Y-58287292D01*
X28927515Y-58433417D01*
X28945213Y-58445580D01*
X29008164Y-58481414D01*
X28855070Y-58584483D01*
X28838334Y-58597940D01*
X28671580Y-58757016D01*
X28657350Y-58773099D01*
X28519782Y-58957997D01*
X28508466Y-58976249D01*
X28404018Y-59181683D01*
X28395938Y-59201580D01*
X28327597Y-59421674D01*
X28322986Y-59442648D01*
X28292705Y-59671111D01*
X28291693Y-59692563D01*
X28300339Y-59922862D01*
X28302957Y-59944176D01*
X28350282Y-60169725D01*
X28356453Y-60190295D01*
X28441104Y-60404646D01*
X28450652Y-60423881D01*
X28570209Y-60620905D01*
X28582862Y-60638257D01*
X28733906Y-60812320D01*
X28749302Y-60827292D01*
X28927515Y-60973417D01*
X28945213Y-60985580D01*
X29145498Y-61099589D01*
X29164993Y-61108597D01*
X29381624Y-61187230D01*
X29408269Y-61193750D01*
X29726275Y-61235899D01*
X29742962Y-61237000D01*
X29837854Y-61237000D01*
X29848592Y-61236545D01*
X30020374Y-61221969D01*
X30041541Y-61218351D01*
X30264610Y-61160454D01*
X30284866Y-61153321D01*
X30494992Y-61058666D01*
X30513757Y-61048222D01*
X30704930Y-60919517D01*
X30721666Y-60906060D01*
X30888420Y-60746984D01*
X30902650Y-60730901D01*
X31040218Y-60546003D01*
X31051534Y-60527751D01*
X31059542Y-60512000D01*
X31099816Y-60512000D01*
X31099828Y-60511999D01*
X31150257Y-60511999D01*
X31189502Y-60505783D01*
X31227963Y-60493286D01*
X31267913Y-60486959D01*
X31305704Y-60474680D01*
X31341744Y-60456316D01*
X31380202Y-60443821D01*
X31415607Y-60425782D01*
X31448325Y-60402011D01*
X31484364Y-60383648D01*
X31516509Y-60360294D01*
X31658294Y-60218509D01*
X31658295Y-60218507D01*
X35327579Y-56549224D01*
X35681058Y-56549224D01*
X35708054Y-56546322D01*
X36020930Y-56478260D01*
X36062595Y-56461001D01*
X36242938Y-56345102D01*
X36270257Y-56321430D01*
X36275068Y-56315878D01*
X36370583Y-56398642D01*
X36400993Y-56418185D01*
X36595994Y-56507238D01*
X36630677Y-56517422D01*
X36842868Y-56547931D01*
X36860942Y-56549224D01*
X37431058Y-56549224D01*
X37458054Y-56546322D01*
X37770930Y-56478260D01*
X37812595Y-56461001D01*
X37992938Y-56345102D01*
X38020257Y-56321430D01*
X38031884Y-56308012D01*
X38054941Y-56329406D01*
X38086220Y-56350731D01*
X38261536Y-56435159D01*
X38297710Y-56446317D01*
X38490124Y-56475319D01*
X38509053Y-56476738D01*
X39680947Y-56476738D01*
X39704558Y-56474524D01*
X39943049Y-56429399D01*
X39982938Y-56414598D01*
X40151456Y-56317305D01*
X40181054Y-56293701D01*
X40313406Y-56151058D01*
X40334731Y-56119780D01*
X40419159Y-55944464D01*
X40430317Y-55908290D01*
X40459319Y-55715876D01*
X40460738Y-55696947D01*
X40460738Y-55425053D01*
X40458524Y-55401442D01*
X40413399Y-55162951D01*
X40398598Y-55123062D01*
X40301305Y-54954544D01*
X40277701Y-54924946D01*
X40135058Y-54792594D01*
X40103780Y-54771269D01*
X39928464Y-54686841D01*
X39892290Y-54675683D01*
X39699876Y-54646681D01*
X39680947Y-54645262D01*
X38509053Y-54645262D01*
X38485442Y-54647476D01*
X38345259Y-54674000D01*
X38130841Y-54674000D01*
X38107102Y-54637061D01*
X38083430Y-54609743D01*
X37921417Y-54469358D01*
X37891007Y-54449815D01*
X37696006Y-54360762D01*
X37661323Y-54350578D01*
X37449132Y-54320069D01*
X37431058Y-54318776D01*
X36860942Y-54318776D01*
X36833946Y-54321678D01*
X36521070Y-54389740D01*
X36479405Y-54406999D01*
X36299062Y-54522898D01*
X36271743Y-54546570D01*
X36266932Y-54552122D01*
X36171417Y-54469358D01*
X36141007Y-54449815D01*
X35946006Y-54360762D01*
X35911323Y-54350578D01*
X35699132Y-54320069D01*
X35681058Y-54318776D01*
X35110942Y-54318776D01*
X35083946Y-54321678D01*
X34771070Y-54389740D01*
X34729405Y-54406999D01*
X34549062Y-54522898D01*
X34521743Y-54546570D01*
X34381358Y-54708583D01*
X34361815Y-54738993D01*
X34272762Y-54933994D01*
X34262578Y-54968677D01*
X34232069Y-55180868D01*
X34230776Y-55198942D01*
X34230776Y-55496421D01*
X30923392Y-58803806D01*
X30826094Y-58691680D01*
X30810698Y-58676708D01*
X30632485Y-58530583D01*
X30614787Y-58518420D01*
X30551836Y-58482586D01*
X30704930Y-58379517D01*
X30721666Y-58366060D01*
X30888420Y-58206984D01*
X30902650Y-58190901D01*
X31040218Y-58006003D01*
X31051534Y-57987751D01*
X31155982Y-57782317D01*
X31164062Y-57762420D01*
X31232403Y-57542326D01*
X31237014Y-57521352D01*
X31267295Y-57292889D01*
X31268307Y-57271437D01*
X31259661Y-57041138D01*
X31257043Y-57019824D01*
X31220611Y-56846192D01*
X31238293Y-56828510D01*
X31261648Y-56796364D01*
X31280010Y-56760327D01*
X31303781Y-56727609D01*
X31321820Y-56692204D01*
X31334316Y-56653743D01*
X31352679Y-56617705D01*
X31364958Y-56579914D01*
X31371286Y-56539964D01*
X31383782Y-56501503D01*
X31389998Y-56462259D01*
X31389998Y-56411829D01*
X31389999Y-56411817D01*
X31389999Y-56041803D01*
X35454579Y-51977224D01*
X35681058Y-51977224D01*
X35708054Y-51974322D01*
X36020930Y-51906260D01*
X36062595Y-51889001D01*
X36242938Y-51773102D01*
X36270257Y-51749430D01*
X36275068Y-51743878D01*
X36370583Y-51826642D01*
X36400993Y-51846185D01*
X36595994Y-51935238D01*
X36630677Y-51945422D01*
X36842868Y-51975931D01*
X36860942Y-51977224D01*
X37431058Y-51977224D01*
X37458054Y-51974322D01*
X37770930Y-51906260D01*
X37812595Y-51889001D01*
X37992938Y-51773102D01*
X38020257Y-51749430D01*
X38099410Y-51658083D01*
X38261536Y-51736159D01*
X38297710Y-51747317D01*
X38490124Y-51776319D01*
X38509053Y-51777738D01*
X39680947Y-51777738D01*
X39704558Y-51775524D01*
X39943049Y-51730399D01*
X39982938Y-51715598D01*
X40151456Y-51618305D01*
X40181054Y-51594701D01*
X40313406Y-51452058D01*
X40334731Y-51420780D01*
X40419159Y-51245464D01*
X40430317Y-51209290D01*
X40459319Y-51016876D01*
X40460738Y-50997947D01*
X40460738Y-50989000D01*
X41591000Y-50989000D01*
X41591000Y-52871794D01*
X41538566Y-52780975D01*
X41518384Y-52754672D01*
X41349328Y-52585616D01*
X41323025Y-52565434D01*
X41115975Y-52445894D01*
X41085345Y-52433206D01*
X40854410Y-52371327D01*
X40821540Y-52367000D01*
X40582460Y-52367000D01*
X40549590Y-52371327D01*
X40318655Y-52433206D01*
X40288025Y-52445894D01*
X40080975Y-52565434D01*
X40054672Y-52585616D01*
X40052645Y-52587643D01*
X39928464Y-52527841D01*
X39892290Y-52516683D01*
X39699876Y-52487681D01*
X39680947Y-52486262D01*
X38509053Y-52486262D01*
X38485442Y-52488476D01*
X38246951Y-52533601D01*
X38207062Y-52548402D01*
X38038544Y-52645695D01*
X38008946Y-52669299D01*
X37876594Y-52811942D01*
X37855269Y-52843220D01*
X37770841Y-53018536D01*
X37759683Y-53054710D01*
X37730681Y-53247124D01*
X37729262Y-53266053D01*
X37729262Y-53537947D01*
X37731476Y-53561558D01*
X37776601Y-53800049D01*
X37791402Y-53839938D01*
X37888695Y-54008456D01*
X37912299Y-54038054D01*
X38054942Y-54170406D01*
X38086220Y-54191731D01*
X38261536Y-54276159D01*
X38297710Y-54287317D01*
X38490124Y-54316319D01*
X38509053Y-54317738D01*
X39680947Y-54317738D01*
X39704558Y-54315524D01*
X39943049Y-54270399D01*
X39982938Y-54255598D01*
X40052008Y-54215720D01*
X40054672Y-54218384D01*
X40080975Y-54238566D01*
X40288025Y-54358106D01*
X40318655Y-54370794D01*
X40549590Y-54432673D01*
X40582460Y-54437000D01*
X40821540Y-54437000D01*
X40854410Y-54432673D01*
X41085345Y-54370794D01*
X41115975Y-54358106D01*
X41323025Y-54238566D01*
X41349328Y-54218384D01*
X41518384Y-54049328D01*
X41538566Y-54023025D01*
X41591000Y-53932206D01*
X41591000Y-57443794D01*
X41538566Y-57352975D01*
X41518384Y-57326672D01*
X41349328Y-57157616D01*
X41323025Y-57137434D01*
X41115975Y-57017894D01*
X41085345Y-57005206D01*
X40854410Y-56943327D01*
X40821540Y-56939000D01*
X40582460Y-56939000D01*
X40549590Y-56943327D01*
X40318655Y-57005206D01*
X40288025Y-57017894D01*
X40080975Y-57137434D01*
X40054672Y-57157616D01*
X39966925Y-57245363D01*
X39928464Y-57226841D01*
X39892290Y-57215683D01*
X39699876Y-57186681D01*
X39680947Y-57185262D01*
X38509053Y-57185262D01*
X38485442Y-57187476D01*
X38246951Y-57232601D01*
X38207062Y-57247402D01*
X38038544Y-57344695D01*
X38008946Y-57368299D01*
X37876594Y-57510942D01*
X37855269Y-57542220D01*
X37770841Y-57717536D01*
X37759683Y-57753710D01*
X37730681Y-57946124D01*
X37729262Y-57965053D01*
X37729262Y-58236947D01*
X37731476Y-58260558D01*
X37776601Y-58499049D01*
X37791402Y-58538938D01*
X37888695Y-58707456D01*
X37912299Y-58737054D01*
X38054942Y-58869406D01*
X38086220Y-58890731D01*
X38261536Y-58975159D01*
X38297710Y-58986317D01*
X38490124Y-59015319D01*
X38509053Y-59016738D01*
X39680947Y-59016738D01*
X39704558Y-59014524D01*
X39943049Y-58969399D01*
X39982938Y-58954598D01*
X40145056Y-58861000D01*
X40168330Y-58861000D01*
X40288025Y-58930106D01*
X40318655Y-58942794D01*
X40549590Y-59004673D01*
X40582460Y-59009000D01*
X40821540Y-59009000D01*
X40854410Y-59004673D01*
X41085345Y-58942794D01*
X41115975Y-58930106D01*
X41323025Y-58810566D01*
X41349328Y-58790384D01*
X41518384Y-58621328D01*
X41538566Y-58595025D01*
X41591000Y-58504206D01*
X41591000Y-63435000D01*
X27309453Y-63435000D01*
X27305861Y-63434207D01*
X27287211Y-63431520D01*
X27280956Y-63431089D01*
X27280201Y-63431040D01*
X27002050Y-63413540D01*
X26767866Y-63368867D01*
X26541114Y-63295191D01*
X26325386Y-63193677D01*
X26124082Y-63065926D01*
X25940379Y-62913952D01*
X25777170Y-62740153D01*
X25637035Y-62547274D01*
X25522173Y-62338338D01*
X25434409Y-62116675D01*
X25375118Y-61885750D01*
X25343972Y-61639197D01*
X25339908Y-61509891D01*
X25338061Y-61491935D01*
X25335000Y-61474486D01*
X25335000Y-46202000D01*
X28287163Y-46202000D01*
X28287163Y-46798000D01*
X28307324Y-46866661D01*
X28361405Y-46913523D01*
X28414163Y-46925000D01*
X29526000Y-46925000D01*
X29594661Y-46904839D01*
X29641523Y-46850758D01*
X29653000Y-46798000D01*
X29653000Y-45686163D01*
X29907000Y-45686163D01*
X29907000Y-46798000D01*
X29927161Y-46866661D01*
X29981242Y-46913523D01*
X30034000Y-46925000D01*
X31145837Y-46925000D01*
X31214498Y-46904839D01*
X31261360Y-46850758D01*
X31272837Y-46798000D01*
X31272837Y-46202000D01*
X31268510Y-46169130D01*
X31199401Y-45911212D01*
X31174016Y-45862448D01*
X31058862Y-45725212D01*
X31025074Y-45696861D01*
X30869927Y-45607287D01*
X30828480Y-45592201D01*
X30652053Y-45561092D01*
X30630000Y-45559163D01*
X30034000Y-45559163D01*
X29965339Y-45579324D01*
X29918477Y-45633405D01*
X29907000Y-45686163D01*
X29653000Y-45686163D01*
X29632839Y-45617502D01*
X29578758Y-45570640D01*
X29526000Y-45559163D01*
X28930000Y-45559163D01*
X28897130Y-45563490D01*
X28639212Y-45632599D01*
X28590448Y-45657984D01*
X28453212Y-45773138D01*
X28424861Y-45806926D01*
X28335287Y-45962073D01*
X28320201Y-46003520D01*
X28289092Y-46179947D01*
X28287163Y-46202000D01*
X25335000Y-46202000D01*
X25335000Y-45089453D01*
X25335793Y-45085861D01*
X25338480Y-45067211D01*
X25338911Y-45060956D01*
X25338960Y-45060201D01*
X25344158Y-44977571D01*
X32074776Y-44977571D01*
X32074776Y-45183500D01*
X32094937Y-45252161D01*
X32149018Y-45299023D01*
X32201776Y-45310500D01*
X33336000Y-45310500D01*
X33404661Y-45290339D01*
X33451523Y-45236258D01*
X33463000Y-45183500D01*
X33463000Y-44211776D01*
X33442839Y-44143115D01*
X33388758Y-44096253D01*
X33336000Y-44084776D01*
X32967571Y-44084776D01*
X32940575Y-44087678D01*
X32622452Y-44156881D01*
X32580786Y-44174140D01*
X32397420Y-44291983D01*
X32370102Y-44315655D01*
X32227363Y-44480384D01*
X32207820Y-44510793D01*
X32117273Y-44709064D01*
X32107089Y-44743748D01*
X32076069Y-44959497D01*
X32074776Y-44977571D01*
X25344158Y-44977571D01*
X25356460Y-44782050D01*
X25401133Y-44547866D01*
X25474809Y-44321113D01*
X25576319Y-44105394D01*
X25704073Y-43904084D01*
X25856048Y-43720378D01*
X26029850Y-43557167D01*
X26222718Y-43417042D01*
X26431656Y-43302175D01*
X26653329Y-43214409D01*
X26884252Y-43155118D01*
X27130802Y-43123972D01*
X27260110Y-43119908D01*
X27278066Y-43118061D01*
X27295515Y-43115000D01*
X37527000Y-43115000D01*
X37527000Y-44545879D01*
X37527000Y-44545879D01*
G37*
X37527000Y-44545879D02*
X37438017Y-44407420D01*
X37414345Y-44380102D01*
X37249616Y-44237363D01*
X37219207Y-44217820D01*
X37020936Y-44127273D01*
X36986252Y-44117089D01*
X36770503Y-44086069D01*
X36752429Y-44084776D01*
X36384000Y-44084776D01*
X36315339Y-44104937D01*
X36268477Y-44159018D01*
X36257000Y-44211776D01*
X36257000Y-45564500D01*
X36003000Y-45564500D01*
X36003000Y-44211776D01*
X35982839Y-44143115D01*
X35928758Y-44096253D01*
X35876000Y-44084776D01*
X35507571Y-44084776D01*
X35480575Y-44087678D01*
X35162452Y-44156881D01*
X35120786Y-44174140D01*
X34937420Y-44291983D01*
X34910102Y-44315655D01*
X34862872Y-44370161D01*
X34709616Y-44237363D01*
X34679207Y-44217820D01*
X34480936Y-44127273D01*
X34446252Y-44117089D01*
X34230503Y-44086069D01*
X34212429Y-44084776D01*
X33844000Y-44084776D01*
X33775339Y-44104937D01*
X33728477Y-44159018D01*
X33717000Y-44211776D01*
X33717000Y-45564500D01*
X32201776Y-45564500D01*
X32133115Y-45584661D01*
X32086253Y-45638742D01*
X32074776Y-45691500D01*
X32074776Y-45897429D01*
X32077678Y-45924425D01*
X32107459Y-46061326D01*
X30989786Y-47179000D01*
X28414163Y-47179000D01*
X28345502Y-47199161D01*
X28298640Y-47253242D01*
X28287163Y-47306000D01*
X28287163Y-47902000D01*
X28291490Y-47934870D01*
X28360599Y-48192789D01*
X28385984Y-48241553D01*
X28501138Y-48378788D01*
X28534926Y-48407139D01*
X28690073Y-48496713D01*
X28731520Y-48511799D01*
X28756325Y-48516173D01*
X28671580Y-48597016D01*
X28657350Y-48613099D01*
X28519782Y-48797997D01*
X28508466Y-48816249D01*
X28404018Y-49021683D01*
X28395938Y-49041580D01*
X28327597Y-49261674D01*
X28322986Y-49282648D01*
X28292705Y-49511111D01*
X28291693Y-49532563D01*
X28300339Y-49762862D01*
X28302957Y-49784176D01*
X28350282Y-50009725D01*
X28356453Y-50030295D01*
X28441104Y-50244646D01*
X28450652Y-50263881D01*
X28570209Y-50460905D01*
X28582862Y-50478257D01*
X28733906Y-50652320D01*
X28749302Y-50667292D01*
X28927515Y-50813417D01*
X28945213Y-50825580D01*
X29008164Y-50861414D01*
X28855070Y-50964483D01*
X28838334Y-50977940D01*
X28671580Y-51137016D01*
X28657350Y-51153099D01*
X28519782Y-51337997D01*
X28508466Y-51356249D01*
X28404018Y-51561683D01*
X28395938Y-51581580D01*
X28327597Y-51801674D01*
X28322986Y-51822648D01*
X28292705Y-52051111D01*
X28291693Y-52072563D01*
X28300339Y-52302862D01*
X28302957Y-52324176D01*
X28350282Y-52549725D01*
X28356453Y-52570295D01*
X28441104Y-52784646D01*
X28450652Y-52803881D01*
X28570209Y-53000905D01*
X28582862Y-53018257D01*
X28733906Y-53192320D01*
X28749302Y-53207292D01*
X28927515Y-53353417D01*
X28945213Y-53365580D01*
X29008164Y-53401414D01*
X28855070Y-53504483D01*
X28838334Y-53517940D01*
X28671580Y-53677016D01*
X28657350Y-53693099D01*
X28519782Y-53877997D01*
X28508466Y-53896249D01*
X28404018Y-54101683D01*
X28395938Y-54121580D01*
X28327597Y-54341674D01*
X28322986Y-54362648D01*
X28292705Y-54591111D01*
X28291693Y-54612563D01*
X28300339Y-54842862D01*
X28302957Y-54864176D01*
X28350282Y-55089725D01*
X28356453Y-55110295D01*
X28441104Y-55324646D01*
X28450652Y-55343881D01*
X28570209Y-55540905D01*
X28582862Y-55558257D01*
X28733906Y-55732320D01*
X28749302Y-55747292D01*
X28927515Y-55893417D01*
X28945213Y-55905580D01*
X29008164Y-55941414D01*
X28855070Y-56044483D01*
X28838334Y-56057940D01*
X28671580Y-56217016D01*
X28657350Y-56233099D01*
X28519782Y-56417997D01*
X28508466Y-56436249D01*
X28404018Y-56641683D01*
X28395938Y-56661580D01*
X28327597Y-56881674D01*
X28322986Y-56902648D01*
X28292705Y-57131111D01*
X28291693Y-57152563D01*
X28300339Y-57382862D01*
X28302957Y-57404176D01*
X28350282Y-57629725D01*
X28356453Y-57650295D01*
X28441104Y-57864646D01*
X28450652Y-57883881D01*
X28570209Y-58080905D01*
X28582862Y-58098257D01*
X28733906Y-58272320D01*
X28749302Y-58287292D01*
X28927515Y-58433417D01*
X28945213Y-58445580D01*
X29008164Y-58481414D01*
X28855070Y-58584483D01*
X28838334Y-58597940D01*
X28671580Y-58757016D01*
X28657350Y-58773099D01*
X28519782Y-58957997D01*
X28508466Y-58976249D01*
X28404018Y-59181683D01*
X28395938Y-59201580D01*
X28327597Y-59421674D01*
X28322986Y-59442648D01*
X28292705Y-59671111D01*
X28291693Y-59692563D01*
X28300339Y-59922862D01*
X28302957Y-59944176D01*
X28350282Y-60169725D01*
X28356453Y-60190295D01*
X28441104Y-60404646D01*
X28450652Y-60423881D01*
X28570209Y-60620905D01*
X28582862Y-60638257D01*
X28733906Y-60812320D01*
X28749302Y-60827292D01*
X28927515Y-60973417D01*
X28945213Y-60985580D01*
X29145498Y-61099589D01*
X29164993Y-61108597D01*
X29381624Y-61187230D01*
X29408269Y-61193750D01*
X29726275Y-61235899D01*
X29742962Y-61237000D01*
X29837854Y-61237000D01*
X29848592Y-61236545D01*
X30020374Y-61221969D01*
X30041541Y-61218351D01*
X30264610Y-61160454D01*
X30284866Y-61153321D01*
X30494992Y-61058666D01*
X30513757Y-61048222D01*
X30704930Y-60919517D01*
X30721666Y-60906060D01*
X30888420Y-60746984D01*
X30902650Y-60730901D01*
X31040218Y-60546003D01*
X31051534Y-60527751D01*
X31059542Y-60512000D01*
X31099816Y-60512000D01*
X31099828Y-60511999D01*
X31150257Y-60511999D01*
X31189502Y-60505783D01*
X31227963Y-60493286D01*
X31267913Y-60486959D01*
X31305704Y-60474680D01*
X31341744Y-60456316D01*
X31380202Y-60443821D01*
X31415607Y-60425782D01*
X31448325Y-60402011D01*
X31484364Y-60383648D01*
X31516509Y-60360294D01*
X31658294Y-60218509D01*
X31658295Y-60218507D01*
X35327579Y-56549224D01*
X35681058Y-56549224D01*
X35708054Y-56546322D01*
X36020930Y-56478260D01*
X36062595Y-56461001D01*
X36242938Y-56345102D01*
X36270257Y-56321430D01*
X36275068Y-56315878D01*
X36370583Y-56398642D01*
X36400993Y-56418185D01*
X36595994Y-56507238D01*
X36630677Y-56517422D01*
X36842868Y-56547931D01*
X36860942Y-56549224D01*
X37431058Y-56549224D01*
X37458054Y-56546322D01*
X37770930Y-56478260D01*
X37812595Y-56461001D01*
X37992938Y-56345102D01*
X38020257Y-56321430D01*
X38031884Y-56308012D01*
X38054941Y-56329406D01*
X38086220Y-56350731D01*
X38261536Y-56435159D01*
X38297710Y-56446317D01*
X38490124Y-56475319D01*
X38509053Y-56476738D01*
X39680947Y-56476738D01*
X39704558Y-56474524D01*
X39943049Y-56429399D01*
X39982938Y-56414598D01*
X40151456Y-56317305D01*
X40181054Y-56293701D01*
X40313406Y-56151058D01*
X40334731Y-56119780D01*
X40419159Y-55944464D01*
X40430317Y-55908290D01*
X40459319Y-55715876D01*
X40460738Y-55696947D01*
X40460738Y-55425053D01*
X40458524Y-55401442D01*
X40413399Y-55162951D01*
X40398598Y-55123062D01*
X40301305Y-54954544D01*
X40277701Y-54924946D01*
X40135058Y-54792594D01*
X40103780Y-54771269D01*
X39928464Y-54686841D01*
X39892290Y-54675683D01*
X39699876Y-54646681D01*
X39680947Y-54645262D01*
X38509053Y-54645262D01*
X38485442Y-54647476D01*
X38345259Y-54674000D01*
X38130841Y-54674000D01*
X38107102Y-54637061D01*
X38083430Y-54609743D01*
X37921417Y-54469358D01*
X37891007Y-54449815D01*
X37696006Y-54360762D01*
X37661323Y-54350578D01*
X37449132Y-54320069D01*
X37431058Y-54318776D01*
X36860942Y-54318776D01*
X36833946Y-54321678D01*
X36521070Y-54389740D01*
X36479405Y-54406999D01*
X36299062Y-54522898D01*
X36271743Y-54546570D01*
X36266932Y-54552122D01*
X36171417Y-54469358D01*
X36141007Y-54449815D01*
X35946006Y-54360762D01*
X35911323Y-54350578D01*
X35699132Y-54320069D01*
X35681058Y-54318776D01*
X35110942Y-54318776D01*
X35083946Y-54321678D01*
X34771070Y-54389740D01*
X34729405Y-54406999D01*
X34549062Y-54522898D01*
X34521743Y-54546570D01*
X34381358Y-54708583D01*
X34361815Y-54738993D01*
X34272762Y-54933994D01*
X34262578Y-54968677D01*
X34232069Y-55180868D01*
X34230776Y-55198942D01*
X34230776Y-55496421D01*
X30923392Y-58803806D01*
X30826094Y-58691680D01*
X30810698Y-58676708D01*
X30632485Y-58530583D01*
X30614787Y-58518420D01*
X30551836Y-58482586D01*
X30704930Y-58379517D01*
X30721666Y-58366060D01*
X30888420Y-58206984D01*
X30902650Y-58190901D01*
X31040218Y-58006003D01*
X31051534Y-57987751D01*
X31155982Y-57782317D01*
X31164062Y-57762420D01*
X31232403Y-57542326D01*
X31237014Y-57521352D01*
X31267295Y-57292889D01*
X31268307Y-57271437D01*
X31259661Y-57041138D01*
X31257043Y-57019824D01*
X31220611Y-56846192D01*
X31238293Y-56828510D01*
X31261648Y-56796364D01*
X31280010Y-56760327D01*
X31303781Y-56727609D01*
X31321820Y-56692204D01*
X31334316Y-56653743D01*
X31352679Y-56617705D01*
X31364958Y-56579914D01*
X31371286Y-56539964D01*
X31383782Y-56501503D01*
X31389998Y-56462259D01*
X31389998Y-56411829D01*
X31389999Y-56411817D01*
X31389999Y-56041803D01*
X35454579Y-51977224D01*
X35681058Y-51977224D01*
X35708054Y-51974322D01*
X36020930Y-51906260D01*
X36062595Y-51889001D01*
X36242938Y-51773102D01*
X36270257Y-51749430D01*
X36275068Y-51743878D01*
X36370583Y-51826642D01*
X36400993Y-51846185D01*
X36595994Y-51935238D01*
X36630677Y-51945422D01*
X36842868Y-51975931D01*
X36860942Y-51977224D01*
X37431058Y-51977224D01*
X37458054Y-51974322D01*
X37770930Y-51906260D01*
X37812595Y-51889001D01*
X37992938Y-51773102D01*
X38020257Y-51749430D01*
X38099410Y-51658083D01*
X38261536Y-51736159D01*
X38297710Y-51747317D01*
X38490124Y-51776319D01*
X38509053Y-51777738D01*
X39680947Y-51777738D01*
X39704558Y-51775524D01*
X39943049Y-51730399D01*
X39982938Y-51715598D01*
X40151456Y-51618305D01*
X40181054Y-51594701D01*
X40313406Y-51452058D01*
X40334731Y-51420780D01*
X40419159Y-51245464D01*
X40430317Y-51209290D01*
X40459319Y-51016876D01*
X40460738Y-50997947D01*
X40460738Y-50989000D01*
X41591000Y-50989000D01*
X41591000Y-52871794D01*
X41538566Y-52780975D01*
X41518384Y-52754672D01*
X41349328Y-52585616D01*
X41323025Y-52565434D01*
X41115975Y-52445894D01*
X41085345Y-52433206D01*
X40854410Y-52371327D01*
X40821540Y-52367000D01*
X40582460Y-52367000D01*
X40549590Y-52371327D01*
X40318655Y-52433206D01*
X40288025Y-52445894D01*
X40080975Y-52565434D01*
X40054672Y-52585616D01*
X40052645Y-52587643D01*
X39928464Y-52527841D01*
X39892290Y-52516683D01*
X39699876Y-52487681D01*
X39680947Y-52486262D01*
X38509053Y-52486262D01*
X38485442Y-52488476D01*
X38246951Y-52533601D01*
X38207062Y-52548402D01*
X38038544Y-52645695D01*
X38008946Y-52669299D01*
X37876594Y-52811942D01*
X37855269Y-52843220D01*
X37770841Y-53018536D01*
X37759683Y-53054710D01*
X37730681Y-53247124D01*
X37729262Y-53266053D01*
X37729262Y-53537947D01*
X37731476Y-53561558D01*
X37776601Y-53800049D01*
X37791402Y-53839938D01*
X37888695Y-54008456D01*
X37912299Y-54038054D01*
X38054942Y-54170406D01*
X38086220Y-54191731D01*
X38261536Y-54276159D01*
X38297710Y-54287317D01*
X38490124Y-54316319D01*
X38509053Y-54317738D01*
X39680947Y-54317738D01*
X39704558Y-54315524D01*
X39943049Y-54270399D01*
X39982938Y-54255598D01*
X40052008Y-54215720D01*
X40054672Y-54218384D01*
X40080975Y-54238566D01*
X40288025Y-54358106D01*
X40318655Y-54370794D01*
X40549590Y-54432673D01*
X40582460Y-54437000D01*
X40821540Y-54437000D01*
X40854410Y-54432673D01*
X41085345Y-54370794D01*
X41115975Y-54358106D01*
X41323025Y-54238566D01*
X41349328Y-54218384D01*
X41518384Y-54049328D01*
X41538566Y-54023025D01*
X41591000Y-53932206D01*
X41591000Y-57443794D01*
X41538566Y-57352975D01*
X41518384Y-57326672D01*
X41349328Y-57157616D01*
X41323025Y-57137434D01*
X41115975Y-57017894D01*
X41085345Y-57005206D01*
X40854410Y-56943327D01*
X40821540Y-56939000D01*
X40582460Y-56939000D01*
X40549590Y-56943327D01*
X40318655Y-57005206D01*
X40288025Y-57017894D01*
X40080975Y-57137434D01*
X40054672Y-57157616D01*
X39966925Y-57245363D01*
X39928464Y-57226841D01*
X39892290Y-57215683D01*
X39699876Y-57186681D01*
X39680947Y-57185262D01*
X38509053Y-57185262D01*
X38485442Y-57187476D01*
X38246951Y-57232601D01*
X38207062Y-57247402D01*
X38038544Y-57344695D01*
X38008946Y-57368299D01*
X37876594Y-57510942D01*
X37855269Y-57542220D01*
X37770841Y-57717536D01*
X37759683Y-57753710D01*
X37730681Y-57946124D01*
X37729262Y-57965053D01*
X37729262Y-58236947D01*
X37731476Y-58260558D01*
X37776601Y-58499049D01*
X37791402Y-58538938D01*
X37888695Y-58707456D01*
X37912299Y-58737054D01*
X38054942Y-58869406D01*
X38086220Y-58890731D01*
X38261536Y-58975159D01*
X38297710Y-58986317D01*
X38490124Y-59015319D01*
X38509053Y-59016738D01*
X39680947Y-59016738D01*
X39704558Y-59014524D01*
X39943049Y-58969399D01*
X39982938Y-58954598D01*
X40145056Y-58861000D01*
X40168330Y-58861000D01*
X40288025Y-58930106D01*
X40318655Y-58942794D01*
X40549590Y-59004673D01*
X40582460Y-59009000D01*
X40821540Y-59009000D01*
X40854410Y-59004673D01*
X41085345Y-58942794D01*
X41115975Y-58930106D01*
X41323025Y-58810566D01*
X41349328Y-58790384D01*
X41518384Y-58621328D01*
X41538566Y-58595025D01*
X41591000Y-58504206D01*
X41591000Y-63435000D01*
X27309453Y-63435000D01*
X27305861Y-63434207D01*
X27287211Y-63431520D01*
X27280956Y-63431089D01*
X27280201Y-63431040D01*
X27002050Y-63413540D01*
X26767866Y-63368867D01*
X26541114Y-63295191D01*
X26325386Y-63193677D01*
X26124082Y-63065926D01*
X25940379Y-62913952D01*
X25777170Y-62740153D01*
X25637035Y-62547274D01*
X25522173Y-62338338D01*
X25434409Y-62116675D01*
X25375118Y-61885750D01*
X25343972Y-61639197D01*
X25339908Y-61509891D01*
X25338061Y-61491935D01*
X25335000Y-61474486D01*
X25335000Y-46202000D01*
X28287163Y-46202000D01*
X28287163Y-46798000D01*
X28307324Y-46866661D01*
X28361405Y-46913523D01*
X28414163Y-46925000D01*
X29526000Y-46925000D01*
X29594661Y-46904839D01*
X29641523Y-46850758D01*
X29653000Y-46798000D01*
X29653000Y-45686163D01*
X29907000Y-45686163D01*
X29907000Y-46798000D01*
X29927161Y-46866661D01*
X29981242Y-46913523D01*
X30034000Y-46925000D01*
X31145837Y-46925000D01*
X31214498Y-46904839D01*
X31261360Y-46850758D01*
X31272837Y-46798000D01*
X31272837Y-46202000D01*
X31268510Y-46169130D01*
X31199401Y-45911212D01*
X31174016Y-45862448D01*
X31058862Y-45725212D01*
X31025074Y-45696861D01*
X30869927Y-45607287D01*
X30828480Y-45592201D01*
X30652053Y-45561092D01*
X30630000Y-45559163D01*
X30034000Y-45559163D01*
X29965339Y-45579324D01*
X29918477Y-45633405D01*
X29907000Y-45686163D01*
X29653000Y-45686163D01*
X29632839Y-45617502D01*
X29578758Y-45570640D01*
X29526000Y-45559163D01*
X28930000Y-45559163D01*
X28897130Y-45563490D01*
X28639212Y-45632599D01*
X28590448Y-45657984D01*
X28453212Y-45773138D01*
X28424861Y-45806926D01*
X28335287Y-45962073D01*
X28320201Y-46003520D01*
X28289092Y-46179947D01*
X28287163Y-46202000D01*
X25335000Y-46202000D01*
X25335000Y-45089453D01*
X25335793Y-45085861D01*
X25338480Y-45067211D01*
X25338911Y-45060956D01*
X25338960Y-45060201D01*
X25344158Y-44977571D01*
X32074776Y-44977571D01*
X32074776Y-45183500D01*
X32094937Y-45252161D01*
X32149018Y-45299023D01*
X32201776Y-45310500D01*
X33336000Y-45310500D01*
X33404661Y-45290339D01*
X33451523Y-45236258D01*
X33463000Y-45183500D01*
X33463000Y-44211776D01*
X33442839Y-44143115D01*
X33388758Y-44096253D01*
X33336000Y-44084776D01*
X32967571Y-44084776D01*
X32940575Y-44087678D01*
X32622452Y-44156881D01*
X32580786Y-44174140D01*
X32397420Y-44291983D01*
X32370102Y-44315655D01*
X32227363Y-44480384D01*
X32207820Y-44510793D01*
X32117273Y-44709064D01*
X32107089Y-44743748D01*
X32076069Y-44959497D01*
X32074776Y-44977571D01*
X25344158Y-44977571D01*
X25356460Y-44782050D01*
X25401133Y-44547866D01*
X25474809Y-44321113D01*
X25576319Y-44105394D01*
X25704073Y-43904084D01*
X25856048Y-43720378D01*
X26029850Y-43557167D01*
X26222718Y-43417042D01*
X26431656Y-43302175D01*
X26653329Y-43214409D01*
X26884252Y-43155118D01*
X27130802Y-43123972D01*
X27260110Y-43119908D01*
X27278066Y-43118061D01*
X27295515Y-43115000D01*
X37527000Y-43115000D01*
X37527000Y-44545879D01*
M02*
