G04 #@! TF.GenerationSoftware,KiCad,Pcbnew,(5.1.0-1220-ga833aeeac)*
G04 #@! TF.CreationDate,2019-07-18T01:02:23+03:00*
G04 #@! TF.ProjectId,proto_II_rs485,70726f74-6f5f-4494-995f-72733438352e,rev?*
G04 #@! TF.SameCoordinates,Original*
G04 #@! TF.FileFunction,Legend,Bot*
G04 #@! TF.FilePolarity,Positive*
%FSLAX46Y46*%
G04 Gerber Fmt 4.6, Leading zero omitted, Abs format (unit mm)*
G04 Created by KiCad (PCBNEW (5.1.0-1220-ga833aeeac)) date 2019-07-18 01:02:23*
%MOMM*%
%LPD*%
G04 APERTURE LIST*
%ADD10C,0.100000*%
%ADD11C,0.150000*%
G04 APERTURE END LIST*
D10*
X52306636Y-59165420D02*
X52357364Y-59114620D01*
X52255855Y-59216140D02*
X52306636Y-59165420D01*
X55363720Y-60638230D02*
X55376620Y-60613550D01*
X55343800Y-60657710D02*
X55363720Y-60638230D01*
X51524246Y-61803487D02*
X51511551Y-61827901D01*
X51538678Y-61787752D02*
X51524246Y-61803487D01*
X53901090Y-61096401D02*
X55318190Y-60670240D01*
X53900060Y-61096672D02*
X53901090Y-61096401D01*
X52741750Y-59750970D02*
X52716630Y-59776080D01*
X52826930Y-59685370D02*
X52741750Y-59750970D01*
X55550450Y-58301490D02*
X55527120Y-58314870D01*
X56306310Y-58870280D02*
X56306310Y-60854810D01*
X56306310Y-58846940D02*
X56306310Y-58870280D01*
X56102150Y-58486810D02*
X56170620Y-58543350D01*
X56023590Y-58444110D02*
X56102150Y-58486810D01*
X52712070Y-61487569D02*
X52867940Y-61516161D01*
X52563090Y-61441344D02*
X52712070Y-61487569D01*
X56363870Y-58497820D02*
X56348040Y-58477530D01*
X52919320Y-60093960D02*
X52860080Y-60190470D01*
X52935810Y-60077530D02*
X52919320Y-60093960D01*
X53201010Y-59741420D02*
X53227860Y-59741420D01*
X53120500Y-59751890D02*
X53201010Y-59741420D01*
X55528690Y-57172460D02*
X55556040Y-57212990D01*
X55488120Y-57145070D02*
X55528690Y-57172460D01*
X53045840Y-60408250D02*
X53020230Y-60370330D01*
X53083760Y-60433860D02*
X53045840Y-60408250D01*
X55203010Y-60519960D02*
X54020400Y-60875590D01*
X55201380Y-60474110D02*
X55203010Y-60519960D01*
X52410640Y-61388447D02*
X52411671Y-61387688D01*
X51874182Y-61767516D02*
X52410640Y-61388447D01*
X55843750Y-58230680D02*
X55802130Y-58230680D01*
X53525720Y-58746740D02*
X53706910Y-58773650D01*
X53385950Y-58737620D02*
X53525720Y-58746740D01*
X54755480Y-59384370D02*
X54863270Y-59521470D01*
X54635410Y-59258030D02*
X54755480Y-59384370D01*
X56229870Y-56958000D02*
X56141050Y-56981930D01*
X56447430Y-58659070D02*
X56404880Y-58563850D01*
X55327300Y-57547030D02*
X55350040Y-57553970D01*
X55263560Y-57511650D02*
X55327300Y-57547030D01*
X55348470Y-57352690D02*
X55321070Y-57312110D01*
X55389000Y-57380040D02*
X55348470Y-57352690D01*
X56483400Y-58843100D02*
X56474120Y-58761710D01*
X53218750Y-60523210D02*
X53211750Y-60497330D01*
X53218750Y-60531830D02*
X53218750Y-60523210D01*
X52952260Y-60061030D02*
X52935810Y-60077530D01*
X53048770Y-60001780D02*
X52952260Y-60061030D01*
X56474120Y-58761710D02*
X56447430Y-58659070D01*
X56348040Y-58477530D02*
X56348040Y-57553970D01*
X56404880Y-58563850D02*
X56363870Y-58497820D01*
X51741369Y-60520820D02*
X51789166Y-60672030D01*
X51711855Y-60362400D02*
X51741369Y-60520820D01*
X53418510Y-60419750D02*
X53393500Y-60512360D01*
X53418510Y-60388870D02*
X53418510Y-60419750D01*
X53192760Y-60469240D02*
X53164650Y-60450240D01*
X53211750Y-60497330D02*
X53192760Y-60469240D01*
X55843750Y-58407760D02*
X55867020Y-58407760D01*
X55820410Y-58407760D02*
X55843750Y-58407760D01*
X55892040Y-61613816D02*
X55711480Y-61699048D01*
X56008790Y-61528584D02*
X55892040Y-61613816D01*
X53725800Y-59948011D02*
X53811900Y-60052290D01*
X53621520Y-59861920D02*
X53725800Y-59948011D01*
X53570690Y-59633720D02*
X53405330Y-59582240D01*
X53720430Y-59715110D02*
X53570690Y-59633720D01*
X52216250Y-61011440D02*
X52075625Y-60841080D01*
X52386605Y-61152065D02*
X52216250Y-61011440D01*
X55390620Y-58777120D02*
X55417580Y-58690370D01*
X55381230Y-58846940D02*
X55390620Y-58777120D01*
X56301970Y-60919210D02*
X56292040Y-60989300D01*
X56305720Y-60872500D02*
X56301970Y-60919210D01*
X53125810Y-60883510D02*
X53200520Y-60873420D01*
X53100970Y-60883510D02*
X53125810Y-60883510D01*
X55426160Y-57135080D02*
X55438580Y-57135080D01*
X55389000Y-57145070D02*
X55426160Y-57135080D01*
X55324930Y-60668230D02*
X55343800Y-60657710D01*
X55318190Y-60670240D02*
X55324930Y-60668230D01*
X55381230Y-58870280D02*
X55381230Y-58846940D01*
X55381230Y-60585440D02*
X55381230Y-58870280D01*
X52822800Y-59920240D02*
X52841790Y-59901301D01*
X52773270Y-59984580D02*
X52822800Y-59920240D01*
X55195150Y-57445420D02*
X55263560Y-57511650D01*
X55150180Y-57360610D02*
X55195150Y-57445420D01*
X53342930Y-60007970D02*
X53265340Y-59983871D01*
X53413130Y-60046170D02*
X53342930Y-60007970D01*
X53052900Y-60210820D02*
X53061040Y-60202740D01*
X53023760Y-60258290D02*
X53052900Y-60210820D01*
X55350040Y-58464080D02*
X55333010Y-58484750D01*
X55350040Y-57553970D02*
X55350040Y-58464080D01*
X55677299Y-58252710D02*
X55550450Y-58301490D01*
X55331320Y-61944654D02*
X55537539Y-61924092D01*
X55262630Y-61944654D02*
X55331320Y-61944654D01*
X55780870Y-61862623D02*
X55991800Y-61760517D01*
X55537539Y-61924092D02*
X55780870Y-61862623D01*
X51595481Y-61944654D02*
X55262630Y-61944654D01*
X51588482Y-61944654D02*
X51595481Y-61944654D01*
X51701764Y-60117610D02*
X51701764Y-60198120D01*
X51733178Y-59876140D02*
X51701764Y-60117610D01*
X56483400Y-60858390D02*
X56483340Y-60854110D01*
X56482800Y-60878840D02*
X56483400Y-60858390D01*
X56209900Y-57380040D02*
X56169370Y-57352690D01*
X56247070Y-57390070D02*
X56209900Y-57380040D01*
X56142040Y-57312110D02*
X56132050Y-57274940D01*
X56169370Y-57352690D02*
X56142040Y-57312110D01*
X52124507Y-59097110D02*
X51975961Y-59290080D01*
X52181419Y-59040190D02*
X52124507Y-59097110D01*
X53138770Y-60620380D02*
X53164650Y-60613380D01*
X53130200Y-60620380D02*
X53138770Y-60620380D01*
X54503950Y-59143170D02*
X54635410Y-59258030D01*
X54361980Y-59040850D02*
X54503950Y-59143170D01*
X51878847Y-60198120D02*
X51878847Y-60126290D01*
X55311080Y-57262580D02*
X55311080Y-57262580D01*
X56272840Y-61077195D02*
X56241320Y-61177238D01*
X56292040Y-60989300D02*
X56272840Y-61077195D01*
X55566080Y-57274940D02*
X55556040Y-57312110D01*
X55566080Y-57262580D02*
X55566080Y-57274940D01*
X52029618Y-61070848D02*
X52138179Y-61181416D01*
X51934458Y-60948290D02*
X52029618Y-61070848D01*
X54467290Y-58899350D02*
X54296500Y-58797740D01*
X54628580Y-59018000D02*
X54467290Y-58899350D01*
X56141050Y-56981930D02*
X56044220Y-57047300D01*
X56227150Y-58611810D02*
X56269860Y-58690370D01*
X56170620Y-58543350D02*
X56227150Y-58611810D01*
X56478620Y-60936030D02*
X56482800Y-60878840D01*
X56467070Y-61019633D02*
X56478620Y-60936030D01*
X55954970Y-57287040D02*
X55971130Y-57360610D01*
X56377930Y-56981930D02*
X56289060Y-56958000D01*
X53079860Y-60706430D02*
X53016590Y-60697860D01*
X53100970Y-60706430D02*
X53079860Y-60706430D01*
X51878847Y-60256010D02*
X51878847Y-60198120D01*
X51902230Y-60429740D02*
X51878847Y-60256010D01*
X52456322Y-61396259D02*
X52563090Y-61441344D01*
X52422141Y-61378627D02*
X52456322Y-61396259D01*
X52951010Y-59618970D02*
X52826930Y-59685370D01*
X53085660Y-59578170D02*
X52951010Y-59618970D01*
X56306310Y-60859200D02*
X56305720Y-60872500D01*
X56306310Y-60854810D02*
X56306310Y-60859200D01*
X53667690Y-61084140D02*
X53534010Y-61194437D01*
X53778050Y-60950460D02*
X53667690Y-61084140D01*
X52804740Y-60583540D02*
X52753520Y-60521470D01*
X52866800Y-60634760D02*
X52804740Y-60583540D01*
X51506940Y-61855027D02*
X51509001Y-61876295D01*
X51511551Y-61827901D02*
X51506940Y-61855027D01*
X55681969Y-57445470D02*
X55726940Y-57360610D01*
X56129770Y-61658304D02*
X56169590Y-61618102D01*
X55991800Y-61760517D02*
X56129770Y-61658304D01*
X55311080Y-57250150D02*
X55321070Y-57212990D01*
X55311080Y-57262580D02*
X55311080Y-57250150D01*
X53852480Y-61147237D02*
X53889160Y-61099113D01*
X53720800Y-61275166D02*
X53852480Y-61147237D01*
X53202950Y-59975471D02*
X53182180Y-59975471D01*
X53265340Y-59983871D02*
X53202950Y-59975471D01*
X52937980Y-60673440D02*
X52866800Y-60634760D01*
X53016590Y-60697860D02*
X52937980Y-60673440D01*
X53380630Y-61277824D02*
X53211260Y-61330505D01*
X53534010Y-61194437D02*
X53380630Y-61277824D01*
X56309020Y-57380040D02*
X56271860Y-57390070D01*
X56349610Y-57352690D02*
X56309020Y-57380040D01*
X52582080Y-61258294D02*
X52386605Y-61152065D01*
X52797900Y-61325459D02*
X52582080Y-61258294D01*
X53932450Y-60410530D02*
X53932450Y-60446010D01*
X53918080Y-60304140D02*
X53932450Y-60410530D01*
X53070950Y-60883510D02*
X53100970Y-60883510D01*
X52980950Y-60871360D02*
X53070950Y-60883510D01*
X56066020Y-61471076D02*
X56042370Y-61494893D01*
X56129120Y-61391702D02*
X56066020Y-61471076D01*
X52227372Y-61256340D02*
X52258893Y-61278855D01*
X52138179Y-61181416D02*
X52227372Y-61256340D01*
X56386980Y-57262580D02*
X56386980Y-57274940D01*
X56386980Y-57250150D02*
X56386980Y-57262580D01*
X53148810Y-59975471D02*
X53048770Y-60001780D01*
X53182180Y-59975471D02*
X53148810Y-59975471D01*
X51544374Y-61783793D02*
X51538678Y-61787752D01*
X52258893Y-61278855D02*
X51544374Y-61783793D01*
X53595590Y-60413740D02*
X53595590Y-60388870D01*
X53585500Y-60488430D02*
X53595590Y-60413740D01*
X56132050Y-57262580D02*
X56132050Y-57250150D01*
X56483400Y-58870280D02*
X56483400Y-58870280D01*
X56502870Y-57445470D02*
X56547840Y-57360610D01*
X53192760Y-60594390D02*
X53211750Y-60566290D01*
X53164650Y-60613380D02*
X53192760Y-60594390D01*
X53850970Y-59822860D02*
X53720430Y-59715110D01*
X53958700Y-59953390D02*
X53850970Y-59822860D01*
X55450950Y-57390070D02*
X55438580Y-57390070D01*
X55488120Y-57380040D02*
X55450950Y-57390070D01*
X52869080Y-60836580D02*
X52980950Y-60871360D01*
X52767850Y-60781510D02*
X52869080Y-60836580D01*
X52559460Y-60010510D02*
X52518660Y-60145180D01*
X52625860Y-59886440D02*
X52559460Y-60010510D01*
X53450520Y-60738440D02*
X53510950Y-60665190D01*
X53377270Y-60798870D02*
X53450520Y-60738440D01*
X53501840Y-59796860D02*
X53621520Y-59861920D01*
X53369680Y-59755750D02*
X53501840Y-59796860D01*
X53101340Y-60620380D02*
X53130200Y-60620380D01*
X53014910Y-60597000D02*
X53101340Y-60620380D01*
X52681910Y-60260510D02*
X52692380Y-60180000D01*
X52681910Y-60287370D02*
X52681910Y-60260510D01*
X56296870Y-58777120D02*
X56306310Y-58846940D01*
X56269860Y-58690370D02*
X56296870Y-58777120D01*
X56444500Y-61123365D02*
X56467070Y-61019633D01*
X56407120Y-61241258D02*
X56444500Y-61123365D01*
X51969397Y-60645610D02*
X51902230Y-60429740D01*
X52075625Y-60841080D02*
X51969397Y-60645610D01*
X56376950Y-57212990D02*
X56386980Y-57250150D01*
X56349610Y-57172460D02*
X56376950Y-57212990D01*
X54210380Y-58951820D02*
X54361980Y-59040850D01*
X54050120Y-58877050D02*
X54210380Y-58951820D01*
X55288790Y-58552460D02*
X55242880Y-58650820D01*
X55333010Y-58484750D02*
X55288790Y-58552460D01*
X56370700Y-57547030D02*
X56434450Y-57511650D01*
X56259500Y-57135080D02*
X56271860Y-57135080D01*
X56247070Y-57135080D02*
X56259500Y-57135080D01*
X55134000Y-57232960D02*
X55134000Y-57262580D01*
X55157930Y-57144080D02*
X55134000Y-57232960D01*
X52971620Y-61348897D02*
X52797900Y-61325459D01*
X53029560Y-61348897D02*
X52971620Y-61348897D01*
X55426160Y-57390070D02*
X55389000Y-57380040D01*
X55438580Y-57390070D02*
X55426160Y-57390070D01*
X51825571Y-59571120D02*
X51733178Y-59876140D01*
X51975961Y-59290080D02*
X51825571Y-59571120D01*
X55468150Y-56958000D02*
X55438580Y-56958000D01*
X55557010Y-56981930D02*
X55468150Y-56958000D01*
X56309020Y-57145070D02*
X56349610Y-57172460D01*
X56271860Y-57135080D02*
X56309020Y-57145070D01*
X55743160Y-57232960D02*
X55719180Y-57144080D01*
X55743160Y-57287040D02*
X55743160Y-57262580D01*
X56146970Y-58306640D02*
X56016220Y-58254330D01*
X56170950Y-57553970D02*
X56170950Y-58320960D01*
X53882000Y-58817370D02*
X54050120Y-58877050D01*
X53706910Y-58773650D02*
X53882000Y-58817370D01*
X52723190Y-60078280D02*
X52773270Y-59984580D01*
X52692380Y-60180000D02*
X52723190Y-60078280D01*
X51523758Y-61908033D02*
X51543181Y-61927510D01*
X51513179Y-61889478D02*
X51523758Y-61908033D01*
X55954970Y-57232960D02*
X55954970Y-57262580D01*
X55408950Y-56958000D02*
X55320090Y-56981930D01*
X55438580Y-56958000D02*
X55408950Y-56958000D01*
X55613550Y-57511650D02*
X55681969Y-57445470D01*
X55527120Y-57553970D02*
X55549800Y-57547030D01*
X55743160Y-57262580D02*
X55743160Y-57232960D01*
X55802130Y-58230680D02*
X55677299Y-58252710D01*
X53563039Y-60228070D02*
X53524840Y-60157870D01*
X53587120Y-60305650D02*
X53563039Y-60228070D01*
X51906843Y-59910960D02*
X51989254Y-59638870D01*
X51878847Y-60126290D02*
X51906843Y-59910960D01*
X53272190Y-59564330D02*
X53227860Y-59564330D01*
X53405330Y-59582240D02*
X53272190Y-59564330D01*
X55204150Y-58870280D02*
X55204150Y-59761110D01*
X55204150Y-58842000D02*
X55204150Y-58870280D01*
X54957950Y-59668440D02*
X55038560Y-59824320D01*
X54863270Y-59521470D02*
X54957950Y-59668440D01*
X54109540Y-60501620D02*
X54109540Y-60446010D01*
X54086430Y-60668610D02*
X54109540Y-60501620D01*
X53595590Y-60368040D02*
X53587120Y-60305650D01*
X53595590Y-60388870D02*
X53595590Y-60368040D01*
X51701764Y-60239190D02*
X51711855Y-60362400D01*
X51701764Y-60198120D02*
X51701764Y-60239190D01*
X53418510Y-60365870D02*
X53418510Y-60388870D01*
X53399900Y-60296970D02*
X53418510Y-60365870D01*
X55381230Y-60592440D02*
X55381230Y-60585440D01*
X55376620Y-60613550D02*
X55381230Y-60592440D01*
X55936840Y-58417150D02*
X56023590Y-58444110D01*
X55867020Y-58407760D02*
X55936840Y-58417150D01*
X53218750Y-60540420D02*
X53218750Y-60531830D01*
X53211750Y-60566290D02*
X53218750Y-60540420D01*
X53093090Y-61525980D02*
X53283860Y-61495706D01*
X53029560Y-61525980D02*
X53093090Y-61525980D01*
X55223300Y-57047300D02*
X55157930Y-57144080D01*
X55320090Y-56981930D02*
X55223300Y-57047300D01*
X55104270Y-59988281D02*
X55154190Y-60159500D01*
X55038560Y-59824320D02*
X55104270Y-59988281D01*
X51853946Y-60814930D02*
X51934458Y-60948290D01*
X51789166Y-60672030D02*
X51853946Y-60814930D01*
X53258840Y-58560540D02*
X53017360Y-58591960D01*
X53339360Y-58560540D02*
X53258840Y-58560540D01*
X53192270Y-59564330D02*
X53085660Y-59578170D01*
X53227860Y-59564330D02*
X53192270Y-59564330D01*
X54743330Y-59117720D02*
X54628580Y-59018000D01*
X54779290Y-59153260D02*
X54743330Y-59117720D01*
X53389700Y-58560540D02*
X53339360Y-58560540D01*
X53540840Y-58570300D02*
X53389700Y-58560540D01*
X56564070Y-57232960D02*
X56540090Y-57144080D01*
X55450950Y-57135080D02*
X55488120Y-57145070D01*
X55438580Y-57135080D02*
X55450950Y-57135080D01*
X56564070Y-57287040D02*
X56564070Y-57262580D01*
X55528690Y-57352690D02*
X55488120Y-57380040D01*
X55556040Y-57312110D02*
X55528690Y-57352690D01*
X56289060Y-56958000D02*
X56259500Y-56958000D01*
X52504825Y-60251780D02*
X52504825Y-60287370D01*
X52518660Y-60145180D02*
X52504825Y-60251780D01*
X53932450Y-60491420D02*
X53914070Y-60627700D01*
X53932450Y-60446010D02*
X53932450Y-60491420D01*
X53138770Y-60443290D02*
X53130200Y-60443290D01*
X53164650Y-60450240D02*
X53138770Y-60443290D01*
X53349180Y-60221830D02*
X53399900Y-60296970D01*
X53274020Y-60171110D02*
X53349180Y-60221830D01*
X56547840Y-57360610D02*
X56564070Y-57287040D01*
X56259500Y-57390070D02*
X56247070Y-57390070D01*
X56271860Y-57390070D02*
X56259500Y-57390070D01*
X56197800Y-61589565D02*
X56273380Y-61494730D01*
X56169590Y-61618102D02*
X56197800Y-61589565D01*
X53118590Y-60443290D02*
X53083760Y-60433860D01*
X53130200Y-60443290D02*
X53118590Y-60443290D01*
X51511117Y-61882913D02*
X51513179Y-61889478D01*
X51509001Y-61876295D02*
X51511117Y-61882913D01*
X55585290Y-58486810D02*
X55663840Y-58444110D01*
X55516820Y-58543350D02*
X55585290Y-58486810D01*
X53556630Y-60581210D02*
X53585500Y-60488430D01*
X53510950Y-60665190D02*
X53556630Y-60581210D01*
X55978880Y-57144080D02*
X55954970Y-57232960D01*
X53738440Y-58599390D02*
X53540840Y-58570300D01*
X53930980Y-58647290D02*
X53738440Y-58599390D01*
X53074970Y-61348897D02*
X53029560Y-61348897D01*
X53211260Y-61330505D02*
X53074970Y-61348897D01*
X56148220Y-57547030D02*
X56170950Y-57553970D01*
X52421219Y-61379495D02*
X52422141Y-61378627D01*
X52411671Y-61387688D02*
X52421219Y-61379495D01*
X53010840Y-60307440D02*
X53023760Y-60258290D01*
X53010840Y-60323890D02*
X53010840Y-60307440D01*
X52833760Y-60352690D02*
X52857090Y-60439180D01*
X52833760Y-60323890D02*
X52833760Y-60352690D01*
X53010840Y-60335500D02*
X53010840Y-60323890D01*
X53020230Y-60370330D02*
X53010840Y-60335500D01*
X55653859Y-57047300D02*
X55557010Y-56981930D01*
X55719180Y-57144080D02*
X55653859Y-57047300D01*
X53069120Y-60194650D02*
X53116540Y-60165510D01*
X53061040Y-60202740D02*
X53069120Y-60194650D01*
X53890130Y-61098951D02*
X53900060Y-61096672D01*
X53889160Y-61099113D02*
X53890130Y-61098951D01*
X53861380Y-60797080D02*
X53778050Y-60950460D01*
X53914070Y-60627700D02*
X53861380Y-60797080D01*
X53293290Y-60844560D02*
X53377270Y-60798870D01*
X53200520Y-60873420D02*
X53293290Y-60844560D01*
X56483340Y-58870280D02*
X56483400Y-58870280D01*
X56483340Y-60854110D02*
X56483340Y-58870280D01*
X56084520Y-57511650D02*
X56148220Y-57547030D01*
X55954970Y-57262580D02*
X55954970Y-57287040D01*
X55566080Y-57250150D02*
X55566080Y-57262580D01*
X55556040Y-57212990D02*
X55566080Y-57250150D01*
X54034720Y-60842660D02*
X54086430Y-60668610D01*
X54020400Y-60875590D02*
X54034720Y-60842660D01*
X54824480Y-59197900D02*
X54779290Y-59153260D01*
X55021540Y-59440320D02*
X54824480Y-59197900D01*
X56194440Y-61283955D02*
X56129120Y-61391702D01*
X56241320Y-61177238D02*
X56194440Y-61283955D01*
X55178820Y-59705240D02*
X55021540Y-59440320D01*
X55204150Y-59761110D02*
X55178820Y-59705240D01*
X56142040Y-57212990D02*
X56169370Y-57172460D01*
X56132050Y-57250150D02*
X56142040Y-57212990D01*
X56042370Y-61494893D02*
X56042370Y-61494893D01*
X56564070Y-57262580D02*
X56564070Y-57232960D01*
X56540090Y-57144080D02*
X56474770Y-57047300D01*
X56474770Y-57047300D02*
X56377930Y-56981930D01*
X56044220Y-57047300D02*
X55978880Y-57144080D01*
X55460290Y-58611810D02*
X55516820Y-58543350D01*
X55417580Y-58690370D02*
X55460290Y-58611810D01*
X55971130Y-57360610D02*
X56016110Y-57445420D01*
X56132050Y-57262580D02*
X56132050Y-57262580D01*
X56132050Y-57274940D02*
X56132050Y-57262580D01*
X53263290Y-59741420D02*
X53369680Y-59755750D01*
X53227860Y-59741420D02*
X53263290Y-59741420D01*
X52551699Y-60519190D02*
X52606770Y-60620440D01*
X52516920Y-60407330D02*
X52551699Y-60519190D01*
X53018770Y-59782710D02*
X53120500Y-59751890D01*
X52925070Y-59832780D02*
X53018770Y-59782710D01*
X55501450Y-61750317D02*
X55322320Y-61767516D01*
X55711480Y-61699048D02*
X55501450Y-61750317D01*
X54117400Y-58713530D02*
X53930980Y-58647290D01*
X54296500Y-58797740D02*
X54117400Y-58713530D01*
X52989150Y-61525980D02*
X53029560Y-61525980D01*
X52867940Y-61516161D02*
X52989150Y-61525980D01*
X55886830Y-58230680D02*
X55843750Y-58230680D01*
X51567649Y-61940151D02*
X51588482Y-61944654D01*
X51543181Y-61927510D02*
X51567649Y-61940151D01*
X52679570Y-60708700D02*
X52767850Y-60781510D01*
X52606770Y-60620440D02*
X52679570Y-60708700D01*
X52123368Y-59388240D02*
X52255855Y-59216140D01*
X51989254Y-59638870D02*
X52123368Y-59388240D01*
X52238332Y-58983280D02*
X52181419Y-59040190D01*
X52431311Y-58834740D02*
X52238332Y-58983280D01*
X52712340Y-58684350D02*
X52431311Y-58834740D01*
X53017360Y-58591960D02*
X52712340Y-58684350D01*
X55134000Y-57287040D02*
X55150180Y-57360610D01*
X55134000Y-57262580D02*
X55134000Y-57287040D01*
X54040090Y-60103120D02*
X53958700Y-59953390D01*
X54091580Y-60268500D02*
X54040090Y-60103120D01*
X56016220Y-58254330D02*
X55886830Y-58230680D01*
X53325360Y-60613330D02*
X53224380Y-60681420D01*
X53393500Y-60512360D02*
X53325360Y-60613330D01*
X52681910Y-60308430D02*
X52681910Y-60287370D01*
X52690420Y-60371680D02*
X52681910Y-60308430D01*
X56483400Y-58870280D02*
X56483400Y-58843100D01*
X55549800Y-57547030D02*
X55613550Y-57511650D01*
X53339410Y-58737620D02*
X53385950Y-58737620D01*
X53267580Y-58737620D02*
X53339410Y-58737620D01*
X55311080Y-57274940D02*
X55311080Y-57262580D01*
X55321070Y-57312110D02*
X55311080Y-57274940D01*
X55726940Y-57360610D02*
X55743160Y-57287040D01*
X55187380Y-60336960D02*
X55201380Y-60474110D01*
X55154190Y-60159500D02*
X55187380Y-60336960D01*
X52833760Y-60290510D02*
X52833760Y-60323890D01*
X52860080Y-60190470D02*
X52833760Y-60290510D01*
X56376950Y-57312110D02*
X56349610Y-57352690D01*
X56386980Y-57274940D02*
X56376950Y-57312110D01*
X52860730Y-59882320D02*
X52925070Y-59832780D01*
X52841790Y-59901301D02*
X52860730Y-59882320D01*
X55214130Y-58757320D02*
X55204150Y-58842000D01*
X55242880Y-58650820D02*
X55214130Y-58757320D01*
X52504825Y-60317320D02*
X52516920Y-60407330D01*
X52504825Y-60287370D02*
X52504825Y-60317320D01*
X53052250Y-58765610D02*
X53267580Y-58737620D01*
X52780160Y-58848030D02*
X53052250Y-58765610D01*
X53131770Y-60706430D02*
X53100970Y-60706430D01*
X53224380Y-60681420D02*
X53131770Y-60706430D01*
X54109540Y-60401620D02*
X54091580Y-60268500D01*
X54109540Y-60446010D02*
X54109540Y-60401620D01*
X53876950Y-60171970D02*
X53918080Y-60304140D01*
X53811900Y-60052290D02*
X53876950Y-60171970D01*
X56016110Y-57445420D02*
X56084520Y-57511650D01*
X53165750Y-60152550D02*
X53182180Y-60152550D01*
X53116540Y-60165510D02*
X53165750Y-60152550D01*
X56209900Y-57145070D02*
X56247070Y-57135080D01*
X56169370Y-57172460D02*
X56209900Y-57145070D01*
X55527120Y-58314870D02*
X55527120Y-57553970D01*
X56042370Y-61494893D02*
X56008790Y-61528584D01*
X51878847Y-60198120D02*
X51878847Y-60198120D01*
X55750590Y-58417150D02*
X55820410Y-58407760D01*
X55663840Y-58444110D02*
X55750590Y-58417150D01*
X56348040Y-57553970D02*
X56370700Y-57547030D01*
X55262630Y-61767516D02*
X51874182Y-61767516D01*
X55322320Y-61767516D02*
X55262630Y-61767516D01*
X53516650Y-61409715D02*
X53720800Y-61275166D01*
X53283860Y-61495706D02*
X53516650Y-61409715D01*
X52714840Y-60450290D02*
X52690420Y-60371680D01*
X52753520Y-60521470D02*
X52714840Y-60450290D01*
X56170950Y-58320960D02*
X56146970Y-58306640D01*
X52691460Y-59801210D02*
X52625860Y-59886440D01*
X52716630Y-59776080D02*
X52691460Y-59801210D01*
X56351340Y-61367072D02*
X56407120Y-61241258D01*
X56273380Y-61494730D02*
X56351340Y-61367072D01*
X55348470Y-57172460D02*
X55389000Y-57145070D01*
X55321070Y-57212990D02*
X55348470Y-57172460D01*
X52920680Y-60533420D02*
X53014910Y-60597000D01*
X52857090Y-60439180D02*
X52920680Y-60533420D01*
X53205130Y-60152550D02*
X53274020Y-60171110D01*
X53182180Y-60152550D02*
X53205130Y-60152550D01*
X52529510Y-58982140D02*
X52780160Y-58848030D01*
X52357364Y-59114620D02*
X52529510Y-58982140D01*
X56434450Y-57511650D02*
X56502870Y-57445470D01*
X53474330Y-60096670D02*
X53413130Y-60046170D01*
X53524840Y-60157870D02*
X53474330Y-60096670D01*
X56259500Y-56958000D02*
X56229870Y-56958000D01*
D11*
X57537047Y-44711380D02*
X57537047Y-43711380D01*
X57108476Y-44663761D02*
X57013238Y-44711380D01*
X56822761Y-44711380D01*
X56727523Y-44663761D01*
X56679904Y-44568523D01*
X56679904Y-44520904D01*
X56727523Y-44425666D01*
X56822761Y-44378047D01*
X56965619Y-44378047D01*
X57060857Y-44330428D01*
X57108476Y-44235190D01*
X57108476Y-44187571D01*
X57060857Y-44092333D01*
X56965619Y-44044714D01*
X56822761Y-44044714D01*
X56727523Y-44092333D01*
X56108476Y-44711380D02*
X56203714Y-44663761D01*
X56251333Y-44616142D01*
X56298952Y-44520904D01*
X56298952Y-44235190D01*
X56251333Y-44139952D01*
X56203714Y-44092333D01*
X56108476Y-44044714D01*
X55965619Y-44044714D01*
X55870380Y-44092333D01*
X55822761Y-44139952D01*
X55775142Y-44235190D01*
X55775142Y-44520904D01*
X55822761Y-44616142D01*
X55870380Y-44663761D01*
X55965619Y-44711380D01*
X56108476Y-44711380D01*
X55203714Y-44711380D02*
X55298952Y-44663761D01*
X55346571Y-44568523D01*
X55346571Y-43711380D01*
X54394190Y-44711380D02*
X54394190Y-44187571D01*
X54441809Y-44092333D01*
X54537047Y-44044714D01*
X54727523Y-44044714D01*
X54822761Y-44092333D01*
X54394190Y-44663761D02*
X54489428Y-44711380D01*
X54727523Y-44711380D01*
X54822761Y-44663761D01*
X54870380Y-44568523D01*
X54870380Y-44473285D01*
X54822761Y-44378047D01*
X54727523Y-44330428D01*
X54489428Y-44330428D01*
X54394190Y-44282809D01*
X54060857Y-44044714D02*
X53679904Y-44044714D01*
X53918000Y-43711380D02*
X53918000Y-44568523D01*
X53870380Y-44663761D01*
X53775142Y-44711380D01*
X53679904Y-44711380D01*
X52965619Y-44663761D02*
X53060857Y-44711380D01*
X53251333Y-44711380D01*
X53346571Y-44663761D01*
X53394190Y-44568523D01*
X53394190Y-44187571D01*
X53346571Y-44092333D01*
X53251333Y-44044714D01*
X53060857Y-44044714D01*
X52965619Y-44092333D01*
X52918000Y-44187571D01*
X52918000Y-44282809D01*
X53394190Y-44378047D01*
X52060857Y-44711380D02*
X52060857Y-43711380D01*
X52060857Y-44663761D02*
X52156095Y-44711380D01*
X52346571Y-44711380D01*
X52441809Y-44663761D01*
X52489428Y-44616142D01*
X52537047Y-44520904D01*
X52537047Y-44235190D01*
X52489428Y-44139952D01*
X52441809Y-44092333D01*
X52346571Y-44044714D01*
X52156095Y-44044714D01*
X52060857Y-44092333D01*
X62394190Y-46361380D02*
X62727523Y-45885190D01*
X62965619Y-46361380D02*
X62965619Y-45361380D01*
X62584666Y-45361380D01*
X62489428Y-45409000D01*
X62441809Y-45456619D01*
X62394190Y-45551857D01*
X62394190Y-45694714D01*
X62441809Y-45789952D01*
X62489428Y-45837571D01*
X62584666Y-45885190D01*
X62965619Y-45885190D01*
X62013238Y-46313761D02*
X61870380Y-46361380D01*
X61632285Y-46361380D01*
X61537047Y-46313761D01*
X61489428Y-46266142D01*
X61441809Y-46170904D01*
X61441809Y-46075666D01*
X61489428Y-45980428D01*
X61537047Y-45932809D01*
X61632285Y-45885190D01*
X61822761Y-45837571D01*
X61918000Y-45789952D01*
X61965619Y-45742333D01*
X62013238Y-45647095D01*
X62013238Y-45551857D01*
X61965619Y-45456619D01*
X61918000Y-45409000D01*
X61822761Y-45361380D01*
X61584666Y-45361380D01*
X61441809Y-45409000D01*
X60584666Y-45694714D02*
X60584666Y-46361380D01*
X60822761Y-45313761D02*
X61060857Y-46028047D01*
X60441809Y-46028047D01*
X59918000Y-45789952D02*
X60013238Y-45742333D01*
X60060857Y-45694714D01*
X60108476Y-45599476D01*
X60108476Y-45551857D01*
X60060857Y-45456619D01*
X60013238Y-45409000D01*
X59918000Y-45361380D01*
X59727523Y-45361380D01*
X59632285Y-45409000D01*
X59584666Y-45456619D01*
X59537047Y-45551857D01*
X59537047Y-45599476D01*
X59584666Y-45694714D01*
X59632285Y-45742333D01*
X59727523Y-45789952D01*
X59918000Y-45789952D01*
X60013238Y-45837571D01*
X60060857Y-45885190D01*
X60108476Y-45980428D01*
X60108476Y-46170904D01*
X60060857Y-46266142D01*
X60013238Y-46313761D01*
X59918000Y-46361380D01*
X59727523Y-46361380D01*
X59632285Y-46313761D01*
X59584666Y-46266142D01*
X59537047Y-46170904D01*
X59537047Y-45980428D01*
X59584666Y-45885190D01*
X59632285Y-45837571D01*
X59727523Y-45789952D01*
X58632285Y-45361380D02*
X59108476Y-45361380D01*
X59156095Y-45837571D01*
X59108476Y-45789952D01*
X59013238Y-45742333D01*
X58775142Y-45742333D01*
X58679904Y-45789952D01*
X58632285Y-45837571D01*
X58584666Y-45932809D01*
X58584666Y-46170904D01*
X58632285Y-46266142D01*
X58679904Y-46313761D01*
X58775142Y-46361380D01*
X59013238Y-46361380D01*
X59108476Y-46313761D01*
X59156095Y-46266142D01*
X56632285Y-45694714D02*
X57394190Y-45980428D01*
X56632285Y-46266142D01*
X56156095Y-45980428D02*
X55394190Y-45980428D01*
X54918000Y-45694714D02*
X54156095Y-45980428D01*
X54918000Y-46266142D01*
X52918000Y-45361380D02*
X52918000Y-46170904D01*
X52870380Y-46266142D01*
X52822761Y-46313761D01*
X52727523Y-46361380D01*
X52537047Y-46361380D01*
X52441809Y-46313761D01*
X52394190Y-46266142D01*
X52346571Y-46170904D01*
X52346571Y-45361380D01*
X51918000Y-46075666D02*
X51441809Y-46075666D01*
X52013238Y-46361380D02*
X51679904Y-45361380D01*
X51346571Y-46361380D01*
X50441809Y-46361380D02*
X50775142Y-45885190D01*
X51013238Y-46361380D02*
X51013238Y-45361380D01*
X50632285Y-45361380D01*
X50537047Y-45409000D01*
X50489428Y-45456619D01*
X50441809Y-45551857D01*
X50441809Y-45694714D01*
X50489428Y-45789952D01*
X50537047Y-45837571D01*
X50632285Y-45885190D01*
X51013238Y-45885190D01*
X50156095Y-45361380D02*
X49584666Y-45361380D01*
X49870380Y-46361380D02*
X49870380Y-45361380D01*
X48632285Y-45361380D02*
X48060857Y-45361380D01*
X48346571Y-46361380D02*
X48346571Y-45361380D01*
X47870380Y-45361380D02*
X47298952Y-45361380D01*
X47584666Y-46361380D02*
X47584666Y-45361380D01*
X46489428Y-46361380D02*
X46965619Y-46361380D01*
X46965619Y-45361380D01*
X57227523Y-47963761D02*
X57322761Y-48011380D01*
X57513238Y-48011380D01*
X57608476Y-47963761D01*
X57656095Y-47916142D01*
X57703714Y-47820904D01*
X57703714Y-47535190D01*
X57656095Y-47439952D01*
X57608476Y-47392333D01*
X57513238Y-47344714D01*
X57322761Y-47344714D01*
X57227523Y-47392333D01*
X56656095Y-48011380D02*
X56751333Y-47963761D01*
X56798952Y-47916142D01*
X56846571Y-47820904D01*
X56846571Y-47535190D01*
X56798952Y-47439952D01*
X56751333Y-47392333D01*
X56656095Y-47344714D01*
X56513238Y-47344714D01*
X56418000Y-47392333D01*
X56370380Y-47439952D01*
X56322761Y-47535190D01*
X56322761Y-47820904D01*
X56370380Y-47916142D01*
X56418000Y-47963761D01*
X56513238Y-48011380D01*
X56656095Y-48011380D01*
X55894190Y-47344714D02*
X55894190Y-48011380D01*
X55894190Y-47439952D02*
X55846571Y-47392333D01*
X55751333Y-47344714D01*
X55608476Y-47344714D01*
X55513238Y-47392333D01*
X55465619Y-47487571D01*
X55465619Y-48011380D01*
X55084666Y-47344714D02*
X54846571Y-48011380D01*
X54608476Y-47344714D01*
X53846571Y-47963761D02*
X53941809Y-48011380D01*
X54132285Y-48011380D01*
X54227523Y-47963761D01*
X54275142Y-47868523D01*
X54275142Y-47487571D01*
X54227523Y-47392333D01*
X54132285Y-47344714D01*
X53941809Y-47344714D01*
X53846571Y-47392333D01*
X53798952Y-47487571D01*
X53798952Y-47582809D01*
X54275142Y-47678047D01*
X53370380Y-48011380D02*
X53370380Y-47344714D01*
X53370380Y-47535190D02*
X53322761Y-47439952D01*
X53275142Y-47392333D01*
X53179904Y-47344714D01*
X53084666Y-47344714D01*
X52894190Y-47344714D02*
X52513238Y-47344714D01*
X52751333Y-47011380D02*
X52751333Y-47868523D01*
X52703714Y-47963761D01*
X52608476Y-48011380D01*
X52513238Y-48011380D01*
X51798952Y-47963761D02*
X51894190Y-48011380D01*
X52084666Y-48011380D01*
X52179904Y-47963761D01*
X52227523Y-47868523D01*
X52227523Y-47487571D01*
X52179904Y-47392333D01*
X52084666Y-47344714D01*
X51894190Y-47344714D01*
X51798952Y-47392333D01*
X51751333Y-47487571D01*
X51751333Y-47582809D01*
X52227523Y-47678047D01*
X51322761Y-48011380D02*
X51322761Y-47344714D01*
X51322761Y-47535190D02*
X51275142Y-47439952D01*
X51227523Y-47392333D01*
X51132285Y-47344714D01*
X51037047Y-47344714D01*
X27446285Y-57664380D02*
X27446285Y-56664380D01*
X27208190Y-56664380D01*
X27065333Y-56712000D01*
X26970095Y-56807238D01*
X26922476Y-56902476D01*
X26874857Y-57092952D01*
X26874857Y-57235809D01*
X26922476Y-57426285D01*
X26970095Y-57521523D01*
X27065333Y-57616761D01*
X27208190Y-57664380D01*
X27446285Y-57664380D01*
X26446285Y-57140571D02*
X26112952Y-57140571D01*
X25970095Y-57664380D02*
X26446285Y-57664380D01*
X26446285Y-56664380D01*
X25970095Y-56664380D01*
X27232000Y-52584380D02*
X27232000Y-51584380D01*
X26993904Y-51584380D01*
X26851047Y-51632000D01*
X26755809Y-51727238D01*
X26708190Y-51822476D01*
X26660571Y-52012952D01*
X26660571Y-52155809D01*
X26708190Y-52346285D01*
X26755809Y-52441523D01*
X26851047Y-52536761D01*
X26993904Y-52584380D01*
X27232000Y-52584380D01*
X26232000Y-52584380D02*
X26232000Y-51584380D01*
X27684380Y-58837000D02*
X26684380Y-58837000D01*
X26874857Y-60204380D02*
X27208190Y-59728190D01*
X27446285Y-60204380D02*
X27446285Y-59204380D01*
X27065333Y-59204380D01*
X26970095Y-59252000D01*
X26922476Y-59299619D01*
X26874857Y-59394857D01*
X26874857Y-59537714D01*
X26922476Y-59632952D01*
X26970095Y-59680571D01*
X27065333Y-59728190D01*
X27446285Y-59728190D01*
X26684380Y-58837000D02*
X25779619Y-58837000D01*
X26446285Y-59680571D02*
X26112952Y-59680571D01*
X25970095Y-60204380D02*
X26446285Y-60204380D01*
X26446285Y-59204380D01*
X25970095Y-59204380D01*
X26922476Y-46504380D02*
X27398666Y-46504380D01*
X27446285Y-46980571D01*
X27398666Y-46932952D01*
X27303428Y-46885333D01*
X27065333Y-46885333D01*
X26970095Y-46932952D01*
X26922476Y-46980571D01*
X26874857Y-47075809D01*
X26874857Y-47313904D01*
X26922476Y-47409142D01*
X26970095Y-47456761D01*
X27065333Y-47504380D01*
X27303428Y-47504380D01*
X27398666Y-47456761D01*
X27446285Y-47409142D01*
X26589142Y-46504380D02*
X26255809Y-47504380D01*
X25922476Y-46504380D01*
X27493904Y-54172000D02*
X27589142Y-54124380D01*
X27732000Y-54124380D01*
X27874857Y-54172000D01*
X27970095Y-54267238D01*
X28017714Y-54362476D01*
X28065333Y-54552952D01*
X28065333Y-54695809D01*
X28017714Y-54886285D01*
X27970095Y-54981523D01*
X27874857Y-55076761D01*
X27732000Y-55124380D01*
X27636761Y-55124380D01*
X27493904Y-55076761D01*
X27446285Y-55029142D01*
X27446285Y-54695809D01*
X27636761Y-54695809D01*
X27017714Y-55124380D02*
X27017714Y-54124380D01*
X26446285Y-55124380D01*
X26446285Y-54124380D01*
X25970095Y-55124380D02*
X25970095Y-54124380D01*
X25732000Y-54124380D01*
X25589142Y-54172000D01*
X25493904Y-54267238D01*
X25446285Y-54362476D01*
X25398666Y-54552952D01*
X25398666Y-54695809D01*
X25446285Y-54886285D01*
X25493904Y-54981523D01*
X25589142Y-55076761D01*
X25732000Y-55124380D01*
X25970095Y-55124380D01*
X26946285Y-50044380D02*
X27279619Y-49568190D01*
X27517714Y-50044380D02*
X27517714Y-49044380D01*
X27136761Y-49044380D01*
X27041523Y-49092000D01*
X26993904Y-49139619D01*
X26946285Y-49234857D01*
X26946285Y-49377714D01*
X26993904Y-49472952D01*
X27041523Y-49520571D01*
X27136761Y-49568190D01*
X27517714Y-49568190D01*
X26327238Y-49044380D02*
X26136761Y-49044380D01*
X26041523Y-49092000D01*
X25946285Y-49187238D01*
X25898666Y-49377714D01*
X25898666Y-49711047D01*
X25946285Y-49901523D01*
X26041523Y-49996761D01*
X26136761Y-50044380D01*
X26327238Y-50044380D01*
X26422476Y-49996761D01*
X26517714Y-49901523D01*
X26565333Y-49711047D01*
X26565333Y-49377714D01*
X26517714Y-49187238D01*
X26422476Y-49092000D01*
X26327238Y-49044380D01*
X75174571Y-60696571D02*
X75031714Y-60744190D01*
X74984095Y-60791809D01*
X74936476Y-60887047D01*
X74936476Y-61029904D01*
X74984095Y-61125142D01*
X75031714Y-61172761D01*
X75126952Y-61220380D01*
X75507904Y-61220380D01*
X75507904Y-60220380D01*
X75174571Y-60220380D01*
X75079333Y-60268000D01*
X75031714Y-60315619D01*
X74984095Y-60410857D01*
X74984095Y-60506095D01*
X75031714Y-60601333D01*
X75079333Y-60648952D01*
X75174571Y-60696571D01*
X75507904Y-60696571D01*
X76515904Y-55188000D02*
X76611142Y-55140380D01*
X76754000Y-55140380D01*
X76896857Y-55188000D01*
X76992095Y-55283238D01*
X77039714Y-55378476D01*
X77087333Y-55568952D01*
X77087333Y-55711809D01*
X77039714Y-55902285D01*
X76992095Y-55997523D01*
X76896857Y-56092761D01*
X76754000Y-56140380D01*
X76658761Y-56140380D01*
X76515904Y-56092761D01*
X76468285Y-56045142D01*
X76468285Y-55711809D01*
X76658761Y-55711809D01*
X76039714Y-56140380D02*
X76039714Y-55140380D01*
X75468285Y-56140380D01*
X75468285Y-55140380D01*
X74992095Y-56140380D02*
X74992095Y-55140380D01*
X74754000Y-55140380D01*
X74611142Y-55188000D01*
X74515904Y-55283238D01*
X74468285Y-55378476D01*
X74420666Y-55568952D01*
X74420666Y-55711809D01*
X74468285Y-55902285D01*
X74515904Y-55997523D01*
X74611142Y-56092761D01*
X74754000Y-56140380D01*
X74992095Y-56140380D01*
X76515904Y-50362000D02*
X76611142Y-50314380D01*
X76754000Y-50314380D01*
X76896857Y-50362000D01*
X76992095Y-50457238D01*
X77039714Y-50552476D01*
X77087333Y-50742952D01*
X77087333Y-50885809D01*
X77039714Y-51076285D01*
X76992095Y-51171523D01*
X76896857Y-51266761D01*
X76754000Y-51314380D01*
X76658761Y-51314380D01*
X76515904Y-51266761D01*
X76468285Y-51219142D01*
X76468285Y-50885809D01*
X76658761Y-50885809D01*
X76039714Y-51314380D02*
X76039714Y-50314380D01*
X75468285Y-51314380D01*
X75468285Y-50314380D01*
X74992095Y-51314380D02*
X74992095Y-50314380D01*
X74754000Y-50314380D01*
X74611142Y-50362000D01*
X74515904Y-50457238D01*
X74468285Y-50552476D01*
X74420666Y-50742952D01*
X74420666Y-50885809D01*
X74468285Y-51076285D01*
X74515904Y-51171523D01*
X74611142Y-51266761D01*
X74754000Y-51314380D01*
X74992095Y-51314380D01*
X75484095Y-45948666D02*
X75007904Y-45948666D01*
X75579333Y-46234380D02*
X75246000Y-45234380D01*
X74912666Y-46234380D01*
M02*
