M48
METRIC
T1C0.300
T2C0.400
%
G90
G05
T1
X60.387Y-27.85
X60.387Y-28.65
X60.987Y-28.25
X61.587Y-27.85
X61.587Y-28.65
T2
X39.715Y-27.805
X41.5Y-28.25
X43.25Y-30.25
X44.5Y-23.75
X44.5Y-25.75
X44.5Y-32.75
X47.0Y-23.75
X47.0Y-25.75
X47.0Y-32.75
X49.5Y-23.75
X49.5Y-32.75
X51.25Y-25.0
X52.0Y-32.75
X54.0Y-23.75
X54.0Y-32.75
X55.25Y-30.25
X56.0Y-23.75
X56.0Y-32.75
X59.0Y-27.5
X59.0Y-28.5
T0
M30
