G04 #@! TF.GenerationSoftware,KiCad,Pcbnew,(5.1.0-1220-ga833aeeac)*
G04 #@! TF.CreationDate,2019-08-17T01:52:11+03:00*
G04 #@! TF.ProjectId,proto_II_sensor_kicad,70726f74-6f5f-4494-995f-73656e736f72,rev?*
G04 #@! TF.SameCoordinates,Original*
G04 #@! TF.FileFunction,Soldermask,Top*
G04 #@! TF.FilePolarity,Negative*
%FSLAX46Y46*%
G04 Gerber Fmt 4.6, Leading zero omitted, Abs format (unit mm)*
G04 Created by KiCad (PCBNEW (5.1.0-1220-ga833aeeac)) date 2019-08-17 01:52:11*
%MOMM*%
%LPD*%
G04 APERTURE LIST*
%ADD10C,1.000000*%
%ADD11R,4.000000X2.000000*%
%ADD12C,0.160000*%
%ADD13C,0.950000*%
%ADD14C,0.500000*%
%ADD15C,1.500000*%
%ADD16C,0.400000*%
%ADD17R,2.000000X0.350000*%
%ADD18R,0.800000X0.900000*%
%ADD19C,1.425000*%
G04 APERTURE END LIST*
D10*
X53200000Y-25650000D03*
X53200000Y-30850000D03*
X63600000Y-30850000D03*
X58400000Y-30850000D03*
X63600000Y-25650000D03*
X58400000Y-25650000D03*
D11*
X37800000Y-30750000D03*
X37800000Y-25750000D03*
D12*
G36*
X45314387Y-30269579D02*
G01*
X45391438Y-30321062D01*
X45442921Y-30398113D01*
X45461000Y-30489000D01*
X45461000Y-30964000D01*
X45442921Y-31054887D01*
X45391438Y-31131938D01*
X45314387Y-31183421D01*
X45223500Y-31201500D01*
X44648500Y-31201500D01*
X44557613Y-31183421D01*
X44480562Y-31131938D01*
X44429079Y-31054887D01*
X44411000Y-30964000D01*
X44411000Y-30489000D01*
X44429079Y-30398113D01*
X44480562Y-30321062D01*
X44557613Y-30269579D01*
X44648500Y-30251500D01*
X45223500Y-30251500D01*
X45314387Y-30269579D01*
X45314387Y-30269579D01*
G37*
D13*
X44936000Y-30726500D03*
D12*
G36*
X47064387Y-30269579D02*
G01*
X47141438Y-30321062D01*
X47192921Y-30398113D01*
X47211000Y-30489000D01*
X47211000Y-30964000D01*
X47192921Y-31054887D01*
X47141438Y-31131938D01*
X47064387Y-31183421D01*
X46973500Y-31201500D01*
X46398500Y-31201500D01*
X46307613Y-31183421D01*
X46230562Y-31131938D01*
X46179079Y-31054887D01*
X46161000Y-30964000D01*
X46161000Y-30489000D01*
X46179079Y-30398113D01*
X46230562Y-30321062D01*
X46307613Y-30269579D01*
X46398500Y-30251500D01*
X46973500Y-30251500D01*
X47064387Y-30269579D01*
X47064387Y-30269579D01*
G37*
D13*
X46686000Y-30726500D03*
D12*
G36*
X43535887Y-28618079D02*
G01*
X43612938Y-28669562D01*
X43664421Y-28746613D01*
X43682500Y-28837500D01*
X43682500Y-29412500D01*
X43664421Y-29503387D01*
X43612938Y-29580438D01*
X43535887Y-29631921D01*
X43445000Y-29650000D01*
X42970000Y-29650000D01*
X42879113Y-29631921D01*
X42802062Y-29580438D01*
X42750579Y-29503387D01*
X42732500Y-29412500D01*
X42732500Y-28837500D01*
X42750579Y-28746613D01*
X42802062Y-28669562D01*
X42879113Y-28618079D01*
X42970000Y-28600000D01*
X43445000Y-28600000D01*
X43535887Y-28618079D01*
X43535887Y-28618079D01*
G37*
D13*
X43207500Y-29125000D03*
D12*
G36*
X43535887Y-26868079D02*
G01*
X43612938Y-26919562D01*
X43664421Y-26996613D01*
X43682500Y-27087500D01*
X43682500Y-27662500D01*
X43664421Y-27753387D01*
X43612938Y-27830438D01*
X43535887Y-27881921D01*
X43445000Y-27900000D01*
X42970000Y-27900000D01*
X42879113Y-27881921D01*
X42802062Y-27830438D01*
X42750579Y-27753387D01*
X42732500Y-27662500D01*
X42732500Y-27087500D01*
X42750579Y-26996613D01*
X42802062Y-26919562D01*
X42879113Y-26868079D01*
X42970000Y-26850000D01*
X43445000Y-26850000D01*
X43535887Y-26868079D01*
X43535887Y-26868079D01*
G37*
D13*
X43207500Y-27375000D03*
D14*
X60387500Y-28650000D03*
X60387500Y-27850000D03*
X60987500Y-28250000D03*
X61587500Y-28650000D03*
X61587500Y-27850000D03*
D12*
G36*
X62033171Y-27519030D02*
G01*
X62114277Y-27573223D01*
X62168470Y-27654329D01*
X62187500Y-27750000D01*
X62187500Y-28750000D01*
X62168470Y-28845671D01*
X62114277Y-28926777D01*
X62033171Y-28980970D01*
X61937500Y-29000000D01*
X60037500Y-29000000D01*
X59941829Y-28980970D01*
X59860723Y-28926777D01*
X59806530Y-28845671D01*
X59787500Y-28750000D01*
X59787500Y-27750000D01*
X59806530Y-27654329D01*
X59860723Y-27573223D01*
X59941829Y-27519030D01*
X60037500Y-27500000D01*
X61937500Y-27500000D01*
X62033171Y-27519030D01*
X62033171Y-27519030D01*
G37*
D15*
X60987500Y-28250000D03*
D12*
G36*
X62125768Y-29307612D02*
G01*
X62158211Y-29329289D01*
X62179888Y-29361732D01*
X62187500Y-29400000D01*
X62187500Y-32200000D01*
X62179888Y-32238268D01*
X62158211Y-32270711D01*
X62125768Y-32292388D01*
X62087500Y-32300000D01*
X61887500Y-32300000D01*
X61849232Y-32292388D01*
X61816789Y-32270711D01*
X61795112Y-32238268D01*
X61787500Y-32200000D01*
X61787500Y-29400000D01*
X61795112Y-29361732D01*
X61816789Y-29329289D01*
X61849232Y-29307612D01*
X61887500Y-29300000D01*
X62087500Y-29300000D01*
X62125768Y-29307612D01*
X62125768Y-29307612D01*
G37*
D16*
X61987500Y-30800000D03*
D12*
G36*
X61125768Y-29307612D02*
G01*
X61158211Y-29329289D01*
X61179888Y-29361732D01*
X61187500Y-29400000D01*
X61187500Y-32200000D01*
X61179888Y-32238268D01*
X61158211Y-32270711D01*
X61125768Y-32292388D01*
X61087500Y-32300000D01*
X60887500Y-32300000D01*
X60849232Y-32292388D01*
X60816789Y-32270711D01*
X60795112Y-32238268D01*
X60787500Y-32200000D01*
X60787500Y-29400000D01*
X60795112Y-29361732D01*
X60816789Y-29329289D01*
X60849232Y-29307612D01*
X60887500Y-29300000D01*
X61087500Y-29300000D01*
X61125768Y-29307612D01*
X61125768Y-29307612D01*
G37*
D16*
X60987500Y-30800000D03*
D12*
G36*
X60125768Y-29307612D02*
G01*
X60158211Y-29329289D01*
X60179888Y-29361732D01*
X60187500Y-29400000D01*
X60187500Y-32200000D01*
X60179888Y-32238268D01*
X60158211Y-32270711D01*
X60125768Y-32292388D01*
X60087500Y-32300000D01*
X59887500Y-32300000D01*
X59849232Y-32292388D01*
X59816789Y-32270711D01*
X59795112Y-32238268D01*
X59787500Y-32200000D01*
X59787500Y-29400000D01*
X59795112Y-29361732D01*
X59816789Y-29329289D01*
X59849232Y-29307612D01*
X59887500Y-29300000D01*
X60087500Y-29300000D01*
X60125768Y-29307612D01*
X60125768Y-29307612D01*
G37*
D16*
X59987500Y-30800000D03*
D12*
G36*
X60125768Y-24207612D02*
G01*
X60158211Y-24229289D01*
X60179888Y-24261732D01*
X60187500Y-24300000D01*
X60187500Y-27100000D01*
X60179888Y-27138268D01*
X60158211Y-27170711D01*
X60125768Y-27192388D01*
X60087500Y-27200000D01*
X59887500Y-27200000D01*
X59849232Y-27192388D01*
X59816789Y-27170711D01*
X59795112Y-27138268D01*
X59787500Y-27100000D01*
X59787500Y-24300000D01*
X59795112Y-24261732D01*
X59816789Y-24229289D01*
X59849232Y-24207612D01*
X59887500Y-24200000D01*
X60087500Y-24200000D01*
X60125768Y-24207612D01*
X60125768Y-24207612D01*
G37*
D16*
X59987500Y-25700000D03*
D12*
G36*
X61125768Y-24207612D02*
G01*
X61158211Y-24229289D01*
X61179888Y-24261732D01*
X61187500Y-24300000D01*
X61187500Y-27100000D01*
X61179888Y-27138268D01*
X61158211Y-27170711D01*
X61125768Y-27192388D01*
X61087500Y-27200000D01*
X60887500Y-27200000D01*
X60849232Y-27192388D01*
X60816789Y-27170711D01*
X60795112Y-27138268D01*
X60787500Y-27100000D01*
X60787500Y-24300000D01*
X60795112Y-24261732D01*
X60816789Y-24229289D01*
X60849232Y-24207612D01*
X60887500Y-24200000D01*
X61087500Y-24200000D01*
X61125768Y-24207612D01*
X61125768Y-24207612D01*
G37*
D16*
X60987500Y-25700000D03*
D12*
G36*
X62125768Y-24207612D02*
G01*
X62158211Y-24229289D01*
X62179888Y-24261732D01*
X62187500Y-24300000D01*
X62187500Y-27100000D01*
X62179888Y-27138268D01*
X62158211Y-27170711D01*
X62125768Y-27192388D01*
X62087500Y-27200000D01*
X61887500Y-27200000D01*
X61849232Y-27192388D01*
X61816789Y-27170711D01*
X61795112Y-27138268D01*
X61787500Y-27100000D01*
X61787500Y-24300000D01*
X61795112Y-24261732D01*
X61816789Y-24229289D01*
X61849232Y-24207612D01*
X61887500Y-24200000D01*
X62087500Y-24200000D01*
X62125768Y-24207612D01*
X62125768Y-24207612D01*
G37*
D16*
X61987500Y-25700000D03*
D12*
G36*
X62032862Y-27519068D02*
G01*
X62114130Y-27573370D01*
X62168432Y-27654638D01*
X62187500Y-27750500D01*
X62187500Y-28749500D01*
X62168432Y-28845362D01*
X62114130Y-28926630D01*
X62032862Y-28980932D01*
X61937000Y-29000000D01*
X60038000Y-29000000D01*
X59942138Y-28980932D01*
X59860870Y-28926630D01*
X59806568Y-28845362D01*
X59787500Y-28749500D01*
X59787500Y-27750500D01*
X59806568Y-27654638D01*
X59860870Y-27573370D01*
X59942138Y-27519068D01*
X60038000Y-27500000D01*
X61937000Y-27500000D01*
X62032862Y-27519068D01*
X62032862Y-27519068D01*
G37*
D15*
X60987500Y-28250000D03*
D17*
X54382500Y-27402000D03*
X54382500Y-28052000D03*
X54382500Y-28702000D03*
X54382500Y-29352000D03*
X57432500Y-29352000D03*
X57432500Y-28702000D03*
X57432500Y-28052000D03*
X57432500Y-27402000D03*
D18*
X45811000Y-27250000D03*
X46761000Y-29250000D03*
X44861000Y-29250000D03*
D12*
G36*
X43127387Y-31095079D02*
G01*
X43204438Y-31146562D01*
X43255921Y-31223613D01*
X43274000Y-31314500D01*
X43274000Y-31789500D01*
X43255921Y-31880387D01*
X43204438Y-31957438D01*
X43127387Y-32008921D01*
X43036500Y-32027000D01*
X42461500Y-32027000D01*
X42370613Y-32008921D01*
X42293562Y-31957438D01*
X42242079Y-31880387D01*
X42224000Y-31789500D01*
X42224000Y-31314500D01*
X42242079Y-31223613D01*
X42293562Y-31146562D01*
X42370613Y-31095079D01*
X42461500Y-31077000D01*
X43036500Y-31077000D01*
X43127387Y-31095079D01*
X43127387Y-31095079D01*
G37*
D13*
X42749000Y-31552000D03*
D12*
G36*
X41377387Y-31095079D02*
G01*
X41454438Y-31146562D01*
X41505921Y-31223613D01*
X41524000Y-31314500D01*
X41524000Y-31789500D01*
X41505921Y-31880387D01*
X41454438Y-31957438D01*
X41377387Y-32008921D01*
X41286500Y-32027000D01*
X40711500Y-32027000D01*
X40620613Y-32008921D01*
X40543562Y-31957438D01*
X40492079Y-31880387D01*
X40474000Y-31789500D01*
X40474000Y-31314500D01*
X40492079Y-31223613D01*
X40543562Y-31146562D01*
X40620613Y-31095079D01*
X40711500Y-31077000D01*
X41286500Y-31077000D01*
X41377387Y-31095079D01*
X41377387Y-31095079D01*
G37*
D13*
X40999000Y-31552000D03*
D12*
G36*
X43000387Y-24554579D02*
G01*
X43077438Y-24606062D01*
X43128921Y-24683113D01*
X43147000Y-24774000D01*
X43147000Y-25249000D01*
X43128921Y-25339887D01*
X43077438Y-25416938D01*
X43000387Y-25468421D01*
X42909500Y-25486500D01*
X42334500Y-25486500D01*
X42243613Y-25468421D01*
X42166562Y-25416938D01*
X42115079Y-25339887D01*
X42097000Y-25249000D01*
X42097000Y-24774000D01*
X42115079Y-24683113D01*
X42166562Y-24606062D01*
X42243613Y-24554579D01*
X42334500Y-24536500D01*
X42909500Y-24536500D01*
X43000387Y-24554579D01*
X43000387Y-24554579D01*
G37*
D13*
X42622000Y-25011500D03*
D12*
G36*
X41250387Y-24554579D02*
G01*
X41327438Y-24606062D01*
X41378921Y-24683113D01*
X41397000Y-24774000D01*
X41397000Y-25249000D01*
X41378921Y-25339887D01*
X41327438Y-25416938D01*
X41250387Y-25468421D01*
X41159500Y-25486500D01*
X40584500Y-25486500D01*
X40493613Y-25468421D01*
X40416562Y-25416938D01*
X40365079Y-25339887D01*
X40347000Y-25249000D01*
X40347000Y-24774000D01*
X40365079Y-24683113D01*
X40416562Y-24606062D01*
X40493613Y-24554579D01*
X40584500Y-24536500D01*
X41159500Y-24536500D01*
X41250387Y-24554579D01*
X41250387Y-24554579D01*
G37*
D13*
X40872000Y-25011500D03*
D12*
G36*
X48679387Y-30840579D02*
G01*
X48756438Y-30892062D01*
X48807921Y-30969113D01*
X48826000Y-31060000D01*
X48826000Y-31635000D01*
X48807921Y-31725887D01*
X48756438Y-31802938D01*
X48679387Y-31854421D01*
X48588500Y-31872500D01*
X48113500Y-31872500D01*
X48022613Y-31854421D01*
X47945562Y-31802938D01*
X47894079Y-31725887D01*
X47876000Y-31635000D01*
X47876000Y-31060000D01*
X47894079Y-30969113D01*
X47945562Y-30892062D01*
X48022613Y-30840579D01*
X48113500Y-30822500D01*
X48588500Y-30822500D01*
X48679387Y-30840579D01*
X48679387Y-30840579D01*
G37*
D13*
X48351000Y-31347500D03*
D12*
G36*
X48679387Y-29090579D02*
G01*
X48756438Y-29142062D01*
X48807921Y-29219113D01*
X48826000Y-29310000D01*
X48826000Y-29885000D01*
X48807921Y-29975887D01*
X48756438Y-30052938D01*
X48679387Y-30104421D01*
X48588500Y-30122500D01*
X48113500Y-30122500D01*
X48022613Y-30104421D01*
X47945562Y-30052938D01*
X47894079Y-29975887D01*
X47876000Y-29885000D01*
X47876000Y-29310000D01*
X47894079Y-29219113D01*
X47945562Y-29142062D01*
X48022613Y-29090579D01*
X48113500Y-29072500D01*
X48588500Y-29072500D01*
X48679387Y-29090579D01*
X48679387Y-29090579D01*
G37*
D13*
X48351000Y-29597500D03*
D12*
G36*
X48679387Y-25725079D02*
G01*
X48756438Y-25776562D01*
X48807921Y-25853613D01*
X48826000Y-25944500D01*
X48826000Y-26519500D01*
X48807921Y-26610387D01*
X48756438Y-26687438D01*
X48679387Y-26738921D01*
X48588500Y-26757000D01*
X48113500Y-26757000D01*
X48022613Y-26738921D01*
X47945562Y-26687438D01*
X47894079Y-26610387D01*
X47876000Y-26519500D01*
X47876000Y-25944500D01*
X47894079Y-25853613D01*
X47945562Y-25776562D01*
X48022613Y-25725079D01*
X48113500Y-25707000D01*
X48588500Y-25707000D01*
X48679387Y-25725079D01*
X48679387Y-25725079D01*
G37*
D13*
X48351000Y-26232000D03*
D12*
G36*
X48679387Y-27475079D02*
G01*
X48756438Y-27526562D01*
X48807921Y-27603613D01*
X48826000Y-27694500D01*
X48826000Y-28269500D01*
X48807921Y-28360387D01*
X48756438Y-28437438D01*
X48679387Y-28488921D01*
X48588500Y-28507000D01*
X48113500Y-28507000D01*
X48022613Y-28488921D01*
X47945562Y-28437438D01*
X47894079Y-28360387D01*
X47876000Y-28269500D01*
X47876000Y-27694500D01*
X47894079Y-27603613D01*
X47945562Y-27526562D01*
X48022613Y-27475079D01*
X48113500Y-27457000D01*
X48588500Y-27457000D01*
X48679387Y-27475079D01*
X48679387Y-27475079D01*
G37*
D13*
X48351000Y-27982000D03*
D12*
G36*
X41959671Y-29044030D02*
G01*
X42040777Y-29098223D01*
X42094970Y-29179329D01*
X42114000Y-29275000D01*
X42114000Y-30200000D01*
X42094970Y-30295671D01*
X42040777Y-30376777D01*
X41959671Y-30430970D01*
X41864000Y-30450000D01*
X40614000Y-30450000D01*
X40518329Y-30430970D01*
X40437223Y-30376777D01*
X40383030Y-30295671D01*
X40364000Y-30200000D01*
X40364000Y-29275000D01*
X40383030Y-29179329D01*
X40437223Y-29098223D01*
X40518329Y-29044030D01*
X40614000Y-29025000D01*
X41864000Y-29025000D01*
X41959671Y-29044030D01*
X41959671Y-29044030D01*
G37*
D19*
X41239000Y-29737500D03*
D12*
G36*
X41959671Y-26069030D02*
G01*
X42040777Y-26123223D01*
X42094970Y-26204329D01*
X42114000Y-26300000D01*
X42114000Y-27225000D01*
X42094970Y-27320671D01*
X42040777Y-27401777D01*
X41959671Y-27455970D01*
X41864000Y-27475000D01*
X40614000Y-27475000D01*
X40518329Y-27455970D01*
X40437223Y-27401777D01*
X40383030Y-27320671D01*
X40364000Y-27225000D01*
X40364000Y-26300000D01*
X40383030Y-26204329D01*
X40437223Y-26123223D01*
X40518329Y-26069030D01*
X40614000Y-26050000D01*
X41864000Y-26050000D01*
X41959671Y-26069030D01*
X41959671Y-26069030D01*
G37*
D19*
X41239000Y-26762500D03*
D12*
G36*
X50203387Y-25725079D02*
G01*
X50280438Y-25776562D01*
X50331921Y-25853613D01*
X50350000Y-25944500D01*
X50350000Y-26519500D01*
X50331921Y-26610387D01*
X50280438Y-26687438D01*
X50203387Y-26738921D01*
X50112500Y-26757000D01*
X49637500Y-26757000D01*
X49546613Y-26738921D01*
X49469562Y-26687438D01*
X49418079Y-26610387D01*
X49400000Y-26519500D01*
X49400000Y-25944500D01*
X49418079Y-25853613D01*
X49469562Y-25776562D01*
X49546613Y-25725079D01*
X49637500Y-25707000D01*
X50112500Y-25707000D01*
X50203387Y-25725079D01*
X50203387Y-25725079D01*
G37*
D13*
X49875000Y-26232000D03*
D12*
G36*
X50203387Y-27475079D02*
G01*
X50280438Y-27526562D01*
X50331921Y-27603613D01*
X50350000Y-27694500D01*
X50350000Y-28269500D01*
X50331921Y-28360387D01*
X50280438Y-28437438D01*
X50203387Y-28488921D01*
X50112500Y-28507000D01*
X49637500Y-28507000D01*
X49546613Y-28488921D01*
X49469562Y-28437438D01*
X49418079Y-28360387D01*
X49400000Y-28269500D01*
X49400000Y-27694500D01*
X49418079Y-27603613D01*
X49469562Y-27526562D01*
X49546613Y-27475079D01*
X49637500Y-27457000D01*
X50112500Y-27457000D01*
X50203387Y-27475079D01*
X50203387Y-27475079D01*
G37*
D13*
X49875000Y-27982000D03*
D12*
G36*
X51727387Y-25725079D02*
G01*
X51804438Y-25776562D01*
X51855921Y-25853613D01*
X51874000Y-25944500D01*
X51874000Y-26519500D01*
X51855921Y-26610387D01*
X51804438Y-26687438D01*
X51727387Y-26738921D01*
X51636500Y-26757000D01*
X51161500Y-26757000D01*
X51070613Y-26738921D01*
X50993562Y-26687438D01*
X50942079Y-26610387D01*
X50924000Y-26519500D01*
X50924000Y-25944500D01*
X50942079Y-25853613D01*
X50993562Y-25776562D01*
X51070613Y-25725079D01*
X51161500Y-25707000D01*
X51636500Y-25707000D01*
X51727387Y-25725079D01*
X51727387Y-25725079D01*
G37*
D13*
X51399000Y-26232000D03*
D12*
G36*
X51727387Y-27475079D02*
G01*
X51804438Y-27526562D01*
X51855921Y-27603613D01*
X51874000Y-27694500D01*
X51874000Y-28269500D01*
X51855921Y-28360387D01*
X51804438Y-28437438D01*
X51727387Y-28488921D01*
X51636500Y-28507000D01*
X51161500Y-28507000D01*
X51070613Y-28488921D01*
X50993562Y-28437438D01*
X50942079Y-28360387D01*
X50924000Y-28269500D01*
X50924000Y-27694500D01*
X50942079Y-27603613D01*
X50993562Y-27526562D01*
X51070613Y-27475079D01*
X51161500Y-27457000D01*
X51636500Y-27457000D01*
X51727387Y-27475079D01*
X51727387Y-27475079D01*
G37*
D13*
X51399000Y-27982000D03*
D12*
G36*
X51728387Y-30818079D02*
G01*
X51805438Y-30869562D01*
X51856921Y-30946613D01*
X51875000Y-31037500D01*
X51875000Y-31612500D01*
X51856921Y-31703387D01*
X51805438Y-31780438D01*
X51728387Y-31831921D01*
X51637500Y-31850000D01*
X51162500Y-31850000D01*
X51071613Y-31831921D01*
X50994562Y-31780438D01*
X50943079Y-31703387D01*
X50925000Y-31612500D01*
X50925000Y-31037500D01*
X50943079Y-30946613D01*
X50994562Y-30869562D01*
X51071613Y-30818079D01*
X51162500Y-30800000D01*
X51637500Y-30800000D01*
X51728387Y-30818079D01*
X51728387Y-30818079D01*
G37*
D13*
X51400000Y-31325000D03*
D12*
G36*
X51728387Y-29068079D02*
G01*
X51805438Y-29119562D01*
X51856921Y-29196613D01*
X51875000Y-29287500D01*
X51875000Y-29862500D01*
X51856921Y-29953387D01*
X51805438Y-30030438D01*
X51728387Y-30081921D01*
X51637500Y-30100000D01*
X51162500Y-30100000D01*
X51071613Y-30081921D01*
X50994562Y-30030438D01*
X50943079Y-29953387D01*
X50925000Y-29862500D01*
X50925000Y-29287500D01*
X50943079Y-29196613D01*
X50994562Y-29119562D01*
X51071613Y-29068079D01*
X51162500Y-29050000D01*
X51637500Y-29050000D01*
X51728387Y-29068079D01*
X51728387Y-29068079D01*
G37*
D13*
X51400000Y-29575000D03*
D12*
G36*
X50203387Y-30777079D02*
G01*
X50280438Y-30828562D01*
X50331921Y-30905613D01*
X50350000Y-30996500D01*
X50350000Y-31571500D01*
X50331921Y-31662387D01*
X50280438Y-31739438D01*
X50203387Y-31790921D01*
X50112500Y-31809000D01*
X49637500Y-31809000D01*
X49546613Y-31790921D01*
X49469562Y-31739438D01*
X49418079Y-31662387D01*
X49400000Y-31571500D01*
X49400000Y-30996500D01*
X49418079Y-30905613D01*
X49469562Y-30828562D01*
X49546613Y-30777079D01*
X49637500Y-30759000D01*
X50112500Y-30759000D01*
X50203387Y-30777079D01*
X50203387Y-30777079D01*
G37*
D13*
X49875000Y-31284000D03*
D12*
G36*
X50203387Y-29027079D02*
G01*
X50280438Y-29078562D01*
X50331921Y-29155613D01*
X50350000Y-29246500D01*
X50350000Y-29821500D01*
X50331921Y-29912387D01*
X50280438Y-29989438D01*
X50203387Y-30040921D01*
X50112500Y-30059000D01*
X49637500Y-30059000D01*
X49546613Y-30040921D01*
X49469562Y-29989438D01*
X49418079Y-29912387D01*
X49400000Y-29821500D01*
X49400000Y-29246500D01*
X49418079Y-29155613D01*
X49469562Y-29078562D01*
X49546613Y-29027079D01*
X49637500Y-29009000D01*
X50112500Y-29009000D01*
X50203387Y-29027079D01*
X50203387Y-29027079D01*
G37*
D13*
X49875000Y-29534000D03*
M02*
