%FSLAX45Y45*%
G04 Gerber Fmt 4.5, Leading zero omitted, Abs format (unit mm)*
G04 Created by KiCad (PCBNEW (5.1.0-1220-ga833aeeac)) date 2019-08-17 01:52:46*
%MOMM*%
%LPD*%
G04 APERTURE LIST*
%ADD10C,0.100000*%
%ADD11C,0.200000*%
%ADD12C,0.300000*%
G04 APERTURE END LIST*
D10*
X3550000Y-2350000D02*
G75*
G02X3625000Y-2275000I75000J0D01*
G01*
X3625000Y-3375000D02*
G75*
G02X3550000Y-3300000I0J75000D01*
G01*
X6450000Y-3300000D02*
G75*
G02X6375000Y-3375000I-75000J0D01*
G01*
X6375000Y-2275000D02*
G75*
G02X6450000Y-2350000I0J-75000D01*
G01*
X3625000Y-3375000D02*
X6375000Y-3375000D01*
X3550000Y-2350000D02*
X3550000Y-3300000D01*
X6375000Y-2275000D02*
X3625000Y-2275000D01*
X6450000Y-3300000D02*
X6450000Y-2350000D01*
D11*
X5270000Y-2515000D02*
X5370000Y-2615000D01*
X5370000Y-2515000D02*
X5270000Y-2615000D01*
X5270000Y-3035000D02*
X5370000Y-3135000D01*
X5370000Y-3035000D02*
X5270000Y-3135000D01*
X5790000Y-2515000D02*
X5890000Y-2615000D01*
X5890000Y-2515000D02*
X5790000Y-2615000D01*
X5790000Y-3035000D02*
X5890000Y-3135000D01*
X5890000Y-3035000D02*
X5790000Y-3135000D01*
X6310000Y-2515000D02*
X6410000Y-2615000D01*
X6410000Y-2515000D02*
X6310000Y-2615000D01*
X6310000Y-3035000D02*
X6410000Y-3135000D01*
X6410000Y-3035000D02*
X6310000Y-3135000D01*
D12*
X3831428Y-3845714D02*
X3831428Y-3545714D01*
X3902857Y-3545714D01*
X3945714Y-3560000D01*
X3974286Y-3588571D01*
X3988571Y-3617143D01*
X4002857Y-3674286D01*
X4002857Y-3717143D01*
X3988571Y-3774286D01*
X3974286Y-3802857D01*
X3945714Y-3831429D01*
X3902857Y-3845714D01*
X3831428Y-3845714D01*
X4131428Y-3845714D02*
X4131428Y-3645714D01*
X4131428Y-3702857D02*
X4145714Y-3674286D01*
X4160000Y-3660000D01*
X4188571Y-3645714D01*
X4217143Y-3645714D01*
X4317143Y-3845714D02*
X4317143Y-3645714D01*
X4317143Y-3545714D02*
X4302857Y-3560000D01*
X4317143Y-3574286D01*
X4331428Y-3560000D01*
X4317143Y-3545714D01*
X4317143Y-3574286D01*
X4502857Y-3845714D02*
X4474286Y-3831429D01*
X4460000Y-3802857D01*
X4460000Y-3545714D01*
X4660000Y-3845714D02*
X4631428Y-3831429D01*
X4617143Y-3802857D01*
X4617143Y-3545714D01*
X5002857Y-3845714D02*
X5002857Y-3545714D01*
X5102857Y-3760000D01*
X5202857Y-3545714D01*
X5202857Y-3845714D01*
X5474286Y-3845714D02*
X5474286Y-3688571D01*
X5460000Y-3660000D01*
X5431428Y-3645714D01*
X5374286Y-3645714D01*
X5345714Y-3660000D01*
X5474286Y-3831429D02*
X5445714Y-3845714D01*
X5374286Y-3845714D01*
X5345714Y-3831429D01*
X5331428Y-3802857D01*
X5331428Y-3774286D01*
X5345714Y-3745714D01*
X5374286Y-3731429D01*
X5445714Y-3731429D01*
X5474286Y-3717143D01*
X5617143Y-3645714D02*
X5617143Y-3945714D01*
X5617143Y-3660000D02*
X5645714Y-3645714D01*
X5702857Y-3645714D01*
X5731428Y-3660000D01*
X5745714Y-3674286D01*
X5760000Y-3702857D01*
X5760000Y-3788571D01*
X5745714Y-3817143D01*
X5731428Y-3831429D01*
X5702857Y-3845714D01*
X5645714Y-3845714D01*
X5617143Y-3831429D01*
X5888571Y-3817143D02*
X5902857Y-3831429D01*
X5888571Y-3845714D01*
X5874286Y-3831429D01*
X5888571Y-3817143D01*
X5888571Y-3845714D01*
X5888571Y-3660000D02*
X5902857Y-3674286D01*
X5888571Y-3688571D01*
X5874286Y-3674286D01*
X5888571Y-3660000D01*
X5888571Y-3688571D01*
X3445000Y-4290000D02*
X3545000Y-4390000D01*
X3545000Y-4290000D02*
X3445000Y-4390000D01*
X3988571Y-4475714D02*
X3817143Y-4475714D01*
X3902857Y-4475714D02*
X3902857Y-4175714D01*
X3874286Y-4218572D01*
X3845714Y-4247143D01*
X3817143Y-4261429D01*
X4117143Y-4447143D02*
X4131428Y-4461429D01*
X4117143Y-4475714D01*
X4102857Y-4461429D01*
X4117143Y-4447143D01*
X4117143Y-4475714D01*
X4317143Y-4175714D02*
X4345714Y-4175714D01*
X4374286Y-4190000D01*
X4388571Y-4204286D01*
X4402857Y-4232857D01*
X4417143Y-4290000D01*
X4417143Y-4361429D01*
X4402857Y-4418572D01*
X4388571Y-4447143D01*
X4374286Y-4461429D01*
X4345714Y-4475714D01*
X4317143Y-4475714D01*
X4288571Y-4461429D01*
X4274286Y-4447143D01*
X4260000Y-4418572D01*
X4245714Y-4361429D01*
X4245714Y-4290000D01*
X4260000Y-4232857D01*
X4274286Y-4204286D01*
X4288571Y-4190000D01*
X4317143Y-4175714D01*
X4602857Y-4175714D02*
X4631428Y-4175714D01*
X4660000Y-4190000D01*
X4674286Y-4204286D01*
X4688571Y-4232857D01*
X4702857Y-4290000D01*
X4702857Y-4361429D01*
X4688571Y-4418572D01*
X4674286Y-4447143D01*
X4660000Y-4461429D01*
X4631428Y-4475714D01*
X4602857Y-4475714D01*
X4574286Y-4461429D01*
X4560000Y-4447143D01*
X4545714Y-4418572D01*
X4531428Y-4361429D01*
X4531428Y-4290000D01*
X4545714Y-4232857D01*
X4560000Y-4204286D01*
X4574286Y-4190000D01*
X4602857Y-4175714D01*
X4831428Y-4475714D02*
X4831428Y-4275714D01*
X4831428Y-4304286D02*
X4845714Y-4290000D01*
X4874286Y-4275714D01*
X4917143Y-4275714D01*
X4945714Y-4290000D01*
X4960000Y-4318572D01*
X4960000Y-4475714D01*
X4960000Y-4318572D02*
X4974286Y-4290000D01*
X5002857Y-4275714D01*
X5045714Y-4275714D01*
X5074286Y-4290000D01*
X5088571Y-4318572D01*
X5088571Y-4475714D01*
X5231428Y-4475714D02*
X5231428Y-4275714D01*
X5231428Y-4304286D02*
X5245714Y-4290000D01*
X5274286Y-4275714D01*
X5317143Y-4275714D01*
X5345714Y-4290000D01*
X5360000Y-4318572D01*
X5360000Y-4475714D01*
X5360000Y-4318572D02*
X5374286Y-4290000D01*
X5402857Y-4275714D01*
X5445714Y-4275714D01*
X5474286Y-4290000D01*
X5488571Y-4318572D01*
X5488571Y-4475714D01*
X6074286Y-4161429D02*
X5817143Y-4547143D01*
X6460000Y-4175714D02*
X6488571Y-4175714D01*
X6517143Y-4190000D01*
X6531428Y-4204286D01*
X6545714Y-4232857D01*
X6560000Y-4290000D01*
X6560000Y-4361429D01*
X6545714Y-4418572D01*
X6531428Y-4447143D01*
X6517143Y-4461429D01*
X6488571Y-4475714D01*
X6460000Y-4475714D01*
X6431428Y-4461429D01*
X6417143Y-4447143D01*
X6402857Y-4418572D01*
X6388571Y-4361429D01*
X6388571Y-4290000D01*
X6402857Y-4232857D01*
X6417143Y-4204286D01*
X6431428Y-4190000D01*
X6460000Y-4175714D01*
X6688571Y-4447143D02*
X6702857Y-4461429D01*
X6688571Y-4475714D01*
X6674286Y-4461429D01*
X6688571Y-4447143D01*
X6688571Y-4475714D01*
X6888571Y-4175714D02*
X6917143Y-4175714D01*
X6945714Y-4190000D01*
X6960000Y-4204286D01*
X6974286Y-4232857D01*
X6988571Y-4290000D01*
X6988571Y-4361429D01*
X6974286Y-4418572D01*
X6960000Y-4447143D01*
X6945714Y-4461429D01*
X6917143Y-4475714D01*
X6888571Y-4475714D01*
X6860000Y-4461429D01*
X6845714Y-4447143D01*
X6831428Y-4418572D01*
X6817143Y-4361429D01*
X6817143Y-4290000D01*
X6831428Y-4232857D01*
X6845714Y-4204286D01*
X6860000Y-4190000D01*
X6888571Y-4175714D01*
X7088571Y-4175714D02*
X7274286Y-4175714D01*
X7174286Y-4290000D01*
X7217143Y-4290000D01*
X7245714Y-4304286D01*
X7260000Y-4318572D01*
X7274286Y-4347143D01*
X7274286Y-4418572D01*
X7260000Y-4447143D01*
X7245714Y-4461429D01*
X7217143Y-4475714D01*
X7131428Y-4475714D01*
X7102857Y-4461429D01*
X7088571Y-4447143D01*
X7417143Y-4475714D02*
X7474286Y-4475714D01*
X7502857Y-4461429D01*
X7517143Y-4447143D01*
X7545714Y-4404286D01*
X7560000Y-4347143D01*
X7560000Y-4232857D01*
X7545714Y-4204286D01*
X7531428Y-4190000D01*
X7502857Y-4175714D01*
X7445714Y-4175714D01*
X7417143Y-4190000D01*
X7402857Y-4204286D01*
X7388571Y-4232857D01*
X7388571Y-4304286D01*
X7402857Y-4332857D01*
X7417143Y-4347143D01*
X7445714Y-4361429D01*
X7502857Y-4361429D01*
X7531428Y-4347143D01*
X7545714Y-4332857D01*
X7560000Y-4304286D01*
X7674286Y-4175714D02*
X7674286Y-4232857D01*
X7788571Y-4175714D02*
X7788571Y-4232857D01*
X8231428Y-4590000D02*
X8217143Y-4575714D01*
X8188571Y-4532857D01*
X8174286Y-4504286D01*
X8160000Y-4461429D01*
X8145714Y-4390000D01*
X8145714Y-4332857D01*
X8160000Y-4261429D01*
X8174286Y-4218572D01*
X8188571Y-4190000D01*
X8217143Y-4147143D01*
X8231428Y-4132857D01*
X8474286Y-4175714D02*
X8417143Y-4175714D01*
X8388571Y-4190000D01*
X8374286Y-4204286D01*
X8345714Y-4247143D01*
X8331428Y-4304286D01*
X8331428Y-4418572D01*
X8345714Y-4447143D01*
X8360000Y-4461429D01*
X8388571Y-4475714D01*
X8445714Y-4475714D01*
X8474286Y-4461429D01*
X8488571Y-4447143D01*
X8502857Y-4418572D01*
X8502857Y-4347143D01*
X8488571Y-4318572D01*
X8474286Y-4304286D01*
X8445714Y-4290000D01*
X8388571Y-4290000D01*
X8360000Y-4304286D01*
X8345714Y-4318572D01*
X8331428Y-4347143D01*
X8860000Y-4475714D02*
X8860000Y-4175714D01*
X8988571Y-4475714D02*
X8988571Y-4318572D01*
X8974286Y-4290000D01*
X8945714Y-4275714D01*
X8902857Y-4275714D01*
X8874286Y-4290000D01*
X8860000Y-4304286D01*
X9174286Y-4475714D02*
X9145714Y-4461429D01*
X9131428Y-4447143D01*
X9117143Y-4418572D01*
X9117143Y-4332857D01*
X9131428Y-4304286D01*
X9145714Y-4290000D01*
X9174286Y-4275714D01*
X9217143Y-4275714D01*
X9245714Y-4290000D01*
X9260000Y-4304286D01*
X9274286Y-4332857D01*
X9274286Y-4418572D01*
X9260000Y-4447143D01*
X9245714Y-4461429D01*
X9217143Y-4475714D01*
X9174286Y-4475714D01*
X9445714Y-4475714D02*
X9417143Y-4461429D01*
X9402857Y-4432857D01*
X9402857Y-4175714D01*
X9674286Y-4461429D02*
X9645714Y-4475714D01*
X9588571Y-4475714D01*
X9560000Y-4461429D01*
X9545714Y-4432857D01*
X9545714Y-4318572D01*
X9560000Y-4290000D01*
X9588571Y-4275714D01*
X9645714Y-4275714D01*
X9674286Y-4290000D01*
X9688571Y-4318572D01*
X9688571Y-4347143D01*
X9545714Y-4375714D01*
X9802857Y-4461429D02*
X9831428Y-4475714D01*
X9888571Y-4475714D01*
X9917143Y-4461429D01*
X9931428Y-4432857D01*
X9931428Y-4418572D01*
X9917143Y-4390000D01*
X9888571Y-4375714D01*
X9845714Y-4375714D01*
X9817143Y-4361429D01*
X9802857Y-4332857D01*
X9802857Y-4318572D01*
X9817143Y-4290000D01*
X9845714Y-4275714D01*
X9888571Y-4275714D01*
X9917143Y-4290000D01*
X10031428Y-4590000D02*
X10045714Y-4575714D01*
X10074286Y-4532857D01*
X10088571Y-4504286D01*
X10102857Y-4461429D01*
X10117143Y-4390000D01*
X10117143Y-4332857D01*
X10102857Y-4261429D01*
X10088571Y-4218572D01*
X10074286Y-4190000D01*
X10045714Y-4147143D01*
X10031428Y-4132857D01*
X10574286Y-4590000D02*
X10560000Y-4575714D01*
X10531428Y-4532857D01*
X10517143Y-4504286D01*
X10502857Y-4461429D01*
X10488571Y-4390000D01*
X10488571Y-4332857D01*
X10502857Y-4261429D01*
X10517143Y-4218572D01*
X10531428Y-4190000D01*
X10560000Y-4147143D01*
X10574286Y-4132857D01*
X10688571Y-4275714D02*
X10688571Y-4475714D01*
X10688571Y-4304286D02*
X10702857Y-4290000D01*
X10731428Y-4275714D01*
X10774286Y-4275714D01*
X10802857Y-4290000D01*
X10817143Y-4318572D01*
X10817143Y-4475714D01*
X11002857Y-4475714D02*
X10974286Y-4461429D01*
X10960000Y-4447143D01*
X10945714Y-4418572D01*
X10945714Y-4332857D01*
X10960000Y-4304286D01*
X10974286Y-4290000D01*
X11002857Y-4275714D01*
X11045714Y-4275714D01*
X11074286Y-4290000D01*
X11088571Y-4304286D01*
X11102857Y-4332857D01*
X11102857Y-4418572D01*
X11088571Y-4447143D01*
X11074286Y-4461429D01*
X11045714Y-4475714D01*
X11002857Y-4475714D01*
X11188571Y-4275714D02*
X11302857Y-4275714D01*
X11231428Y-4175714D02*
X11231428Y-4432857D01*
X11245714Y-4461429D01*
X11274286Y-4475714D01*
X11302857Y-4475714D01*
X11631428Y-4275714D02*
X11631428Y-4575714D01*
X11631428Y-4290000D02*
X11660000Y-4275714D01*
X11717143Y-4275714D01*
X11745714Y-4290000D01*
X11760000Y-4304286D01*
X11774286Y-4332857D01*
X11774286Y-4418572D01*
X11760000Y-4447143D01*
X11745714Y-4461429D01*
X11717143Y-4475714D01*
X11660000Y-4475714D01*
X11631428Y-4461429D01*
X11945714Y-4475714D02*
X11917143Y-4461429D01*
X11902857Y-4432857D01*
X11902857Y-4175714D01*
X12188571Y-4475714D02*
X12188571Y-4318572D01*
X12174286Y-4290000D01*
X12145714Y-4275714D01*
X12088571Y-4275714D01*
X12060000Y-4290000D01*
X12188571Y-4461429D02*
X12160000Y-4475714D01*
X12088571Y-4475714D01*
X12060000Y-4461429D01*
X12045714Y-4432857D01*
X12045714Y-4404286D01*
X12060000Y-4375714D01*
X12088571Y-4361429D01*
X12160000Y-4361429D01*
X12188571Y-4347143D01*
X12288571Y-4275714D02*
X12402857Y-4275714D01*
X12331428Y-4175714D02*
X12331428Y-4432857D01*
X12345714Y-4461429D01*
X12374286Y-4475714D01*
X12402857Y-4475714D01*
X12617143Y-4461429D02*
X12588571Y-4475714D01*
X12531428Y-4475714D01*
X12502857Y-4461429D01*
X12488571Y-4432857D01*
X12488571Y-4318572D01*
X12502857Y-4290000D01*
X12531428Y-4275714D01*
X12588571Y-4275714D01*
X12617143Y-4290000D01*
X12631428Y-4318572D01*
X12631428Y-4347143D01*
X12488571Y-4375714D01*
X12888571Y-4475714D02*
X12888571Y-4175714D01*
X12888571Y-4461429D02*
X12860000Y-4475714D01*
X12802857Y-4475714D01*
X12774286Y-4461429D01*
X12760000Y-4447143D01*
X12745714Y-4418572D01*
X12745714Y-4332857D01*
X12760000Y-4304286D01*
X12774286Y-4290000D01*
X12802857Y-4275714D01*
X12860000Y-4275714D01*
X12888571Y-4290000D01*
X13002857Y-4590000D02*
X13017143Y-4575714D01*
X13045714Y-4532857D01*
X13060000Y-4504286D01*
X13074286Y-4461429D01*
X13088571Y-4390000D01*
X13088571Y-4332857D01*
X13074286Y-4261429D01*
X13060000Y-4218572D01*
X13045714Y-4190000D01*
X13017143Y-4147143D01*
X13002857Y-4132857D01*
M02*
