%TF.GenerationSoftware,KiCad,Pcbnew,(5.1.0-1220-ga833aeeac)*%
%TF.CreationDate,2019-07-10T21:20:11+03:00*%
%TF.ProjectId,proto_II_sensor_kicad,70726f74-6f5f-4494-995f-73656e736f72,rev?*%
%TF.SameCoordinates,Original*%
%TF.FileFunction,Legend,Top*%
%TF.FilePolarity,Positive*%
%FSLAX46Y46*%
G04 Gerber Fmt 4.6, Leading zero omitted, Abs format (unit mm)*
G04 Created by KiCad (PCBNEW (5.1.0-1220-ga833aeeac)) date 2019-07-10 21:20:11*
%MOMM*%
%LPD*%
G04 APERTURE LIST*
%ADD10C,0.150000*%
%ADD11C,0.120000*%
%ADD12C,1.000000*%
%ADD13R,0.800000X0.900000*%
%ADD14C,0.160000*%
%ADD15C,0.950000*%
%ADD16C,0.875000*%
%ADD17C,1.425000*%
%ADD18R,4.000000X1.000000*%
G04 APERTURE END LIST*
D10*
X128488095Y-132000000D02*
X128392857Y-131952380D01*
X128250000Y-131952380D01*
X128107142Y-132000000D01*
X128011904Y-132095238D01*
X127964285Y-132190476D01*
X127916666Y-132380952D01*
X127916666Y-132523809D01*
X127964285Y-132714285D01*
X128011904Y-132809523D01*
X128107142Y-132904761D01*
X128250000Y-132952380D01*
X128345238Y-132952380D01*
X128488095Y-132904761D01*
X128535714Y-132857142D01*
X128535714Y-132523809D01*
X128345238Y-132523809D01*
X128964285Y-132952380D02*
X128964285Y-131952380D01*
X129535714Y-132952380D01*
X129535714Y-131952380D01*
X130011904Y-132952380D02*
X130011904Y-131952380D01*
X130250000Y-131952380D01*
X130392857Y-132000000D01*
X130488095Y-132095238D01*
X130535714Y-132190476D01*
X130583333Y-132380952D01*
X130583333Y-132523809D01*
X130535714Y-132714285D01*
X130488095Y-132809523D01*
X130392857Y-132904761D01*
X130250000Y-132952380D01*
X130011904Y-132952380D01*
X129559523Y-133452380D02*
X129083333Y-133452380D01*
X129035714Y-133928571D01*
X129083333Y-133880952D01*
X129178571Y-133833333D01*
X129416666Y-133833333D01*
X129511904Y-133880952D01*
X129559523Y-133928571D01*
X129607142Y-134023809D01*
X129607142Y-134261904D01*
X129559523Y-134357142D01*
X129511904Y-134404761D01*
X129416666Y-134452380D01*
X129178571Y-134452380D01*
X129083333Y-134404761D01*
X129035714Y-134357142D01*
X129892857Y-133452380D02*
X130226190Y-134452380D01*
X130559523Y-133452380D01*
X128500000Y-124500000D02*
X127500000Y-127000000D01*
X128863721Y-124499997D02*
X128967253Y-124390649D01*
X129067876Y-124174862D01*
X129064968Y-124068422D01*
X129041935Y-124005140D01*
X128975745Y-123921733D01*
X128889430Y-123881484D01*
X128782990Y-123884392D01*
X128719708Y-123907425D01*
X128636301Y-123973615D01*
X128512645Y-124126120D01*
X128429238Y-124192311D01*
X128365956Y-124215343D01*
X128259516Y-124218252D01*
X128173201Y-124178002D01*
X128107011Y-124094595D01*
X128083978Y-124031313D01*
X128081070Y-123924873D01*
X128181693Y-123709086D01*
X128285225Y-123599738D01*
X129484678Y-123055674D02*
X129507711Y-123118957D01*
X129490495Y-123268554D01*
X129450245Y-123354869D01*
X129346714Y-123464217D01*
X129220149Y-123510282D01*
X129113710Y-123513191D01*
X128920955Y-123475849D01*
X128791482Y-123415475D01*
X128638977Y-123291819D01*
X128572787Y-123208412D01*
X128526721Y-123081848D01*
X128543937Y-122932251D01*
X128584187Y-122845936D01*
X128687718Y-122736588D01*
X128751001Y-122713555D01*
X129953362Y-122275931D02*
X129752115Y-122707506D01*
X128845808Y-122284888D01*
D11*
X137215356Y-126890000D02*
X136285356Y-126890000D01*
X134055356Y-126890000D02*
X134985356Y-126890000D01*
X134055356Y-126890000D02*
X134055356Y-129050000D01*
X137215356Y-126890000D02*
X137215356Y-128350000D01*
X129953733Y-128765000D02*
X130296267Y-128765000D01*
X129953733Y-129785000D02*
X130296267Y-129785000D01*
X129953733Y-127240000D02*
X130296267Y-127240000D01*
X129953733Y-128260000D02*
X130296267Y-128260000D01*
X135887779Y-130660000D02*
X135562221Y-130660000D01*
X135887779Y-129640000D02*
X135562221Y-129640000D01*
X135349722Y-124565000D02*
X135675280Y-124565000D01*
X135349722Y-125585000D02*
X135675280Y-125585000D01*
X131740000Y-125139564D02*
X131740000Y-123935436D01*
X133560000Y-125139564D02*
X133560000Y-123935436D01*
D10*
X132802380Y-129061904D02*
X133611904Y-129061904D01*
X133707142Y-129014285D01*
X133754761Y-128966666D01*
X133802380Y-128871428D01*
X133802380Y-128680952D01*
X133754761Y-128585714D01*
X133707142Y-128538095D01*
X133611904Y-128490476D01*
X132802380Y-128490476D01*
X133802380Y-127490476D02*
X133802380Y-128061904D01*
X133802380Y-127776190D02*
X132802380Y-127776190D01*
X132945238Y-127871428D01*
X133040476Y-127966666D01*
X133088095Y-128061904D01*
X128758333Y-131202380D02*
X128425000Y-130726190D01*
X128186904Y-131202380D02*
X128186904Y-130202380D01*
X128567857Y-130202380D01*
X128663095Y-130250000D01*
X128710714Y-130297619D01*
X128758333Y-130392857D01*
X128758333Y-130535714D01*
X128710714Y-130630952D01*
X128663095Y-130678571D01*
X128567857Y-130726190D01*
X128186904Y-130726190D01*
X129615476Y-130535714D02*
X129615476Y-131202380D01*
X129377380Y-130154761D02*
X129139285Y-130869047D01*
X129758333Y-130869047D01*
X128633333Y-126852380D02*
X128300000Y-126376190D01*
X128061904Y-126852380D02*
X128061904Y-125852380D01*
X128442857Y-125852380D01*
X128538095Y-125900000D01*
X128585714Y-125947619D01*
X128633333Y-126042857D01*
X128633333Y-126185714D01*
X128585714Y-126280952D01*
X128538095Y-126328571D01*
X128442857Y-126376190D01*
X128061904Y-126376190D01*
X128966666Y-125852380D02*
X129585714Y-125852380D01*
X129252380Y-126233333D01*
X129395238Y-126233333D01*
X129490476Y-126280952D01*
X129538095Y-126328571D01*
X129585714Y-126423809D01*
X129585714Y-126661904D01*
X129538095Y-126757142D01*
X129490476Y-126804761D01*
X129395238Y-126852380D01*
X129109523Y-126852380D01*
X129014285Y-126804761D01*
X128966666Y-126757142D01*
X136133333Y-131982142D02*
X136085714Y-132029761D01*
X135942857Y-132077380D01*
X135847619Y-132077380D01*
X135704761Y-132029761D01*
X135609523Y-131934523D01*
X135561904Y-131839285D01*
X135514285Y-131648809D01*
X135514285Y-131505952D01*
X135561904Y-131315476D01*
X135609523Y-131220238D01*
X135704761Y-131125000D01*
X135847619Y-131077380D01*
X135942857Y-131077380D01*
X136085714Y-131125000D01*
X136133333Y-131172619D01*
X136609523Y-132077380D02*
X136800000Y-132077380D01*
X136895238Y-132029761D01*
X136942857Y-131982142D01*
X137038095Y-131839285D01*
X137085714Y-131648809D01*
X137085714Y-131267857D01*
X137038095Y-131172619D01*
X136990476Y-131125000D01*
X136895238Y-131077380D01*
X136704761Y-131077380D01*
X136609523Y-131125000D01*
X136561904Y-131172619D01*
X136514285Y-131267857D01*
X136514285Y-131505952D01*
X136561904Y-131601190D01*
X136609523Y-131648809D01*
X136704761Y-131696428D01*
X136895238Y-131696428D01*
X136990476Y-131648809D01*
X137038095Y-131601190D01*
X137085714Y-131505952D01*
X135083333Y-124032142D02*
X135035714Y-124079761D01*
X134892857Y-124127380D01*
X134797619Y-124127380D01*
X134654761Y-124079761D01*
X134559523Y-123984523D01*
X134511904Y-123889285D01*
X134464285Y-123698809D01*
X134464285Y-123555952D01*
X134511904Y-123365476D01*
X134559523Y-123270238D01*
X134654761Y-123175000D01*
X134797619Y-123127380D01*
X134892857Y-123127380D01*
X135035714Y-123175000D01*
X135083333Y-123222619D01*
X135654761Y-123555952D02*
X135559523Y-123508333D01*
X135511904Y-123460714D01*
X135464285Y-123365476D01*
X135464285Y-123317857D01*
X135511904Y-123222619D01*
X135559523Y-123175000D01*
X135654761Y-123127380D01*
X135845238Y-123127380D01*
X135940476Y-123175000D01*
X135988095Y-123222619D01*
X136035714Y-123317857D01*
X136035714Y-123365476D01*
X135988095Y-123460714D01*
X135940476Y-123508333D01*
X135845238Y-123555952D01*
X135654761Y-123555952D01*
X135559523Y-123603571D01*
X135511904Y-123651190D01*
X135464285Y-123746428D01*
X135464285Y-123936904D01*
X135511904Y-124032142D01*
X135559523Y-124079761D01*
X135654761Y-124127380D01*
X135845238Y-124127380D01*
X135940476Y-124079761D01*
X135988095Y-124032142D01*
X136035714Y-123936904D01*
X136035714Y-123746428D01*
X135988095Y-123651190D01*
X135940476Y-123603571D01*
X135845238Y-123555952D01*
X131187142Y-124704166D02*
X131234761Y-124751785D01*
X131282380Y-124894642D01*
X131282380Y-124989880D01*
X131234761Y-125132738D01*
X131139523Y-125227976D01*
X131044285Y-125275595D01*
X130853809Y-125323214D01*
X130710952Y-125323214D01*
X130520476Y-125275595D01*
X130425238Y-125227976D01*
X130330000Y-125132738D01*
X130282380Y-124989880D01*
X130282380Y-124894642D01*
X130330000Y-124751785D01*
X130377619Y-124704166D01*
X130282380Y-124370833D02*
X130282380Y-123704166D01*
X131282380Y-124132738D01*
X125916666Y-125952380D02*
X125916666Y-126666666D01*
X125869047Y-126809523D01*
X125773809Y-126904761D01*
X125630952Y-126952380D01*
X125535714Y-126952380D01*
X126345238Y-126047619D02*
X126392857Y-126000000D01*
X126488095Y-125952380D01*
X126726190Y-125952380D01*
X126821428Y-126000000D01*
X126869047Y-126047619D01*
X126916666Y-126142857D01*
X126916666Y-126238095D01*
X126869047Y-126380952D01*
X126297619Y-126952380D01*
X126916666Y-126952380D01*
X132416666Y-130527380D02*
X132416666Y-131241666D01*
X132369047Y-131384523D01*
X132273809Y-131479761D01*
X132130952Y-131527380D01*
X132035714Y-131527380D01*
X133416666Y-131527380D02*
X132845238Y-131527380D01*
X133130952Y-131527380D02*
X133130952Y-130527380D01*
X133035714Y-130670238D01*
X132940476Y-130765476D01*
X132845238Y-130813095D01*
%LPC*%
D12*
X125075000Y-131050000D03*
X130275000Y-131050000D03*
X125075000Y-125850000D03*
X130275000Y-125850000D03*
D13*
X135635356Y-126650000D03*
X136585356Y-128650000D03*
X134685356Y-128650000D03*
D14*
G36*
X131378387Y-128818079D02*
G01*
X131455438Y-128869562D01*
X131506921Y-128946613D01*
X131525000Y-129037500D01*
X131525000Y-129512500D01*
X131506921Y-129603387D01*
X131455438Y-129680438D01*
X131378387Y-129731921D01*
X131287500Y-129750000D01*
X130712500Y-129750000D01*
X130621613Y-129731921D01*
X130544562Y-129680438D01*
X130493079Y-129603387D01*
X130475000Y-129512500D01*
X130475000Y-129037500D01*
X130493079Y-128946613D01*
X130544562Y-128869562D01*
X130621613Y-128818079D01*
X130712500Y-128800000D01*
X131287500Y-128800000D01*
X131378387Y-128818079D01*
X131378387Y-128818079D01*
G37*
D15*
X131000000Y-129275000D03*
D14*
G36*
X129628387Y-128818079D02*
G01*
X129705438Y-128869562D01*
X129756921Y-128946613D01*
X129775000Y-129037500D01*
X129775000Y-129512500D01*
X129756921Y-129603387D01*
X129705438Y-129680438D01*
X129628387Y-129731921D01*
X129537500Y-129750000D01*
X128962500Y-129750000D01*
X128871613Y-129731921D01*
X128794562Y-129680438D01*
X128743079Y-129603387D01*
X128725000Y-129512500D01*
X128725000Y-129037500D01*
X128743079Y-128946613D01*
X128794562Y-128869562D01*
X128871613Y-128818079D01*
X128962500Y-128800000D01*
X129537500Y-128800000D01*
X129628387Y-128818079D01*
X129628387Y-128818079D01*
G37*
D15*
X129250000Y-129275000D03*
D14*
G36*
X131378387Y-127293079D02*
G01*
X131455438Y-127344562D01*
X131506921Y-127421613D01*
X131525000Y-127512500D01*
X131525000Y-127987500D01*
X131506921Y-128078387D01*
X131455438Y-128155438D01*
X131378387Y-128206921D01*
X131287500Y-128225000D01*
X130712500Y-128225000D01*
X130621613Y-128206921D01*
X130544562Y-128155438D01*
X130493079Y-128078387D01*
X130475000Y-127987500D01*
X130475000Y-127512500D01*
X130493079Y-127421613D01*
X130544562Y-127344562D01*
X130621613Y-127293079D01*
X130712500Y-127275000D01*
X131287500Y-127275000D01*
X131378387Y-127293079D01*
X131378387Y-127293079D01*
G37*
D15*
X131000000Y-127750000D03*
D14*
G36*
X129628387Y-127293079D02*
G01*
X129705438Y-127344562D01*
X129756921Y-127421613D01*
X129775000Y-127512500D01*
X129775000Y-127987500D01*
X129756921Y-128078387D01*
X129705438Y-128155438D01*
X129628387Y-128206921D01*
X129537500Y-128225000D01*
X128962500Y-128225000D01*
X128871613Y-128206921D01*
X128794562Y-128155438D01*
X128743079Y-128078387D01*
X128725000Y-127987500D01*
X128725000Y-127512500D01*
X128743079Y-127421613D01*
X128794562Y-127344562D01*
X128871613Y-127293079D01*
X128962500Y-127275000D01*
X129537500Y-127275000D01*
X129628387Y-127293079D01*
X129628387Y-127293079D01*
G37*
D15*
X129250000Y-127750000D03*
D14*
G36*
X135239962Y-129691651D02*
G01*
X135310930Y-129739070D01*
X135358349Y-129810038D01*
X135375000Y-129893750D01*
X135375000Y-130406250D01*
X135358349Y-130489962D01*
X135310930Y-130560930D01*
X135239962Y-130608349D01*
X135156250Y-130625000D01*
X134718750Y-130625000D01*
X134635038Y-130608349D01*
X134564070Y-130560930D01*
X134516651Y-130489962D01*
X134500000Y-130406250D01*
X134500000Y-129893750D01*
X134516651Y-129810038D01*
X134564070Y-129739070D01*
X134635038Y-129691651D01*
X134718750Y-129675000D01*
X135156250Y-129675000D01*
X135239962Y-129691651D01*
X135239962Y-129691651D01*
G37*
D16*
X134937500Y-130150000D03*
D14*
G36*
X136814962Y-129691651D02*
G01*
X136885930Y-129739070D01*
X136933349Y-129810038D01*
X136950000Y-129893750D01*
X136950000Y-130406250D01*
X136933349Y-130489962D01*
X136885930Y-130560930D01*
X136814962Y-130608349D01*
X136731250Y-130625000D01*
X136293750Y-130625000D01*
X136210038Y-130608349D01*
X136139070Y-130560930D01*
X136091651Y-130489962D01*
X136075000Y-130406250D01*
X136075000Y-129893750D01*
X136091651Y-129810038D01*
X136139070Y-129739070D01*
X136210038Y-129691651D01*
X136293750Y-129675000D01*
X136731250Y-129675000D01*
X136814962Y-129691651D01*
X136814962Y-129691651D01*
G37*
D16*
X136512500Y-130150000D03*
D14*
G36*
X136602463Y-124616651D02*
G01*
X136673431Y-124664070D01*
X136720850Y-124735038D01*
X136737501Y-124818750D01*
X136737501Y-125331250D01*
X136720850Y-125414962D01*
X136673431Y-125485930D01*
X136602463Y-125533349D01*
X136518751Y-125550000D01*
X136081251Y-125550000D01*
X135997539Y-125533349D01*
X135926571Y-125485930D01*
X135879152Y-125414962D01*
X135862501Y-125331250D01*
X135862501Y-124818750D01*
X135879152Y-124735038D01*
X135926571Y-124664070D01*
X135997539Y-124616651D01*
X136081251Y-124600000D01*
X136518751Y-124600000D01*
X136602463Y-124616651D01*
X136602463Y-124616651D01*
G37*
D16*
X136300001Y-125075000D03*
D14*
G36*
X135027463Y-124616651D02*
G01*
X135098431Y-124664070D01*
X135145850Y-124735038D01*
X135162501Y-124818750D01*
X135162501Y-125331250D01*
X135145850Y-125414962D01*
X135098431Y-125485930D01*
X135027463Y-125533349D01*
X134943751Y-125550000D01*
X134506251Y-125550000D01*
X134422539Y-125533349D01*
X134351571Y-125485930D01*
X134304152Y-125414962D01*
X134287501Y-125331250D01*
X134287501Y-124818750D01*
X134304152Y-124735038D01*
X134351571Y-124664070D01*
X134422539Y-124616651D01*
X134506251Y-124600000D01*
X134943751Y-124600000D01*
X135027463Y-124616651D01*
X135027463Y-124616651D01*
G37*
D16*
X134725001Y-125075000D03*
D14*
G36*
X133370671Y-122356530D02*
G01*
X133451777Y-122410723D01*
X133505970Y-122491829D01*
X133525000Y-122587500D01*
X133525000Y-123512500D01*
X133505970Y-123608171D01*
X133451777Y-123689277D01*
X133370671Y-123743470D01*
X133275000Y-123762500D01*
X132025000Y-123762500D01*
X131929329Y-123743470D01*
X131848223Y-123689277D01*
X131794030Y-123608171D01*
X131775000Y-123512500D01*
X131775000Y-122587500D01*
X131794030Y-122491829D01*
X131848223Y-122410723D01*
X131929329Y-122356530D01*
X132025000Y-122337500D01*
X133275000Y-122337500D01*
X133370671Y-122356530D01*
X133370671Y-122356530D01*
G37*
D17*
X132650000Y-123050000D03*
D14*
G36*
X133370671Y-125331530D02*
G01*
X133451777Y-125385723D01*
X133505970Y-125466829D01*
X133525000Y-125562500D01*
X133525000Y-126487500D01*
X133505970Y-126583171D01*
X133451777Y-126664277D01*
X133370671Y-126718470D01*
X133275000Y-126737500D01*
X132025000Y-126737500D01*
X131929329Y-126718470D01*
X131848223Y-126664277D01*
X131794030Y-126583171D01*
X131775000Y-126487500D01*
X131775000Y-125562500D01*
X131794030Y-125466829D01*
X131848223Y-125385723D01*
X131929329Y-125331530D01*
X132025000Y-125312500D01*
X133275000Y-125312500D01*
X133370671Y-125331530D01*
X133370671Y-125331530D01*
G37*
D17*
X132650000Y-126025000D03*
D18*
X126275000Y-129150000D03*
X126275000Y-127750000D03*
X133125000Y-132525000D03*
X133125000Y-133925000D03*
M02*
