G04 #@! TF.GenerationSoftware,KiCad,Pcbnew,(5.1.0-1220-ga833aeeac)*
G04 #@! TF.CreationDate,2019-08-17T01:52:11+03:00*
G04 #@! TF.ProjectId,proto_II_sensor_kicad,70726f74-6f5f-4494-995f-73656e736f72,rev?*
G04 #@! TF.SameCoordinates,Original*
G04 #@! TF.FileFunction,Copper,L1,Top*
G04 #@! TF.FilePolarity,Positive*
%FSLAX46Y46*%
G04 Gerber Fmt 4.6, Leading zero omitted, Abs format (unit mm)*
G04 Created by KiCad (PCBNEW (5.1.0-1220-ga833aeeac)) date 2019-08-17 01:52:11*
%MOMM*%
%LPD*%
G04 APERTURE LIST*
%ADD10R,4.000000X2.000000*%
%ADD11C,0.160000*%
%ADD12C,0.950000*%
%ADD13C,0.500000*%
%ADD14C,1.500000*%
%ADD15C,0.400000*%
%ADD16R,2.000000X0.350000*%
%ADD17R,0.800000X0.900000*%
%ADD18C,1.425000*%
%ADD19C,0.800000*%
%ADD20C,0.250000*%
%ADD21C,0.400000*%
%ADD22C,0.254000*%
G04 APERTURE END LIST*
D10*
X37800000Y-30750000D03*
X37800000Y-25750000D03*
D11*
G36*
X45314387Y-30269579D02*
G01*
X45391438Y-30321062D01*
X45442921Y-30398113D01*
X45461000Y-30489000D01*
X45461000Y-30964000D01*
X45442921Y-31054887D01*
X45391438Y-31131938D01*
X45314387Y-31183421D01*
X45223500Y-31201500D01*
X44648500Y-31201500D01*
X44557613Y-31183421D01*
X44480562Y-31131938D01*
X44429079Y-31054887D01*
X44411000Y-30964000D01*
X44411000Y-30489000D01*
X44429079Y-30398113D01*
X44480562Y-30321062D01*
X44557613Y-30269579D01*
X44648500Y-30251500D01*
X45223500Y-30251500D01*
X45314387Y-30269579D01*
X45314387Y-30269579D01*
G37*
D12*
X44936000Y-30726500D03*
D11*
G36*
X47064387Y-30269579D02*
G01*
X47141438Y-30321062D01*
X47192921Y-30398113D01*
X47211000Y-30489000D01*
X47211000Y-30964000D01*
X47192921Y-31054887D01*
X47141438Y-31131938D01*
X47064387Y-31183421D01*
X46973500Y-31201500D01*
X46398500Y-31201500D01*
X46307613Y-31183421D01*
X46230562Y-31131938D01*
X46179079Y-31054887D01*
X46161000Y-30964000D01*
X46161000Y-30489000D01*
X46179079Y-30398113D01*
X46230562Y-30321062D01*
X46307613Y-30269579D01*
X46398500Y-30251500D01*
X46973500Y-30251500D01*
X47064387Y-30269579D01*
X47064387Y-30269579D01*
G37*
D12*
X46686000Y-30726500D03*
D11*
G36*
X43535887Y-28618079D02*
G01*
X43612938Y-28669562D01*
X43664421Y-28746613D01*
X43682500Y-28837500D01*
X43682500Y-29412500D01*
X43664421Y-29503387D01*
X43612938Y-29580438D01*
X43535887Y-29631921D01*
X43445000Y-29650000D01*
X42970000Y-29650000D01*
X42879113Y-29631921D01*
X42802062Y-29580438D01*
X42750579Y-29503387D01*
X42732500Y-29412500D01*
X42732500Y-28837500D01*
X42750579Y-28746613D01*
X42802062Y-28669562D01*
X42879113Y-28618079D01*
X42970000Y-28600000D01*
X43445000Y-28600000D01*
X43535887Y-28618079D01*
X43535887Y-28618079D01*
G37*
D12*
X43207500Y-29125000D03*
D11*
G36*
X43535887Y-26868079D02*
G01*
X43612938Y-26919562D01*
X43664421Y-26996613D01*
X43682500Y-27087500D01*
X43682500Y-27662500D01*
X43664421Y-27753387D01*
X43612938Y-27830438D01*
X43535887Y-27881921D01*
X43445000Y-27900000D01*
X42970000Y-27900000D01*
X42879113Y-27881921D01*
X42802062Y-27830438D01*
X42750579Y-27753387D01*
X42732500Y-27662500D01*
X42732500Y-27087500D01*
X42750579Y-26996613D01*
X42802062Y-26919562D01*
X42879113Y-26868079D01*
X42970000Y-26850000D01*
X43445000Y-26850000D01*
X43535887Y-26868079D01*
X43535887Y-26868079D01*
G37*
D12*
X43207500Y-27375000D03*
D13*
X60387500Y-28650000D03*
X60387500Y-27850000D03*
X60987500Y-28250000D03*
X61587500Y-28650000D03*
X61587500Y-27850000D03*
D11*
G36*
X62033171Y-27519030D02*
G01*
X62114277Y-27573223D01*
X62168470Y-27654329D01*
X62187500Y-27750000D01*
X62187500Y-28750000D01*
X62168470Y-28845671D01*
X62114277Y-28926777D01*
X62033171Y-28980970D01*
X61937500Y-29000000D01*
X60037500Y-29000000D01*
X59941829Y-28980970D01*
X59860723Y-28926777D01*
X59806530Y-28845671D01*
X59787500Y-28750000D01*
X59787500Y-27750000D01*
X59806530Y-27654329D01*
X59860723Y-27573223D01*
X59941829Y-27519030D01*
X60037500Y-27500000D01*
X61937500Y-27500000D01*
X62033171Y-27519030D01*
X62033171Y-27519030D01*
G37*
D14*
X60987500Y-28250000D03*
D11*
G36*
X62125768Y-29307612D02*
G01*
X62158211Y-29329289D01*
X62179888Y-29361732D01*
X62187500Y-29400000D01*
X62187500Y-32200000D01*
X62179888Y-32238268D01*
X62158211Y-32270711D01*
X62125768Y-32292388D01*
X62087500Y-32300000D01*
X61887500Y-32300000D01*
X61849232Y-32292388D01*
X61816789Y-32270711D01*
X61795112Y-32238268D01*
X61787500Y-32200000D01*
X61787500Y-29400000D01*
X61795112Y-29361732D01*
X61816789Y-29329289D01*
X61849232Y-29307612D01*
X61887500Y-29300000D01*
X62087500Y-29300000D01*
X62125768Y-29307612D01*
X62125768Y-29307612D01*
G37*
D15*
X61987500Y-30800000D03*
D11*
G36*
X61125768Y-29307612D02*
G01*
X61158211Y-29329289D01*
X61179888Y-29361732D01*
X61187500Y-29400000D01*
X61187500Y-32200000D01*
X61179888Y-32238268D01*
X61158211Y-32270711D01*
X61125768Y-32292388D01*
X61087500Y-32300000D01*
X60887500Y-32300000D01*
X60849232Y-32292388D01*
X60816789Y-32270711D01*
X60795112Y-32238268D01*
X60787500Y-32200000D01*
X60787500Y-29400000D01*
X60795112Y-29361732D01*
X60816789Y-29329289D01*
X60849232Y-29307612D01*
X60887500Y-29300000D01*
X61087500Y-29300000D01*
X61125768Y-29307612D01*
X61125768Y-29307612D01*
G37*
D15*
X60987500Y-30800000D03*
D11*
G36*
X60125768Y-29307612D02*
G01*
X60158211Y-29329289D01*
X60179888Y-29361732D01*
X60187500Y-29400000D01*
X60187500Y-32200000D01*
X60179888Y-32238268D01*
X60158211Y-32270711D01*
X60125768Y-32292388D01*
X60087500Y-32300000D01*
X59887500Y-32300000D01*
X59849232Y-32292388D01*
X59816789Y-32270711D01*
X59795112Y-32238268D01*
X59787500Y-32200000D01*
X59787500Y-29400000D01*
X59795112Y-29361732D01*
X59816789Y-29329289D01*
X59849232Y-29307612D01*
X59887500Y-29300000D01*
X60087500Y-29300000D01*
X60125768Y-29307612D01*
X60125768Y-29307612D01*
G37*
D15*
X59987500Y-30800000D03*
D11*
G36*
X60125768Y-24207612D02*
G01*
X60158211Y-24229289D01*
X60179888Y-24261732D01*
X60187500Y-24300000D01*
X60187500Y-27100000D01*
X60179888Y-27138268D01*
X60158211Y-27170711D01*
X60125768Y-27192388D01*
X60087500Y-27200000D01*
X59887500Y-27200000D01*
X59849232Y-27192388D01*
X59816789Y-27170711D01*
X59795112Y-27138268D01*
X59787500Y-27100000D01*
X59787500Y-24300000D01*
X59795112Y-24261732D01*
X59816789Y-24229289D01*
X59849232Y-24207612D01*
X59887500Y-24200000D01*
X60087500Y-24200000D01*
X60125768Y-24207612D01*
X60125768Y-24207612D01*
G37*
D15*
X59987500Y-25700000D03*
D11*
G36*
X61125768Y-24207612D02*
G01*
X61158211Y-24229289D01*
X61179888Y-24261732D01*
X61187500Y-24300000D01*
X61187500Y-27100000D01*
X61179888Y-27138268D01*
X61158211Y-27170711D01*
X61125768Y-27192388D01*
X61087500Y-27200000D01*
X60887500Y-27200000D01*
X60849232Y-27192388D01*
X60816789Y-27170711D01*
X60795112Y-27138268D01*
X60787500Y-27100000D01*
X60787500Y-24300000D01*
X60795112Y-24261732D01*
X60816789Y-24229289D01*
X60849232Y-24207612D01*
X60887500Y-24200000D01*
X61087500Y-24200000D01*
X61125768Y-24207612D01*
X61125768Y-24207612D01*
G37*
D15*
X60987500Y-25700000D03*
D11*
G36*
X62125768Y-24207612D02*
G01*
X62158211Y-24229289D01*
X62179888Y-24261732D01*
X62187500Y-24300000D01*
X62187500Y-27100000D01*
X62179888Y-27138268D01*
X62158211Y-27170711D01*
X62125768Y-27192388D01*
X62087500Y-27200000D01*
X61887500Y-27200000D01*
X61849232Y-27192388D01*
X61816789Y-27170711D01*
X61795112Y-27138268D01*
X61787500Y-27100000D01*
X61787500Y-24300000D01*
X61795112Y-24261732D01*
X61816789Y-24229289D01*
X61849232Y-24207612D01*
X61887500Y-24200000D01*
X62087500Y-24200000D01*
X62125768Y-24207612D01*
X62125768Y-24207612D01*
G37*
D15*
X61987500Y-25700000D03*
D16*
X54382500Y-27402000D03*
X54382500Y-28052000D03*
X54382500Y-28702000D03*
X54382500Y-29352000D03*
X57432500Y-29352000D03*
X57432500Y-28702000D03*
X57432500Y-28052000D03*
X57432500Y-27402000D03*
D17*
X45811000Y-27250000D03*
X46761000Y-29250000D03*
X44861000Y-29250000D03*
D11*
G36*
X43127387Y-31095079D02*
G01*
X43204438Y-31146562D01*
X43255921Y-31223613D01*
X43274000Y-31314500D01*
X43274000Y-31789500D01*
X43255921Y-31880387D01*
X43204438Y-31957438D01*
X43127387Y-32008921D01*
X43036500Y-32027000D01*
X42461500Y-32027000D01*
X42370613Y-32008921D01*
X42293562Y-31957438D01*
X42242079Y-31880387D01*
X42224000Y-31789500D01*
X42224000Y-31314500D01*
X42242079Y-31223613D01*
X42293562Y-31146562D01*
X42370613Y-31095079D01*
X42461500Y-31077000D01*
X43036500Y-31077000D01*
X43127387Y-31095079D01*
X43127387Y-31095079D01*
G37*
D12*
X42749000Y-31552000D03*
D11*
G36*
X41377387Y-31095079D02*
G01*
X41454438Y-31146562D01*
X41505921Y-31223613D01*
X41524000Y-31314500D01*
X41524000Y-31789500D01*
X41505921Y-31880387D01*
X41454438Y-31957438D01*
X41377387Y-32008921D01*
X41286500Y-32027000D01*
X40711500Y-32027000D01*
X40620613Y-32008921D01*
X40543562Y-31957438D01*
X40492079Y-31880387D01*
X40474000Y-31789500D01*
X40474000Y-31314500D01*
X40492079Y-31223613D01*
X40543562Y-31146562D01*
X40620613Y-31095079D01*
X40711500Y-31077000D01*
X41286500Y-31077000D01*
X41377387Y-31095079D01*
X41377387Y-31095079D01*
G37*
D12*
X40999000Y-31552000D03*
D11*
G36*
X43000387Y-24554579D02*
G01*
X43077438Y-24606062D01*
X43128921Y-24683113D01*
X43147000Y-24774000D01*
X43147000Y-25249000D01*
X43128921Y-25339887D01*
X43077438Y-25416938D01*
X43000387Y-25468421D01*
X42909500Y-25486500D01*
X42334500Y-25486500D01*
X42243613Y-25468421D01*
X42166562Y-25416938D01*
X42115079Y-25339887D01*
X42097000Y-25249000D01*
X42097000Y-24774000D01*
X42115079Y-24683113D01*
X42166562Y-24606062D01*
X42243613Y-24554579D01*
X42334500Y-24536500D01*
X42909500Y-24536500D01*
X43000387Y-24554579D01*
X43000387Y-24554579D01*
G37*
D12*
X42622000Y-25011500D03*
D11*
G36*
X41250387Y-24554579D02*
G01*
X41327438Y-24606062D01*
X41378921Y-24683113D01*
X41397000Y-24774000D01*
X41397000Y-25249000D01*
X41378921Y-25339887D01*
X41327438Y-25416938D01*
X41250387Y-25468421D01*
X41159500Y-25486500D01*
X40584500Y-25486500D01*
X40493613Y-25468421D01*
X40416562Y-25416938D01*
X40365079Y-25339887D01*
X40347000Y-25249000D01*
X40347000Y-24774000D01*
X40365079Y-24683113D01*
X40416562Y-24606062D01*
X40493613Y-24554579D01*
X40584500Y-24536500D01*
X41159500Y-24536500D01*
X41250387Y-24554579D01*
X41250387Y-24554579D01*
G37*
D12*
X40872000Y-25011500D03*
D11*
G36*
X48679387Y-30840579D02*
G01*
X48756438Y-30892062D01*
X48807921Y-30969113D01*
X48826000Y-31060000D01*
X48826000Y-31635000D01*
X48807921Y-31725887D01*
X48756438Y-31802938D01*
X48679387Y-31854421D01*
X48588500Y-31872500D01*
X48113500Y-31872500D01*
X48022613Y-31854421D01*
X47945562Y-31802938D01*
X47894079Y-31725887D01*
X47876000Y-31635000D01*
X47876000Y-31060000D01*
X47894079Y-30969113D01*
X47945562Y-30892062D01*
X48022613Y-30840579D01*
X48113500Y-30822500D01*
X48588500Y-30822500D01*
X48679387Y-30840579D01*
X48679387Y-30840579D01*
G37*
D12*
X48351000Y-31347500D03*
D11*
G36*
X48679387Y-29090579D02*
G01*
X48756438Y-29142062D01*
X48807921Y-29219113D01*
X48826000Y-29310000D01*
X48826000Y-29885000D01*
X48807921Y-29975887D01*
X48756438Y-30052938D01*
X48679387Y-30104421D01*
X48588500Y-30122500D01*
X48113500Y-30122500D01*
X48022613Y-30104421D01*
X47945562Y-30052938D01*
X47894079Y-29975887D01*
X47876000Y-29885000D01*
X47876000Y-29310000D01*
X47894079Y-29219113D01*
X47945562Y-29142062D01*
X48022613Y-29090579D01*
X48113500Y-29072500D01*
X48588500Y-29072500D01*
X48679387Y-29090579D01*
X48679387Y-29090579D01*
G37*
D12*
X48351000Y-29597500D03*
D11*
G36*
X48679387Y-25725079D02*
G01*
X48756438Y-25776562D01*
X48807921Y-25853613D01*
X48826000Y-25944500D01*
X48826000Y-26519500D01*
X48807921Y-26610387D01*
X48756438Y-26687438D01*
X48679387Y-26738921D01*
X48588500Y-26757000D01*
X48113500Y-26757000D01*
X48022613Y-26738921D01*
X47945562Y-26687438D01*
X47894079Y-26610387D01*
X47876000Y-26519500D01*
X47876000Y-25944500D01*
X47894079Y-25853613D01*
X47945562Y-25776562D01*
X48022613Y-25725079D01*
X48113500Y-25707000D01*
X48588500Y-25707000D01*
X48679387Y-25725079D01*
X48679387Y-25725079D01*
G37*
D12*
X48351000Y-26232000D03*
D11*
G36*
X48679387Y-27475079D02*
G01*
X48756438Y-27526562D01*
X48807921Y-27603613D01*
X48826000Y-27694500D01*
X48826000Y-28269500D01*
X48807921Y-28360387D01*
X48756438Y-28437438D01*
X48679387Y-28488921D01*
X48588500Y-28507000D01*
X48113500Y-28507000D01*
X48022613Y-28488921D01*
X47945562Y-28437438D01*
X47894079Y-28360387D01*
X47876000Y-28269500D01*
X47876000Y-27694500D01*
X47894079Y-27603613D01*
X47945562Y-27526562D01*
X48022613Y-27475079D01*
X48113500Y-27457000D01*
X48588500Y-27457000D01*
X48679387Y-27475079D01*
X48679387Y-27475079D01*
G37*
D12*
X48351000Y-27982000D03*
D11*
G36*
X41959671Y-29044030D02*
G01*
X42040777Y-29098223D01*
X42094970Y-29179329D01*
X42114000Y-29275000D01*
X42114000Y-30200000D01*
X42094970Y-30295671D01*
X42040777Y-30376777D01*
X41959671Y-30430970D01*
X41864000Y-30450000D01*
X40614000Y-30450000D01*
X40518329Y-30430970D01*
X40437223Y-30376777D01*
X40383030Y-30295671D01*
X40364000Y-30200000D01*
X40364000Y-29275000D01*
X40383030Y-29179329D01*
X40437223Y-29098223D01*
X40518329Y-29044030D01*
X40614000Y-29025000D01*
X41864000Y-29025000D01*
X41959671Y-29044030D01*
X41959671Y-29044030D01*
G37*
D18*
X41239000Y-29737500D03*
D11*
G36*
X41959671Y-26069030D02*
G01*
X42040777Y-26123223D01*
X42094970Y-26204329D01*
X42114000Y-26300000D01*
X42114000Y-27225000D01*
X42094970Y-27320671D01*
X42040777Y-27401777D01*
X41959671Y-27455970D01*
X41864000Y-27475000D01*
X40614000Y-27475000D01*
X40518329Y-27455970D01*
X40437223Y-27401777D01*
X40383030Y-27320671D01*
X40364000Y-27225000D01*
X40364000Y-26300000D01*
X40383030Y-26204329D01*
X40437223Y-26123223D01*
X40518329Y-26069030D01*
X40614000Y-26050000D01*
X41864000Y-26050000D01*
X41959671Y-26069030D01*
X41959671Y-26069030D01*
G37*
D18*
X41239000Y-26762500D03*
D11*
G36*
X50203387Y-25725079D02*
G01*
X50280438Y-25776562D01*
X50331921Y-25853613D01*
X50350000Y-25944500D01*
X50350000Y-26519500D01*
X50331921Y-26610387D01*
X50280438Y-26687438D01*
X50203387Y-26738921D01*
X50112500Y-26757000D01*
X49637500Y-26757000D01*
X49546613Y-26738921D01*
X49469562Y-26687438D01*
X49418079Y-26610387D01*
X49400000Y-26519500D01*
X49400000Y-25944500D01*
X49418079Y-25853613D01*
X49469562Y-25776562D01*
X49546613Y-25725079D01*
X49637500Y-25707000D01*
X50112500Y-25707000D01*
X50203387Y-25725079D01*
X50203387Y-25725079D01*
G37*
D12*
X49875000Y-26232000D03*
D11*
G36*
X50203387Y-27475079D02*
G01*
X50280438Y-27526562D01*
X50331921Y-27603613D01*
X50350000Y-27694500D01*
X50350000Y-28269500D01*
X50331921Y-28360387D01*
X50280438Y-28437438D01*
X50203387Y-28488921D01*
X50112500Y-28507000D01*
X49637500Y-28507000D01*
X49546613Y-28488921D01*
X49469562Y-28437438D01*
X49418079Y-28360387D01*
X49400000Y-28269500D01*
X49400000Y-27694500D01*
X49418079Y-27603613D01*
X49469562Y-27526562D01*
X49546613Y-27475079D01*
X49637500Y-27457000D01*
X50112500Y-27457000D01*
X50203387Y-27475079D01*
X50203387Y-27475079D01*
G37*
D12*
X49875000Y-27982000D03*
D11*
G36*
X51727387Y-25725079D02*
G01*
X51804438Y-25776562D01*
X51855921Y-25853613D01*
X51874000Y-25944500D01*
X51874000Y-26519500D01*
X51855921Y-26610387D01*
X51804438Y-26687438D01*
X51727387Y-26738921D01*
X51636500Y-26757000D01*
X51161500Y-26757000D01*
X51070613Y-26738921D01*
X50993562Y-26687438D01*
X50942079Y-26610387D01*
X50924000Y-26519500D01*
X50924000Y-25944500D01*
X50942079Y-25853613D01*
X50993562Y-25776562D01*
X51070613Y-25725079D01*
X51161500Y-25707000D01*
X51636500Y-25707000D01*
X51727387Y-25725079D01*
X51727387Y-25725079D01*
G37*
D12*
X51399000Y-26232000D03*
D11*
G36*
X51727387Y-27475079D02*
G01*
X51804438Y-27526562D01*
X51855921Y-27603613D01*
X51874000Y-27694500D01*
X51874000Y-28269500D01*
X51855921Y-28360387D01*
X51804438Y-28437438D01*
X51727387Y-28488921D01*
X51636500Y-28507000D01*
X51161500Y-28507000D01*
X51070613Y-28488921D01*
X50993562Y-28437438D01*
X50942079Y-28360387D01*
X50924000Y-28269500D01*
X50924000Y-27694500D01*
X50942079Y-27603613D01*
X50993562Y-27526562D01*
X51070613Y-27475079D01*
X51161500Y-27457000D01*
X51636500Y-27457000D01*
X51727387Y-27475079D01*
X51727387Y-27475079D01*
G37*
D12*
X51399000Y-27982000D03*
D11*
G36*
X51728387Y-30818079D02*
G01*
X51805438Y-30869562D01*
X51856921Y-30946613D01*
X51875000Y-31037500D01*
X51875000Y-31612500D01*
X51856921Y-31703387D01*
X51805438Y-31780438D01*
X51728387Y-31831921D01*
X51637500Y-31850000D01*
X51162500Y-31850000D01*
X51071613Y-31831921D01*
X50994562Y-31780438D01*
X50943079Y-31703387D01*
X50925000Y-31612500D01*
X50925000Y-31037500D01*
X50943079Y-30946613D01*
X50994562Y-30869562D01*
X51071613Y-30818079D01*
X51162500Y-30800000D01*
X51637500Y-30800000D01*
X51728387Y-30818079D01*
X51728387Y-30818079D01*
G37*
D12*
X51400000Y-31325000D03*
D11*
G36*
X51728387Y-29068079D02*
G01*
X51805438Y-29119562D01*
X51856921Y-29196613D01*
X51875000Y-29287500D01*
X51875000Y-29862500D01*
X51856921Y-29953387D01*
X51805438Y-30030438D01*
X51728387Y-30081921D01*
X51637500Y-30100000D01*
X51162500Y-30100000D01*
X51071613Y-30081921D01*
X50994562Y-30030438D01*
X50943079Y-29953387D01*
X50925000Y-29862500D01*
X50925000Y-29287500D01*
X50943079Y-29196613D01*
X50994562Y-29119562D01*
X51071613Y-29068079D01*
X51162500Y-29050000D01*
X51637500Y-29050000D01*
X51728387Y-29068079D01*
X51728387Y-29068079D01*
G37*
D12*
X51400000Y-29575000D03*
D11*
G36*
X50203387Y-30777079D02*
G01*
X50280438Y-30828562D01*
X50331921Y-30905613D01*
X50350000Y-30996500D01*
X50350000Y-31571500D01*
X50331921Y-31662387D01*
X50280438Y-31739438D01*
X50203387Y-31790921D01*
X50112500Y-31809000D01*
X49637500Y-31809000D01*
X49546613Y-31790921D01*
X49469562Y-31739438D01*
X49418079Y-31662387D01*
X49400000Y-31571500D01*
X49400000Y-30996500D01*
X49418079Y-30905613D01*
X49469562Y-30828562D01*
X49546613Y-30777079D01*
X49637500Y-30759000D01*
X50112500Y-30759000D01*
X50203387Y-30777079D01*
X50203387Y-30777079D01*
G37*
D12*
X49875000Y-31284000D03*
D11*
G36*
X50203387Y-29027079D02*
G01*
X50280438Y-29078562D01*
X50331921Y-29155613D01*
X50350000Y-29246500D01*
X50350000Y-29821500D01*
X50331921Y-29912387D01*
X50280438Y-29989438D01*
X50203387Y-30040921D01*
X50112500Y-30059000D01*
X49637500Y-30059000D01*
X49546613Y-30040921D01*
X49469562Y-29989438D01*
X49418079Y-29912387D01*
X49400000Y-29821500D01*
X49400000Y-29246500D01*
X49418079Y-29155613D01*
X49469562Y-29078562D01*
X49546613Y-29027079D01*
X49637500Y-29009000D01*
X50112500Y-29009000D01*
X50203387Y-29027079D01*
X50203387Y-29027079D01*
G37*
D12*
X49875000Y-29534000D03*
D19*
X56000000Y-32750000D03*
X54000000Y-32750000D03*
X52000000Y-32750000D03*
X49500000Y-32750000D03*
X47000000Y-25750000D03*
X44500000Y-25750000D03*
X44500000Y-32750000D03*
X47000000Y-32750000D03*
X44500000Y-23750000D03*
X47000000Y-23750000D03*
X49500000Y-23750000D03*
X54000000Y-23750000D03*
X56000000Y-23750000D03*
X51250000Y-25000000D03*
X59000000Y-28500000D03*
X59000000Y-27500000D03*
X55250000Y-30250000D03*
X41500000Y-28250000D03*
X43250000Y-30250000D03*
X39715000Y-27805500D03*
D20*
X59178998Y-23650000D02*
X55972032Y-26856966D01*
X61987500Y-25700000D02*
X62000000Y-25687500D01*
X54382500Y-27402000D02*
X54382500Y-26977000D01*
X55972032Y-26856966D02*
X55972032Y-27524989D01*
X61400000Y-23650000D02*
X59178998Y-23650000D01*
X62000000Y-24250000D02*
X61400000Y-23650000D01*
X62000000Y-25687500D02*
X62000000Y-24250000D01*
X62638500Y-23988500D02*
X62638500Y-29012000D01*
X61849989Y-23199989D02*
X62638500Y-23988500D01*
X62638500Y-29012000D02*
X62003500Y-29647000D01*
X55437522Y-28059500D02*
X54383500Y-28059500D01*
X58159511Y-23199989D02*
X61849989Y-23199989D01*
X54382500Y-26977000D02*
X58159511Y-23199989D01*
X55972032Y-27524989D02*
X55437522Y-28059500D01*
D21*
X61000000Y-27150000D02*
X61000000Y-25750000D01*
X60637499Y-27512501D02*
X61000000Y-27150000D01*
X60387500Y-27850000D02*
X60637499Y-27600001D01*
X60637499Y-27600001D02*
X60637499Y-27512501D01*
X51399000Y-31270000D02*
X52500000Y-32371000D01*
X52500000Y-32371000D02*
X52500000Y-32750000D01*
X49875000Y-31284000D02*
X49875000Y-32625000D01*
X49875000Y-32625000D02*
X50000000Y-32750000D01*
D20*
X42883500Y-24750000D02*
X49613500Y-24750000D01*
X42622000Y-25011500D02*
X42883500Y-24750000D01*
X49613500Y-24750000D02*
X49811500Y-24948000D01*
D21*
X49875000Y-26232000D02*
X50018000Y-26232000D01*
X50018000Y-26232000D02*
X51250000Y-25000000D01*
D20*
X51598002Y-24274998D02*
X50484502Y-24274998D01*
X54382500Y-27402000D02*
X53557500Y-27402000D01*
X53557500Y-27402000D02*
X52225002Y-26069502D01*
X50484502Y-24274998D02*
X49811500Y-24948000D01*
X52225002Y-24901998D02*
X51598002Y-24274998D01*
X52225002Y-26069502D02*
X52225002Y-24901998D01*
D21*
X51399000Y-26232000D02*
X51399000Y-25149000D01*
X51399000Y-25149000D02*
X51250000Y-25000000D01*
X58798000Y-28702000D02*
X59000000Y-28500000D01*
X57432500Y-28702000D02*
X58798000Y-28702000D01*
X58902000Y-27402000D02*
X59000000Y-27500000D01*
X57432500Y-27402000D02*
X58902000Y-27402000D01*
X54382500Y-29382500D02*
X55250000Y-30250000D01*
X54382500Y-29352000D02*
X54382500Y-29382500D01*
X41239000Y-28511000D02*
X41500000Y-28250000D01*
X41239000Y-29737500D02*
X41239000Y-28511000D01*
X43207500Y-30207500D02*
X43250000Y-30250000D01*
X43207500Y-29125000D02*
X43207500Y-30207500D01*
X45000000Y-29250000D02*
X45000000Y-30750000D01*
X44719620Y-28969620D02*
X45000000Y-29250000D01*
X41239000Y-29737500D02*
X42006880Y-28969620D01*
X42006880Y-28969620D02*
X44719620Y-28969620D01*
X60987500Y-30800000D02*
X60987500Y-32400000D01*
X60987500Y-32400000D02*
X60687490Y-32700010D01*
X60687490Y-32700010D02*
X58918008Y-32700010D01*
X58918008Y-32700010D02*
X56185498Y-29967500D01*
X56185498Y-29967500D02*
X56185498Y-29350000D01*
X56185498Y-29350000D02*
X57500000Y-29350000D01*
X55537498Y-28702000D02*
X56185498Y-29350000D01*
X56189498Y-28050000D02*
X57500000Y-28050000D01*
X55537498Y-28702000D02*
X56189498Y-28050000D01*
X54382500Y-28702000D02*
X55537498Y-28702000D01*
X47083000Y-29250000D02*
X46700000Y-29250000D01*
X47861000Y-29550000D02*
X48400000Y-29550000D01*
X46761000Y-29250000D02*
X47561000Y-29250000D01*
X47561000Y-29250000D02*
X47861000Y-29550000D01*
X49875000Y-29525000D02*
X49900000Y-29550000D01*
X49875000Y-27982000D02*
X49875000Y-29525000D01*
X48300000Y-27950000D02*
X51400000Y-27950000D01*
X48300000Y-29550000D02*
X48300000Y-27950000D01*
X51400000Y-29550000D02*
X48300000Y-29550000D01*
X51399000Y-29549000D02*
X51400000Y-29550000D01*
X51399000Y-27982000D02*
X51399000Y-29549000D01*
X52052000Y-28702000D02*
X51400000Y-28050000D01*
X54382500Y-28702000D02*
X52052000Y-28702000D01*
D20*
X49811500Y-24948000D02*
X49557500Y-24948000D01*
X42749000Y-31552000D02*
X45874500Y-31552000D01*
X52212490Y-27131990D02*
X47444008Y-27131990D01*
X45835990Y-28740008D02*
X45835990Y-31513490D01*
X45874500Y-31552000D02*
X48097000Y-31552000D01*
X54382500Y-28052000D02*
X53132500Y-28052000D01*
X47444008Y-27131990D02*
X45835990Y-28740008D01*
X53132500Y-28052000D02*
X52212490Y-27131990D01*
X45835990Y-31513490D02*
X45874500Y-31552000D01*
X49557500Y-24948000D02*
X48414500Y-26091000D01*
X48097000Y-31552000D02*
X48287500Y-31361500D01*
D21*
X46735500Y-29456500D02*
X46763500Y-29456500D01*
X46686000Y-29407000D02*
X46735500Y-29456500D01*
X46686000Y-30726500D02*
X46686000Y-29407000D01*
X45578120Y-27530380D02*
X45811000Y-27297500D01*
X41239000Y-26762500D02*
X42006880Y-27530380D01*
X42006880Y-27530380D02*
X45578120Y-27530380D01*
X40758000Y-26762500D02*
X39715000Y-27805500D01*
X41239000Y-26762500D02*
X40758000Y-26762500D01*
D20*
X40985000Y-31552000D02*
X41112000Y-31552000D01*
X40852000Y-31552000D02*
X40985000Y-31552000D01*
X37800000Y-30750000D02*
X40050000Y-30750000D01*
X40050000Y-30750000D02*
X40852000Y-31552000D01*
X40731000Y-25069000D02*
X40731000Y-24948000D01*
X37800000Y-25750000D02*
X40050000Y-25750000D01*
X40050000Y-25750000D02*
X40731000Y-25069000D01*
D22*
G36*
X54509500Y-30042837D02*
G01*
X54529661Y-30111498D01*
X54583742Y-30158360D01*
X54636500Y-30169837D01*
X55370739Y-30169837D01*
X55371005Y-30170572D01*
X55373251Y-30186258D01*
X55383357Y-30220820D01*
X55411445Y-30282596D01*
X55434488Y-30346426D01*
X55451853Y-30378845D01*
X55460554Y-30390604D01*
X55467299Y-30405438D01*
X55486698Y-30435772D01*
X55538235Y-30495584D01*
X55548331Y-30509228D01*
X55560619Y-30523490D01*
X55572632Y-30535503D01*
X55619080Y-30589409D01*
X55646214Y-30613080D01*
X55657569Y-30620440D01*
X58152129Y-33115000D01*
X36331438Y-33115000D01*
X36331131Y-33114939D01*
X36324907Y-33114175D01*
X36324141Y-33114083D01*
X36225741Y-33102611D01*
X36202788Y-33094279D01*
X36182367Y-33080890D01*
X36165570Y-33063160D01*
X36153304Y-33042043D01*
X36143685Y-33010284D01*
X36137689Y-32943090D01*
X36135000Y-32926441D01*
X36135000Y-32392837D01*
X39800000Y-32392837D01*
X39832870Y-32388510D01*
X40029474Y-32335830D01*
X40037898Y-32348938D01*
X40061570Y-32376257D01*
X40223583Y-32516642D01*
X40253993Y-32536185D01*
X40448994Y-32625238D01*
X40483677Y-32635422D01*
X40695868Y-32665931D01*
X40713942Y-32667224D01*
X41284058Y-32667224D01*
X41311054Y-32664322D01*
X41623930Y-32596260D01*
X41665595Y-32579001D01*
X41845938Y-32463102D01*
X41873257Y-32439430D01*
X41878068Y-32433878D01*
X41973583Y-32516642D01*
X42003993Y-32536185D01*
X42198994Y-32625238D01*
X42233677Y-32635422D01*
X42445868Y-32665931D01*
X42463942Y-32667224D01*
X43034058Y-32667224D01*
X43061054Y-32664322D01*
X43373930Y-32596260D01*
X43415595Y-32579001D01*
X43595938Y-32463102D01*
X43623257Y-32439430D01*
X43733676Y-32312000D01*
X47567716Y-32312000D01*
X47625583Y-32362142D01*
X47655993Y-32381685D01*
X47850994Y-32470738D01*
X47885677Y-32480922D01*
X48097868Y-32511431D01*
X48115942Y-32512724D01*
X48586058Y-32512724D01*
X48613054Y-32509822D01*
X48925930Y-32441760D01*
X48967595Y-32424501D01*
X49147938Y-32308602D01*
X49155238Y-32302276D01*
X49179993Y-32318185D01*
X49374994Y-32407238D01*
X49409676Y-32417422D01*
X49602925Y-32445208D01*
X49673757Y-32435025D01*
X49727839Y-32388163D01*
X49748000Y-32319501D01*
X49748000Y-31157000D01*
X50002000Y-31157000D01*
X50002000Y-32318103D01*
X50022161Y-32386764D01*
X50076242Y-32433626D01*
X50155996Y-32442201D01*
X50449930Y-32378260D01*
X50491595Y-32361001D01*
X50610813Y-32284385D01*
X50674583Y-32339642D01*
X50704993Y-32359185D01*
X50899994Y-32448238D01*
X50934676Y-32458422D01*
X51127925Y-32486208D01*
X51198757Y-32476025D01*
X51252839Y-32429163D01*
X51273000Y-32360501D01*
X51273000Y-31198000D01*
X51527000Y-31198000D01*
X51527000Y-32359103D01*
X51547161Y-32427764D01*
X51601242Y-32474626D01*
X51680996Y-32483201D01*
X51974930Y-32419260D01*
X52016595Y-32402001D01*
X52196938Y-32286102D01*
X52224257Y-32262430D01*
X52364642Y-32100417D01*
X52384185Y-32070007D01*
X52473238Y-31875006D01*
X52483422Y-31840323D01*
X52497291Y-31743867D01*
X52633377Y-31838449D01*
X52655014Y-31850541D01*
X52836160Y-31929681D01*
X52859732Y-31937340D01*
X53052799Y-31979789D01*
X53077411Y-31982724D01*
X53275047Y-31986864D01*
X53299761Y-31984963D01*
X53494437Y-31950636D01*
X53518309Y-31943970D01*
X53702609Y-31872485D01*
X53724733Y-31861310D01*
X53891639Y-31755388D01*
X53911170Y-31740128D01*
X54054324Y-31603805D01*
X54070521Y-31585041D01*
X54184469Y-31423508D01*
X54196711Y-31401958D01*
X54277115Y-31221370D01*
X54284939Y-31197850D01*
X54328734Y-31005083D01*
X54331878Y-30978720D01*
X54335031Y-30752934D01*
X54332624Y-30726493D01*
X54294228Y-30532578D01*
X54287064Y-30508850D01*
X54211734Y-30326087D01*
X54200098Y-30304202D01*
X54110826Y-30169837D01*
X54128500Y-30169837D01*
X54197161Y-30149676D01*
X54244023Y-30095595D01*
X54255500Y-30042837D01*
X54255500Y-29537000D01*
X54509500Y-29537000D01*
X54509500Y-30042837D01*
X54509500Y-30042837D01*
G37*
X54509500Y-30042837D02*
X54529661Y-30111498D01*
X54583742Y-30158360D01*
X54636500Y-30169837D01*
X55370739Y-30169837D01*
X55371005Y-30170572D01*
X55373251Y-30186258D01*
X55383357Y-30220820D01*
X55411445Y-30282596D01*
X55434488Y-30346426D01*
X55451853Y-30378845D01*
X55460554Y-30390604D01*
X55467299Y-30405438D01*
X55486698Y-30435772D01*
X55538235Y-30495584D01*
X55548331Y-30509228D01*
X55560619Y-30523490D01*
X55572632Y-30535503D01*
X55619080Y-30589409D01*
X55646214Y-30613080D01*
X55657569Y-30620440D01*
X58152129Y-33115000D01*
X36331438Y-33115000D01*
X36331131Y-33114939D01*
X36324907Y-33114175D01*
X36324141Y-33114083D01*
X36225741Y-33102611D01*
X36202788Y-33094279D01*
X36182367Y-33080890D01*
X36165570Y-33063160D01*
X36153304Y-33042043D01*
X36143685Y-33010284D01*
X36137689Y-32943090D01*
X36135000Y-32926441D01*
X36135000Y-32392837D01*
X39800000Y-32392837D01*
X39832870Y-32388510D01*
X40029474Y-32335830D01*
X40037898Y-32348938D01*
X40061570Y-32376257D01*
X40223583Y-32516642D01*
X40253993Y-32536185D01*
X40448994Y-32625238D01*
X40483677Y-32635422D01*
X40695868Y-32665931D01*
X40713942Y-32667224D01*
X41284058Y-32667224D01*
X41311054Y-32664322D01*
X41623930Y-32596260D01*
X41665595Y-32579001D01*
X41845938Y-32463102D01*
X41873257Y-32439430D01*
X41878068Y-32433878D01*
X41973583Y-32516642D01*
X42003993Y-32536185D01*
X42198994Y-32625238D01*
X42233677Y-32635422D01*
X42445868Y-32665931D01*
X42463942Y-32667224D01*
X43034058Y-32667224D01*
X43061054Y-32664322D01*
X43373930Y-32596260D01*
X43415595Y-32579001D01*
X43595938Y-32463102D01*
X43623257Y-32439430D01*
X43733676Y-32312000D01*
X47567716Y-32312000D01*
X47625583Y-32362142D01*
X47655993Y-32381685D01*
X47850994Y-32470738D01*
X47885677Y-32480922D01*
X48097868Y-32511431D01*
X48115942Y-32512724D01*
X48586058Y-32512724D01*
X48613054Y-32509822D01*
X48925930Y-32441760D01*
X48967595Y-32424501D01*
X49147938Y-32308602D01*
X49155238Y-32302276D01*
X49179993Y-32318185D01*
X49374994Y-32407238D01*
X49409676Y-32417422D01*
X49602925Y-32445208D01*
X49673757Y-32435025D01*
X49727839Y-32388163D01*
X49748000Y-32319501D01*
X49748000Y-31157000D01*
X50002000Y-31157000D01*
X50002000Y-32318103D01*
X50022161Y-32386764D01*
X50076242Y-32433626D01*
X50155996Y-32442201D01*
X50449930Y-32378260D01*
X50491595Y-32361001D01*
X50610813Y-32284385D01*
X50674583Y-32339642D01*
X50704993Y-32359185D01*
X50899994Y-32448238D01*
X50934676Y-32458422D01*
X51127925Y-32486208D01*
X51198757Y-32476025D01*
X51252839Y-32429163D01*
X51273000Y-32360501D01*
X51273000Y-31198000D01*
X51527000Y-31198000D01*
X51527000Y-32359103D01*
X51547161Y-32427764D01*
X51601242Y-32474626D01*
X51680996Y-32483201D01*
X51974930Y-32419260D01*
X52016595Y-32402001D01*
X52196938Y-32286102D01*
X52224257Y-32262430D01*
X52364642Y-32100417D01*
X52384185Y-32070007D01*
X52473238Y-31875006D01*
X52483422Y-31840323D01*
X52497291Y-31743867D01*
X52633377Y-31838449D01*
X52655014Y-31850541D01*
X52836160Y-31929681D01*
X52859732Y-31937340D01*
X53052799Y-31979789D01*
X53077411Y-31982724D01*
X53275047Y-31986864D01*
X53299761Y-31984963D01*
X53494437Y-31950636D01*
X53518309Y-31943970D01*
X53702609Y-31872485D01*
X53724733Y-31861310D01*
X53891639Y-31755388D01*
X53911170Y-31740128D01*
X54054324Y-31603805D01*
X54070521Y-31585041D01*
X54184469Y-31423508D01*
X54196711Y-31401958D01*
X54277115Y-31221370D01*
X54284939Y-31197850D01*
X54328734Y-31005083D01*
X54331878Y-30978720D01*
X54335031Y-30752934D01*
X54332624Y-30726493D01*
X54294228Y-30532578D01*
X54287064Y-30508850D01*
X54211734Y-30326087D01*
X54200098Y-30304202D01*
X54110826Y-30169837D01*
X54128500Y-30169837D01*
X54197161Y-30149676D01*
X54244023Y-30095595D01*
X54255500Y-30042837D01*
X54255500Y-29537000D01*
X54509500Y-29537000D01*
X54509500Y-30042837D01*
G36*
X43334500Y-30159103D02*
G01*
X43354661Y-30227764D01*
X43408742Y-30274626D01*
X43488496Y-30283201D01*
X43782430Y-30219260D01*
X43823913Y-30202076D01*
X43812762Y-30226494D01*
X43802578Y-30261176D01*
X43774792Y-30454425D01*
X43784975Y-30525257D01*
X43831837Y-30579339D01*
X43900499Y-30599500D01*
X45063000Y-30599500D01*
X45063000Y-30792000D01*
X43733841Y-30792000D01*
X43710102Y-30755061D01*
X43686430Y-30727743D01*
X43524417Y-30587358D01*
X43494007Y-30567815D01*
X43299006Y-30478762D01*
X43264323Y-30468578D01*
X43052132Y-30438069D01*
X43034058Y-30436776D01*
X42720289Y-30436776D01*
X42721911Y-30431252D01*
X42746667Y-30259068D01*
X42935425Y-30286208D01*
X43006257Y-30276025D01*
X43060339Y-30229163D01*
X43080500Y-30160501D01*
X43080500Y-28998000D01*
X43334500Y-28998000D01*
X43334500Y-30159103D01*
X43334500Y-30159103D01*
G37*
X43334500Y-30159103D02*
X43354661Y-30227764D01*
X43408742Y-30274626D01*
X43488496Y-30283201D01*
X43782430Y-30219260D01*
X43823913Y-30202076D01*
X43812762Y-30226494D01*
X43802578Y-30261176D01*
X43774792Y-30454425D01*
X43784975Y-30525257D01*
X43831837Y-30579339D01*
X43900499Y-30599500D01*
X45063000Y-30599500D01*
X45063000Y-30792000D01*
X43733841Y-30792000D01*
X43710102Y-30755061D01*
X43686430Y-30727743D01*
X43524417Y-30587358D01*
X43494007Y-30567815D01*
X43299006Y-30478762D01*
X43264323Y-30468578D01*
X43052132Y-30438069D01*
X43034058Y-30436776D01*
X42720289Y-30436776D01*
X42721911Y-30431252D01*
X42746667Y-30259068D01*
X42935425Y-30286208D01*
X43006257Y-30276025D01*
X43060339Y-30229163D01*
X43080500Y-30160501D01*
X43080500Y-28998000D01*
X43334500Y-28998000D01*
X43334500Y-30159103D01*
G36*
X59146168Y-27098753D02*
G01*
X59147732Y-27118620D01*
X59177861Y-27308844D01*
X59190139Y-27346633D01*
X59223043Y-27411211D01*
X59189772Y-27484065D01*
X59179589Y-27518748D01*
X59148569Y-27734497D01*
X59147276Y-27752571D01*
X59147276Y-27996000D01*
X59167437Y-28064661D01*
X59221518Y-28111523D01*
X59274276Y-28123000D01*
X61114500Y-28123000D01*
X61114500Y-28377000D01*
X59274276Y-28377000D01*
X59205615Y-28397161D01*
X59158753Y-28451242D01*
X59147276Y-28504000D01*
X59147276Y-28747429D01*
X59150178Y-28774425D01*
X59219381Y-29092548D01*
X59220164Y-29094439D01*
X59190139Y-29153367D01*
X59177861Y-29191156D01*
X59147732Y-29381380D01*
X59146168Y-29401247D01*
X59146168Y-29990570D01*
X59135748Y-29980077D01*
X59116650Y-29964277D01*
X58970276Y-29865546D01*
X59027213Y-29766927D01*
X59042299Y-29725480D01*
X59073408Y-29549053D01*
X59075337Y-29527000D01*
X59075337Y-29177000D01*
X59071009Y-29144130D01*
X59046393Y-29052263D01*
X59059478Y-28978053D01*
X59051546Y-28906934D01*
X59006424Y-28851393D01*
X58979401Y-28842991D01*
X58976516Y-28837448D01*
X58861362Y-28700212D01*
X58858898Y-28698144D01*
X58909288Y-28655862D01*
X58937639Y-28622074D01*
X58972503Y-28561689D01*
X58995830Y-28554839D01*
X59042692Y-28500758D01*
X59049841Y-28415129D01*
X59046393Y-28402262D01*
X59073408Y-28249053D01*
X59075337Y-28227000D01*
X59075337Y-27877000D01*
X59071009Y-27844130D01*
X59046393Y-27752263D01*
X59059478Y-27678053D01*
X59051546Y-27606934D01*
X59006424Y-27551393D01*
X58979401Y-27542991D01*
X58976516Y-27537448D01*
X58861362Y-27400212D01*
X58827574Y-27371861D01*
X58672427Y-27282287D01*
X58652407Y-27275000D01*
X58927169Y-27275000D01*
X58995830Y-27254839D01*
X59042692Y-27200758D01*
X59049842Y-27115130D01*
X59001901Y-26936212D01*
X58976516Y-26887448D01*
X58861362Y-26750212D01*
X58827574Y-26721861D01*
X58806572Y-26709735D01*
X58902609Y-26672485D01*
X58924733Y-26661310D01*
X59091639Y-26555388D01*
X59111170Y-26540128D01*
X59146168Y-26506800D01*
X59146168Y-27098753D01*
X59146168Y-27098753D01*
G37*
X59146168Y-27098753D02*
X59147732Y-27118620D01*
X59177861Y-27308844D01*
X59190139Y-27346633D01*
X59223043Y-27411211D01*
X59189772Y-27484065D01*
X59179589Y-27518748D01*
X59148569Y-27734497D01*
X59147276Y-27752571D01*
X59147276Y-27996000D01*
X59167437Y-28064661D01*
X59221518Y-28111523D01*
X59274276Y-28123000D01*
X61114500Y-28123000D01*
X61114500Y-28377000D01*
X59274276Y-28377000D01*
X59205615Y-28397161D01*
X59158753Y-28451242D01*
X59147276Y-28504000D01*
X59147276Y-28747429D01*
X59150178Y-28774425D01*
X59219381Y-29092548D01*
X59220164Y-29094439D01*
X59190139Y-29153367D01*
X59177861Y-29191156D01*
X59147732Y-29381380D01*
X59146168Y-29401247D01*
X59146168Y-29990570D01*
X59135748Y-29980077D01*
X59116650Y-29964277D01*
X58970276Y-29865546D01*
X59027213Y-29766927D01*
X59042299Y-29725480D01*
X59073408Y-29549053D01*
X59075337Y-29527000D01*
X59075337Y-29177000D01*
X59071009Y-29144130D01*
X59046393Y-29052263D01*
X59059478Y-28978053D01*
X59051546Y-28906934D01*
X59006424Y-28851393D01*
X58979401Y-28842991D01*
X58976516Y-28837448D01*
X58861362Y-28700212D01*
X58858898Y-28698144D01*
X58909288Y-28655862D01*
X58937639Y-28622074D01*
X58972503Y-28561689D01*
X58995830Y-28554839D01*
X59042692Y-28500758D01*
X59049841Y-28415129D01*
X59046393Y-28402262D01*
X59073408Y-28249053D01*
X59075337Y-28227000D01*
X59075337Y-27877000D01*
X59071009Y-27844130D01*
X59046393Y-27752263D01*
X59059478Y-27678053D01*
X59051546Y-27606934D01*
X59006424Y-27551393D01*
X58979401Y-27542991D01*
X58976516Y-27537448D01*
X58861362Y-27400212D01*
X58827574Y-27371861D01*
X58672427Y-27282287D01*
X58652407Y-27275000D01*
X58927169Y-27275000D01*
X58995830Y-27254839D01*
X59042692Y-27200758D01*
X59049842Y-27115130D01*
X59001901Y-26936212D01*
X58976516Y-26887448D01*
X58861362Y-26750212D01*
X58827574Y-26721861D01*
X58806572Y-26709735D01*
X58902609Y-26672485D01*
X58924733Y-26661310D01*
X59091639Y-26555388D01*
X59111170Y-26540128D01*
X59146168Y-26506800D01*
X59146168Y-27098753D01*
G36*
X41435369Y-28139739D02*
G01*
X41452390Y-28156760D01*
X41466029Y-28168584D01*
X41479245Y-28178489D01*
X41530105Y-28223407D01*
X41560203Y-28243177D01*
X41574537Y-28249907D01*
X41587217Y-28259410D01*
X41618804Y-28276704D01*
X41682352Y-28300526D01*
X41743778Y-28329366D01*
X41778979Y-28340011D01*
X41793453Y-28342174D01*
X41808706Y-28347892D01*
X41843871Y-28355624D01*
X41922606Y-28361476D01*
X41939399Y-28363985D01*
X41958168Y-28365380D01*
X41975150Y-28365380D01*
X42046118Y-28370654D01*
X42082043Y-28368205D01*
X42095277Y-28365380D01*
X42232706Y-28365380D01*
X42223314Y-28379993D01*
X42189334Y-28454399D01*
X42129935Y-28427273D01*
X42095252Y-28417089D01*
X41879503Y-28386069D01*
X41861429Y-28384776D01*
X41493000Y-28384776D01*
X41424339Y-28404937D01*
X41377477Y-28459018D01*
X41366000Y-28511776D01*
X41366000Y-29864500D01*
X41112000Y-29864500D01*
X41112000Y-28511776D01*
X41091839Y-28443115D01*
X41037758Y-28396253D01*
X40985000Y-28384776D01*
X40616571Y-28384776D01*
X40589575Y-28387678D01*
X40571756Y-28391554D01*
X40671106Y-28219475D01*
X40683794Y-28188845D01*
X40703521Y-28115224D01*
X41407611Y-28115224D01*
X41435369Y-28139739D01*
X41435369Y-28139739D01*
G37*
X41435369Y-28139739D02*
X41452390Y-28156760D01*
X41466029Y-28168584D01*
X41479245Y-28178489D01*
X41530105Y-28223407D01*
X41560203Y-28243177D01*
X41574537Y-28249907D01*
X41587217Y-28259410D01*
X41618804Y-28276704D01*
X41682352Y-28300526D01*
X41743778Y-28329366D01*
X41778979Y-28340011D01*
X41793453Y-28342174D01*
X41808706Y-28347892D01*
X41843871Y-28355624D01*
X41922606Y-28361476D01*
X41939399Y-28363985D01*
X41958168Y-28365380D01*
X41975150Y-28365380D01*
X42046118Y-28370654D01*
X42082043Y-28368205D01*
X42095277Y-28365380D01*
X42232706Y-28365380D01*
X42223314Y-28379993D01*
X42189334Y-28454399D01*
X42129935Y-28427273D01*
X42095252Y-28417089D01*
X41879503Y-28386069D01*
X41861429Y-28384776D01*
X41493000Y-28384776D01*
X41424339Y-28404937D01*
X41377477Y-28459018D01*
X41366000Y-28511776D01*
X41366000Y-29864500D01*
X41112000Y-29864500D01*
X41112000Y-28511776D01*
X41091839Y-28443115D01*
X41037758Y-28396253D01*
X40985000Y-28384776D01*
X40616571Y-28384776D01*
X40589575Y-28387678D01*
X40571756Y-28391554D01*
X40671106Y-28219475D01*
X40683794Y-28188845D01*
X40703521Y-28115224D01*
X41407611Y-28115224D01*
X41435369Y-28139739D01*
G36*
X57652178Y-26509566D02*
G01*
X57671053Y-26525631D01*
X57755270Y-26584163D01*
X57686500Y-26584163D01*
X57617839Y-26604324D01*
X57570977Y-26658405D01*
X57559500Y-26711163D01*
X57559500Y-27148000D01*
X57579661Y-27216661D01*
X57581828Y-27218539D01*
X57567484Y-27216395D01*
X57548712Y-27215000D01*
X57305500Y-27215000D01*
X57305500Y-26711163D01*
X57285339Y-26642502D01*
X57272459Y-26631341D01*
X57525458Y-26378342D01*
X57652178Y-26509566D01*
X57652178Y-26509566D01*
G37*
X57652178Y-26509566D02*
X57671053Y-26525631D01*
X57755270Y-26584163D01*
X57686500Y-26584163D01*
X57617839Y-26604324D01*
X57570977Y-26658405D01*
X57559500Y-26711163D01*
X57559500Y-27148000D01*
X57579661Y-27216661D01*
X57581828Y-27218539D01*
X57567484Y-27216395D01*
X57548712Y-27215000D01*
X57305500Y-27215000D01*
X57305500Y-26711163D01*
X57285339Y-26642502D01*
X57272459Y-26631341D01*
X57525458Y-26378342D01*
X57652178Y-26509566D01*
G36*
X47277762Y-25681994D02*
G01*
X47267578Y-25716677D01*
X47237069Y-25928868D01*
X47235776Y-25946942D01*
X47235776Y-26395498D01*
X47226095Y-26397031D01*
X47188304Y-26409310D01*
X47152266Y-26427673D01*
X47113805Y-26440169D01*
X47078400Y-26458208D01*
X47045682Y-26481979D01*
X47009645Y-26500341D01*
X46977499Y-26523696D01*
X46825114Y-26676081D01*
X46780401Y-26509212D01*
X46755016Y-26460448D01*
X46639862Y-26323212D01*
X46606074Y-26294861D01*
X46450927Y-26205287D01*
X46409480Y-26190201D01*
X46233053Y-26159092D01*
X46211000Y-26157163D01*
X45411000Y-26157163D01*
X45378130Y-26161490D01*
X45120212Y-26230599D01*
X45071448Y-26255984D01*
X44934212Y-26371138D01*
X44905861Y-26404926D01*
X44816287Y-26560073D01*
X44801201Y-26601520D01*
X44784651Y-26695380D01*
X44226130Y-26695380D01*
X44118602Y-26528062D01*
X44094930Y-26500743D01*
X43932917Y-26360358D01*
X43902507Y-26340815D01*
X43707506Y-26251762D01*
X43672823Y-26241578D01*
X43460632Y-26211069D01*
X43442558Y-26209776D01*
X42972442Y-26209776D01*
X42945446Y-26212678D01*
X42747029Y-26255841D01*
X42718942Y-26126724D01*
X42907058Y-26126724D01*
X42934054Y-26123822D01*
X43246930Y-26055760D01*
X43288595Y-26038501D01*
X43468938Y-25922602D01*
X43496257Y-25898930D01*
X43636642Y-25736917D01*
X43656185Y-25706507D01*
X43745238Y-25511506D01*
X43745680Y-25510000D01*
X47356308Y-25510000D01*
X47277762Y-25681994D01*
X47277762Y-25681994D01*
G37*
X47277762Y-25681994D02*
X47267578Y-25716677D01*
X47237069Y-25928868D01*
X47235776Y-25946942D01*
X47235776Y-26395498D01*
X47226095Y-26397031D01*
X47188304Y-26409310D01*
X47152266Y-26427673D01*
X47113805Y-26440169D01*
X47078400Y-26458208D01*
X47045682Y-26481979D01*
X47009645Y-26500341D01*
X46977499Y-26523696D01*
X46825114Y-26676081D01*
X46780401Y-26509212D01*
X46755016Y-26460448D01*
X46639862Y-26323212D01*
X46606074Y-26294861D01*
X46450927Y-26205287D01*
X46409480Y-26190201D01*
X46233053Y-26159092D01*
X46211000Y-26157163D01*
X45411000Y-26157163D01*
X45378130Y-26161490D01*
X45120212Y-26230599D01*
X45071448Y-26255984D01*
X44934212Y-26371138D01*
X44905861Y-26404926D01*
X44816287Y-26560073D01*
X44801201Y-26601520D01*
X44784651Y-26695380D01*
X44226130Y-26695380D01*
X44118602Y-26528062D01*
X44094930Y-26500743D01*
X43932917Y-26360358D01*
X43902507Y-26340815D01*
X43707506Y-26251762D01*
X43672823Y-26241578D01*
X43460632Y-26211069D01*
X43442558Y-26209776D01*
X42972442Y-26209776D01*
X42945446Y-26212678D01*
X42747029Y-26255841D01*
X42718942Y-26126724D01*
X42907058Y-26126724D01*
X42934054Y-26123822D01*
X43246930Y-26055760D01*
X43288595Y-26038501D01*
X43468938Y-25922602D01*
X43496257Y-25898930D01*
X43636642Y-25736917D01*
X43656185Y-25706507D01*
X43745238Y-25511506D01*
X43745680Y-25510000D01*
X47356308Y-25510000D01*
X47277762Y-25681994D01*
G36*
X51465003Y-25216801D02*
G01*
X51465002Y-26119317D01*
X51465003Y-26119329D01*
X51465003Y-26169759D01*
X51471219Y-26209003D01*
X51483715Y-26247464D01*
X51490043Y-26287414D01*
X51502322Y-26325205D01*
X51519542Y-26359000D01*
X51272000Y-26359000D01*
X51272000Y-25197897D01*
X51251839Y-25129236D01*
X51197758Y-25082374D01*
X51118004Y-25073799D01*
X50824070Y-25137740D01*
X50782405Y-25154999D01*
X50636594Y-25248706D01*
X50609272Y-25225031D01*
X50799305Y-25034998D01*
X51283200Y-25034998D01*
X51465003Y-25216801D01*
X51465003Y-25216801D01*
G37*
X51465003Y-25216801D02*
X51465002Y-26119317D01*
X51465003Y-26119329D01*
X51465003Y-26169759D01*
X51471219Y-26209003D01*
X51483715Y-26247464D01*
X51490043Y-26287414D01*
X51502322Y-26325205D01*
X51519542Y-26359000D01*
X51272000Y-26359000D01*
X51272000Y-25197897D01*
X51251839Y-25129236D01*
X51197758Y-25082374D01*
X51118004Y-25073799D01*
X50824070Y-25137740D01*
X50782405Y-25154999D01*
X50636594Y-25248706D01*
X50609272Y-25225031D01*
X50799305Y-25034998D01*
X51283200Y-25034998D01*
X51465003Y-25216801D01*
G36*
X54283987Y-26000710D02*
G01*
X54284939Y-25997850D01*
X54328734Y-25805083D01*
X54331878Y-25778720D01*
X54335031Y-25552934D01*
X54332624Y-25526493D01*
X54294228Y-25332578D01*
X54287064Y-25308850D01*
X54211734Y-25126087D01*
X54200098Y-25104202D01*
X54090704Y-24939551D01*
X54075039Y-24920344D01*
X53935748Y-24780077D01*
X53916650Y-24764277D01*
X53752767Y-24653736D01*
X53730963Y-24641947D01*
X53548730Y-24565344D01*
X53525053Y-24558015D01*
X53331411Y-24518266D01*
X53306761Y-24515675D01*
X53109087Y-24514295D01*
X53084403Y-24516541D01*
X52906009Y-24550571D01*
X52898784Y-24536390D01*
X52875013Y-24503672D01*
X52856651Y-24467635D01*
X52833296Y-24435489D01*
X52691511Y-24293704D01*
X52206297Y-23808491D01*
X52206296Y-23808489D01*
X52064511Y-23666704D01*
X52032366Y-23643350D01*
X51996327Y-23624987D01*
X51963609Y-23601216D01*
X51928204Y-23583177D01*
X51889746Y-23570682D01*
X51853706Y-23552318D01*
X51815915Y-23540039D01*
X51775965Y-23533712D01*
X51737504Y-23521215D01*
X51698259Y-23514999D01*
X51647830Y-23514999D01*
X51647818Y-23514998D01*
X50384245Y-23514998D01*
X50344998Y-23521214D01*
X50306536Y-23533712D01*
X50266590Y-23540038D01*
X50228799Y-23552317D01*
X50192760Y-23570680D01*
X50154298Y-23583177D01*
X50118895Y-23601216D01*
X50086175Y-23624989D01*
X50050140Y-23643349D01*
X50017993Y-23666704D01*
X49982333Y-23702364D01*
X49982325Y-23702371D01*
X49694695Y-23990001D01*
X49663328Y-23990001D01*
X49663316Y-23990000D01*
X43285298Y-23990000D01*
X43172006Y-23938262D01*
X43137323Y-23928078D01*
X42925132Y-23897569D01*
X42907058Y-23896276D01*
X42336942Y-23896276D01*
X42309946Y-23899178D01*
X41997070Y-23967240D01*
X41955405Y-23984499D01*
X41775062Y-24100398D01*
X41747743Y-24124070D01*
X41742932Y-24129622D01*
X41647417Y-24046858D01*
X41617007Y-24027315D01*
X41422006Y-23938262D01*
X41387323Y-23928078D01*
X41175132Y-23897569D01*
X41157058Y-23896276D01*
X40586942Y-23896276D01*
X40559946Y-23899178D01*
X40247070Y-23967240D01*
X40205405Y-23984499D01*
X40025062Y-24100398D01*
X39997743Y-24124070D01*
X39985716Y-24137950D01*
X39822053Y-24109092D01*
X39800000Y-24107163D01*
X36135000Y-24107163D01*
X36135000Y-23581440D01*
X36135061Y-23581133D01*
X36135825Y-23574910D01*
X36135917Y-23574141D01*
X36147390Y-23475740D01*
X36155719Y-23452792D01*
X36169112Y-23432364D01*
X36186840Y-23415570D01*
X36207955Y-23403306D01*
X36239719Y-23393686D01*
X36306912Y-23387689D01*
X36323560Y-23385000D01*
X56899697Y-23385000D01*
X54283987Y-26000710D01*
X54283987Y-26000710D01*
G37*
X54283987Y-26000710D02*
X54284939Y-25997850D01*
X54328734Y-25805083D01*
X54331878Y-25778720D01*
X54335031Y-25552934D01*
X54332624Y-25526493D01*
X54294228Y-25332578D01*
X54287064Y-25308850D01*
X54211734Y-25126087D01*
X54200098Y-25104202D01*
X54090704Y-24939551D01*
X54075039Y-24920344D01*
X53935748Y-24780077D01*
X53916650Y-24764277D01*
X53752767Y-24653736D01*
X53730963Y-24641947D01*
X53548730Y-24565344D01*
X53525053Y-24558015D01*
X53331411Y-24518266D01*
X53306761Y-24515675D01*
X53109087Y-24514295D01*
X53084403Y-24516541D01*
X52906009Y-24550571D01*
X52898784Y-24536390D01*
X52875013Y-24503672D01*
X52856651Y-24467635D01*
X52833296Y-24435489D01*
X52691511Y-24293704D01*
X52206297Y-23808491D01*
X52206296Y-23808489D01*
X52064511Y-23666704D01*
X52032366Y-23643350D01*
X51996327Y-23624987D01*
X51963609Y-23601216D01*
X51928204Y-23583177D01*
X51889746Y-23570682D01*
X51853706Y-23552318D01*
X51815915Y-23540039D01*
X51775965Y-23533712D01*
X51737504Y-23521215D01*
X51698259Y-23514999D01*
X51647830Y-23514999D01*
X51647818Y-23514998D01*
X50384245Y-23514998D01*
X50344998Y-23521214D01*
X50306536Y-23533712D01*
X50266590Y-23540038D01*
X50228799Y-23552317D01*
X50192760Y-23570680D01*
X50154298Y-23583177D01*
X50118895Y-23601216D01*
X50086175Y-23624989D01*
X50050140Y-23643349D01*
X50017993Y-23666704D01*
X49982333Y-23702364D01*
X49982325Y-23702371D01*
X49694695Y-23990001D01*
X49663328Y-23990001D01*
X49663316Y-23990000D01*
X43285298Y-23990000D01*
X43172006Y-23938262D01*
X43137323Y-23928078D01*
X42925132Y-23897569D01*
X42907058Y-23896276D01*
X42336942Y-23896276D01*
X42309946Y-23899178D01*
X41997070Y-23967240D01*
X41955405Y-23984499D01*
X41775062Y-24100398D01*
X41747743Y-24124070D01*
X41742932Y-24129622D01*
X41647417Y-24046858D01*
X41617007Y-24027315D01*
X41422006Y-23938262D01*
X41387323Y-23928078D01*
X41175132Y-23897569D01*
X41157058Y-23896276D01*
X40586942Y-23896276D01*
X40559946Y-23899178D01*
X40247070Y-23967240D01*
X40205405Y-23984499D01*
X40025062Y-24100398D01*
X39997743Y-24124070D01*
X39985716Y-24137950D01*
X39822053Y-24109092D01*
X39800000Y-24107163D01*
X36135000Y-24107163D01*
X36135000Y-23581440D01*
X36135061Y-23581133D01*
X36135825Y-23574910D01*
X36135917Y-23574141D01*
X36147390Y-23475740D01*
X36155719Y-23452792D01*
X36169112Y-23432364D01*
X36186840Y-23415570D01*
X36207955Y-23403306D01*
X36239719Y-23393686D01*
X36306912Y-23387689D01*
X36323560Y-23385000D01*
X56899697Y-23385000D01*
X54283987Y-26000710D01*
M02*
