%TF.GenerationSoftware,KiCad,Pcbnew,(5.1.0-1220-ga833aeeac)*%
%TF.CreationDate,2019-07-10T21:20:11+03:00*%
%TF.ProjectId,proto_II_sensor_kicad,70726f74-6f5f-4494-995f-73656e736f72,rev?*%
%TF.SameCoordinates,Original*%
%TF.FileFunction,Copper,L1,Top*%
%TF.FilePolarity,Positive*%
%FSLAX46Y46*%
G04 Gerber Fmt 4.6, Leading zero omitted, Abs format (unit mm)*
G04 Created by KiCad (PCBNEW (5.1.0-1220-ga833aeeac)) date 2019-07-10 21:20:11*
%MOMM*%
%LPD*%
G04 APERTURE LIST*
%ADD10R,0.800000X0.900000*%
%ADD11C,0.160000*%
%ADD12C,0.950000*%
%ADD13C,0.875000*%
%ADD14C,1.425000*%
%ADD15R,4.000000X1.000000*%
%ADD16C,0.800000*%
%ADD17C,0.400000*%
%ADD18C,0.250000*%
%ADD19C,0.254000*%
G04 APERTURE END LIST*
D10*
X135635356Y-126650000D03*
X136585356Y-128650000D03*
X134685356Y-128650000D03*
D11*
G36*
X131378387Y-128818079D02*
G01*
X131455438Y-128869562D01*
X131506921Y-128946613D01*
X131525000Y-129037500D01*
X131525000Y-129512500D01*
X131506921Y-129603387D01*
X131455438Y-129680438D01*
X131378387Y-129731921D01*
X131287500Y-129750000D01*
X130712500Y-129750000D01*
X130621613Y-129731921D01*
X130544562Y-129680438D01*
X130493079Y-129603387D01*
X130475000Y-129512500D01*
X130475000Y-129037500D01*
X130493079Y-128946613D01*
X130544562Y-128869562D01*
X130621613Y-128818079D01*
X130712500Y-128800000D01*
X131287500Y-128800000D01*
X131378387Y-128818079D01*
X131378387Y-128818079D01*
G37*
D12*
X131000000Y-129275000D03*
D11*
G36*
X129628387Y-128818079D02*
G01*
X129705438Y-128869562D01*
X129756921Y-128946613D01*
X129775000Y-129037500D01*
X129775000Y-129512500D01*
X129756921Y-129603387D01*
X129705438Y-129680438D01*
X129628387Y-129731921D01*
X129537500Y-129750000D01*
X128962500Y-129750000D01*
X128871613Y-129731921D01*
X128794562Y-129680438D01*
X128743079Y-129603387D01*
X128725000Y-129512500D01*
X128725000Y-129037500D01*
X128743079Y-128946613D01*
X128794562Y-128869562D01*
X128871613Y-128818079D01*
X128962500Y-128800000D01*
X129537500Y-128800000D01*
X129628387Y-128818079D01*
X129628387Y-128818079D01*
G37*
D12*
X129250000Y-129275000D03*
D11*
G36*
X131378387Y-127293079D02*
G01*
X131455438Y-127344562D01*
X131506921Y-127421613D01*
X131525000Y-127512500D01*
X131525000Y-127987500D01*
X131506921Y-128078387D01*
X131455438Y-128155438D01*
X131378387Y-128206921D01*
X131287500Y-128225000D01*
X130712500Y-128225000D01*
X130621613Y-128206921D01*
X130544562Y-128155438D01*
X130493079Y-128078387D01*
X130475000Y-127987500D01*
X130475000Y-127512500D01*
X130493079Y-127421613D01*
X130544562Y-127344562D01*
X130621613Y-127293079D01*
X130712500Y-127275000D01*
X131287500Y-127275000D01*
X131378387Y-127293079D01*
X131378387Y-127293079D01*
G37*
D12*
X131000000Y-127750000D03*
D11*
G36*
X129628387Y-127293079D02*
G01*
X129705438Y-127344562D01*
X129756921Y-127421613D01*
X129775000Y-127512500D01*
X129775000Y-127987500D01*
X129756921Y-128078387D01*
X129705438Y-128155438D01*
X129628387Y-128206921D01*
X129537500Y-128225000D01*
X128962500Y-128225000D01*
X128871613Y-128206921D01*
X128794562Y-128155438D01*
X128743079Y-128078387D01*
X128725000Y-127987500D01*
X128725000Y-127512500D01*
X128743079Y-127421613D01*
X128794562Y-127344562D01*
X128871613Y-127293079D01*
X128962500Y-127275000D01*
X129537500Y-127275000D01*
X129628387Y-127293079D01*
X129628387Y-127293079D01*
G37*
D12*
X129250000Y-127750000D03*
D11*
G36*
X135239962Y-129691651D02*
G01*
X135310930Y-129739070D01*
X135358349Y-129810038D01*
X135375000Y-129893750D01*
X135375000Y-130406250D01*
X135358349Y-130489962D01*
X135310930Y-130560930D01*
X135239962Y-130608349D01*
X135156250Y-130625000D01*
X134718750Y-130625000D01*
X134635038Y-130608349D01*
X134564070Y-130560930D01*
X134516651Y-130489962D01*
X134500000Y-130406250D01*
X134500000Y-129893750D01*
X134516651Y-129810038D01*
X134564070Y-129739070D01*
X134635038Y-129691651D01*
X134718750Y-129675000D01*
X135156250Y-129675000D01*
X135239962Y-129691651D01*
X135239962Y-129691651D01*
G37*
D13*
X134937500Y-130150000D03*
D11*
G36*
X136814962Y-129691651D02*
G01*
X136885930Y-129739070D01*
X136933349Y-129810038D01*
X136950000Y-129893750D01*
X136950000Y-130406250D01*
X136933349Y-130489962D01*
X136885930Y-130560930D01*
X136814962Y-130608349D01*
X136731250Y-130625000D01*
X136293750Y-130625000D01*
X136210038Y-130608349D01*
X136139070Y-130560930D01*
X136091651Y-130489962D01*
X136075000Y-130406250D01*
X136075000Y-129893750D01*
X136091651Y-129810038D01*
X136139070Y-129739070D01*
X136210038Y-129691651D01*
X136293750Y-129675000D01*
X136731250Y-129675000D01*
X136814962Y-129691651D01*
X136814962Y-129691651D01*
G37*
D13*
X136512500Y-130150000D03*
D11*
G36*
X136602463Y-124616651D02*
G01*
X136673431Y-124664070D01*
X136720850Y-124735038D01*
X136737501Y-124818750D01*
X136737501Y-125331250D01*
X136720850Y-125414962D01*
X136673431Y-125485930D01*
X136602463Y-125533349D01*
X136518751Y-125550000D01*
X136081251Y-125550000D01*
X135997539Y-125533349D01*
X135926571Y-125485930D01*
X135879152Y-125414962D01*
X135862501Y-125331250D01*
X135862501Y-124818750D01*
X135879152Y-124735038D01*
X135926571Y-124664070D01*
X135997539Y-124616651D01*
X136081251Y-124600000D01*
X136518751Y-124600000D01*
X136602463Y-124616651D01*
X136602463Y-124616651D01*
G37*
D13*
X136300001Y-125075000D03*
D11*
G36*
X135027463Y-124616651D02*
G01*
X135098431Y-124664070D01*
X135145850Y-124735038D01*
X135162501Y-124818750D01*
X135162501Y-125331250D01*
X135145850Y-125414962D01*
X135098431Y-125485930D01*
X135027463Y-125533349D01*
X134943751Y-125550000D01*
X134506251Y-125550000D01*
X134422539Y-125533349D01*
X134351571Y-125485930D01*
X134304152Y-125414962D01*
X134287501Y-125331250D01*
X134287501Y-124818750D01*
X134304152Y-124735038D01*
X134351571Y-124664070D01*
X134422539Y-124616651D01*
X134506251Y-124600000D01*
X134943751Y-124600000D01*
X135027463Y-124616651D01*
X135027463Y-124616651D01*
G37*
D13*
X134725001Y-125075000D03*
D11*
G36*
X133370671Y-122356530D02*
G01*
X133451777Y-122410723D01*
X133505970Y-122491829D01*
X133525000Y-122587500D01*
X133525000Y-123512500D01*
X133505970Y-123608171D01*
X133451777Y-123689277D01*
X133370671Y-123743470D01*
X133275000Y-123762500D01*
X132025000Y-123762500D01*
X131929329Y-123743470D01*
X131848223Y-123689277D01*
X131794030Y-123608171D01*
X131775000Y-123512500D01*
X131775000Y-122587500D01*
X131794030Y-122491829D01*
X131848223Y-122410723D01*
X131929329Y-122356530D01*
X132025000Y-122337500D01*
X133275000Y-122337500D01*
X133370671Y-122356530D01*
X133370671Y-122356530D01*
G37*
D14*
X132650000Y-123050000D03*
D11*
G36*
X133370671Y-125331530D02*
G01*
X133451777Y-125385723D01*
X133505970Y-125466829D01*
X133525000Y-125562500D01*
X133525000Y-126487500D01*
X133505970Y-126583171D01*
X133451777Y-126664277D01*
X133370671Y-126718470D01*
X133275000Y-126737500D01*
X132025000Y-126737500D01*
X131929329Y-126718470D01*
X131848223Y-126664277D01*
X131794030Y-126583171D01*
X131775000Y-126487500D01*
X131775000Y-125562500D01*
X131794030Y-125466829D01*
X131848223Y-125385723D01*
X131929329Y-125331530D01*
X132025000Y-125312500D01*
X133275000Y-125312500D01*
X133370671Y-125331530D01*
X133370671Y-125331530D01*
G37*
D14*
X132650000Y-126025000D03*
D15*
X126275000Y-129150000D03*
X126275000Y-127750000D03*
X133125000Y-132525000D03*
X133125000Y-133925000D03*
D16*
X129075000Y-125800000D03*
X130825000Y-121725000D03*
X126475000Y-125300000D03*
X134900000Y-123425000D03*
X136950000Y-126300000D03*
X126650000Y-124200000D03*
X126900000Y-133375000D03*
X125730000Y-132334000D03*
X127000000Y-130810000D03*
X127250000Y-123175000D03*
X135200000Y-131275000D03*
X132175000Y-129475000D03*
X132350000Y-127550000D03*
D17*
X136325000Y-130150000D02*
X135200000Y-131275000D01*
X136512500Y-130150000D02*
X136325000Y-130150000D01*
X136585356Y-130089644D02*
X136550000Y-130125000D01*
X136585356Y-128650000D02*
X136585356Y-130089644D01*
X133125000Y-134050000D02*
X133075000Y-134000000D01*
X133125000Y-134025000D02*
X133125000Y-134050000D01*
X133125000Y-134000000D02*
X133125000Y-134025000D01*
X134870002Y-134000000D02*
X133125000Y-134000000D01*
X137525000Y-130825000D02*
X135525001Y-132824999D01*
X137525000Y-128019642D02*
X137525000Y-130825000D01*
X135525001Y-133345001D02*
X134870002Y-134000000D01*
X135525001Y-132824999D02*
X135525001Y-133345001D01*
X135550000Y-126550000D02*
X136055358Y-126550000D01*
X136055358Y-126550000D02*
X137525000Y-128019642D01*
X135550000Y-126000000D02*
X135550000Y-126550000D01*
X134675000Y-125125000D02*
X135550000Y-126000000D01*
X133675000Y-126125000D02*
X134675000Y-125125000D01*
X132625000Y-126125000D02*
X133675000Y-126125000D01*
D18*
X129225000Y-129150000D02*
X129250000Y-129175000D01*
X126275000Y-129150000D02*
X129225000Y-129150000D01*
X129200000Y-127750000D02*
X129225000Y-127775000D01*
X126275000Y-127750000D02*
X129200000Y-127750000D01*
X131875000Y-129175000D02*
X132175000Y-129475000D01*
X131000000Y-129175000D02*
X131875000Y-129175000D01*
X132150000Y-127750000D02*
X132350000Y-127550000D01*
X131000000Y-127750000D02*
X132150000Y-127750000D01*
X134625000Y-125225000D02*
X134625000Y-125125000D01*
X132625000Y-126125000D02*
X132675000Y-126125000D01*
D19*
G36*
X134592519Y-127100000D02*
G01*
X134596846Y-127132870D01*
X134665955Y-127390789D01*
X134691340Y-127439553D01*
X134806494Y-127576788D01*
X134840282Y-127605139D01*
X134844488Y-127607568D01*
X134823833Y-127631405D01*
X134812356Y-127684163D01*
X134812356Y-128777000D01*
X133769519Y-128777000D01*
X133700858Y-128797161D01*
X133653996Y-128851242D01*
X133642519Y-128904000D01*
X133642519Y-129100000D01*
X133646846Y-129132870D01*
X133715955Y-129390789D01*
X133741340Y-129439553D01*
X133856494Y-129576788D01*
X133890282Y-129605139D01*
X133910052Y-129616553D01*
X133900994Y-129636386D01*
X133890810Y-129671070D01*
X133861069Y-129877925D01*
X133859776Y-129895999D01*
X133859776Y-129896000D01*
X133879937Y-129964661D01*
X133934018Y-130011523D01*
X133986776Y-130023000D01*
X135064500Y-130023000D01*
X135064500Y-130229631D01*
X135050140Y-130243991D01*
X135047590Y-130244327D01*
X134925653Y-130277000D01*
X133986776Y-130277000D01*
X133918115Y-130297161D01*
X133871253Y-130351242D01*
X133859776Y-130404000D01*
X133859776Y-130404001D01*
X133862678Y-130430997D01*
X133929028Y-130736004D01*
X133946287Y-130777669D01*
X134059271Y-130953476D01*
X134082943Y-130980795D01*
X134183884Y-131068261D01*
X134169327Y-131122590D01*
X134165000Y-131155460D01*
X134165000Y-131382163D01*
X133379000Y-131382163D01*
X133310339Y-131402324D01*
X133263477Y-131456405D01*
X133252000Y-131509163D01*
X133252000Y-132652000D01*
X130609163Y-132652000D01*
X130540502Y-132672161D01*
X130493640Y-132726242D01*
X130482163Y-132779000D01*
X130482163Y-133025000D01*
X130486490Y-133057870D01*
X130524692Y-133200443D01*
X130515201Y-133226520D01*
X130484092Y-133402947D01*
X130482163Y-133425000D01*
X130482163Y-134425000D01*
X130486490Y-134457870D01*
X130555599Y-134715789D01*
X130580984Y-134764553D01*
X130696138Y-134901788D01*
X130729926Y-134930139D01*
X130885073Y-135019713D01*
X130926520Y-135034799D01*
X131102947Y-135065908D01*
X131125000Y-135067837D01*
X133002521Y-135067837D01*
X132882070Y-135107090D01*
X132381402Y-135229603D01*
X131872912Y-135314238D01*
X131359547Y-135360507D01*
X130844142Y-135368153D01*
X130329611Y-135337134D01*
X129818864Y-135267624D01*
X129314753Y-135160012D01*
X128820147Y-135014910D01*
X128337796Y-134833127D01*
X127870442Y-134615692D01*
X127420699Y-134363823D01*
X126991127Y-134078956D01*
X126584096Y-133762662D01*
X126201938Y-133416749D01*
X125846803Y-133043168D01*
X125520657Y-132643987D01*
X125225377Y-132221498D01*
X125200987Y-132180339D01*
X125369437Y-132150636D01*
X125393309Y-132143970D01*
X125577609Y-132072485D01*
X125599733Y-132061310D01*
X125766639Y-131955388D01*
X125786170Y-131940128D01*
X125929324Y-131803805D01*
X125945521Y-131785041D01*
X126059469Y-131623508D01*
X126071711Y-131601958D01*
X126152115Y-131421370D01*
X126159939Y-131397850D01*
X126203734Y-131205083D01*
X126206878Y-131178720D01*
X126210031Y-130952934D01*
X126207624Y-130926493D01*
X126169228Y-130732578D01*
X126162064Y-130708850D01*
X126086734Y-130526087D01*
X126075098Y-130504202D01*
X125965704Y-130339551D01*
X125950039Y-130320344D01*
X125922723Y-130292837D01*
X128275000Y-130292837D01*
X128307870Y-130288510D01*
X128479193Y-130242604D01*
X128504993Y-130259185D01*
X128699994Y-130348238D01*
X128734677Y-130358422D01*
X128946868Y-130388931D01*
X128964942Y-130390224D01*
X129351137Y-130390224D01*
X129282619Y-130490292D01*
X129270679Y-130512012D01*
X129192805Y-130693705D01*
X129185310Y-130717331D01*
X129144210Y-130910691D01*
X129141447Y-130935323D01*
X129138687Y-131132982D01*
X129140761Y-131157681D01*
X129176446Y-131352113D01*
X129183279Y-131375939D01*
X129256050Y-131559736D01*
X129267379Y-131581781D01*
X129374463Y-131747943D01*
X129389859Y-131767367D01*
X129527178Y-131909566D01*
X129546053Y-131925631D01*
X129708377Y-132038449D01*
X129730014Y-132050541D01*
X129911160Y-132129681D01*
X129934732Y-132137340D01*
X130127799Y-132179789D01*
X130152411Y-132182724D01*
X130350047Y-132186864D01*
X130374761Y-132184963D01*
X130482163Y-132166025D01*
X130482163Y-132271000D01*
X130502324Y-132339661D01*
X130556405Y-132386523D01*
X130609163Y-132398000D01*
X132871000Y-132398000D01*
X132939661Y-132377839D01*
X132986523Y-132323758D01*
X132998000Y-132271000D01*
X132998000Y-131509163D01*
X132977839Y-131440502D01*
X132923758Y-131393640D01*
X132871000Y-131382163D01*
X131363503Y-131382163D01*
X131403734Y-131205083D01*
X131406878Y-131178720D01*
X131410031Y-130952934D01*
X131407624Y-130926493D01*
X131369228Y-130732578D01*
X131362064Y-130708850D01*
X131286734Y-130526087D01*
X131275098Y-130504202D01*
X131199371Y-130390224D01*
X131285058Y-130390224D01*
X131312054Y-130387322D01*
X131583073Y-130328366D01*
X131761025Y-130431106D01*
X131791655Y-130443794D01*
X132022590Y-130505673D01*
X132055460Y-130510000D01*
X132294540Y-130510000D01*
X132327410Y-130505673D01*
X132558345Y-130443794D01*
X132588975Y-130431106D01*
X132796025Y-130311566D01*
X132822328Y-130291384D01*
X132991384Y-130122328D01*
X133011566Y-130096025D01*
X133131106Y-129888975D01*
X133143794Y-129858345D01*
X133205673Y-129627410D01*
X133210000Y-129594540D01*
X133210000Y-129355460D01*
X133205673Y-129322590D01*
X133143794Y-129091655D01*
X133131106Y-129061025D01*
X133011566Y-128853975D01*
X132991384Y-128827672D01*
X132822328Y-128658616D01*
X132796025Y-128638434D01*
X132634620Y-128545247D01*
X132733345Y-128518794D01*
X132763975Y-128506106D01*
X132971025Y-128386566D01*
X132997328Y-128366384D01*
X133163712Y-128200000D01*
X133642519Y-128200000D01*
X133642519Y-128396000D01*
X133662680Y-128464661D01*
X133716761Y-128511523D01*
X133769519Y-128523000D01*
X134431356Y-128523000D01*
X134500017Y-128502839D01*
X134546879Y-128448758D01*
X134558356Y-128396000D01*
X134558356Y-127684163D01*
X134538195Y-127615502D01*
X134484114Y-127568640D01*
X134431356Y-127557163D01*
X134285356Y-127557163D01*
X134252486Y-127561490D01*
X133994568Y-127630599D01*
X133945804Y-127655984D01*
X133808568Y-127771138D01*
X133780217Y-127804926D01*
X133690643Y-127960073D01*
X133675557Y-128001520D01*
X133644448Y-128177947D01*
X133642519Y-128200000D01*
X133163712Y-128200000D01*
X133166384Y-128197328D01*
X133186566Y-128171025D01*
X133306106Y-127963975D01*
X133318794Y-127933345D01*
X133380673Y-127702410D01*
X133385000Y-127669540D01*
X133385000Y-127430460D01*
X133380673Y-127397590D01*
X133370433Y-127359375D01*
X133617548Y-127305619D01*
X133659214Y-127288360D01*
X133842580Y-127170517D01*
X133869898Y-127146845D01*
X134012637Y-126982116D01*
X134032180Y-126951706D01*
X134070902Y-126866917D01*
X134086346Y-126858644D01*
X134098101Y-126849945D01*
X134112937Y-126843200D01*
X134143273Y-126823799D01*
X134203080Y-126772266D01*
X134216728Y-126762167D01*
X134230990Y-126749879D01*
X134243001Y-126737868D01*
X134296909Y-126691418D01*
X134320580Y-126664284D01*
X134327940Y-126652929D01*
X134592519Y-126388350D01*
X134592519Y-127100000D01*
X134592519Y-127100000D01*
G37*
X134592519Y-127100000D02*
X134596846Y-127132870D01*
X134665955Y-127390789D01*
X134691340Y-127439553D01*
X134806494Y-127576788D01*
X134840282Y-127605139D01*
X134844488Y-127607568D01*
X134823833Y-127631405D01*
X134812356Y-127684163D01*
X134812356Y-128777000D01*
X133769519Y-128777000D01*
X133700858Y-128797161D01*
X133653996Y-128851242D01*
X133642519Y-128904000D01*
X133642519Y-129100000D01*
X133646846Y-129132870D01*
X133715955Y-129390789D01*
X133741340Y-129439553D01*
X133856494Y-129576788D01*
X133890282Y-129605139D01*
X133910052Y-129616553D01*
X133900994Y-129636386D01*
X133890810Y-129671070D01*
X133861069Y-129877925D01*
X133859776Y-129895999D01*
X133859776Y-129896000D01*
X133879937Y-129964661D01*
X133934018Y-130011523D01*
X133986776Y-130023000D01*
X135064500Y-130023000D01*
X135064500Y-130229631D01*
X135050140Y-130243991D01*
X135047590Y-130244327D01*
X134925653Y-130277000D01*
X133986776Y-130277000D01*
X133918115Y-130297161D01*
X133871253Y-130351242D01*
X133859776Y-130404000D01*
X133859776Y-130404001D01*
X133862678Y-130430997D01*
X133929028Y-130736004D01*
X133946287Y-130777669D01*
X134059271Y-130953476D01*
X134082943Y-130980795D01*
X134183884Y-131068261D01*
X134169327Y-131122590D01*
X134165000Y-131155460D01*
X134165000Y-131382163D01*
X133379000Y-131382163D01*
X133310339Y-131402324D01*
X133263477Y-131456405D01*
X133252000Y-131509163D01*
X133252000Y-132652000D01*
X130609163Y-132652000D01*
X130540502Y-132672161D01*
X130493640Y-132726242D01*
X130482163Y-132779000D01*
X130482163Y-133025000D01*
X130486490Y-133057870D01*
X130524692Y-133200443D01*
X130515201Y-133226520D01*
X130484092Y-133402947D01*
X130482163Y-133425000D01*
X130482163Y-134425000D01*
X130486490Y-134457870D01*
X130555599Y-134715789D01*
X130580984Y-134764553D01*
X130696138Y-134901788D01*
X130729926Y-134930139D01*
X130885073Y-135019713D01*
X130926520Y-135034799D01*
X131102947Y-135065908D01*
X131125000Y-135067837D01*
X133002521Y-135067837D01*
X132882070Y-135107090D01*
X132381402Y-135229603D01*
X131872912Y-135314238D01*
X131359547Y-135360507D01*
X130844142Y-135368153D01*
X130329611Y-135337134D01*
X129818864Y-135267624D01*
X129314753Y-135160012D01*
X128820147Y-135014910D01*
X128337796Y-134833127D01*
X127870442Y-134615692D01*
X127420699Y-134363823D01*
X126991127Y-134078956D01*
X126584096Y-133762662D01*
X126201938Y-133416749D01*
X125846803Y-133043168D01*
X125520657Y-132643987D01*
X125225377Y-132221498D01*
X125200987Y-132180339D01*
X125369437Y-132150636D01*
X125393309Y-132143970D01*
X125577609Y-132072485D01*
X125599733Y-132061310D01*
X125766639Y-131955388D01*
X125786170Y-131940128D01*
X125929324Y-131803805D01*
X125945521Y-131785041D01*
X126059469Y-131623508D01*
X126071711Y-131601958D01*
X126152115Y-131421370D01*
X126159939Y-131397850D01*
X126203734Y-131205083D01*
X126206878Y-131178720D01*
X126210031Y-130952934D01*
X126207624Y-130926493D01*
X126169228Y-130732578D01*
X126162064Y-130708850D01*
X126086734Y-130526087D01*
X126075098Y-130504202D01*
X125965704Y-130339551D01*
X125950039Y-130320344D01*
X125922723Y-130292837D01*
X128275000Y-130292837D01*
X128307870Y-130288510D01*
X128479193Y-130242604D01*
X128504993Y-130259185D01*
X128699994Y-130348238D01*
X128734677Y-130358422D01*
X128946868Y-130388931D01*
X128964942Y-130390224D01*
X129351137Y-130390224D01*
X129282619Y-130490292D01*
X129270679Y-130512012D01*
X129192805Y-130693705D01*
X129185310Y-130717331D01*
X129144210Y-130910691D01*
X129141447Y-130935323D01*
X129138687Y-131132982D01*
X129140761Y-131157681D01*
X129176446Y-131352113D01*
X129183279Y-131375939D01*
X129256050Y-131559736D01*
X129267379Y-131581781D01*
X129374463Y-131747943D01*
X129389859Y-131767367D01*
X129527178Y-131909566D01*
X129546053Y-131925631D01*
X129708377Y-132038449D01*
X129730014Y-132050541D01*
X129911160Y-132129681D01*
X129934732Y-132137340D01*
X130127799Y-132179789D01*
X130152411Y-132182724D01*
X130350047Y-132186864D01*
X130374761Y-132184963D01*
X130482163Y-132166025D01*
X130482163Y-132271000D01*
X130502324Y-132339661D01*
X130556405Y-132386523D01*
X130609163Y-132398000D01*
X132871000Y-132398000D01*
X132939661Y-132377839D01*
X132986523Y-132323758D01*
X132998000Y-132271000D01*
X132998000Y-131509163D01*
X132977839Y-131440502D01*
X132923758Y-131393640D01*
X132871000Y-131382163D01*
X131363503Y-131382163D01*
X131403734Y-131205083D01*
X131406878Y-131178720D01*
X131410031Y-130952934D01*
X131407624Y-130926493D01*
X131369228Y-130732578D01*
X131362064Y-130708850D01*
X131286734Y-130526087D01*
X131275098Y-130504202D01*
X131199371Y-130390224D01*
X131285058Y-130390224D01*
X131312054Y-130387322D01*
X131583073Y-130328366D01*
X131761025Y-130431106D01*
X131791655Y-130443794D01*
X132022590Y-130505673D01*
X132055460Y-130510000D01*
X132294540Y-130510000D01*
X132327410Y-130505673D01*
X132558345Y-130443794D01*
X132588975Y-130431106D01*
X132796025Y-130311566D01*
X132822328Y-130291384D01*
X132991384Y-130122328D01*
X133011566Y-130096025D01*
X133131106Y-129888975D01*
X133143794Y-129858345D01*
X133205673Y-129627410D01*
X133210000Y-129594540D01*
X133210000Y-129355460D01*
X133205673Y-129322590D01*
X133143794Y-129091655D01*
X133131106Y-129061025D01*
X133011566Y-128853975D01*
X132991384Y-128827672D01*
X132822328Y-128658616D01*
X132796025Y-128638434D01*
X132634620Y-128545247D01*
X132733345Y-128518794D01*
X132763975Y-128506106D01*
X132971025Y-128386566D01*
X132997328Y-128366384D01*
X133163712Y-128200000D01*
X133642519Y-128200000D01*
X133642519Y-128396000D01*
X133662680Y-128464661D01*
X133716761Y-128511523D01*
X133769519Y-128523000D01*
X134431356Y-128523000D01*
X134500017Y-128502839D01*
X134546879Y-128448758D01*
X134558356Y-128396000D01*
X134558356Y-127684163D01*
X134538195Y-127615502D01*
X134484114Y-127568640D01*
X134431356Y-127557163D01*
X134285356Y-127557163D01*
X134252486Y-127561490D01*
X133994568Y-127630599D01*
X133945804Y-127655984D01*
X133808568Y-127771138D01*
X133780217Y-127804926D01*
X133690643Y-127960073D01*
X133675557Y-128001520D01*
X133644448Y-128177947D01*
X133642519Y-128200000D01*
X133163712Y-128200000D01*
X133166384Y-128197328D01*
X133186566Y-128171025D01*
X133306106Y-127963975D01*
X133318794Y-127933345D01*
X133380673Y-127702410D01*
X133385000Y-127669540D01*
X133385000Y-127430460D01*
X133380673Y-127397590D01*
X133370433Y-127359375D01*
X133617548Y-127305619D01*
X133659214Y-127288360D01*
X133842580Y-127170517D01*
X133869898Y-127146845D01*
X134012637Y-126982116D01*
X134032180Y-126951706D01*
X134070902Y-126866917D01*
X134086346Y-126858644D01*
X134098101Y-126849945D01*
X134112937Y-126843200D01*
X134143273Y-126823799D01*
X134203080Y-126772266D01*
X134216728Y-126762167D01*
X134230990Y-126749879D01*
X134243001Y-126737868D01*
X134296909Y-126691418D01*
X134320580Y-126664284D01*
X134327940Y-126652929D01*
X134592519Y-126388350D01*
X134592519Y-127100000D01*
G36*
X137295337Y-125749627D02*
G01*
X137483841Y-126229400D01*
X137635836Y-126721936D01*
X137703119Y-127016892D01*
X136814578Y-126128352D01*
X136848505Y-126120972D01*
X136890170Y-126103713D01*
X137065977Y-125990729D01*
X137093296Y-125967057D01*
X137230150Y-125809119D01*
X137249693Y-125778710D01*
X137278714Y-125715163D01*
X137295337Y-125749627D01*
X137295337Y-125749627D01*
G37*
X137295337Y-125749627D02*
X137483841Y-126229400D01*
X137635836Y-126721936D01*
X137703119Y-127016892D01*
X136814578Y-126128352D01*
X136848505Y-126120972D01*
X136890170Y-126103713D01*
X137065977Y-125990729D01*
X137093296Y-125967057D01*
X137230150Y-125809119D01*
X137249693Y-125778710D01*
X137278714Y-125715163D01*
X137295337Y-125749627D01*
G36*
X131741946Y-121670261D02*
G01*
X131978496Y-121704981D01*
X131682452Y-121769381D01*
X131640786Y-121786640D01*
X131457420Y-121904483D01*
X131430102Y-121928155D01*
X131287363Y-122092884D01*
X131267820Y-122123293D01*
X131177273Y-122321564D01*
X131167089Y-122356248D01*
X131136069Y-122571997D01*
X131134776Y-122590071D01*
X131134776Y-122796000D01*
X131154937Y-122864661D01*
X131209018Y-122911523D01*
X131261776Y-122923000D01*
X134038224Y-122923000D01*
X134106885Y-122902839D01*
X134153747Y-122848758D01*
X134165224Y-122796000D01*
X134165224Y-122590071D01*
X134162322Y-122563075D01*
X134123348Y-122383914D01*
X134193433Y-122417418D01*
X134640508Y-122673978D01*
X135067080Y-122963332D01*
X135470766Y-123283864D01*
X135849286Y-123633764D01*
X136200497Y-124011052D01*
X136427001Y-124294281D01*
X136427001Y-125202000D01*
X136173001Y-125202000D01*
X136173001Y-124094933D01*
X136152840Y-124026272D01*
X136098759Y-123979410D01*
X136019005Y-123970835D01*
X135751497Y-124029028D01*
X135709832Y-124046287D01*
X135534025Y-124159271D01*
X135507781Y-124182010D01*
X135421620Y-124107351D01*
X135391211Y-124087808D01*
X135201115Y-124000994D01*
X135166431Y-123990810D01*
X134959576Y-123961069D01*
X134941502Y-123959776D01*
X134508500Y-123959776D01*
X134481504Y-123962678D01*
X134176497Y-124029028D01*
X134134832Y-124046287D01*
X133959025Y-124159271D01*
X133931706Y-124182943D01*
X133794852Y-124340881D01*
X133775309Y-124371290D01*
X133688495Y-124561386D01*
X133678311Y-124596070D01*
X133653831Y-124766330D01*
X133540936Y-124714773D01*
X133506252Y-124704589D01*
X133290503Y-124673569D01*
X133272429Y-124672276D01*
X132027571Y-124672276D01*
X132000575Y-124675178D01*
X131682452Y-124744381D01*
X131640786Y-124761640D01*
X131457420Y-124879483D01*
X131430102Y-124903155D01*
X131287363Y-125067884D01*
X131267820Y-125098293D01*
X131215056Y-125213831D01*
X131165704Y-125139551D01*
X131150039Y-125120344D01*
X131010748Y-124980077D01*
X130991650Y-124964277D01*
X130827767Y-124853736D01*
X130805963Y-124841947D01*
X130623730Y-124765344D01*
X130600053Y-124758015D01*
X130406411Y-124718266D01*
X130381761Y-124715675D01*
X130184087Y-124714295D01*
X130159403Y-124716541D01*
X129965226Y-124753582D01*
X129941448Y-124760581D01*
X129758163Y-124834633D01*
X129736197Y-124846116D01*
X129570786Y-124954358D01*
X129551470Y-124969889D01*
X129410234Y-125108197D01*
X129394301Y-125127184D01*
X129282619Y-125290292D01*
X129270679Y-125312012D01*
X129192805Y-125493705D01*
X129185310Y-125517331D01*
X129144210Y-125710691D01*
X129141447Y-125735323D01*
X129138687Y-125932982D01*
X129140761Y-125957681D01*
X129176446Y-126152113D01*
X129183279Y-126175939D01*
X129256050Y-126359736D01*
X129267379Y-126381781D01*
X129374463Y-126547943D01*
X129389859Y-126567367D01*
X129454955Y-126634776D01*
X128964942Y-126634776D01*
X128937946Y-126637678D01*
X128625070Y-126705740D01*
X128611820Y-126711228D01*
X128514927Y-126655287D01*
X128473480Y-126640201D01*
X128297053Y-126609092D01*
X128275000Y-126607163D01*
X125925798Y-126607163D01*
X125929324Y-126603805D01*
X125945521Y-126585041D01*
X126059469Y-126423508D01*
X126071711Y-126401958D01*
X126152115Y-126221370D01*
X126159939Y-126197850D01*
X126203734Y-126005083D01*
X126206878Y-125978720D01*
X126210031Y-125752934D01*
X126207624Y-125726493D01*
X126169228Y-125532578D01*
X126162064Y-125508850D01*
X126086734Y-125326087D01*
X126075098Y-125304202D01*
X125965704Y-125139551D01*
X125950039Y-125120344D01*
X125810748Y-124980077D01*
X125791650Y-124964277D01*
X125627767Y-124853736D01*
X125605963Y-124841947D01*
X125423730Y-124765344D01*
X125400053Y-124758015D01*
X125262490Y-124729777D01*
X125442117Y-124461961D01*
X125760529Y-124056604D01*
X126108437Y-123676263D01*
X126483880Y-123323082D01*
X126507486Y-123304000D01*
X131134776Y-123304000D01*
X131134776Y-123509929D01*
X131137678Y-123536925D01*
X131206881Y-123855048D01*
X131224140Y-123896714D01*
X131341983Y-124080080D01*
X131365655Y-124107398D01*
X131530384Y-124250137D01*
X131560793Y-124269680D01*
X131759064Y-124360227D01*
X131793748Y-124370411D01*
X132009497Y-124401431D01*
X132027571Y-124402724D01*
X132396000Y-124402724D01*
X132464661Y-124382563D01*
X132511523Y-124328482D01*
X132523000Y-124275724D01*
X132523000Y-123304000D01*
X132777000Y-123304000D01*
X132777000Y-124275724D01*
X132797161Y-124344385D01*
X132851242Y-124391247D01*
X132904000Y-124402724D01*
X133272429Y-124402724D01*
X133299425Y-124399822D01*
X133617548Y-124330619D01*
X133659214Y-124313360D01*
X133842580Y-124195517D01*
X133869898Y-124171845D01*
X134012637Y-124007116D01*
X134032180Y-123976707D01*
X134122727Y-123778436D01*
X134132911Y-123743752D01*
X134163931Y-123528003D01*
X134165224Y-123509929D01*
X134165224Y-123304000D01*
X134145063Y-123235339D01*
X134090982Y-123188477D01*
X134038224Y-123177000D01*
X132904000Y-123177000D01*
X132835339Y-123197161D01*
X132788477Y-123251242D01*
X132777000Y-123304000D01*
X132523000Y-123304000D01*
X132502839Y-123235339D01*
X132448758Y-123188477D01*
X132396000Y-123177000D01*
X131261776Y-123177000D01*
X131193115Y-123197161D01*
X131146253Y-123251242D01*
X131134776Y-123304000D01*
X126507486Y-123304000D01*
X126884761Y-122999034D01*
X127308789Y-122705970D01*
X127753613Y-122445514D01*
X128216705Y-122219149D01*
X128695481Y-122028137D01*
X129187205Y-121873568D01*
X129689160Y-121756298D01*
X130198479Y-121676996D01*
X130712319Y-121636105D01*
X131227774Y-121633856D01*
X131741946Y-121670261D01*
X131741946Y-121670261D01*
G37*
X131741946Y-121670261D02*
X131978496Y-121704981D01*
X131682452Y-121769381D01*
X131640786Y-121786640D01*
X131457420Y-121904483D01*
X131430102Y-121928155D01*
X131287363Y-122092884D01*
X131267820Y-122123293D01*
X131177273Y-122321564D01*
X131167089Y-122356248D01*
X131136069Y-122571997D01*
X131134776Y-122590071D01*
X131134776Y-122796000D01*
X131154937Y-122864661D01*
X131209018Y-122911523D01*
X131261776Y-122923000D01*
X134038224Y-122923000D01*
X134106885Y-122902839D01*
X134153747Y-122848758D01*
X134165224Y-122796000D01*
X134165224Y-122590071D01*
X134162322Y-122563075D01*
X134123348Y-122383914D01*
X134193433Y-122417418D01*
X134640508Y-122673978D01*
X135067080Y-122963332D01*
X135470766Y-123283864D01*
X135849286Y-123633764D01*
X136200497Y-124011052D01*
X136427001Y-124294281D01*
X136427001Y-125202000D01*
X136173001Y-125202000D01*
X136173001Y-124094933D01*
X136152840Y-124026272D01*
X136098759Y-123979410D01*
X136019005Y-123970835D01*
X135751497Y-124029028D01*
X135709832Y-124046287D01*
X135534025Y-124159271D01*
X135507781Y-124182010D01*
X135421620Y-124107351D01*
X135391211Y-124087808D01*
X135201115Y-124000994D01*
X135166431Y-123990810D01*
X134959576Y-123961069D01*
X134941502Y-123959776D01*
X134508500Y-123959776D01*
X134481504Y-123962678D01*
X134176497Y-124029028D01*
X134134832Y-124046287D01*
X133959025Y-124159271D01*
X133931706Y-124182943D01*
X133794852Y-124340881D01*
X133775309Y-124371290D01*
X133688495Y-124561386D01*
X133678311Y-124596070D01*
X133653831Y-124766330D01*
X133540936Y-124714773D01*
X133506252Y-124704589D01*
X133290503Y-124673569D01*
X133272429Y-124672276D01*
X132027571Y-124672276D01*
X132000575Y-124675178D01*
X131682452Y-124744381D01*
X131640786Y-124761640D01*
X131457420Y-124879483D01*
X131430102Y-124903155D01*
X131287363Y-125067884D01*
X131267820Y-125098293D01*
X131215056Y-125213831D01*
X131165704Y-125139551D01*
X131150039Y-125120344D01*
X131010748Y-124980077D01*
X130991650Y-124964277D01*
X130827767Y-124853736D01*
X130805963Y-124841947D01*
X130623730Y-124765344D01*
X130600053Y-124758015D01*
X130406411Y-124718266D01*
X130381761Y-124715675D01*
X130184087Y-124714295D01*
X130159403Y-124716541D01*
X129965226Y-124753582D01*
X129941448Y-124760581D01*
X129758163Y-124834633D01*
X129736197Y-124846116D01*
X129570786Y-124954358D01*
X129551470Y-124969889D01*
X129410234Y-125108197D01*
X129394301Y-125127184D01*
X129282619Y-125290292D01*
X129270679Y-125312012D01*
X129192805Y-125493705D01*
X129185310Y-125517331D01*
X129144210Y-125710691D01*
X129141447Y-125735323D01*
X129138687Y-125932982D01*
X129140761Y-125957681D01*
X129176446Y-126152113D01*
X129183279Y-126175939D01*
X129256050Y-126359736D01*
X129267379Y-126381781D01*
X129374463Y-126547943D01*
X129389859Y-126567367D01*
X129454955Y-126634776D01*
X128964942Y-126634776D01*
X128937946Y-126637678D01*
X128625070Y-126705740D01*
X128611820Y-126711228D01*
X128514927Y-126655287D01*
X128473480Y-126640201D01*
X128297053Y-126609092D01*
X128275000Y-126607163D01*
X125925798Y-126607163D01*
X125929324Y-126603805D01*
X125945521Y-126585041D01*
X126059469Y-126423508D01*
X126071711Y-126401958D01*
X126152115Y-126221370D01*
X126159939Y-126197850D01*
X126203734Y-126005083D01*
X126206878Y-125978720D01*
X126210031Y-125752934D01*
X126207624Y-125726493D01*
X126169228Y-125532578D01*
X126162064Y-125508850D01*
X126086734Y-125326087D01*
X126075098Y-125304202D01*
X125965704Y-125139551D01*
X125950039Y-125120344D01*
X125810748Y-124980077D01*
X125791650Y-124964277D01*
X125627767Y-124853736D01*
X125605963Y-124841947D01*
X125423730Y-124765344D01*
X125400053Y-124758015D01*
X125262490Y-124729777D01*
X125442117Y-124461961D01*
X125760529Y-124056604D01*
X126108437Y-123676263D01*
X126483880Y-123323082D01*
X126507486Y-123304000D01*
X131134776Y-123304000D01*
X131134776Y-123509929D01*
X131137678Y-123536925D01*
X131206881Y-123855048D01*
X131224140Y-123896714D01*
X131341983Y-124080080D01*
X131365655Y-124107398D01*
X131530384Y-124250137D01*
X131560793Y-124269680D01*
X131759064Y-124360227D01*
X131793748Y-124370411D01*
X132009497Y-124401431D01*
X132027571Y-124402724D01*
X132396000Y-124402724D01*
X132464661Y-124382563D01*
X132511523Y-124328482D01*
X132523000Y-124275724D01*
X132523000Y-123304000D01*
X132777000Y-123304000D01*
X132777000Y-124275724D01*
X132797161Y-124344385D01*
X132851242Y-124391247D01*
X132904000Y-124402724D01*
X133272429Y-124402724D01*
X133299425Y-124399822D01*
X133617548Y-124330619D01*
X133659214Y-124313360D01*
X133842580Y-124195517D01*
X133869898Y-124171845D01*
X134012637Y-124007116D01*
X134032180Y-123976707D01*
X134122727Y-123778436D01*
X134132911Y-123743752D01*
X134163931Y-123528003D01*
X134165224Y-123509929D01*
X134165224Y-123304000D01*
X134145063Y-123235339D01*
X134090982Y-123188477D01*
X134038224Y-123177000D01*
X132904000Y-123177000D01*
X132835339Y-123197161D01*
X132788477Y-123251242D01*
X132777000Y-123304000D01*
X132523000Y-123304000D01*
X132502839Y-123235339D01*
X132448758Y-123188477D01*
X132396000Y-123177000D01*
X131261776Y-123177000D01*
X131193115Y-123197161D01*
X131146253Y-123251242D01*
X131134776Y-123304000D01*
X126507486Y-123304000D01*
X126884761Y-122999034D01*
X127308789Y-122705970D01*
X127753613Y-122445514D01*
X128216705Y-122219149D01*
X128695481Y-122028137D01*
X129187205Y-121873568D01*
X129689160Y-121756298D01*
X130198479Y-121676996D01*
X130712319Y-121636105D01*
X131227774Y-121633856D01*
X131741946Y-121670261D01*
M02*
