G04 #@! TF.GenerationSoftware,KiCad,Pcbnew,(5.1.0-1220-ga833aeeac)*
G04 #@! TF.CreationDate,2019-08-17T01:52:11+03:00*
G04 #@! TF.ProjectId,proto_II_sensor_kicad,70726f74-6f5f-4494-995f-73656e736f72,rev?*
G04 #@! TF.SameCoordinates,Original*
G04 #@! TF.FileFunction,Copper,L2,Bot*
G04 #@! TF.FilePolarity,Positive*
%FSLAX46Y46*%
G04 Gerber Fmt 4.6, Leading zero omitted, Abs format (unit mm)*
G04 Created by KiCad (PCBNEW (5.1.0-1220-ga833aeeac)) date 2019-08-17 01:52:11*
%MOMM*%
%LPD*%
G04 APERTURE LIST*
%ADD10R,4.000000X2.000000*%
%ADD11C,0.500000*%
%ADD12C,0.160000*%
%ADD13C,1.500000*%
%ADD14C,0.800000*%
%ADD15C,0.400000*%
%ADD16C,0.254000*%
G04 APERTURE END LIST*
D10*
X37800000Y-30750000D03*
X37800000Y-25750000D03*
D11*
X60387500Y-28650000D03*
X60387500Y-27850000D03*
X60987500Y-28250000D03*
X61587500Y-28650000D03*
X61587500Y-27850000D03*
D12*
G36*
X62032862Y-27519068D02*
G01*
X62114130Y-27573370D01*
X62168432Y-27654638D01*
X62187500Y-27750500D01*
X62187500Y-28749500D01*
X62168432Y-28845362D01*
X62114130Y-28926630D01*
X62032862Y-28980932D01*
X61937000Y-29000000D01*
X60038000Y-29000000D01*
X59942138Y-28980932D01*
X59860870Y-28926630D01*
X59806568Y-28845362D01*
X59787500Y-28749500D01*
X59787500Y-27750500D01*
X59806568Y-27654638D01*
X59860870Y-27573370D01*
X59942138Y-27519068D01*
X60038000Y-27500000D01*
X61937000Y-27500000D01*
X62032862Y-27519068D01*
X62032862Y-27519068D01*
G37*
D13*
X60987500Y-28250000D03*
D14*
X56000000Y-32750000D03*
X54000000Y-32750000D03*
X52000000Y-32750000D03*
X49500000Y-32750000D03*
X47000000Y-25750000D03*
X44500000Y-25750000D03*
X44500000Y-32750000D03*
X47000000Y-32750000D03*
X44500000Y-23750000D03*
X47000000Y-23750000D03*
X49500000Y-23750000D03*
X54000000Y-23750000D03*
X56000000Y-23750000D03*
X51250000Y-25000000D03*
X59000000Y-28500000D03*
X59000000Y-27500000D03*
X55250000Y-30250000D03*
X41500000Y-28250000D03*
X43250000Y-30250000D03*
X39715000Y-27805500D03*
D15*
X38127500Y-26218000D02*
X38127500Y-25837000D01*
X39715000Y-27805500D02*
X38127500Y-26218000D01*
D16*
G36*
X63668867Y-23385061D02*
G01*
X63675090Y-23385825D01*
X63675859Y-23385917D01*
X63774260Y-23397390D01*
X63797208Y-23405719D01*
X63817636Y-23419112D01*
X63834430Y-23436840D01*
X63846694Y-23457955D01*
X63856314Y-23489719D01*
X63862311Y-23556912D01*
X63865001Y-23573571D01*
X63865001Y-24545688D01*
X63731411Y-24518266D01*
X63706761Y-24515675D01*
X63509087Y-24514295D01*
X63484403Y-24516541D01*
X63290226Y-24553582D01*
X63266448Y-24560581D01*
X63083163Y-24634633D01*
X63061197Y-24646116D01*
X62895786Y-24754358D01*
X62876470Y-24769889D01*
X62735234Y-24908197D01*
X62719301Y-24927184D01*
X62607619Y-25090292D01*
X62595679Y-25112012D01*
X62517805Y-25293705D01*
X62510310Y-25317331D01*
X62469210Y-25510691D01*
X62466447Y-25535323D01*
X62463687Y-25732982D01*
X62465761Y-25757681D01*
X62501446Y-25952113D01*
X62508279Y-25975939D01*
X62581050Y-26159736D01*
X62592379Y-26181781D01*
X62699463Y-26347943D01*
X62714859Y-26367367D01*
X62852178Y-26509566D01*
X62871053Y-26525631D01*
X63033377Y-26638449D01*
X63055014Y-26650541D01*
X63236160Y-26729681D01*
X63259732Y-26737340D01*
X63452799Y-26779789D01*
X63477411Y-26782724D01*
X63675047Y-26786864D01*
X63699761Y-26784963D01*
X63865001Y-26755826D01*
X63865000Y-29745688D01*
X63731411Y-29718266D01*
X63706761Y-29715675D01*
X63509087Y-29714295D01*
X63484403Y-29716541D01*
X63290226Y-29753582D01*
X63266448Y-29760581D01*
X63083163Y-29834633D01*
X63061197Y-29846116D01*
X62895786Y-29954358D01*
X62876470Y-29969889D01*
X62735234Y-30108197D01*
X62719301Y-30127184D01*
X62607619Y-30290292D01*
X62595679Y-30312012D01*
X62517805Y-30493705D01*
X62510310Y-30517331D01*
X62469210Y-30710691D01*
X62466447Y-30735323D01*
X62463687Y-30932982D01*
X62465761Y-30957681D01*
X62501446Y-31152113D01*
X62508279Y-31175939D01*
X62581050Y-31359736D01*
X62592379Y-31381781D01*
X62699463Y-31547943D01*
X62714859Y-31567367D01*
X62852178Y-31709566D01*
X62871053Y-31725631D01*
X63033377Y-31838449D01*
X63055014Y-31850541D01*
X63236160Y-31929681D01*
X63259732Y-31937340D01*
X63452799Y-31979789D01*
X63477411Y-31982724D01*
X63675047Y-31986864D01*
X63699761Y-31984963D01*
X63865000Y-31955827D01*
X63865000Y-32918562D01*
X63864939Y-32918869D01*
X63864175Y-32925093D01*
X63864083Y-32925859D01*
X63852611Y-33024259D01*
X63844279Y-33047212D01*
X63830890Y-33067633D01*
X63813160Y-33084430D01*
X63792043Y-33096696D01*
X63760284Y-33106315D01*
X63693090Y-33112311D01*
X63676441Y-33115000D01*
X36331438Y-33115000D01*
X36331131Y-33114939D01*
X36324907Y-33114175D01*
X36324141Y-33114083D01*
X36225741Y-33102611D01*
X36202788Y-33094279D01*
X36182367Y-33080890D01*
X36165570Y-33063160D01*
X36153304Y-33042043D01*
X36143685Y-33010284D01*
X36137689Y-32943090D01*
X36135000Y-32926441D01*
X36135000Y-32392837D01*
X37546000Y-32392837D01*
X37614661Y-32372676D01*
X37661523Y-32318595D01*
X37673000Y-32265837D01*
X37673000Y-31004000D01*
X37927000Y-31004000D01*
X37927000Y-32265837D01*
X37947161Y-32334498D01*
X38001242Y-32381360D01*
X38054000Y-32392837D01*
X39800000Y-32392837D01*
X39832870Y-32388510D01*
X40090789Y-32319401D01*
X40139553Y-32294016D01*
X40276788Y-32178862D01*
X40305139Y-32145074D01*
X40394713Y-31989927D01*
X40409799Y-31948480D01*
X40440908Y-31772053D01*
X40442837Y-31750000D01*
X40442837Y-31004000D01*
X40422676Y-30935339D01*
X40419956Y-30932982D01*
X52063687Y-30932982D01*
X52065761Y-30957681D01*
X52101446Y-31152113D01*
X52108279Y-31175939D01*
X52181050Y-31359736D01*
X52192379Y-31381781D01*
X52299463Y-31547943D01*
X52314859Y-31567367D01*
X52452178Y-31709566D01*
X52471053Y-31725631D01*
X52633377Y-31838449D01*
X52655014Y-31850541D01*
X52836160Y-31929681D01*
X52859732Y-31937340D01*
X53052799Y-31979789D01*
X53077411Y-31982724D01*
X53275047Y-31986864D01*
X53299761Y-31984963D01*
X53494437Y-31950636D01*
X53518309Y-31943970D01*
X53702609Y-31872485D01*
X53724733Y-31861310D01*
X53891639Y-31755388D01*
X53911170Y-31740128D01*
X54054324Y-31603805D01*
X54070521Y-31585041D01*
X54184469Y-31423508D01*
X54196711Y-31401958D01*
X54277115Y-31221370D01*
X54284939Y-31197850D01*
X54328734Y-31005083D01*
X54331878Y-30978720D01*
X54332516Y-30932982D01*
X57263687Y-30932982D01*
X57265761Y-30957681D01*
X57301446Y-31152113D01*
X57308279Y-31175939D01*
X57381050Y-31359736D01*
X57392379Y-31381781D01*
X57499463Y-31547943D01*
X57514859Y-31567367D01*
X57652178Y-31709566D01*
X57671053Y-31725631D01*
X57833377Y-31838449D01*
X57855014Y-31850541D01*
X58036160Y-31929681D01*
X58059732Y-31937340D01*
X58252799Y-31979789D01*
X58277411Y-31982724D01*
X58475047Y-31986864D01*
X58499761Y-31984963D01*
X58694437Y-31950636D01*
X58718309Y-31943970D01*
X58902609Y-31872485D01*
X58924733Y-31861310D01*
X59091639Y-31755388D01*
X59111170Y-31740128D01*
X59254324Y-31603805D01*
X59270521Y-31585041D01*
X59384469Y-31423508D01*
X59396711Y-31401958D01*
X59477115Y-31221370D01*
X59484939Y-31197850D01*
X59528734Y-31005083D01*
X59531878Y-30978720D01*
X59535031Y-30752934D01*
X59532624Y-30726493D01*
X59494228Y-30532578D01*
X59487064Y-30508850D01*
X59411734Y-30326087D01*
X59400098Y-30304202D01*
X59290704Y-30139551D01*
X59275039Y-30120344D01*
X59135748Y-29980077D01*
X59116650Y-29964277D01*
X58952767Y-29853736D01*
X58930963Y-29841947D01*
X58748730Y-29765344D01*
X58725053Y-29758015D01*
X58531411Y-29718266D01*
X58506761Y-29715675D01*
X58309087Y-29714295D01*
X58284403Y-29716541D01*
X58090226Y-29753582D01*
X58066448Y-29760581D01*
X57883163Y-29834633D01*
X57861197Y-29846116D01*
X57695786Y-29954358D01*
X57676470Y-29969889D01*
X57535234Y-30108197D01*
X57519301Y-30127184D01*
X57407619Y-30290292D01*
X57395679Y-30312012D01*
X57317805Y-30493705D01*
X57310310Y-30517331D01*
X57269210Y-30710691D01*
X57266447Y-30735323D01*
X57263687Y-30932982D01*
X54332516Y-30932982D01*
X54335031Y-30752934D01*
X54332624Y-30726493D01*
X54294228Y-30532578D01*
X54287064Y-30508850D01*
X54211734Y-30326087D01*
X54200098Y-30304202D01*
X54090704Y-30139551D01*
X54075039Y-30120344D01*
X53935748Y-29980077D01*
X53916650Y-29964277D01*
X53752767Y-29853736D01*
X53730963Y-29841947D01*
X53548730Y-29765344D01*
X53525053Y-29758015D01*
X53331411Y-29718266D01*
X53306761Y-29715675D01*
X53109087Y-29714295D01*
X53084403Y-29716541D01*
X52890226Y-29753582D01*
X52866448Y-29760581D01*
X52683163Y-29834633D01*
X52661197Y-29846116D01*
X52495786Y-29954358D01*
X52476470Y-29969889D01*
X52335234Y-30108197D01*
X52319301Y-30127184D01*
X52207619Y-30290292D01*
X52195679Y-30312012D01*
X52117805Y-30493705D01*
X52110310Y-30517331D01*
X52069210Y-30710691D01*
X52066447Y-30735323D01*
X52063687Y-30932982D01*
X40419956Y-30932982D01*
X40368595Y-30888477D01*
X40315837Y-30877000D01*
X38054000Y-30877000D01*
X37985339Y-30897161D01*
X37938477Y-30951242D01*
X37927000Y-31004000D01*
X37673000Y-31004000D01*
X37673000Y-29234163D01*
X37927000Y-29234163D01*
X37927000Y-30496000D01*
X37947161Y-30564661D01*
X38001242Y-30611523D01*
X38054000Y-30623000D01*
X40315837Y-30623000D01*
X40384498Y-30602839D01*
X40431360Y-30548758D01*
X40442837Y-30496000D01*
X40442837Y-29750000D01*
X40438510Y-29717130D01*
X40369401Y-29459212D01*
X40344016Y-29410448D01*
X40228862Y-29273212D01*
X40195074Y-29244861D01*
X40039927Y-29155287D01*
X39998480Y-29140201D01*
X39822053Y-29109092D01*
X39800000Y-29107163D01*
X38054000Y-29107163D01*
X37985339Y-29127324D01*
X37938477Y-29181405D01*
X37927000Y-29234163D01*
X37673000Y-29234163D01*
X37652839Y-29165502D01*
X37598758Y-29118640D01*
X37546000Y-29107163D01*
X36135000Y-29107163D01*
X36135000Y-27392837D01*
X38121468Y-27392837D01*
X38683991Y-27955360D01*
X38684327Y-27957910D01*
X38746206Y-28188845D01*
X38758894Y-28219475D01*
X38878434Y-28426525D01*
X38898616Y-28452828D01*
X39067672Y-28621884D01*
X39093975Y-28642066D01*
X39301025Y-28761606D01*
X39331655Y-28774294D01*
X39562590Y-28836173D01*
X39595460Y-28840500D01*
X39834540Y-28840500D01*
X39867410Y-28836173D01*
X40098345Y-28774294D01*
X40128975Y-28761606D01*
X40336025Y-28642066D01*
X40362328Y-28621884D01*
X40480212Y-28504000D01*
X59147276Y-28504000D01*
X59147276Y-28746924D01*
X59150178Y-28773920D01*
X59219427Y-29092253D01*
X59236686Y-29133918D01*
X59354606Y-29317405D01*
X59378278Y-29344724D01*
X59543116Y-29487557D01*
X59573526Y-29507100D01*
X59771927Y-29597706D01*
X59806610Y-29607890D01*
X60022502Y-29638931D01*
X60040576Y-29640224D01*
X60733500Y-29640224D01*
X60802161Y-29620063D01*
X60849023Y-29565982D01*
X60860500Y-29513224D01*
X60860500Y-28504000D01*
X61114500Y-28504000D01*
X61114500Y-29513224D01*
X61134661Y-29581885D01*
X61188742Y-29628747D01*
X61241500Y-29640224D01*
X61934424Y-29640224D01*
X61961420Y-29637322D01*
X62279753Y-29568073D01*
X62321418Y-29550814D01*
X62504905Y-29432894D01*
X62532224Y-29409222D01*
X62675057Y-29244384D01*
X62694600Y-29213974D01*
X62785206Y-29015573D01*
X62795390Y-28980890D01*
X62826431Y-28764998D01*
X62827724Y-28746924D01*
X62827724Y-28504000D01*
X62807563Y-28435339D01*
X62753482Y-28388477D01*
X62700724Y-28377000D01*
X61241500Y-28377000D01*
X61172839Y-28397161D01*
X61125977Y-28451242D01*
X61114500Y-28504000D01*
X60860500Y-28504000D01*
X60840339Y-28435339D01*
X60786258Y-28388477D01*
X60733500Y-28377000D01*
X59274276Y-28377000D01*
X59205615Y-28397161D01*
X59158753Y-28451242D01*
X59147276Y-28504000D01*
X40480212Y-28504000D01*
X40531384Y-28452828D01*
X40551566Y-28426525D01*
X40671106Y-28219475D01*
X40683794Y-28188845D01*
X40745673Y-27957910D01*
X40750000Y-27925040D01*
X40750000Y-27753076D01*
X59147276Y-27753076D01*
X59147276Y-27996000D01*
X59167437Y-28064661D01*
X59221518Y-28111523D01*
X59274276Y-28123000D01*
X60733500Y-28123000D01*
X60802161Y-28102839D01*
X60849023Y-28048758D01*
X60860500Y-27996000D01*
X60860500Y-26986776D01*
X61114500Y-26986776D01*
X61114500Y-27996000D01*
X61134661Y-28064661D01*
X61188742Y-28111523D01*
X61241500Y-28123000D01*
X62700724Y-28123000D01*
X62769385Y-28102839D01*
X62816247Y-28048758D01*
X62827724Y-27996000D01*
X62827724Y-27753076D01*
X62824822Y-27726080D01*
X62755573Y-27407747D01*
X62738314Y-27366082D01*
X62620394Y-27182595D01*
X62596722Y-27155276D01*
X62431884Y-27012443D01*
X62401474Y-26992900D01*
X62203073Y-26902294D01*
X62168390Y-26892110D01*
X61952498Y-26861069D01*
X61934424Y-26859776D01*
X61241500Y-26859776D01*
X61172839Y-26879937D01*
X61125977Y-26934018D01*
X61114500Y-26986776D01*
X60860500Y-26986776D01*
X60840339Y-26918115D01*
X60786258Y-26871253D01*
X60733500Y-26859776D01*
X60040576Y-26859776D01*
X60013580Y-26862678D01*
X59695247Y-26931927D01*
X59653582Y-26949186D01*
X59470095Y-27067106D01*
X59442776Y-27090778D01*
X59299943Y-27255616D01*
X59280400Y-27286026D01*
X59189794Y-27484427D01*
X59179610Y-27519110D01*
X59148569Y-27735002D01*
X59147276Y-27753076D01*
X40750000Y-27753076D01*
X40750000Y-27685960D01*
X40745673Y-27653090D01*
X40683794Y-27422155D01*
X40671106Y-27391525D01*
X40551566Y-27184475D01*
X40531384Y-27158172D01*
X40383156Y-27009944D01*
X40394713Y-26989927D01*
X40409799Y-26948480D01*
X40440908Y-26772053D01*
X40442837Y-26750000D01*
X40442837Y-25732982D01*
X52063687Y-25732982D01*
X52065761Y-25757681D01*
X52101446Y-25952113D01*
X52108279Y-25975939D01*
X52181050Y-26159736D01*
X52192379Y-26181781D01*
X52299463Y-26347943D01*
X52314859Y-26367367D01*
X52452178Y-26509566D01*
X52471053Y-26525631D01*
X52633377Y-26638449D01*
X52655014Y-26650541D01*
X52836160Y-26729681D01*
X52859732Y-26737340D01*
X53052799Y-26779789D01*
X53077411Y-26782724D01*
X53275047Y-26786864D01*
X53299761Y-26784963D01*
X53494437Y-26750636D01*
X53518309Y-26743970D01*
X53702609Y-26672485D01*
X53724733Y-26661310D01*
X53891639Y-26555388D01*
X53911170Y-26540128D01*
X54054324Y-26403805D01*
X54070521Y-26385041D01*
X54184469Y-26223508D01*
X54196711Y-26201958D01*
X54277115Y-26021370D01*
X54284939Y-25997850D01*
X54328734Y-25805083D01*
X54331878Y-25778720D01*
X54332516Y-25732982D01*
X57263687Y-25732982D01*
X57265761Y-25757681D01*
X57301446Y-25952113D01*
X57308279Y-25975939D01*
X57381050Y-26159736D01*
X57392379Y-26181781D01*
X57499463Y-26347943D01*
X57514859Y-26367367D01*
X57652178Y-26509566D01*
X57671053Y-26525631D01*
X57833377Y-26638449D01*
X57855014Y-26650541D01*
X58036160Y-26729681D01*
X58059732Y-26737340D01*
X58252799Y-26779789D01*
X58277411Y-26782724D01*
X58475047Y-26786864D01*
X58499761Y-26784963D01*
X58694437Y-26750636D01*
X58718309Y-26743970D01*
X58902609Y-26672485D01*
X58924733Y-26661310D01*
X59091639Y-26555388D01*
X59111170Y-26540128D01*
X59254324Y-26403805D01*
X59270521Y-26385041D01*
X59384469Y-26223508D01*
X59396711Y-26201958D01*
X59477115Y-26021370D01*
X59484939Y-25997850D01*
X59528734Y-25805083D01*
X59531878Y-25778720D01*
X59535031Y-25552934D01*
X59532624Y-25526493D01*
X59494228Y-25332578D01*
X59487064Y-25308850D01*
X59411734Y-25126087D01*
X59400098Y-25104202D01*
X59290704Y-24939551D01*
X59275039Y-24920344D01*
X59135748Y-24780077D01*
X59116650Y-24764277D01*
X58952767Y-24653736D01*
X58930963Y-24641947D01*
X58748730Y-24565344D01*
X58725053Y-24558015D01*
X58531411Y-24518266D01*
X58506761Y-24515675D01*
X58309087Y-24514295D01*
X58284403Y-24516541D01*
X58090226Y-24553582D01*
X58066448Y-24560581D01*
X57883163Y-24634633D01*
X57861197Y-24646116D01*
X57695786Y-24754358D01*
X57676470Y-24769889D01*
X57535234Y-24908197D01*
X57519301Y-24927184D01*
X57407619Y-25090292D01*
X57395679Y-25112012D01*
X57317805Y-25293705D01*
X57310310Y-25317331D01*
X57269210Y-25510691D01*
X57266447Y-25535323D01*
X57263687Y-25732982D01*
X54332516Y-25732982D01*
X54335031Y-25552934D01*
X54332624Y-25526493D01*
X54294228Y-25332578D01*
X54287064Y-25308850D01*
X54211734Y-25126087D01*
X54200098Y-25104202D01*
X54090704Y-24939551D01*
X54075039Y-24920344D01*
X53935748Y-24780077D01*
X53916650Y-24764277D01*
X53752767Y-24653736D01*
X53730963Y-24641947D01*
X53548730Y-24565344D01*
X53525053Y-24558015D01*
X53331411Y-24518266D01*
X53306761Y-24515675D01*
X53109087Y-24514295D01*
X53084403Y-24516541D01*
X52890226Y-24553582D01*
X52866448Y-24560581D01*
X52683163Y-24634633D01*
X52661197Y-24646116D01*
X52495786Y-24754358D01*
X52476470Y-24769889D01*
X52335234Y-24908197D01*
X52319301Y-24927184D01*
X52207619Y-25090292D01*
X52195679Y-25112012D01*
X52117805Y-25293705D01*
X52110310Y-25317331D01*
X52069210Y-25510691D01*
X52066447Y-25535323D01*
X52063687Y-25732982D01*
X40442837Y-25732982D01*
X40442837Y-24750000D01*
X40438510Y-24717130D01*
X40369401Y-24459212D01*
X40344016Y-24410448D01*
X40228862Y-24273212D01*
X40195074Y-24244861D01*
X40039927Y-24155287D01*
X39998480Y-24140201D01*
X39822053Y-24109092D01*
X39800000Y-24107163D01*
X36135000Y-24107163D01*
X36135000Y-23581440D01*
X36135061Y-23581133D01*
X36135825Y-23574910D01*
X36135917Y-23574141D01*
X36147390Y-23475740D01*
X36155719Y-23452792D01*
X36169112Y-23432364D01*
X36186840Y-23415570D01*
X36207955Y-23403306D01*
X36239719Y-23393686D01*
X36306912Y-23387689D01*
X36323560Y-23385000D01*
X63668560Y-23385000D01*
X63668867Y-23385061D01*
X63668867Y-23385061D01*
G37*
X63668867Y-23385061D02*
X63675090Y-23385825D01*
X63675859Y-23385917D01*
X63774260Y-23397390D01*
X63797208Y-23405719D01*
X63817636Y-23419112D01*
X63834430Y-23436840D01*
X63846694Y-23457955D01*
X63856314Y-23489719D01*
X63862311Y-23556912D01*
X63865001Y-23573571D01*
X63865001Y-24545688D01*
X63731411Y-24518266D01*
X63706761Y-24515675D01*
X63509087Y-24514295D01*
X63484403Y-24516541D01*
X63290226Y-24553582D01*
X63266448Y-24560581D01*
X63083163Y-24634633D01*
X63061197Y-24646116D01*
X62895786Y-24754358D01*
X62876470Y-24769889D01*
X62735234Y-24908197D01*
X62719301Y-24927184D01*
X62607619Y-25090292D01*
X62595679Y-25112012D01*
X62517805Y-25293705D01*
X62510310Y-25317331D01*
X62469210Y-25510691D01*
X62466447Y-25535323D01*
X62463687Y-25732982D01*
X62465761Y-25757681D01*
X62501446Y-25952113D01*
X62508279Y-25975939D01*
X62581050Y-26159736D01*
X62592379Y-26181781D01*
X62699463Y-26347943D01*
X62714859Y-26367367D01*
X62852178Y-26509566D01*
X62871053Y-26525631D01*
X63033377Y-26638449D01*
X63055014Y-26650541D01*
X63236160Y-26729681D01*
X63259732Y-26737340D01*
X63452799Y-26779789D01*
X63477411Y-26782724D01*
X63675047Y-26786864D01*
X63699761Y-26784963D01*
X63865001Y-26755826D01*
X63865000Y-29745688D01*
X63731411Y-29718266D01*
X63706761Y-29715675D01*
X63509087Y-29714295D01*
X63484403Y-29716541D01*
X63290226Y-29753582D01*
X63266448Y-29760581D01*
X63083163Y-29834633D01*
X63061197Y-29846116D01*
X62895786Y-29954358D01*
X62876470Y-29969889D01*
X62735234Y-30108197D01*
X62719301Y-30127184D01*
X62607619Y-30290292D01*
X62595679Y-30312012D01*
X62517805Y-30493705D01*
X62510310Y-30517331D01*
X62469210Y-30710691D01*
X62466447Y-30735323D01*
X62463687Y-30932982D01*
X62465761Y-30957681D01*
X62501446Y-31152113D01*
X62508279Y-31175939D01*
X62581050Y-31359736D01*
X62592379Y-31381781D01*
X62699463Y-31547943D01*
X62714859Y-31567367D01*
X62852178Y-31709566D01*
X62871053Y-31725631D01*
X63033377Y-31838449D01*
X63055014Y-31850541D01*
X63236160Y-31929681D01*
X63259732Y-31937340D01*
X63452799Y-31979789D01*
X63477411Y-31982724D01*
X63675047Y-31986864D01*
X63699761Y-31984963D01*
X63865000Y-31955827D01*
X63865000Y-32918562D01*
X63864939Y-32918869D01*
X63864175Y-32925093D01*
X63864083Y-32925859D01*
X63852611Y-33024259D01*
X63844279Y-33047212D01*
X63830890Y-33067633D01*
X63813160Y-33084430D01*
X63792043Y-33096696D01*
X63760284Y-33106315D01*
X63693090Y-33112311D01*
X63676441Y-33115000D01*
X36331438Y-33115000D01*
X36331131Y-33114939D01*
X36324907Y-33114175D01*
X36324141Y-33114083D01*
X36225741Y-33102611D01*
X36202788Y-33094279D01*
X36182367Y-33080890D01*
X36165570Y-33063160D01*
X36153304Y-33042043D01*
X36143685Y-33010284D01*
X36137689Y-32943090D01*
X36135000Y-32926441D01*
X36135000Y-32392837D01*
X37546000Y-32392837D01*
X37614661Y-32372676D01*
X37661523Y-32318595D01*
X37673000Y-32265837D01*
X37673000Y-31004000D01*
X37927000Y-31004000D01*
X37927000Y-32265837D01*
X37947161Y-32334498D01*
X38001242Y-32381360D01*
X38054000Y-32392837D01*
X39800000Y-32392837D01*
X39832870Y-32388510D01*
X40090789Y-32319401D01*
X40139553Y-32294016D01*
X40276788Y-32178862D01*
X40305139Y-32145074D01*
X40394713Y-31989927D01*
X40409799Y-31948480D01*
X40440908Y-31772053D01*
X40442837Y-31750000D01*
X40442837Y-31004000D01*
X40422676Y-30935339D01*
X40419956Y-30932982D01*
X52063687Y-30932982D01*
X52065761Y-30957681D01*
X52101446Y-31152113D01*
X52108279Y-31175939D01*
X52181050Y-31359736D01*
X52192379Y-31381781D01*
X52299463Y-31547943D01*
X52314859Y-31567367D01*
X52452178Y-31709566D01*
X52471053Y-31725631D01*
X52633377Y-31838449D01*
X52655014Y-31850541D01*
X52836160Y-31929681D01*
X52859732Y-31937340D01*
X53052799Y-31979789D01*
X53077411Y-31982724D01*
X53275047Y-31986864D01*
X53299761Y-31984963D01*
X53494437Y-31950636D01*
X53518309Y-31943970D01*
X53702609Y-31872485D01*
X53724733Y-31861310D01*
X53891639Y-31755388D01*
X53911170Y-31740128D01*
X54054324Y-31603805D01*
X54070521Y-31585041D01*
X54184469Y-31423508D01*
X54196711Y-31401958D01*
X54277115Y-31221370D01*
X54284939Y-31197850D01*
X54328734Y-31005083D01*
X54331878Y-30978720D01*
X54332516Y-30932982D01*
X57263687Y-30932982D01*
X57265761Y-30957681D01*
X57301446Y-31152113D01*
X57308279Y-31175939D01*
X57381050Y-31359736D01*
X57392379Y-31381781D01*
X57499463Y-31547943D01*
X57514859Y-31567367D01*
X57652178Y-31709566D01*
X57671053Y-31725631D01*
X57833377Y-31838449D01*
X57855014Y-31850541D01*
X58036160Y-31929681D01*
X58059732Y-31937340D01*
X58252799Y-31979789D01*
X58277411Y-31982724D01*
X58475047Y-31986864D01*
X58499761Y-31984963D01*
X58694437Y-31950636D01*
X58718309Y-31943970D01*
X58902609Y-31872485D01*
X58924733Y-31861310D01*
X59091639Y-31755388D01*
X59111170Y-31740128D01*
X59254324Y-31603805D01*
X59270521Y-31585041D01*
X59384469Y-31423508D01*
X59396711Y-31401958D01*
X59477115Y-31221370D01*
X59484939Y-31197850D01*
X59528734Y-31005083D01*
X59531878Y-30978720D01*
X59535031Y-30752934D01*
X59532624Y-30726493D01*
X59494228Y-30532578D01*
X59487064Y-30508850D01*
X59411734Y-30326087D01*
X59400098Y-30304202D01*
X59290704Y-30139551D01*
X59275039Y-30120344D01*
X59135748Y-29980077D01*
X59116650Y-29964277D01*
X58952767Y-29853736D01*
X58930963Y-29841947D01*
X58748730Y-29765344D01*
X58725053Y-29758015D01*
X58531411Y-29718266D01*
X58506761Y-29715675D01*
X58309087Y-29714295D01*
X58284403Y-29716541D01*
X58090226Y-29753582D01*
X58066448Y-29760581D01*
X57883163Y-29834633D01*
X57861197Y-29846116D01*
X57695786Y-29954358D01*
X57676470Y-29969889D01*
X57535234Y-30108197D01*
X57519301Y-30127184D01*
X57407619Y-30290292D01*
X57395679Y-30312012D01*
X57317805Y-30493705D01*
X57310310Y-30517331D01*
X57269210Y-30710691D01*
X57266447Y-30735323D01*
X57263687Y-30932982D01*
X54332516Y-30932982D01*
X54335031Y-30752934D01*
X54332624Y-30726493D01*
X54294228Y-30532578D01*
X54287064Y-30508850D01*
X54211734Y-30326087D01*
X54200098Y-30304202D01*
X54090704Y-30139551D01*
X54075039Y-30120344D01*
X53935748Y-29980077D01*
X53916650Y-29964277D01*
X53752767Y-29853736D01*
X53730963Y-29841947D01*
X53548730Y-29765344D01*
X53525053Y-29758015D01*
X53331411Y-29718266D01*
X53306761Y-29715675D01*
X53109087Y-29714295D01*
X53084403Y-29716541D01*
X52890226Y-29753582D01*
X52866448Y-29760581D01*
X52683163Y-29834633D01*
X52661197Y-29846116D01*
X52495786Y-29954358D01*
X52476470Y-29969889D01*
X52335234Y-30108197D01*
X52319301Y-30127184D01*
X52207619Y-30290292D01*
X52195679Y-30312012D01*
X52117805Y-30493705D01*
X52110310Y-30517331D01*
X52069210Y-30710691D01*
X52066447Y-30735323D01*
X52063687Y-30932982D01*
X40419956Y-30932982D01*
X40368595Y-30888477D01*
X40315837Y-30877000D01*
X38054000Y-30877000D01*
X37985339Y-30897161D01*
X37938477Y-30951242D01*
X37927000Y-31004000D01*
X37673000Y-31004000D01*
X37673000Y-29234163D01*
X37927000Y-29234163D01*
X37927000Y-30496000D01*
X37947161Y-30564661D01*
X38001242Y-30611523D01*
X38054000Y-30623000D01*
X40315837Y-30623000D01*
X40384498Y-30602839D01*
X40431360Y-30548758D01*
X40442837Y-30496000D01*
X40442837Y-29750000D01*
X40438510Y-29717130D01*
X40369401Y-29459212D01*
X40344016Y-29410448D01*
X40228862Y-29273212D01*
X40195074Y-29244861D01*
X40039927Y-29155287D01*
X39998480Y-29140201D01*
X39822053Y-29109092D01*
X39800000Y-29107163D01*
X38054000Y-29107163D01*
X37985339Y-29127324D01*
X37938477Y-29181405D01*
X37927000Y-29234163D01*
X37673000Y-29234163D01*
X37652839Y-29165502D01*
X37598758Y-29118640D01*
X37546000Y-29107163D01*
X36135000Y-29107163D01*
X36135000Y-27392837D01*
X38121468Y-27392837D01*
X38683991Y-27955360D01*
X38684327Y-27957910D01*
X38746206Y-28188845D01*
X38758894Y-28219475D01*
X38878434Y-28426525D01*
X38898616Y-28452828D01*
X39067672Y-28621884D01*
X39093975Y-28642066D01*
X39301025Y-28761606D01*
X39331655Y-28774294D01*
X39562590Y-28836173D01*
X39595460Y-28840500D01*
X39834540Y-28840500D01*
X39867410Y-28836173D01*
X40098345Y-28774294D01*
X40128975Y-28761606D01*
X40336025Y-28642066D01*
X40362328Y-28621884D01*
X40480212Y-28504000D01*
X59147276Y-28504000D01*
X59147276Y-28746924D01*
X59150178Y-28773920D01*
X59219427Y-29092253D01*
X59236686Y-29133918D01*
X59354606Y-29317405D01*
X59378278Y-29344724D01*
X59543116Y-29487557D01*
X59573526Y-29507100D01*
X59771927Y-29597706D01*
X59806610Y-29607890D01*
X60022502Y-29638931D01*
X60040576Y-29640224D01*
X60733500Y-29640224D01*
X60802161Y-29620063D01*
X60849023Y-29565982D01*
X60860500Y-29513224D01*
X60860500Y-28504000D01*
X61114500Y-28504000D01*
X61114500Y-29513224D01*
X61134661Y-29581885D01*
X61188742Y-29628747D01*
X61241500Y-29640224D01*
X61934424Y-29640224D01*
X61961420Y-29637322D01*
X62279753Y-29568073D01*
X62321418Y-29550814D01*
X62504905Y-29432894D01*
X62532224Y-29409222D01*
X62675057Y-29244384D01*
X62694600Y-29213974D01*
X62785206Y-29015573D01*
X62795390Y-28980890D01*
X62826431Y-28764998D01*
X62827724Y-28746924D01*
X62827724Y-28504000D01*
X62807563Y-28435339D01*
X62753482Y-28388477D01*
X62700724Y-28377000D01*
X61241500Y-28377000D01*
X61172839Y-28397161D01*
X61125977Y-28451242D01*
X61114500Y-28504000D01*
X60860500Y-28504000D01*
X60840339Y-28435339D01*
X60786258Y-28388477D01*
X60733500Y-28377000D01*
X59274276Y-28377000D01*
X59205615Y-28397161D01*
X59158753Y-28451242D01*
X59147276Y-28504000D01*
X40480212Y-28504000D01*
X40531384Y-28452828D01*
X40551566Y-28426525D01*
X40671106Y-28219475D01*
X40683794Y-28188845D01*
X40745673Y-27957910D01*
X40750000Y-27925040D01*
X40750000Y-27753076D01*
X59147276Y-27753076D01*
X59147276Y-27996000D01*
X59167437Y-28064661D01*
X59221518Y-28111523D01*
X59274276Y-28123000D01*
X60733500Y-28123000D01*
X60802161Y-28102839D01*
X60849023Y-28048758D01*
X60860500Y-27996000D01*
X60860500Y-26986776D01*
X61114500Y-26986776D01*
X61114500Y-27996000D01*
X61134661Y-28064661D01*
X61188742Y-28111523D01*
X61241500Y-28123000D01*
X62700724Y-28123000D01*
X62769385Y-28102839D01*
X62816247Y-28048758D01*
X62827724Y-27996000D01*
X62827724Y-27753076D01*
X62824822Y-27726080D01*
X62755573Y-27407747D01*
X62738314Y-27366082D01*
X62620394Y-27182595D01*
X62596722Y-27155276D01*
X62431884Y-27012443D01*
X62401474Y-26992900D01*
X62203073Y-26902294D01*
X62168390Y-26892110D01*
X61952498Y-26861069D01*
X61934424Y-26859776D01*
X61241500Y-26859776D01*
X61172839Y-26879937D01*
X61125977Y-26934018D01*
X61114500Y-26986776D01*
X60860500Y-26986776D01*
X60840339Y-26918115D01*
X60786258Y-26871253D01*
X60733500Y-26859776D01*
X60040576Y-26859776D01*
X60013580Y-26862678D01*
X59695247Y-26931927D01*
X59653582Y-26949186D01*
X59470095Y-27067106D01*
X59442776Y-27090778D01*
X59299943Y-27255616D01*
X59280400Y-27286026D01*
X59189794Y-27484427D01*
X59179610Y-27519110D01*
X59148569Y-27735002D01*
X59147276Y-27753076D01*
X40750000Y-27753076D01*
X40750000Y-27685960D01*
X40745673Y-27653090D01*
X40683794Y-27422155D01*
X40671106Y-27391525D01*
X40551566Y-27184475D01*
X40531384Y-27158172D01*
X40383156Y-27009944D01*
X40394713Y-26989927D01*
X40409799Y-26948480D01*
X40440908Y-26772053D01*
X40442837Y-26750000D01*
X40442837Y-25732982D01*
X52063687Y-25732982D01*
X52065761Y-25757681D01*
X52101446Y-25952113D01*
X52108279Y-25975939D01*
X52181050Y-26159736D01*
X52192379Y-26181781D01*
X52299463Y-26347943D01*
X52314859Y-26367367D01*
X52452178Y-26509566D01*
X52471053Y-26525631D01*
X52633377Y-26638449D01*
X52655014Y-26650541D01*
X52836160Y-26729681D01*
X52859732Y-26737340D01*
X53052799Y-26779789D01*
X53077411Y-26782724D01*
X53275047Y-26786864D01*
X53299761Y-26784963D01*
X53494437Y-26750636D01*
X53518309Y-26743970D01*
X53702609Y-26672485D01*
X53724733Y-26661310D01*
X53891639Y-26555388D01*
X53911170Y-26540128D01*
X54054324Y-26403805D01*
X54070521Y-26385041D01*
X54184469Y-26223508D01*
X54196711Y-26201958D01*
X54277115Y-26021370D01*
X54284939Y-25997850D01*
X54328734Y-25805083D01*
X54331878Y-25778720D01*
X54332516Y-25732982D01*
X57263687Y-25732982D01*
X57265761Y-25757681D01*
X57301446Y-25952113D01*
X57308279Y-25975939D01*
X57381050Y-26159736D01*
X57392379Y-26181781D01*
X57499463Y-26347943D01*
X57514859Y-26367367D01*
X57652178Y-26509566D01*
X57671053Y-26525631D01*
X57833377Y-26638449D01*
X57855014Y-26650541D01*
X58036160Y-26729681D01*
X58059732Y-26737340D01*
X58252799Y-26779789D01*
X58277411Y-26782724D01*
X58475047Y-26786864D01*
X58499761Y-26784963D01*
X58694437Y-26750636D01*
X58718309Y-26743970D01*
X58902609Y-26672485D01*
X58924733Y-26661310D01*
X59091639Y-26555388D01*
X59111170Y-26540128D01*
X59254324Y-26403805D01*
X59270521Y-26385041D01*
X59384469Y-26223508D01*
X59396711Y-26201958D01*
X59477115Y-26021370D01*
X59484939Y-25997850D01*
X59528734Y-25805083D01*
X59531878Y-25778720D01*
X59535031Y-25552934D01*
X59532624Y-25526493D01*
X59494228Y-25332578D01*
X59487064Y-25308850D01*
X59411734Y-25126087D01*
X59400098Y-25104202D01*
X59290704Y-24939551D01*
X59275039Y-24920344D01*
X59135748Y-24780077D01*
X59116650Y-24764277D01*
X58952767Y-24653736D01*
X58930963Y-24641947D01*
X58748730Y-24565344D01*
X58725053Y-24558015D01*
X58531411Y-24518266D01*
X58506761Y-24515675D01*
X58309087Y-24514295D01*
X58284403Y-24516541D01*
X58090226Y-24553582D01*
X58066448Y-24560581D01*
X57883163Y-24634633D01*
X57861197Y-24646116D01*
X57695786Y-24754358D01*
X57676470Y-24769889D01*
X57535234Y-24908197D01*
X57519301Y-24927184D01*
X57407619Y-25090292D01*
X57395679Y-25112012D01*
X57317805Y-25293705D01*
X57310310Y-25317331D01*
X57269210Y-25510691D01*
X57266447Y-25535323D01*
X57263687Y-25732982D01*
X54332516Y-25732982D01*
X54335031Y-25552934D01*
X54332624Y-25526493D01*
X54294228Y-25332578D01*
X54287064Y-25308850D01*
X54211734Y-25126087D01*
X54200098Y-25104202D01*
X54090704Y-24939551D01*
X54075039Y-24920344D01*
X53935748Y-24780077D01*
X53916650Y-24764277D01*
X53752767Y-24653736D01*
X53730963Y-24641947D01*
X53548730Y-24565344D01*
X53525053Y-24558015D01*
X53331411Y-24518266D01*
X53306761Y-24515675D01*
X53109087Y-24514295D01*
X53084403Y-24516541D01*
X52890226Y-24553582D01*
X52866448Y-24560581D01*
X52683163Y-24634633D01*
X52661197Y-24646116D01*
X52495786Y-24754358D01*
X52476470Y-24769889D01*
X52335234Y-24908197D01*
X52319301Y-24927184D01*
X52207619Y-25090292D01*
X52195679Y-25112012D01*
X52117805Y-25293705D01*
X52110310Y-25317331D01*
X52069210Y-25510691D01*
X52066447Y-25535323D01*
X52063687Y-25732982D01*
X40442837Y-25732982D01*
X40442837Y-24750000D01*
X40438510Y-24717130D01*
X40369401Y-24459212D01*
X40344016Y-24410448D01*
X40228862Y-24273212D01*
X40195074Y-24244861D01*
X40039927Y-24155287D01*
X39998480Y-24140201D01*
X39822053Y-24109092D01*
X39800000Y-24107163D01*
X36135000Y-24107163D01*
X36135000Y-23581440D01*
X36135061Y-23581133D01*
X36135825Y-23574910D01*
X36135917Y-23574141D01*
X36147390Y-23475740D01*
X36155719Y-23452792D01*
X36169112Y-23432364D01*
X36186840Y-23415570D01*
X36207955Y-23403306D01*
X36239719Y-23393686D01*
X36306912Y-23387689D01*
X36323560Y-23385000D01*
X63668560Y-23385000D01*
X63668867Y-23385061D01*
M02*
