%TF.GenerationSoftware,KiCad,Pcbnew,(5.1.0-1220-ga833aeeac)*%
%TF.CreationDate,2019-07-10T21:20:11+03:00*%
%TF.ProjectId,proto_II_sensor_kicad,70726f74-6f5f-4494-995f-73656e736f72,rev?*%
%TF.SameCoordinates,Original*%
%TF.FileFunction,Copper,L2,Bot*%
%TF.FilePolarity,Positive*%
%FSLAX46Y46*%
G04 Gerber Fmt 4.6, Leading zero omitted, Abs format (unit mm)*
G04 Created by KiCad (PCBNEW (5.1.0-1220-ga833aeeac)) date 2019-07-10 21:20:11*
%MOMM*%
%LPD*%
G04 APERTURE LIST*
%ADD10R,0.350000X0.500000*%
%ADD11C,0.160000*%
%ADD12C,0.950000*%
%ADD13C,0.800000*%
%ADD14C,0.400000*%
%ADD15C,0.250000*%
%ADD16C,0.254000*%
G04 APERTURE END LIST*
D10*
X128650000Y-127425000D03*
X128000000Y-127425000D03*
X127350000Y-127425000D03*
X126700000Y-127425000D03*
X126700000Y-129475000D03*
X127350000Y-129475000D03*
X128000000Y-129475000D03*
X128650000Y-129475000D03*
D11*
G36*
X132378387Y-130368079D02*
G01*
X132455438Y-130419562D01*
X132506921Y-130496613D01*
X132525000Y-130587500D01*
X132525000Y-131062500D01*
X132506921Y-131153387D01*
X132455438Y-131230438D01*
X132378387Y-131281921D01*
X132287500Y-131300000D01*
X131712500Y-131300000D01*
X131621613Y-131281921D01*
X131544562Y-131230438D01*
X131493079Y-131153387D01*
X131475000Y-131062500D01*
X131475000Y-130587500D01*
X131493079Y-130496613D01*
X131544562Y-130419562D01*
X131621613Y-130368079D01*
X131712500Y-130350000D01*
X132287500Y-130350000D01*
X132378387Y-130368079D01*
X132378387Y-130368079D01*
G37*
D12*
X132000000Y-130825000D03*
D11*
G36*
X134128387Y-130368079D02*
G01*
X134205438Y-130419562D01*
X134256921Y-130496613D01*
X134275000Y-130587500D01*
X134275000Y-131062500D01*
X134256921Y-131153387D01*
X134205438Y-131230438D01*
X134128387Y-131281921D01*
X134037500Y-131300000D01*
X133462500Y-131300000D01*
X133371613Y-131281921D01*
X133294562Y-131230438D01*
X133243079Y-131153387D01*
X133225000Y-131062500D01*
X133225000Y-130587500D01*
X133243079Y-130496613D01*
X133294562Y-130419562D01*
X133371613Y-130368079D01*
X133462500Y-130350000D01*
X134037500Y-130350000D01*
X134128387Y-130368079D01*
X134128387Y-130368079D01*
G37*
D12*
X133750000Y-130825000D03*
D11*
G36*
X133978387Y-127018080D02*
G01*
X134055438Y-127069563D01*
X134106921Y-127146614D01*
X134125000Y-127237501D01*
X134125000Y-127812501D01*
X134106921Y-127903388D01*
X134055438Y-127980439D01*
X133978387Y-128031922D01*
X133887500Y-128050001D01*
X133412500Y-128050001D01*
X133321613Y-128031922D01*
X133244562Y-127980439D01*
X133193079Y-127903388D01*
X133175000Y-127812501D01*
X133175000Y-127237501D01*
X133193079Y-127146614D01*
X133244562Y-127069563D01*
X133321613Y-127018080D01*
X133412500Y-127000001D01*
X133887500Y-127000001D01*
X133978387Y-127018080D01*
X133978387Y-127018080D01*
G37*
D12*
X133650000Y-127525001D03*
D11*
G36*
X133978387Y-128768080D02*
G01*
X134055438Y-128819563D01*
X134106921Y-128896614D01*
X134125000Y-128987501D01*
X134125000Y-129562501D01*
X134106921Y-129653388D01*
X134055438Y-129730439D01*
X133978387Y-129781922D01*
X133887500Y-129800001D01*
X133412500Y-129800001D01*
X133321613Y-129781922D01*
X133244562Y-129730439D01*
X133193079Y-129653388D01*
X133175000Y-129562501D01*
X133175000Y-128987501D01*
X133193079Y-128896614D01*
X133244562Y-128819563D01*
X133321613Y-128768080D01*
X133412500Y-128750001D01*
X133887500Y-128750001D01*
X133978387Y-128768080D01*
X133978387Y-128768080D01*
G37*
D12*
X133650000Y-129275001D03*
D11*
G36*
X131903387Y-133893079D02*
G01*
X131980438Y-133944562D01*
X132031921Y-134021613D01*
X132050000Y-134112500D01*
X132050000Y-134687500D01*
X132031921Y-134778387D01*
X131980438Y-134855438D01*
X131903387Y-134906921D01*
X131812500Y-134925000D01*
X131337500Y-134925000D01*
X131246613Y-134906921D01*
X131169562Y-134855438D01*
X131118079Y-134778387D01*
X131100000Y-134687500D01*
X131100000Y-134112500D01*
X131118079Y-134021613D01*
X131169562Y-133944562D01*
X131246613Y-133893079D01*
X131337500Y-133875000D01*
X131812500Y-133875000D01*
X131903387Y-133893079D01*
X131903387Y-133893079D01*
G37*
D12*
X131575000Y-134400000D03*
D11*
G36*
X131903387Y-132143079D02*
G01*
X131980438Y-132194562D01*
X132031921Y-132271613D01*
X132050000Y-132362500D01*
X132050000Y-132937500D01*
X132031921Y-133028387D01*
X131980438Y-133105438D01*
X131903387Y-133156921D01*
X131812500Y-133175000D01*
X131337500Y-133175000D01*
X131246613Y-133156921D01*
X131169562Y-133105438D01*
X131118079Y-133028387D01*
X131100000Y-132937500D01*
X131100000Y-132362500D01*
X131118079Y-132271613D01*
X131169562Y-132194562D01*
X131246613Y-132143079D01*
X131337500Y-132125000D01*
X131812500Y-132125000D01*
X131903387Y-132143079D01*
X131903387Y-132143079D01*
G37*
D12*
X131575000Y-132650000D03*
D11*
G36*
X130378387Y-133893079D02*
G01*
X130455438Y-133944562D01*
X130506921Y-134021613D01*
X130525000Y-134112500D01*
X130525000Y-134687500D01*
X130506921Y-134778387D01*
X130455438Y-134855438D01*
X130378387Y-134906921D01*
X130287500Y-134925000D01*
X129812500Y-134925000D01*
X129721613Y-134906921D01*
X129644562Y-134855438D01*
X129593079Y-134778387D01*
X129575000Y-134687500D01*
X129575000Y-134112500D01*
X129593079Y-134021613D01*
X129644562Y-133944562D01*
X129721613Y-133893079D01*
X129812500Y-133875000D01*
X130287500Y-133875000D01*
X130378387Y-133893079D01*
X130378387Y-133893079D01*
G37*
D12*
X130050000Y-134400000D03*
D11*
G36*
X130378387Y-132143079D02*
G01*
X130455438Y-132194562D01*
X130506921Y-132271613D01*
X130525000Y-132362500D01*
X130525000Y-132937500D01*
X130506921Y-133028387D01*
X130455438Y-133105438D01*
X130378387Y-133156921D01*
X130287500Y-133175000D01*
X129812500Y-133175000D01*
X129721613Y-133156921D01*
X129644562Y-133105438D01*
X129593079Y-133028387D01*
X129575000Y-132937500D01*
X129575000Y-132362500D01*
X129593079Y-132271613D01*
X129644562Y-132194562D01*
X129721613Y-132143079D01*
X129812500Y-132125000D01*
X130287500Y-132125000D01*
X130378387Y-132143079D01*
X130378387Y-132143079D01*
G37*
D12*
X130050000Y-132650000D03*
D11*
G36*
X128853387Y-133893079D02*
G01*
X128930438Y-133944562D01*
X128981921Y-134021613D01*
X129000000Y-134112500D01*
X129000000Y-134687500D01*
X128981921Y-134778387D01*
X128930438Y-134855438D01*
X128853387Y-134906921D01*
X128762500Y-134925000D01*
X128287500Y-134925000D01*
X128196613Y-134906921D01*
X128119562Y-134855438D01*
X128068079Y-134778387D01*
X128050000Y-134687500D01*
X128050000Y-134112500D01*
X128068079Y-134021613D01*
X128119562Y-133944562D01*
X128196613Y-133893079D01*
X128287500Y-133875000D01*
X128762500Y-133875000D01*
X128853387Y-133893079D01*
X128853387Y-133893079D01*
G37*
D12*
X128525000Y-134400000D03*
D11*
G36*
X128853387Y-132143079D02*
G01*
X128930438Y-132194562D01*
X128981921Y-132271613D01*
X129000000Y-132362500D01*
X129000000Y-132937500D01*
X128981921Y-133028387D01*
X128930438Y-133105438D01*
X128853387Y-133156921D01*
X128762500Y-133175000D01*
X128287500Y-133175000D01*
X128196613Y-133156921D01*
X128119562Y-133105438D01*
X128068079Y-133028387D01*
X128050000Y-132937500D01*
X128050000Y-132362500D01*
X128068079Y-132271613D01*
X128119562Y-132194562D01*
X128196613Y-132143079D01*
X128287500Y-132125000D01*
X128762500Y-132125000D01*
X128853387Y-132143079D01*
X128853387Y-132143079D01*
G37*
D12*
X128525000Y-132650000D03*
D11*
G36*
X128853387Y-121943078D02*
G01*
X128930438Y-121994561D01*
X128981921Y-122071612D01*
X129000000Y-122162499D01*
X129000000Y-122737499D01*
X128981921Y-122828386D01*
X128930438Y-122905437D01*
X128853387Y-122956920D01*
X128762500Y-122974999D01*
X128287500Y-122974999D01*
X128196613Y-122956920D01*
X128119562Y-122905437D01*
X128068079Y-122828386D01*
X128050000Y-122737499D01*
X128050000Y-122162499D01*
X128068079Y-122071612D01*
X128119562Y-121994561D01*
X128196613Y-121943078D01*
X128287500Y-121924999D01*
X128762500Y-121924999D01*
X128853387Y-121943078D01*
X128853387Y-121943078D01*
G37*
D12*
X128525000Y-122449999D03*
D11*
G36*
X128853387Y-123693078D02*
G01*
X128930438Y-123744561D01*
X128981921Y-123821612D01*
X129000000Y-123912499D01*
X129000000Y-124487499D01*
X128981921Y-124578386D01*
X128930438Y-124655437D01*
X128853387Y-124706920D01*
X128762500Y-124724999D01*
X128287500Y-124724999D01*
X128196613Y-124706920D01*
X128119562Y-124655437D01*
X128068079Y-124578386D01*
X128050000Y-124487499D01*
X128050000Y-123912499D01*
X128068079Y-123821612D01*
X128119562Y-123744561D01*
X128196613Y-123693078D01*
X128287500Y-123674999D01*
X128762500Y-123674999D01*
X128853387Y-123693078D01*
X128853387Y-123693078D01*
G37*
D12*
X128525000Y-124199999D03*
D11*
G36*
X130378387Y-121943078D02*
G01*
X130455438Y-121994561D01*
X130506921Y-122071612D01*
X130525000Y-122162499D01*
X130525000Y-122737499D01*
X130506921Y-122828386D01*
X130455438Y-122905437D01*
X130378387Y-122956920D01*
X130287500Y-122974999D01*
X129812500Y-122974999D01*
X129721613Y-122956920D01*
X129644562Y-122905437D01*
X129593079Y-122828386D01*
X129575000Y-122737499D01*
X129575000Y-122162499D01*
X129593079Y-122071612D01*
X129644562Y-121994561D01*
X129721613Y-121943078D01*
X129812500Y-121924999D01*
X130287500Y-121924999D01*
X130378387Y-121943078D01*
X130378387Y-121943078D01*
G37*
D12*
X130050000Y-122449999D03*
D11*
G36*
X130378387Y-123693078D02*
G01*
X130455438Y-123744561D01*
X130506921Y-123821612D01*
X130525000Y-123912499D01*
X130525000Y-124487499D01*
X130506921Y-124578386D01*
X130455438Y-124655437D01*
X130378387Y-124706920D01*
X130287500Y-124724999D01*
X129812500Y-124724999D01*
X129721613Y-124706920D01*
X129644562Y-124655437D01*
X129593079Y-124578386D01*
X129575000Y-124487499D01*
X129575000Y-123912499D01*
X129593079Y-123821612D01*
X129644562Y-123744561D01*
X129721613Y-123693078D01*
X129812500Y-123674999D01*
X130287500Y-123674999D01*
X130378387Y-123693078D01*
X130378387Y-123693078D01*
G37*
D12*
X130050000Y-124199999D03*
D11*
G36*
X131953387Y-121918079D02*
G01*
X132030438Y-121969562D01*
X132081921Y-122046613D01*
X132100000Y-122137500D01*
X132100000Y-122712500D01*
X132081921Y-122803387D01*
X132030438Y-122880438D01*
X131953387Y-122931921D01*
X131862500Y-122950000D01*
X131387500Y-122950000D01*
X131296613Y-122931921D01*
X131219562Y-122880438D01*
X131168079Y-122803387D01*
X131150000Y-122712500D01*
X131150000Y-122137500D01*
X131168079Y-122046613D01*
X131219562Y-121969562D01*
X131296613Y-121918079D01*
X131387500Y-121900000D01*
X131862500Y-121900000D01*
X131953387Y-121918079D01*
X131953387Y-121918079D01*
G37*
D12*
X131625000Y-122425000D03*
D11*
G36*
X131953387Y-123668079D02*
G01*
X132030438Y-123719562D01*
X132081921Y-123796613D01*
X132100000Y-123887500D01*
X132100000Y-124462500D01*
X132081921Y-124553387D01*
X132030438Y-124630438D01*
X131953387Y-124681921D01*
X131862500Y-124700000D01*
X131387500Y-124700000D01*
X131296613Y-124681921D01*
X131219562Y-124630438D01*
X131168079Y-124553387D01*
X131150000Y-124462500D01*
X131150000Y-123887500D01*
X131168079Y-123796613D01*
X131219562Y-123719562D01*
X131296613Y-123668079D01*
X131387500Y-123650000D01*
X131862500Y-123650000D01*
X131953387Y-123668079D01*
X131953387Y-123668079D01*
G37*
D12*
X131625000Y-124175000D03*
D13*
X129075000Y-125800000D03*
X130825000Y-121725000D03*
X126475000Y-125300000D03*
X134900000Y-123425000D03*
X136950000Y-126300000D03*
X126650000Y-124200000D03*
X126900000Y-133375000D03*
X125730000Y-132334000D03*
X127000000Y-130810000D03*
X127250000Y-123175000D03*
X135200000Y-131275000D03*
X132175000Y-129475000D03*
X132350000Y-127550000D03*
D14*
X131675000Y-134400000D02*
X131675000Y-134425000D01*
X131650000Y-134375000D02*
X131675000Y-134400000D01*
X131625000Y-134400000D02*
X131650000Y-134375000D01*
X128525000Y-134400000D02*
X131625000Y-134400000D01*
X131550001Y-122449999D02*
X131572000Y-122428000D01*
X128525000Y-122449999D02*
X131550001Y-122449999D01*
X126514496Y-131762500D02*
X126737500Y-131762500D01*
X126700000Y-128075000D02*
X125975001Y-128799999D01*
X127350000Y-129475000D02*
X127350000Y-129975996D01*
D15*
X128000000Y-129475000D02*
X128000000Y-129883520D01*
D14*
X126700000Y-127425000D02*
X126700000Y-128075000D01*
D15*
X128341479Y-130224999D02*
X131474999Y-130224999D01*
D14*
X127231504Y-131762500D02*
X126737500Y-131762500D01*
X127350000Y-129975996D02*
X127800002Y-130425998D01*
X127800002Y-130425998D02*
X127800002Y-131194002D01*
D15*
X128000000Y-129883520D02*
X128341479Y-130224999D01*
D14*
X127800002Y-131194002D02*
X127231504Y-131762500D01*
X125975001Y-131223005D02*
X126514496Y-131762500D01*
X125975001Y-128799999D02*
X125975001Y-131223005D01*
X126700000Y-129475000D02*
X126700000Y-130510000D01*
X126700000Y-130510000D02*
X127000000Y-130810000D01*
X126700000Y-129115000D02*
X127545000Y-128270000D01*
X126700000Y-129475000D02*
X126700000Y-129115000D01*
X128778000Y-127792002D02*
X128778000Y-127508000D01*
X127545000Y-128270000D02*
X128300002Y-128270000D01*
X128300002Y-128270000D02*
X128778000Y-127792002D01*
X127350000Y-127425000D02*
X127350000Y-128075000D01*
X127350000Y-128075000D02*
X127545000Y-128270000D01*
X128000000Y-125875000D02*
X128000000Y-127500000D01*
X128000000Y-124724999D02*
X128000000Y-125875000D01*
X126700000Y-127425000D02*
X126700000Y-126775000D01*
X126700000Y-126775000D02*
X127600000Y-125875000D01*
X127600000Y-125875000D02*
X128000000Y-125875000D01*
X127975001Y-122449999D02*
X127250000Y-123175000D01*
X128525000Y-122449999D02*
X127975001Y-122449999D01*
X133875000Y-130800000D02*
X133875000Y-130825000D01*
X134725000Y-130800000D02*
X133875000Y-130800000D01*
X135200000Y-131275000D02*
X134725000Y-130800000D01*
X126737500Y-131762500D02*
X127700000Y-132725000D01*
X128525000Y-132725000D02*
X128525000Y-132750000D01*
X127700000Y-132725000D02*
X128525000Y-132725000D01*
X128525000Y-124199999D02*
X128000000Y-124724999D01*
X131675001Y-124199999D02*
X131725000Y-124150000D01*
X128525000Y-124199999D02*
X131675001Y-124199999D01*
X133825000Y-130075001D02*
X133825000Y-130825000D01*
X133650000Y-129275001D02*
X133650000Y-129900001D01*
X133650000Y-129900001D02*
X133825000Y-130075001D01*
X132569812Y-132155188D02*
X133825000Y-130900000D01*
X131575000Y-132650000D02*
X132069812Y-132155188D01*
X132069812Y-132155188D02*
X132569812Y-132155188D01*
X128525000Y-132650000D02*
X131625000Y-132650000D01*
D15*
X132175000Y-129475000D02*
X132175000Y-130040685D01*
X132175000Y-130040685D02*
X131990686Y-130224999D01*
X131990686Y-130224999D02*
X131474999Y-130224999D01*
X130525000Y-127525000D02*
X133525000Y-127525000D01*
X131474999Y-130224999D02*
X132000000Y-130750000D01*
X128650000Y-129475000D02*
X128650000Y-129400000D01*
X128650000Y-129400000D02*
X130525000Y-127525000D01*
D16*
G36*
X132754891Y-121857998D02*
G01*
X133247958Y-122008274D01*
X133728371Y-122195097D01*
X134193433Y-122417418D01*
X134640508Y-122673978D01*
X135067080Y-122963332D01*
X135470766Y-123283864D01*
X135849286Y-123633764D01*
X136200497Y-124011052D01*
X136522434Y-124413614D01*
X136813278Y-124839177D01*
X137071399Y-125285356D01*
X137295339Y-125749633D01*
X137483841Y-126229400D01*
X137635836Y-126721936D01*
X137750472Y-127224477D01*
X137827107Y-127734219D01*
X137865181Y-128246552D01*
X137840328Y-129136280D01*
X137773715Y-129645688D01*
X137668746Y-130150346D01*
X137526231Y-130645723D01*
X137346981Y-131129001D01*
X137131993Y-131597497D01*
X136882487Y-132048545D01*
X136599867Y-132479613D01*
X136285716Y-132888282D01*
X135941806Y-133272250D01*
X135570079Y-133629348D01*
X135172627Y-133957564D01*
X134751674Y-134255064D01*
X134309615Y-134520155D01*
X133848909Y-134751363D01*
X133372171Y-134947373D01*
X132882070Y-135107090D01*
X132522636Y-135195043D01*
X132539642Y-135175417D01*
X132559185Y-135145007D01*
X132648238Y-134950006D01*
X132658422Y-134915323D01*
X132688931Y-134703132D01*
X132690224Y-134685058D01*
X132690224Y-134654000D01*
X132670063Y-134585339D01*
X132615982Y-134538477D01*
X132563224Y-134527000D01*
X131448000Y-134527000D01*
X131448000Y-134273000D01*
X132563224Y-134273000D01*
X132631885Y-134252839D01*
X132678747Y-134198758D01*
X132690224Y-134146000D01*
X132690224Y-134114942D01*
X132687322Y-134087946D01*
X132619260Y-133775070D01*
X132602001Y-133733405D01*
X132486102Y-133553062D01*
X132462430Y-133525743D01*
X132456878Y-133520932D01*
X132539642Y-133425417D01*
X132559185Y-133395007D01*
X132648238Y-133200006D01*
X132658422Y-133165323D01*
X132684386Y-132984740D01*
X132722725Y-132982362D01*
X132757986Y-132975060D01*
X132772882Y-132969682D01*
X132788569Y-132967436D01*
X132823133Y-132957328D01*
X132884902Y-132929243D01*
X132948738Y-132906198D01*
X132981158Y-132888832D01*
X132992913Y-132880133D01*
X133007749Y-132873388D01*
X133038085Y-132853987D01*
X133097892Y-132802454D01*
X133111540Y-132792355D01*
X133125802Y-132780067D01*
X133137813Y-132768056D01*
X133191721Y-132721606D01*
X133215392Y-132694472D01*
X133222752Y-132683117D01*
X133965645Y-131940224D01*
X134035058Y-131940224D01*
X134062054Y-131937322D01*
X134350988Y-131874468D01*
X134363434Y-131896025D01*
X134383616Y-131922328D01*
X134552672Y-132091384D01*
X134578975Y-132111566D01*
X134786025Y-132231106D01*
X134816655Y-132243794D01*
X135047590Y-132305673D01*
X135080460Y-132310000D01*
X135319540Y-132310000D01*
X135352410Y-132305673D01*
X135583345Y-132243794D01*
X135613975Y-132231106D01*
X135821025Y-132111566D01*
X135847328Y-132091384D01*
X136016384Y-131922328D01*
X136036566Y-131896025D01*
X136156106Y-131688975D01*
X136168794Y-131658345D01*
X136230673Y-131427410D01*
X136235000Y-131394540D01*
X136235000Y-131155460D01*
X136230673Y-131122590D01*
X136168794Y-130891655D01*
X136156106Y-130861025D01*
X136036566Y-130653975D01*
X136016384Y-130627672D01*
X135847328Y-130458616D01*
X135821025Y-130438434D01*
X135613975Y-130318894D01*
X135583345Y-130306206D01*
X135357612Y-130245721D01*
X135353783Y-130241222D01*
X135296495Y-130190627D01*
X135279488Y-130173620D01*
X135265851Y-130161798D01*
X135252645Y-130151900D01*
X135201774Y-130106973D01*
X135171679Y-130087204D01*
X135157336Y-130080470D01*
X135144659Y-130070969D01*
X135113074Y-130053676D01*
X135049534Y-130029857D01*
X134988102Y-130001014D01*
X134952899Y-129990369D01*
X134938430Y-129988207D01*
X134923175Y-129982488D01*
X134888006Y-129974756D01*
X134809290Y-129968907D01*
X134792487Y-129966395D01*
X134773712Y-129965000D01*
X134756730Y-129965000D01*
X134685762Y-129959726D01*
X134660942Y-129961418D01*
X134723238Y-129825008D01*
X134733422Y-129790324D01*
X134763931Y-129578133D01*
X134765224Y-129560059D01*
X134765224Y-128989943D01*
X134762322Y-128962947D01*
X134694260Y-128650071D01*
X134677001Y-128608406D01*
X134561102Y-128428063D01*
X134537430Y-128400744D01*
X134531878Y-128395933D01*
X134614642Y-128300418D01*
X134634185Y-128270008D01*
X134723238Y-128075007D01*
X134733422Y-128040324D01*
X134763931Y-127828133D01*
X134765224Y-127810059D01*
X134765224Y-127239943D01*
X134762322Y-127212947D01*
X134694260Y-126900071D01*
X134677001Y-126858406D01*
X134561102Y-126678063D01*
X134537430Y-126650744D01*
X134375417Y-126510359D01*
X134345007Y-126490816D01*
X134150006Y-126401763D01*
X134115323Y-126391579D01*
X133903132Y-126361070D01*
X133885058Y-126359777D01*
X133414942Y-126359777D01*
X133387946Y-126362679D01*
X133075070Y-126430741D01*
X133033405Y-126448000D01*
X132853062Y-126563899D01*
X132825743Y-126587571D01*
X132801495Y-126615555D01*
X132763974Y-126593893D01*
X132733345Y-126581206D01*
X132502410Y-126519327D01*
X132469540Y-126515000D01*
X132230460Y-126515000D01*
X132197590Y-126519327D01*
X131966655Y-126581206D01*
X131936025Y-126593894D01*
X131728975Y-126713434D01*
X131702672Y-126733616D01*
X131671288Y-126765000D01*
X130951493Y-126765000D01*
X130966639Y-126755388D01*
X130986170Y-126740128D01*
X131129324Y-126603805D01*
X131145521Y-126585041D01*
X131259469Y-126423508D01*
X131271711Y-126401958D01*
X131352115Y-126221370D01*
X131359939Y-126197850D01*
X131403734Y-126005083D01*
X131406878Y-125978720D01*
X131410031Y-125752934D01*
X131407624Y-125726493D01*
X131369228Y-125532578D01*
X131362064Y-125508850D01*
X131286998Y-125326728D01*
X131371868Y-125338931D01*
X131389942Y-125340224D01*
X131860058Y-125340224D01*
X131887054Y-125337322D01*
X132199930Y-125269260D01*
X132241595Y-125252001D01*
X132421938Y-125136102D01*
X132449257Y-125112430D01*
X132589642Y-124950417D01*
X132609185Y-124920007D01*
X132698238Y-124725006D01*
X132708422Y-124690323D01*
X132738931Y-124478132D01*
X132740224Y-124460058D01*
X132740224Y-123889942D01*
X132737322Y-123862946D01*
X132669260Y-123550070D01*
X132652001Y-123508405D01*
X132536102Y-123328062D01*
X132512430Y-123300743D01*
X132506878Y-123295932D01*
X132589642Y-123200417D01*
X132609185Y-123170007D01*
X132698238Y-122975006D01*
X132708422Y-122940323D01*
X132738931Y-122728132D01*
X132740224Y-122710058D01*
X132740224Y-122679000D01*
X132720063Y-122610339D01*
X132665982Y-122563477D01*
X132613224Y-122552000D01*
X131498000Y-122552000D01*
X131498000Y-122298000D01*
X132613224Y-122298000D01*
X132681885Y-122277839D01*
X132728747Y-122223758D01*
X132740224Y-122171000D01*
X132740224Y-122139942D01*
X132737322Y-122112946D01*
X132678113Y-121840766D01*
X132754891Y-121857998D01*
X132754891Y-121857998D01*
G37*
X132754891Y-121857998D02*
X133247958Y-122008274D01*
X133728371Y-122195097D01*
X134193433Y-122417418D01*
X134640508Y-122673978D01*
X135067080Y-122963332D01*
X135470766Y-123283864D01*
X135849286Y-123633764D01*
X136200497Y-124011052D01*
X136522434Y-124413614D01*
X136813278Y-124839177D01*
X137071399Y-125285356D01*
X137295339Y-125749633D01*
X137483841Y-126229400D01*
X137635836Y-126721936D01*
X137750472Y-127224477D01*
X137827107Y-127734219D01*
X137865181Y-128246552D01*
X137840328Y-129136280D01*
X137773715Y-129645688D01*
X137668746Y-130150346D01*
X137526231Y-130645723D01*
X137346981Y-131129001D01*
X137131993Y-131597497D01*
X136882487Y-132048545D01*
X136599867Y-132479613D01*
X136285716Y-132888282D01*
X135941806Y-133272250D01*
X135570079Y-133629348D01*
X135172627Y-133957564D01*
X134751674Y-134255064D01*
X134309615Y-134520155D01*
X133848909Y-134751363D01*
X133372171Y-134947373D01*
X132882070Y-135107090D01*
X132522636Y-135195043D01*
X132539642Y-135175417D01*
X132559185Y-135145007D01*
X132648238Y-134950006D01*
X132658422Y-134915323D01*
X132688931Y-134703132D01*
X132690224Y-134685058D01*
X132690224Y-134654000D01*
X132670063Y-134585339D01*
X132615982Y-134538477D01*
X132563224Y-134527000D01*
X131448000Y-134527000D01*
X131448000Y-134273000D01*
X132563224Y-134273000D01*
X132631885Y-134252839D01*
X132678747Y-134198758D01*
X132690224Y-134146000D01*
X132690224Y-134114942D01*
X132687322Y-134087946D01*
X132619260Y-133775070D01*
X132602001Y-133733405D01*
X132486102Y-133553062D01*
X132462430Y-133525743D01*
X132456878Y-133520932D01*
X132539642Y-133425417D01*
X132559185Y-133395007D01*
X132648238Y-133200006D01*
X132658422Y-133165323D01*
X132684386Y-132984740D01*
X132722725Y-132982362D01*
X132757986Y-132975060D01*
X132772882Y-132969682D01*
X132788569Y-132967436D01*
X132823133Y-132957328D01*
X132884902Y-132929243D01*
X132948738Y-132906198D01*
X132981158Y-132888832D01*
X132992913Y-132880133D01*
X133007749Y-132873388D01*
X133038085Y-132853987D01*
X133097892Y-132802454D01*
X133111540Y-132792355D01*
X133125802Y-132780067D01*
X133137813Y-132768056D01*
X133191721Y-132721606D01*
X133215392Y-132694472D01*
X133222752Y-132683117D01*
X133965645Y-131940224D01*
X134035058Y-131940224D01*
X134062054Y-131937322D01*
X134350988Y-131874468D01*
X134363434Y-131896025D01*
X134383616Y-131922328D01*
X134552672Y-132091384D01*
X134578975Y-132111566D01*
X134786025Y-132231106D01*
X134816655Y-132243794D01*
X135047590Y-132305673D01*
X135080460Y-132310000D01*
X135319540Y-132310000D01*
X135352410Y-132305673D01*
X135583345Y-132243794D01*
X135613975Y-132231106D01*
X135821025Y-132111566D01*
X135847328Y-132091384D01*
X136016384Y-131922328D01*
X136036566Y-131896025D01*
X136156106Y-131688975D01*
X136168794Y-131658345D01*
X136230673Y-131427410D01*
X136235000Y-131394540D01*
X136235000Y-131155460D01*
X136230673Y-131122590D01*
X136168794Y-130891655D01*
X136156106Y-130861025D01*
X136036566Y-130653975D01*
X136016384Y-130627672D01*
X135847328Y-130458616D01*
X135821025Y-130438434D01*
X135613975Y-130318894D01*
X135583345Y-130306206D01*
X135357612Y-130245721D01*
X135353783Y-130241222D01*
X135296495Y-130190627D01*
X135279488Y-130173620D01*
X135265851Y-130161798D01*
X135252645Y-130151900D01*
X135201774Y-130106973D01*
X135171679Y-130087204D01*
X135157336Y-130080470D01*
X135144659Y-130070969D01*
X135113074Y-130053676D01*
X135049534Y-130029857D01*
X134988102Y-130001014D01*
X134952899Y-129990369D01*
X134938430Y-129988207D01*
X134923175Y-129982488D01*
X134888006Y-129974756D01*
X134809290Y-129968907D01*
X134792487Y-129966395D01*
X134773712Y-129965000D01*
X134756730Y-129965000D01*
X134685762Y-129959726D01*
X134660942Y-129961418D01*
X134723238Y-129825008D01*
X134733422Y-129790324D01*
X134763931Y-129578133D01*
X134765224Y-129560059D01*
X134765224Y-128989943D01*
X134762322Y-128962947D01*
X134694260Y-128650071D01*
X134677001Y-128608406D01*
X134561102Y-128428063D01*
X134537430Y-128400744D01*
X134531878Y-128395933D01*
X134614642Y-128300418D01*
X134634185Y-128270008D01*
X134723238Y-128075007D01*
X134733422Y-128040324D01*
X134763931Y-127828133D01*
X134765224Y-127810059D01*
X134765224Y-127239943D01*
X134762322Y-127212947D01*
X134694260Y-126900071D01*
X134677001Y-126858406D01*
X134561102Y-126678063D01*
X134537430Y-126650744D01*
X134375417Y-126510359D01*
X134345007Y-126490816D01*
X134150006Y-126401763D01*
X134115323Y-126391579D01*
X133903132Y-126361070D01*
X133885058Y-126359777D01*
X133414942Y-126359777D01*
X133387946Y-126362679D01*
X133075070Y-126430741D01*
X133033405Y-126448000D01*
X132853062Y-126563899D01*
X132825743Y-126587571D01*
X132801495Y-126615555D01*
X132763974Y-126593893D01*
X132733345Y-126581206D01*
X132502410Y-126519327D01*
X132469540Y-126515000D01*
X132230460Y-126515000D01*
X132197590Y-126519327D01*
X131966655Y-126581206D01*
X131936025Y-126593894D01*
X131728975Y-126713434D01*
X131702672Y-126733616D01*
X131671288Y-126765000D01*
X130951493Y-126765000D01*
X130966639Y-126755388D01*
X130986170Y-126740128D01*
X131129324Y-126603805D01*
X131145521Y-126585041D01*
X131259469Y-126423508D01*
X131271711Y-126401958D01*
X131352115Y-126221370D01*
X131359939Y-126197850D01*
X131403734Y-126005083D01*
X131406878Y-125978720D01*
X131410031Y-125752934D01*
X131407624Y-125726493D01*
X131369228Y-125532578D01*
X131362064Y-125508850D01*
X131286998Y-125326728D01*
X131371868Y-125338931D01*
X131389942Y-125340224D01*
X131860058Y-125340224D01*
X131887054Y-125337322D01*
X132199930Y-125269260D01*
X132241595Y-125252001D01*
X132421938Y-125136102D01*
X132449257Y-125112430D01*
X132589642Y-124950417D01*
X132609185Y-124920007D01*
X132698238Y-124725006D01*
X132708422Y-124690323D01*
X132738931Y-124478132D01*
X132740224Y-124460058D01*
X132740224Y-123889942D01*
X132737322Y-123862946D01*
X132669260Y-123550070D01*
X132652001Y-123508405D01*
X132536102Y-123328062D01*
X132512430Y-123300743D01*
X132506878Y-123295932D01*
X132589642Y-123200417D01*
X132609185Y-123170007D01*
X132698238Y-122975006D01*
X132708422Y-122940323D01*
X132738931Y-122728132D01*
X132740224Y-122710058D01*
X132740224Y-122679000D01*
X132720063Y-122610339D01*
X132665982Y-122563477D01*
X132613224Y-122552000D01*
X131498000Y-122552000D01*
X131498000Y-122298000D01*
X132613224Y-122298000D01*
X132681885Y-122277839D01*
X132728747Y-122223758D01*
X132740224Y-122171000D01*
X132740224Y-122139942D01*
X132737322Y-122112946D01*
X132678113Y-121840766D01*
X132754891Y-121857998D01*
G36*
X125857919Y-132286792D02*
G01*
X125862376Y-132293856D01*
X125885713Y-132321278D01*
X125942993Y-132371866D01*
X125960007Y-132388880D01*
X125973645Y-132400703D01*
X125986853Y-132410602D01*
X126037721Y-132455527D01*
X126067815Y-132475295D01*
X126082159Y-132482030D01*
X126094838Y-132491532D01*
X126126421Y-132508824D01*
X126189966Y-132532645D01*
X126251394Y-132561486D01*
X126286596Y-132572131D01*
X126301066Y-132574293D01*
X126316320Y-132580012D01*
X126351488Y-132587744D01*
X126384314Y-132590183D01*
X127043423Y-133249292D01*
X127047880Y-133256356D01*
X127071217Y-133283778D01*
X127128497Y-133334366D01*
X127145511Y-133351380D01*
X127159149Y-133363203D01*
X127172357Y-133373102D01*
X127223225Y-133418027D01*
X127253319Y-133437795D01*
X127267663Y-133444530D01*
X127280342Y-133454032D01*
X127311925Y-133471323D01*
X127375463Y-133495142D01*
X127436898Y-133523986D01*
X127472102Y-133534631D01*
X127486567Y-133536793D01*
X127501823Y-133542512D01*
X127536992Y-133550245D01*
X127615731Y-133556096D01*
X127619247Y-133556622D01*
X127560358Y-133624583D01*
X127540815Y-133654993D01*
X127451762Y-133849994D01*
X127441578Y-133884677D01*
X127411069Y-134096868D01*
X127409776Y-134114942D01*
X127409776Y-134146000D01*
X127429937Y-134214661D01*
X127484018Y-134261523D01*
X127536776Y-134273000D01*
X128652000Y-134273000D01*
X128652000Y-134527000D01*
X127712071Y-134527000D01*
X127420699Y-134363823D01*
X126991127Y-134078956D01*
X126584096Y-133762662D01*
X126201938Y-133416749D01*
X125846803Y-133043168D01*
X125520657Y-132643987D01*
X125225377Y-132221498D01*
X125200987Y-132180339D01*
X125369437Y-132150636D01*
X125393309Y-132143970D01*
X125577609Y-132072485D01*
X125599734Y-132061309D01*
X125619740Y-132048613D01*
X125857919Y-132286792D01*
X125857919Y-132286792D01*
G37*
X125857919Y-132286792D02*
X125862376Y-132293856D01*
X125885713Y-132321278D01*
X125942993Y-132371866D01*
X125960007Y-132388880D01*
X125973645Y-132400703D01*
X125986853Y-132410602D01*
X126037721Y-132455527D01*
X126067815Y-132475295D01*
X126082159Y-132482030D01*
X126094838Y-132491532D01*
X126126421Y-132508824D01*
X126189966Y-132532645D01*
X126251394Y-132561486D01*
X126286596Y-132572131D01*
X126301066Y-132574293D01*
X126316320Y-132580012D01*
X126351488Y-132587744D01*
X126384314Y-132590183D01*
X127043423Y-133249292D01*
X127047880Y-133256356D01*
X127071217Y-133283778D01*
X127128497Y-133334366D01*
X127145511Y-133351380D01*
X127159149Y-133363203D01*
X127172357Y-133373102D01*
X127223225Y-133418027D01*
X127253319Y-133437795D01*
X127267663Y-133444530D01*
X127280342Y-133454032D01*
X127311925Y-133471323D01*
X127375463Y-133495142D01*
X127436898Y-133523986D01*
X127472102Y-133534631D01*
X127486567Y-133536793D01*
X127501823Y-133542512D01*
X127536992Y-133550245D01*
X127615731Y-133556096D01*
X127619247Y-133556622D01*
X127560358Y-133624583D01*
X127540815Y-133654993D01*
X127451762Y-133849994D01*
X127441578Y-133884677D01*
X127411069Y-134096868D01*
X127409776Y-134114942D01*
X127409776Y-134146000D01*
X127429937Y-134214661D01*
X127484018Y-134261523D01*
X127536776Y-134273000D01*
X128652000Y-134273000D01*
X128652000Y-134527000D01*
X127712071Y-134527000D01*
X127420699Y-134363823D01*
X126991127Y-134078956D01*
X126584096Y-133762662D01*
X126201938Y-133416749D01*
X125846803Y-133043168D01*
X125520657Y-132643987D01*
X125225377Y-132221498D01*
X125200987Y-132180339D01*
X125369437Y-132150636D01*
X125393309Y-132143970D01*
X125577609Y-132072485D01*
X125599734Y-132061309D01*
X125619740Y-132048613D01*
X125857919Y-132286792D01*
G36*
X126810717Y-130621576D02*
G01*
X126822072Y-130628936D01*
X126965002Y-130771865D01*
X126965002Y-130848134D01*
X126885637Y-130927500D01*
X126860365Y-130927500D01*
X126810001Y-130877136D01*
X126810001Y-130620951D01*
X126810717Y-130621576D01*
X126810717Y-130621576D01*
G37*
X126810717Y-130621576D02*
X126822072Y-130628936D01*
X126965002Y-130771865D01*
X126965002Y-130848134D01*
X126885637Y-130927500D01*
X126860365Y-130927500D01*
X126810001Y-130877136D01*
X126810001Y-130620951D01*
X126810717Y-130621576D01*
G36*
X128777000Y-128169669D02*
G01*
X128783476Y-128191722D01*
X128369153Y-128606045D01*
X128350262Y-128611107D01*
X128197053Y-128584092D01*
X128175000Y-128582163D01*
X127825000Y-128582163D01*
X127792130Y-128586491D01*
X127700263Y-128611107D01*
X127547053Y-128584092D01*
X127525000Y-128582163D01*
X127366188Y-128582163D01*
X127393026Y-128551775D01*
X127412795Y-128521681D01*
X127419528Y-128507340D01*
X127429032Y-128494659D01*
X127446323Y-128463076D01*
X127470143Y-128399535D01*
X127498986Y-128338102D01*
X127505114Y-128317837D01*
X127525000Y-128317837D01*
X127557870Y-128313509D01*
X127649737Y-128288893D01*
X127802947Y-128315908D01*
X127818262Y-128317248D01*
X127857887Y-128329098D01*
X127893500Y-128334421D01*
X128096299Y-128335660D01*
X128131974Y-128330773D01*
X128179147Y-128317291D01*
X128207870Y-128313509D01*
X128299737Y-128288893D01*
X128373947Y-128301978D01*
X128445066Y-128294046D01*
X128500607Y-128248924D01*
X128509009Y-128221902D01*
X128514553Y-128219016D01*
X128651788Y-128103862D01*
X128680139Y-128070074D01*
X128769713Y-127914927D01*
X128777000Y-127894907D01*
X128777000Y-128169669D01*
X128777000Y-128169669D01*
G37*
X128777000Y-128169669D02*
X128783476Y-128191722D01*
X128369153Y-128606045D01*
X128350262Y-128611107D01*
X128197053Y-128584092D01*
X128175000Y-128582163D01*
X127825000Y-128582163D01*
X127792130Y-128586491D01*
X127700263Y-128611107D01*
X127547053Y-128584092D01*
X127525000Y-128582163D01*
X127366188Y-128582163D01*
X127393026Y-128551775D01*
X127412795Y-128521681D01*
X127419528Y-128507340D01*
X127429032Y-128494659D01*
X127446323Y-128463076D01*
X127470143Y-128399535D01*
X127498986Y-128338102D01*
X127505114Y-128317837D01*
X127525000Y-128317837D01*
X127557870Y-128313509D01*
X127649737Y-128288893D01*
X127802947Y-128315908D01*
X127818262Y-128317248D01*
X127857887Y-128329098D01*
X127893500Y-128334421D01*
X128096299Y-128335660D01*
X128131974Y-128330773D01*
X128179147Y-128317291D01*
X128207870Y-128313509D01*
X128299737Y-128288893D01*
X128373947Y-128301978D01*
X128445066Y-128294046D01*
X128500607Y-128248924D01*
X128509009Y-128221902D01*
X128514553Y-128219016D01*
X128651788Y-128103862D01*
X128680139Y-128070074D01*
X128769713Y-127914927D01*
X128777000Y-127894907D01*
X128777000Y-128169669D01*
G36*
X129324583Y-125214641D02*
G01*
X129331413Y-125219030D01*
X129282619Y-125290292D01*
X129270679Y-125312012D01*
X129192805Y-125493705D01*
X129185310Y-125517331D01*
X129144210Y-125710691D01*
X129141447Y-125735323D01*
X129138687Y-125932982D01*
X129140761Y-125957681D01*
X129176446Y-126152113D01*
X129183279Y-126175939D01*
X129256050Y-126359736D01*
X129267379Y-126381781D01*
X129374463Y-126547943D01*
X129389859Y-126567367D01*
X129527178Y-126709566D01*
X129546053Y-126725631D01*
X129708377Y-126838449D01*
X129730014Y-126850541D01*
X129911160Y-126929681D01*
X129934732Y-126937340D01*
X130019270Y-126955927D01*
X129403495Y-127571702D01*
X129340132Y-127552000D01*
X128904000Y-127552000D01*
X128835339Y-127572161D01*
X128832399Y-127575554D01*
X128833605Y-127567484D01*
X128835000Y-127548712D01*
X128835000Y-127298000D01*
X129339765Y-127298000D01*
X129408426Y-127277839D01*
X129455288Y-127223758D01*
X129462438Y-127138130D01*
X129394401Y-126884212D01*
X129369016Y-126835448D01*
X129253862Y-126698212D01*
X129220074Y-126669861D01*
X129064927Y-126580287D01*
X129023480Y-126565201D01*
X128847053Y-126534092D01*
X128835000Y-126533038D01*
X128835000Y-125886730D01*
X128835660Y-125778701D01*
X128835000Y-125773883D01*
X128835000Y-125351891D01*
X129099930Y-125294259D01*
X129141595Y-125277000D01*
X129287980Y-125182924D01*
X129324583Y-125214641D01*
X129324583Y-125214641D01*
G37*
X129324583Y-125214641D02*
X129331413Y-125219030D01*
X129282619Y-125290292D01*
X129270679Y-125312012D01*
X129192805Y-125493705D01*
X129185310Y-125517331D01*
X129144210Y-125710691D01*
X129141447Y-125735323D01*
X129138687Y-125932982D01*
X129140761Y-125957681D01*
X129176446Y-126152113D01*
X129183279Y-126175939D01*
X129256050Y-126359736D01*
X129267379Y-126381781D01*
X129374463Y-126547943D01*
X129389859Y-126567367D01*
X129527178Y-126709566D01*
X129546053Y-126725631D01*
X129708377Y-126838449D01*
X129730014Y-126850541D01*
X129911160Y-126929681D01*
X129934732Y-126937340D01*
X130019270Y-126955927D01*
X129403495Y-127571702D01*
X129340132Y-127552000D01*
X128904000Y-127552000D01*
X128835339Y-127572161D01*
X128832399Y-127575554D01*
X128833605Y-127567484D01*
X128835000Y-127548712D01*
X128835000Y-127298000D01*
X129339765Y-127298000D01*
X129408426Y-127277839D01*
X129455288Y-127223758D01*
X129462438Y-127138130D01*
X129394401Y-126884212D01*
X129369016Y-126835448D01*
X129253862Y-126698212D01*
X129220074Y-126669861D01*
X129064927Y-126580287D01*
X129023480Y-126565201D01*
X128847053Y-126534092D01*
X128835000Y-126533038D01*
X128835000Y-125886730D01*
X128835660Y-125778701D01*
X128835000Y-125773883D01*
X128835000Y-125351891D01*
X129099930Y-125294259D01*
X129141595Y-125277000D01*
X129287980Y-125182924D01*
X129324583Y-125214641D01*
G36*
X127421253Y-122651241D02*
G01*
X127409776Y-122703999D01*
X127409776Y-122735057D01*
X127412678Y-122762053D01*
X127480740Y-123074929D01*
X127497999Y-123116594D01*
X127613898Y-123296937D01*
X127637570Y-123324256D01*
X127643122Y-123329067D01*
X127560358Y-123424582D01*
X127540815Y-123454992D01*
X127451762Y-123649993D01*
X127441578Y-123684676D01*
X127411069Y-123896867D01*
X127409776Y-123914941D01*
X127409776Y-124131823D01*
X127390637Y-124153494D01*
X127373620Y-124170511D01*
X127361796Y-124184151D01*
X127351903Y-124197352D01*
X127306973Y-124248225D01*
X127287205Y-124278319D01*
X127280470Y-124292663D01*
X127270968Y-124305342D01*
X127253676Y-124336925D01*
X127229855Y-124400470D01*
X127201014Y-124461898D01*
X127190369Y-124497100D01*
X127188207Y-124511570D01*
X127182488Y-124526824D01*
X127174756Y-124561991D01*
X127168905Y-124640724D01*
X127166395Y-124657518D01*
X127165000Y-124676288D01*
X127165000Y-124693269D01*
X127159726Y-124764237D01*
X127162175Y-124800161D01*
X127165000Y-124813395D01*
X127165000Y-125155465D01*
X127162061Y-125156801D01*
X127131728Y-125176200D01*
X127071926Y-125227728D01*
X127058268Y-125237835D01*
X127044009Y-125250121D01*
X127031992Y-125262138D01*
X126978091Y-125308582D01*
X126954420Y-125335716D01*
X126947060Y-125347071D01*
X126178653Y-126115480D01*
X126203734Y-126005083D01*
X126206878Y-125978720D01*
X126210031Y-125752934D01*
X126207624Y-125726493D01*
X126169228Y-125532578D01*
X126162064Y-125508850D01*
X126086734Y-125326087D01*
X126075098Y-125304202D01*
X125965704Y-125139551D01*
X125950039Y-125120344D01*
X125810748Y-124980077D01*
X125791650Y-124964277D01*
X125627767Y-124853736D01*
X125605963Y-124841947D01*
X125423730Y-124765344D01*
X125400053Y-124758015D01*
X125262490Y-124729777D01*
X125442117Y-124461961D01*
X125760529Y-124056604D01*
X126108437Y-123676263D01*
X126483880Y-123323082D01*
X126884761Y-122999034D01*
X127308789Y-122705970D01*
X127440815Y-122628666D01*
X127421253Y-122651241D01*
X127421253Y-122651241D01*
G37*
X127421253Y-122651241D02*
X127409776Y-122703999D01*
X127409776Y-122735057D01*
X127412678Y-122762053D01*
X127480740Y-123074929D01*
X127497999Y-123116594D01*
X127613898Y-123296937D01*
X127637570Y-123324256D01*
X127643122Y-123329067D01*
X127560358Y-123424582D01*
X127540815Y-123454992D01*
X127451762Y-123649993D01*
X127441578Y-123684676D01*
X127411069Y-123896867D01*
X127409776Y-123914941D01*
X127409776Y-124131823D01*
X127390637Y-124153494D01*
X127373620Y-124170511D01*
X127361796Y-124184151D01*
X127351903Y-124197352D01*
X127306973Y-124248225D01*
X127287205Y-124278319D01*
X127280470Y-124292663D01*
X127270968Y-124305342D01*
X127253676Y-124336925D01*
X127229855Y-124400470D01*
X127201014Y-124461898D01*
X127190369Y-124497100D01*
X127188207Y-124511570D01*
X127182488Y-124526824D01*
X127174756Y-124561991D01*
X127168905Y-124640724D01*
X127166395Y-124657518D01*
X127165000Y-124676288D01*
X127165000Y-124693269D01*
X127159726Y-124764237D01*
X127162175Y-124800161D01*
X127165000Y-124813395D01*
X127165000Y-125155465D01*
X127162061Y-125156801D01*
X127131728Y-125176200D01*
X127071926Y-125227728D01*
X127058268Y-125237835D01*
X127044009Y-125250121D01*
X127031992Y-125262138D01*
X126978091Y-125308582D01*
X126954420Y-125335716D01*
X126947060Y-125347071D01*
X126178653Y-126115480D01*
X126203734Y-126005083D01*
X126206878Y-125978720D01*
X126210031Y-125752934D01*
X126207624Y-125726493D01*
X126169228Y-125532578D01*
X126162064Y-125508850D01*
X126086734Y-125326087D01*
X126075098Y-125304202D01*
X125965704Y-125139551D01*
X125950039Y-125120344D01*
X125810748Y-124980077D01*
X125791650Y-124964277D01*
X125627767Y-124853736D01*
X125605963Y-124841947D01*
X125423730Y-124765344D01*
X125400053Y-124758015D01*
X125262490Y-124729777D01*
X125442117Y-124461961D01*
X125760529Y-124056604D01*
X126108437Y-123676263D01*
X126483880Y-123323082D01*
X126884761Y-122999034D01*
X127308789Y-122705970D01*
X127440815Y-122628666D01*
X127421253Y-122651241D01*
G36*
X128652000Y-122576999D02*
G01*
X127536776Y-122576999D01*
X127521287Y-122581547D01*
X127753613Y-122445514D01*
X128004251Y-122322999D01*
X128652000Y-122322999D01*
X128652000Y-122576999D01*
X128652000Y-122576999D01*
G37*
X128652000Y-122576999D02*
X127536776Y-122576999D01*
X127521287Y-122581547D01*
X127753613Y-122445514D01*
X128004251Y-122322999D01*
X128652000Y-122322999D01*
X128652000Y-122576999D01*
M02*
