%TF.GenerationSoftware,KiCad,Pcbnew,(5.1.0-1220-ga833aeeac)*%
%TF.CreationDate,2019-07-10T21:20:11+03:00*%
%TF.ProjectId,proto_II_sensor_kicad,70726f74-6f5f-4494-995f-73656e736f72,rev?*%
%TF.SameCoordinates,Original*%
%TF.FileFunction,Legend,Bot*%
%TF.FilePolarity,Positive*%
%FSLAX46Y46*%
G04 Gerber Fmt 4.6, Leading zero omitted, Abs format (unit mm)*
G04 Created by KiCad (PCBNEW (5.1.0-1220-ga833aeeac)) date 2019-07-10 21:20:11*
%MOMM*%
%LPD*%
G04 APERTURE LIST*
%ADD10C,0.150000*%
%ADD11C,0.100000*%
%ADD12C,0.120000*%
%ADD13C,1.000000*%
%ADD14R,0.350000X0.500000*%
%ADD15C,0.160000*%
%ADD16C,0.950000*%
G04 APERTURE END LIST*
D10*
X133975000Y-134950000D02*
X134575000Y-132850000D01*
X131500000Y-135625000D02*
X133975000Y-134950000D01*
X130300000Y-135375000D02*
X131500000Y-135625000D01*
X130800000Y-124850000D02*
X131700000Y-125400000D01*
X124375000Y-131550000D02*
X124375000Y-125350000D01*
X124375000Y-125350000D02*
X124375000Y-125150000D01*
X124375000Y-125150000D02*
X130975000Y-125150000D01*
X130975000Y-125150000D02*
X130975000Y-131750000D01*
X130975000Y-131750000D02*
X124375000Y-131750000D01*
X124375000Y-131750000D02*
X124375000Y-131550000D01*
D11*
X126325000Y-127090000D02*
X126475000Y-127090000D01*
X126325000Y-127100000D02*
X126325000Y-127250000D01*
X129025000Y-127100000D02*
X129025000Y-127250000D01*
X129025000Y-127100000D02*
X128875000Y-127100000D01*
X128875000Y-129800000D02*
X129025000Y-129800000D01*
X129025000Y-129800000D02*
X129025000Y-129650000D01*
X126325000Y-129650000D02*
X126325000Y-129900000D01*
D12*
X133046267Y-130315000D02*
X132703733Y-130315000D01*
X133046267Y-131335000D02*
X132703733Y-131335000D01*
X134160000Y-128571268D02*
X134160000Y-128228734D01*
X133140000Y-128571268D02*
X133140000Y-128228734D01*
X131065000Y-133353733D02*
X131065000Y-133696267D01*
X132085000Y-133353733D02*
X132085000Y-133696267D01*
X129540000Y-133353733D02*
X129540000Y-133696267D01*
X130560000Y-133353733D02*
X130560000Y-133696267D01*
X128015000Y-133353733D02*
X128015000Y-133696267D01*
X129035000Y-133353733D02*
X129035000Y-133696267D01*
X129035000Y-123496266D02*
X129035000Y-123153732D01*
X128015000Y-123496266D02*
X128015000Y-123153732D01*
X130560000Y-123496266D02*
X130560000Y-123153732D01*
X129540000Y-123496266D02*
X129540000Y-123153732D01*
X132135000Y-123471267D02*
X132135000Y-123128733D01*
X131115000Y-123471267D02*
X131115000Y-123128733D01*
D10*
X126489285Y-132979761D02*
X126346428Y-133027380D01*
X126108333Y-133027380D01*
X126013095Y-132979761D01*
X125965476Y-132932142D01*
X125917857Y-132836904D01*
X125917857Y-132741666D01*
X125965476Y-132646428D01*
X126013095Y-132598809D01*
X126108333Y-132551190D01*
X126298809Y-132503571D01*
X126394047Y-132455952D01*
X126441666Y-132408333D01*
X126489285Y-132313095D01*
X126489285Y-132217857D01*
X126441666Y-132122619D01*
X126394047Y-132075000D01*
X126298809Y-132027380D01*
X126060714Y-132027380D01*
X125917857Y-132075000D01*
X125155952Y-132503571D02*
X125489285Y-132503571D01*
X125489285Y-133027380D02*
X125489285Y-132027380D01*
X125013095Y-132027380D01*
X127786904Y-130327380D02*
X127786904Y-131136904D01*
X127739285Y-131232142D01*
X127691666Y-131279761D01*
X127596428Y-131327380D01*
X127405952Y-131327380D01*
X127310714Y-131279761D01*
X127263095Y-131232142D01*
X127215476Y-131136904D01*
X127215476Y-130327380D01*
X126786904Y-130422619D02*
X126739285Y-130375000D01*
X126644047Y-130327380D01*
X126405952Y-130327380D01*
X126310714Y-130375000D01*
X126263095Y-130422619D01*
X126215476Y-130517857D01*
X126215476Y-130613095D01*
X126263095Y-130755952D01*
X126834523Y-131327380D01*
X126215476Y-131327380D01*
X132166666Y-129927380D02*
X132500000Y-129451190D01*
X132738095Y-129927380D02*
X132738095Y-128927380D01*
X132357142Y-128927380D01*
X132261904Y-128975000D01*
X132214285Y-129022619D01*
X132166666Y-129117857D01*
X132166666Y-129260714D01*
X132214285Y-129355952D01*
X132261904Y-129403571D01*
X132357142Y-129451190D01*
X132738095Y-129451190D01*
X131785714Y-129022619D02*
X131738095Y-128975000D01*
X131642857Y-128927380D01*
X131404761Y-128927380D01*
X131309523Y-128975000D01*
X131261904Y-129022619D01*
X131214285Y-129117857D01*
X131214285Y-129213095D01*
X131261904Y-129355952D01*
X131833333Y-129927380D01*
X131214285Y-129927380D01*
X135527380Y-128233334D02*
X135051190Y-127900001D01*
X135527380Y-127661905D02*
X134527380Y-127661905D01*
X134527380Y-128042858D01*
X134575000Y-128138096D01*
X134622619Y-128185715D01*
X134717857Y-128233334D01*
X134860714Y-128233334D01*
X134955952Y-128185715D01*
X135003571Y-128138096D01*
X135051190Y-128042858D01*
X135051190Y-127661905D01*
X135527380Y-129185715D02*
X135527380Y-128614286D01*
X135527380Y-128900001D02*
X134527380Y-128900001D01*
X134670238Y-128804762D01*
X134765476Y-128709524D01*
X134813095Y-128614286D01*
X133382142Y-133283333D02*
X133429761Y-133235714D01*
X133477380Y-133092857D01*
X133477380Y-132997619D01*
X133429761Y-132854761D01*
X133334523Y-132759523D01*
X133239285Y-132711904D01*
X133048809Y-132664285D01*
X132905952Y-132664285D01*
X132715476Y-132711904D01*
X132620238Y-132759523D01*
X132525000Y-132854761D01*
X132477380Y-132997619D01*
X132477380Y-133092857D01*
X132525000Y-133235714D01*
X132572619Y-133283333D01*
X132477380Y-134140476D02*
X132477380Y-133950000D01*
X132525000Y-133854761D01*
X132572619Y-133807142D01*
X132715476Y-133711904D01*
X132905952Y-133664285D01*
X133286904Y-133664285D01*
X133382142Y-133711904D01*
X133429761Y-133759523D01*
X133477380Y-133854761D01*
X133477380Y-134045238D01*
X133429761Y-134140476D01*
X133382142Y-134188095D01*
X133286904Y-134235714D01*
X133048809Y-134235714D01*
X132953571Y-134188095D01*
X132905952Y-134140476D01*
X132858333Y-134045238D01*
X132858333Y-133854761D01*
X132905952Y-133759523D01*
X132953571Y-133711904D01*
X133048809Y-133664285D01*
X134791666Y-132457142D02*
X134839285Y-132504761D01*
X134982142Y-132552380D01*
X135077380Y-132552380D01*
X135220238Y-132504761D01*
X135315476Y-132409523D01*
X135363095Y-132314285D01*
X135410714Y-132123809D01*
X135410714Y-131980952D01*
X135363095Y-131790476D01*
X135315476Y-131695238D01*
X135220238Y-131600000D01*
X135077380Y-131552380D01*
X134982142Y-131552380D01*
X134839285Y-131600000D01*
X134791666Y-131647619D01*
X133886904Y-131552380D02*
X134363095Y-131552380D01*
X134410714Y-132028571D01*
X134363095Y-131980952D01*
X134267857Y-131933333D01*
X134029761Y-131933333D01*
X133934523Y-131980952D01*
X133886904Y-132028571D01*
X133839285Y-132123809D01*
X133839285Y-132361904D01*
X133886904Y-132457142D01*
X133934523Y-132504761D01*
X134029761Y-132552380D01*
X134267857Y-132552380D01*
X134363095Y-132504761D01*
X134410714Y-132457142D01*
X127607142Y-133183333D02*
X127654761Y-133135714D01*
X127702380Y-132992857D01*
X127702380Y-132897619D01*
X127654761Y-132754761D01*
X127559523Y-132659523D01*
X127464285Y-132611904D01*
X127273809Y-132564285D01*
X127130952Y-132564285D01*
X126940476Y-132611904D01*
X126845238Y-132659523D01*
X126750000Y-132754761D01*
X126702380Y-132897619D01*
X126702380Y-132992857D01*
X126750000Y-133135714D01*
X126797619Y-133183333D01*
X127035714Y-134040476D02*
X127702380Y-134040476D01*
X126654761Y-133802380D02*
X127369047Y-133564285D01*
X127369047Y-134183333D01*
X127407142Y-123833333D02*
X127454761Y-123785714D01*
X127502380Y-123642857D01*
X127502380Y-123547619D01*
X127454761Y-123404761D01*
X127359523Y-123309523D01*
X127264285Y-123261904D01*
X127073809Y-123214285D01*
X126930952Y-123214285D01*
X126740476Y-123261904D01*
X126645238Y-123309523D01*
X126550000Y-123404761D01*
X126502380Y-123547619D01*
X126502380Y-123642857D01*
X126550000Y-123785714D01*
X126597619Y-123833333D01*
X126502380Y-124166666D02*
X126502380Y-124785714D01*
X126883333Y-124452380D01*
X126883333Y-124595238D01*
X126930952Y-124690476D01*
X126978571Y-124738095D01*
X127073809Y-124785714D01*
X127311904Y-124785714D01*
X127407142Y-124738095D01*
X127454761Y-124690476D01*
X127502380Y-124595238D01*
X127502380Y-124309523D01*
X127454761Y-124214285D01*
X127407142Y-124166666D01*
X132716666Y-126407142D02*
X132764285Y-126454761D01*
X132907142Y-126502380D01*
X133002380Y-126502380D01*
X133145238Y-126454761D01*
X133240476Y-126359523D01*
X133288095Y-126264285D01*
X133335714Y-126073809D01*
X133335714Y-125930952D01*
X133288095Y-125740476D01*
X133240476Y-125645238D01*
X133145238Y-125550000D01*
X133002380Y-125502380D01*
X132907142Y-125502380D01*
X132764285Y-125550000D01*
X132716666Y-125597619D01*
X132335714Y-125597619D02*
X132288095Y-125550000D01*
X132192857Y-125502380D01*
X131954761Y-125502380D01*
X131859523Y-125550000D01*
X131811904Y-125597619D01*
X131764285Y-125692857D01*
X131764285Y-125788095D01*
X131811904Y-125930952D01*
X132383333Y-126502380D01*
X131764285Y-126502380D01*
X133357142Y-123408333D02*
X133404761Y-123360714D01*
X133452380Y-123217857D01*
X133452380Y-123122619D01*
X133404761Y-122979761D01*
X133309523Y-122884523D01*
X133214285Y-122836904D01*
X133023809Y-122789285D01*
X132880952Y-122789285D01*
X132690476Y-122836904D01*
X132595238Y-122884523D01*
X132500000Y-122979761D01*
X132452380Y-123122619D01*
X132452380Y-123217857D01*
X132500000Y-123360714D01*
X132547619Y-123408333D01*
X133452380Y-124360714D02*
X133452380Y-123789285D01*
X133452380Y-124075000D02*
X132452380Y-124075000D01*
X132595238Y-123979761D01*
X132690476Y-123884523D01*
X132738095Y-123789285D01*
%LPC*%
D13*
X125075000Y-131050000D03*
X130275000Y-131050000D03*
X125075000Y-125850000D03*
X130275000Y-125850000D03*
D14*
X128650000Y-127425000D03*
X128000000Y-127425000D03*
X127350000Y-127425000D03*
X126700000Y-127425000D03*
X126700000Y-129475000D03*
X127350000Y-129475000D03*
X128000000Y-129475000D03*
X128650000Y-129475000D03*
D15*
G36*
X132378387Y-130368079D02*
G01*
X132455438Y-130419562D01*
X132506921Y-130496613D01*
X132525000Y-130587500D01*
X132525000Y-131062500D01*
X132506921Y-131153387D01*
X132455438Y-131230438D01*
X132378387Y-131281921D01*
X132287500Y-131300000D01*
X131712500Y-131300000D01*
X131621613Y-131281921D01*
X131544562Y-131230438D01*
X131493079Y-131153387D01*
X131475000Y-131062500D01*
X131475000Y-130587500D01*
X131493079Y-130496613D01*
X131544562Y-130419562D01*
X131621613Y-130368079D01*
X131712500Y-130350000D01*
X132287500Y-130350000D01*
X132378387Y-130368079D01*
X132378387Y-130368079D01*
G37*
D16*
X132000000Y-130825000D03*
D15*
G36*
X134128387Y-130368079D02*
G01*
X134205438Y-130419562D01*
X134256921Y-130496613D01*
X134275000Y-130587500D01*
X134275000Y-131062500D01*
X134256921Y-131153387D01*
X134205438Y-131230438D01*
X134128387Y-131281921D01*
X134037500Y-131300000D01*
X133462500Y-131300000D01*
X133371613Y-131281921D01*
X133294562Y-131230438D01*
X133243079Y-131153387D01*
X133225000Y-131062500D01*
X133225000Y-130587500D01*
X133243079Y-130496613D01*
X133294562Y-130419562D01*
X133371613Y-130368079D01*
X133462500Y-130350000D01*
X134037500Y-130350000D01*
X134128387Y-130368079D01*
X134128387Y-130368079D01*
G37*
D16*
X133750000Y-130825000D03*
D15*
G36*
X133978387Y-127018080D02*
G01*
X134055438Y-127069563D01*
X134106921Y-127146614D01*
X134125000Y-127237501D01*
X134125000Y-127812501D01*
X134106921Y-127903388D01*
X134055438Y-127980439D01*
X133978387Y-128031922D01*
X133887500Y-128050001D01*
X133412500Y-128050001D01*
X133321613Y-128031922D01*
X133244562Y-127980439D01*
X133193079Y-127903388D01*
X133175000Y-127812501D01*
X133175000Y-127237501D01*
X133193079Y-127146614D01*
X133244562Y-127069563D01*
X133321613Y-127018080D01*
X133412500Y-127000001D01*
X133887500Y-127000001D01*
X133978387Y-127018080D01*
X133978387Y-127018080D01*
G37*
D16*
X133650000Y-127525001D03*
D15*
G36*
X133978387Y-128768080D02*
G01*
X134055438Y-128819563D01*
X134106921Y-128896614D01*
X134125000Y-128987501D01*
X134125000Y-129562501D01*
X134106921Y-129653388D01*
X134055438Y-129730439D01*
X133978387Y-129781922D01*
X133887500Y-129800001D01*
X133412500Y-129800001D01*
X133321613Y-129781922D01*
X133244562Y-129730439D01*
X133193079Y-129653388D01*
X133175000Y-129562501D01*
X133175000Y-128987501D01*
X133193079Y-128896614D01*
X133244562Y-128819563D01*
X133321613Y-128768080D01*
X133412500Y-128750001D01*
X133887500Y-128750001D01*
X133978387Y-128768080D01*
X133978387Y-128768080D01*
G37*
D16*
X133650000Y-129275001D03*
D15*
G36*
X131903387Y-133893079D02*
G01*
X131980438Y-133944562D01*
X132031921Y-134021613D01*
X132050000Y-134112500D01*
X132050000Y-134687500D01*
X132031921Y-134778387D01*
X131980438Y-134855438D01*
X131903387Y-134906921D01*
X131812500Y-134925000D01*
X131337500Y-134925000D01*
X131246613Y-134906921D01*
X131169562Y-134855438D01*
X131118079Y-134778387D01*
X131100000Y-134687500D01*
X131100000Y-134112500D01*
X131118079Y-134021613D01*
X131169562Y-133944562D01*
X131246613Y-133893079D01*
X131337500Y-133875000D01*
X131812500Y-133875000D01*
X131903387Y-133893079D01*
X131903387Y-133893079D01*
G37*
D16*
X131575000Y-134400000D03*
D15*
G36*
X131903387Y-132143079D02*
G01*
X131980438Y-132194562D01*
X132031921Y-132271613D01*
X132050000Y-132362500D01*
X132050000Y-132937500D01*
X132031921Y-133028387D01*
X131980438Y-133105438D01*
X131903387Y-133156921D01*
X131812500Y-133175000D01*
X131337500Y-133175000D01*
X131246613Y-133156921D01*
X131169562Y-133105438D01*
X131118079Y-133028387D01*
X131100000Y-132937500D01*
X131100000Y-132362500D01*
X131118079Y-132271613D01*
X131169562Y-132194562D01*
X131246613Y-132143079D01*
X131337500Y-132125000D01*
X131812500Y-132125000D01*
X131903387Y-132143079D01*
X131903387Y-132143079D01*
G37*
D16*
X131575000Y-132650000D03*
D15*
G36*
X130378387Y-133893079D02*
G01*
X130455438Y-133944562D01*
X130506921Y-134021613D01*
X130525000Y-134112500D01*
X130525000Y-134687500D01*
X130506921Y-134778387D01*
X130455438Y-134855438D01*
X130378387Y-134906921D01*
X130287500Y-134925000D01*
X129812500Y-134925000D01*
X129721613Y-134906921D01*
X129644562Y-134855438D01*
X129593079Y-134778387D01*
X129575000Y-134687500D01*
X129575000Y-134112500D01*
X129593079Y-134021613D01*
X129644562Y-133944562D01*
X129721613Y-133893079D01*
X129812500Y-133875000D01*
X130287500Y-133875000D01*
X130378387Y-133893079D01*
X130378387Y-133893079D01*
G37*
D16*
X130050000Y-134400000D03*
D15*
G36*
X130378387Y-132143079D02*
G01*
X130455438Y-132194562D01*
X130506921Y-132271613D01*
X130525000Y-132362500D01*
X130525000Y-132937500D01*
X130506921Y-133028387D01*
X130455438Y-133105438D01*
X130378387Y-133156921D01*
X130287500Y-133175000D01*
X129812500Y-133175000D01*
X129721613Y-133156921D01*
X129644562Y-133105438D01*
X129593079Y-133028387D01*
X129575000Y-132937500D01*
X129575000Y-132362500D01*
X129593079Y-132271613D01*
X129644562Y-132194562D01*
X129721613Y-132143079D01*
X129812500Y-132125000D01*
X130287500Y-132125000D01*
X130378387Y-132143079D01*
X130378387Y-132143079D01*
G37*
D16*
X130050000Y-132650000D03*
D15*
G36*
X128853387Y-133893079D02*
G01*
X128930438Y-133944562D01*
X128981921Y-134021613D01*
X129000000Y-134112500D01*
X129000000Y-134687500D01*
X128981921Y-134778387D01*
X128930438Y-134855438D01*
X128853387Y-134906921D01*
X128762500Y-134925000D01*
X128287500Y-134925000D01*
X128196613Y-134906921D01*
X128119562Y-134855438D01*
X128068079Y-134778387D01*
X128050000Y-134687500D01*
X128050000Y-134112500D01*
X128068079Y-134021613D01*
X128119562Y-133944562D01*
X128196613Y-133893079D01*
X128287500Y-133875000D01*
X128762500Y-133875000D01*
X128853387Y-133893079D01*
X128853387Y-133893079D01*
G37*
D16*
X128525000Y-134400000D03*
D15*
G36*
X128853387Y-132143079D02*
G01*
X128930438Y-132194562D01*
X128981921Y-132271613D01*
X129000000Y-132362500D01*
X129000000Y-132937500D01*
X128981921Y-133028387D01*
X128930438Y-133105438D01*
X128853387Y-133156921D01*
X128762500Y-133175000D01*
X128287500Y-133175000D01*
X128196613Y-133156921D01*
X128119562Y-133105438D01*
X128068079Y-133028387D01*
X128050000Y-132937500D01*
X128050000Y-132362500D01*
X128068079Y-132271613D01*
X128119562Y-132194562D01*
X128196613Y-132143079D01*
X128287500Y-132125000D01*
X128762500Y-132125000D01*
X128853387Y-132143079D01*
X128853387Y-132143079D01*
G37*
D16*
X128525000Y-132650000D03*
D15*
G36*
X128853387Y-121943078D02*
G01*
X128930438Y-121994561D01*
X128981921Y-122071612D01*
X129000000Y-122162499D01*
X129000000Y-122737499D01*
X128981921Y-122828386D01*
X128930438Y-122905437D01*
X128853387Y-122956920D01*
X128762500Y-122974999D01*
X128287500Y-122974999D01*
X128196613Y-122956920D01*
X128119562Y-122905437D01*
X128068079Y-122828386D01*
X128050000Y-122737499D01*
X128050000Y-122162499D01*
X128068079Y-122071612D01*
X128119562Y-121994561D01*
X128196613Y-121943078D01*
X128287500Y-121924999D01*
X128762500Y-121924999D01*
X128853387Y-121943078D01*
X128853387Y-121943078D01*
G37*
D16*
X128525000Y-122449999D03*
D15*
G36*
X128853387Y-123693078D02*
G01*
X128930438Y-123744561D01*
X128981921Y-123821612D01*
X129000000Y-123912499D01*
X129000000Y-124487499D01*
X128981921Y-124578386D01*
X128930438Y-124655437D01*
X128853387Y-124706920D01*
X128762500Y-124724999D01*
X128287500Y-124724999D01*
X128196613Y-124706920D01*
X128119562Y-124655437D01*
X128068079Y-124578386D01*
X128050000Y-124487499D01*
X128050000Y-123912499D01*
X128068079Y-123821612D01*
X128119562Y-123744561D01*
X128196613Y-123693078D01*
X128287500Y-123674999D01*
X128762500Y-123674999D01*
X128853387Y-123693078D01*
X128853387Y-123693078D01*
G37*
D16*
X128525000Y-124199999D03*
D15*
G36*
X130378387Y-121943078D02*
G01*
X130455438Y-121994561D01*
X130506921Y-122071612D01*
X130525000Y-122162499D01*
X130525000Y-122737499D01*
X130506921Y-122828386D01*
X130455438Y-122905437D01*
X130378387Y-122956920D01*
X130287500Y-122974999D01*
X129812500Y-122974999D01*
X129721613Y-122956920D01*
X129644562Y-122905437D01*
X129593079Y-122828386D01*
X129575000Y-122737499D01*
X129575000Y-122162499D01*
X129593079Y-122071612D01*
X129644562Y-121994561D01*
X129721613Y-121943078D01*
X129812500Y-121924999D01*
X130287500Y-121924999D01*
X130378387Y-121943078D01*
X130378387Y-121943078D01*
G37*
D16*
X130050000Y-122449999D03*
D15*
G36*
X130378387Y-123693078D02*
G01*
X130455438Y-123744561D01*
X130506921Y-123821612D01*
X130525000Y-123912499D01*
X130525000Y-124487499D01*
X130506921Y-124578386D01*
X130455438Y-124655437D01*
X130378387Y-124706920D01*
X130287500Y-124724999D01*
X129812500Y-124724999D01*
X129721613Y-124706920D01*
X129644562Y-124655437D01*
X129593079Y-124578386D01*
X129575000Y-124487499D01*
X129575000Y-123912499D01*
X129593079Y-123821612D01*
X129644562Y-123744561D01*
X129721613Y-123693078D01*
X129812500Y-123674999D01*
X130287500Y-123674999D01*
X130378387Y-123693078D01*
X130378387Y-123693078D01*
G37*
D16*
X130050000Y-124199999D03*
D15*
G36*
X131953387Y-121918079D02*
G01*
X132030438Y-121969562D01*
X132081921Y-122046613D01*
X132100000Y-122137500D01*
X132100000Y-122712500D01*
X132081921Y-122803387D01*
X132030438Y-122880438D01*
X131953387Y-122931921D01*
X131862500Y-122950000D01*
X131387500Y-122950000D01*
X131296613Y-122931921D01*
X131219562Y-122880438D01*
X131168079Y-122803387D01*
X131150000Y-122712500D01*
X131150000Y-122137500D01*
X131168079Y-122046613D01*
X131219562Y-121969562D01*
X131296613Y-121918079D01*
X131387500Y-121900000D01*
X131862500Y-121900000D01*
X131953387Y-121918079D01*
X131953387Y-121918079D01*
G37*
D16*
X131625000Y-122425000D03*
D15*
G36*
X131953387Y-123668079D02*
G01*
X132030438Y-123719562D01*
X132081921Y-123796613D01*
X132100000Y-123887500D01*
X132100000Y-124462500D01*
X132081921Y-124553387D01*
X132030438Y-124630438D01*
X131953387Y-124681921D01*
X131862500Y-124700000D01*
X131387500Y-124700000D01*
X131296613Y-124681921D01*
X131219562Y-124630438D01*
X131168079Y-124553387D01*
X131150000Y-124462500D01*
X131150000Y-123887500D01*
X131168079Y-123796613D01*
X131219562Y-123719562D01*
X131296613Y-123668079D01*
X131387500Y-123650000D01*
X131862500Y-123650000D01*
X131953387Y-123668079D01*
X131953387Y-123668079D01*
G37*
D16*
X131625000Y-124175000D03*
M02*
