%TF.GenerationSoftware,KiCad,Pcbnew,(5.1.0-1220-ga833aeeac)*%
%TF.CreationDate,2019-07-10T21:20:11+03:00*%
%TF.ProjectId,proto_II_sensor_kicad,70726f74-6f5f-4494-995f-73656e736f72,rev?*%
%TF.SameCoordinates,Original*%
%TF.FileFunction,Paste,Top*%
%TF.FilePolarity,Positive*%
%FSLAX46Y46*%
G04 Gerber Fmt 4.6, Leading zero omitted, Abs format (unit mm)*
G04 Created by KiCad (PCBNEW (5.1.0-1220-ga833aeeac)) date 2019-07-10 21:20:11*
%MOMM*%
%LPD*%
G04 APERTURE LIST*
%ADD10R,0.800000X0.900000*%
%ADD11C,0.160000*%
%ADD12C,0.950000*%
%ADD13C,0.875000*%
%ADD14C,1.425000*%
%ADD15R,4.000000X1.000000*%
G04 APERTURE END LIST*
D10*
X135635356Y-126650000D03*
X136585356Y-128650000D03*
X134685356Y-128650000D03*
D11*
G36*
X131378387Y-128818079D02*
G01*
X131455438Y-128869562D01*
X131506921Y-128946613D01*
X131525000Y-129037500D01*
X131525000Y-129512500D01*
X131506921Y-129603387D01*
X131455438Y-129680438D01*
X131378387Y-129731921D01*
X131287500Y-129750000D01*
X130712500Y-129750000D01*
X130621613Y-129731921D01*
X130544562Y-129680438D01*
X130493079Y-129603387D01*
X130475000Y-129512500D01*
X130475000Y-129037500D01*
X130493079Y-128946613D01*
X130544562Y-128869562D01*
X130621613Y-128818079D01*
X130712500Y-128800000D01*
X131287500Y-128800000D01*
X131378387Y-128818079D01*
X131378387Y-128818079D01*
G37*
D12*
X131000000Y-129275000D03*
D11*
G36*
X129628387Y-128818079D02*
G01*
X129705438Y-128869562D01*
X129756921Y-128946613D01*
X129775000Y-129037500D01*
X129775000Y-129512500D01*
X129756921Y-129603387D01*
X129705438Y-129680438D01*
X129628387Y-129731921D01*
X129537500Y-129750000D01*
X128962500Y-129750000D01*
X128871613Y-129731921D01*
X128794562Y-129680438D01*
X128743079Y-129603387D01*
X128725000Y-129512500D01*
X128725000Y-129037500D01*
X128743079Y-128946613D01*
X128794562Y-128869562D01*
X128871613Y-128818079D01*
X128962500Y-128800000D01*
X129537500Y-128800000D01*
X129628387Y-128818079D01*
X129628387Y-128818079D01*
G37*
D12*
X129250000Y-129275000D03*
D11*
G36*
X131378387Y-127293079D02*
G01*
X131455438Y-127344562D01*
X131506921Y-127421613D01*
X131525000Y-127512500D01*
X131525000Y-127987500D01*
X131506921Y-128078387D01*
X131455438Y-128155438D01*
X131378387Y-128206921D01*
X131287500Y-128225000D01*
X130712500Y-128225000D01*
X130621613Y-128206921D01*
X130544562Y-128155438D01*
X130493079Y-128078387D01*
X130475000Y-127987500D01*
X130475000Y-127512500D01*
X130493079Y-127421613D01*
X130544562Y-127344562D01*
X130621613Y-127293079D01*
X130712500Y-127275000D01*
X131287500Y-127275000D01*
X131378387Y-127293079D01*
X131378387Y-127293079D01*
G37*
D12*
X131000000Y-127750000D03*
D11*
G36*
X129628387Y-127293079D02*
G01*
X129705438Y-127344562D01*
X129756921Y-127421613D01*
X129775000Y-127512500D01*
X129775000Y-127987500D01*
X129756921Y-128078387D01*
X129705438Y-128155438D01*
X129628387Y-128206921D01*
X129537500Y-128225000D01*
X128962500Y-128225000D01*
X128871613Y-128206921D01*
X128794562Y-128155438D01*
X128743079Y-128078387D01*
X128725000Y-127987500D01*
X128725000Y-127512500D01*
X128743079Y-127421613D01*
X128794562Y-127344562D01*
X128871613Y-127293079D01*
X128962500Y-127275000D01*
X129537500Y-127275000D01*
X129628387Y-127293079D01*
X129628387Y-127293079D01*
G37*
D12*
X129250000Y-127750000D03*
D11*
G36*
X135239962Y-129691651D02*
G01*
X135310930Y-129739070D01*
X135358349Y-129810038D01*
X135375000Y-129893750D01*
X135375000Y-130406250D01*
X135358349Y-130489962D01*
X135310930Y-130560930D01*
X135239962Y-130608349D01*
X135156250Y-130625000D01*
X134718750Y-130625000D01*
X134635038Y-130608349D01*
X134564070Y-130560930D01*
X134516651Y-130489962D01*
X134500000Y-130406250D01*
X134500000Y-129893750D01*
X134516651Y-129810038D01*
X134564070Y-129739070D01*
X134635038Y-129691651D01*
X134718750Y-129675000D01*
X135156250Y-129675000D01*
X135239962Y-129691651D01*
X135239962Y-129691651D01*
G37*
D13*
X134937500Y-130150000D03*
D11*
G36*
X136814962Y-129691651D02*
G01*
X136885930Y-129739070D01*
X136933349Y-129810038D01*
X136950000Y-129893750D01*
X136950000Y-130406250D01*
X136933349Y-130489962D01*
X136885930Y-130560930D01*
X136814962Y-130608349D01*
X136731250Y-130625000D01*
X136293750Y-130625000D01*
X136210038Y-130608349D01*
X136139070Y-130560930D01*
X136091651Y-130489962D01*
X136075000Y-130406250D01*
X136075000Y-129893750D01*
X136091651Y-129810038D01*
X136139070Y-129739070D01*
X136210038Y-129691651D01*
X136293750Y-129675000D01*
X136731250Y-129675000D01*
X136814962Y-129691651D01*
X136814962Y-129691651D01*
G37*
D13*
X136512500Y-130150000D03*
D11*
G36*
X136602463Y-124616651D02*
G01*
X136673431Y-124664070D01*
X136720850Y-124735038D01*
X136737501Y-124818750D01*
X136737501Y-125331250D01*
X136720850Y-125414962D01*
X136673431Y-125485930D01*
X136602463Y-125533349D01*
X136518751Y-125550000D01*
X136081251Y-125550000D01*
X135997539Y-125533349D01*
X135926571Y-125485930D01*
X135879152Y-125414962D01*
X135862501Y-125331250D01*
X135862501Y-124818750D01*
X135879152Y-124735038D01*
X135926571Y-124664070D01*
X135997539Y-124616651D01*
X136081251Y-124600000D01*
X136518751Y-124600000D01*
X136602463Y-124616651D01*
X136602463Y-124616651D01*
G37*
D13*
X136300001Y-125075000D03*
D11*
G36*
X135027463Y-124616651D02*
G01*
X135098431Y-124664070D01*
X135145850Y-124735038D01*
X135162501Y-124818750D01*
X135162501Y-125331250D01*
X135145850Y-125414962D01*
X135098431Y-125485930D01*
X135027463Y-125533349D01*
X134943751Y-125550000D01*
X134506251Y-125550000D01*
X134422539Y-125533349D01*
X134351571Y-125485930D01*
X134304152Y-125414962D01*
X134287501Y-125331250D01*
X134287501Y-124818750D01*
X134304152Y-124735038D01*
X134351571Y-124664070D01*
X134422539Y-124616651D01*
X134506251Y-124600000D01*
X134943751Y-124600000D01*
X135027463Y-124616651D01*
X135027463Y-124616651D01*
G37*
D13*
X134725001Y-125075000D03*
D11*
G36*
X133370671Y-122356530D02*
G01*
X133451777Y-122410723D01*
X133505970Y-122491829D01*
X133525000Y-122587500D01*
X133525000Y-123512500D01*
X133505970Y-123608171D01*
X133451777Y-123689277D01*
X133370671Y-123743470D01*
X133275000Y-123762500D01*
X132025000Y-123762500D01*
X131929329Y-123743470D01*
X131848223Y-123689277D01*
X131794030Y-123608171D01*
X131775000Y-123512500D01*
X131775000Y-122587500D01*
X131794030Y-122491829D01*
X131848223Y-122410723D01*
X131929329Y-122356530D01*
X132025000Y-122337500D01*
X133275000Y-122337500D01*
X133370671Y-122356530D01*
X133370671Y-122356530D01*
G37*
D14*
X132650000Y-123050000D03*
D11*
G36*
X133370671Y-125331530D02*
G01*
X133451777Y-125385723D01*
X133505970Y-125466829D01*
X133525000Y-125562500D01*
X133525000Y-126487500D01*
X133505970Y-126583171D01*
X133451777Y-126664277D01*
X133370671Y-126718470D01*
X133275000Y-126737500D01*
X132025000Y-126737500D01*
X131929329Y-126718470D01*
X131848223Y-126664277D01*
X131794030Y-126583171D01*
X131775000Y-126487500D01*
X131775000Y-125562500D01*
X131794030Y-125466829D01*
X131848223Y-125385723D01*
X131929329Y-125331530D01*
X132025000Y-125312500D01*
X133275000Y-125312500D01*
X133370671Y-125331530D01*
X133370671Y-125331530D01*
G37*
D14*
X132650000Y-126025000D03*
D15*
X126275000Y-129150000D03*
X126275000Y-127750000D03*
X133125000Y-132525000D03*
X133125000Y-133925000D03*
M02*
