%TF.GenerationSoftware,KiCad,Pcbnew,(5.1.0-1220-ga833aeeac)*%
%TF.CreationDate,2019-07-10T01:08:44+03:00*%
%TF.ProjectId,proto_II_panel,70726f74-6f5f-4494-995f-70616e656c2e,rev?*%
%TF.SameCoordinates,Original*%
%TF.FileFunction,Legend,Bot*%
%TF.FilePolarity,Positive*%
%FSLAX46Y46*%
G04 Gerber Fmt 4.6, Leading zero omitted, Abs format (unit mm)*
G04 Created by KiCad (PCBNEW (5.1.0-1220-ga833aeeac)) date 2019-07-10 01:08:44*
%MOMM*%
%LPD*%
G04 APERTURE LIST*
%ADD10C,0.150000*%
%ADD11C,0.100000*%
%ADD12C,0.120000*%
%ADD13C,0.160000*%
%ADD14C,0.950000*%
%ADD15C,0.500000*%
%ADD16C,1.000000*%
%ADD17R,0.350000X0.500000*%
%ADD18C,0.650000*%
%ADD19C,1.524000*%
%ADD20C,1.600000*%
G04 APERTURE END LIST*
D10*
X86675000Y-69850000D02*
X87275000Y-67750000D01*
X84200000Y-70525000D02*
X86675000Y-69850000D01*
X83500000Y-59750000D02*
X84400000Y-60300000D01*
X83000000Y-70275000D02*
X84200000Y-70525000D01*
X58250000Y-70275000D02*
X59450000Y-70525000D01*
X58750000Y-59750000D02*
X59650000Y-60300000D01*
X59450000Y-70525000D02*
X61925000Y-69850000D01*
X61925000Y-69850000D02*
X62525000Y-67750000D01*
D11*
X86655390Y-97309620D02*
X86637430Y-97176500D01*
X85616800Y-97791510D02*
X85646820Y-97791510D01*
X88006140Y-95519810D02*
X88062670Y-95451350D01*
X87963430Y-95598370D02*
X88006140Y-95519810D01*
X88805350Y-94298070D02*
X88792920Y-94298070D01*
X89028650Y-97786840D02*
X89029250Y-97766390D01*
X85050675Y-97159780D02*
X85050675Y-97195370D01*
X87049800Y-96051170D02*
X87181260Y-96166030D01*
X87972010Y-94298070D02*
X87934850Y-94288040D01*
X85225420Y-97616700D02*
X85313700Y-97689510D01*
X88792920Y-94043080D02*
X88805350Y-94043080D01*
X86141440Y-97276040D02*
X86132970Y-97213650D01*
X87895890Y-95372080D02*
X87878860Y-95392750D01*
X85062770Y-97315330D02*
X85097549Y-97427190D01*
X85564620Y-96690710D02*
X85666350Y-96659890D01*
X85470920Y-96740780D02*
X85564620Y-96690710D01*
X87759980Y-95665320D02*
X87750000Y-95750000D01*
X87984430Y-94298070D02*
X87972010Y-94298070D01*
X88854870Y-94053070D02*
X88895460Y-94080460D01*
X88950730Y-95471850D02*
X88909720Y-95405820D01*
X84247614Y-97106120D02*
X84247614Y-97147190D01*
X84424697Y-97106120D02*
X84424697Y-97034290D01*
X87703780Y-94052080D02*
X87679850Y-94140960D01*
X88893890Y-94461970D02*
X88916550Y-94455030D01*
X84452693Y-96818960D02*
X84535104Y-96546870D01*
X87808480Y-98852654D02*
X87877170Y-98852654D01*
X84247614Y-97025610D02*
X84247614Y-97106120D01*
X88775720Y-93866000D02*
X88686900Y-93889930D01*
X85738120Y-96472330D02*
X85631510Y-96486170D01*
X84977161Y-95742740D02*
X84784182Y-95891280D01*
X87584410Y-96732320D02*
X87650120Y-96896281D01*
X88326720Y-98770623D02*
X88537650Y-98668517D01*
X88588220Y-98402893D02*
X88554640Y-98436584D01*
X84424697Y-97106120D02*
X84424697Y-97106120D01*
X89029250Y-97766390D02*
X89029190Y-97762110D01*
X85996370Y-97646440D02*
X86056800Y-97573190D01*
X88952970Y-98149258D02*
X88990350Y-98031365D01*
X87866920Y-94120990D02*
X87894320Y-94080460D01*
X86566250Y-97783590D02*
X86580570Y-97750660D01*
X85746860Y-96649420D02*
X85773710Y-96649420D01*
X85666350Y-96659890D02*
X85746860Y-96649420D01*
X84424697Y-97034290D02*
X84452693Y-96818960D01*
X88993280Y-95567070D02*
X88950730Y-95471850D01*
X87984430Y-93866000D02*
X87954800Y-93866000D01*
X86655390Y-97409620D02*
X86655390Y-97354010D01*
X85097549Y-97427190D02*
X85152620Y-97528440D01*
X85748800Y-96883471D02*
X85728030Y-96883471D01*
X88932830Y-94182940D02*
X88922800Y-94220110D01*
X86141440Y-97321740D02*
X86141440Y-97296870D01*
X85465170Y-97001960D02*
X85405930Y-97098470D01*
X85481660Y-96985530D02*
X85465170Y-97001960D01*
X88223149Y-95160710D02*
X88096300Y-95209490D01*
X86284290Y-95507390D02*
X86086690Y-95478300D01*
X87834640Y-95460460D02*
X87788730Y-95558820D01*
X87894320Y-94260690D02*
X87866920Y-94220110D01*
X86062500Y-98317715D02*
X86266650Y-98183166D01*
X85829710Y-98403706D02*
X86062500Y-98317715D01*
X88677900Y-94170580D02*
X88677900Y-94158150D01*
X88482690Y-95325150D02*
X88569440Y-95352110D01*
X88412870Y-95315760D02*
X88482690Y-95325150D01*
X87934850Y-94288040D02*
X87894320Y-94260690D01*
X84057401Y-98735901D02*
X84052790Y-98763027D01*
X86427850Y-95725370D02*
X86595970Y-95785050D01*
X88111930Y-94158150D02*
X88111930Y-94170580D01*
X84480308Y-97856290D02*
X84575468Y-97978848D01*
X87954800Y-93866000D02*
X87865940Y-93889930D01*
X88432680Y-95138680D02*
X88389600Y-95138680D01*
X87877170Y-98852654D02*
X88083389Y-98832092D01*
X85498110Y-96969030D02*
X85481660Y-96985530D01*
X84762100Y-97919440D02*
X84621475Y-97749080D01*
X84932455Y-98060065D02*
X84762100Y-97919440D01*
X85372780Y-96593370D02*
X85287600Y-96658970D01*
X85684620Y-97351290D02*
X85676050Y-97351290D01*
X85710500Y-97358240D02*
X85684620Y-97351290D01*
X88980300Y-94419650D02*
X89048720Y-94353470D01*
X88389600Y-95138680D02*
X88347980Y-95138680D01*
X88630370Y-94419650D02*
X88694070Y-94455030D01*
X88072970Y-95222870D02*
X88072970Y-94461970D01*
X88834910Y-93866000D02*
X88805350Y-93866000D01*
X86632280Y-97576610D02*
X86655390Y-97409620D01*
X88677900Y-94158150D02*
X88687890Y-94120990D01*
X85728030Y-96883471D02*
X85694660Y-96883471D01*
X87894320Y-94080460D02*
X87934850Y-94053070D01*
X88272790Y-94268610D02*
X88289010Y-94195040D01*
X84669218Y-96296240D02*
X84801705Y-96124140D01*
X87865940Y-93889930D02*
X87769150Y-93955300D01*
X85614970Y-97102650D02*
X85662390Y-97073510D01*
X85606890Y-97110740D02*
X85614970Y-97102650D01*
X86131350Y-97396430D02*
X86141440Y-97321740D01*
X88047300Y-98658317D02*
X87868170Y-98675516D01*
X88257330Y-98607048D02*
X88047300Y-98658317D01*
X86396820Y-96730860D02*
X86266280Y-96623110D01*
X85368650Y-96828240D02*
X85387640Y-96809301D01*
X85319120Y-96892580D02*
X85368650Y-96828240D01*
X87984430Y-94043080D02*
X87996800Y-94043080D01*
X84804743Y-98186855D02*
X84090224Y-98691793D01*
X87181260Y-96166030D02*
X87301330Y-96292370D01*
X84052790Y-98763027D02*
X84054851Y-98784295D01*
X85406580Y-96790320D02*
X85470920Y-96740780D01*
X85387640Y-96809301D02*
X85406580Y-96790320D01*
X86116540Y-96541720D02*
X85951180Y-96490240D01*
X85746370Y-97781420D02*
X85839140Y-97752560D01*
X84956490Y-98296447D02*
X84957521Y-98295688D01*
X84420032Y-98675516D02*
X84956490Y-98296447D01*
X87972010Y-94043080D02*
X87984430Y-94043080D01*
X85711600Y-97060550D02*
X85728030Y-97060550D01*
X85662390Y-97073510D02*
X85711600Y-97060550D01*
X84535104Y-96546870D02*
X84669218Y-96296240D01*
X86655390Y-97354010D02*
X86655390Y-97309620D01*
X88347980Y-95138680D02*
X88223149Y-95160710D01*
X88675620Y-98566304D02*
X88715440Y-98526102D01*
X88792920Y-94298070D02*
X88755750Y-94288040D01*
X87856930Y-94182940D02*
X87856930Y-94170580D01*
X84521811Y-96198080D02*
X84371421Y-96479120D01*
X84371421Y-96479120D02*
X84279028Y-96784140D01*
X88817710Y-94298070D02*
X88805350Y-94298070D01*
X85556690Y-97243500D02*
X85556690Y-97231890D01*
X85566080Y-97278330D02*
X85556690Y-97243500D01*
X84059029Y-98797478D02*
X84069608Y-98816033D01*
X84903214Y-96022620D02*
X85075360Y-95890140D01*
X88159400Y-94419650D02*
X88227819Y-94353470D01*
X89024470Y-97844030D02*
X89028650Y-97786840D01*
X85773710Y-96472330D02*
X85738120Y-96472330D01*
X88074540Y-94260690D02*
X88033970Y-94288040D01*
X88095650Y-94455030D02*
X88159400Y-94419650D01*
X88686900Y-93889930D02*
X88590070Y-93955300D01*
X85379610Y-97260690D02*
X85402940Y-97347180D01*
X85379610Y-97231890D02*
X85379610Y-97260690D01*
X85964360Y-97273870D02*
X85964360Y-97296870D01*
X85945750Y-97204970D02*
X85964360Y-97273870D01*
X88932830Y-94170580D02*
X88932830Y-94182940D01*
X85050675Y-97225320D02*
X85062770Y-97315330D01*
X87696030Y-94268610D02*
X87741000Y-94353420D01*
X85269040Y-96986280D02*
X85319120Y-96892580D01*
X85238230Y-97088000D02*
X85269040Y-96986280D01*
X87750000Y-95778280D02*
X87750000Y-96669110D01*
X86108889Y-97136070D02*
X86070690Y-97065870D01*
X87927080Y-97500440D02*
X87927080Y-97493440D01*
X87922470Y-97521550D02*
X87927080Y-97500440D01*
X85818040Y-96472330D02*
X85773710Y-96472330D01*
X85326010Y-95756030D02*
X85598100Y-95673610D01*
X85466530Y-97441420D02*
X85560760Y-97505000D01*
X85402940Y-97347180D02*
X85466530Y-97441420D01*
X87866920Y-94220110D02*
X87856930Y-94182940D01*
X88687890Y-94220110D02*
X88677900Y-94182940D01*
X88842720Y-95685120D02*
X88852160Y-95754940D01*
X88815710Y-95598370D02*
X88842720Y-95685120D01*
X85496860Y-96526970D02*
X85372780Y-96593370D01*
X85935550Y-95468540D02*
X85885210Y-95468540D01*
X86504550Y-96861390D02*
X86396820Y-96730860D01*
X88072970Y-94461970D02*
X88095650Y-94455030D01*
X88561960Y-94353420D02*
X88630370Y-94419650D01*
X85638940Y-98433980D02*
X85829710Y-98403706D01*
X85575410Y-98433980D02*
X85638940Y-98433980D01*
X88537650Y-98668517D02*
X88675620Y-98566304D01*
X86132970Y-97213650D02*
X86108889Y-97136070D01*
X88500820Y-94170580D02*
X88500820Y-94195040D01*
X87747230Y-97382110D02*
X87748860Y-97427960D01*
X88847820Y-97827210D02*
X88837890Y-97897300D01*
X88851570Y-97780500D02*
X88847820Y-97827210D01*
X87809410Y-94419650D02*
X87873150Y-94455030D01*
X87174430Y-95926000D02*
X87013140Y-95807350D01*
X86271650Y-96856011D02*
X86357750Y-96960290D01*
X86167370Y-96769920D02*
X86271650Y-96856011D01*
X89029190Y-97762110D02*
X89029190Y-95778280D01*
X86907830Y-95948850D02*
X87049800Y-96051170D01*
X85738610Y-97377240D02*
X85710500Y-97358240D01*
X85757600Y-97405330D02*
X85738610Y-97377240D01*
X85050675Y-97195370D02*
X85050675Y-97225320D01*
X87679850Y-94170580D02*
X87679850Y-94195040D01*
X88289010Y-94140960D02*
X88265030Y-94052080D01*
X85287600Y-96658970D02*
X85262480Y-96684080D01*
X84852486Y-96073420D02*
X84903214Y-96022620D01*
X86580570Y-97750660D02*
X86632280Y-97576610D01*
X88852160Y-95778280D02*
X88852160Y-97762810D01*
X88852160Y-95754940D02*
X88852160Y-95778280D01*
X87996800Y-94043080D02*
X88033970Y-94053070D01*
X84141331Y-98852654D02*
X87808480Y-98852654D01*
X88014000Y-93866000D02*
X87984430Y-93866000D01*
X88227819Y-94353470D02*
X88272790Y-94268610D01*
X85257920Y-98395569D02*
X85413790Y-98424161D01*
X85108940Y-98349344D02*
X85257920Y-98395569D01*
X85964360Y-97327750D02*
X85939350Y-97420360D01*
X85964360Y-97296870D02*
X85964360Y-97327750D01*
X84070096Y-98711487D02*
X84057401Y-98735901D01*
X88755750Y-94053070D02*
X88792920Y-94043080D01*
X88817710Y-94043080D02*
X88854870Y-94053070D01*
X88743650Y-98497565D02*
X88819230Y-98402730D01*
X88074540Y-94080460D02*
X88101890Y-94120990D01*
X89085940Y-94052080D02*
X89020620Y-93955300D01*
X88716800Y-95228960D02*
X88692820Y-95214640D01*
X87370330Y-96105900D02*
X87325140Y-96061260D01*
X88033970Y-94288040D02*
X87996800Y-94298070D01*
X89048720Y-94353470D02*
X89093690Y-94268610D01*
X88916550Y-94455030D02*
X88980300Y-94419650D01*
X85885260Y-95645620D02*
X85931800Y-95645620D01*
X88111930Y-94182940D02*
X88101890Y-94220110D01*
X87936470Y-95685120D02*
X87963430Y-95598370D01*
X87927080Y-95754940D02*
X87936470Y-95685120D01*
X88694070Y-94455030D02*
X88716800Y-94461970D01*
X85598750Y-97118820D02*
X85606890Y-97110740D01*
X85569610Y-97166290D02*
X85598750Y-97118820D01*
X84399796Y-97722930D02*
X84480308Y-97856290D01*
X85171710Y-96794440D02*
X85105310Y-96918510D01*
X84279028Y-96784140D02*
X84247614Y-97025610D01*
X87873150Y-94455030D02*
X87895890Y-94461970D01*
X85313700Y-97689510D02*
X85414930Y-97744580D01*
X88740290Y-98191955D02*
X88674970Y-98299702D01*
X88787170Y-98085238D02*
X88740290Y-98191955D01*
X87700040Y-97067500D02*
X87733230Y-97244960D01*
X85923120Y-97706870D02*
X85996370Y-97646440D01*
X88922800Y-94120990D02*
X88932830Y-94158150D01*
X86756230Y-95859820D02*
X86907830Y-95948850D01*
X86422800Y-97079970D02*
X86463930Y-97212140D01*
X86357750Y-96960290D02*
X86422800Y-97079970D01*
X85951180Y-96490240D02*
X85818040Y-96472330D01*
X88805350Y-94043080D02*
X88817710Y-94043080D01*
X86056800Y-97573190D02*
X86102480Y-97489210D01*
X85646820Y-97791510D02*
X85671660Y-97791510D01*
X87856930Y-94158150D02*
X87866920Y-94120990D01*
X84257705Y-97270400D02*
X84287219Y-97428820D01*
X88033970Y-94053070D02*
X88074540Y-94080460D01*
X88648000Y-95394810D02*
X88716470Y-95451350D01*
X88569440Y-95352110D02*
X88648000Y-95394810D01*
X85839140Y-97752560D02*
X85923120Y-97706870D01*
X86407230Y-97705080D02*
X86323900Y-97858460D01*
X86459920Y-97535700D02*
X86407230Y-97705080D01*
X85350590Y-97491540D02*
X85299370Y-97429470D01*
X85412650Y-97542760D02*
X85350590Y-97491540D01*
X87895890Y-94461970D02*
X87895890Y-95372080D01*
X85677620Y-97614430D02*
X85646820Y-97614430D01*
X85770230Y-97589420D02*
X85677620Y-97614430D01*
X88687890Y-94120990D02*
X88715220Y-94080460D01*
X89019970Y-95669710D02*
X88993280Y-95567070D01*
X86637430Y-97176500D02*
X86585940Y-97011120D01*
X85895030Y-97129830D02*
X85945750Y-97204970D01*
X85819870Y-97079110D02*
X85895030Y-97129830D01*
X88852160Y-97767200D02*
X88851570Y-97780500D01*
X88852160Y-97762810D02*
X88852160Y-97767200D01*
X85127930Y-98166294D02*
X84932455Y-98060065D01*
X85343750Y-98233459D02*
X85127930Y-98166294D01*
X88818690Y-97985195D02*
X88787170Y-98085238D01*
X88837890Y-97897300D02*
X88818690Y-97985195D01*
X84424697Y-97164010D02*
X84424697Y-97106120D01*
X84448080Y-97337740D02*
X84424697Y-97164010D01*
X88516980Y-94268610D02*
X88561960Y-94353420D01*
X87870780Y-97576230D02*
X87889650Y-97565710D01*
X87864040Y-97578240D02*
X87870780Y-97576230D01*
X86435980Y-98006951D02*
X86445910Y-98004672D01*
X86435010Y-98007113D02*
X86435980Y-98006951D01*
X87013140Y-95807350D02*
X86842350Y-95705740D01*
X84089031Y-98835510D02*
X84113499Y-98848151D01*
X86663250Y-95621530D02*
X86476830Y-95555290D01*
X84287219Y-97428820D02*
X84335016Y-97580030D01*
X88437890Y-98521816D02*
X88257330Y-98607048D01*
X88554640Y-98436584D02*
X88437890Y-98521816D01*
X87650120Y-96896281D02*
X87700040Y-97067500D01*
X85260690Y-97358290D02*
X85236270Y-97279680D01*
X85299370Y-97429470D02*
X85260690Y-97358290D01*
X88895460Y-94260690D02*
X88854870Y-94288040D01*
X88893890Y-95385530D02*
X88893890Y-94461970D01*
X87409120Y-96429470D02*
X87503800Y-96576440D01*
X85591690Y-97316250D02*
X85566080Y-97278330D01*
X85629610Y-97341860D02*
X85591690Y-97316250D01*
X87856930Y-94170580D02*
X87856930Y-94158150D01*
X87769150Y-93955300D02*
X87703780Y-94052080D01*
X85647190Y-97528380D02*
X85676050Y-97528380D01*
X85560760Y-97505000D02*
X85647190Y-97528380D01*
X86478300Y-97399420D02*
X86459920Y-97535700D01*
X86478300Y-97354010D02*
X86478300Y-97399420D01*
X87503800Y-96576440D02*
X87584410Y-96732320D01*
X85064510Y-97053180D02*
X85050675Y-97159780D01*
X85379610Y-97198510D02*
X85379610Y-97231890D01*
X85405930Y-97098470D02*
X85379610Y-97198510D01*
X86476830Y-95555290D02*
X86284290Y-95507390D01*
X88755750Y-94288040D02*
X88715220Y-94260690D01*
X84090224Y-98691793D02*
X84084528Y-98695752D01*
X88083389Y-98832092D02*
X88326720Y-98770623D01*
X85594620Y-96909780D02*
X85498110Y-96969030D01*
X86446940Y-98004401D02*
X87864040Y-97578240D01*
X86445910Y-98004672D02*
X86446940Y-98004401D01*
X84670357Y-96005110D02*
X84521811Y-96198080D01*
X86071570Y-95654740D02*
X86252760Y-95681650D01*
X86398330Y-98055237D02*
X86435010Y-98007113D01*
X86266650Y-98183166D02*
X86398330Y-98055237D01*
X88805350Y-93866000D02*
X88775720Y-93866000D01*
X89029250Y-95751100D02*
X89019970Y-95669710D01*
X88101890Y-94220110D02*
X88074540Y-94260690D01*
X85671660Y-97791510D02*
X85746370Y-97781420D01*
X85625710Y-97614430D02*
X85562440Y-97605860D01*
X85646820Y-97614430D02*
X85625710Y-97614430D01*
X88715220Y-94260690D02*
X88687890Y-94220110D01*
X84684029Y-98089416D02*
X84773222Y-98164340D01*
X85262480Y-96684080D02*
X85237310Y-96709210D01*
X86070690Y-97065870D02*
X86020180Y-97004670D01*
X85227760Y-97216430D02*
X85227760Y-97195370D01*
X85236270Y-97279680D02*
X85227760Y-97216430D01*
X88677900Y-94182940D02*
X88677900Y-94170580D01*
X88289010Y-94170580D02*
X88289010Y-94140960D01*
X85075360Y-95890140D02*
X85326010Y-95756030D01*
X88500820Y-94140960D02*
X88500820Y-94170580D01*
X87934850Y-94053070D02*
X87972010Y-94043080D01*
X88990350Y-98031365D02*
X89012920Y-97927633D01*
X88715220Y-94080460D02*
X88755750Y-94053070D01*
X85002172Y-98304259D02*
X85108940Y-98349344D01*
X84967991Y-98286627D02*
X85002172Y-98304259D01*
X88922800Y-94220110D02*
X88895460Y-94260690D01*
X85237310Y-96709210D02*
X85171710Y-96794440D01*
X84784182Y-95891280D02*
X84727269Y-95948190D01*
X87927080Y-95778280D02*
X87927080Y-95754940D01*
X87927080Y-97493440D02*
X87927080Y-95778280D01*
X86585940Y-97011120D02*
X86504550Y-96861390D01*
X84773222Y-98164340D02*
X84804743Y-98186855D01*
X85517470Y-98256897D02*
X85343750Y-98233459D01*
X85575410Y-98256897D02*
X85517470Y-98256897D01*
X85556690Y-97215440D02*
X85569610Y-97166290D01*
X85556690Y-97231890D02*
X85556690Y-97215440D01*
X87750000Y-96669110D02*
X87724670Y-96613240D01*
X88909720Y-95405820D02*
X88893890Y-95385530D01*
X87325140Y-96061260D02*
X87289180Y-96025720D01*
X88923780Y-93889930D02*
X88834910Y-93866000D01*
X87289180Y-96025720D02*
X87174430Y-95926000D01*
X85105310Y-96918510D02*
X85064510Y-97053180D01*
X87567390Y-96348320D02*
X87370330Y-96105900D01*
X89029250Y-95778280D02*
X89029250Y-95778280D01*
X84967069Y-98287495D02*
X84967991Y-98286627D01*
X84957521Y-98295688D02*
X84967069Y-98287495D01*
X84056967Y-98790913D02*
X84059029Y-98797478D01*
X84247614Y-97147190D02*
X84257705Y-97270400D01*
X88111930Y-94170580D02*
X88111930Y-94182940D01*
X84575468Y-97978848D02*
X84684029Y-98089416D01*
X85620820Y-98256897D02*
X85575410Y-98256897D01*
X85757110Y-98238505D02*
X85620820Y-98256897D01*
X85535000Y-98433980D02*
X85575410Y-98433980D01*
X85413790Y-98424161D02*
X85535000Y-98433980D01*
X87996800Y-94298070D02*
X87984430Y-94298070D01*
X88773000Y-95519810D02*
X88815710Y-95598370D01*
X88716470Y-95451350D02*
X88773000Y-95519810D01*
X86213540Y-97992140D02*
X86079860Y-98102437D01*
X86323900Y-97858460D02*
X86213540Y-97992140D01*
X86102480Y-97489210D02*
X86131350Y-97396430D01*
X85804690Y-95468540D02*
X85563210Y-95499960D01*
X88854870Y-94288040D02*
X88817710Y-94298070D01*
X85764600Y-97431210D02*
X85757600Y-97405330D01*
X85764600Y-97439830D02*
X85764600Y-97431210D01*
X86141440Y-97296870D02*
X86141440Y-97276040D01*
X85414930Y-97744580D02*
X85526800Y-97779360D01*
X87748860Y-97427960D02*
X86566250Y-97783590D01*
X85258190Y-95592350D02*
X84977161Y-95742740D01*
X89109920Y-94170580D02*
X89109920Y-94140960D01*
X89109920Y-94140960D02*
X89085940Y-94052080D01*
X85227760Y-97168510D02*
X85238230Y-97088000D01*
X85227760Y-97195370D02*
X85227760Y-97168510D01*
X87679850Y-94195040D02*
X87696030Y-94268610D01*
X85750980Y-97060550D02*
X85819870Y-97079110D01*
X85728030Y-97060550D02*
X85750980Y-97060550D01*
X86252760Y-95681650D02*
X86427850Y-95725370D01*
X86478300Y-97318530D02*
X86478300Y-97354010D01*
X86463930Y-97212140D02*
X86478300Y-97318530D01*
X88590070Y-93955300D02*
X88524730Y-94052080D01*
X88500820Y-94195040D02*
X88516980Y-94268610D01*
X87679850Y-94140960D02*
X87679850Y-94170580D01*
X89029190Y-95778280D02*
X89029250Y-95778280D01*
X85664440Y-97351290D02*
X85629610Y-97341860D01*
X85676050Y-97351290D02*
X85664440Y-97351290D01*
X85684620Y-97528380D02*
X85710500Y-97521380D01*
X85676050Y-97528380D02*
X85684620Y-97528380D01*
X84054851Y-98784295D02*
X84056967Y-98790913D01*
X87733230Y-97244960D02*
X87747230Y-97382110D01*
X85526800Y-97779360D02*
X85616800Y-97791510D01*
X85738610Y-97502390D02*
X85757600Y-97474290D01*
X85710500Y-97521380D02*
X85738610Y-97502390D01*
X88296440Y-95325150D02*
X88366260Y-95315760D01*
X88209690Y-95352110D02*
X88296440Y-95325150D01*
X86047690Y-96704860D02*
X86167370Y-96769920D01*
X85915530Y-96663750D02*
X86047690Y-96704860D01*
X89109920Y-94195040D02*
X89109920Y-94170580D01*
X88096300Y-95209490D02*
X88072970Y-95222870D01*
X84515247Y-97553610D02*
X84448080Y-97337740D01*
X84621475Y-97749080D02*
X84515247Y-97553610D01*
X85764600Y-97448420D02*
X85764600Y-97439830D01*
X85757600Y-97474290D02*
X85764600Y-97448420D01*
X85631510Y-96486170D02*
X85496860Y-96526970D01*
X85809140Y-96649420D02*
X85915530Y-96663750D01*
X85773710Y-96649420D02*
X85809140Y-96649420D01*
X87808480Y-98675516D02*
X84420032Y-98675516D01*
X87868170Y-98675516D02*
X87808480Y-98675516D01*
X85958980Y-96954170D02*
X85888780Y-96915970D01*
X88611870Y-98379076D02*
X88588220Y-98402893D01*
X88674970Y-98299702D02*
X88611870Y-98379076D01*
X85813430Y-95645620D02*
X85885260Y-95645620D01*
X86595970Y-95785050D02*
X86756230Y-95859820D01*
X86842350Y-95705740D02*
X86663250Y-95621530D01*
X88389600Y-95315760D02*
X88412870Y-95315760D01*
X88366260Y-95315760D02*
X88389600Y-95315760D01*
X89012920Y-97927633D02*
X89024470Y-97844030D01*
X87301330Y-96292370D02*
X87409120Y-96429470D01*
X88131140Y-95394810D02*
X88209690Y-95352110D01*
X88062670Y-95451350D02*
X88131140Y-95394810D01*
X86086690Y-95478300D02*
X85935550Y-95468540D01*
X87909570Y-97546230D02*
X87922470Y-97521550D01*
X87889650Y-97565710D02*
X87909570Y-97546230D01*
X87724670Y-96613240D02*
X87567390Y-96348320D01*
X85871210Y-97521330D02*
X85770230Y-97589420D01*
X85939350Y-97420360D02*
X85871210Y-97521330D01*
X89020620Y-93955300D02*
X88923780Y-93889930D01*
X88897190Y-98275072D02*
X88952970Y-98149258D01*
X88588220Y-98402893D02*
X88588220Y-98402893D01*
X84801705Y-96124140D02*
X84852486Y-96073420D01*
X88677900Y-94170580D02*
X88677900Y-94170580D01*
X88289010Y-94195040D02*
X88289010Y-94170580D01*
X88265030Y-94052080D02*
X88199709Y-93955300D01*
X88524730Y-94052080D02*
X88500820Y-94140960D01*
X84134332Y-98852654D02*
X84141331Y-98852654D01*
X88101890Y-94120990D02*
X88111930Y-94158150D01*
X85483830Y-97581440D02*
X85412650Y-97542760D01*
X85562440Y-97605860D02*
X85483830Y-97581440D01*
X87856930Y-94170580D02*
X87856930Y-94170580D01*
X88102860Y-93889930D02*
X88014000Y-93866000D01*
X88692820Y-95214640D02*
X88562070Y-95162330D01*
X88716800Y-94461970D02*
X88716800Y-95228960D01*
X84113499Y-98848151D02*
X84134332Y-98852654D01*
X88932830Y-94158150D02*
X88932830Y-94170580D01*
X88562070Y-95162330D02*
X88432680Y-95138680D01*
X88895460Y-94080460D02*
X88922800Y-94120990D01*
X85598100Y-95673610D02*
X85813430Y-95645620D01*
X85694660Y-96883471D02*
X85594620Y-96909780D01*
X84727269Y-95948190D02*
X84670357Y-96005110D01*
X85885210Y-95468540D02*
X85804690Y-95468540D01*
X85888780Y-96915970D02*
X85811190Y-96891871D01*
X85152620Y-97528440D02*
X85225420Y-97616700D01*
X86266280Y-96623110D02*
X86116540Y-96541720D01*
X86020180Y-97004670D02*
X85958980Y-96954170D01*
X84084528Y-98695752D02*
X84070096Y-98711487D01*
X85926480Y-98185824D02*
X85757110Y-98238505D01*
X86079860Y-98102437D02*
X85926480Y-98185824D01*
X85931800Y-95645620D02*
X86071570Y-95654740D01*
X88199709Y-93955300D02*
X88102860Y-93889930D01*
X89093690Y-94268610D02*
X89109920Y-94195040D01*
X88715440Y-98526102D02*
X88743650Y-98497565D01*
X84069608Y-98816033D02*
X84089031Y-98835510D01*
X84335016Y-97580030D02*
X84399796Y-97722930D01*
X87788730Y-95558820D02*
X87759980Y-95665320D01*
X87741000Y-94353420D02*
X87809410Y-94419650D01*
X87878860Y-95392750D02*
X87834640Y-95460460D01*
X85563210Y-95499960D02*
X85258190Y-95592350D01*
X89029250Y-95778280D02*
X89029250Y-95751100D01*
X88819230Y-98402730D02*
X88897190Y-98275072D01*
X85811190Y-96891871D02*
X85748800Y-96883471D01*
X87750000Y-95750000D02*
X87750000Y-95778280D01*
D10*
X106952380Y-91476190D02*
X107952380Y-91809523D01*
X106952380Y-92142857D01*
X107952380Y-92619047D02*
X107904761Y-92523809D01*
X107857142Y-92476190D01*
X107761904Y-92428571D01*
X107476190Y-92428571D01*
X107380952Y-92476190D01*
X107333333Y-92523809D01*
X107285714Y-92619047D01*
X107285714Y-92761904D01*
X107333333Y-92857142D01*
X107380952Y-92904761D01*
X107476190Y-92952380D01*
X107761904Y-92952380D01*
X107857142Y-92904761D01*
X107904761Y-92857142D01*
X107952380Y-92761904D01*
X107952380Y-92619047D01*
X107285714Y-93809523D02*
X107952380Y-93809523D01*
X107285714Y-93380952D02*
X107809523Y-93380952D01*
X107904761Y-93428571D01*
X107952380Y-93523809D01*
X107952380Y-93666666D01*
X107904761Y-93761904D01*
X107857142Y-93809523D01*
X107285714Y-94142857D02*
X107285714Y-94523809D01*
X106952380Y-94285714D02*
X107809523Y-94285714D01*
X107904761Y-94333333D01*
X107952380Y-94428571D01*
X107952380Y-94523809D01*
X107000000Y-87238095D02*
X106952380Y-87142857D01*
X106952380Y-87000000D01*
X107000000Y-86857142D01*
X107095238Y-86761904D01*
X107190476Y-86714285D01*
X107380952Y-86666666D01*
X107523809Y-86666666D01*
X107714285Y-86714285D01*
X107809523Y-86761904D01*
X107904761Y-86857142D01*
X107952380Y-87000000D01*
X107952380Y-87095238D01*
X107904761Y-87238095D01*
X107857142Y-87285714D01*
X107523809Y-87285714D01*
X107523809Y-87095238D01*
X107952380Y-87714285D02*
X106952380Y-87714285D01*
X107952380Y-88285714D01*
X106952380Y-88285714D01*
X107952380Y-88761904D02*
X106952380Y-88761904D01*
X106952380Y-89000000D01*
X107000000Y-89142857D01*
X107095238Y-89238095D01*
X107190476Y-89285714D01*
X107380952Y-89333333D01*
X107523809Y-89333333D01*
X107714285Y-89285714D01*
X107809523Y-89238095D01*
X107904761Y-89142857D01*
X107952380Y-89000000D01*
X107952380Y-88761904D01*
X57797619Y-94059523D02*
X57797619Y-94630952D01*
X57797619Y-94345238D02*
X58797619Y-94345238D01*
X58654761Y-94440476D01*
X58559523Y-94535714D01*
X58511904Y-94630952D01*
X58702380Y-93678571D02*
X58750000Y-93630952D01*
X58797619Y-93535714D01*
X58797619Y-93297619D01*
X58750000Y-93202380D01*
X58702380Y-93154761D01*
X58607142Y-93107142D01*
X58511904Y-93107142D01*
X58369047Y-93154761D01*
X57797619Y-93726190D01*
X57797619Y-93107142D01*
X58178571Y-92821428D02*
X58226190Y-92773809D01*
X58273809Y-92678571D01*
X58178571Y-92488095D01*
X58226190Y-92392857D01*
X58273809Y-92345238D01*
X58702380Y-92011904D02*
X58750000Y-91964285D01*
X58797619Y-91869047D01*
X58797619Y-91630952D01*
X58750000Y-91535714D01*
X58702380Y-91488095D01*
X58607142Y-91440476D01*
X58511904Y-91440476D01*
X58369047Y-91488095D01*
X57797619Y-92059523D01*
X57797619Y-91440476D01*
X58464285Y-90583333D02*
X57797619Y-90583333D01*
X58845238Y-90821428D02*
X58130952Y-91059523D01*
X58130952Y-90440476D01*
X58797619Y-89440476D02*
X57797619Y-89107142D01*
X58797619Y-88773809D01*
X57797619Y-88440476D02*
X58797619Y-88440476D01*
X58797619Y-88202380D01*
X58750000Y-88059523D01*
X58654761Y-87964285D01*
X58559523Y-87916666D01*
X58369047Y-87869047D01*
X58226190Y-87869047D01*
X58035714Y-87916666D01*
X57940476Y-87964285D01*
X57845238Y-88059523D01*
X57797619Y-88202380D01*
X57797619Y-88440476D01*
X57892857Y-86869047D02*
X57845238Y-86916666D01*
X57797619Y-87059523D01*
X57797619Y-87154761D01*
X57845238Y-87297619D01*
X57940476Y-87392857D01*
X58035714Y-87440476D01*
X58226190Y-87488095D01*
X58369047Y-87488095D01*
X58559523Y-87440476D01*
X58654761Y-87392857D01*
X58750000Y-87297619D01*
X58797619Y-87154761D01*
X58797619Y-87059523D01*
X58750000Y-86916666D01*
X58702380Y-86869047D01*
X54297619Y-94023809D02*
X53297619Y-93690476D01*
X54297619Y-93357142D01*
X53297619Y-93023809D02*
X53964285Y-93023809D01*
X54297619Y-93023809D02*
X54250000Y-93071428D01*
X54202380Y-93023809D01*
X54250000Y-92976190D01*
X54297619Y-93023809D01*
X54202380Y-93023809D01*
X53964285Y-92547619D02*
X53297619Y-92547619D01*
X53869047Y-92547619D02*
X53916666Y-92500000D01*
X53964285Y-92404761D01*
X53964285Y-92261904D01*
X53916666Y-92166666D01*
X53821428Y-92119047D01*
X53297619Y-92119047D01*
X54250000Y-88761904D02*
X54297619Y-88857142D01*
X54297619Y-89000000D01*
X54250000Y-89142857D01*
X54154761Y-89238095D01*
X54059523Y-89285714D01*
X53869047Y-89333333D01*
X53726190Y-89333333D01*
X53535714Y-89285714D01*
X53440476Y-89238095D01*
X53345238Y-89142857D01*
X53297619Y-89000000D01*
X53297619Y-88904761D01*
X53345238Y-88761904D01*
X53392857Y-88714285D01*
X53726190Y-88714285D01*
X53726190Y-88904761D01*
X53297619Y-88285714D02*
X54297619Y-88285714D01*
X53297619Y-87714285D01*
X54297619Y-87714285D01*
X53297619Y-87238095D02*
X54297619Y-87238095D01*
X54297619Y-87000000D01*
X54250000Y-86857142D01*
X54154761Y-86761904D01*
X54059523Y-86714285D01*
X53869047Y-86666666D01*
X53726190Y-86666666D01*
X53535714Y-86714285D01*
X53440476Y-86761904D01*
X53345238Y-86857142D01*
X53297619Y-87000000D01*
X53297619Y-87238095D01*
X75035714Y-93960714D02*
X74654761Y-93960714D01*
X74892857Y-94627380D02*
X74892857Y-93770238D01*
X74845238Y-93675000D01*
X74750000Y-93627380D01*
X74654761Y-93627380D01*
X74178571Y-94627380D02*
X74273809Y-94579761D01*
X74321428Y-94532142D01*
X74369047Y-94436904D01*
X74369047Y-94151190D01*
X74321428Y-94055952D01*
X74273809Y-94008333D01*
X74178571Y-93960714D01*
X74035714Y-93960714D01*
X73940476Y-94008333D01*
X73892857Y-94055952D01*
X73845238Y-94151190D01*
X73845238Y-94436904D01*
X73892857Y-94532142D01*
X73940476Y-94579761D01*
X74035714Y-94627380D01*
X74178571Y-94627380D01*
X73416666Y-94627380D02*
X73416666Y-93960714D01*
X73416666Y-94151190D02*
X73369047Y-94055952D01*
X73321428Y-94008333D01*
X73226190Y-93960714D01*
X73130952Y-93960714D01*
X72369047Y-93960714D02*
X72369047Y-94770238D01*
X72416666Y-94865476D01*
X72464285Y-94913095D01*
X72559523Y-94960714D01*
X72702380Y-94960714D01*
X72797619Y-94913095D01*
X72369047Y-94579761D02*
X72464285Y-94627380D01*
X72654761Y-94627380D01*
X72750000Y-94579761D01*
X72797619Y-94532142D01*
X72845238Y-94436904D01*
X72845238Y-94151190D01*
X72797619Y-94055952D01*
X72750000Y-94008333D01*
X72654761Y-93960714D01*
X72464285Y-93960714D01*
X72369047Y-94008333D01*
X71464285Y-93960714D02*
X71464285Y-94770238D01*
X71511904Y-94865476D01*
X71559523Y-94913095D01*
X71654761Y-94960714D01*
X71797619Y-94960714D01*
X71892857Y-94913095D01*
X71464285Y-94579761D02*
X71559523Y-94627380D01*
X71750000Y-94627380D01*
X71845238Y-94579761D01*
X71892857Y-94532142D01*
X71940476Y-94436904D01*
X71940476Y-94151190D01*
X71892857Y-94055952D01*
X71845238Y-94008333D01*
X71750000Y-93960714D01*
X71559523Y-93960714D01*
X71464285Y-94008333D01*
X70607142Y-94579761D02*
X70702380Y-94627380D01*
X70892857Y-94627380D01*
X70988095Y-94579761D01*
X71035714Y-94484523D01*
X71035714Y-94103571D01*
X70988095Y-94008333D01*
X70892857Y-93960714D01*
X70702380Y-93960714D01*
X70607142Y-94008333D01*
X70559523Y-94103571D01*
X70559523Y-94198809D01*
X71035714Y-94294047D01*
X69511904Y-94151190D02*
X69559523Y-94103571D01*
X69654761Y-94055952D01*
X69750000Y-94055952D01*
X69845238Y-94103571D01*
X69892857Y-94151190D01*
X69940476Y-94246428D01*
X69940476Y-94341666D01*
X69892857Y-94436904D01*
X69845238Y-94484523D01*
X69750000Y-94532142D01*
X69654761Y-94532142D01*
X69559523Y-94484523D01*
X69511904Y-94436904D01*
X69511904Y-94055952D02*
X69511904Y-94436904D01*
X69464285Y-94484523D01*
X69416666Y-94484523D01*
X69321428Y-94436904D01*
X69273809Y-94341666D01*
X69273809Y-94103571D01*
X69369047Y-93960714D01*
X69511904Y-93865476D01*
X69702380Y-93817857D01*
X69892857Y-93865476D01*
X70035714Y-93960714D01*
X70130952Y-94103571D01*
X70178571Y-94294047D01*
X70130952Y-94484523D01*
X70035714Y-94627380D01*
X69892857Y-94722619D01*
X69702380Y-94770238D01*
X69511904Y-94722619D01*
X69369047Y-94627380D01*
X68416666Y-93960714D02*
X68416666Y-94770238D01*
X68464285Y-94865476D01*
X68511904Y-94913095D01*
X68607142Y-94960714D01*
X68750000Y-94960714D01*
X68845238Y-94913095D01*
X68416666Y-94579761D02*
X68511904Y-94627380D01*
X68702380Y-94627380D01*
X68797619Y-94579761D01*
X68845238Y-94532142D01*
X68892857Y-94436904D01*
X68892857Y-94151190D01*
X68845238Y-94055952D01*
X68797619Y-94008333D01*
X68702380Y-93960714D01*
X68511904Y-93960714D01*
X68416666Y-94008333D01*
X67940476Y-94627380D02*
X67940476Y-93960714D01*
X67940476Y-94055952D02*
X67892857Y-94008333D01*
X67797619Y-93960714D01*
X67654761Y-93960714D01*
X67559523Y-94008333D01*
X67511904Y-94103571D01*
X67511904Y-94627380D01*
X67511904Y-94103571D02*
X67464285Y-94008333D01*
X67369047Y-93960714D01*
X67226190Y-93960714D01*
X67130952Y-94008333D01*
X67083333Y-94103571D01*
X67083333Y-94627380D01*
X66178571Y-94627380D02*
X66178571Y-94103571D01*
X66226190Y-94008333D01*
X66321428Y-93960714D01*
X66511904Y-93960714D01*
X66607142Y-94008333D01*
X66178571Y-94579761D02*
X66273809Y-94627380D01*
X66511904Y-94627380D01*
X66607142Y-94579761D01*
X66654761Y-94484523D01*
X66654761Y-94389285D01*
X66607142Y-94294047D01*
X66511904Y-94246428D01*
X66273809Y-94246428D01*
X66178571Y-94198809D01*
X65702380Y-94627380D02*
X65702380Y-93960714D01*
X65702380Y-93627380D02*
X65750000Y-93675000D01*
X65702380Y-93722619D01*
X65654761Y-93675000D01*
X65702380Y-93627380D01*
X65702380Y-93722619D01*
X65083333Y-94627380D02*
X65178571Y-94579761D01*
X65226190Y-94484523D01*
X65226190Y-93627380D01*
X64702380Y-94532142D02*
X64654761Y-94579761D01*
X64702380Y-94627380D01*
X64750000Y-94579761D01*
X64702380Y-94532142D01*
X64702380Y-94627380D01*
X63797619Y-94579761D02*
X63892857Y-94627380D01*
X64083333Y-94627380D01*
X64178571Y-94579761D01*
X64226190Y-94532142D01*
X64273809Y-94436904D01*
X64273809Y-94151190D01*
X64226190Y-94055952D01*
X64178571Y-94008333D01*
X64083333Y-93960714D01*
X63892857Y-93960714D01*
X63797619Y-94008333D01*
X63226190Y-94627380D02*
X63321428Y-94579761D01*
X63369047Y-94532142D01*
X63416666Y-94436904D01*
X63416666Y-94151190D01*
X63369047Y-94055952D01*
X63321428Y-94008333D01*
X63226190Y-93960714D01*
X63083333Y-93960714D01*
X62988095Y-94008333D01*
X62940476Y-94055952D01*
X62892857Y-94151190D01*
X62892857Y-94436904D01*
X62940476Y-94532142D01*
X62988095Y-94579761D01*
X63083333Y-94627380D01*
X63226190Y-94627380D01*
X62464285Y-94627380D02*
X62464285Y-93960714D01*
X62464285Y-94055952D02*
X62416666Y-94008333D01*
X62321428Y-93960714D01*
X62178571Y-93960714D01*
X62083333Y-94008333D01*
X62035714Y-94103571D01*
X62035714Y-94627380D01*
X62035714Y-94103571D02*
X61988095Y-94008333D01*
X61892857Y-93960714D01*
X61750000Y-93960714D01*
X61654761Y-94008333D01*
X61607142Y-94103571D01*
X61607142Y-94627380D01*
X72035714Y-96277380D02*
X72035714Y-95277380D01*
X71702380Y-95991666D01*
X71369047Y-95277380D01*
X71369047Y-96277380D01*
X70464285Y-96277380D02*
X70464285Y-95753571D01*
X70511904Y-95658333D01*
X70607142Y-95610714D01*
X70797619Y-95610714D01*
X70892857Y-95658333D01*
X70464285Y-96229761D02*
X70559523Y-96277380D01*
X70797619Y-96277380D01*
X70892857Y-96229761D01*
X70940476Y-96134523D01*
X70940476Y-96039285D01*
X70892857Y-95944047D01*
X70797619Y-95896428D01*
X70559523Y-95896428D01*
X70464285Y-95848809D01*
X70083333Y-96277380D02*
X69559523Y-95610714D01*
X70083333Y-95610714D02*
X69559523Y-96277380D01*
X68416666Y-96277380D02*
X68416666Y-95277380D01*
X68035714Y-95277380D01*
X67940476Y-95325000D01*
X67892857Y-95372619D01*
X67845238Y-95467857D01*
X67845238Y-95610714D01*
X67892857Y-95705952D01*
X67940476Y-95753571D01*
X68035714Y-95801190D01*
X68416666Y-95801190D01*
X66988095Y-96277380D02*
X66988095Y-95753571D01*
X67035714Y-95658333D01*
X67130952Y-95610714D01*
X67321428Y-95610714D01*
X67416666Y-95658333D01*
X66988095Y-96229761D02*
X67083333Y-96277380D01*
X67321428Y-96277380D01*
X67416666Y-96229761D01*
X67464285Y-96134523D01*
X67464285Y-96039285D01*
X67416666Y-95944047D01*
X67321428Y-95896428D01*
X67083333Y-95896428D01*
X66988095Y-95848809D01*
X66607142Y-95610714D02*
X66369047Y-96277380D01*
X66130952Y-95610714D02*
X66369047Y-96277380D01*
X66464285Y-96515476D01*
X66511904Y-96563095D01*
X66607142Y-96610714D01*
X65750000Y-95610714D02*
X65750000Y-96277380D01*
X65750000Y-95705952D02*
X65702380Y-95658333D01*
X65607142Y-95610714D01*
X65464285Y-95610714D01*
X65369047Y-95658333D01*
X65321428Y-95753571D01*
X65321428Y-96277380D01*
X64464285Y-96229761D02*
X64559523Y-96277380D01*
X64750000Y-96277380D01*
X64845238Y-96229761D01*
X64892857Y-96134523D01*
X64892857Y-95753571D01*
X64845238Y-95658333D01*
X64750000Y-95610714D01*
X64559523Y-95610714D01*
X64464285Y-95658333D01*
X64416666Y-95753571D01*
X64416666Y-95848809D01*
X64892857Y-95944047D01*
X93345238Y-86853571D02*
X93202380Y-86901190D01*
X93154761Y-86948809D01*
X93107142Y-87044047D01*
X93107142Y-87186904D01*
X93154761Y-87282142D01*
X93202380Y-87329761D01*
X93297619Y-87377380D01*
X93678571Y-87377380D01*
X93678571Y-86377380D01*
X93345238Y-86377380D01*
X93250000Y-86425000D01*
X93202380Y-86472619D01*
X93154761Y-86567857D01*
X93154761Y-86663095D01*
X93202380Y-86758333D01*
X93250000Y-86805952D01*
X93345238Y-86853571D01*
X93678571Y-86853571D01*
X92678571Y-86377380D02*
X92678571Y-87186904D01*
X92630952Y-87282142D01*
X92583333Y-87329761D01*
X92488095Y-87377380D01*
X92297619Y-87377380D01*
X92202380Y-87329761D01*
X92154761Y-87282142D01*
X92107142Y-87186904D01*
X92107142Y-86377380D01*
X91059523Y-87282142D02*
X91107142Y-87329761D01*
X91250000Y-87377380D01*
X91345238Y-87377380D01*
X91488095Y-87329761D01*
X91583333Y-87234523D01*
X91630952Y-87139285D01*
X91678571Y-86948809D01*
X91678571Y-86805952D01*
X91630952Y-86615476D01*
X91583333Y-86520238D01*
X91488095Y-86425000D01*
X91345238Y-86377380D01*
X91250000Y-86377380D01*
X91107142Y-86425000D01*
X91059523Y-86472619D01*
X90630952Y-87377380D02*
X90630952Y-86377380D01*
X90059523Y-87377380D02*
X90488095Y-86805952D01*
X90059523Y-86377380D02*
X90630952Y-86948809D01*
X88297619Y-87282142D02*
X88345238Y-87329761D01*
X88488095Y-87377380D01*
X88583333Y-87377380D01*
X88726190Y-87329761D01*
X88821428Y-87234523D01*
X88869047Y-87139285D01*
X88916666Y-86948809D01*
X88916666Y-86805952D01*
X88869047Y-86615476D01*
X88821428Y-86520238D01*
X88726190Y-86425000D01*
X88583333Y-86377380D01*
X88488095Y-86377380D01*
X88345238Y-86425000D01*
X88297619Y-86472619D01*
X87678571Y-86377380D02*
X87488095Y-86377380D01*
X87392857Y-86425000D01*
X87297619Y-86520238D01*
X87250000Y-86710714D01*
X87250000Y-87044047D01*
X87297619Y-87234523D01*
X87392857Y-87329761D01*
X87488095Y-87377380D01*
X87678571Y-87377380D01*
X87773809Y-87329761D01*
X87869047Y-87234523D01*
X87916666Y-87044047D01*
X87916666Y-86710714D01*
X87869047Y-86520238D01*
X87773809Y-86425000D01*
X87678571Y-86377380D01*
X86821428Y-87377380D02*
X86821428Y-86377380D01*
X86250000Y-87377380D01*
X86250000Y-86377380D01*
X85916666Y-86377380D02*
X85583333Y-87377380D01*
X85250000Y-86377380D01*
X84916666Y-86853571D02*
X84583333Y-86853571D01*
X84440476Y-87377380D02*
X84916666Y-87377380D01*
X84916666Y-86377380D01*
X84440476Y-86377380D01*
X83440476Y-87377380D02*
X83773809Y-86901190D01*
X84011904Y-87377380D02*
X84011904Y-86377380D01*
X83630952Y-86377380D01*
X83535714Y-86425000D01*
X83488095Y-86472619D01*
X83440476Y-86567857D01*
X83440476Y-86710714D01*
X83488095Y-86805952D01*
X83535714Y-86853571D01*
X83630952Y-86901190D01*
X84011904Y-86901190D01*
X83154761Y-86377380D02*
X82583333Y-86377380D01*
X82869047Y-87377380D02*
X82869047Y-86377380D01*
X82250000Y-86853571D02*
X81916666Y-86853571D01*
X81773809Y-87377380D02*
X82250000Y-87377380D01*
X82250000Y-86377380D01*
X81773809Y-86377380D01*
X80773809Y-87377380D02*
X81107142Y-86901190D01*
X81345238Y-87377380D02*
X81345238Y-86377380D01*
X80964285Y-86377380D01*
X80869047Y-86425000D01*
X80821428Y-86472619D01*
X80773809Y-86567857D01*
X80773809Y-86710714D01*
X80821428Y-86805952D01*
X80869047Y-86853571D01*
X80964285Y-86901190D01*
X81345238Y-86901190D01*
X91988095Y-88503571D02*
X91845238Y-88551190D01*
X91797619Y-88598809D01*
X91750000Y-88694047D01*
X91750000Y-88836904D01*
X91797619Y-88932142D01*
X91845238Y-88979761D01*
X91940476Y-89027380D01*
X92321428Y-89027380D01*
X92321428Y-88027380D01*
X91988095Y-88027380D01*
X91892857Y-88075000D01*
X91845238Y-88122619D01*
X91797619Y-88217857D01*
X91797619Y-88313095D01*
X91845238Y-88408333D01*
X91892857Y-88455952D01*
X91988095Y-88503571D01*
X92321428Y-88503571D01*
X91130952Y-88027380D02*
X90940476Y-88027380D01*
X90845238Y-88075000D01*
X90750000Y-88170238D01*
X90702380Y-88360714D01*
X90702380Y-88694047D01*
X90750000Y-88884523D01*
X90845238Y-88979761D01*
X90940476Y-89027380D01*
X91130952Y-89027380D01*
X91226190Y-88979761D01*
X91321428Y-88884523D01*
X91369047Y-88694047D01*
X91369047Y-88360714D01*
X91321428Y-88170238D01*
X91226190Y-88075000D01*
X91130952Y-88027380D01*
X90321428Y-88741666D02*
X89845238Y-88741666D01*
X90416666Y-89027380D02*
X90083333Y-88027380D01*
X89750000Y-89027380D01*
X88845238Y-89027380D02*
X89178571Y-88551190D01*
X89416666Y-89027380D02*
X89416666Y-88027380D01*
X89035714Y-88027380D01*
X88940476Y-88075000D01*
X88892857Y-88122619D01*
X88845238Y-88217857D01*
X88845238Y-88360714D01*
X88892857Y-88455952D01*
X88940476Y-88503571D01*
X89035714Y-88551190D01*
X89416666Y-88551190D01*
X88416666Y-89027380D02*
X88416666Y-88027380D01*
X88178571Y-88027380D01*
X88035714Y-88075000D01*
X87940476Y-88170238D01*
X87892857Y-88265476D01*
X87845238Y-88455952D01*
X87845238Y-88598809D01*
X87892857Y-88789285D01*
X87940476Y-88884523D01*
X88035714Y-88979761D01*
X88178571Y-89027380D01*
X88416666Y-89027380D01*
X86083333Y-89027380D02*
X86416666Y-88551190D01*
X86654761Y-89027380D02*
X86654761Y-88027380D01*
X86273809Y-88027380D01*
X86178571Y-88075000D01*
X86130952Y-88122619D01*
X86083333Y-88217857D01*
X86083333Y-88360714D01*
X86130952Y-88455952D01*
X86178571Y-88503571D01*
X86273809Y-88551190D01*
X86654761Y-88551190D01*
X85654761Y-88503571D02*
X85321428Y-88503571D01*
X85178571Y-89027380D02*
X85654761Y-89027380D01*
X85654761Y-88027380D01*
X85178571Y-88027380D01*
X84892857Y-88027380D02*
X84559523Y-89027380D01*
X84226190Y-88027380D01*
X83892857Y-88932142D02*
X83845238Y-88979761D01*
X83892857Y-89027380D01*
X83940476Y-88979761D01*
X83892857Y-88932142D01*
X83892857Y-89027380D01*
X83226190Y-88027380D02*
X83130952Y-88027380D01*
X83035714Y-88075000D01*
X82988095Y-88122619D01*
X82940476Y-88217857D01*
X82892857Y-88408333D01*
X82892857Y-88646428D01*
X82940476Y-88836904D01*
X82988095Y-88932142D01*
X83035714Y-88979761D01*
X83130952Y-89027380D01*
X83226190Y-89027380D01*
X83321428Y-88979761D01*
X83369047Y-88932142D01*
X83416666Y-88836904D01*
X83464285Y-88646428D01*
X83464285Y-88408333D01*
X83416666Y-88217857D01*
X83369047Y-88122619D01*
X83321428Y-88075000D01*
X83226190Y-88027380D01*
D12*
X80715000Y-58396266D02*
X80715000Y-58053732D01*
X81735000Y-58396266D02*
X81735000Y-58053732D01*
X84785000Y-68253733D02*
X84785000Y-68596267D01*
X83765000Y-68253733D02*
X83765000Y-68596267D01*
X85746267Y-66235000D02*
X85403733Y-66235000D01*
X85746267Y-65215000D02*
X85403733Y-65215000D01*
X85840000Y-63471268D02*
X85840000Y-63128734D01*
X86860000Y-63471268D02*
X86860000Y-63128734D01*
X83260000Y-68253733D02*
X83260000Y-68596267D01*
X82240000Y-68253733D02*
X82240000Y-68596267D01*
D10*
X77075000Y-66650000D02*
X77075000Y-66450000D01*
X83675000Y-66650000D02*
X77075000Y-66650000D01*
X83675000Y-60050000D02*
X83675000Y-66650000D01*
X77075000Y-60050000D02*
X83675000Y-60050000D01*
X77075000Y-60250000D02*
X77075000Y-60050000D01*
X77075000Y-66450000D02*
X77075000Y-60250000D01*
D11*
X79025000Y-64550000D02*
X79025000Y-64800000D01*
X81725000Y-64700000D02*
X81725000Y-64550000D01*
X81575000Y-64700000D02*
X81725000Y-64700000D01*
X81725000Y-62000000D02*
X81575000Y-62000000D01*
X81725000Y-62000000D02*
X81725000Y-62150000D01*
X79025000Y-62000000D02*
X79025000Y-62150000D01*
X79025000Y-61990000D02*
X79175000Y-61990000D01*
D12*
X81735000Y-68253733D02*
X81735000Y-68596267D01*
X80715000Y-68253733D02*
X80715000Y-68596267D01*
X82240000Y-58396266D02*
X82240000Y-58053732D01*
X83260000Y-58396266D02*
X83260000Y-58053732D01*
X83815000Y-58371267D02*
X83815000Y-58028733D01*
X84835000Y-58371267D02*
X84835000Y-58028733D01*
X60085000Y-58371267D02*
X60085000Y-58028733D01*
X59065000Y-58371267D02*
X59065000Y-58028733D01*
X58510000Y-58396266D02*
X58510000Y-58053732D01*
X57490000Y-58396266D02*
X57490000Y-58053732D01*
X55965000Y-68253733D02*
X55965000Y-68596267D01*
X56985000Y-68253733D02*
X56985000Y-68596267D01*
D11*
X54275000Y-61990000D02*
X54425000Y-61990000D01*
X54275000Y-62000000D02*
X54275000Y-62150000D01*
X56975000Y-62000000D02*
X56975000Y-62150000D01*
X56975000Y-62000000D02*
X56825000Y-62000000D01*
X56825000Y-64700000D02*
X56975000Y-64700000D01*
X56975000Y-64700000D02*
X56975000Y-64550000D01*
X54275000Y-64550000D02*
X54275000Y-64800000D01*
D10*
X52325000Y-66450000D02*
X52325000Y-60250000D01*
X52325000Y-60250000D02*
X52325000Y-60050000D01*
X52325000Y-60050000D02*
X58925000Y-60050000D01*
X58925000Y-60050000D02*
X58925000Y-66650000D01*
X58925000Y-66650000D02*
X52325000Y-66650000D01*
X52325000Y-66650000D02*
X52325000Y-66450000D01*
D12*
X57490000Y-68253733D02*
X57490000Y-68596267D01*
X58510000Y-68253733D02*
X58510000Y-68596267D01*
X62110000Y-63471268D02*
X62110000Y-63128734D01*
X61090000Y-63471268D02*
X61090000Y-63128734D01*
X60996267Y-65215000D02*
X60653733Y-65215000D01*
X60996267Y-66235000D02*
X60653733Y-66235000D01*
X59015000Y-68253733D02*
X59015000Y-68596267D01*
X60035000Y-68253733D02*
X60035000Y-68596267D01*
X56985000Y-58396266D02*
X56985000Y-58053732D01*
X55965000Y-58396266D02*
X55965000Y-58053732D01*
D10*
X80107142Y-58733333D02*
X80154761Y-58685714D01*
X80202380Y-58542857D01*
X80202380Y-58447619D01*
X80154761Y-58304761D01*
X80059523Y-58209523D01*
X79964285Y-58161904D01*
X79773809Y-58114285D01*
X79630952Y-58114285D01*
X79440476Y-58161904D01*
X79345238Y-58209523D01*
X79250000Y-58304761D01*
X79202380Y-58447619D01*
X79202380Y-58542857D01*
X79250000Y-58685714D01*
X79297619Y-58733333D01*
X79202380Y-59066666D02*
X79202380Y-59685714D01*
X79583333Y-59352380D01*
X79583333Y-59495238D01*
X79630952Y-59590476D01*
X79678571Y-59638095D01*
X79773809Y-59685714D01*
X80011904Y-59685714D01*
X80107142Y-59638095D01*
X80154761Y-59590476D01*
X80202380Y-59495238D01*
X80202380Y-59209523D01*
X80154761Y-59114285D01*
X80107142Y-59066666D01*
X86082142Y-68183333D02*
X86129761Y-68135714D01*
X86177380Y-67992857D01*
X86177380Y-67897619D01*
X86129761Y-67754761D01*
X86034523Y-67659523D01*
X85939285Y-67611904D01*
X85748809Y-67564285D01*
X85605952Y-67564285D01*
X85415476Y-67611904D01*
X85320238Y-67659523D01*
X85225000Y-67754761D01*
X85177380Y-67897619D01*
X85177380Y-67992857D01*
X85225000Y-68135714D01*
X85272619Y-68183333D01*
X85177380Y-69040476D02*
X85177380Y-68850000D01*
X85225000Y-68754761D01*
X85272619Y-68707142D01*
X85415476Y-68611904D01*
X85605952Y-68564285D01*
X85986904Y-68564285D01*
X86082142Y-68611904D01*
X86129761Y-68659523D01*
X86177380Y-68754761D01*
X86177380Y-68945238D01*
X86129761Y-69040476D01*
X86082142Y-69088095D01*
X85986904Y-69135714D01*
X85748809Y-69135714D01*
X85653571Y-69088095D01*
X85605952Y-69040476D01*
X85558333Y-68945238D01*
X85558333Y-68754761D01*
X85605952Y-68659523D01*
X85653571Y-68611904D01*
X85748809Y-68564285D01*
X84866666Y-64827380D02*
X85200000Y-64351190D01*
X85438095Y-64827380D02*
X85438095Y-63827380D01*
X85057142Y-63827380D01*
X84961904Y-63875000D01*
X84914285Y-63922619D01*
X84866666Y-64017857D01*
X84866666Y-64160714D01*
X84914285Y-64255952D01*
X84961904Y-64303571D01*
X85057142Y-64351190D01*
X85438095Y-64351190D01*
X84485714Y-63922619D02*
X84438095Y-63875000D01*
X84342857Y-63827380D01*
X84104761Y-63827380D01*
X84009523Y-63875000D01*
X83961904Y-63922619D01*
X83914285Y-64017857D01*
X83914285Y-64113095D01*
X83961904Y-64255952D01*
X84533333Y-64827380D01*
X83914285Y-64827380D01*
X88227380Y-63133334D02*
X87751190Y-62800001D01*
X88227380Y-62561905D02*
X87227380Y-62561905D01*
X87227380Y-62942858D01*
X87275000Y-63038096D01*
X87322619Y-63085715D01*
X87417857Y-63133334D01*
X87560714Y-63133334D01*
X87655952Y-63085715D01*
X87703571Y-63038096D01*
X87751190Y-62942858D01*
X87751190Y-62561905D01*
X88227380Y-64085715D02*
X88227380Y-63514286D01*
X88227380Y-63800001D02*
X87227380Y-63800001D01*
X87370238Y-63704762D01*
X87465476Y-63609524D01*
X87513095Y-63514286D01*
X87491666Y-67357142D02*
X87539285Y-67404761D01*
X87682142Y-67452380D01*
X87777380Y-67452380D01*
X87920238Y-67404761D01*
X88015476Y-67309523D01*
X88063095Y-67214285D01*
X88110714Y-67023809D01*
X88110714Y-66880952D01*
X88063095Y-66690476D01*
X88015476Y-66595238D01*
X87920238Y-66500000D01*
X87777380Y-66452380D01*
X87682142Y-66452380D01*
X87539285Y-66500000D01*
X87491666Y-66547619D01*
X86586904Y-66452380D02*
X87063095Y-66452380D01*
X87110714Y-66928571D01*
X87063095Y-66880952D01*
X86967857Y-66833333D01*
X86729761Y-66833333D01*
X86634523Y-66880952D01*
X86586904Y-66928571D01*
X86539285Y-67023809D01*
X86539285Y-67261904D01*
X86586904Y-67357142D01*
X86634523Y-67404761D01*
X86729761Y-67452380D01*
X86967857Y-67452380D01*
X87063095Y-67404761D01*
X87110714Y-67357142D01*
X79189285Y-67879761D02*
X79046428Y-67927380D01*
X78808333Y-67927380D01*
X78713095Y-67879761D01*
X78665476Y-67832142D01*
X78617857Y-67736904D01*
X78617857Y-67641666D01*
X78665476Y-67546428D01*
X78713095Y-67498809D01*
X78808333Y-67451190D01*
X78998809Y-67403571D01*
X79094047Y-67355952D01*
X79141666Y-67308333D01*
X79189285Y-67213095D01*
X79189285Y-67117857D01*
X79141666Y-67022619D01*
X79094047Y-66975000D01*
X78998809Y-66927380D01*
X78760714Y-66927380D01*
X78617857Y-66975000D01*
X77855952Y-67403571D02*
X78189285Y-67403571D01*
X78189285Y-67927380D02*
X78189285Y-66927380D01*
X77713095Y-66927380D01*
X80486904Y-65227380D02*
X80486904Y-66036904D01*
X80439285Y-66132142D01*
X80391666Y-66179761D01*
X80296428Y-66227380D01*
X80105952Y-66227380D01*
X80010714Y-66179761D01*
X79963095Y-66132142D01*
X79915476Y-66036904D01*
X79915476Y-65227380D01*
X79486904Y-65322619D02*
X79439285Y-65275000D01*
X79344047Y-65227380D01*
X79105952Y-65227380D01*
X79010714Y-65275000D01*
X78963095Y-65322619D01*
X78915476Y-65417857D01*
X78915476Y-65513095D01*
X78963095Y-65655952D01*
X79534523Y-66227380D01*
X78915476Y-66227380D01*
X80307142Y-68083333D02*
X80354761Y-68035714D01*
X80402380Y-67892857D01*
X80402380Y-67797619D01*
X80354761Y-67654761D01*
X80259523Y-67559523D01*
X80164285Y-67511904D01*
X79973809Y-67464285D01*
X79830952Y-67464285D01*
X79640476Y-67511904D01*
X79545238Y-67559523D01*
X79450000Y-67654761D01*
X79402380Y-67797619D01*
X79402380Y-67892857D01*
X79450000Y-68035714D01*
X79497619Y-68083333D01*
X79735714Y-68940476D02*
X80402380Y-68940476D01*
X79354761Y-68702380D02*
X80069047Y-68464285D01*
X80069047Y-69083333D01*
X85416666Y-61307142D02*
X85464285Y-61354761D01*
X85607142Y-61402380D01*
X85702380Y-61402380D01*
X85845238Y-61354761D01*
X85940476Y-61259523D01*
X85988095Y-61164285D01*
X86035714Y-60973809D01*
X86035714Y-60830952D01*
X85988095Y-60640476D01*
X85940476Y-60545238D01*
X85845238Y-60450000D01*
X85702380Y-60402380D01*
X85607142Y-60402380D01*
X85464285Y-60450000D01*
X85416666Y-60497619D01*
X85035714Y-60497619D02*
X84988095Y-60450000D01*
X84892857Y-60402380D01*
X84654761Y-60402380D01*
X84559523Y-60450000D01*
X84511904Y-60497619D01*
X84464285Y-60592857D01*
X84464285Y-60688095D01*
X84511904Y-60830952D01*
X85083333Y-61402380D01*
X84464285Y-61402380D01*
X86057142Y-58308333D02*
X86104761Y-58260714D01*
X86152380Y-58117857D01*
X86152380Y-58022619D01*
X86104761Y-57879761D01*
X86009523Y-57784523D01*
X85914285Y-57736904D01*
X85723809Y-57689285D01*
X85580952Y-57689285D01*
X85390476Y-57736904D01*
X85295238Y-57784523D01*
X85200000Y-57879761D01*
X85152380Y-58022619D01*
X85152380Y-58117857D01*
X85200000Y-58260714D01*
X85247619Y-58308333D01*
X86152380Y-59260714D02*
X86152380Y-58689285D01*
X86152380Y-58975000D02*
X85152380Y-58975000D01*
X85295238Y-58879761D01*
X85390476Y-58784523D01*
X85438095Y-58689285D01*
X61307142Y-58308333D02*
X61354761Y-58260714D01*
X61402380Y-58117857D01*
X61402380Y-58022619D01*
X61354761Y-57879761D01*
X61259523Y-57784523D01*
X61164285Y-57736904D01*
X60973809Y-57689285D01*
X60830952Y-57689285D01*
X60640476Y-57736904D01*
X60545238Y-57784523D01*
X60450000Y-57879761D01*
X60402380Y-58022619D01*
X60402380Y-58117857D01*
X60450000Y-58260714D01*
X60497619Y-58308333D01*
X61402380Y-59260714D02*
X61402380Y-58689285D01*
X61402380Y-58975000D02*
X60402380Y-58975000D01*
X60545238Y-58879761D01*
X60640476Y-58784523D01*
X60688095Y-58689285D01*
X60666666Y-61307142D02*
X60714285Y-61354761D01*
X60857142Y-61402380D01*
X60952380Y-61402380D01*
X61095238Y-61354761D01*
X61190476Y-61259523D01*
X61238095Y-61164285D01*
X61285714Y-60973809D01*
X61285714Y-60830952D01*
X61238095Y-60640476D01*
X61190476Y-60545238D01*
X61095238Y-60450000D01*
X60952380Y-60402380D01*
X60857142Y-60402380D01*
X60714285Y-60450000D01*
X60666666Y-60497619D01*
X60285714Y-60497619D02*
X60238095Y-60450000D01*
X60142857Y-60402380D01*
X59904761Y-60402380D01*
X59809523Y-60450000D01*
X59761904Y-60497619D01*
X59714285Y-60592857D01*
X59714285Y-60688095D01*
X59761904Y-60830952D01*
X60333333Y-61402380D01*
X59714285Y-61402380D01*
X55557142Y-68083333D02*
X55604761Y-68035714D01*
X55652380Y-67892857D01*
X55652380Y-67797619D01*
X55604761Y-67654761D01*
X55509523Y-67559523D01*
X55414285Y-67511904D01*
X55223809Y-67464285D01*
X55080952Y-67464285D01*
X54890476Y-67511904D01*
X54795238Y-67559523D01*
X54700000Y-67654761D01*
X54652380Y-67797619D01*
X54652380Y-67892857D01*
X54700000Y-68035714D01*
X54747619Y-68083333D01*
X54985714Y-68940476D02*
X55652380Y-68940476D01*
X54604761Y-68702380D02*
X55319047Y-68464285D01*
X55319047Y-69083333D01*
X55736904Y-65227380D02*
X55736904Y-66036904D01*
X55689285Y-66132142D01*
X55641666Y-66179761D01*
X55546428Y-66227380D01*
X55355952Y-66227380D01*
X55260714Y-66179761D01*
X55213095Y-66132142D01*
X55165476Y-66036904D01*
X55165476Y-65227380D01*
X54736904Y-65322619D02*
X54689285Y-65275000D01*
X54594047Y-65227380D01*
X54355952Y-65227380D01*
X54260714Y-65275000D01*
X54213095Y-65322619D01*
X54165476Y-65417857D01*
X54165476Y-65513095D01*
X54213095Y-65655952D01*
X54784523Y-66227380D01*
X54165476Y-66227380D01*
X54439285Y-67879761D02*
X54296428Y-67927380D01*
X54058333Y-67927380D01*
X53963095Y-67879761D01*
X53915476Y-67832142D01*
X53867857Y-67736904D01*
X53867857Y-67641666D01*
X53915476Y-67546428D01*
X53963095Y-67498809D01*
X54058333Y-67451190D01*
X54248809Y-67403571D01*
X54344047Y-67355952D01*
X54391666Y-67308333D01*
X54439285Y-67213095D01*
X54439285Y-67117857D01*
X54391666Y-67022619D01*
X54344047Y-66975000D01*
X54248809Y-66927380D01*
X54010714Y-66927380D01*
X53867857Y-66975000D01*
X53105952Y-67403571D02*
X53439285Y-67403571D01*
X53439285Y-67927380D02*
X53439285Y-66927380D01*
X52963095Y-66927380D01*
X62741666Y-67357142D02*
X62789285Y-67404761D01*
X62932142Y-67452380D01*
X63027380Y-67452380D01*
X63170238Y-67404761D01*
X63265476Y-67309523D01*
X63313095Y-67214285D01*
X63360714Y-67023809D01*
X63360714Y-66880952D01*
X63313095Y-66690476D01*
X63265476Y-66595238D01*
X63170238Y-66500000D01*
X63027380Y-66452380D01*
X62932142Y-66452380D01*
X62789285Y-66500000D01*
X62741666Y-66547619D01*
X61836904Y-66452380D02*
X62313095Y-66452380D01*
X62360714Y-66928571D01*
X62313095Y-66880952D01*
X62217857Y-66833333D01*
X61979761Y-66833333D01*
X61884523Y-66880952D01*
X61836904Y-66928571D01*
X61789285Y-67023809D01*
X61789285Y-67261904D01*
X61836904Y-67357142D01*
X61884523Y-67404761D01*
X61979761Y-67452380D01*
X62217857Y-67452380D01*
X62313095Y-67404761D01*
X62360714Y-67357142D01*
X63477380Y-63133334D02*
X63001190Y-62800001D01*
X63477380Y-62561905D02*
X62477380Y-62561905D01*
X62477380Y-62942858D01*
X62525000Y-63038096D01*
X62572619Y-63085715D01*
X62667857Y-63133334D01*
X62810714Y-63133334D01*
X62905952Y-63085715D01*
X62953571Y-63038096D01*
X63001190Y-62942858D01*
X63001190Y-62561905D01*
X63477380Y-64085715D02*
X63477380Y-63514286D01*
X63477380Y-63800001D02*
X62477380Y-63800001D01*
X62620238Y-63704762D01*
X62715476Y-63609524D01*
X62763095Y-63514286D01*
X60116666Y-64827380D02*
X60450000Y-64351190D01*
X60688095Y-64827380D02*
X60688095Y-63827380D01*
X60307142Y-63827380D01*
X60211904Y-63875000D01*
X60164285Y-63922619D01*
X60116666Y-64017857D01*
X60116666Y-64160714D01*
X60164285Y-64255952D01*
X60211904Y-64303571D01*
X60307142Y-64351190D01*
X60688095Y-64351190D01*
X59735714Y-63922619D02*
X59688095Y-63875000D01*
X59592857Y-63827380D01*
X59354761Y-63827380D01*
X59259523Y-63875000D01*
X59211904Y-63922619D01*
X59164285Y-64017857D01*
X59164285Y-64113095D01*
X59211904Y-64255952D01*
X59783333Y-64827380D01*
X59164285Y-64827380D01*
X61332142Y-68183333D02*
X61379761Y-68135714D01*
X61427380Y-67992857D01*
X61427380Y-67897619D01*
X61379761Y-67754761D01*
X61284523Y-67659523D01*
X61189285Y-67611904D01*
X60998809Y-67564285D01*
X60855952Y-67564285D01*
X60665476Y-67611904D01*
X60570238Y-67659523D01*
X60475000Y-67754761D01*
X60427380Y-67897619D01*
X60427380Y-67992857D01*
X60475000Y-68135714D01*
X60522619Y-68183333D01*
X60427380Y-69040476D02*
X60427380Y-68850000D01*
X60475000Y-68754761D01*
X60522619Y-68707142D01*
X60665476Y-68611904D01*
X60855952Y-68564285D01*
X61236904Y-68564285D01*
X61332142Y-68611904D01*
X61379761Y-68659523D01*
X61427380Y-68754761D01*
X61427380Y-68945238D01*
X61379761Y-69040476D01*
X61332142Y-69088095D01*
X61236904Y-69135714D01*
X60998809Y-69135714D01*
X60903571Y-69088095D01*
X60855952Y-69040476D01*
X60808333Y-68945238D01*
X60808333Y-68754761D01*
X60855952Y-68659523D01*
X60903571Y-68611904D01*
X60998809Y-68564285D01*
X55357142Y-58733333D02*
X55404761Y-58685714D01*
X55452380Y-58542857D01*
X55452380Y-58447619D01*
X55404761Y-58304761D01*
X55309523Y-58209523D01*
X55214285Y-58161904D01*
X55023809Y-58114285D01*
X54880952Y-58114285D01*
X54690476Y-58161904D01*
X54595238Y-58209523D01*
X54500000Y-58304761D01*
X54452380Y-58447619D01*
X54452380Y-58542857D01*
X54500000Y-58685714D01*
X54547619Y-58733333D01*
X54452380Y-59066666D02*
X54452380Y-59685714D01*
X54833333Y-59352380D01*
X54833333Y-59495238D01*
X54880952Y-59590476D01*
X54928571Y-59638095D01*
X55023809Y-59685714D01*
X55261904Y-59685714D01*
X55357142Y-59638095D01*
X55404761Y-59590476D01*
X55452380Y-59495238D01*
X55452380Y-59209523D01*
X55404761Y-59114285D01*
X55357142Y-59066666D01*
%LPC*%
D13*
G36*
X81553387Y-58593078D02*
G01*
X81630438Y-58644561D01*
X81681921Y-58721612D01*
X81700000Y-58812499D01*
X81700000Y-59387499D01*
X81681921Y-59478386D01*
X81630438Y-59555437D01*
X81553387Y-59606920D01*
X81462500Y-59624999D01*
X80987500Y-59624999D01*
X80896613Y-59606920D01*
X80819562Y-59555437D01*
X80768079Y-59478386D01*
X80750000Y-59387499D01*
X80750000Y-58812499D01*
X80768079Y-58721612D01*
X80819562Y-58644561D01*
X80896613Y-58593078D01*
X80987500Y-58574999D01*
X81462500Y-58574999D01*
X81553387Y-58593078D01*
X81553387Y-58593078D01*
G37*
D14*
X81225000Y-59099999D03*
D13*
G36*
X81553387Y-56843078D02*
G01*
X81630438Y-56894561D01*
X81681921Y-56971612D01*
X81700000Y-57062499D01*
X81700000Y-57637499D01*
X81681921Y-57728386D01*
X81630438Y-57805437D01*
X81553387Y-57856920D01*
X81462500Y-57874999D01*
X80987500Y-57874999D01*
X80896613Y-57856920D01*
X80819562Y-57805437D01*
X80768079Y-57728386D01*
X80750000Y-57637499D01*
X80750000Y-57062499D01*
X80768079Y-56971612D01*
X80819562Y-56894561D01*
X80896613Y-56843078D01*
X80987500Y-56824999D01*
X81462500Y-56824999D01*
X81553387Y-56843078D01*
X81553387Y-56843078D01*
G37*
D14*
X81225000Y-57349999D03*
D15*
X83700000Y-56050000D03*
X84400000Y-56050000D03*
X85100000Y-56050000D03*
X83000000Y-56050000D03*
X82300000Y-56050000D03*
X85050000Y-70850000D03*
X84350000Y-70850000D03*
X82250000Y-70850000D03*
X82950000Y-70850000D03*
X83650000Y-70850000D03*
D13*
G36*
X84603387Y-67043079D02*
G01*
X84680438Y-67094562D01*
X84731921Y-67171613D01*
X84750000Y-67262500D01*
X84750000Y-67837500D01*
X84731921Y-67928387D01*
X84680438Y-68005438D01*
X84603387Y-68056921D01*
X84512500Y-68075000D01*
X84037500Y-68075000D01*
X83946613Y-68056921D01*
X83869562Y-68005438D01*
X83818079Y-67928387D01*
X83800000Y-67837500D01*
X83800000Y-67262500D01*
X83818079Y-67171613D01*
X83869562Y-67094562D01*
X83946613Y-67043079D01*
X84037500Y-67025000D01*
X84512500Y-67025000D01*
X84603387Y-67043079D01*
X84603387Y-67043079D01*
G37*
D14*
X84275000Y-67550000D03*
D13*
G36*
X84603387Y-68793079D02*
G01*
X84680438Y-68844562D01*
X84731921Y-68921613D01*
X84750000Y-69012500D01*
X84750000Y-69587500D01*
X84731921Y-69678387D01*
X84680438Y-69755438D01*
X84603387Y-69806921D01*
X84512500Y-69825000D01*
X84037500Y-69825000D01*
X83946613Y-69806921D01*
X83869562Y-69755438D01*
X83818079Y-69678387D01*
X83800000Y-69587500D01*
X83800000Y-69012500D01*
X83818079Y-68921613D01*
X83869562Y-68844562D01*
X83946613Y-68793079D01*
X84037500Y-68775000D01*
X84512500Y-68775000D01*
X84603387Y-68793079D01*
X84603387Y-68793079D01*
G37*
D14*
X84275000Y-69300000D03*
D13*
G36*
X86828387Y-65268079D02*
G01*
X86905438Y-65319562D01*
X86956921Y-65396613D01*
X86975000Y-65487500D01*
X86975000Y-65962500D01*
X86956921Y-66053387D01*
X86905438Y-66130438D01*
X86828387Y-66181921D01*
X86737500Y-66200000D01*
X86162500Y-66200000D01*
X86071613Y-66181921D01*
X85994562Y-66130438D01*
X85943079Y-66053387D01*
X85925000Y-65962500D01*
X85925000Y-65487500D01*
X85943079Y-65396613D01*
X85994562Y-65319562D01*
X86071613Y-65268079D01*
X86162500Y-65250000D01*
X86737500Y-65250000D01*
X86828387Y-65268079D01*
X86828387Y-65268079D01*
G37*
D14*
X86450000Y-65725000D03*
D13*
G36*
X85078387Y-65268079D02*
G01*
X85155438Y-65319562D01*
X85206921Y-65396613D01*
X85225000Y-65487500D01*
X85225000Y-65962500D01*
X85206921Y-66053387D01*
X85155438Y-66130438D01*
X85078387Y-66181921D01*
X84987500Y-66200000D01*
X84412500Y-66200000D01*
X84321613Y-66181921D01*
X84244562Y-66130438D01*
X84193079Y-66053387D01*
X84175000Y-65962500D01*
X84175000Y-65487500D01*
X84193079Y-65396613D01*
X84244562Y-65319562D01*
X84321613Y-65268079D01*
X84412500Y-65250000D01*
X84987500Y-65250000D01*
X85078387Y-65268079D01*
X85078387Y-65268079D01*
G37*
D14*
X84700000Y-65725000D03*
D13*
G36*
X86678387Y-63668080D02*
G01*
X86755438Y-63719563D01*
X86806921Y-63796614D01*
X86825000Y-63887501D01*
X86825000Y-64462501D01*
X86806921Y-64553388D01*
X86755438Y-64630439D01*
X86678387Y-64681922D01*
X86587500Y-64700001D01*
X86112500Y-64700001D01*
X86021613Y-64681922D01*
X85944562Y-64630439D01*
X85893079Y-64553388D01*
X85875000Y-64462501D01*
X85875000Y-63887501D01*
X85893079Y-63796614D01*
X85944562Y-63719563D01*
X86021613Y-63668080D01*
X86112500Y-63650001D01*
X86587500Y-63650001D01*
X86678387Y-63668080D01*
X86678387Y-63668080D01*
G37*
D14*
X86350000Y-64175001D03*
D13*
G36*
X86678387Y-61918080D02*
G01*
X86755438Y-61969563D01*
X86806921Y-62046614D01*
X86825000Y-62137501D01*
X86825000Y-62712501D01*
X86806921Y-62803388D01*
X86755438Y-62880439D01*
X86678387Y-62931922D01*
X86587500Y-62950001D01*
X86112500Y-62950001D01*
X86021613Y-62931922D01*
X85944562Y-62880439D01*
X85893079Y-62803388D01*
X85875000Y-62712501D01*
X85875000Y-62137501D01*
X85893079Y-62046614D01*
X85944562Y-61969563D01*
X86021613Y-61918080D01*
X86112500Y-61900001D01*
X86587500Y-61900001D01*
X86678387Y-61918080D01*
X86678387Y-61918080D01*
G37*
D14*
X86350000Y-62425001D03*
D13*
G36*
X83078387Y-67043079D02*
G01*
X83155438Y-67094562D01*
X83206921Y-67171613D01*
X83225000Y-67262500D01*
X83225000Y-67837500D01*
X83206921Y-67928387D01*
X83155438Y-68005438D01*
X83078387Y-68056921D01*
X82987500Y-68075000D01*
X82512500Y-68075000D01*
X82421613Y-68056921D01*
X82344562Y-68005438D01*
X82293079Y-67928387D01*
X82275000Y-67837500D01*
X82275000Y-67262500D01*
X82293079Y-67171613D01*
X82344562Y-67094562D01*
X82421613Y-67043079D01*
X82512500Y-67025000D01*
X82987500Y-67025000D01*
X83078387Y-67043079D01*
X83078387Y-67043079D01*
G37*
D14*
X82750000Y-67550000D03*
D13*
G36*
X83078387Y-68793079D02*
G01*
X83155438Y-68844562D01*
X83206921Y-68921613D01*
X83225000Y-69012500D01*
X83225000Y-69587500D01*
X83206921Y-69678387D01*
X83155438Y-69755438D01*
X83078387Y-69806921D01*
X82987500Y-69825000D01*
X82512500Y-69825000D01*
X82421613Y-69806921D01*
X82344562Y-69755438D01*
X82293079Y-69678387D01*
X82275000Y-69587500D01*
X82275000Y-69012500D01*
X82293079Y-68921613D01*
X82344562Y-68844562D01*
X82421613Y-68793079D01*
X82512500Y-68775000D01*
X82987500Y-68775000D01*
X83078387Y-68793079D01*
X83078387Y-68793079D01*
G37*
D14*
X82750000Y-69300000D03*
D16*
X82975000Y-60750000D03*
X77775000Y-60750000D03*
X82975000Y-65950000D03*
X77775000Y-65950000D03*
D17*
X81350000Y-64375000D03*
X80700000Y-64375000D03*
X80050000Y-64375000D03*
X79400000Y-64375000D03*
X79400000Y-62325000D03*
X80050000Y-62325000D03*
X80700000Y-62325000D03*
X81350000Y-62325000D03*
D13*
G36*
X81553387Y-67043079D02*
G01*
X81630438Y-67094562D01*
X81681921Y-67171613D01*
X81700000Y-67262500D01*
X81700000Y-67837500D01*
X81681921Y-67928387D01*
X81630438Y-68005438D01*
X81553387Y-68056921D01*
X81462500Y-68075000D01*
X80987500Y-68075000D01*
X80896613Y-68056921D01*
X80819562Y-68005438D01*
X80768079Y-67928387D01*
X80750000Y-67837500D01*
X80750000Y-67262500D01*
X80768079Y-67171613D01*
X80819562Y-67094562D01*
X80896613Y-67043079D01*
X80987500Y-67025000D01*
X81462500Y-67025000D01*
X81553387Y-67043079D01*
X81553387Y-67043079D01*
G37*
D14*
X81225000Y-67550000D03*
D13*
G36*
X81553387Y-68793079D02*
G01*
X81630438Y-68844562D01*
X81681921Y-68921613D01*
X81700000Y-69012500D01*
X81700000Y-69587500D01*
X81681921Y-69678387D01*
X81630438Y-69755438D01*
X81553387Y-69806921D01*
X81462500Y-69825000D01*
X80987500Y-69825000D01*
X80896613Y-69806921D01*
X80819562Y-69755438D01*
X80768079Y-69678387D01*
X80750000Y-69587500D01*
X80750000Y-69012500D01*
X80768079Y-68921613D01*
X80819562Y-68844562D01*
X80896613Y-68793079D01*
X80987500Y-68775000D01*
X81462500Y-68775000D01*
X81553387Y-68793079D01*
X81553387Y-68793079D01*
G37*
D14*
X81225000Y-69300000D03*
D13*
G36*
X83078387Y-58593078D02*
G01*
X83155438Y-58644561D01*
X83206921Y-58721612D01*
X83225000Y-58812499D01*
X83225000Y-59387499D01*
X83206921Y-59478386D01*
X83155438Y-59555437D01*
X83078387Y-59606920D01*
X82987500Y-59624999D01*
X82512500Y-59624999D01*
X82421613Y-59606920D01*
X82344562Y-59555437D01*
X82293079Y-59478386D01*
X82275000Y-59387499D01*
X82275000Y-58812499D01*
X82293079Y-58721612D01*
X82344562Y-58644561D01*
X82421613Y-58593078D01*
X82512500Y-58574999D01*
X82987500Y-58574999D01*
X83078387Y-58593078D01*
X83078387Y-58593078D01*
G37*
D14*
X82750000Y-59099999D03*
D13*
G36*
X83078387Y-56843078D02*
G01*
X83155438Y-56894561D01*
X83206921Y-56971612D01*
X83225000Y-57062499D01*
X83225000Y-57637499D01*
X83206921Y-57728386D01*
X83155438Y-57805437D01*
X83078387Y-57856920D01*
X82987500Y-57874999D01*
X82512500Y-57874999D01*
X82421613Y-57856920D01*
X82344562Y-57805437D01*
X82293079Y-57728386D01*
X82275000Y-57637499D01*
X82275000Y-57062499D01*
X82293079Y-56971612D01*
X82344562Y-56894561D01*
X82421613Y-56843078D01*
X82512500Y-56824999D01*
X82987500Y-56824999D01*
X83078387Y-56843078D01*
X83078387Y-56843078D01*
G37*
D14*
X82750000Y-57349999D03*
D13*
G36*
X84653387Y-58568079D02*
G01*
X84730438Y-58619562D01*
X84781921Y-58696613D01*
X84800000Y-58787500D01*
X84800000Y-59362500D01*
X84781921Y-59453387D01*
X84730438Y-59530438D01*
X84653387Y-59581921D01*
X84562500Y-59600000D01*
X84087500Y-59600000D01*
X83996613Y-59581921D01*
X83919562Y-59530438D01*
X83868079Y-59453387D01*
X83850000Y-59362500D01*
X83850000Y-58787500D01*
X83868079Y-58696613D01*
X83919562Y-58619562D01*
X83996613Y-58568079D01*
X84087500Y-58550000D01*
X84562500Y-58550000D01*
X84653387Y-58568079D01*
X84653387Y-58568079D01*
G37*
D14*
X84325000Y-59075000D03*
D13*
G36*
X84653387Y-56818079D02*
G01*
X84730438Y-56869562D01*
X84781921Y-56946613D01*
X84800000Y-57037500D01*
X84800000Y-57612500D01*
X84781921Y-57703387D01*
X84730438Y-57780438D01*
X84653387Y-57831921D01*
X84562500Y-57850000D01*
X84087500Y-57850000D01*
X83996613Y-57831921D01*
X83919562Y-57780438D01*
X83868079Y-57703387D01*
X83850000Y-57612500D01*
X83850000Y-57037500D01*
X83868079Y-56946613D01*
X83919562Y-56869562D01*
X83996613Y-56818079D01*
X84087500Y-56800000D01*
X84562500Y-56800000D01*
X84653387Y-56818079D01*
X84653387Y-56818079D01*
G37*
D14*
X84325000Y-57325000D03*
D15*
X57550000Y-56050000D03*
X58250000Y-56050000D03*
X60350000Y-56050000D03*
X59650000Y-56050000D03*
X58950000Y-56050000D03*
X58900000Y-70850000D03*
X58200000Y-70850000D03*
X57500000Y-70850000D03*
X59600000Y-70850000D03*
X60300000Y-70850000D03*
D13*
G36*
X59903387Y-56818079D02*
G01*
X59980438Y-56869562D01*
X60031921Y-56946613D01*
X60050000Y-57037500D01*
X60050000Y-57612500D01*
X60031921Y-57703387D01*
X59980438Y-57780438D01*
X59903387Y-57831921D01*
X59812500Y-57850000D01*
X59337500Y-57850000D01*
X59246613Y-57831921D01*
X59169562Y-57780438D01*
X59118079Y-57703387D01*
X59100000Y-57612500D01*
X59100000Y-57037500D01*
X59118079Y-56946613D01*
X59169562Y-56869562D01*
X59246613Y-56818079D01*
X59337500Y-56800000D01*
X59812500Y-56800000D01*
X59903387Y-56818079D01*
X59903387Y-56818079D01*
G37*
D14*
X59575000Y-57325000D03*
D13*
G36*
X59903387Y-58568079D02*
G01*
X59980438Y-58619562D01*
X60031921Y-58696613D01*
X60050000Y-58787500D01*
X60050000Y-59362500D01*
X60031921Y-59453387D01*
X59980438Y-59530438D01*
X59903387Y-59581921D01*
X59812500Y-59600000D01*
X59337500Y-59600000D01*
X59246613Y-59581921D01*
X59169562Y-59530438D01*
X59118079Y-59453387D01*
X59100000Y-59362500D01*
X59100000Y-58787500D01*
X59118079Y-58696613D01*
X59169562Y-58619562D01*
X59246613Y-58568079D01*
X59337500Y-58550000D01*
X59812500Y-58550000D01*
X59903387Y-58568079D01*
X59903387Y-58568079D01*
G37*
D14*
X59575000Y-59075000D03*
D13*
G36*
X58328387Y-56843078D02*
G01*
X58405438Y-56894561D01*
X58456921Y-56971612D01*
X58475000Y-57062499D01*
X58475000Y-57637499D01*
X58456921Y-57728386D01*
X58405438Y-57805437D01*
X58328387Y-57856920D01*
X58237500Y-57874999D01*
X57762500Y-57874999D01*
X57671613Y-57856920D01*
X57594562Y-57805437D01*
X57543079Y-57728386D01*
X57525000Y-57637499D01*
X57525000Y-57062499D01*
X57543079Y-56971612D01*
X57594562Y-56894561D01*
X57671613Y-56843078D01*
X57762500Y-56824999D01*
X58237500Y-56824999D01*
X58328387Y-56843078D01*
X58328387Y-56843078D01*
G37*
D14*
X58000000Y-57349999D03*
D13*
G36*
X58328387Y-58593078D02*
G01*
X58405438Y-58644561D01*
X58456921Y-58721612D01*
X58475000Y-58812499D01*
X58475000Y-59387499D01*
X58456921Y-59478386D01*
X58405438Y-59555437D01*
X58328387Y-59606920D01*
X58237500Y-59624999D01*
X57762500Y-59624999D01*
X57671613Y-59606920D01*
X57594562Y-59555437D01*
X57543079Y-59478386D01*
X57525000Y-59387499D01*
X57525000Y-58812499D01*
X57543079Y-58721612D01*
X57594562Y-58644561D01*
X57671613Y-58593078D01*
X57762500Y-58574999D01*
X58237500Y-58574999D01*
X58328387Y-58593078D01*
X58328387Y-58593078D01*
G37*
D14*
X58000000Y-59099999D03*
D13*
G36*
X56803387Y-68793079D02*
G01*
X56880438Y-68844562D01*
X56931921Y-68921613D01*
X56950000Y-69012500D01*
X56950000Y-69587500D01*
X56931921Y-69678387D01*
X56880438Y-69755438D01*
X56803387Y-69806921D01*
X56712500Y-69825000D01*
X56237500Y-69825000D01*
X56146613Y-69806921D01*
X56069562Y-69755438D01*
X56018079Y-69678387D01*
X56000000Y-69587500D01*
X56000000Y-69012500D01*
X56018079Y-68921613D01*
X56069562Y-68844562D01*
X56146613Y-68793079D01*
X56237500Y-68775000D01*
X56712500Y-68775000D01*
X56803387Y-68793079D01*
X56803387Y-68793079D01*
G37*
D14*
X56475000Y-69300000D03*
D13*
G36*
X56803387Y-67043079D02*
G01*
X56880438Y-67094562D01*
X56931921Y-67171613D01*
X56950000Y-67262500D01*
X56950000Y-67837500D01*
X56931921Y-67928387D01*
X56880438Y-68005438D01*
X56803387Y-68056921D01*
X56712500Y-68075000D01*
X56237500Y-68075000D01*
X56146613Y-68056921D01*
X56069562Y-68005438D01*
X56018079Y-67928387D01*
X56000000Y-67837500D01*
X56000000Y-67262500D01*
X56018079Y-67171613D01*
X56069562Y-67094562D01*
X56146613Y-67043079D01*
X56237500Y-67025000D01*
X56712500Y-67025000D01*
X56803387Y-67043079D01*
X56803387Y-67043079D01*
G37*
D14*
X56475000Y-67550000D03*
D17*
X56600000Y-62325000D03*
X55950000Y-62325000D03*
X55300000Y-62325000D03*
X54650000Y-62325000D03*
X54650000Y-64375000D03*
X55300000Y-64375000D03*
X55950000Y-64375000D03*
X56600000Y-64375000D03*
D16*
X53025000Y-65950000D03*
X58225000Y-65950000D03*
X53025000Y-60750000D03*
X58225000Y-60750000D03*
D13*
G36*
X58328387Y-68793079D02*
G01*
X58405438Y-68844562D01*
X58456921Y-68921613D01*
X58475000Y-69012500D01*
X58475000Y-69587500D01*
X58456921Y-69678387D01*
X58405438Y-69755438D01*
X58328387Y-69806921D01*
X58237500Y-69825000D01*
X57762500Y-69825000D01*
X57671613Y-69806921D01*
X57594562Y-69755438D01*
X57543079Y-69678387D01*
X57525000Y-69587500D01*
X57525000Y-69012500D01*
X57543079Y-68921613D01*
X57594562Y-68844562D01*
X57671613Y-68793079D01*
X57762500Y-68775000D01*
X58237500Y-68775000D01*
X58328387Y-68793079D01*
X58328387Y-68793079D01*
G37*
D14*
X58000000Y-69300000D03*
D13*
G36*
X58328387Y-67043079D02*
G01*
X58405438Y-67094562D01*
X58456921Y-67171613D01*
X58475000Y-67262500D01*
X58475000Y-67837500D01*
X58456921Y-67928387D01*
X58405438Y-68005438D01*
X58328387Y-68056921D01*
X58237500Y-68075000D01*
X57762500Y-68075000D01*
X57671613Y-68056921D01*
X57594562Y-68005438D01*
X57543079Y-67928387D01*
X57525000Y-67837500D01*
X57525000Y-67262500D01*
X57543079Y-67171613D01*
X57594562Y-67094562D01*
X57671613Y-67043079D01*
X57762500Y-67025000D01*
X58237500Y-67025000D01*
X58328387Y-67043079D01*
X58328387Y-67043079D01*
G37*
D14*
X58000000Y-67550000D03*
D13*
G36*
X61928387Y-61918080D02*
G01*
X62005438Y-61969563D01*
X62056921Y-62046614D01*
X62075000Y-62137501D01*
X62075000Y-62712501D01*
X62056921Y-62803388D01*
X62005438Y-62880439D01*
X61928387Y-62931922D01*
X61837500Y-62950001D01*
X61362500Y-62950001D01*
X61271613Y-62931922D01*
X61194562Y-62880439D01*
X61143079Y-62803388D01*
X61125000Y-62712501D01*
X61125000Y-62137501D01*
X61143079Y-62046614D01*
X61194562Y-61969563D01*
X61271613Y-61918080D01*
X61362500Y-61900001D01*
X61837500Y-61900001D01*
X61928387Y-61918080D01*
X61928387Y-61918080D01*
G37*
D14*
X61600000Y-62425001D03*
D13*
G36*
X61928387Y-63668080D02*
G01*
X62005438Y-63719563D01*
X62056921Y-63796614D01*
X62075000Y-63887501D01*
X62075000Y-64462501D01*
X62056921Y-64553388D01*
X62005438Y-64630439D01*
X61928387Y-64681922D01*
X61837500Y-64700001D01*
X61362500Y-64700001D01*
X61271613Y-64681922D01*
X61194562Y-64630439D01*
X61143079Y-64553388D01*
X61125000Y-64462501D01*
X61125000Y-63887501D01*
X61143079Y-63796614D01*
X61194562Y-63719563D01*
X61271613Y-63668080D01*
X61362500Y-63650001D01*
X61837500Y-63650001D01*
X61928387Y-63668080D01*
X61928387Y-63668080D01*
G37*
D14*
X61600000Y-64175001D03*
D13*
G36*
X60328387Y-65268079D02*
G01*
X60405438Y-65319562D01*
X60456921Y-65396613D01*
X60475000Y-65487500D01*
X60475000Y-65962500D01*
X60456921Y-66053387D01*
X60405438Y-66130438D01*
X60328387Y-66181921D01*
X60237500Y-66200000D01*
X59662500Y-66200000D01*
X59571613Y-66181921D01*
X59494562Y-66130438D01*
X59443079Y-66053387D01*
X59425000Y-65962500D01*
X59425000Y-65487500D01*
X59443079Y-65396613D01*
X59494562Y-65319562D01*
X59571613Y-65268079D01*
X59662500Y-65250000D01*
X60237500Y-65250000D01*
X60328387Y-65268079D01*
X60328387Y-65268079D01*
G37*
D14*
X59950000Y-65725000D03*
D13*
G36*
X62078387Y-65268079D02*
G01*
X62155438Y-65319562D01*
X62206921Y-65396613D01*
X62225000Y-65487500D01*
X62225000Y-65962500D01*
X62206921Y-66053387D01*
X62155438Y-66130438D01*
X62078387Y-66181921D01*
X61987500Y-66200000D01*
X61412500Y-66200000D01*
X61321613Y-66181921D01*
X61244562Y-66130438D01*
X61193079Y-66053387D01*
X61175000Y-65962500D01*
X61175000Y-65487500D01*
X61193079Y-65396613D01*
X61244562Y-65319562D01*
X61321613Y-65268079D01*
X61412500Y-65250000D01*
X61987500Y-65250000D01*
X62078387Y-65268079D01*
X62078387Y-65268079D01*
G37*
D14*
X61700000Y-65725000D03*
D13*
G36*
X59853387Y-68793079D02*
G01*
X59930438Y-68844562D01*
X59981921Y-68921613D01*
X60000000Y-69012500D01*
X60000000Y-69587500D01*
X59981921Y-69678387D01*
X59930438Y-69755438D01*
X59853387Y-69806921D01*
X59762500Y-69825000D01*
X59287500Y-69825000D01*
X59196613Y-69806921D01*
X59119562Y-69755438D01*
X59068079Y-69678387D01*
X59050000Y-69587500D01*
X59050000Y-69012500D01*
X59068079Y-68921613D01*
X59119562Y-68844562D01*
X59196613Y-68793079D01*
X59287500Y-68775000D01*
X59762500Y-68775000D01*
X59853387Y-68793079D01*
X59853387Y-68793079D01*
G37*
D14*
X59525000Y-69300000D03*
D13*
G36*
X59853387Y-67043079D02*
G01*
X59930438Y-67094562D01*
X59981921Y-67171613D01*
X60000000Y-67262500D01*
X60000000Y-67837500D01*
X59981921Y-67928387D01*
X59930438Y-68005438D01*
X59853387Y-68056921D01*
X59762500Y-68075000D01*
X59287500Y-68075000D01*
X59196613Y-68056921D01*
X59119562Y-68005438D01*
X59068079Y-67928387D01*
X59050000Y-67837500D01*
X59050000Y-67262500D01*
X59068079Y-67171613D01*
X59119562Y-67094562D01*
X59196613Y-67043079D01*
X59287500Y-67025000D01*
X59762500Y-67025000D01*
X59853387Y-67043079D01*
X59853387Y-67043079D01*
G37*
D14*
X59525000Y-67550000D03*
D13*
G36*
X56803387Y-56843078D02*
G01*
X56880438Y-56894561D01*
X56931921Y-56971612D01*
X56950000Y-57062499D01*
X56950000Y-57637499D01*
X56931921Y-57728386D01*
X56880438Y-57805437D01*
X56803387Y-57856920D01*
X56712500Y-57874999D01*
X56237500Y-57874999D01*
X56146613Y-57856920D01*
X56069562Y-57805437D01*
X56018079Y-57728386D01*
X56000000Y-57637499D01*
X56000000Y-57062499D01*
X56018079Y-56971612D01*
X56069562Y-56894561D01*
X56146613Y-56843078D01*
X56237500Y-56824999D01*
X56712500Y-56824999D01*
X56803387Y-56843078D01*
X56803387Y-56843078D01*
G37*
D14*
X56475000Y-57349999D03*
D13*
G36*
X56803387Y-58593078D02*
G01*
X56880438Y-58644561D01*
X56931921Y-58721612D01*
X56950000Y-58812499D01*
X56950000Y-59387499D01*
X56931921Y-59478386D01*
X56880438Y-59555437D01*
X56803387Y-59606920D01*
X56712500Y-59624999D01*
X56237500Y-59624999D01*
X56146613Y-59606920D01*
X56069562Y-59555437D01*
X56018079Y-59478386D01*
X56000000Y-59387499D01*
X56000000Y-58812499D01*
X56018079Y-58721612D01*
X56069562Y-58644561D01*
X56146613Y-58593078D01*
X56237500Y-58574999D01*
X56712500Y-58574999D01*
X56803387Y-58593078D01*
X56803387Y-58593078D01*
G37*
D14*
X56475000Y-59099999D03*
D18*
X76000000Y-100250000D03*
X77000000Y-100250000D03*
X78000000Y-100250000D03*
X79000000Y-100250000D03*
X80000000Y-100250000D03*
X80000000Y-80750000D03*
X79000000Y-80750000D03*
X78000000Y-80750000D03*
X77000000Y-80750000D03*
X76000000Y-80750000D03*
X108750000Y-92500000D03*
X108750000Y-91500000D03*
X108750000Y-90500000D03*
X108750000Y-89500000D03*
X108750000Y-88500000D03*
X52250000Y-88500000D03*
X52250000Y-89500000D03*
X52250000Y-90500000D03*
X52250000Y-91500000D03*
X52250000Y-92500000D03*
D19*
X56000000Y-93000000D03*
X56000000Y-88000000D03*
X105000000Y-88000000D03*
X105000000Y-93000000D03*
D20*
X72100000Y-89075000D03*
X72100000Y-91575000D03*
X65000000Y-89050000D03*
X65000000Y-91550000D03*
X68525000Y-82975000D03*
X68525000Y-85475000D03*
X97450000Y-89125000D03*
X95450000Y-89125000D03*
X97500000Y-83375000D03*
X95500000Y-83375000D03*
M02*
