%TF.GenerationSoftware,KiCad,Pcbnew,(5.1.0-1220-ga833aeeac)*%
%TF.CreationDate,2019-07-10T01:08:44+03:00*%
%TF.ProjectId,proto_II_panel,70726f74-6f5f-4494-995f-70616e656c2e,rev?*%
%TF.SameCoordinates,Original*%
%TF.FileFunction,Profile,NP*%
%FSLAX46Y46*%
G04 Gerber Fmt 4.6, Leading zero omitted, Abs format (unit mm)*
G04 Created by KiCad (PCBNEW (5.1.0-1220-ga833aeeac)) date 2019-07-10 01:08:44*
%MOMM*%
%LPD*%
G04 APERTURE LIST*
%ADD10C,0.100000*%
G04 APERTURE END LIST*
D10*
X94250000Y-63350000D02*
X94200000Y-53050000D01*
X85393736Y-55441587D02*
G75*
G02X86600000Y-53050000I1206264J891587D01*
G01*
X86600000Y-53050000D02*
X94200000Y-53050000D01*
X80750000Y-73850000D02*
X72700000Y-73850000D01*
X81785714Y-71264967D02*
G75*
G02X80750000Y-73850000I-1035714J-1085033D01*
G01*
X86249036Y-56352667D02*
G75*
G02X87249999Y-69999999I-2549036J-7047333D01*
G01*
X87249999Y-69999999D02*
X85500000Y-71250000D01*
X79991246Y-69915376D02*
X81785714Y-71264967D01*
X80799212Y-53050000D02*
G75*
G02X82000000Y-55450000I788J-1500000D01*
G01*
X72700000Y-53050000D02*
X72700000Y-73850000D01*
X80799212Y-53050000D02*
X72700000Y-53050000D01*
X81150001Y-56350001D02*
X82000000Y-55450000D01*
X85393736Y-55441587D02*
X86249036Y-56352667D01*
X86251768Y-73841158D02*
G75*
G02X85500001Y-71250001I298232J1491158D01*
G01*
X79991246Y-69915376D02*
G75*
G02X81150001Y-56350001I3708754J6515376D01*
G01*
X86251768Y-73841158D02*
X94200000Y-73850000D01*
X94250000Y-63350000D02*
X94200000Y-73850000D01*
X116000000Y-48350000D02*
X116000000Y-52300000D01*
X45000000Y-48350000D02*
X116000000Y-48350000D01*
X61850000Y-53050000D02*
X69450000Y-53050000D01*
X55241246Y-69915376D02*
G75*
G02X56400001Y-56350001I3708754J6515376D01*
G01*
X61499036Y-56352667D02*
G75*
G02X62499999Y-69999999I-2549036J-7047333D01*
G01*
X56400001Y-56350001D02*
X57250000Y-55450000D01*
X56049212Y-53050000D02*
G75*
G02X57250000Y-55450000I788J-1500000D01*
G01*
X60643736Y-55441587D02*
X61499036Y-56352667D01*
X60643736Y-55441587D02*
G75*
G02X61850000Y-53050000I1206264J891587D01*
G01*
X61501768Y-73841158D02*
X69450000Y-73850000D01*
X61501768Y-73841158D02*
G75*
G02X60750001Y-71250001I298232J1491158D01*
G01*
X57035714Y-71264967D02*
G75*
G02X56000000Y-73850000I-1035714J-1085033D01*
G01*
X62499999Y-69999999D02*
X60750000Y-71250000D01*
X55241246Y-69915376D02*
X57035714Y-71264967D01*
X56000000Y-73850000D02*
X47950000Y-73850000D01*
X69500000Y-63350000D02*
X69450000Y-73850000D01*
X47950000Y-53050000D02*
X47950000Y-73850000D01*
X56049212Y-53050000D02*
X47950000Y-53050000D01*
X69500000Y-63350000D02*
X69450000Y-53050000D01*
X116000000Y-52300000D02*
X116000000Y-73500000D01*
X45000000Y-73500000D02*
X45000000Y-48350000D01*
X116000000Y-107500000D02*
X45000000Y-107500000D01*
X116000000Y-104500000D02*
X116000000Y-107500000D01*
X116000000Y-73500000D02*
X116000000Y-104500000D01*
X45000000Y-76500000D02*
X45000000Y-73500000D01*
X45000000Y-104500000D02*
X45000000Y-76500000D01*
X48000000Y-104500000D02*
X48000000Y-94499999D01*
X74000000Y-104500000D02*
X48000000Y-104500000D01*
X113000000Y-104500000D02*
X81999999Y-104500000D01*
X113000000Y-94500001D02*
X113000000Y-104500000D01*
X113000000Y-76500000D02*
X113000000Y-86500001D01*
X82000000Y-76500000D02*
X113000000Y-76500000D01*
X48000000Y-76500000D02*
X74000001Y-76500000D01*
X48000000Y-86499999D02*
X48000000Y-76500000D01*
X82000001Y-100500000D02*
X106500000Y-100500000D01*
X81999999Y-104500000D02*
G75*
G02X82000001Y-100500000I1J2000000D01*
G01*
X74000001Y-100500000D02*
G75*
G02X73999999Y-104500000I-1J-2000000D01*
G01*
X74000001Y-76500000D02*
G75*
G02X73999999Y-80500000I-1J-2000000D01*
G01*
X81999999Y-80500000D02*
G75*
G02X82000001Y-76500000I1J2000000D01*
G01*
X113000000Y-86500001D02*
G75*
G02X109000000Y-86499999I-2000000J1D01*
G01*
X109000000Y-94499999D02*
G75*
G02X113000000Y-94500001I2000000J-1D01*
G01*
X48000000Y-94499999D02*
G75*
G02X52000000Y-94500001I2000000J-1D01*
G01*
X52000000Y-86500001D02*
G75*
G02X48000000Y-86499999I-2000000J1D01*
G01*
X45000000Y-107500000D02*
X45000000Y-104500000D01*
X109000000Y-98000000D02*
X109000000Y-94499999D01*
X109000000Y-83000000D02*
X109000000Y-86500000D01*
X82000000Y-80500000D02*
X106500000Y-80500000D01*
X54500000Y-80500000D02*
X73999999Y-80500000D01*
X52000000Y-86500001D02*
X52000000Y-83000000D01*
X52000000Y-98000000D02*
X52000000Y-94500000D01*
X52000000Y-83000000D02*
G75*
G02X54500000Y-80500000I2500000J0D01*
G01*
X54500000Y-100500000D02*
G75*
G02X52000000Y-98000000I0J2500000D01*
G01*
X109000000Y-98000000D02*
G75*
G02X106500000Y-100500000I-2500000J0D01*
G01*
X106500000Y-80500000D02*
G75*
G02X109000000Y-83000000I0J-2500000D01*
G01*
X74000001Y-100500000D02*
X54500000Y-100500000D01*
M02*
