%TF.GenerationSoftware,KiCad,Pcbnew,(5.1.0-1220-ga833aeeac)*%
%TF.CreationDate,2019-07-10T21:21:40+03:00*%
%TF.ProjectId,proto_II_buck_kicad,70726f74-6f5f-4494-995f-6275636b5f6b,rev?*%
%TF.SameCoordinates,Original*%
%TF.FileFunction,Legend,Bot*%
%TF.FilePolarity,Positive*%
%FSLAX46Y46*%
G04 Gerber Fmt 4.6, Leading zero omitted, Abs format (unit mm)*
G04 Created by KiCad (PCBNEW (5.1.0-1220-ga833aeeac)) date 2019-07-10 21:21:40*
%MOMM*%
%LPD*%
G04 APERTURE LIST*
%ADD10C,0.100000*%
%ADD11C,0.150000*%
%ADD12C,1.524000*%
%ADD13C,1.600000*%
G04 APERTURE END LIST*
D10*
X174655390Y-126809620D02*
X174637430Y-126676500D01*
X173616800Y-127291510D02*
X173646820Y-127291510D01*
X176006140Y-125019810D02*
X176062670Y-124951350D01*
X175963430Y-125098370D02*
X176006140Y-125019810D01*
X176805350Y-123798070D02*
X176792920Y-123798070D01*
X177028650Y-127286840D02*
X177029250Y-127266390D01*
X173050675Y-126659780D02*
X173050675Y-126695370D01*
X175049800Y-125551170D02*
X175181260Y-125666030D01*
X175972010Y-123798070D02*
X175934850Y-123788040D01*
X173225420Y-127116700D02*
X173313700Y-127189510D01*
X176792920Y-123543080D02*
X176805350Y-123543080D01*
X174141440Y-126776040D02*
X174132970Y-126713650D01*
X175895890Y-124872080D02*
X175878860Y-124892750D01*
X173062770Y-126815330D02*
X173097549Y-126927190D01*
X173564620Y-126190710D02*
X173666350Y-126159890D01*
X173470920Y-126240780D02*
X173564620Y-126190710D01*
X175759980Y-125165320D02*
X175750000Y-125250000D01*
X175984430Y-123798070D02*
X175972010Y-123798070D01*
X176854870Y-123553070D02*
X176895460Y-123580460D01*
X176950730Y-124971850D02*
X176909720Y-124905820D01*
X172247614Y-126606120D02*
X172247614Y-126647190D01*
X172424697Y-126606120D02*
X172424697Y-126534290D01*
X175703780Y-123552080D02*
X175679850Y-123640960D01*
X176893890Y-123961970D02*
X176916550Y-123955030D01*
X172452693Y-126318960D02*
X172535104Y-126046870D01*
X175808480Y-128352654D02*
X175877170Y-128352654D01*
X172247614Y-126525610D02*
X172247614Y-126606120D01*
X176775720Y-123366000D02*
X176686900Y-123389930D01*
X173738120Y-125972330D02*
X173631510Y-125986170D01*
X172977161Y-125242740D02*
X172784182Y-125391280D01*
X175584410Y-126232320D02*
X175650120Y-126396281D01*
X176326720Y-128270623D02*
X176537650Y-128168517D01*
X176588220Y-127902893D02*
X176554640Y-127936584D01*
X172424697Y-126606120D02*
X172424697Y-126606120D01*
X177029250Y-127266390D02*
X177029190Y-127262110D01*
X173996370Y-127146440D02*
X174056800Y-127073190D01*
X176952970Y-127649258D02*
X176990350Y-127531365D01*
X175866920Y-123620990D02*
X175894320Y-123580460D01*
X174566250Y-127283590D02*
X174580570Y-127250660D01*
X173746860Y-126149420D02*
X173773710Y-126149420D01*
X173666350Y-126159890D02*
X173746860Y-126149420D01*
X172424697Y-126534290D02*
X172452693Y-126318960D01*
X176993280Y-125067070D02*
X176950730Y-124971850D01*
X175984430Y-123366000D02*
X175954800Y-123366000D01*
X174655390Y-126909620D02*
X174655390Y-126854010D01*
X173097549Y-126927190D02*
X173152620Y-127028440D01*
X173748800Y-126383471D02*
X173728030Y-126383471D01*
X176932830Y-123682940D02*
X176922800Y-123720110D01*
X174141440Y-126821740D02*
X174141440Y-126796870D01*
X173465170Y-126501960D02*
X173405930Y-126598470D01*
X173481660Y-126485530D02*
X173465170Y-126501960D01*
X176223149Y-124660710D02*
X176096300Y-124709490D01*
X174284290Y-125007390D02*
X174086690Y-124978300D01*
X175834640Y-124960460D02*
X175788730Y-125058820D01*
X175894320Y-123760690D02*
X175866920Y-123720110D01*
X174062500Y-127817715D02*
X174266650Y-127683166D01*
X173829710Y-127903706D02*
X174062500Y-127817715D01*
X176677900Y-123670580D02*
X176677900Y-123658150D01*
X176482690Y-124825150D02*
X176569440Y-124852110D01*
X176412870Y-124815760D02*
X176482690Y-124825150D01*
X175934850Y-123788040D02*
X175894320Y-123760690D01*
X172057401Y-128235901D02*
X172052790Y-128263027D01*
X174427850Y-125225370D02*
X174595970Y-125285050D01*
X176111930Y-123658150D02*
X176111930Y-123670580D01*
X172480308Y-127356290D02*
X172575468Y-127478848D01*
X175954800Y-123366000D02*
X175865940Y-123389930D01*
X176432680Y-124638680D02*
X176389600Y-124638680D01*
X175877170Y-128352654D02*
X176083389Y-128332092D01*
X173498110Y-126469030D02*
X173481660Y-126485530D01*
X172762100Y-127419440D02*
X172621475Y-127249080D01*
X172932455Y-127560065D02*
X172762100Y-127419440D01*
X173372780Y-126093370D02*
X173287600Y-126158970D01*
X173684620Y-126851290D02*
X173676050Y-126851290D01*
X173710500Y-126858240D02*
X173684620Y-126851290D01*
X176980300Y-123919650D02*
X177048720Y-123853470D01*
X176389600Y-124638680D02*
X176347980Y-124638680D01*
X176630370Y-123919650D02*
X176694070Y-123955030D01*
X176072970Y-124722870D02*
X176072970Y-123961970D01*
X176834910Y-123366000D02*
X176805350Y-123366000D01*
X174632280Y-127076610D02*
X174655390Y-126909620D01*
X176677900Y-123658150D02*
X176687890Y-123620990D01*
X173728030Y-126383471D02*
X173694660Y-126383471D01*
X175894320Y-123580460D02*
X175934850Y-123553070D01*
X176272790Y-123768610D02*
X176289010Y-123695040D01*
X172669218Y-125796240D02*
X172801705Y-125624140D01*
X175865940Y-123389930D02*
X175769150Y-123455300D01*
X173614970Y-126602650D02*
X173662390Y-126573510D01*
X173606890Y-126610740D02*
X173614970Y-126602650D01*
X174131350Y-126896430D02*
X174141440Y-126821740D01*
X176047300Y-128158317D02*
X175868170Y-128175516D01*
X176257330Y-128107048D02*
X176047300Y-128158317D01*
X174396820Y-126230860D02*
X174266280Y-126123110D01*
X173368650Y-126328240D02*
X173387640Y-126309301D01*
X173319120Y-126392580D02*
X173368650Y-126328240D01*
X175984430Y-123543080D02*
X175996800Y-123543080D01*
X172804743Y-127686855D02*
X172090224Y-128191793D01*
X175181260Y-125666030D02*
X175301330Y-125792370D01*
X172052790Y-128263027D02*
X172054851Y-128284295D01*
X173406580Y-126290320D02*
X173470920Y-126240780D01*
X173387640Y-126309301D02*
X173406580Y-126290320D01*
X174116540Y-126041720D02*
X173951180Y-125990240D01*
X173746370Y-127281420D02*
X173839140Y-127252560D01*
X172956490Y-127796447D02*
X172957521Y-127795688D01*
X172420032Y-128175516D02*
X172956490Y-127796447D01*
X175972010Y-123543080D02*
X175984430Y-123543080D01*
X173711600Y-126560550D02*
X173728030Y-126560550D01*
X173662390Y-126573510D02*
X173711600Y-126560550D01*
X172535104Y-126046870D02*
X172669218Y-125796240D01*
X174655390Y-126854010D02*
X174655390Y-126809620D01*
X176347980Y-124638680D02*
X176223149Y-124660710D01*
X176675620Y-128066304D02*
X176715440Y-128026102D01*
X176792920Y-123798070D02*
X176755750Y-123788040D01*
X175856930Y-123682940D02*
X175856930Y-123670580D01*
X172521811Y-125698080D02*
X172371421Y-125979120D01*
X172371421Y-125979120D02*
X172279028Y-126284140D01*
X176817710Y-123798070D02*
X176805350Y-123798070D01*
X173556690Y-126743500D02*
X173556690Y-126731890D01*
X173566080Y-126778330D02*
X173556690Y-126743500D01*
X172059029Y-128297478D02*
X172069608Y-128316033D01*
X172903214Y-125522620D02*
X173075360Y-125390140D01*
X176159400Y-123919650D02*
X176227819Y-123853470D01*
X177024470Y-127344030D02*
X177028650Y-127286840D01*
X173773710Y-125972330D02*
X173738120Y-125972330D01*
X176074540Y-123760690D02*
X176033970Y-123788040D01*
X176095650Y-123955030D02*
X176159400Y-123919650D01*
X176686900Y-123389930D02*
X176590070Y-123455300D01*
X173379610Y-126760690D02*
X173402940Y-126847180D01*
X173379610Y-126731890D02*
X173379610Y-126760690D01*
X173964360Y-126773870D02*
X173964360Y-126796870D01*
X173945750Y-126704970D02*
X173964360Y-126773870D01*
X176932830Y-123670580D02*
X176932830Y-123682940D01*
X173050675Y-126725320D02*
X173062770Y-126815330D01*
X175696030Y-123768610D02*
X175741000Y-123853420D01*
X173269040Y-126486280D02*
X173319120Y-126392580D01*
X173238230Y-126588000D02*
X173269040Y-126486280D01*
X175750000Y-125278280D02*
X175750000Y-126169110D01*
X174108889Y-126636070D02*
X174070690Y-126565870D01*
X175927080Y-127000440D02*
X175927080Y-126993440D01*
X175922470Y-127021550D02*
X175927080Y-127000440D01*
X173818040Y-125972330D02*
X173773710Y-125972330D01*
X173326010Y-125256030D02*
X173598100Y-125173610D01*
X173466530Y-126941420D02*
X173560760Y-127005000D01*
X173402940Y-126847180D02*
X173466530Y-126941420D01*
X175866920Y-123720110D02*
X175856930Y-123682940D01*
X176687890Y-123720110D02*
X176677900Y-123682940D01*
X176842720Y-125185120D02*
X176852160Y-125254940D01*
X176815710Y-125098370D02*
X176842720Y-125185120D01*
X173496860Y-126026970D02*
X173372780Y-126093370D01*
X173935550Y-124968540D02*
X173885210Y-124968540D01*
X174504550Y-126361390D02*
X174396820Y-126230860D01*
X176072970Y-123961970D02*
X176095650Y-123955030D01*
X176561960Y-123853420D02*
X176630370Y-123919650D01*
X173638940Y-127933980D02*
X173829710Y-127903706D01*
X173575410Y-127933980D02*
X173638940Y-127933980D01*
X176537650Y-128168517D02*
X176675620Y-128066304D01*
X174132970Y-126713650D02*
X174108889Y-126636070D01*
X176500820Y-123670580D02*
X176500820Y-123695040D01*
X175747230Y-126882110D02*
X175748860Y-126927960D01*
X176847820Y-127327210D02*
X176837890Y-127397300D01*
X176851570Y-127280500D02*
X176847820Y-127327210D01*
X175809410Y-123919650D02*
X175873150Y-123955030D01*
X175174430Y-125426000D02*
X175013140Y-125307350D01*
X174271650Y-126356011D02*
X174357750Y-126460290D01*
X174167370Y-126269920D02*
X174271650Y-126356011D01*
X177029190Y-127262110D02*
X177029190Y-125278280D01*
X174907830Y-125448850D02*
X175049800Y-125551170D01*
X173738610Y-126877240D02*
X173710500Y-126858240D01*
X173757600Y-126905330D02*
X173738610Y-126877240D01*
X173050675Y-126695370D02*
X173050675Y-126725320D01*
X175679850Y-123670580D02*
X175679850Y-123695040D01*
X176289010Y-123640960D02*
X176265030Y-123552080D01*
X173287600Y-126158970D02*
X173262480Y-126184080D01*
X172852486Y-125573420D02*
X172903214Y-125522620D01*
X174580570Y-127250660D02*
X174632280Y-127076610D01*
X176852160Y-125278280D02*
X176852160Y-127262810D01*
X176852160Y-125254940D02*
X176852160Y-125278280D01*
X175996800Y-123543080D02*
X176033970Y-123553070D01*
X172141331Y-128352654D02*
X175808480Y-128352654D01*
X176014000Y-123366000D02*
X175984430Y-123366000D01*
X176227819Y-123853470D02*
X176272790Y-123768610D01*
X173257920Y-127895569D02*
X173413790Y-127924161D01*
X173108940Y-127849344D02*
X173257920Y-127895569D01*
X173964360Y-126827750D02*
X173939350Y-126920360D01*
X173964360Y-126796870D02*
X173964360Y-126827750D01*
X172070096Y-128211487D02*
X172057401Y-128235901D01*
X176755750Y-123553070D02*
X176792920Y-123543080D01*
X176817710Y-123543080D02*
X176854870Y-123553070D01*
X176743650Y-127997565D02*
X176819230Y-127902730D01*
X176074540Y-123580460D02*
X176101890Y-123620990D01*
X177085940Y-123552080D02*
X177020620Y-123455300D01*
X176716800Y-124728960D02*
X176692820Y-124714640D01*
X175370330Y-125605900D02*
X175325140Y-125561260D01*
X176033970Y-123788040D02*
X175996800Y-123798070D01*
X177048720Y-123853470D02*
X177093690Y-123768610D01*
X176916550Y-123955030D02*
X176980300Y-123919650D01*
X173885260Y-125145620D02*
X173931800Y-125145620D01*
X176111930Y-123682940D02*
X176101890Y-123720110D01*
X175936470Y-125185120D02*
X175963430Y-125098370D01*
X175927080Y-125254940D02*
X175936470Y-125185120D01*
X176694070Y-123955030D02*
X176716800Y-123961970D01*
X173598750Y-126618820D02*
X173606890Y-126610740D01*
X173569610Y-126666290D02*
X173598750Y-126618820D01*
X172399796Y-127222930D02*
X172480308Y-127356290D01*
X173171710Y-126294440D02*
X173105310Y-126418510D01*
X172279028Y-126284140D02*
X172247614Y-126525610D01*
X175873150Y-123955030D02*
X175895890Y-123961970D01*
X173313700Y-127189510D02*
X173414930Y-127244580D01*
X176740290Y-127691955D02*
X176674970Y-127799702D01*
X176787170Y-127585238D02*
X176740290Y-127691955D01*
X175700040Y-126567500D02*
X175733230Y-126744960D01*
X173923120Y-127206870D02*
X173996370Y-127146440D01*
X176922800Y-123620990D02*
X176932830Y-123658150D01*
X174756230Y-125359820D02*
X174907830Y-125448850D01*
X174422800Y-126579970D02*
X174463930Y-126712140D01*
X174357750Y-126460290D02*
X174422800Y-126579970D01*
X173951180Y-125990240D02*
X173818040Y-125972330D01*
X176805350Y-123543080D02*
X176817710Y-123543080D01*
X174056800Y-127073190D02*
X174102480Y-126989210D01*
X173646820Y-127291510D02*
X173671660Y-127291510D01*
X175856930Y-123658150D02*
X175866920Y-123620990D01*
X172257705Y-126770400D02*
X172287219Y-126928820D01*
X176033970Y-123553070D02*
X176074540Y-123580460D01*
X176648000Y-124894810D02*
X176716470Y-124951350D01*
X176569440Y-124852110D02*
X176648000Y-124894810D01*
X173839140Y-127252560D02*
X173923120Y-127206870D01*
X174407230Y-127205080D02*
X174323900Y-127358460D01*
X174459920Y-127035700D02*
X174407230Y-127205080D01*
X173350590Y-126991540D02*
X173299370Y-126929470D01*
X173412650Y-127042760D02*
X173350590Y-126991540D01*
X175895890Y-123961970D02*
X175895890Y-124872080D01*
X173677620Y-127114430D02*
X173646820Y-127114430D01*
X173770230Y-127089420D02*
X173677620Y-127114430D01*
X176687890Y-123620990D02*
X176715220Y-123580460D01*
X177019970Y-125169710D02*
X176993280Y-125067070D01*
X174637430Y-126676500D02*
X174585940Y-126511120D01*
X173895030Y-126629830D02*
X173945750Y-126704970D01*
X173819870Y-126579110D02*
X173895030Y-126629830D01*
X176852160Y-127267200D02*
X176851570Y-127280500D01*
X176852160Y-127262810D02*
X176852160Y-127267200D01*
X173127930Y-127666294D02*
X172932455Y-127560065D01*
X173343750Y-127733459D02*
X173127930Y-127666294D01*
X176818690Y-127485195D02*
X176787170Y-127585238D01*
X176837890Y-127397300D02*
X176818690Y-127485195D01*
X172424697Y-126664010D02*
X172424697Y-126606120D01*
X172448080Y-126837740D02*
X172424697Y-126664010D01*
X176516980Y-123768610D02*
X176561960Y-123853420D01*
X175870780Y-127076230D02*
X175889650Y-127065710D01*
X175864040Y-127078240D02*
X175870780Y-127076230D01*
X174435980Y-127506951D02*
X174445910Y-127504672D01*
X174435010Y-127507113D02*
X174435980Y-127506951D01*
X175013140Y-125307350D02*
X174842350Y-125205740D01*
X172089031Y-128335510D02*
X172113499Y-128348151D01*
X174663250Y-125121530D02*
X174476830Y-125055290D01*
X172287219Y-126928820D02*
X172335016Y-127080030D01*
X176437890Y-128021816D02*
X176257330Y-128107048D01*
X176554640Y-127936584D02*
X176437890Y-128021816D01*
X175650120Y-126396281D02*
X175700040Y-126567500D01*
X173260690Y-126858290D02*
X173236270Y-126779680D01*
X173299370Y-126929470D02*
X173260690Y-126858290D01*
X176895460Y-123760690D02*
X176854870Y-123788040D01*
X176893890Y-124885530D02*
X176893890Y-123961970D01*
X175409120Y-125929470D02*
X175503800Y-126076440D01*
X173591690Y-126816250D02*
X173566080Y-126778330D01*
X173629610Y-126841860D02*
X173591690Y-126816250D01*
X175856930Y-123670580D02*
X175856930Y-123658150D01*
X175769150Y-123455300D02*
X175703780Y-123552080D01*
X173647190Y-127028380D02*
X173676050Y-127028380D01*
X173560760Y-127005000D02*
X173647190Y-127028380D01*
X174478300Y-126899420D02*
X174459920Y-127035700D01*
X174478300Y-126854010D02*
X174478300Y-126899420D01*
X175503800Y-126076440D02*
X175584410Y-126232320D01*
X173064510Y-126553180D02*
X173050675Y-126659780D01*
X173379610Y-126698510D02*
X173379610Y-126731890D01*
X173405930Y-126598470D02*
X173379610Y-126698510D01*
X174476830Y-125055290D02*
X174284290Y-125007390D01*
X176755750Y-123788040D02*
X176715220Y-123760690D01*
X172090224Y-128191793D02*
X172084528Y-128195752D01*
X176083389Y-128332092D02*
X176326720Y-128270623D01*
X173594620Y-126409780D02*
X173498110Y-126469030D01*
X174446940Y-127504401D02*
X175864040Y-127078240D01*
X174445910Y-127504672D02*
X174446940Y-127504401D01*
X172670357Y-125505110D02*
X172521811Y-125698080D01*
X174071570Y-125154740D02*
X174252760Y-125181650D01*
X174398330Y-127555237D02*
X174435010Y-127507113D01*
X174266650Y-127683166D02*
X174398330Y-127555237D01*
X176805350Y-123366000D02*
X176775720Y-123366000D01*
X177029250Y-125251100D02*
X177019970Y-125169710D01*
X176101890Y-123720110D02*
X176074540Y-123760690D01*
X173671660Y-127291510D02*
X173746370Y-127281420D01*
X173625710Y-127114430D02*
X173562440Y-127105860D01*
X173646820Y-127114430D02*
X173625710Y-127114430D01*
X176715220Y-123760690D02*
X176687890Y-123720110D01*
X172684029Y-127589416D02*
X172773222Y-127664340D01*
X173262480Y-126184080D02*
X173237310Y-126209210D01*
X174070690Y-126565870D02*
X174020180Y-126504670D01*
X173227760Y-126716430D02*
X173227760Y-126695370D01*
X173236270Y-126779680D02*
X173227760Y-126716430D01*
X176677900Y-123682940D02*
X176677900Y-123670580D01*
X176289010Y-123670580D02*
X176289010Y-123640960D01*
X173075360Y-125390140D02*
X173326010Y-125256030D01*
X176500820Y-123640960D02*
X176500820Y-123670580D01*
X175934850Y-123553070D02*
X175972010Y-123543080D01*
X176990350Y-127531365D02*
X177012920Y-127427633D01*
X176715220Y-123580460D02*
X176755750Y-123553070D01*
X173002172Y-127804259D02*
X173108940Y-127849344D01*
X172967991Y-127786627D02*
X173002172Y-127804259D01*
X176922800Y-123720110D02*
X176895460Y-123760690D01*
X173237310Y-126209210D02*
X173171710Y-126294440D01*
X172784182Y-125391280D02*
X172727269Y-125448190D01*
X175927080Y-125278280D02*
X175927080Y-125254940D01*
X175927080Y-126993440D02*
X175927080Y-125278280D01*
X174585940Y-126511120D02*
X174504550Y-126361390D01*
X172773222Y-127664340D02*
X172804743Y-127686855D01*
X173517470Y-127756897D02*
X173343750Y-127733459D01*
X173575410Y-127756897D02*
X173517470Y-127756897D01*
X173556690Y-126715440D02*
X173569610Y-126666290D01*
X173556690Y-126731890D02*
X173556690Y-126715440D01*
X175750000Y-126169110D02*
X175724670Y-126113240D01*
X176909720Y-124905820D02*
X176893890Y-124885530D01*
X175325140Y-125561260D02*
X175289180Y-125525720D01*
X176923780Y-123389930D02*
X176834910Y-123366000D01*
X175289180Y-125525720D02*
X175174430Y-125426000D01*
X173105310Y-126418510D02*
X173064510Y-126553180D01*
X175567390Y-125848320D02*
X175370330Y-125605900D01*
X177029250Y-125278280D02*
X177029250Y-125278280D01*
X172967069Y-127787495D02*
X172967991Y-127786627D01*
X172957521Y-127795688D02*
X172967069Y-127787495D01*
X172056967Y-128290913D02*
X172059029Y-128297478D01*
X172247614Y-126647190D02*
X172257705Y-126770400D01*
X176111930Y-123670580D02*
X176111930Y-123682940D01*
X172575468Y-127478848D02*
X172684029Y-127589416D01*
X173620820Y-127756897D02*
X173575410Y-127756897D01*
X173757110Y-127738505D02*
X173620820Y-127756897D01*
X173535000Y-127933980D02*
X173575410Y-127933980D01*
X173413790Y-127924161D02*
X173535000Y-127933980D01*
X175996800Y-123798070D02*
X175984430Y-123798070D01*
X176773000Y-125019810D02*
X176815710Y-125098370D01*
X176716470Y-124951350D02*
X176773000Y-125019810D01*
X174213540Y-127492140D02*
X174079860Y-127602437D01*
X174323900Y-127358460D02*
X174213540Y-127492140D01*
X174102480Y-126989210D02*
X174131350Y-126896430D01*
X173804690Y-124968540D02*
X173563210Y-124999960D01*
X176854870Y-123788040D02*
X176817710Y-123798070D01*
X173764600Y-126931210D02*
X173757600Y-126905330D01*
X173764600Y-126939830D02*
X173764600Y-126931210D01*
X174141440Y-126796870D02*
X174141440Y-126776040D01*
X173414930Y-127244580D02*
X173526800Y-127279360D01*
X175748860Y-126927960D02*
X174566250Y-127283590D01*
X173258190Y-125092350D02*
X172977161Y-125242740D01*
X177109920Y-123670580D02*
X177109920Y-123640960D01*
X177109920Y-123640960D02*
X177085940Y-123552080D01*
X173227760Y-126668510D02*
X173238230Y-126588000D01*
X173227760Y-126695370D02*
X173227760Y-126668510D01*
X175679850Y-123695040D02*
X175696030Y-123768610D01*
X173750980Y-126560550D02*
X173819870Y-126579110D01*
X173728030Y-126560550D02*
X173750980Y-126560550D01*
X174252760Y-125181650D02*
X174427850Y-125225370D01*
X174478300Y-126818530D02*
X174478300Y-126854010D01*
X174463930Y-126712140D02*
X174478300Y-126818530D01*
X176590070Y-123455300D02*
X176524730Y-123552080D01*
X176500820Y-123695040D02*
X176516980Y-123768610D01*
X175679850Y-123640960D02*
X175679850Y-123670580D01*
X177029190Y-125278280D02*
X177029250Y-125278280D01*
X173664440Y-126851290D02*
X173629610Y-126841860D01*
X173676050Y-126851290D02*
X173664440Y-126851290D01*
X173684620Y-127028380D02*
X173710500Y-127021380D01*
X173676050Y-127028380D02*
X173684620Y-127028380D01*
X172054851Y-128284295D02*
X172056967Y-128290913D01*
X175733230Y-126744960D02*
X175747230Y-126882110D01*
X173526800Y-127279360D02*
X173616800Y-127291510D01*
X173738610Y-127002390D02*
X173757600Y-126974290D01*
X173710500Y-127021380D02*
X173738610Y-127002390D01*
X176296440Y-124825150D02*
X176366260Y-124815760D01*
X176209690Y-124852110D02*
X176296440Y-124825150D01*
X174047690Y-126204860D02*
X174167370Y-126269920D01*
X173915530Y-126163750D02*
X174047690Y-126204860D01*
X177109920Y-123695040D02*
X177109920Y-123670580D01*
X176096300Y-124709490D02*
X176072970Y-124722870D01*
X172515247Y-127053610D02*
X172448080Y-126837740D01*
X172621475Y-127249080D02*
X172515247Y-127053610D01*
X173764600Y-126948420D02*
X173764600Y-126939830D01*
X173757600Y-126974290D02*
X173764600Y-126948420D01*
X173631510Y-125986170D02*
X173496860Y-126026970D01*
X173809140Y-126149420D02*
X173915530Y-126163750D01*
X173773710Y-126149420D02*
X173809140Y-126149420D01*
X175808480Y-128175516D02*
X172420032Y-128175516D01*
X175868170Y-128175516D02*
X175808480Y-128175516D01*
X173958980Y-126454170D02*
X173888780Y-126415970D01*
X176611870Y-127879076D02*
X176588220Y-127902893D01*
X176674970Y-127799702D02*
X176611870Y-127879076D01*
X173813430Y-125145620D02*
X173885260Y-125145620D01*
X174595970Y-125285050D02*
X174756230Y-125359820D01*
X174842350Y-125205740D02*
X174663250Y-125121530D01*
X176389600Y-124815760D02*
X176412870Y-124815760D01*
X176366260Y-124815760D02*
X176389600Y-124815760D01*
X177012920Y-127427633D02*
X177024470Y-127344030D01*
X175301330Y-125792370D02*
X175409120Y-125929470D01*
X176131140Y-124894810D02*
X176209690Y-124852110D01*
X176062670Y-124951350D02*
X176131140Y-124894810D01*
X174086690Y-124978300D02*
X173935550Y-124968540D01*
X175909570Y-127046230D02*
X175922470Y-127021550D01*
X175889650Y-127065710D02*
X175909570Y-127046230D01*
X175724670Y-126113240D02*
X175567390Y-125848320D01*
X173871210Y-127021330D02*
X173770230Y-127089420D01*
X173939350Y-126920360D02*
X173871210Y-127021330D01*
X177020620Y-123455300D02*
X176923780Y-123389930D01*
X176897190Y-127775072D02*
X176952970Y-127649258D01*
X176588220Y-127902893D02*
X176588220Y-127902893D01*
X172801705Y-125624140D02*
X172852486Y-125573420D01*
X176677900Y-123670580D02*
X176677900Y-123670580D01*
X176289010Y-123695040D02*
X176289010Y-123670580D01*
X176265030Y-123552080D02*
X176199709Y-123455300D01*
X176524730Y-123552080D02*
X176500820Y-123640960D01*
X172134332Y-128352654D02*
X172141331Y-128352654D01*
X176101890Y-123620990D02*
X176111930Y-123658150D01*
X173483830Y-127081440D02*
X173412650Y-127042760D01*
X173562440Y-127105860D02*
X173483830Y-127081440D01*
X175856930Y-123670580D02*
X175856930Y-123670580D01*
X176102860Y-123389930D02*
X176014000Y-123366000D01*
X176692820Y-124714640D02*
X176562070Y-124662330D01*
X176716800Y-123961970D02*
X176716800Y-124728960D01*
X172113499Y-128348151D02*
X172134332Y-128352654D01*
X176932830Y-123658150D02*
X176932830Y-123670580D01*
X176562070Y-124662330D02*
X176432680Y-124638680D01*
X176895460Y-123580460D02*
X176922800Y-123620990D01*
X173598100Y-125173610D02*
X173813430Y-125145620D01*
X173694660Y-126383471D02*
X173594620Y-126409780D01*
X172727269Y-125448190D02*
X172670357Y-125505110D01*
X173885210Y-124968540D02*
X173804690Y-124968540D01*
X173888780Y-126415970D02*
X173811190Y-126391871D01*
X173152620Y-127028440D02*
X173225420Y-127116700D01*
X174266280Y-126123110D02*
X174116540Y-126041720D01*
X174020180Y-126504670D02*
X173958980Y-126454170D01*
X172084528Y-128195752D02*
X172070096Y-128211487D01*
X173926480Y-127685824D02*
X173757110Y-127738505D01*
X174079860Y-127602437D02*
X173926480Y-127685824D01*
X173931800Y-125145620D02*
X174071570Y-125154740D01*
X176199709Y-123455300D02*
X176102860Y-123389930D01*
X177093690Y-123768610D02*
X177109920Y-123695040D01*
X176715440Y-128026102D02*
X176743650Y-127997565D01*
X172069608Y-128316033D02*
X172089031Y-128335510D01*
X172335016Y-127080030D02*
X172399796Y-127222930D01*
X175788730Y-125058820D02*
X175759980Y-125165320D01*
X175741000Y-123853420D02*
X175809410Y-123919650D01*
X175878860Y-124892750D02*
X175834640Y-124960460D01*
X173563210Y-124999960D02*
X173258190Y-125092350D01*
X177029250Y-125278280D02*
X177029250Y-125251100D01*
X176819230Y-127902730D02*
X176897190Y-127775072D01*
X173811190Y-126391871D02*
X173748800Y-126383471D01*
X175750000Y-125250000D02*
X175750000Y-125278280D01*
D11*
X194952380Y-120976190D02*
X195952380Y-121309523D01*
X194952380Y-121642857D01*
X195952380Y-122119047D02*
X195904761Y-122023809D01*
X195857142Y-121976190D01*
X195761904Y-121928571D01*
X195476190Y-121928571D01*
X195380952Y-121976190D01*
X195333333Y-122023809D01*
X195285714Y-122119047D01*
X195285714Y-122261904D01*
X195333333Y-122357142D01*
X195380952Y-122404761D01*
X195476190Y-122452380D01*
X195761904Y-122452380D01*
X195857142Y-122404761D01*
X195904761Y-122357142D01*
X195952380Y-122261904D01*
X195952380Y-122119047D01*
X195285714Y-123309523D02*
X195952380Y-123309523D01*
X195285714Y-122880952D02*
X195809523Y-122880952D01*
X195904761Y-122928571D01*
X195952380Y-123023809D01*
X195952380Y-123166666D01*
X195904761Y-123261904D01*
X195857142Y-123309523D01*
X195285714Y-123642857D02*
X195285714Y-124023809D01*
X194952380Y-123785714D02*
X195809523Y-123785714D01*
X195904761Y-123833333D01*
X195952380Y-123928571D01*
X195952380Y-124023809D01*
X195000000Y-116738095D02*
X194952380Y-116642857D01*
X194952380Y-116500000D01*
X195000000Y-116357142D01*
X195095238Y-116261904D01*
X195190476Y-116214285D01*
X195380952Y-116166666D01*
X195523809Y-116166666D01*
X195714285Y-116214285D01*
X195809523Y-116261904D01*
X195904761Y-116357142D01*
X195952380Y-116500000D01*
X195952380Y-116595238D01*
X195904761Y-116738095D01*
X195857142Y-116785714D01*
X195523809Y-116785714D01*
X195523809Y-116595238D01*
X195952380Y-117214285D02*
X194952380Y-117214285D01*
X195952380Y-117785714D01*
X194952380Y-117785714D01*
X195952380Y-118261904D02*
X194952380Y-118261904D01*
X194952380Y-118500000D01*
X195000000Y-118642857D01*
X195095238Y-118738095D01*
X195190476Y-118785714D01*
X195380952Y-118833333D01*
X195523809Y-118833333D01*
X195714285Y-118785714D01*
X195809523Y-118738095D01*
X195904761Y-118642857D01*
X195952380Y-118500000D01*
X195952380Y-118261904D01*
X145797619Y-123559523D02*
X145797619Y-124130952D01*
X145797619Y-123845238D02*
X146797619Y-123845238D01*
X146654761Y-123940476D01*
X146559523Y-124035714D01*
X146511904Y-124130952D01*
X146702380Y-123178571D02*
X146750000Y-123130952D01*
X146797619Y-123035714D01*
X146797619Y-122797619D01*
X146750000Y-122702380D01*
X146702380Y-122654761D01*
X146607142Y-122607142D01*
X146511904Y-122607142D01*
X146369047Y-122654761D01*
X145797619Y-123226190D01*
X145797619Y-122607142D01*
X146178571Y-122321428D02*
X146226190Y-122273809D01*
X146273809Y-122178571D01*
X146178571Y-121988095D01*
X146226190Y-121892857D01*
X146273809Y-121845238D01*
X146702380Y-121511904D02*
X146750000Y-121464285D01*
X146797619Y-121369047D01*
X146797619Y-121130952D01*
X146750000Y-121035714D01*
X146702380Y-120988095D01*
X146607142Y-120940476D01*
X146511904Y-120940476D01*
X146369047Y-120988095D01*
X145797619Y-121559523D01*
X145797619Y-120940476D01*
X146464285Y-120083333D02*
X145797619Y-120083333D01*
X146845238Y-120321428D02*
X146130952Y-120559523D01*
X146130952Y-119940476D01*
X146797619Y-118940476D02*
X145797619Y-118607142D01*
X146797619Y-118273809D01*
X145797619Y-117940476D02*
X146797619Y-117940476D01*
X146797619Y-117702380D01*
X146750000Y-117559523D01*
X146654761Y-117464285D01*
X146559523Y-117416666D01*
X146369047Y-117369047D01*
X146226190Y-117369047D01*
X146035714Y-117416666D01*
X145940476Y-117464285D01*
X145845238Y-117559523D01*
X145797619Y-117702380D01*
X145797619Y-117940476D01*
X145892857Y-116369047D02*
X145845238Y-116416666D01*
X145797619Y-116559523D01*
X145797619Y-116654761D01*
X145845238Y-116797619D01*
X145940476Y-116892857D01*
X146035714Y-116940476D01*
X146226190Y-116988095D01*
X146369047Y-116988095D01*
X146559523Y-116940476D01*
X146654761Y-116892857D01*
X146750000Y-116797619D01*
X146797619Y-116654761D01*
X146797619Y-116559523D01*
X146750000Y-116416666D01*
X146702380Y-116369047D01*
X142297619Y-123523809D02*
X141297619Y-123190476D01*
X142297619Y-122857142D01*
X141297619Y-122523809D02*
X141964285Y-122523809D01*
X142297619Y-122523809D02*
X142250000Y-122571428D01*
X142202380Y-122523809D01*
X142250000Y-122476190D01*
X142297619Y-122523809D01*
X142202380Y-122523809D01*
X141964285Y-122047619D02*
X141297619Y-122047619D01*
X141869047Y-122047619D02*
X141916666Y-122000000D01*
X141964285Y-121904761D01*
X141964285Y-121761904D01*
X141916666Y-121666666D01*
X141821428Y-121619047D01*
X141297619Y-121619047D01*
X142250000Y-118261904D02*
X142297619Y-118357142D01*
X142297619Y-118500000D01*
X142250000Y-118642857D01*
X142154761Y-118738095D01*
X142059523Y-118785714D01*
X141869047Y-118833333D01*
X141726190Y-118833333D01*
X141535714Y-118785714D01*
X141440476Y-118738095D01*
X141345238Y-118642857D01*
X141297619Y-118500000D01*
X141297619Y-118404761D01*
X141345238Y-118261904D01*
X141392857Y-118214285D01*
X141726190Y-118214285D01*
X141726190Y-118404761D01*
X141297619Y-117785714D02*
X142297619Y-117785714D01*
X141297619Y-117214285D01*
X142297619Y-117214285D01*
X141297619Y-116738095D02*
X142297619Y-116738095D01*
X142297619Y-116500000D01*
X142250000Y-116357142D01*
X142154761Y-116261904D01*
X142059523Y-116214285D01*
X141869047Y-116166666D01*
X141726190Y-116166666D01*
X141535714Y-116214285D01*
X141440476Y-116261904D01*
X141345238Y-116357142D01*
X141297619Y-116500000D01*
X141297619Y-116738095D01*
X163035714Y-123460714D02*
X162654761Y-123460714D01*
X162892857Y-124127380D02*
X162892857Y-123270238D01*
X162845238Y-123175000D01*
X162750000Y-123127380D01*
X162654761Y-123127380D01*
X162178571Y-124127380D02*
X162273809Y-124079761D01*
X162321428Y-124032142D01*
X162369047Y-123936904D01*
X162369047Y-123651190D01*
X162321428Y-123555952D01*
X162273809Y-123508333D01*
X162178571Y-123460714D01*
X162035714Y-123460714D01*
X161940476Y-123508333D01*
X161892857Y-123555952D01*
X161845238Y-123651190D01*
X161845238Y-123936904D01*
X161892857Y-124032142D01*
X161940476Y-124079761D01*
X162035714Y-124127380D01*
X162178571Y-124127380D01*
X161416666Y-124127380D02*
X161416666Y-123460714D01*
X161416666Y-123651190D02*
X161369047Y-123555952D01*
X161321428Y-123508333D01*
X161226190Y-123460714D01*
X161130952Y-123460714D01*
X160369047Y-123460714D02*
X160369047Y-124270238D01*
X160416666Y-124365476D01*
X160464285Y-124413095D01*
X160559523Y-124460714D01*
X160702380Y-124460714D01*
X160797619Y-124413095D01*
X160369047Y-124079761D02*
X160464285Y-124127380D01*
X160654761Y-124127380D01*
X160750000Y-124079761D01*
X160797619Y-124032142D01*
X160845238Y-123936904D01*
X160845238Y-123651190D01*
X160797619Y-123555952D01*
X160750000Y-123508333D01*
X160654761Y-123460714D01*
X160464285Y-123460714D01*
X160369047Y-123508333D01*
X159464285Y-123460714D02*
X159464285Y-124270238D01*
X159511904Y-124365476D01*
X159559523Y-124413095D01*
X159654761Y-124460714D01*
X159797619Y-124460714D01*
X159892857Y-124413095D01*
X159464285Y-124079761D02*
X159559523Y-124127380D01*
X159750000Y-124127380D01*
X159845238Y-124079761D01*
X159892857Y-124032142D01*
X159940476Y-123936904D01*
X159940476Y-123651190D01*
X159892857Y-123555952D01*
X159845238Y-123508333D01*
X159750000Y-123460714D01*
X159559523Y-123460714D01*
X159464285Y-123508333D01*
X158607142Y-124079761D02*
X158702380Y-124127380D01*
X158892857Y-124127380D01*
X158988095Y-124079761D01*
X159035714Y-123984523D01*
X159035714Y-123603571D01*
X158988095Y-123508333D01*
X158892857Y-123460714D01*
X158702380Y-123460714D01*
X158607142Y-123508333D01*
X158559523Y-123603571D01*
X158559523Y-123698809D01*
X159035714Y-123794047D01*
X157511904Y-123651190D02*
X157559523Y-123603571D01*
X157654761Y-123555952D01*
X157750000Y-123555952D01*
X157845238Y-123603571D01*
X157892857Y-123651190D01*
X157940476Y-123746428D01*
X157940476Y-123841666D01*
X157892857Y-123936904D01*
X157845238Y-123984523D01*
X157750000Y-124032142D01*
X157654761Y-124032142D01*
X157559523Y-123984523D01*
X157511904Y-123936904D01*
X157511904Y-123555952D02*
X157511904Y-123936904D01*
X157464285Y-123984523D01*
X157416666Y-123984523D01*
X157321428Y-123936904D01*
X157273809Y-123841666D01*
X157273809Y-123603571D01*
X157369047Y-123460714D01*
X157511904Y-123365476D01*
X157702380Y-123317857D01*
X157892857Y-123365476D01*
X158035714Y-123460714D01*
X158130952Y-123603571D01*
X158178571Y-123794047D01*
X158130952Y-123984523D01*
X158035714Y-124127380D01*
X157892857Y-124222619D01*
X157702380Y-124270238D01*
X157511904Y-124222619D01*
X157369047Y-124127380D01*
X156416666Y-123460714D02*
X156416666Y-124270238D01*
X156464285Y-124365476D01*
X156511904Y-124413095D01*
X156607142Y-124460714D01*
X156750000Y-124460714D01*
X156845238Y-124413095D01*
X156416666Y-124079761D02*
X156511904Y-124127380D01*
X156702380Y-124127380D01*
X156797619Y-124079761D01*
X156845238Y-124032142D01*
X156892857Y-123936904D01*
X156892857Y-123651190D01*
X156845238Y-123555952D01*
X156797619Y-123508333D01*
X156702380Y-123460714D01*
X156511904Y-123460714D01*
X156416666Y-123508333D01*
X155940476Y-124127380D02*
X155940476Y-123460714D01*
X155940476Y-123555952D02*
X155892857Y-123508333D01*
X155797619Y-123460714D01*
X155654761Y-123460714D01*
X155559523Y-123508333D01*
X155511904Y-123603571D01*
X155511904Y-124127380D01*
X155511904Y-123603571D02*
X155464285Y-123508333D01*
X155369047Y-123460714D01*
X155226190Y-123460714D01*
X155130952Y-123508333D01*
X155083333Y-123603571D01*
X155083333Y-124127380D01*
X154178571Y-124127380D02*
X154178571Y-123603571D01*
X154226190Y-123508333D01*
X154321428Y-123460714D01*
X154511904Y-123460714D01*
X154607142Y-123508333D01*
X154178571Y-124079761D02*
X154273809Y-124127380D01*
X154511904Y-124127380D01*
X154607142Y-124079761D01*
X154654761Y-123984523D01*
X154654761Y-123889285D01*
X154607142Y-123794047D01*
X154511904Y-123746428D01*
X154273809Y-123746428D01*
X154178571Y-123698809D01*
X153702380Y-124127380D02*
X153702380Y-123460714D01*
X153702380Y-123127380D02*
X153750000Y-123175000D01*
X153702380Y-123222619D01*
X153654761Y-123175000D01*
X153702380Y-123127380D01*
X153702380Y-123222619D01*
X153083333Y-124127380D02*
X153178571Y-124079761D01*
X153226190Y-123984523D01*
X153226190Y-123127380D01*
X152702380Y-124032142D02*
X152654761Y-124079761D01*
X152702380Y-124127380D01*
X152750000Y-124079761D01*
X152702380Y-124032142D01*
X152702380Y-124127380D01*
X151797619Y-124079761D02*
X151892857Y-124127380D01*
X152083333Y-124127380D01*
X152178571Y-124079761D01*
X152226190Y-124032142D01*
X152273809Y-123936904D01*
X152273809Y-123651190D01*
X152226190Y-123555952D01*
X152178571Y-123508333D01*
X152083333Y-123460714D01*
X151892857Y-123460714D01*
X151797619Y-123508333D01*
X151226190Y-124127380D02*
X151321428Y-124079761D01*
X151369047Y-124032142D01*
X151416666Y-123936904D01*
X151416666Y-123651190D01*
X151369047Y-123555952D01*
X151321428Y-123508333D01*
X151226190Y-123460714D01*
X151083333Y-123460714D01*
X150988095Y-123508333D01*
X150940476Y-123555952D01*
X150892857Y-123651190D01*
X150892857Y-123936904D01*
X150940476Y-124032142D01*
X150988095Y-124079761D01*
X151083333Y-124127380D01*
X151226190Y-124127380D01*
X150464285Y-124127380D02*
X150464285Y-123460714D01*
X150464285Y-123555952D02*
X150416666Y-123508333D01*
X150321428Y-123460714D01*
X150178571Y-123460714D01*
X150083333Y-123508333D01*
X150035714Y-123603571D01*
X150035714Y-124127380D01*
X150035714Y-123603571D02*
X149988095Y-123508333D01*
X149892857Y-123460714D01*
X149750000Y-123460714D01*
X149654761Y-123508333D01*
X149607142Y-123603571D01*
X149607142Y-124127380D01*
X160035714Y-125777380D02*
X160035714Y-124777380D01*
X159702380Y-125491666D01*
X159369047Y-124777380D01*
X159369047Y-125777380D01*
X158464285Y-125777380D02*
X158464285Y-125253571D01*
X158511904Y-125158333D01*
X158607142Y-125110714D01*
X158797619Y-125110714D01*
X158892857Y-125158333D01*
X158464285Y-125729761D02*
X158559523Y-125777380D01*
X158797619Y-125777380D01*
X158892857Y-125729761D01*
X158940476Y-125634523D01*
X158940476Y-125539285D01*
X158892857Y-125444047D01*
X158797619Y-125396428D01*
X158559523Y-125396428D01*
X158464285Y-125348809D01*
X158083333Y-125777380D02*
X157559523Y-125110714D01*
X158083333Y-125110714D02*
X157559523Y-125777380D01*
X156416666Y-125777380D02*
X156416666Y-124777380D01*
X156035714Y-124777380D01*
X155940476Y-124825000D01*
X155892857Y-124872619D01*
X155845238Y-124967857D01*
X155845238Y-125110714D01*
X155892857Y-125205952D01*
X155940476Y-125253571D01*
X156035714Y-125301190D01*
X156416666Y-125301190D01*
X154988095Y-125777380D02*
X154988095Y-125253571D01*
X155035714Y-125158333D01*
X155130952Y-125110714D01*
X155321428Y-125110714D01*
X155416666Y-125158333D01*
X154988095Y-125729761D02*
X155083333Y-125777380D01*
X155321428Y-125777380D01*
X155416666Y-125729761D01*
X155464285Y-125634523D01*
X155464285Y-125539285D01*
X155416666Y-125444047D01*
X155321428Y-125396428D01*
X155083333Y-125396428D01*
X154988095Y-125348809D01*
X154607142Y-125110714D02*
X154369047Y-125777380D01*
X154130952Y-125110714D02*
X154369047Y-125777380D01*
X154464285Y-126015476D01*
X154511904Y-126063095D01*
X154607142Y-126110714D01*
X153750000Y-125110714D02*
X153750000Y-125777380D01*
X153750000Y-125205952D02*
X153702380Y-125158333D01*
X153607142Y-125110714D01*
X153464285Y-125110714D01*
X153369047Y-125158333D01*
X153321428Y-125253571D01*
X153321428Y-125777380D01*
X152464285Y-125729761D02*
X152559523Y-125777380D01*
X152750000Y-125777380D01*
X152845238Y-125729761D01*
X152892857Y-125634523D01*
X152892857Y-125253571D01*
X152845238Y-125158333D01*
X152750000Y-125110714D01*
X152559523Y-125110714D01*
X152464285Y-125158333D01*
X152416666Y-125253571D01*
X152416666Y-125348809D01*
X152892857Y-125444047D01*
X181345238Y-116353571D02*
X181202380Y-116401190D01*
X181154761Y-116448809D01*
X181107142Y-116544047D01*
X181107142Y-116686904D01*
X181154761Y-116782142D01*
X181202380Y-116829761D01*
X181297619Y-116877380D01*
X181678571Y-116877380D01*
X181678571Y-115877380D01*
X181345238Y-115877380D01*
X181250000Y-115925000D01*
X181202380Y-115972619D01*
X181154761Y-116067857D01*
X181154761Y-116163095D01*
X181202380Y-116258333D01*
X181250000Y-116305952D01*
X181345238Y-116353571D01*
X181678571Y-116353571D01*
X180678571Y-115877380D02*
X180678571Y-116686904D01*
X180630952Y-116782142D01*
X180583333Y-116829761D01*
X180488095Y-116877380D01*
X180297619Y-116877380D01*
X180202380Y-116829761D01*
X180154761Y-116782142D01*
X180107142Y-116686904D01*
X180107142Y-115877380D01*
X179059523Y-116782142D02*
X179107142Y-116829761D01*
X179250000Y-116877380D01*
X179345238Y-116877380D01*
X179488095Y-116829761D01*
X179583333Y-116734523D01*
X179630952Y-116639285D01*
X179678571Y-116448809D01*
X179678571Y-116305952D01*
X179630952Y-116115476D01*
X179583333Y-116020238D01*
X179488095Y-115925000D01*
X179345238Y-115877380D01*
X179250000Y-115877380D01*
X179107142Y-115925000D01*
X179059523Y-115972619D01*
X178630952Y-116877380D02*
X178630952Y-115877380D01*
X178059523Y-116877380D02*
X178488095Y-116305952D01*
X178059523Y-115877380D02*
X178630952Y-116448809D01*
X176297619Y-116782142D02*
X176345238Y-116829761D01*
X176488095Y-116877380D01*
X176583333Y-116877380D01*
X176726190Y-116829761D01*
X176821428Y-116734523D01*
X176869047Y-116639285D01*
X176916666Y-116448809D01*
X176916666Y-116305952D01*
X176869047Y-116115476D01*
X176821428Y-116020238D01*
X176726190Y-115925000D01*
X176583333Y-115877380D01*
X176488095Y-115877380D01*
X176345238Y-115925000D01*
X176297619Y-115972619D01*
X175678571Y-115877380D02*
X175488095Y-115877380D01*
X175392857Y-115925000D01*
X175297619Y-116020238D01*
X175250000Y-116210714D01*
X175250000Y-116544047D01*
X175297619Y-116734523D01*
X175392857Y-116829761D01*
X175488095Y-116877380D01*
X175678571Y-116877380D01*
X175773809Y-116829761D01*
X175869047Y-116734523D01*
X175916666Y-116544047D01*
X175916666Y-116210714D01*
X175869047Y-116020238D01*
X175773809Y-115925000D01*
X175678571Y-115877380D01*
X174821428Y-116877380D02*
X174821428Y-115877380D01*
X174250000Y-116877380D01*
X174250000Y-115877380D01*
X173916666Y-115877380D02*
X173583333Y-116877380D01*
X173250000Y-115877380D01*
X172916666Y-116353571D02*
X172583333Y-116353571D01*
X172440476Y-116877380D02*
X172916666Y-116877380D01*
X172916666Y-115877380D01*
X172440476Y-115877380D01*
X171440476Y-116877380D02*
X171773809Y-116401190D01*
X172011904Y-116877380D02*
X172011904Y-115877380D01*
X171630952Y-115877380D01*
X171535714Y-115925000D01*
X171488095Y-115972619D01*
X171440476Y-116067857D01*
X171440476Y-116210714D01*
X171488095Y-116305952D01*
X171535714Y-116353571D01*
X171630952Y-116401190D01*
X172011904Y-116401190D01*
X171154761Y-115877380D02*
X170583333Y-115877380D01*
X170869047Y-116877380D02*
X170869047Y-115877380D01*
X170250000Y-116353571D02*
X169916666Y-116353571D01*
X169773809Y-116877380D02*
X170250000Y-116877380D01*
X170250000Y-115877380D01*
X169773809Y-115877380D01*
X168773809Y-116877380D02*
X169107142Y-116401190D01*
X169345238Y-116877380D02*
X169345238Y-115877380D01*
X168964285Y-115877380D01*
X168869047Y-115925000D01*
X168821428Y-115972619D01*
X168773809Y-116067857D01*
X168773809Y-116210714D01*
X168821428Y-116305952D01*
X168869047Y-116353571D01*
X168964285Y-116401190D01*
X169345238Y-116401190D01*
X179988095Y-118003571D02*
X179845238Y-118051190D01*
X179797619Y-118098809D01*
X179750000Y-118194047D01*
X179750000Y-118336904D01*
X179797619Y-118432142D01*
X179845238Y-118479761D01*
X179940476Y-118527380D01*
X180321428Y-118527380D01*
X180321428Y-117527380D01*
X179988095Y-117527380D01*
X179892857Y-117575000D01*
X179845238Y-117622619D01*
X179797619Y-117717857D01*
X179797619Y-117813095D01*
X179845238Y-117908333D01*
X179892857Y-117955952D01*
X179988095Y-118003571D01*
X180321428Y-118003571D01*
X179130952Y-117527380D02*
X178940476Y-117527380D01*
X178845238Y-117575000D01*
X178750000Y-117670238D01*
X178702380Y-117860714D01*
X178702380Y-118194047D01*
X178750000Y-118384523D01*
X178845238Y-118479761D01*
X178940476Y-118527380D01*
X179130952Y-118527380D01*
X179226190Y-118479761D01*
X179321428Y-118384523D01*
X179369047Y-118194047D01*
X179369047Y-117860714D01*
X179321428Y-117670238D01*
X179226190Y-117575000D01*
X179130952Y-117527380D01*
X178321428Y-118241666D02*
X177845238Y-118241666D01*
X178416666Y-118527380D02*
X178083333Y-117527380D01*
X177750000Y-118527380D01*
X176845238Y-118527380D02*
X177178571Y-118051190D01*
X177416666Y-118527380D02*
X177416666Y-117527380D01*
X177035714Y-117527380D01*
X176940476Y-117575000D01*
X176892857Y-117622619D01*
X176845238Y-117717857D01*
X176845238Y-117860714D01*
X176892857Y-117955952D01*
X176940476Y-118003571D01*
X177035714Y-118051190D01*
X177416666Y-118051190D01*
X176416666Y-118527380D02*
X176416666Y-117527380D01*
X176178571Y-117527380D01*
X176035714Y-117575000D01*
X175940476Y-117670238D01*
X175892857Y-117765476D01*
X175845238Y-117955952D01*
X175845238Y-118098809D01*
X175892857Y-118289285D01*
X175940476Y-118384523D01*
X176035714Y-118479761D01*
X176178571Y-118527380D01*
X176416666Y-118527380D01*
X174083333Y-118527380D02*
X174416666Y-118051190D01*
X174654761Y-118527380D02*
X174654761Y-117527380D01*
X174273809Y-117527380D01*
X174178571Y-117575000D01*
X174130952Y-117622619D01*
X174083333Y-117717857D01*
X174083333Y-117860714D01*
X174130952Y-117955952D01*
X174178571Y-118003571D01*
X174273809Y-118051190D01*
X174654761Y-118051190D01*
X173654761Y-118003571D02*
X173321428Y-118003571D01*
X173178571Y-118527380D02*
X173654761Y-118527380D01*
X173654761Y-117527380D01*
X173178571Y-117527380D01*
X172892857Y-117527380D02*
X172559523Y-118527380D01*
X172226190Y-117527380D01*
X171892857Y-118432142D02*
X171845238Y-118479761D01*
X171892857Y-118527380D01*
X171940476Y-118479761D01*
X171892857Y-118432142D01*
X171892857Y-118527380D01*
X171226190Y-117527380D02*
X171130952Y-117527380D01*
X171035714Y-117575000D01*
X170988095Y-117622619D01*
X170940476Y-117717857D01*
X170892857Y-117908333D01*
X170892857Y-118146428D01*
X170940476Y-118336904D01*
X170988095Y-118432142D01*
X171035714Y-118479761D01*
X171130952Y-118527380D01*
X171226190Y-118527380D01*
X171321428Y-118479761D01*
X171369047Y-118432142D01*
X171416666Y-118336904D01*
X171464285Y-118146428D01*
X171464285Y-117908333D01*
X171416666Y-117717857D01*
X171369047Y-117622619D01*
X171321428Y-117575000D01*
X171226190Y-117527380D01*
%LPC*%
D12*
X144000000Y-122500000D03*
X144000000Y-117500000D03*
X193000000Y-117500000D03*
X193000000Y-122500000D03*
D13*
X160100000Y-118575000D03*
X160100000Y-121075000D03*
X153000000Y-118550000D03*
X153000000Y-121050000D03*
X156525000Y-112475000D03*
X156525000Y-114975000D03*
X185450000Y-118625000D03*
X183450000Y-118625000D03*
X185500000Y-112875000D03*
X183500000Y-112875000D03*
M02*
