M48
METRIC
T1C0.400
T2C0.800
T3C1.300
%
G90
G05
T1
X142.5Y-112.5
X142.5Y-127.5
X143.75Y-111.25
X143.75Y-128.5
X145.0Y-112.5
X145.0Y-127.5
X146.25Y-128.5
X146.5Y-111.25
X147.5Y-112.5
X147.5Y-127.5
X148.75Y-111.25
X148.75Y-128.5
X150.0Y-112.5
X150.0Y-127.5
X151.25Y-111.25
X151.25Y-128.5
X152.5Y-112.5
X152.5Y-127.5
X154.0Y-111.25
X155.0Y-127.5
X156.25Y-129.0
X160.0Y-112.5
X161.25Y-111.25
X161.5Y-126.0
X161.5Y-129.0
X162.5Y-112.5
X163.25Y-115.75
X163.25Y-117.25
X163.75Y-111.25
X163.75Y-113.75
X164.3Y-119.9
X165.0Y-112.5
X165.5Y-115.0
X166.0Y-119.0
X166.25Y-111.25
X166.25Y-113.75
X166.5Y-115.0
X167.0Y-119.0
X167.0Y-126.0
X167.0Y-127.0
X167.0Y-128.0
X167.5Y-112.5
X167.5Y-115.0
X168.0Y-119.0
X168.0Y-120.75
X168.0Y-121.75
X168.0Y-122.75
X168.0Y-123.75
X168.0Y-124.75
X168.0Y-126.0
X168.0Y-127.0
X168.0Y-128.0
X168.75Y-111.25
X168.75Y-113.75
X169.0Y-126.0
X169.0Y-127.0
X169.0Y-128.0
X170.0Y-112.5
X171.25Y-111.25
X171.25Y-113.75
X172.1Y-119.9
X172.264Y-122.736
X172.5Y-112.5
X173.5Y-122.5
X174.25Y-114.0
X175.25Y-122.5
X176.0Y-114.0
X177.0Y-122.5
X178.0Y-114.0
X180.0Y-114.0
X180.0Y-127.5
X181.25Y-126.25
X181.25Y-128.5
X182.5Y-127.5
X183.75Y-126.25
X183.75Y-128.5
X185.0Y-127.5
X186.25Y-126.25
X186.25Y-128.5
X187.5Y-127.5
X188.75Y-126.25
X188.75Y-128.5
X190.0Y-127.5
X191.25Y-126.25
X191.25Y-128.5
X192.5Y-127.5
T2
X153.0Y-118.55
X153.0Y-121.05
X160.1Y-118.575
X160.1Y-121.075
X156.525Y-112.475
X156.525Y-114.975
X183.5Y-112.875
X185.5Y-112.875
X183.45Y-118.625
X185.45Y-118.625
T3
X193.0Y-117.5
X193.0Y-122.5
X144.0Y-117.5
X144.0Y-122.5
T0
M30
